<svg width="337" height="460" viewBox="0 0 337 460" fill="none" xmlns="http://www.w3.org/2000/svg">
<path d="M2 10.5117L7.67322 4.83845L8.09699 5.10185L9.21253 4.71341L2.52305 11.4029L2 10.5117Z" fill="#F5BB2C"/>
<path d="M5.54578 18.3802L4.49814 18.0135L20.914 1.59766L22.0494 1.87651L5.54578 18.3802Z" fill="#F5BB2C"/>
<path d="M10.327 23.5989L10.0338 22.4779L27.3444 5.16737L28.0237 5.90223L10.327 23.5989Z" fill="#F5BB2C"/>
<path d="M15.8883 28.0376L14.8432 27.6685L21.0186 21.4931L21.0633 21.4773L21.5737 22.3522L15.8883 28.0376Z" fill="#F5BB2C"/>
<path d="M20.3045 33.6214L19.8045 32.7072L26.9278 25.5839L27.3997 26.1632L27.3806 26.5454L20.3045 33.6214Z" fill="#F5BB2C"/>
<path d="M21.575 42.3509L21.1613 41.3504L26.6825 35.8292L26.8952 37.0307L21.575 42.3509Z" fill="#F5BB2C"/>
<path d="M26.7086 47.2173L25.9826 47.3056L25.5509 46.9608L29.5326 42.9791L30.4884 43.4375L26.7086 47.2173Z" fill="#F5BB2C"/>
<path d="M33.552 50.3739L32.9971 49.6232L32.929 49.5827L35.6281 46.8837L37.7787 46.1471L33.552 50.3739Z" fill="#F5BB2C"/>
<path d="M40.0631 53.8628L39.1811 53.3307L42.8252 49.6865L43.2132 50.7127L40.0631 53.8628Z" fill="#F5BB2C"/>
<path d="M47.5606 74.9511L49.964 72.5477L50.7763 73.1496L48.2472 75.6787L47.8664 75.158L47.5606 74.9511Z" fill="#F5BB2C"/>
<path d="M54.6386 79.2873L53.5186 80.4073L53.3019 80.0362L54.5266 79.1658L54.6386 79.2873Z" fill="#F5BB2C"/>
<path d="M88.0047 124.507L97.6869 114.825L98.8578 115.068L87.4548 126.471L88.0047 124.507Z" fill="#F5BB2C"/>
<path d="M84.6039 139.322L84.534 137.978L99.2195 123.292L99.1766 124.749L84.6039 139.322Z" fill="#F5BB2C"/>
<path d="M89.856 144.07L89.8525 144.071L89.4492 143.062L97.6926 134.819L98.193 134.871L98.3355 134.176L99.6829 132.829L99.7214 132.877L99.6369 134.289L89.856 144.07Z" fill="#F5BB2C"/>
<path d="M82.8511 159.661L83.8671 158.645L85.0749 158.715L85.1671 158.759L83.166 160.76L82.8511 159.661Z" fill="#F5BB2C"/>
<path d="M66.2976 187.628L66.4403 187.185L66.4511 186.061L76.709 175.803L77.0881 176.838L66.2976 187.628Z" fill="#F5BB2C"/>
<path d="M68.4537 195.472L68.1553 194.356L73.8364 188.675L73.8514 190.075L68.4537 195.472Z" fill="#F5BB2C"/>
<path d="M79.0763 193.435L79.5584 194.128L80.1859 193.551L79.4832 193.028L90.3041 182.208L90.7687 183.157L77.8077 196.118L77.2225 195.289L79.0763 193.435Z" fill="#F5BB2C"/>
<path d="M82.6525 201.273L82.3217 201.091L81.2347 201.277L97.8757 184.636L98.5752 185.351L82.6525 201.273Z" fill="#F5BB2C"/>
<path d="M92.8884 201.038L92.125 200.387L101.591 190.921L102.214 191.712L92.8884 201.038Z" fill="#F5BB2C"/>
<path d="M98.631 205.295L97.5452 205.008L97.5229 204.989L105.684 196.828L105.967 197.954L105.97 197.956L98.631 205.295Z" fill="#F5BB2C"/>
<path d="M101.746 172.179L97.1896 176.736L96.7658 176.174L96.705 175.807L101.13 171.381L101.746 172.179Z" fill="#F5BB2C"/>
<path d="M97.5774 164.934L97.6059 165L95.8383 168.088L94.341 169.585L94.1442 168.411L94.1295 168.382L97.5774 164.934Z" fill="#F5BB2C"/>
<path d="M107.318 136.608L104.816 139.11L103.787 138.724L106.974 135.537L107.343 135.933L107.318 136.608Z" fill="#F5BB2C"/>
<path d="M103.077 139.435L102.495 140.893L102.787 141.139L102.507 141.419L101.862 140.65L103.077 139.435Z" fill="#F5BB2C"/>
<path d="M107.427 145.085L107.452 145.06L107.647 145.224L107.427 145.085Z" fill="#F5BB2C"/>
<path d="M95.2269 157.285L94.8932 157.754L95.0568 158.869L91.4275 162.498L91.391 162.5L90.9173 161.594L95.2269 157.285Z" fill="#F5BB2C"/>
<path d="M88.0028 164.509L83.7966 168.715L83.7995 168.725L83.2316 169.28L82.7114 169.8L83.2833 170.101L83.409 170.517L88.0783 165.848L88.152 164.656L88.0028 164.509Z" fill="#F5BB2C"/>
<path d="M90.4424 172.069L76.2628 186.249L76.646 187.28L90.8594 173.066L90.8545 172.996L90.4424 172.069Z" fill="#F5BB2C"/>
<path d="M70.6769 173.249L70.2709 173.655L70.2461 172.267L70.6769 173.249Z" fill="#F5BB2C"/>
<path d="M90.9353 231.576L98.5013 224.01L98.7585 225.167L91.0117 232.914L91.2898 232.192L90.9353 231.576Z" fill="#F5BB2C"/>
<path d="M94.874 239.052L94.8325 238.933L95.7334 237.981L95.5512 237.162L95.394 237.118L102.472 230.04L103.031 230.644L103.207 230.719L94.874 239.052Z" fill="#F5BB2C"/>
<path d="M99.1805 244.745L98.6485 244.61L98.3056 244.206L110.215 232.297L111.15 232.776L99.1805 244.745Z" fill="#F5BB2C"/>
<path d="M104.425 249.501L103.942 249.226L103.743 248.769L116.055 236.457L115.924 238.002L104.425 249.501Z" fill="#F5BB2C"/>
<path d="M110.602 253.324L109.368 253.881L109.122 253.39L111.617 250.895L111.807 251.057L111.782 252.144L110.602 253.324Z" fill="#F5BB2C"/>
<path d="M121.113 242.813L119.344 244.581L118.504 244.008L120.283 242.229L120.299 242.262L121.113 242.813Z" fill="#F5BB2C"/>
<path d="M297.745 404.767L303.269 399.243L303.701 400.225L298.503 405.423L297.745 404.767Z" fill="#F5BB2C"/>
<path d="M298.514 415.412L297.94 414.572L307.505 405.007L308.384 405.542L298.514 415.412Z" fill="#F5BB2C"/>
<path d="M301.646 422.28L301.018 421.947L300.868 421.644L313.108 409.404L313.809 410.117L301.646 422.28Z" fill="#F5BB2C"/>
<path d="M309.415 424.51L308.744 423.767L310.684 421.827L311.318 422.608L309.415 424.51Z" fill="#F5BB2C"/>
<path d="M331.145 451.366L331.729 450.783L331.931 450.902L332.258 451.668L331.483 452.443L331.145 451.366Z" fill="#F5BB2C"/>
<path d="M335.419 458.507L335.18 457.977L334.819 457.693L335.999 456.512L335.94 457.986L335.419 458.507Z" fill="#F5BB2C"/>
<path d="M97.8879 223.313L98.3737 225.5L99.224 226.623L99.973 226.431L100.094 227.767L102.514 230.378L103.991 231.015L105.226 230.206L108.152 231.238L115.632 235.074L115.338 238.545L118.911 240.185L119.782 241.996L121.037 242.847L123.679 243.869L123.284 246.48L120.915 244.952L119.478 244.759L116.806 242.938L115.379 243.029L112.251 244.365L109.903 247.421L109.386 249.162L111.289 250.791L111.249 252.532L108.85 253.615L108.496 252.907L106.512 252.36L106.34 250.619L103.425 248.96L102.24 246.247L100.661 245.711L100.287 244.891L98.1308 244.344L96.3291 242.219L96.7441 240.215L94.6387 239.598L94.3148 238.667L95.2157 237.715L95.0335 236.896L92.2398 236.116L91.8552 235.651L90.6506 234.112L90.2458 233.292L90.7721 231.926L89.7295 230.115L90.3267 229.153L90.2053 228.809L89.851 227.949L90.4482 227.736L90.5191 226.41L91.6628 225.449L91.6021 224.751L96.9364 220.429L97.9891 221.654L97.8879 223.313ZM84.5572 158.449L86.3184 159.279L86.3589 159.836L85.7415 159.724L86.7435 161.475L86.784 163.55L87.6343 164.39L87.5229 166.192L88.9805 166.647L89.4967 169.299L89.0716 169.886L90.3369 172.73L90.5292 175.513L90.1952 176.596L87.9481 178.185L90.2559 182.901L90.9745 183.741H92.007L93.7176 182.081L93.8998 180.968L95.0031 180.573L94.6185 182.689L95.9242 182.071L96.653 182.506L96.6732 183.67L98.06 185.087L98.0093 186.767L103.01 193.113L103.637 195.107L104.224 195.795L104.933 195.633L105.449 197.688L107.494 199.53L105.874 205.288L104.933 206.209L102.959 204.823L100.894 205.764L97.0275 204.742L91.5313 200.056L89.4664 199.277L88.4845 199.246L86.7031 200.835L85.2657 201.159L84.871 202.515L81.804 200.825L79.9112 201.149L79.6379 200.177L77.654 199.003L78.3929 197.414L76.4495 194.661L77.0669 193.103L75.913 190.795L76.8847 190.765L79.0407 193.862L79.6683 193.285L78.4435 192.374L78.3524 190.795L76.9961 189.348L74.4453 182.486L74.4149 180.887L73.757 180.563L72.8055 180.573L71.7933 181.97L72.7144 183.437L72.4108 184.885L73.3015 186.808L73.3825 194.358L70.8317 194.5L68.0988 195.815L67.5522 193.771L64.1613 192.283L63.9893 191.038L64.0196 189.783L65.1634 189.277L65.9226 186.919L65.9631 182.729L67.5927 182.83L67.8559 181.555L68.7871 180.826L68.5745 178.671L69.7892 175.402L69.7284 172.001L70.7406 174.309L71.6719 172.487L73.5951 171.89L74.1821 175.361L74.9514 175.887L76.1863 175.523L76.824 177.264L79.2533 175.918L81.0651 173.398L81.966 173.489L81.8141 172.294L82.796 172.213L83.1604 171.141L82.7656 169.835L81.2271 169.025L81.1967 168.256L82.1886 168.368L82.3607 169.359L83.2818 168.459L82.3607 165.473L83.0288 165.109L82.9478 163.975L82.0267 163.236L82.7352 160.797L82.1785 158.854L82.6543 158.338L84.5572 158.449ZM92.5232 155.038L95.074 156.506L94.3755 157.488L94.5982 159.006L93.7277 159.927L95.4991 160.494L96.2886 159.654L96.7947 160.777L96.076 161.091L97.1793 161.324L97.8879 162.69L96.7643 163.985L97.0882 164.734L94.7298 168.853L94.6893 170.726L97.1996 169.764L97.1793 169.025L97.6045 168.226L98.3231 168.853L99.1329 168.54L98.394 167.639L100.287 168.226L101.188 169.248L100.813 169.957L100.327 170.746L101.39 172.122L100.52 173.711L101.097 173.894L100.945 174.997L103.131 176.059L99.6086 177.831L99.0418 178.225L97.4223 177.466L96.2481 175.908L95.7015 172.608L94.2237 171.707L93.6265 168.145L91.7236 164.431L91.7539 162.184L90.8733 162.234L89.3652 159.35L89.6587 157.68L91.8552 158.965L92.341 158.692L92.5232 155.038ZM104.366 135.08L105.236 134.767L105.085 136.173L106.411 135.222L106.826 135.667L106.785 136.76L106.471 137.59L104.356 138.865L102.898 138.319L101.977 140.626L107.129 144.958L102.989 142.347L100.216 139.038L100.651 135.748L102.797 136.821L102.746 135.88L103.475 135.404L104.366 135.08ZM96.4708 114.414L98.809 114.899L97.6956 116.691L99.3657 119.707L98.7685 120.759L98.647 124.889L99.9022 127.338L99.892 128.664L96.8251 133.137L96.6935 134.503L97.6753 134.605L98.313 131.498L99.2037 132.611L99.062 134.979L98.7078 135.465L97.9992 135.182L99.2948 140.019L98.2725 141.133L96.5821 139.119L97.0478 141.608L96.3696 141.831L95.7825 142.802L94.578 143.42L92.9787 142.499L91.8147 143.936L92.3107 145.808L91.6021 146.122L90.8632 145.09L91.0049 143.501L89.3348 143.804L88.4643 141.628L88.6769 140.465L87.5837 139.959L85.2455 145.11L82.6846 148.146L83.4438 146.203L82.6441 145.171L83.3729 144.341L83.0895 143.268L83.7272 142.701L84.1321 139.938L83.8385 134.291L85.7415 130.475L87.9177 122.703L88.8084 121.488L89.8713 121.316L92.2297 116.63L94.578 116.772L95.7116 114.454H96.4708V114.414ZM54.009 78.8998L56.8836 82.017L55.8613 82.2093L54.3936 80.7924L53.4523 80.9138L52.7842 79.7701L54.009 78.8998ZM45.6482 68.8498L48.948 70.8031L48.7759 71.7848L50.7699 73.2625L50.4764 74.3758L52.0757 75.317L52.3388 76.744L49.3832 76.572L48.037 75.8332L47.3487 74.8919L46.0025 73.981L46.0531 72.6147L45.4053 71.4407L44.5145 71.1675L44.5651 68.9915L45.1117 68.7385L45.6482 68.8498ZM20.2824 1.30361L22.0133 1.7287L23.2482 3.84394L25.5054 4.98758L26.0925 4.10708L27.8233 5.97943L28.3497 5.00783L29.4631 6.46522L28.5622 8.9347L28.0663 10.22L27.0844 11.2625L21.8311 13.0741L19.4221 14.5214L18.7439 15.8877L19.6447 16.8593L18.9969 18.1446L20.8999 19.5413L19.9686 20.3307L19.0982 20.1081L19.746 21.4946L20.5456 21.2112L21.2541 22.4257L24.6248 23.8932L27.4286 24.2272L26.305 25.1887L26.882 25.8971L26.801 27.5165L25.7281 28.5286L25.3333 30.8664L27.0642 40.6431L27.8436 42.1512L30.8397 43.5883L33.441 43.7806L35.0606 46.6347L38.3705 45.5011L39.9799 43.2644L42.9456 51.108L44.5449 52.9298L43.6137 55.1058L42.2877 54.3568L41.1743 54.5795L35.84 51.3611L33.5119 50.7538L32.4795 49.3572L29.8275 47.7783L27.297 46.8168L25.4649 47.0395L21.9424 44.2259L19.9383 39.378L19.918 36.7062L19.169 35.3904L19.8371 33.4473L18.0657 30.2086L15.7376 27.9011L13.0148 26.9396L13.197 25.8061L10.0592 24.2879L9.3709 21.6565L8.17651 20.7963L8.85468 18.3976L7.50845 18.7519L6.2432 18.5393L3.81392 17.6892L4.65405 13.8534L3.14587 12.7705L2.0122 14.1165L2.17415 11.4244L1.1822 9.73424L1 8.90434L3.78355 3.62128L4.27953 4.18804L6.08125 3.90466L7.57931 4.83578L10.7475 3.73261L11.618 4.30949L13.2274 3.75286L14.8773 4.68397L17.0434 3.60104L19.5435 1L20.2824 1.30361Z" stroke="#F5BB2C"/>
<path d="M332.253 452.6L332.81 451.476L334.612 452.661L335.502 455.737L335.361 459.259L334.662 457.711L332.061 455.666L330.269 449.958L331.413 450.636L332.253 452.6ZM301.735 396.672L304.671 403.332L310.177 406.682L315.248 411.843L315.349 412.734L314.175 414.515L313.214 414.272L310.794 414.748L309.964 419.292L310.157 421.549L311.068 422.673L310.501 422.774L310.157 424.585L309.023 424.383L307.889 423.128L306.391 423.857L305.774 422.895L304.873 424.484L303.689 422.369L302.373 422.673L300.5 421.681L299.6 419.859L297.525 416.995L298.284 415.568L296.826 413.432L298.142 411.793L298.689 412.127L299.164 411.479L298.041 409.374L298.881 407.269L298.355 405.477L295.996 403.433L297.433 399.668L298.901 398.089L298.749 397.067L300.247 397.148L301.29 396.055L301.735 396.672Z" stroke="#F5BB2C"/>
</svg>
