<svg width="534" height="231" viewBox="0 0 534 231" fill="none" xmlns="http://www.w3.org/2000/svg">
<path d="M494.822 2.94319L496.27 2.06268L498.314 4.24878L501.695 5.64544L503.608 5.84786L505.329 5.0888L508.072 5.53412L509.843 7.23441L514.834 9.05615L515.805 8.70192L516.888 10.0784L518.285 10.6451L519.834 10.3921L520.583 11.2422L519.803 12.5478L523.528 16.3634L527.041 17.7904L529.237 17.8714L529.814 20.7659L528.751 22.4966L529.561 25.6037L529.166 27.9618L530.239 31.079L530.118 34.1456L531.079 35.9471L530.978 40.1371L532.527 40.967L533.144 44.985L532.618 49.4685L529.44 52.1707L527.79 52.5351L524.804 50.3895L522.547 50.6931L521.99 51.9177L520.563 52.0594L519.621 54.7009L517.597 55.3487L517.202 57.3931L515.077 57.7777L512.08 60.9455L507.799 61.3807L506.523 60.156L504.712 60.9961L504.246 62.9797L505.359 65.014L504.428 66.9673L504.742 69.1028L503.639 69.4469L503.244 70.3376L503.932 72.048L506.017 74.1126L504.641 75.2462L504.712 76.4606L502.95 77.8776L503.416 78.4342L505.704 78.2925L505.319 79.841L503.608 81.4502L503.679 82.604L505.268 85.205L505.025 86.3891L506.098 86.5612L508.659 88.9092L507.829 91.4495L504.904 93.1296L507.981 97.8256L504.509 98.4936L502.88 100.083L501.493 99.5968L501.371 100.781L502.647 102.987L501.928 103.979L500.389 104.09L499.165 101.57L498.274 102.957L498.051 105.528L496.675 105.062L496.31 104.526L495.754 104.536V107.309L494.175 107.501L494.954 108.837H494.094V109.697L495.126 109.981L494.509 111.711L493.77 111.62L493.011 111.954L490.591 113.948L489.579 113.938L487.059 118.634L486.725 122.065L482.19 123.836L478.759 123.543L478.384 122.399L478.364 121.559L478.678 120.182L478.83 119.332L478.475 118.421L478.354 117.824L477.372 115.689L477.858 115.335L479.123 115.152L479.164 114.07L481.158 112.835L479.862 111.711V112.46L476.998 111.853L476.582 113.584L475.358 114.231L474.497 112.774L471.349 110.578L470.732 110.254L467.331 109.728L463.464 110.406L456.166 109.293L450.974 110.001L438.21 107.208L435.852 108.503L434.647 108.26L430.76 106.59L430.618 105.679L425.74 103.726L418.968 102.238L417.43 99.2932L416.124 98.696L412.055 98.109L409.19 99.6474L408.573 100.71L407.834 100.578L407.915 99.6474L407.257 99.1211L400.394 98.5948L399.463 97.522L396.335 96.8034L395.89 96.0747L396.224 95.1639L397.307 92.9069H398.238L399.878 91.6115L398.582 91.1763L397.044 90.1946L395.374 90.6905L395.758 91.2572L392.135 90.5994L389.402 91.2977L389.513 91.8645L384.604 96.1557L383.592 99.8599L380.231 99.6777L373.632 102.228L366.819 109.718L366.121 109.667L363.074 108.351L358.702 109.07L356.697 108.786L356.212 108.463L357.477 108.523L357.801 107.511L357.062 107.451L353.803 106.742L350.847 108.25L348.144 102.866L347.335 102.663L347.051 101.864L347.719 100.983L345.998 100.801L345.371 99.283L345.108 98.9794L345.806 98.3216L345.027 97.2285L344.389 97.0565L343.296 96.7528L340.128 96.348L336.706 97.1779L336.443 98.2811L332.617 98.2001L331.342 99.8498L330.886 99.1717L329.651 99.2729L328.194 102.157L327.101 102.36L326.483 103.453L324.995 103.301L323.801 105.558L323.001 105.335L322.475 106.013L322.515 107.258L324.378 108.27L323.862 110.041L322.748 109.191L321.797 109.728L321.574 111.823L322.303 112.46L323.963 111.651L324.661 112.258L319.367 114.171L306.452 122.733L301.826 124.656L298.05 125.091L294.002 123.755L285.985 120.608L281.855 117.784L278.046 117.049L274.153 118.496L272.159 120.115L269.922 120.368L266.774 125.752L265.994 130.266L270.245 132.148L273.92 137.017L274.264 139.729L275.398 139.668L275.914 141.095L277.462 141.156L278.616 143.828L280.59 143.544L282.979 144.405L283.353 143.676L284.426 144.324L284.224 145.346L286.522 146.672L285.783 147.836L284.355 148.352L278.718 148.524L277.796 150.042L277.483 152.39L278.394 156.357L279.193 157.805L279.811 157.703L281.44 160.831L283.86 163.128L287.483 164.717L290.267 164.586L291.33 165.243L294.65 164.009L295.51 169.747L294.427 172.814L292.119 171.599L290.54 168.978L288.354 167.612L285.155 166.59L283.718 167.247L280.438 166.023L276.319 167.824L274.082 169.96L269.841 168.047L268.94 170.527L267.28 170.425L266.136 173.856L266.075 176.093L267.351 179.301L268.747 180.06L270.013 182.742L270.337 181.68L270.994 181.882L272.128 182.702L271.865 184.594L273.373 187.246L274.841 187.742L276.43 186.953L277.979 188.612L286.046 191.244L287.858 193.551L291.603 195.039L292.008 196.132L293.475 197.175L292.028 197.954L291.886 199.867L294.062 202.164L294.579 203.571L292.949 203.935L292.443 204.765L292.848 205.696L295.54 205.544L295.854 209.026L294.791 210.18L293.475 210.311L293.911 211.03L293.04 210.989L292.706 211.617L294.002 213.358L290.793 214.127L291.846 214.926L293.344 214.997L292.99 215.989L290.236 216.06L288.961 217.254L287.412 217.366L287.767 216.212L286.542 216.111L286.238 214.856L287.099 214.694L286.937 213.985L286.248 213.358L286.471 214.329L284.882 214.552L284.578 213.388L285.105 212.032L283.738 210.443L282.281 210.463L281.805 209.107L279.011 207.164L278.08 207.214L278.303 208.996L277.715 209.269L277.29 208.621L277.756 207.68L276.389 205.615L276.734 204.897L274.831 203.358L274.416 202.215L274.902 199.583L273.272 198.723L273.171 196.193L272.098 194.705L269.618 193.227L267.968 189.129L266.51 187.428L265.478 187.469L264.719 186.74L264.415 185.333L262.411 183.542L258.98 182.995L256.095 183.339L253.301 182.084L252.127 182.297L248.159 179.453L239.404 177.034L234.97 181.336L233.371 184.25L233.361 186.588L232.308 186.608L231.478 183.684L229.676 182.064L228.118 182.014L227.439 181.234L222.844 179.655L220.87 179.575L218.977 177.975L216.022 177.55L212.439 174.666L204.877 171.63L204.351 169.17L201.537 166.498L199.391 166.164L198.551 165.112L197.185 164.889L193.014 165.83L194.31 162.926L192.478 159.718L190.848 158.746L190.869 157.127L189.796 154.728L186.324 153.493L186.506 150.68L188.105 149.961L192.772 150.639L196.567 149.627L200.464 146.965L201.345 144.961L197.195 141.368L198.48 139.365L198.278 135.65L195.181 134.233L195.039 133.99L193.288 133.646L190.514 135.883L189.239 135.397L187.994 136.723L190.13 137.29V139.446L187.872 141.753L183.773 143.514L182.437 142.573L181.425 142.947L179.785 143.737L179.836 146.024L179.785 146.783L179.411 147.239L179.846 147.836L180.119 148.504L179.643 149.303L179.168 149.87L178.165 150.599L177.285 150.487L176.283 148.473L174.977 148.494L175.736 147.32L174.167 147.239L171.009 148.797L171.546 149.263L172.305 151.58L173.732 152.603L171.92 152.562L171.374 153.311L170.584 152.754V153.979L169.542 154.171L168.712 153.362L169.288 153.088L168.519 152.957L168.064 154.171L166.96 153.696L165.513 154.981L167.386 157.552L167.871 161.762L169.4 165.122L172.153 166.519L172.487 167.318L167.213 176.842L165.574 182.945L165.968 185.252L162.75 189.948L162.132 193.015L163.974 198.531L164.268 203.5L165.392 204.937L166.404 208.611L170.28 211.981L173.418 213.378L174.957 214.663L172.872 216.526L171.576 214.289L168.863 213.52L166.89 215.139L160.148 216.273L159.025 215.038L158.134 214.967L157.547 213.783L156.504 208.854L152.729 206.85L151.423 205.221L149.561 205.98L148.457 204.269L146.656 205.413L146.382 204.289L145.299 203.743L145.016 202.255L143.741 201.941L145.431 198.521L146.058 193.612L144.652 193.521L143.801 194.766L143.589 193.319L144.368 191.345L141.605 188.602L138.366 189.523L136.645 191.284L136.24 193.501L134.125 196.648L131.959 197.569L130.845 194.715L131.118 192.246L129.418 192.428L129.782 190.657L131.756 188.865L131.159 187.6L130.137 186.892L126.271 187.197L122.302 187.799L122.464 187.789L123.051 188.903L122.788 190.522L121.128 189.439L120.45 190.299L121.766 192.496L121.158 193.487L119.549 195.016L118.628 197.212L114.336 201.25L113.759 203.072L111.482 203.284L111.796 205.278L109.761 206.827L107.311 211.381L105.864 212.423L104.032 212.241L103.293 214.498L101.613 215.611L100.155 215.48L103.961 219.963L103.435 221.927L104.913 226.967L104.113 228.586L103.566 227.736L101.754 227.848L100.712 227.038L96.8453 226.501L92.8674 228.424L90.8936 227.19L89.0514 227.23L89.0007 226.471L87.8165 225.672L86.4804 225.611L83.7576 227.22L81.2473 225.368L77.7552 227.594L76.6013 226.694L76.1964 224.771L74.3441 222.706L72.593 223.526L70.0422 222.544L67.9875 223.202L66.3477 222.494L65.2242 223.384L64.4549 222.099L63.1491 222.018L61.4486 223.05L60.1429 222.635L58.5031 224.983L60.0822 225.226L59.5963 227.736L57.8148 229.052L56.671 228.769L56.1042 230.074L55.2843 230.135L54.7782 229.345L53.0372 229.528L52.5818 228.495L50.4966 227.412L50.0816 225.763L48.2192 227.088L46.3162 224.69L44.7068 224.852L42.3687 223.293L39.6762 224.619L37.8138 224.477L36.3562 226.947L30.0805 224.71L30.04 222.706L28.9064 222.139L29.6453 220.824L28.5724 219.144L29.0076 217.848L28.3901 216.35L26.0823 214.427L23.7846 210.986L24.5235 210.156L26.386 211.168L27.7322 210.318L28.7444 208.254L29.0987 203.659L26.1937 202.373L24.3717 203.477L22.2967 203.75L20.333 200.42L20.3229 198.264L17.428 194.641L21.7096 192.172L21.0821 189.814L21.3351 187.729L19.4727 187.476L20.6367 185.917L18.5516 183.994L17.4584 180.563L15.8895 179.541L15.6364 177.618L13.9865 175.007L9.88712 170.766L8.5004 171.131L7.11369 169.734L4.52246 170.412L1.24293 169.056L1 168.185L2.27537 167.396L2.50818 164.957L1.87049 159.795L4.2188 158.105L5.15002 158.216L7.04283 153.48L9.76566 154.512L12.9035 153.935L14.7862 155.524L17.3167 154.715L17.094 154.067L18.5111 152.205L18.5921 148.662L21.2238 146.982L21.993 144.644L25.2321 144.088L25.1005 140.08L25.5459 137.519L26.467 136.467L26.5075 131.234L23.4607 126.032L19.8674 122.703L19.7864 119.747L17.4078 118.766L19.9282 116.185L19.8067 108.604L35.4756 108.493L37.6214 106.226L40.4252 105.163L43.4112 106.418L44.9599 108.179L54.0292 105.912L59.2319 101.338L61.4486 101.378L63.5237 102.491L65.9124 101.773L69.1515 102.036L71.4492 105.457L72.5424 106.023L72.9675 107.37L75.2956 107.339L77.6135 104.738L78.6156 104.769L79.2431 103.584L82.3 103.483L81.9153 101.489L82.4822 100.062L83.6766 98.4531L85.8933 98.4936L90.0838 100.366L92.9686 99.5259L93.1793 99.5879L92.9989 99.2761L94.416 97.7479L94.2135 93.9526L98.3838 91.4629L98.566 89.965L101.603 87.6676L101.562 86.2405L102.949 86.4328L104.457 85.1576L103.546 82.8096L104.093 79.9252L107.898 77.8504L110.024 75.5935L111.461 75.9882L114.862 75.0166L117.676 72.8811L117.869 71.7071L119.154 72.456L120.004 74.3688L122.332 75.0469L123.851 76.2715L125.683 75.6947L127.91 72.203L130.845 71.7071L131.928 70.6747L133.841 71.5249L136.503 71.4136L137.252 72.5471L140.016 73.5794L141.544 72.9519L142.101 76.5752L142.506 75.725L144.237 74.8951L145.137 75.2089L145.856 74.5409L147.233 75.2392L148.478 74.5308L148.802 75.6845L150.35 76.8586L153.275 76.4942L154.551 77.061L158.782 75.8262L163.155 75.4214L164.561 76.899L165.837 76.9496L168.276 75.0368L170.088 72.5876L170.938 69.6323L172.568 68.7822L176.829 74.298L178.975 73.1543L180.079 71.4136L180.939 57.9731L181.647 56.1312L181.081 53.8843L181.769 52.1942L183.965 51.6476L184.795 50.0688L185.676 50.4939L186.01 49.8057L187.447 50.8987L190.717 50.1903H197.205L203.643 51.6476L205.556 51.0202L210.698 53.4694L215.607 53.5908L221.761 52.2144L223.957 49.2895L223.563 47.0326L224.13 46.0104L226.387 45.1906L228.705 43.0247L232.227 43.0855L234.019 47.1641L239.758 42.6705L241.094 43.0349L242.795 42.1948L246.621 43.0349L250.771 42.377L252.805 44.472L255.518 44.0975L257.178 45.6258L259.992 45.7573L260.038 46.1989L260.052 46.1893L261.631 45.8048L261.935 43.9628L264.213 42.1309L266.035 42.8394L269.263 42.4143L271.956 43.062L272.624 43.7705L274.648 41.4629L275.671 38.8821L280.266 38.4773L280.833 37.3438L282.857 36.8377L283.981 37.2527L285.347 36.3013L285.955 33.6092L287.564 34.5707L288.698 37.2729L291.36 38.7202L295.398 35.1678L296.158 36.777L298.273 36.9592L300.47 35.2285L299.346 32.8704L299.387 28.3869L300.53 27.476L300.935 26.1907L303.132 25.1786L304.508 26.4234L305.763 26.3121L306.027 27.1319L308.284 26.8586L308.496 27.7897L309.65 28.5994L309.509 29.237L310.561 29.4698L312.93 25.1482L314.742 25.4012L315.734 23.6807L317.677 22.446L318.811 23.1139L318.416 24.2778L321.291 26.7068L320.784 28.1136L321.483 29.9455L324.641 28.1237L327.101 29.237L328.771 26.8991L330.653 26.5246L331.564 27.7189L333.771 27.8302L334.864 28.6804L335.826 27.9314L335.937 26.049L336.97 25.0774L341.626 23.0836L342.385 23.4884L342.405 24.5308L343.215 24.3487L344.146 25.2191L343.498 26.4234L344.966 29.2674L344.723 30.9576L345.917 34.1962L348.063 35.5929L348.154 38.366L349.572 40.3901L353.337 39.125L354.066 39.5602L353.681 41.301L355.928 40.3598L356.92 41.0986L360.088 41.4629L361.627 45.6023L366.9 49.8126L368.004 48.7803L368.591 44.9546L368.237 43.2746L373.237 44.398L373.976 44.2866L375.089 42.6673L377.033 42.4345L379.452 44.9951L382.792 46.2703L389.645 47.586L391.811 50.43L393.572 51.2497L395.475 50.6627L396.831 52.5553L400.991 54.1342L401.184 55.3385L404.807 57.636L405.86 61.6337L408.765 61.9575L410.496 63.0607L411.903 61.8057L415.172 62.3219L418.138 60.0852L419.565 60.4799L422.42 59.3464L423.553 59.4982L423.918 58.3444L427.916 56.7757L430.386 56.9478L432.947 58.0408L434.171 54.3467L435.72 53.2435L440.457 54.8325L444.526 53.6383L446.996 54.5896L449.01 56.3506L450.194 53.1929L452.533 53.4561L453.95 52.3732L455.498 52.7577L456.511 51.3712L458.97 50.8753L459.608 49.681L462.331 51.9987L463.96 51.9278L463.778 53.7192L464.932 54.6807L466.926 54.4277L469.872 52.8893L472.767 53.1423L475.419 52.2719L476.238 50.1668L478.789 49.3066L483.516 49.762L484.478 48.5677L487.433 48.6689L487.98 46.2906L489.063 45.9566L490.004 44.3069L490.45 42.3333L489.944 40.795L490.976 39.4084L493.78 39.0542L491.492 35.603L489.964 34.9249L489.529 33.589L489.589 32.7692L491.057 32.0708L491.219 30.5021L492.403 28.9941L491.674 24.7737L488.962 24.4701L489.498 18.4482L488.091 17.3147L487.99 15.1388L486.725 15.3918L486.31 16.2622L484.093 15.8067L483.759 14.1064L482.514 13.8433L481.816 12.9527L480.975 8.31733L481.816 5.74665L483.182 4.93699L485.611 5.36206L486.421 3.43911L490.44 1.10121L491.259 1L492.889 2.58896L494.822 2.94319Z" stroke="#F5BC2E"/>
<path d="M237.885 193.491L238.877 193.42L240.952 195.069L243.037 197.994L244.06 201.354L247.683 205.747L257.168 210.534L262.887 212.467L263.454 212.113L264.709 213.125L264.405 214.42L265.215 214.835L265.802 217.619L267.543 218.337L270.681 217.639L271.086 219.825L267.988 220.797L265.357 219.734L262.421 220.078L256.874 219.299L255.558 218.044L253.281 217.588L245.021 213.459L243.098 213.388L240.77 214.623L237.157 214.289L235.152 215.23L237.076 211.87L237.632 209.542L235.912 207.093L233.826 201.982L231.508 200.565L231.367 198.288L230.608 198.096L232.258 194.928L231.812 192.954L232.652 188.542L232.227 186.73L233.351 186.649L234.667 188.461L235.679 192.094L237.885 193.491Z" stroke="#F5BC2E"/>
<path d="M286.299 170.081L286.977 170.425L286.886 172.156L288.141 172.369L289.072 173.35L286.481 172.925L285.712 171.832L285.287 172.166L283.232 170.921L286.046 169.474L286.299 170.081Z" stroke="#F5BC2E"/>
<path d="M299.366 180.416L300.46 177.349L299.589 171.621L298.486 167.826L298.425 166.277L298.992 165.842L298 165.629L299.508 164L301.927 170.315L302.737 170.508L304.964 174.03L307.434 174.252L308.152 174.91L310.106 174.718L311.553 175.73L312.981 175.052L316.26 176.934L315.936 178.817L316.888 179.819L319.489 179.859L321.331 180.993L321.787 182.379L323.426 183.381L322.971 184.353L324.833 188.219L328.801 191.225L329.975 193.249L332.506 194.372L333.65 195.729L335.188 200.86L326.585 204.109L325.167 202.398L325.208 200.566L324.307 198.482L321.331 195.587L319.934 195.354L318.872 194.211L318.932 191.771L316.199 188.958L313.537 184.363L310.268 183.321L307.079 183.574L304.326 182.683L302.474 182.835L299.366 180.416Z" stroke="#F5BC2E"/>
<path d="M486.939 3.70531L486.422 4.93272L488.638 2.7168L486.939 3.70531Z" fill="#F5BC2E"/>
<path d="M497.869 3.48543L497.186 2.75472L484.489 15.4518L484.611 16.0729L485.167 16.1873L497.869 3.48543Z" fill="#F5BC2E"/>
<path d="M503.855 6.0854L504.126 6.11406L505.847 5.355L505.978 5.37636L489.759 21.5954L489.898 20.043L503.855 6.0854Z" fill="#F5BC2E"/>
<path d="M512.92 8.43474L511.884 8.05654L492.591 27.3496L492.799 28.5555L512.92 8.43474Z" fill="#F5BC2E"/>
<path d="M519.073 10.8671L520.352 10.6583L520.513 10.8416L493.395 37.9593L492.832 37.1089L519.073 10.8671Z" fill="#F5BC2E"/>
<path d="M433.531 107.824L432.541 107.399L523.683 16.2576L524.046 16.6296L524.529 16.8257L433.531 107.824Z" fill="#F5BC2E"/>
<path d="M198.03 141.91L310.363 29.5776L311.079 29.736L312.14 27.801L314.394 25.5466L315.259 25.6674L316.251 23.9469L318.195 22.7122L318.477 22.8782L271.98 69.374L271.814 69.5411L198.788 142.566L198.03 141.91Z" fill="#F5BC2E"/>
<path d="M196.492 134.862L267.569 63.7857L267.618 63.7359L295.918 35.437L295.916 35.434L291.878 38.9864L291.279 38.6612L267.339 62.6007L267.292 62.6481L195.603 134.337L195.698 134.499L196.492 134.862Z" fill="#F5BC2E"/>
<path d="M131.804 188.136L282.657 37.2834L283.375 37.1039L284.015 37.3401L267.3 54.0546L267.069 54.286L173.036 148.318L171.527 149.063L171.936 149.418L166.717 154.637L166.03 155.247L166.063 155.291L132.257 189.097L131.804 188.136Z" fill="#F5BC2E"/>
<path d="M266.878 43.0627L260.843 49.0976L260.975 50.3794L268.506 42.8483L266.878 43.0627Z" fill="#F5BC2E"/>
<path d="M191.978 159.377L321.764 29.5908L321.374 28.567L275.84 74.1005L275.675 74.2658L191.371 158.569L191.366 159.012L191.978 159.377Z" fill="#F5BC2E"/>
<path d="M282.765 77.1749L282.546 77.3942L193.935 166.006L195.761 165.593L283.358 77.9967L283.577 77.7774L333.308 28.0469L332.082 27.9851L332.027 27.9132L282.765 77.1749Z" fill="#F5BC2E"/>
<path d="M203.355 167.999L202.63 167.31L288.286 81.6549L288.505 81.4356L344.556 25.3845L344.664 25.4853L344.016 26.6896L344.237 27.1177L293.119 78.2357L292.886 78.4692L291.205 80.1489L291.202 80.1523L203.355 167.999Z" fill="#F5BC2E"/>
<path d="M297.91 82.6475L297.638 83.7165L346.712 34.6426L346.435 34.4624L346.177 33.7632L297.832 82.1077L297.771 82.1694L207.285 172.655L208.294 173.06L297.451 83.9031L297.833 82.3816L297.91 82.6475Z" fill="#F5BC2E"/>
<path d="M270.756 120.598L302.018 89.3369L302.233 89.1215L351.007 40.3481L350.089 40.6563L349.758 40.1828L301.448 88.4926L301.233 88.7079L214.093 175.847L214.876 176.478L270.043 121.312L270.439 120.634L270.756 120.598Z" fill="#F5BC2E"/>
<path d="M286.166 113.774L282.341 117.599L282.294 117.647L282.373 118.05L282.926 118.428L287.682 113.673L287.323 113.87L286.166 113.774Z" fill="#F5BC2E"/>
<path d="M289.359 121.995L288.344 121.597L363.216 46.7242L364.003 47.352L289.359 121.995Z" fill="#F5BC2E"/>
<path d="M295.572 124.369L296.635 124.719L378.086 43.2683L377.55 42.7007L377.198 42.743L295.572 124.369Z" fill="#F5BC2E"/>
<path d="M311.082 120.273L306.97 122.999L306.922 123.019L323.014 106.927L323.033 107.524L323.55 107.805L311.082 120.273Z" fill="#F5BC2E"/>
<path d="M343.814 97.019L344.222 97.1325L391.606 49.7483L390.995 48.9456L343.023 96.918L343.814 97.019Z" fill="#F5BC2E"/>
<path d="M348.311 103.044L347.852 102.93L347.632 102.308L397.253 52.6876L397.349 52.8215L398.207 53.1473L348.311 103.044Z" fill="#F5BC2E"/>
<path d="M354.32 107.008L354.342 107.013L404.179 57.1756L403.314 56.6269L351.487 108.454L354.32 107.008Z" fill="#F5BC2E"/>
<path d="M419.268 102.087L418.782 101.158L465.201 54.7396L465.45 54.9469L466.547 54.8077L419.268 102.087Z" fill="#F5BC2E"/>
<path d="M426.257 103.992L427.047 104.308L481.565 49.7903L480.275 49.666L426.004 103.937L426.257 103.992Z" fill="#F5BC2E"/>
<path d="M441.795 108.145L442.956 108.399L530.33 21.0244L530.095 19.8452L441.795 108.145Z" fill="#F5BC2E"/>
<path d="M451.16 110.195L450 109.941L530.203 29.7371L530.566 30.7891L451.16 110.195Z" fill="#F5BC2E"/>
<path d="M459.892 110.048L461.119 110.235L505.697 65.6574L505.877 65.2802L505.447 64.4938L459.892 110.048Z" fill="#F5BC2E"/>
<path d="M478.897 122.458L496.271 105.083V104.802L496.558 104.797L506.426 94.9287L505.866 94.0743L479.108 120.833L478.882 121.825L478.897 122.458Z" fill="#F5BC2E"/>
<path d="M505.287 84.6539L505.786 85.4712L505.761 85.5938L478.935 112.42L477.768 112.173L505.287 84.6539Z" fill="#F5BC2E"/>
<path d="M528.623 52.7316L533.337 48.0174L533.525 46.4152L527.628 52.3128L528.307 52.8013L528.623 52.7316Z" fill="#F5BC2E"/>
<path d="M531.544 38.3961L531.51 39.8453L509.865 61.4894L508.317 61.6469L508.305 61.6357L531.544 38.3961Z" fill="#F5BC2E"/>
<path d="M506.535 74.3788L506.046 73.8946L469.666 110.275L470.89 110.465L505.196 76.1585L505.159 75.5124L506.535 74.3788Z" fill="#F5BC2E"/>
<path d="M475.715 114.226L475.876 114.498L477.1 113.85L477.419 112.522L475.715 114.226Z" fill="#F5BC2E"/>
<path d="M508.347 91.7157L508.406 91.5344L508.06 91.8805L508.347 91.7157Z" fill="#F5BC2E"/>
<path d="M481.559 8.38127L484.583 5.35771L485.786 5.5683L481.689 9.66543L481.493 8.58354L481.559 8.38127Z" fill="#F5BC2E"/>
<path d="M436.382 53.5583L434.372 55.5683L433.671 57.6839L437.441 53.9135L436.382 53.5583Z" fill="#F5BC2E"/>
<path d="M419.387 60.5536L420.083 60.7461L420.955 60.3999L381.377 99.978L380.749 99.9439L379.523 100.418L419.387 60.5536Z" fill="#F5BC2E"/>
<path d="M409.146 62.2085L407.874 62.0667L360.877 109.064L362.569 108.786L409.146 62.2085Z" fill="#F5BC2E"/>
<path d="M398.733 91.208L432.181 57.7594L433.172 58.1824L399.708 91.6467L399.1 91.4425L398.733 91.208Z" fill="#F5BC2E"/>
<path d="M397.825 93.1731H398.182L397.495 93.8593L397.825 93.1731Z" fill="#F5BC2E"/>
<path d="M401.068 98.873L402.381 98.9737L446.781 54.5736L445.76 54.1804L401.068 98.873Z" fill="#F5BC2E"/>
<path d="M410.397 99.5434L458.625 51.3154L459.488 51.1415L460.126 49.9472L460.818 50.5366L412.928 98.4265L412.572 98.3752L410.397 99.5434Z" fill="#F5BC2E"/>
<path d="M409.266 100.675L409.091 100.976L408.983 100.957L409.266 100.675Z" fill="#F5BC2E"/>
<path d="M491.707 39.6477L491.494 39.6746L490.95 40.4043L491.707 39.6477Z" fill="#F5BC2E"/>
<path d="M331.61 99.7447L384.575 46.7795L383.389 46.5517L330.422 99.5184L331.404 99.4379L331.61 99.7447Z" fill="#F5BC2E"/>
<path d="M329.932 100.009L326.294 103.647L327.001 103.719L327.618 102.626L328.712 102.424L329.932 100.009Z" fill="#F5BC2E"/>
<path d="M324.161 105.78L324.546 105.395L324.319 105.824L324.161 105.78Z" fill="#F5BC2E"/>
<path d="M358.458 41.4822L359.727 41.628L304.03 97.3252L304.449 96.594L304.372 96.2628L303.411 97.9428L300.507 100.847L299.752 100.888L299.722 101.632L297.183 104.171L296.969 104.177L293.598 107.163L293.175 108.179L288.606 112.749L288.537 112.8L287.302 113.478L286.526 113.414L304.242 95.699L304.294 95.6459L358.458 41.4822Z" fill="#F5BC2E"/>
<path d="M299.783 101.29L300.081 101.274L299.771 101.584L299.783 101.29Z" fill="#F5BC2E"/>
<path d="M295.118 106.237L293.619 107.565L293.496 107.859L295.118 106.237Z" fill="#F5BC2E"/>
<path d="M304.837 26.5182L304.094 25.8467L299.892 30.0489L299.879 31.4759L304.837 26.5182Z" fill="#F5BC2E"/>
<path d="M287.103 34.252L286.472 33.8754L286.179 35.1756L287.103 34.252Z" fill="#F5BC2E"/>
<path d="M123.194 166.746L123.749 167.605L248.226 43.1284L247.138 43.3008L246.729 43.2111L123.194 166.746Z" fill="#F5BC2E"/>
<path d="M122.16 159.195L122.172 159.133L121.165 158.775L233.918 46.0223L234.349 47.0049L122.16 159.195Z" fill="#F5BC2E"/>
<path d="M108.528 152.826L107.36 152.58L207.821 52.1189L208.779 52.5751L108.528 152.826Z" fill="#F5BC2E"/>
<path d="M104.846 85.0937L114.369 75.5714L115.38 75.2826L118.194 73.1471L118.386 71.9731L119.015 72.3394L94.8528 96.5015L94.7811 95.159L97.1891 92.7511L98.9012 91.7289L98.9968 90.9433L101.654 88.2862L102.12 87.9336L102.117 87.8232L103.269 86.6714L103.466 86.6988L104.974 85.4236L104.846 85.0937Z" fill="#F5BC2E"/>
<path d="M93.6237 106.317L93.6226 106.318L88.2729 111.667L88.8293 112.525L125.023 76.3314L124.368 76.5375L123.834 76.1064L97.1079 102.832L97.2817 103.348L97.1883 103.41L97.0223 102.918L93.6237 106.317Z" fill="#F5BC2E"/>
<path d="M92.5244 117.618L93.4432 117.911L138.331 73.0229L137.77 72.8131L137.514 72.4261L92.2539 117.686L92.5244 117.618Z" fill="#F5BC2E"/>
<path d="M95.9411 125.413L95.6915 124.249L144.773 75.1676L145.655 75.4749L146.373 74.8069L146.489 74.8654L95.9411 125.413Z" fill="#F5BC2E"/>
<path d="M101.473 128.467L102.531 128.824L154.348 77.0067L153.793 76.7602L153.093 76.8474L101.473 128.467Z" fill="#F5BC2E"/>
<path d="M102.592 137.983L102.626 137.758L102.485 137.455L163.955 75.9849L164.645 76.7093L26.6333 214.721L26.5999 214.694L26.0583 213.882L102.393 137.547L102.592 137.983Z" fill="#F5BC2E"/>
<path d="M103.84 146.1L104.425 146.929L177.104 74.25L176.488 73.4522L103.84 146.1Z" fill="#F5BC2E"/>
<path d="M113.943 155.998L114.666 156.689L217.893 53.4612L216.124 53.8568L216.084 53.8559L113.943 155.998Z" fill="#F5BC2E"/>
<path d="M127.082 174.272L126.637 173.303L255.503 44.437L256.035 44.3635L256.533 44.8215L127.082 174.272Z" fill="#F5BC2E"/>
<path d="M126.657 183.283L126.656 183.284L122.561 187.379L122.82 187.745L123.467 187.725L123.644 187.711L260.966 50.3879L260.832 49.1078L128.325 181.615L128.231 181.709L126.657 183.283Z" fill="#F5BC2E"/>
<path d="M134.291 197.064L132.476 197.835L132.372 197.568L136.888 193.052L136.758 193.767L135.056 196.298L134.291 197.064Z" fill="#F5BC2E"/>
<path d="M146.576 193.878L146.444 194.91L172.055 169.3L173.004 167.584L172.813 167.127L146.093 193.847L146.576 193.878Z" fill="#F5BC2E"/>
<path d="M146.833 204.522L145.893 204.047L166.184 183.756L166.391 184.963L146.833 204.522Z" fill="#F5BC2E"/>
<path d="M153.246 207.116L153.894 207.46L164.008 197.347L163.654 196.287L153.058 206.882L153.246 207.116Z" fill="#F5BC2E"/>
<path d="M157.932 213.422L157.685 212.255L165.395 204.545L165.909 205.203L165.961 205.393L157.932 213.422Z" fill="#F5BC2E"/>
<path d="M163.955 215.986L165.655 215.7L169.893 211.461L169.137 210.803L163.955 215.986Z" fill="#F5BC2E"/>
<path d="M221.509 179.845L221.388 179.84L220.689 179.251L268.519 131.421L269.499 131.855L221.509 179.845Z" fill="#F5BC2E"/>
<path d="M228.635 182.28L229.061 182.293L274.28 137.074L273.672 136.268L228.182 181.759L228.635 182.28Z" fill="#F5BC2E"/>
<path d="M232.783 187.158L232.96 186.98L233.868 186.915L234.108 187.246L233.051 188.303L232.783 187.158Z" fill="#F5BC2E"/>
<path d="M231.884 198.554L231.938 199.416L237.91 193.445L237.044 192.896L231.487 198.453L231.884 198.554Z" fill="#F5BC2E"/>
<path d="M235.724 205.63L235.314 204.626L242.774 197.166L243.363 197.991L235.724 205.63Z" fill="#F5BC2E"/>
<path d="M235.67 215.496L236.025 215.329L246.908 204.446L246.269 203.671L237.311 212.63L235.67 215.496Z" fill="#F5BC2E"/>
<path d="M246.933 214.422L245.99 213.95L252.006 207.934L252.946 208.408L246.933 214.422Z" fill="#F5BC2E"/>
<path d="M252.657 217.283L253.599 217.755L259.829 211.525L258.773 211.168L252.657 217.283Z" fill="#F5BC2E"/>
<path d="M261.248 220.106L260.008 219.932L265.141 214.799L265.732 215.101L265.823 215.531L261.248 220.106Z" fill="#F5BC2E"/>
<path d="M269.048 220.893L271.108 220.246L271.55 219.804L271.329 218.611L269.048 220.893Z" fill="#F5BC2E"/>
<path d="M286.722 214.633L285.399 214.818L285.342 214.598L294.014 205.926L295.513 205.841L287.27 214.084L286.766 213.624L286.946 214.409L286.722 214.633Z" fill="#F5BC2E"/>
<path d="M282.121 209.233L292.498 198.856L292.545 198.22L293.821 197.533L293.947 197.408L293.12 196.82L281.287 208.653L282.121 209.233Z" fill="#F5BC2E"/>
<path d="M287.385 192.556L288.006 193.348L276.665 204.689L275.883 204.057L287.385 192.556Z" fill="#F5BC2E"/>
<path d="M281.497 189.857L280.431 189.509L273.601 196.339L273.688 196.459L273.735 197.62L281.497 189.857Z" fill="#F5BC2E"/>
<path d="M288.688 172.666L287.999 173.355L286.999 173.191L286.895 173.045L287.502 172.439L288.659 172.635L288.688 172.666Z" fill="#F5BC2E"/>
<path d="M291.453 169.901L295.416 165.938L295.232 164.708L290.835 169.105L291.057 169.244L291.453 169.901Z" fill="#F5BC2E"/>
<path d="M285.885 164.055L286.868 164.486L283.948 167.406L282.918 167.022L285.885 164.055Z" fill="#F5BC2E"/>
<path d="M281.375 159.979L280.891 159.049L271.233 168.707L272.207 169.147L281.375 159.979Z" fill="#F5BC2E"/>
<path d="M285.376 145.978L282.669 148.685L281.211 148.73L284.843 145.097L284.741 145.612L285.376 145.978Z" fill="#F5BC2E"/>
<path d="M278.569 142.786L278.142 141.798L242.051 177.889L243.159 178.195L278.569 142.786Z" fill="#F5BC2E"/>
<path d="M233.882 186.058L233.878 186.854L233.07 186.87L233.882 186.058Z" fill="#F5BC2E"/>
<path d="M250.4 180.954L249.576 180.364L278.111 151.83L278 152.656L278.13 153.224L250.4 180.954Z" fill="#F5BC2E"/>
<path d="M256.421 183.519L256.612 183.605L257.903 183.452L266.637 174.717L266.653 174.122L267.071 172.869L256.421 183.519Z" fill="#F5BC2E"/>
<path d="M269.457 170.793L269.165 170.775L269.634 170.306L269.457 170.793Z" fill="#F5BC2E"/>
<path d="M269.377 180.563L264.62 185.32L264.933 185.599L265.079 186.276L269.83 181.524L269.377 180.563Z" fill="#F5BC2E"/>
<path d="M273.873 187.481L273.36 186.58L269.077 190.863L269.483 191.872L273.873 187.481Z" fill="#F5BC2E"/>
<path d="M130.266 191.089L131.726 189.629L130.3 190.923L130.266 191.089Z" fill="#F5BC2E"/>
<path d="M168.34 161.601L140.655 189.286L142.122 188.868L142.305 189.049L168.682 162.672L168.389 162.028L168.34 161.601Z" fill="#F5BC2E"/>
<path d="M188.39 142.019L187.568 142.372L190.647 139.293V139.712L188.39 142.019Z" fill="#F5BC2E"/>
<path d="M186.887 153.053L189.575 150.365L190.809 150.545L187.397 153.957L186.841 153.759L186.887 153.053Z" fill="#F5BC2E"/>
<path d="M175.474 214.929L175.222 214.718L173.301 216.639L173.389 216.792L175.474 214.929Z" fill="#F5BC2E"/>
<path d="M224.647 46.2764L225.324 46.0306L224.111 47.2437L224.647 46.2764Z" fill="#F5BC2E"/>
<path d="M199.159 50.7814L200.312 51.0425L180.659 70.6953L180.756 69.1844L199.159 50.7814Z" fill="#F5BC2E"/>
<path d="M190.805 50.5493L189 50.9405L181.44 58.5005L181.343 60.0113L190.805 50.5493Z" fill="#F5BC2E"/>
<path d="M128.978 72.3758L128.427 72.469L127.621 73.7337L128.978 72.3758Z" fill="#F5BC2E"/>
<path d="M15.115 176.24L14.5674 175.373L89.7077 100.233L90.6014 100.632L90.7724 100.582L15.115 176.24Z" fill="#F5BC2E"/>
<path d="M23.9783 126.299L24.3765 126.978L44.2758 107.079L43.9288 106.684L43.4552 106.485L23.8038 126.137L23.9783 126.299Z" fill="#F5BC2E"/>
<path d="M20.3317 121.023L20.304 120.014L20.0372 119.903L31.147 108.794L32.5713 108.784L20.3317 121.023Z" fill="#F5BC2E"/>
<path d="M20.336 109.605L21.0754 108.865L22.4998 108.855L20.3583 110.997L20.336 109.605Z" fill="#F5BC2E"/>
<path d="M1.95311 169.402L1.7605 169.322L1.51758 168.452L2.79295 167.662L2.84724 167.093L14.6781 155.263L15.3038 155.791L15.6868 155.668L1.95311 169.402Z" fill="#F5BC2E"/>
<path d="M9.01798 171.397L10.293 171.062L73.7221 107.633L73.4851 107.636L73.2018 106.739L8.78175 171.159L9.01798 171.397Z" fill="#F5BC2E"/>
<path d="M18.2503 181.69L18.592 182.763L88.7259 112.629L88.1684 111.772L18.2503 181.69Z" fill="#F5BC2E"/>
<path d="M21.6445 189.71L21.8398 188.101L91.896 118.045L92.5246 117.888L93.2387 118.116L21.6445 189.71Z" fill="#F5BC2E"/>
<path d="M20.8432 199.097L20.8498 200.505L95.8962 125.459L95.6523 124.335L95.6249 124.316L20.8432 199.097Z" fill="#F5BC2E"/>
<path d="M28.1004 203.254L27.1201 202.821L101.264 128.677L102.321 129.033L28.1004 203.254Z" fill="#F5BC2E"/>
<path d="M30.0322 221.323L30.1629 221.09L29.6515 220.289L103.715 146.226L104.298 147.056L30.0322 221.323Z" fill="#F5BC2E"/>
<path d="M33.8171 226.124L34.8596 226.495L108.278 153.077L107.111 152.83L33.8171 226.124Z" fill="#F5BC2E"/>
<path d="M46.3501 225.005L45.2244 225.118L44.9833 224.957L113.784 156.156L114.507 156.847L46.3501 225.005Z" fill="#F5BC2E"/>
<path d="M51.8355 228.105L52.7663 228.589L121.977 159.378L120.934 159.007L51.8355 228.105Z" fill="#F5BC2E"/>
<path d="M68.0731 223.282L67.0856 222.855L123.069 166.872L123.622 167.733L68.0731 223.282Z" fill="#F5BC2E"/>
<path d="M75.8579 224.083L76.5266 224.828L126.975 174.38L126.532 173.409L75.8579 224.083Z" fill="#F5BC2E"/>
<path d="M84.0412 227.314L83.2274 226.713L122.429 187.512L122.82 188.066L122.982 188.056L123.091 188.263L121.648 189.707L121.646 189.705L121.631 189.724L84.0412 227.314Z" fill="#F5BC2E"/>
<path d="M92.0716 227.869L92.9415 228.413L102.939 218.416L102.29 217.651L92.0716 227.869Z" fill="#F5BC2E"/>
<path d="M103.304 228.05L102.272 228.114L102.021 227.919L104.813 225.128L105.133 226.221L103.304 228.05Z" fill="#F5BC2E"/>
<path d="M69.099 102.256L67.7911 102.15L25.7445 144.196L25.7497 144.354L25.5527 144.388L19.0651 150.876L19.032 152.323L69.099 102.256Z" fill="#F5BC2E"/>
<path d="M53.5008 106.44L54.5468 106.178L59.7495 101.604L59.751 101.604L27.003 134.352L27.014 132.927L53.5008 106.44Z" fill="#F5BC2E"/>
<path d="M7.56041 153.746L7.5954 153.759L7.5283 153.827L7.56041 153.746Z" fill="#F5BC2E"/>
<path d="M300.137 172.085L302.222 170L302.445 170.581L302.938 170.699L300.323 173.313L300.137 172.085Z" fill="#F5BC2E"/>
<path d="M301.61 182.026L300.815 181.407L307.724 174.498L307.951 174.518L308.56 175.076L301.61 182.026Z" fill="#F5BC2E"/>
<path d="M309.986 183.65L308.45 183.772L315.662 176.56L316.56 177.076L309.986 183.65Z" fill="#F5BC2E"/>
<path d="M315.871 187.765L315.353 186.869L321.3 180.922L321.849 181.259L321.979 181.657L315.871 187.765Z" fill="#F5BC2E"/>
<path d="M319.395 194.241L319.431 192.791L324.826 187.396L325.286 188.35L319.395 194.241Z" fill="#F5BC2E"/>
<path d="M324.844 198.792L324.825 198.748L324.14 198.082L329.837 192.385L330.356 193.28L324.844 198.792Z" fill="#F5BC2E"/>
<path d="M330.572 203.065L328.299 203.923L334.642 197.58L334.969 198.668L330.572 203.065Z" fill="#F5BC2E"/>
</svg>
