<svg width="634" height="274" viewBox="0 0 634 274" fill="none" xmlns="http://www.w3.org/2000/svg">
<path d="M587.567 3.30506L589.285 2.26058L591.712 4.85378L595.725 6.51054L597.996 6.75065L600.039 5.85024L603.295 6.37848L605.398 8.39541L611.321 10.5564L612.475 10.1362L613.76 11.769L615.418 12.4413L617.257 12.1411L618.146 13.1496L617.221 14.6983L621.642 19.2244L625.812 20.9172L628.419 21.0132L629.104 24.4468L627.842 26.4998L628.804 30.1855L628.335 32.9827L629.609 36.6805L629.465 40.3181L630.606 42.4551L630.486 47.4254L632.324 48.4099L633.057 53.1761L632.432 58.4945L628.66 61.7L626.701 62.1322L623.156 59.587L620.477 59.9472L619.816 61.3998L618.122 61.5679L617.005 64.7014L614.601 65.4697L614.133 67.8948L611.61 68.3511L608.053 72.1088L602.97 72.625L601.456 71.1724L599.306 72.1688L598.753 74.5219L600.075 76.935L598.969 79.2521L599.342 81.7852L598.032 82.1934L597.563 83.2499L598.38 85.2789L600.856 87.728L599.222 89.0726L599.306 90.5133L597.215 92.194L597.768 92.8544L600.483 92.6863L600.027 94.5231L597.996 96.432L598.08 97.8006L599.967 100.886L599.678 102.291L600.952 102.495L603.992 105.28L603.007 108.293L599.534 110.286L603.187 115.857L599.065 116.649L597.131 118.534L595.485 117.958L595.341 119.363L596.854 121.98L596.001 123.156L594.175 123.288L592.721 120.299L591.664 121.944L591.4 124.993L589.765 124.441L589.333 123.805L588.672 123.817V127.106L586.798 127.334L587.723 128.919H586.701V129.939L587.927 130.276L587.194 132.329L586.317 132.221L585.416 132.617L582.544 134.982L581.343 134.97L578.351 140.54L577.954 144.61L572.571 146.711L568.498 146.363L568.053 145.006L568.029 144.01L568.402 142.377L568.582 141.369L568.162 140.288L568.017 139.58L566.852 137.047L567.429 136.627L568.93 136.41L568.979 135.126L571.346 133.661L569.808 132.329V133.217L566.407 132.497L565.915 134.55L564.461 135.318L563.439 133.589L559.703 130.984L558.97 130.6L554.933 129.975L550.343 130.78L541.679 129.459L535.515 130.3L520.364 126.986L517.564 128.523L516.134 128.235L511.521 126.254L511.352 125.173L505.561 122.856L497.522 121.091L495.696 117.598L494.146 116.889L489.316 116.193L485.916 118.018L485.183 119.279L484.305 119.122L484.402 118.018L483.621 117.394L475.474 116.769L474.369 115.497L470.656 114.644L470.127 113.78L470.524 112.7L471.809 110.022H472.915L474.861 108.486L473.323 107.969L471.497 106.805L469.514 107.393L469.971 108.065L465.669 107.285L462.425 108.113L462.557 108.786L456.73 113.876L455.528 118.27L451.539 118.054L443.705 121.079L435.619 129.963L434.79 129.903L431.173 128.343L425.982 129.195L423.603 128.859L423.026 128.475L424.528 128.547L424.913 127.346L424.036 127.274L420.167 126.434L416.658 128.223L413.45 121.836L412.489 121.596L412.152 120.647L412.945 119.603L410.903 119.387L410.158 117.586L409.845 117.226L410.675 116.445L409.749 115.149L408.992 114.945L407.695 114.584L403.934 114.104L399.873 115.089L399.56 116.397L395.018 116.301L393.504 118.258L392.964 117.454L391.498 117.574L389.768 120.995L388.47 121.235L387.737 122.532L385.971 122.352L384.553 125.029L383.604 124.765L382.979 125.569L383.027 127.046L385.238 128.247L384.625 130.348L383.303 129.339L382.174 129.975L381.909 132.461L382.775 133.217L384.745 132.257L385.574 132.977L379.29 135.246L363.958 145.403L358.467 147.684L353.985 148.2L349.179 146.615L339.663 142.881L334.761 139.532L330.239 138.66L325.617 140.376L323.25 142.297L320.595 142.597L316.858 148.984L315.933 154.339L320.979 156.572L325.341 162.346L325.749 165.564L327.095 165.492L327.708 167.184L329.546 167.256L330.916 170.426L333.259 170.09L336.095 171.11L336.539 170.246L337.813 171.014L337.572 172.227L340.3 173.799L339.423 175.18L337.729 175.792L331.036 175.996L329.943 177.797L329.57 180.583L330.652 185.289L331.601 187.006L332.334 186.886L334.268 190.595L337.14 193.32L341.441 195.205L344.746 195.049L346.007 195.83L349.948 194.365L350.97 201.172L349.684 204.81L346.945 203.369L345.07 200.26L342.475 198.639L338.678 197.426L336.972 198.207L333.079 196.754L328.188 198.891L325.533 201.424L320.498 199.155L319.429 202.097L317.459 201.976L316.101 206.046L316.029 208.7L317.543 212.505L319.201 213.406L320.703 216.587L321.087 215.327L321.868 215.567L323.214 216.539L322.902 218.784L324.692 221.93L326.434 222.518L328.321 221.581L330.159 223.55L339.735 226.672L341.886 229.409L346.332 231.174L346.812 232.471L348.555 233.707L346.836 234.632L346.668 236.901L349.251 239.626L349.864 241.295L347.93 241.727L347.329 242.711L347.81 243.816L351.006 243.636L351.378 247.766L350.117 249.134L348.555 249.29L349.071 250.143L348.038 250.095L347.641 250.839L349.179 252.904L345.371 253.816L346.62 254.765L348.398 254.849L347.978 256.025L344.71 256.109L343.196 257.526L341.357 257.658L341.778 256.29L340.324 256.169L339.964 254.681L340.985 254.489L340.793 253.648L339.976 252.904L340.24 254.056L338.353 254.321L337.993 252.94L338.618 251.331L336.996 249.446L335.266 249.47L334.701 247.862L331.384 245.557L330.279 245.617L330.543 247.73L329.846 248.054L329.342 247.285L329.895 246.169L328.272 243.72L328.681 242.867L326.422 241.042L325.929 239.686L326.506 236.564L324.572 235.544L324.452 232.543L323.178 230.778L320.234 229.025L318.276 224.163L316.545 222.146L315.32 222.194L314.419 221.329L314.058 219.661L311.679 217.536L307.606 216.887L304.181 217.296L300.865 215.807L299.471 216.059L294.761 212.685L284.368 209.816L279.105 214.918L277.207 218.376L277.195 221.149L275.945 221.173L274.96 217.704L272.821 215.783L270.971 215.723L270.166 214.798L264.711 212.926L262.368 212.829L260.121 210.933L256.612 210.428L252.359 207.007L243.383 203.405L242.758 200.488L239.418 197.318L236.871 196.922L235.873 195.674L234.251 195.409L229.301 196.526L230.839 193.08L228.664 189.275L226.73 188.122L226.754 186.201L225.48 183.356L221.359 181.891L221.575 178.554L223.473 177.701L229.013 178.506L233.518 177.305L238.144 174.148L239.19 171.771L234.263 167.509L235.789 165.131L235.549 160.725L231.872 159.045L231.704 158.757L229.625 158.348L226.333 161.002L224.819 160.425L223.341 161.998L225.876 162.67V165.228L223.197 167.965L218.331 170.054L216.745 168.937L215.543 169.381L213.597 170.318L213.657 173.031L213.597 173.932L213.152 174.472L213.669 175.18L213.993 175.972L213.428 176.921L212.864 177.593L211.674 178.458L210.629 178.326L209.439 175.936L207.889 175.96L208.79 174.568L206.928 174.472L203.179 176.321L203.816 176.873L204.717 179.622L206.411 180.835L204.261 180.787L203.612 181.675L202.675 181.015V182.467L201.437 182.696L200.452 181.735L201.137 181.411L200.223 181.255L199.683 182.696L198.373 182.131L196.655 183.656L198.878 186.705L199.454 191.7L201.269 195.686L204.537 197.342L204.934 198.291L198.673 209.588L196.727 216.827L197.196 219.565L193.375 225.135L192.642 228.773L194.828 235.316L195.177 241.211L196.511 242.915L197.712 247.273L202.314 251.271L206.039 252.928L207.865 254.453L205.39 256.662L203.852 254.008L200.632 253.096L198.289 255.017L190.287 256.362L188.953 254.897L187.896 254.813L187.199 253.408L185.961 247.561L181.479 245.184L179.929 243.252L177.718 244.152L176.409 242.123L174.27 243.48L173.946 242.147L172.66 241.499L172.323 239.734L170.81 239.362L172.816 235.304L173.561 229.481L171.891 229.373L170.882 230.85L170.629 229.133L171.554 226.792L168.274 223.538L164.429 224.631L162.387 226.72L161.906 229.349L159.395 233.083L156.823 234.175L155.502 230.79L155.826 227.86L153.808 228.077L154.24 225.976L156.583 223.851L155.874 222.35L154.661 221.509L150.072 221.871L145.361 222.586L145.553 222.574L146.25 223.895L145.938 225.816L143.967 224.531L143.162 225.552L144.724 228.157L144.003 229.333L142.093 231.146L140.999 233.751L135.905 238.542L135.22 240.703L132.516 240.955L132.889 243.32L130.474 245.157L127.566 250.559L125.848 251.796L123.673 251.58L122.796 254.257L120.801 255.577L119.071 255.421L123.589 260.74L122.964 263.069L124.718 269.048L123.769 270.968L123.12 269.96L120.969 270.092L119.732 269.132L115.142 268.495L110.42 270.776L108.077 269.312L105.89 269.36L105.83 268.459L104.424 267.511L102.838 267.439L99.6058 269.348L96.6259 267.151L92.4806 269.792L91.1108 268.723L90.6302 266.442L88.4314 263.993L86.3527 264.966L83.3248 263.801L80.8857 264.582L78.9392 263.741L77.6054 264.798L76.6923 263.273L75.1423 263.177L73.1237 264.401L71.5737 263.909L69.6272 266.695L71.5016 266.983L70.9248 269.96L68.8101 271.521L67.4523 271.185L66.7795 272.733L65.8062 272.805L65.2055 271.869L63.1388 272.085L62.5981 270.86L60.1229 269.576L59.6303 267.619L57.4194 269.192L55.1605 266.346L53.2501 266.538L50.4745 264.69L47.2784 266.262L45.0675 266.094L43.3373 269.024L35.8877 266.37L35.8396 263.993L34.4939 263.321L35.371 261.76L34.0974 259.767L34.614 258.231L33.8811 256.454L31.1416 254.173L28.414 250.091L29.2912 249.106L31.502 250.307L33.1001 249.298L34.3016 246.849L34.7222 241.399L31.2737 239.874L29.1109 241.183L26.6478 241.507L24.3168 237.557L24.3048 235L20.8683 230.702L25.9509 227.773L25.2059 224.975L25.5063 222.502L23.2954 222.202L24.6772 220.353L22.202 218.072L20.9044 214.002L19.042 212.79L18.7416 210.509L16.783 207.411L11.9168 202.381L10.2707 202.813L8.62454 201.156L5.54858 201.961L1.65556 200.352L1.36719 199.319L2.88113 198.383L3.15749 195.49L2.40052 189.367L5.18811 187.362L6.29353 187.494L8.54042 181.875L11.7726 183.1L15.4974 182.416L17.7323 184.301L20.7362 183.34L20.4718 182.572L22.154 180.363L22.2501 176.161L25.3741 174.168L26.2873 171.395L30.1323 170.734L29.976 165.98L30.5047 162.943L31.5981 161.694L31.6462 155.487L28.0295 149.316L23.764 145.367L23.6679 141.861L20.8443 140.696L23.8362 137.635L23.692 128.643L42.2919 128.511L44.8392 125.822L48.1675 124.561L51.7121 126.05L53.5504 128.139L64.3163 125.449L70.4923 120.023L73.1237 120.071L75.5868 121.391L78.4225 120.539L82.2674 120.851L84.995 124.909L86.2926 125.581L86.7973 127.178L89.5609 127.142L92.3124 124.057L93.5019 124.093L94.2469 122.688L97.8756 122.568L97.419 120.203L98.0918 118.51L99.5097 116.601L102.141 116.649L107.115 118.87L110.54 117.874L110.79 117.947L110.576 117.578L112.258 115.765L112.018 111.263L116.968 108.309L117.184 106.532L120.789 103.807L120.741 102.114L122.387 102.343L124.177 100.83L123.096 98.0445L123.745 94.623L128.263 92.1618L130.786 89.4846L132.492 89.9528L136.529 88.8003L139.87 86.2671L140.098 84.8745L141.624 85.7629L142.633 88.0319L145.397 88.8363L147.199 90.289L149.374 89.6046L152.017 85.4627L155.502 84.8745L156.787 83.6499L159.058 84.6584L162.218 84.5263L163.108 85.8709L166.388 87.0955L168.202 86.3511L168.863 90.6491L169.344 89.6407L171.398 88.6562L172.468 89.0284L173.321 88.236L174.955 89.0644L176.433 88.224L176.817 89.5926L178.656 90.9853L182.128 90.5531L183.642 91.2254L188.665 89.7607L193.855 89.2805L195.525 91.0333L197.039 91.0933L199.935 88.8243L202.086 85.9189L203.095 82.4133L205.03 81.4049L210.088 87.9479L212.635 86.5913L213.945 84.5263L214.966 68.5829L215.808 66.3979L215.135 63.7327L215.952 61.7278L218.559 61.0795L219.544 59.2066L220.59 59.7109L220.986 58.8945L222.692 60.1911L226.573 59.3507H234.275L241.917 61.0795L244.188 60.3351L250.292 63.2405L256.119 63.3846L263.425 61.7518L266.032 58.2822L265.564 55.605L266.237 54.3924L268.916 53.42L271.668 50.8508L275.849 50.9228L277.976 55.761L284.788 50.4306L286.374 50.8628L288.393 49.8663L292.935 50.8628L297.861 50.0824L300.276 52.5676L303.497 52.1234L305.467 53.9362L308.807 54.0923L308.862 54.6161L308.879 54.6047L310.754 54.1485L311.114 51.9635L313.818 49.7905L315.98 50.6309L319.813 50.1267L323.01 50.895L323.803 51.7354L326.206 48.9981L327.419 45.9367L332.874 45.4565L333.547 44.1119L335.95 43.5116L337.284 44.0038L338.906 42.8753L339.627 39.6818L341.537 40.8224L342.883 44.0278L346.043 45.7446L350.837 41.5307L351.739 43.4396L354.25 43.6557L356.857 41.6027L355.523 38.8054L355.572 33.487L356.929 32.4065L357.41 30.8818L360.017 29.6812L361.651 31.1579L363.141 31.0258L363.454 31.9983L366.133 31.6741L366.385 32.7787L367.755 33.7391L367.587 34.4954L368.837 34.7716L371.648 29.6452L373.799 29.9453L374.977 27.9044L377.284 26.4397L378.629 27.2321L378.161 28.6127L381.573 31.4941L380.972 33.1628L381.801 35.3358L385.55 33.1748L388.47 34.4954L390.452 31.7222L392.687 31.278L393.769 32.6946L396.388 32.8267L397.686 33.8351L398.827 32.9467L398.959 30.7137L400.185 29.5612L405.712 27.1961L406.613 27.6763L406.637 28.9129L407.599 28.6968L408.704 29.7292L407.935 31.1579L409.677 34.5315L409.389 36.5364L410.807 40.3782L413.354 42.0349L413.462 45.3244L415.144 47.7255L419.614 46.2248L420.479 46.7411L420.023 48.806L422.69 47.6895L423.868 48.5659L427.628 48.9981L429.455 53.9084L435.715 58.9027L437.025 57.6781L437.721 53.14L437.301 51.1471L443.237 52.4797L444.114 52.3477L445.435 50.4268L447.742 50.1507L450.614 53.1881L454.579 54.7008L462.714 56.2615L465.285 59.635L467.376 60.6075L469.635 59.9112L471.245 62.1562L476.183 64.0291L476.411 65.4577L480.713 68.183L481.962 72.9252L485.411 73.3093L487.466 74.6179L489.136 73.1293L493.017 73.7415L496.537 71.0883L498.231 71.5565L501.62 70.2119L502.966 70.392L503.398 69.0234L508.144 67.1625L511.076 67.3666L514.116 68.6632L515.57 64.2812L517.408 62.9726L523.031 64.8574L527.862 63.4408L530.793 64.5693L533.184 66.6583L534.59 62.9125L537.366 63.2247L539.048 61.9401L540.886 62.3963L542.088 60.7515L545.008 60.1633L545.765 58.7466L548.997 61.4959L550.931 61.4119L550.715 63.5368L552.085 64.6774L554.452 64.3772L557.948 62.5524L561.385 62.8525L564.533 61.82L565.506 59.3229L568.534 58.3024L574.145 58.8427L575.287 57.426L578.795 57.5461L579.444 54.7248L580.73 54.3286L581.847 52.3717L582.376 50.0306L581.775 48.2058L583.001 46.561L586.329 46.1408L583.613 42.0469L581.799 41.2425L581.282 39.6578L581.355 38.6854L583.097 37.857L583.289 35.9961L584.695 34.2073L583.83 29.201L580.61 28.8408L581.246 21.6975L579.576 20.3529L579.456 17.7717L577.954 18.0719L577.462 19.1043L574.83 18.5641L574.434 16.5472L572.956 16.235L572.127 15.1785L571.129 9.68L572.127 6.6306L573.749 5.67015L576.633 6.17439L577.594 3.89333L582.364 1.12006L583.337 1L585.272 2.88487L587.567 3.30506Z" fill="#F5BC2E"/>
<path d="M282.566 229.337L283.743 229.253L286.206 231.21L288.681 234.68L289.895 238.665L294.197 243.876L305.455 249.554L312.244 251.847L312.917 251.427L314.407 252.628L314.046 254.165L315.007 254.657L315.704 257.958L317.771 258.811L321.496 257.982L321.976 260.576L318.3 261.728L315.176 260.467L311.691 260.876L305.107 259.951L303.545 258.463L300.841 257.922L291.036 253.024L288.754 252.94L285.99 254.405L281.7 254.008L279.321 255.125L281.604 251.139L282.265 248.378L280.223 245.473L277.747 239.41L274.996 237.729L274.828 235.028L273.926 234.8L275.885 231.042L275.356 228.701L276.354 223.466L275.849 221.317L277.183 221.221L278.745 223.37L279.946 227.68L282.566 229.337Z" fill="#F5BC2E"/>
<path d="M340.036 201.568L340.841 201.976L340.733 204.029L342.222 204.282L343.328 205.446L340.252 204.942L339.339 203.645L338.834 204.041L336.395 202.565L339.735 200.848L340.036 201.568Z" fill="#F5BC2E"/>
<path d="M587.567 3.30506L589.285 2.26058L591.712 4.85378L595.725 6.51054L597.996 6.75065L600.039 5.85024L603.295 6.37848L605.398 8.39541L611.321 10.5564L612.475 10.1362L613.76 11.769L615.418 12.4413L617.257 12.1411L618.146 13.1496L617.221 14.6983L621.642 19.2244L625.812 20.9172L628.419 21.0132L629.104 24.4468L627.842 26.4998L628.804 30.1855L628.335 32.9827L629.609 36.6805L629.465 40.3181L630.606 42.4551L630.486 47.4254L632.324 48.4099L633.057 53.1761L632.432 58.4945L628.66 61.7L626.701 62.1322L623.156 59.587L620.477 59.9472L619.816 61.3998L618.122 61.5679L617.005 64.7014L614.601 65.4697L614.133 67.8948L611.61 68.3511L608.053 72.1088L602.97 72.625L601.456 71.1724L599.306 72.1688L598.753 74.5219L600.075 76.935L598.969 79.2521L599.342 81.7852L598.032 82.1934L597.563 83.2499L598.38 85.2789L600.856 87.728L599.222 89.0726L599.306 90.5133L597.215 92.194L597.768 92.8544L600.483 92.6863L600.027 94.5231L597.996 96.432L598.08 97.8006L599.967 100.886L599.678 102.291L600.952 102.495L603.992 105.28L603.007 108.293L599.534 110.286L603.187 115.857L599.065 116.649L597.131 118.534L595.485 117.958L595.341 119.363L596.854 121.98L596.001 123.156L594.175 123.288L592.721 120.299L591.664 121.944L591.4 124.993L589.765 124.441L589.333 123.805L588.672 123.817V127.106L586.798 127.334L587.723 128.919H586.701V129.939L587.927 130.276L587.194 132.329L586.317 132.221L585.416 132.617L582.544 134.982L581.343 134.97L578.351 140.54L577.954 144.61L572.571 146.711L568.498 146.363L568.053 145.006L568.029 144.01L568.402 142.377L568.582 141.369L568.162 140.288L568.017 139.58L566.852 137.047L567.429 136.627L568.93 136.41L568.979 135.126L571.346 133.661L569.808 132.329V133.217L566.407 132.497L565.915 134.55L564.461 135.318L563.439 133.589L559.703 130.984L558.97 130.6L554.933 129.975L550.343 130.78L541.679 129.459L535.515 130.3L520.364 126.986L517.564 128.523L516.134 128.235L511.521 126.254L511.352 125.173L505.561 122.856L497.522 121.091L495.696 117.598L494.146 116.889L489.316 116.193L485.916 118.018L485.183 119.279L484.305 119.122L484.402 118.018L483.621 117.394L475.474 116.769L474.369 115.497L470.656 114.644L470.127 113.78L470.524 112.7L471.809 110.022H472.915L474.861 108.486L473.323 107.969L471.497 106.805L469.514 107.393L469.971 108.065L465.669 107.285L462.425 108.113L462.557 108.786L456.73 113.876L455.528 118.27L451.539 118.054L443.705 121.079L435.619 129.963L434.79 129.903L431.173 128.343L425.982 129.195L423.603 128.859L423.026 128.475L424.528 128.547L424.913 127.346L424.036 127.274L420.167 126.434L416.658 128.223L413.45 121.836L412.489 121.596L412.152 120.647L412.945 119.603L410.903 119.387L410.158 117.586L409.845 117.226L410.675 116.445L409.749 115.149L408.992 114.945L407.695 114.584L403.934 114.104L399.873 115.089L399.56 116.397L395.018 116.301L393.504 118.258L392.964 117.454L391.498 117.574L389.768 120.995L388.47 121.235L387.737 122.532L385.971 122.352L384.553 125.029L383.604 124.765L382.979 125.569L383.027 127.046L385.238 128.247L384.625 130.348L383.303 129.339L382.174 129.975L381.909 132.461L382.775 133.217L384.745 132.257L385.574 132.977L379.29 135.246L363.958 145.403L358.467 147.684L353.985 148.2L349.179 146.615L339.663 142.881L334.761 139.532L330.239 138.66L325.617 140.376L323.25 142.297L320.595 142.597L316.858 148.984L315.933 154.339L320.979 156.572L325.341 162.346L325.749 165.564L327.095 165.492L327.708 167.184L329.546 167.256L330.916 170.426L333.259 170.09L336.095 171.11L336.539 170.246L337.813 171.014L337.572 172.227L340.3 173.799L339.423 175.18L337.729 175.792L331.036 175.996L329.943 177.797L329.57 180.583L330.652 185.289L331.601 187.006L332.334 186.886L334.268 190.595L337.14 193.32L341.441 195.205L344.746 195.049L346.007 195.83L349.948 194.365L350.97 201.172L349.684 204.81L346.945 203.369L345.07 200.26L342.475 198.639L338.678 197.426L336.972 198.207L333.079 196.754L328.188 198.891L325.533 201.424L320.498 199.155L319.429 202.097L317.459 201.976L316.101 206.046L316.029 208.7L317.543 212.505L319.201 213.406L320.703 216.587L321.087 215.327L321.868 215.567L323.214 216.539L322.902 218.784L324.692 221.93L326.434 222.518L328.321 221.581L330.159 223.55L339.735 226.672L341.886 229.409L346.332 231.174L346.812 232.471L348.555 233.707L346.836 234.632L346.668 236.901L349.251 239.626L349.864 241.295L347.93 241.727L347.329 242.711L347.81 243.816L351.006 243.636L351.378 247.766L350.117 249.134L348.555 249.29L349.071 250.143L348.038 250.095L347.641 250.839L349.179 252.904L345.371 253.816L346.62 254.765L348.398 254.849L347.978 256.025L344.71 256.109L343.196 257.526L341.357 257.658L341.778 256.29L340.324 256.169L339.964 254.681L340.985 254.489L340.793 253.648L339.976 252.904L340.24 254.056L338.353 254.321L337.993 252.94L338.618 251.331L336.996 249.446L335.266 249.47L334.701 247.862L331.384 245.557L330.279 245.617L330.543 247.73L329.846 248.054L329.342 247.285L329.895 246.169L328.272 243.72L328.681 242.867L326.422 241.042L325.929 239.686L326.506 236.564L324.572 235.544L324.452 232.543L323.178 230.778L320.234 229.025L318.276 224.163L316.545 222.146L315.32 222.194L314.419 221.329L314.058 219.661L311.679 217.536L307.606 216.887L304.181 217.296L300.865 215.807L299.471 216.059L294.761 212.685L284.368 209.816L279.105 214.918L277.207 218.376L277.195 221.149L275.945 221.173L274.96 217.704L272.821 215.783L270.971 215.723L270.166 214.798L264.711 212.926L262.368 212.829L260.121 210.933L256.612 210.428L252.359 207.007L243.383 203.405L242.758 200.488L239.418 197.318L236.871 196.922L235.873 195.674L234.251 195.409L229.301 196.526L230.839 193.08L228.664 189.275L226.73 188.122L226.754 186.201L225.48 183.356L221.359 181.891L221.575 178.554L223.473 177.701L229.013 178.506L233.518 177.305L238.144 174.148L239.19 171.771L234.263 167.509L235.789 165.131L235.549 160.725L231.872 159.045L231.704 158.757L229.625 158.348L226.333 161.002L224.819 160.425L223.341 161.998L225.876 162.67V165.228L223.197 167.965L218.331 170.054L216.745 168.937L215.543 169.381L213.597 170.318L213.657 173.031L213.597 173.932L213.152 174.472L213.669 175.18L213.993 175.972L213.428 176.921L212.864 177.593L211.674 178.458L210.629 178.326L209.439 175.936L207.889 175.96L208.79 174.568L206.928 174.472L203.179 176.321L203.816 176.873L204.717 179.622L206.411 180.835L204.261 180.787L203.612 181.675L202.675 181.015V182.467L201.437 182.696L200.452 181.735L201.137 181.411L200.223 181.255L199.683 182.696L198.373 182.131L196.655 183.656L198.878 186.705L199.454 191.7L201.269 195.686L204.537 197.342L204.934 198.291L198.673 209.588L196.727 216.827L197.196 219.565L193.375 225.135L192.642 228.773L194.828 235.316L195.177 241.211L196.511 242.915L197.712 247.273L202.314 251.271L206.039 252.928L207.865 254.453L205.39 256.662L203.852 254.008L200.632 253.096L198.289 255.017L190.287 256.362L188.953 254.897L187.896 254.813L187.199 253.408L185.961 247.561L181.479 245.184L179.929 243.252L177.718 244.152L176.409 242.123L174.27 243.48L173.946 242.147L172.66 241.499L172.323 239.734L170.81 239.362L172.816 235.304L173.561 229.481L171.891 229.373L170.882 230.85L170.629 229.133L171.554 226.792L168.274 223.538L164.429 224.631L162.387 226.72L161.906 229.349L159.395 233.083L156.823 234.175L155.502 230.79L155.826 227.86L153.808 228.077L154.24 225.976L156.583 223.851L155.874 222.35L154.661 221.509L150.072 221.871L145.361 222.586L145.553 222.574L146.25 223.895L145.938 225.816L143.967 224.531L143.162 225.552L144.724 228.157L144.003 229.333L142.093 231.146L140.999 233.751L135.905 238.542L135.22 240.703L132.516 240.955L132.889 243.32L130.474 245.157L127.566 250.559L125.848 251.796L123.673 251.58L122.796 254.257L120.801 255.577L119.071 255.421L123.589 260.74L122.964 263.069L124.718 269.048L123.769 270.968L123.12 269.96L120.969 270.092L119.732 269.132L115.142 268.495L110.42 270.776L108.077 269.312L105.89 269.36L105.83 268.459L104.424 267.511L102.838 267.439L99.6058 269.348L96.6259 267.151L92.4806 269.792L91.1108 268.723L90.6302 266.442L88.4314 263.993L86.3527 264.966L83.3248 263.801L80.8857 264.582L78.9392 263.741L77.6054 264.798L76.6923 263.273L75.1423 263.177L73.1237 264.401L71.5737 263.909L69.6272 266.695L71.5016 266.983L70.9248 269.96L68.8101 271.521L67.4523 271.185L66.7795 272.733L65.8062 272.805L65.2055 271.869L63.1388 272.085L62.5981 270.86L60.1229 269.576L59.6303 267.619L57.4194 269.192L55.1605 266.346L53.2501 266.538L50.4745 264.69L47.2784 266.262L45.0675 266.094L43.3373 269.024L35.8877 266.37L35.8396 263.993L34.4939 263.321L35.371 261.76L34.0974 259.767L34.614 258.231L33.8811 256.454L31.1416 254.173L28.414 250.091L29.2912 249.106L31.502 250.307L33.1001 249.298L34.3016 246.849L34.7222 241.399L31.2737 239.874L29.1109 241.183L26.6478 241.507L24.3168 237.557L24.3048 235L20.8683 230.702L25.9509 227.773L25.2059 224.975L25.5063 222.502L23.2954 222.202L24.6772 220.353L22.202 218.072L20.9044 214.002L19.042 212.79L18.7416 210.509L16.783 207.411L11.9168 202.381L10.2707 202.813L8.62454 201.156L5.54858 201.961L1.65556 200.352L1.36719 199.319L2.88113 198.383L3.15749 195.49L2.40052 189.367L5.18811 187.362L6.29353 187.494L8.54042 181.875L11.7726 183.1L15.4974 182.416L17.7323 184.301L20.7362 183.34L20.4718 182.572L22.154 180.363L22.2501 176.161L25.3741 174.168L26.2873 171.395L30.1323 170.734L29.976 165.98L30.5047 162.943L31.5981 161.694L31.6462 155.487L28.0295 149.316L23.764 145.367L23.6679 141.861L20.8443 140.696L23.8362 137.635L23.692 128.643L42.2919 128.511L44.8392 125.822L48.1675 124.561L51.7121 126.05L53.5504 128.139L64.3163 125.449L70.4923 120.023L73.1237 120.071L75.5868 121.391L78.4225 120.539L82.2674 120.851L84.995 124.909L86.2926 125.581L86.7973 127.178L89.5609 127.142L92.3124 124.057L93.5019 124.093L94.2469 122.688L97.8756 122.568L97.419 120.203L98.0918 118.51L99.5097 116.601L102.141 116.649L107.115 118.87L110.54 117.874L110.79 117.947L110.576 117.578L112.258 115.765L112.018 111.263L116.968 108.309L117.184 106.532L120.789 103.807L120.741 102.114L122.387 102.343L124.177 100.83L123.096 98.0445L123.745 94.623L128.263 92.1618L130.786 89.4846L132.492 89.9528L136.529 88.8003L139.87 86.2671L140.098 84.8745L141.624 85.7629L142.633 88.0319L145.397 88.8363L147.199 90.289L149.374 89.6046L152.017 85.4627L155.502 84.8745L156.787 83.6499L159.058 84.6584L162.218 84.5263L163.108 85.8709L166.388 87.0955L168.202 86.3511L168.863 90.6491L169.344 89.6407L171.398 88.6562L172.468 89.0284L173.321 88.236L174.955 89.0644L176.433 88.224L176.817 89.5926L178.656 90.9853L182.128 90.5531L183.642 91.2254L188.665 89.7607L193.855 89.2805L195.525 91.0333L197.039 91.0933L199.935 88.8243L202.086 85.9189L203.095 82.4133L205.03 81.4049L210.088 87.9479L212.635 86.5913L213.945 84.5263L214.966 68.5829L215.808 66.3979L215.135 63.7327L215.952 61.7278L218.559 61.0795L219.544 59.2066L220.59 59.7109L220.986 58.8945L222.692 60.1911L226.573 59.3507H234.275L241.917 61.0795L244.188 60.3351L250.292 63.2405L256.119 63.3846L263.425 61.7518L266.032 58.2822L265.564 55.605L266.237 54.3924L268.916 53.42L271.668 50.8508L275.849 50.9228L277.976 55.761L284.788 50.4306L286.374 50.8628L288.393 49.8663L292.935 50.8628L297.861 50.0824L300.276 52.5676L303.497 52.1234L305.467 53.9362L308.807 54.0923L308.862 54.6161L308.879 54.6047L310.754 54.1485L311.114 51.9635L313.818 49.7905L315.98 50.6309L319.813 50.1267L323.01 50.895L323.803 51.7354L326.206 48.9981L327.419 45.9367L332.874 45.4565L333.547 44.1119L335.95 43.5116L337.284 44.0038L338.906 42.8753L339.627 39.6818L341.537 40.8224L342.883 44.0278L346.043 45.7446L350.837 41.5307L351.739 43.4396L354.25 43.6557L356.857 41.6027L355.523 38.8054L355.572 33.487L356.929 32.4065L357.41 30.8818L360.017 29.6812L361.651 31.1579L363.141 31.0258L363.454 31.9983L366.133 31.6741L366.385 32.7787L367.755 33.7391L367.587 34.4954L368.837 34.7716L371.648 29.6452L373.799 29.9453L374.977 27.9044L377.284 26.4397L378.629 27.2321L378.161 28.6127L381.573 31.4941L380.972 33.1628L381.801 35.3358L385.55 33.1748L388.47 34.4954L390.452 31.7222L392.687 31.278L393.769 32.6946L396.388 32.8267L397.686 33.8351L398.827 32.9467L398.959 30.7137L400.185 29.5612L405.712 27.1961L406.613 27.6763L406.637 28.9129L407.599 28.6968L408.704 29.7292L407.935 31.1579L409.677 34.5315L409.389 36.5364L410.807 40.3782L413.354 42.0349L413.462 45.3244L415.144 47.7255L419.614 46.2248L420.479 46.7411L420.023 48.806L422.69 47.6895L423.868 48.5659L427.628 48.9981L429.455 53.9084L435.715 58.9027L437.025 57.6781L437.721 53.14L437.301 51.1471L443.237 52.4797L444.114 52.3477L445.435 50.4268L447.742 50.1507L450.614 53.1881L454.579 54.7008L462.714 56.2615L465.285 59.635L467.376 60.6075L469.635 59.9112L471.245 62.1562L476.183 64.0291L476.411 65.4577L480.713 68.183L481.962 72.9252L485.411 73.3093L487.466 74.6179L489.136 73.1293L493.017 73.7415L496.537 71.0883L498.231 71.5565L501.62 70.2119L502.966 70.392L503.398 69.0234L508.144 67.1625L511.076 67.3666L514.116 68.6632L515.57 64.2812L517.408 62.9726L523.031 64.8574L527.862 63.4408L530.793 64.5693L533.184 66.6583L534.59 62.9125L537.366 63.2247L539.048 61.9401L540.886 62.3963L542.088 60.7515L545.008 60.1633L545.765 58.7466L548.997 61.4959L550.931 61.4119L550.715 63.5368L552.085 64.6774L554.452 64.3772L557.948 62.5524L561.385 62.8525L564.533 61.82L565.506 59.3229L568.534 58.3024L574.145 58.8427L575.287 57.426L578.795 57.5461L579.444 54.7248L580.73 54.3286L581.847 52.3717L582.376 50.0306L581.775 48.2058L583.001 46.561L586.329 46.1408L583.613 42.0469L581.799 41.2425L581.282 39.6578L581.355 38.6854L583.097 37.857L583.289 35.9961L584.695 34.2073L583.83 29.201L580.61 28.8408L581.246 21.6975L579.576 20.3529L579.456 17.7717L577.954 18.0719L577.462 19.1043L574.83 18.5641L574.434 16.5472L572.956 16.235L572.127 15.1785L571.129 9.68L572.127 6.6306L573.749 5.67015L576.633 6.17439L577.594 3.89333L582.364 1.12006L583.337 1L585.272 2.88487L587.567 3.30506Z" stroke="#F5BC2E"/>
<path d="M282.566 229.337L283.743 229.253L286.206 231.21L288.681 234.68L289.895 238.665L294.197 243.876L305.455 249.554L312.244 251.847L312.917 251.427L314.407 252.628L314.046 254.165L315.007 254.657L315.704 257.958L317.771 258.811L321.496 257.982L321.976 260.576L318.3 261.728L315.176 260.467L311.691 260.876L305.107 259.951L303.545 258.463L300.841 257.922L291.036 253.024L288.754 252.94L285.99 254.405L281.7 254.008L279.321 255.125L281.604 251.139L282.265 248.378L280.223 245.473L277.747 239.41L274.996 237.729L274.828 235.028L273.926 234.8L275.885 231.042L275.356 228.701L276.354 223.466L275.849 221.317L277.183 221.221L278.745 223.37L279.946 227.68L282.566 229.337Z" stroke="#F5BC2E"/>
<path d="M340.036 201.568L340.841 201.976L340.733 204.029L342.222 204.282L343.328 205.446L340.252 204.942L339.339 203.645L338.834 204.041L336.395 202.565L339.735 200.848L340.036 201.568Z" stroke="#F5BC2E"/>
</svg>
