<svg width="372" height="317" viewBox="0 0 372 317" fill="none" xmlns="http://www.w3.org/2000/svg">
<path d="M70.6091 1L73.8886 2.35618L76.4798 1.67809L77.8665 3.07475L79.2533 2.7104L83.3527 6.96115L85.0026 9.57231L85.2556 11.4953L86.8245 12.5175L87.9177 15.9585L90.0028 17.8815L88.8388 19.4401L90.7114 19.6931L90.4482 21.778L91.0859 24.1463L86.7942 26.6056L89.6891 30.239L89.6992 32.3947L91.6628 35.7244L93.748 35.4512L95.5598 34.3379L98.4648 35.6232L98.1106 40.2181L97.0984 42.2827L95.7521 43.1329L93.8897 42.1208L93.1407 42.9507L95.4384 46.4019L97.7462 48.3248L98.3636 49.8227L97.9284 51.1182L99.0114 52.7982L98.2725 54.124L99.4062 54.6908L99.4467 56.6947L105.732 58.9314L107.19 56.4619L109.052 56.6036L111.755 55.2879L114.093 56.8465L115.703 56.6846L117.606 59.0934L117.727 59.1687L119.539 57.8688L119.944 59.5185L122.029 60.6014L122.484 61.6337L124.225 61.4414L124.731 62.2309L125.551 62.1701L126.118 60.8645L127.262 61.1479L129.053 59.8424L129.539 57.3324L127.96 57.0895L129.6 54.7415L130.906 55.1564L132.606 54.1241L133.912 54.2051L134.671 55.4904L135.795 54.6099L137.434 55.3184L139.489 54.6605L142.04 55.6422L143.781 54.8325L145.633 56.8972L146.038 58.8201L147.192 59.731L150.684 57.5044L153.205 59.3565L155.927 57.7473L157.263 57.8081L158.448 58.6076L158.498 59.3768L160.341 59.3262L162.314 60.5609L166.292 58.638L170.159 59.1643L171.202 59.9739L173.013 59.8727L173.56 60.7229L174.36 59.0934L172.892 54.0634L173.418 52.0999L169.612 47.6164L171.07 47.748L172.75 46.6347L173.489 44.3778L175.321 44.5599L176.769 43.5175L179.218 38.9631L181.253 37.4147L180.949 35.4209L183.226 35.2083L183.793 33.3866L188.085 29.3585L189.006 27.1623L190.616 25.6341L191.223 24.6422L189.907 22.446L190.585 21.5959L192.245 22.6788L192.518 21.0595L191.931 19.9462L192.316 19.7235L199.503 19.1567L200.525 19.8652L201.122 21.1303L199.148 22.9217L198.784 24.6928L200.484 24.5208L200.211 27.0004L201.153 29.733L203.319 28.812L205.434 25.6644L205.839 23.448L207.57 21.6869L210.809 20.766L213.572 23.5087L212.793 25.4822L213.005 26.9295L213.856 25.6847L215.263 25.7757L214.635 30.6843L212.945 34.1052L214.22 34.429L214.503 35.9168L215.587 36.4633L215.86 37.5867L217.662 36.4431L218.775 38.1535L220.637 37.3944L221.943 39.0239L225.719 41.0278L226.761 45.9667L227.348 47.1509L228.239 47.2217L229.363 48.4565L236.104 47.3229L238.078 45.7036L240.79 46.4728L242.086 48.7196L244.171 46.8574L242.633 45.572L246.023 48.0111L246.691 49.6507L246.125 52.5655L248.432 57.8081L251.297 59.2655L255.336 63.8704L258.919 65.7327L260.306 74.5883L262.33 80.0232L262.917 84.3144L266.409 92.4819L270.023 94.0405L270.832 95.3056L272.624 94.9919L274.092 97.6233L276.693 97.6941L280.873 100.923L282.776 105.538L287.756 111.823L288.678 111.904L289.437 112.865L291.117 116.883L293.475 119.575L295.662 120.506L297.059 122.429L297.443 125.091L298.263 125.86L298.283 127.905L301.118 130.85L301.057 131.882L302.535 133.248L302.565 134.787L304.195 137.519L302.848 140.728L300.136 143.025L297.119 143.116L294.892 144.847L293.091 144.827L292.656 144.128L291.522 144.796L291.147 145.849L292.909 146.598L290.803 147.58L290.904 148.42L289.487 147.418L287.524 147.843L287.2 148.835L284.305 148.592L283.475 149.745L280.418 149.199L279.041 149.644L278.809 148.774L277.027 148.298L278.505 145.859L278.728 143.258L279.75 142.428L280.954 142.934L282.26 140.91L282.422 143.562L283.495 143.764L281.41 146.314L280.873 148.227L282.24 147.883L285.246 145.484L286.592 145.667L286.967 144.918L288.485 144.756L288.232 142.286L288.961 141.001L289.528 141.598L290.672 142.823L291.704 142.499L292.271 137.712L289.649 135.323L289.325 133.623L288.485 132.995L288.89 130.425L287.524 129.038L287.291 127.884L283.718 124.96L283.455 124.109L279.133 122.885L277.473 123.32L274.314 122.844L273.414 120.081L272.371 119.798L271.713 118.675L269.567 118.917L267.037 117.44L266.814 118.037L266.055 117.581L265.589 118.836L266.703 118.897L267.037 119.545L265.68 122.419L266.642 122.875L267.563 124.575L266.733 125.162L263.848 125.172L262.937 126.053L261.287 125.385L260.275 126.194L259.648 125.921L256.186 127.247L255.568 131.285L256.054 134.443L259.273 142.084L259.81 142.317L260.71 139.918L261.52 139.787L260.68 137.904L262.573 137.58L262.269 139.928L263.504 139.675L264.516 141.345L264.506 144.159L265.437 146.436L266.146 146.861L267.158 146.416L266.176 145.009L266.51 144.23L267.452 145.677L269.142 145.667L269.466 146.972L270.853 148.075L270.286 149.229L270.853 150.747L272.462 151.78L271.369 153.348L272.088 153.905L271.46 154.624L272.088 155.413L270.529 155.312L270.104 156.192L268.97 155.879L268.859 158.945L272.411 157.579L273.221 156.466L273.98 156.789L275.529 155.271L278.505 155.089L277.574 157.822L275.236 157.65L274.345 158.945L274.331 158.968L273.414 162.285L272.073 163.295L272.047 163.433L271.888 163.488L271.592 165.979L269.658 165.038L267.715 166.849L266.662 165.969L266.247 166.758L266.996 167.791L265.458 168.155L265.002 168.944L259.344 168.094L257.684 170.037L257.947 171.91L256.945 172.537L254.668 172.76L252.957 173.873L251.935 173.529L250.487 174.885L247.43 174.076L246.003 172.608L244.637 173.731L242.359 173.276L240.507 170.827L238.26 170.513L237.733 169.825L236.397 170.139L233.887 172.456L231.417 173.266L231.316 174.126L231.984 174.47L229.474 176.019L230.78 176.231L233.027 174.916L234.039 175.229L231.66 177.142L232.227 177.183L231.832 178.893L233.685 178.134L233.928 179.966L235.031 179.895L235.618 178.448L235.284 177.83L236.134 177.81L235.831 179.065L236.569 180.421L238.563 178.61L240.102 179.268L243.736 178.174L244.849 176.849L245.78 179.187L247.451 180.077L251.256 185.117L252.329 185.512L253.22 184.794L254.941 185.006L256.52 184.034L260.235 188.113L263.332 185.563L265.407 186.21L266.703 188.184L269.436 189.064L274.254 188.579L275.59 187.769L278.363 191.595L278.242 196.038L280.216 199.732L280.266 201.047L281.329 201.068L282.301 202.97L283.768 201.513L284.386 201.989L284.851 200.703L287.078 200.44L288.09 200.39L289.801 199.954L289.933 199.276L287.554 197.202L290.51 196.574L295.226 200.643L297.929 200.025L300.895 200.977L303.031 203.315L303.375 205.167L301.775 206.776L300.308 207.15L298.638 209.185L298.273 211.138L299.437 209.428L301.188 209.367L301.462 211.148L302.15 211.522L302.19 212.514L302.292 213.061L302.919 213.688L303.85 212.95L306.826 214.397L306.34 214.943L302.697 215.318L302.413 217.565L303.881 217.555L304.853 216.856L305.956 216.208L309.124 216.279L309.863 217.625L314.529 217.534L315.875 218.951L319.195 219.751L321.351 216.289L322.627 216.755L326.331 220.722L325.916 221.846L324.803 221.775L323.76 222.848L324.206 223.698L326.848 224.103L326.979 224.821L326.372 224.76L327.323 226.289L326.564 227.179L328.174 226.977L329.975 227.857L329.56 230.135L330.724 233.009L333.569 235.626L335.219 235.975L337.324 236.602L338.691 235.904L338.853 236.45L339.166 236.855L342.132 236.056L343.731 238.009L345.675 237.24L347.932 239.173L351.191 239.638L353.54 241.207L354.694 240.772L358.945 242.341L363.267 247.107L367.306 250.134L367.67 251.166L369.775 252.107L369.826 252.978L368.763 253.2L368.399 254.101L370.393 256.398L368.723 256.783L369.128 257.765L368.358 258.291L367.842 258.706L366.739 258.645L364.32 259.738L361.435 262.714L361.769 265.021L363.398 267.197L362.903 269.07L363.226 271.175L364.046 271.995L363.975 273.007L364.836 273.027L366.071 275.871L364.168 277.106L363.965 279.575L364.856 281.498L363.206 283.512L366.081 283.826L367.447 286.164L366.081 287.489L364.32 287.176L364.006 287.611L364.603 288.562L365.544 289.848L366.486 290.121L366.455 289.473L367.194 289.2L366.891 290.657L368.409 291.295L367.579 293.673L368.621 294.594L367.407 295.353L368.976 296.203L368.854 297.236L370.848 298.298L370.494 299.017L371.051 300.12L370.393 302.661L369.897 302.741L370.524 304.3L369.097 304.148L368.763 304.917L368.065 305.525L368.115 306.517L368.945 306.719L369.229 307.65L368.267 308.105L369.259 309.522L369.745 311.324L369.198 312.083L368.034 311.8L367.872 312.741L366.233 313.965L366.01 315.129L365.403 315.16L365.079 314.269L364.239 314.613L362.346 313.773L361.404 314.451L360.534 313.247L357.609 312.7L357.366 308.551L358.206 307.053L357.285 306.628L356.252 307.903L355.038 307.255L354.279 305.585V301.102L353.388 300.464L352.801 300.98L353.125 300.11L351.262 298.855L351.07 298.056L349.481 297.509L348.226 296.052L347.932 296.963L347.203 296.871L346.404 295.566L345.3 295.869L344.815 298.005L343.893 298.349L343.154 296.487L342.314 298.238L341.889 297.519L342.578 296.74L341.029 296.406L342.203 295.738L342.284 293.997L340.573 292.256L339.602 292.378L340.614 291.153L338.994 289.564L338.488 289.848L338.185 289.038L338.792 289.352L337.425 287.226L337.668 285.992L336.15 285.334L336.808 285.141L336.363 284.706L336.231 285.243L335.927 284.251L334.298 283.127L334.986 281.943L333.549 281.447L331.524 282.662L331.281 282.065L330.907 283.35L329.814 283.522L328.974 282.652L330.391 282.166L330.704 280.881L328.862 282.075L328.255 281.579L328.478 280.891L327.506 281.053L327.891 279.494L326.646 280.041L326.311 279.534L322.789 279.767L322.526 277.672L324.267 276.286L323.012 275.162L325.198 275.709L326.929 274.282L326.241 273.664L326.696 273.796L326.524 271.367L324.662 270.072L322.789 270.132L321.585 271.418L319.773 270.001L319.105 270.922L317.971 270.729L316.706 272.258L313.396 272.349L310.41 275.243L310.076 276.579L307.596 277.47L310.582 278.694L308.578 279.028L308.325 278.269L305.096 278.34L304.529 277.753L301.928 277.834L300.166 278.654L297.535 277.804L294.619 277.915L288.982 280.638L287.828 278.391L284.214 277.318L282.149 275.931L282.615 273.806L284.194 272.399L282.918 271.711L283.171 268.068L287.838 266.61L289.042 264.788L291.947 263.675L292.069 261.631L291.006 260.558L290.621 260.983L288.749 260.659L288.344 258.635L291.947 258.574L292.848 257.785L292.605 256.975L289.113 255.872L284.336 256.287L283.906 255.803L283.87 255.811L283.892 255.787L283.86 255.751L284.341 255.299L285.408 254.141L282.625 251.297L278.525 255.497L277.736 254.536L275.033 254.546L277.149 252.795L274.972 251.469L274.689 250.558L269.881 250.477L268.96 250.447L268.059 249.435L266.895 250.386L265.701 250.154L265.083 251.844L266.257 252.289L266.794 251.287L267.543 251.247L268.859 251.996L269.658 253.473L267.057 254.05L264.618 252.593L262.927 247.957L262.158 247.988L261.814 249.526L260.285 248.332L257.907 249.182L254.779 248.241L253.564 248.008L252.289 248.14L250.872 246.601L252.107 245.265L252.734 244.577L254.01 244.081L254 243.332L250.103 242.077L249.718 240.893L244.546 238.616L243.361 235.6L244.191 235.003L243.827 233.181L241.347 230.681L238.675 231.926L240.416 232.948L239.393 234.902L238.341 234.568L237.865 233.232L236.914 234.173L236.357 233.819L235.598 234.507L234.768 237.553L236.731 238.606L235.031 239.952L235.011 241.925L234.586 242.978L231.711 242.563L231.731 241.298L230.385 238.849L228.644 237.422L228.948 236.683L230.506 236.531L230.456 235.63L228.199 233.657L227.439 231.248L225.466 229.669L222.925 225.945L219.534 225.439L219.483 224.032L218.623 224.123L218.006 223.384L217.753 225.287L218.461 225.783L218.724 227.432L219.392 227.655L218.117 228.151L217.408 227.726L215.445 230.104L216.7 232.027L217.631 231.511L218.036 233.171L216.366 233.221L215.971 235.256L216.467 234.618L217.408 235.063L215.981 236.035L215.809 236.855L214.088 236.43L214.068 235.003L210.88 235.58L208.643 234.173L208.673 235.175L207.54 236.227L204.29 233.394L203.531 234.618L202.448 233.788L199.28 236.217L198.359 238.201L195.869 234.942L195.272 235.661L193.996 235.084L194.421 234.922L194.067 233.9L193.176 233.717L192.984 232.887L191.81 233.1L191.395 232.503L191 232.928L187.579 231.137L186.212 229.679L181.911 230.226L180.949 229.133L177.71 228.465L175.625 228.353L172.133 232.503L170.21 232.756L168.165 232.058L168.112 231.758L168.003 231.835L166.313 230.479L165.138 231.815L162.213 232.685L160.209 238.069L157.102 237.219L154.439 235.387L152.354 235.974L148.751 234.709L146.899 236.46L144.064 236.268L143.113 238.12L140.431 238.747L136.584 241.834L134.236 241.419L131.28 238.889L128.578 238.14L128.891 237.523L130.258 238.039L130.997 237.644L132.191 239.284L132.799 238.899L134.712 240.691L134.317 237.735L133.689 237.563L133.477 236.622L134.054 236.723L134.712 234.79L133.082 235.094L132.819 234.274L133.811 233.97L133.092 233.272L130.774 233.323L129.286 234.507L127.991 233.728L129.398 232.422L128.183 230.57L127.495 232.523L124.468 230.276L123.83 229.102L124.59 228.03L123.517 227.615L123.77 225.894L122.494 225.469L123.294 225.206L123.496 224.285L121.847 220.864L119.579 218.263L118.051 220.449L122.454 225.439L122.11 226.289L121.371 226.198L121.938 227.726L121.189 229.679L121.34 231.491L120.095 231.41L119.043 232.736L117.15 232.827L117.14 234.396V235.134L116.968 235.661L116.877 236.349L116.29 236.905L115.824 236.207L114.994 236.814L112.15 237.735L112.291 238.464L111.492 239.223L110.955 238.99L110.368 238.586L109.822 239.679L111.552 240.691L113.972 240.762L111.887 241.389L109.032 240.741L106.289 241.44L104.811 241.338L103.303 240.63L102.675 237.148L99.7401 237.411L99.5478 236.238L100.165 236.268L100.479 234.375L99.568 233.292L98.9303 233.839L99.5275 231.673L100.135 231.501L100.084 233.394L102.028 230.357L101.694 230.135L101.845 228.009L103.455 228.799L104.204 229.102L104.801 228.202L100.54 227.473L101.694 226.623L101.036 225.064L100.651 224.578L99.5579 221.967L100.074 220.662L99.73 220.318L98.7481 220.702L98.3331 219.943L97.3311 220.034L98.0497 219.427L99.0518 220.186L99.7401 219.741L99.5377 219.154L98.2522 219.042L99.5478 214.711L97.827 214.326L94.7095 217.828L93.677 218.142L93.09 217.828L92.8369 215.166L91.4704 214.205L91.683 212.929L92.2296 212.16L92.8065 206.098L89.7294 201.371L89.6889 198.538L87.4419 198.021L85.63 198.872L84.6279 197.556L83.6866 198.457L82.9679 198.082L81.0852 194.003L81.0954 191.281L79.6884 187.708L79.2025 184.237L76.9048 184.024L75.6295 184.723L72.8763 188.224L72.6738 187.263L71.4592 187.637L70.7102 188.852L69.8903 188.741L69.0603 188.488L68.8578 186.099L67.9873 184.672L66.631 183.66L65.8921 181.727L66.2767 180.047L67.1877 179.551L66.55 177.891L67.1371 177.112L69.5461 175.948L71.3479 175.988L71.692 175.31L71.0341 174.997L68.3922 171.13L67.7748 169.157L68.8781 167.882L69.3943 165.098L71.3883 168.853L73.3318 169.683L76.1254 169.38L76.1761 168.59L76.6012 167.467L77.9474 167.204L78.2612 165.19L78.8179 166.019L78.4231 166.718L78.1296 169.592L82.1582 169.197L82.5023 167.973L83.6461 167.214L83.3222 166.04L85.3466 167.942L88.5856 166.485L89.4966 167.082L90.3064 169.349L92.9685 168.216L93.4543 170.341L92.4421 171.829L96.8148 174.288L97.8777 175.745L98.2927 175.806L97.9485 174.541L99.0619 174.177L98.7178 171.495L99.6693 170.139L101.127 170.169L100.864 171.049L102.19 171.181L102.088 171.97L104.305 172.345L105.773 175.776L106.684 175.239L105.894 171.141L103.475 168.965L103.617 164.511L104.761 162.73L104.68 160.939L101.481 155.251L100.287 154.563L99.9021 154.114L98.0195 154.421L96.6226 154.603L96.0153 155.271L96.2886 155.949L94.9323 156.546L93.9099 157.184L94.001 158.399L95.0233 159.36L91.0859 158.014L89.598 158.935L88.8186 156.911L88.191 156.982L87.695 155.403L86.6727 155.362L85.9641 155.615L84.6888 153.824L85.0127 153.227L84.0612 152.387L83.5349 152.62L83.6766 150.049L82.4518 149.705L80.7614 150.879L81.0854 152.954L79.6278 152.387L78.7775 153.085L78.3524 154.644L79.6176 155.271L79.1925 155.939L78.15 155.706L78.1095 154.239L78.322 152.326L77.0568 152.458L76.662 152.852L75.8624 151.608L76.1863 150.737L74.8198 151.041L74.7793 151.79L73.7671 150.717L75.3158 150.545L76.3786 148.784L73.5748 145.96L73.5647 145.161L71.8136 145.839L72.2994 146.193L71.8946 146.709L73.8177 147.337L72.7853 147.741L72.3804 148.349L70.8317 147.377L70.1131 147.752L71.7225 148.926L70.1536 149.927L71.8237 149.887L71.5605 150.342L71.6516 150.889L71.7124 152.174L70.9532 152.893L71.3682 153.379L69.4248 155.221L68.5138 157.791L68.0482 157.336L67.1068 157.791L69.3843 160.149L70.5686 160.22L73.5343 162.771L75.1336 163.155L75.4271 164.319L74.3947 164.916L74.2125 163.418L73.0687 164.38L71.6618 162.993L68.777 162.902L68.8681 165.321L67.1473 165.959L66.0744 165.352L63.5641 159.977L63.6755 159.36L64.5257 159.39L64.961 157.882L64.1816 154.249L60.3858 149.604L58.908 148.531L57.8958 148.693L52.5413 143.572L48.6139 137.742L43.1885 134.139L43.0671 132.176L42.8545 131.255L43.3302 130.475L42.7634 128.876L43.2796 127.287L42.3585 126.984L41.9233 128.056L40.0406 126.64L39.2713 127.621L35.8197 126.255L35.0808 127.146L30.87 126.447L30.3437 125.243L26.0621 121.488L25.9609 118.755L25.0195 116.934L25.4953 115.355L23.8757 113.3L22.7218 112.835L22.4081 113.482L21.0112 112.754L21.7198 111.904L19.3715 107.602L24.8677 107.42L24.8272 106.469L22.0335 104.343L21.4566 104.627L19.3715 102.228L20.6266 101.56L23.2077 102.896L23.8049 100.265L21.163 98.8276L19.0779 99.1818L18.4503 99.1312L15.7376 99.5462L14.1991 98.2912L15.8996 98.9592L16.5778 98.777L18.1467 98.7264L15.1405 96.854L14.9178 97.2994L14.3307 97.8763L12.3569 97.684L13.7234 95.508L14.6951 95.0323L15.0291 94.8704L15.7174 91.6519L15.1911 90.0832L16.9928 88.4943L16.9219 86.4499L14.7558 84.8508L12.8326 84.952L10.3629 82.3712L9.6442 82.3105L9.22919 83.4237L7.78174 81.9664L6.1521 81.1061L5.53466 79.7803L4.25928 79.5272L2.37659 80.3875L1.12146 79.092L1 78.7378L2.89281 77.665L3.47989 78.7075L6.00027 78.9807L7.02259 79.9726L8.32833 79.8511L11.7496 82.9886L17.3066 84.1626L20.6266 83.8083L19.8978 81.7741L21.0922 79.5272L22.3473 79.7398L24.0782 81.1668L24.2199 78.3229L25.7078 76.4809L27.1553 76.0254L29.2607 74.0823L26.5378 70.2363L27.8739 68.0907L26.2949 65.3682L27.631 64.0424L31.9025 65.6415L34.6557 67.7264L37.6012 64.0424L37.7834 61.158L35.344 57.9902L34.6861 55.541L33.7953 55.0147L32.9957 53.0512L30.7688 51.4015L31.4166 48.7094L28.4306 43.5175L33.8054 43.73L35.7995 42.9507L36.2145 40.461L37.7328 37.8498L37.4494 36.3216L38.2895 35.1273L41.1135 33.6193L42.1358 33.5181L44.5044 34.8034L46.5693 32.506L49.9197 34.682L52.0554 34.6112L54.6467 34.0646L56.9545 31.5749L61.6612 31.0284L61.5094 27.3242L63.1289 24.46L61.4385 22.8305L61.7118 19.9765L64.2626 18.7822L65.9125 15.7662L65.6695 12.4163L64.6573 11.5762L64.5966 9.714L67.0461 5.55436L68.6049 5.30134L69.526 4.38034L69.0401 2.64968L70.6091 1Z" stroke="#2F6BB4"/>
<path d="M279.133 140.384L280.934 139.989L280.539 141.122L278.353 141.902L279.133 140.384Z" stroke="#2F6BB4"/>
<path d="M101.41 240.782V239.466L100.196 239.233L99.8312 240.235L100.287 240.974L99.0923 241.298L99.5275 243.251L100.246 243.089L100.024 241.591L101.41 240.782Z" stroke="#2F6BB4"/>
<path d="M100.428 227.665L99.0923 226.947L98.1105 225.53L98.2927 228.252L99.8211 230.398L100.428 227.665Z" stroke="#2F6BB4"/>
<path d="M93.2418 221.319L92.8571 219.791L92.2498 219.133L92.0271 219.862L91.268 219.923L91.9664 221.046L93.2418 221.319Z" stroke="#2F6BB4"/>
<path d="M84.5267 207.069L85.2757 206.735L85.1948 205.986L84.5368 206.118L81.9557 210.662L81.399 210.328L81.2573 213.233L81.5812 212.777L82.3201 213.273L81.6318 211.624L82.1987 211.614L84.5267 207.069Z" stroke="#2F6BB4"/>
<path d="M86.6017 202.434L87.1787 200.997L86.3183 200.248L84.881 200.987L81.8646 201.149L79.5163 205.005L79.8706 205.652L78.8382 206.442L79.0305 209.043L80.7107 207.525L80.9334 206.796L80.3666 206.29L81.733 205.217L84.1826 204.691L84.881 203.406L86.6017 202.434Z" stroke="#2F6BB4"/>
<path d="M359.755 315.767L359.026 314.421L357.771 314.431L357.416 315.423L359.755 315.767Z" stroke="#2F6BB4"/>
<path d="M69.6 3.06538L71.3196 1.34579L71.1269 1.26611L69.558 2.91579L69.6 3.06538Z" fill="#2F6BB4"/>
<path d="M78.1482 3.10298L78.3844 3.34086L79.6595 3.00583L66.1855 16.4799L66.4303 16.0323L66.3484 14.9028L78.1482 3.10298Z" fill="#2F6BB4"/>
<path d="M84.4775 8.18787L83.9299 7.32127L62.0915 29.1596L62.1472 30.5181L84.4775 8.18787Z" fill="#2F6BB4"/>
<path d="M87.6137 13.6375L87.9546 14.7108L37.1705 65.4949L38.119 64.3085L38.1983 63.0528L87.6137 13.6375Z" fill="#2F6BB4"/>
<path d="M14.5519 98.1135L13.2633 97.9879L91.2202 20.031L91.0159 21.6495L14.5519 98.1135Z" fill="#2F6BB4"/>
<path d="M47.931 33.3202L31.8264 49.4248L31.3782 51.2871L48.7883 33.877L47.931 33.3202Z" fill="#2F6BB4"/>
<path d="M3.20149 78.0497L1.76416 79.487L2.46007 80.2053L3.88751 78.7779L3.41066 77.9311L3.20149 78.0497Z" fill="#2F6BB4"/>
<path d="M9.3626 83.3028L8.65792 82.5933L10.0396 81.2116L10.7773 81.8881L9.3626 83.3028Z" fill="#2F6BB4"/>
<path d="M15.7688 85.4824L16.5824 86.083L18.2859 84.3794L17.8244 84.4287L16.9972 84.2539L15.7688 85.4824Z" fill="#2F6BB4"/>
<path d="M23.5025 107.749L21.123 110.128L21.6224 111.043L24.9652 107.7L23.5025 107.749Z" fill="#2F6BB4"/>
<path d="M25.5683 117.097L26.0131 115.621L25.8443 115.407L95.4074 45.8438L95.9562 46.668L95.9786 46.6867L25.5683 117.097Z" fill="#2F6BB4"/>
<path d="M28.1341 123.117L28.8875 123.778L99.4389 53.2264L99.5293 53.0643L99.0031 52.2481L28.1341 123.117Z" fill="#2F6BB4"/>
<path d="M35.3027 127.363L34.0898 127.161L103.155 58.0961L104.198 58.4673L35.3027 127.363Z" fill="#2F6BB4"/>
<path d="M43.2813 129.142L43.3445 129.321L115.658 57.0073L114.611 57.1127L114.328 56.9237L43.7225 127.529L43.7975 127.553L43.2813 129.142Z" fill="#2F6BB4"/>
<path d="M46.4429 136.222L45.5931 135.658L111.93 69.3212L112.25 70.4152L106.619 76.0461L106.352 75.9373L106.185 76.4806L104.531 78.1339L104.489 78.1437L104.484 78.1817L46.4429 136.222Z" fill="#2F6BB4"/>
<path d="M50.7866 140.465L51.3559 141.309L105.211 87.4547L105.273 85.9783L50.7866 140.465Z" fill="#2F6BB4"/>
<path d="M56.0076 146.658L55.2848 145.966L108.719 92.5317L108.924 93.7412L56.0076 146.658Z" fill="#2F6BB4"/>
<path d="M61.1185 150.133L61.7544 150.911L110.799 101.866L110.789 101.589L110.845 101.583L110.854 101.811L153.33 59.3347L152.515 58.7357L61.1185 150.133Z" fill="#2F6BB4"/>
<path d="M65.3089 157.356L65.0591 156.192L71.0672 150.184L72.3415 150.153L72.1079 150.557L65.3089 157.356Z" fill="#2F6BB4"/>
<path d="M66.5922 165.618L66.8831 165.782L69.3022 163.363L69.2948 163.168L69.4907 163.175L71.6738 160.992L71.0864 160.486L70.7829 160.468L66.287 164.964L66.5922 165.618Z" fill="#2F6BB4"/>
<path d="M79.2883 153.377L78.6857 153.98L78.8399 152.592L78.638 152.613L116.158 115.093L115.967 115.763L116.04 115.786L116.27 114.981L171.321 59.9304L171.719 60.24L172.467 60.1983L116.674 115.991L116.61 116.055L82.0686 150.597L81.2793 151.145L81.3118 151.354L79.4001 153.265L79.2954 153.351L79.2883 153.377Z" fill="#2F6BB4"/>
<path d="M86.482 155.881L86.9516 155.714L215.657 27.0083L215.78 26.0419L215.244 26.0071L86.0194 155.232L86.482 155.881Z" fill="#2F6BB4"/>
<path d="M93.6766 158.989L92.6227 158.628L99.6629 151.588L99.9279 151.91L106.326 145.512L107.161 145.71L108.669 144.303L108.796 144.456L100.291 152.961L100.268 152.875L100.053 152.613L97.8943 154.771L97.1405 154.869L96.5332 155.537L96.704 155.961L96.1694 156.496L95.4501 156.813L94.4278 157.45L94.4827 158.183L93.6766 158.989Z" fill="#2F6BB4"/>
<path d="M115.613 146.054L118.341 144.325L120.669 141.997L120.684 142.568L122.364 140.888L120.677 141.786L120.664 141.267L122.194 140.472L124.201 138.464L124.232 138.433L223.058 39.607L222.461 39.29L222.239 39.0125L123.468 137.783L123.437 137.814L115.33 145.921L115.613 146.054Z" fill="#2F6BB4"/>
<path d="M128.505 124.16L108.775 143.891L108.68 143.777L107.171 145.184L106.279 144.972L128.54 122.711L128.505 124.16Z" fill="#2F6BB4"/>
<path d="M112.946 109.719L112.994 109.671L162.221 60.4445L161.351 59.9003L112.134 109.117L112.099 109.152L74.5572 146.694L75.2617 147.404L112.946 109.719Z" fill="#2F6BB4"/>
<path d="M73.8175 147.434L72.7374 148.514L72.8983 148.615L73.3031 148.008L74.3356 147.603L73.8175 147.434Z" fill="#2F6BB4"/>
<path d="M71.74 149.511L72.1358 149.115L72.2403 149.192L71.74 149.511Z" fill="#2F6BB4"/>
<path d="M114.402 76.8496L112.506 78.7456L112.607 78.842L113.943 78.2854L114.5 77.0607L114.402 76.8496Z" fill="#2F6BB4"/>
<path d="M97.4529 35.2125L96.4725 34.7787L24.8744 106.377L25.3451 106.735L25.369 107.296L97.4529 35.2125Z" fill="#2F6BB4"/>
<path d="M90.2094 31.0418L90.216 32.4493L22.9055 99.7599L21.9896 99.2616L90.2094 31.0418Z" fill="#2F6BB4"/>
<path d="M20.0203 102.645L20.4916 102.174L19.8893 102.494L20.0203 102.645Z" fill="#2F6BB4"/>
<path d="M62.5928 20.0726L62.2297 20.2426L62.2092 20.4562L62.5928 20.0726Z" fill="#2F6BB4"/>
<path d="M35.2548 55.9964L59.6647 31.5865L61.2647 31.4007L35.5542 57.1112L35.2548 55.9964Z" fill="#2F6BB4"/>
<path d="M28.3002 64.3652L28.1489 64.3085L26.8127 65.6344L26.8929 65.7725L28.3002 64.3652Z" fill="#2F6BB4"/>
<path d="M29.1727 73.4927L28.5865 72.6647L34.0838 67.1673L34.8886 67.7768L29.1727 73.4927Z" fill="#2F6BB4"/>
<path d="M22.6893 79.9761L21.61 79.7934L20.4156 82.0402L20.4709 82.1945L22.6893 79.9761Z" fill="#2F6BB4"/>
<path d="M201.521 21.1443L201.067 20.1836L171.617 49.6341L172.266 50.399L201.521 21.1443Z" fill="#2F6BB4"/>
<path d="M209.779 21.4722L211.327 21.0321L211.48 21.1847L204.348 28.3176L205.952 25.9305L206.093 25.158L209.779 21.4722Z" fill="#2F6BB4"/>
<path d="M105.279 87.3863L105.341 85.91L112.478 78.7731L112.667 78.9534L114.004 78.3967L114.56 77.1721L114.408 76.8434L136.356 54.8949L137.344 55.3215L105.279 87.3863Z" fill="#2F6BB4"/>
<path d="M111.952 69.2994L121.123 60.1281L122.054 60.6115L112.272 70.3934L111.952 69.2994Z" fill="#2F6BB4"/>
<path d="M108.755 92.4959L108.96 93.7054L145.844 56.8211L145.175 56.0757L108.755 92.4959Z" fill="#2F6BB4"/>
<path d="M128.559 124.106L128.594 122.657L215.052 36.1986L215.992 36.6729L128.559 124.106Z" fill="#2F6BB4"/>
<path d="M127.859 144.806L227.131 45.5337L226.885 44.3661L127.292 143.959L127.294 144.121L127.859 144.806Z" fill="#2F6BB4"/>
<path d="M128.499 152.752L128.326 153.21L127.971 153.28L126.173 155.078L125.259 156.539L125.266 156.572L107.061 174.777L107.201 175.506L106.29 176.042L106.142 175.696L83.488 198.35L84.204 198.723L85.1453 197.822L85.2684 197.983L125.386 157.865L125.218 157.025L125.323 156.858L125.404 157.262L234.764 47.9014L233.064 48.1873L128.499 152.752Z" fill="#2F6BB4"/>
<path d="M131.213 161.452L245.289 47.3764L244.466 46.7847L244.383 46.868L244.689 47.1235L242.604 48.9857L242.48 48.7711L154.235 137.016L154.485 137.748L154.471 137.745L154.226 137.025L130.183 161.068L131.213 161.452Z" fill="#2F6BB4"/>
<path d="M157.069 144.182L157.225 145.44L247.618 55.0474L247.186 54.0654L157.069 144.182Z" fill="#2F6BB4"/>
<path d="M140.491 172.175L169.491 143.174L169.508 143.157L252.431 60.2342L251.815 59.5316L251.752 59.4994L139.408 171.843L140.491 172.175Z" fill="#2F6BB4"/>
<path d="M146.98 174.271L147.473 175.192L257.614 65.0514L256.683 64.5678L146.98 174.271Z" fill="#2F6BB4"/>
<path d="M177.056 155.609L176.944 154.307L260.224 71.027L260.415 72.2497L177.056 155.609Z" fill="#2F6BB4"/>
<path d="M156.759 194.492L157.69 194.462L159.305 193.36L264.827 87.8377L264.404 86.8471L156.759 194.492Z" fill="#2F6BB4"/>
<path d="M176.982 185.683L269.016 93.6491L268.028 93.223L170.311 190.94H170.525L171.256 191.409L176.25 186.415L176.283 186.969L177.066 186.186L176.293 186.136L176.264 185.637L176.982 185.683Z" fill="#2F6BB4"/>
<path d="M227.805 144.607L227.458 145.207L274.771 97.8938L274.61 97.8894L274.163 97.0883L182.743 188.508L183.324 189.342L227.291 145.374L227.752 144.576L227.805 144.607Z" fill="#2F6BB4"/>
<path d="M181.196 201.47L281.416 101.249L281.391 101.189L280.641 100.61L227.084 154.167L227.006 154.36L226.955 154.363L227.001 154.25L180.519 200.732L181.196 201.47Z" fill="#2F6BB4"/>
<path d="M182.493 208.758L182.143 209.695L155.684 236.154L156.522 236.73L181.564 211.688L181.914 210.751L256.982 135.683L256.572 134.709L256.568 134.683L182.493 208.758Z" fill="#2F6BB4"/>
<path d="M169.919 232.746L260.156 142.509L259.791 142.35L259.527 141.724L168.865 232.386L169.919 232.746Z" fill="#2F6BB4"/>
<path d="M240.264 170.987L241.024 171.093L241.26 171.405L265.96 146.705L265.955 146.702L265.547 145.704L240.264 170.987Z" fill="#2F6BB4"/>
<path d="M248.245 174.42L271.542 151.123L271.37 151.013L271.062 150.189L247.436 173.815L247.948 174.342L248.245 174.42Z" fill="#2F6BB4"/>
<path d="M262.495 168.756L263.724 168.941L272.7 159.965L272.777 159.545L272.779 159.545L272.702 159.963L277.198 155.467L276.047 155.537L274.498 157.056L274.286 156.965L262.495 168.756Z" fill="#2F6BB4"/>
<path d="M299.334 143.331L297.876 143.375L304.247 137.004L304.712 137.786L304.591 138.074L299.334 143.331Z" fill="#2F6BB4"/>
<path d="M301.593 131.072L300.9 130.351L292.724 138.527L292.534 140.132L301.593 131.072Z" fill="#2F6BB4"/>
<path d="M297.7 123.551L297.879 124.787L289.232 133.433L289.003 133.262L289.193 132.059L297.7 123.551Z" fill="#2F6BB4"/>
<path d="M293.447 119.218L292.787 118.464L285.22 126.031L285.997 126.668L293.447 119.218Z" fill="#2F6BB4"/>
<path d="M289.09 112.161L289.195 112.17L289.769 112.896L279.466 123.199L277.99 123.586L277.707 123.543L289.09 112.161Z" fill="#2F6BB4"/>
<path d="M284.871 107.794L284.246 107.005L272.26 118.991L272.783 119.883L284.871 107.794Z" fill="#2F6BB4"/>
<path d="M267.494 123.757L265.818 125.433L267.237 125.428L267.991 124.675L267.494 123.757Z" fill="#2F6BB4"/>
<path d="M263.044 138.207L261.779 139.472L262.038 140.053L261.228 140.184L260.475 142.19L262.834 139.831L263.044 138.207Z" fill="#2F6BB4"/>
<path d="M267.478 145.187L267.028 144.496L266.694 145.275L266.98 145.685L267.478 145.187Z" fill="#2F6BB4"/>
<path d="M280.868 140.383L279.201 142.05L281.057 141.389L281.452 140.255L280.868 140.383Z" fill="#2F6BB4"/>
<path d="M288.817 142.434L289.725 141.526L290.046 141.864L290.41 142.255L288.877 143.789L288.75 142.552L288.817 142.434Z" fill="#2F6BB4"/>
<path d="M284.46 146.791L281.657 149.594L282.857 149.808L286.777 145.888L285.764 145.751L284.46 146.791Z" fill="#2F6BB4"/>
<path d="M262.72 79.9455L149.479 193.186L148.38 192.871L262.336 78.9151L262.72 79.9455Z" fill="#2F6BB4"/>
<path d="M192.458 20.2072L192.449 20.2123L192.45 20.2147L192.458 20.2072Z" fill="#2F6BB4"/>
<path d="M201.563 29.6879L174.203 57.0481L174.522 58.1428L203.403 29.2626L201.67 29.9991L201.563 29.6879Z" fill="#2F6BB4"/>
<path d="M106.557 76.1078L106.322 76.3436L106.412 76.0487L106.557 76.1078Z" fill="#2F6BB4"/>
<path d="M127.253 144.585L127.253 144.607L127.883 145.369L104.008 169.244L103.993 169.231L104.038 167.8L127.253 144.585Z" fill="#2F6BB4"/>
<path d="M68.3953 184.857L67.5854 184.252L82.3415 169.496L82.6756 169.463L82.7934 169.044L84.712 167.126L85.441 167.811L68.3953 184.857Z" fill="#2F6BB4"/>
<path d="M69.5313 172.306L72.4751 169.363L73.4661 169.786L70.1054 173.146L69.5313 172.306Z" fill="#2F6BB4"/>
<path d="M81.6128 191.547L81.6124 191.639L97.908 175.344L97.3322 174.554L97.301 174.537L81.2392 190.598L81.6128 191.547Z" fill="#2F6BB4"/>
<path d="M85.5533 206.284L84.5293 207.308L82.6699 210.582L84.1278 209.124L85.0441 207.335L85.7932 207.001L85.7122 206.253L85.5533 206.284Z" fill="#2F6BB4"/>
<path d="M81.8784 211.373L82.3796 210.872L81.9164 210.594L81.8784 211.373Z" fill="#2F6BB4"/>
<path d="M90.2468 201.637L90.7861 202.466L131.276 161.976L130.245 161.592L90.2462 201.591L90.2468 201.637Z" fill="#2F6BB4"/>
<path d="M92.9491 210.303L93.0978 208.74L135.768 166.069L136.006 167.246L92.9491 210.303Z" fill="#2F6BB4"/>
<path d="M92.2751 220.977L93.2881 219.964L92.7672 219.399L92.5445 220.128L91.7854 220.189L92.2751 220.977Z" fill="#2F6BB4"/>
<path d="M95.1278 218.124L94.1944 218.408L93.6962 218.141L139.476 172.362L140.558 172.693L98.6022 214.65L98.3444 214.592L95.7861 217.466L95.1278 218.124Z" fill="#2F6BB4"/>
<path d="M100.075 222.233L100.354 222.898L142.844 180.408L142.992 179.674L144.258 178.407L144.911 178.341L147.479 175.773L146.988 174.849L143.885 177.953L143.266 178.016L143.126 178.712L100.383 221.454L100.075 222.233Z" fill="#2F6BB4"/>
<path d="M102.271 229.567L103.168 228.67L103.972 229.065L104.125 229.127L102.397 230.855L102.545 230.623L102.211 230.401L102.271 229.567Z" fill="#2F6BB4"/>
<path d="M101.928 239.91L100.725 241.112L100.804 241.24L100.521 241.317L99.7307 242.107L99.9884 243.263L100.651 242.6L100.541 241.857L101.928 241.048V239.91Z" fill="#2F6BB4"/>
<path d="M103.597 239.655L103.381 238.457L119.766 222.072L120.429 222.823L103.597 239.655Z" fill="#2F6BB4"/>
<path d="M110.593 241.244L111.746 241.506L112.289 240.963L112.07 240.957L111.32 240.518L110.593 241.244Z" fill="#2F6BB4"/>
<path d="M117.563 235.689L116.516 236.736L116.341 236.473L115.511 237.08L114.396 237.442L117.66 234.177L117.657 234.662V235.4L117.563 235.689Z" fill="#2F6BB4"/>
<path d="M121.517 231.735L121.83 231.422L121.72 230.117L118.799 233.038L119.56 233.002L120.613 231.676L121.517 231.735Z" fill="#2F6BB4"/>
<path d="M128.976 234.275L128.508 233.994L129.915 232.688L129.612 232.226L170.402 191.436H170.484L171.295 191.956L128.976 234.275Z" fill="#2F6BB4"/>
<path d="M132.531 239.306L132.274 239.563L133.036 240.216L133.714 239.538L133.316 239.165L132.709 239.55L132.531 239.306Z" fill="#2F6BB4"/>
<path d="M181.218 202.034L180.541 201.296L145.258 236.58L146.582 236.67L181.218 202.034Z" fill="#2F6BB4"/>
<path d="M182.762 189.075L183.343 189.909L134.883 238.368L134.834 238.001L134.207 237.829L134.17 237.667L182.762 189.075Z" fill="#2F6BB4"/>
<path d="M143.819 238.018L143.63 238.386L143.397 238.441L143.819 238.018Z" fill="#2F6BB4"/>
<path d="M124.998 228.254L159.613 193.639L159.593 193.632L157.649 194.958L156.854 194.984L124.047 227.79L124.034 227.881L124.998 228.254Z" fill="#2F6BB4"/>
<path d="M148.442 193.396L149.44 193.683L149.572 193.68L122.251 221.001L121.593 220.245L148.442 193.396Z" fill="#2F6BB4"/>
<path d="M143.063 190.189L142.79 189.048L103.654 228.183L104.862 228.39L143.063 190.189Z" fill="#2F6BB4"/>
<path d="M99.5623 233.69L100.045 231.939L100.652 231.767L100.629 232.622L99.5623 233.69Z" fill="#2F6BB4"/>
<path d="M103.554 158.283L115.371 146.467L115.613 146.58L118.507 144.745L104.063 159.189L103.554 158.283Z" fill="#2F6BB4"/>
<path d="M77.5367 184.301L93.2595 168.578L93.4859 168.482L93.7248 169.527L78.8311 184.421L77.5367 184.301Z" fill="#2F6BB4"/>
<path d="M73.5651 188.273L73.3937 188.491L73.3856 188.452L73.5651 188.273Z" fill="#2F6BB4"/>
<path d="M99.3309 172.507L101.408 170.43L101.644 170.435L101.381 171.316L101.886 171.366L99.4917 173.76L99.3309 172.507Z" fill="#2F6BB4"/>
<path d="M136.023 166.642L135.785 165.466L157.034 144.217L157.19 145.475L136.023 166.642Z" fill="#2F6BB4"/>
<path d="M143.079 189.587L142.805 188.446L176.919 154.332L177.032 155.634L143.079 189.587Z" fill="#2F6BB4"/>
<path d="M182.309 230.356L181.647 229.604L232.427 178.824L232.35 179.159L234.202 178.4L234.21 178.456L182.309 230.356Z" fill="#2F6BB4"/>
<path d="M189.246 232.005L190.174 232.491L244.212 178.453L242.19 179.061L189.246 232.005Z" fill="#2F6BB4"/>
<path d="M196.85 235.815L196.386 235.208L195.789 235.927L195.469 235.782L249.233 182.018L249.841 182.824L196.85 235.815Z" fill="#2F6BB4"/>
<path d="M206.295 234.956L207.05 235.615L218.448 224.217L218.523 223.65L218.747 223.918L257.67 184.995L257.037 184.301L256.811 184.44L206.295 234.956Z" fill="#2F6BB4"/>
<path d="M215.699 236.966L214.606 236.696L214.605 236.646L216.672 234.579L216.489 235.522L216.985 234.884L217.525 235.14L215.699 236.966Z" fill="#2F6BB4"/>
<path d="M228.716 233.923L228.73 233.935L273.714 188.951L272.141 189.11L228.383 232.868L228.716 233.923Z" fill="#2F6BB4"/>
<path d="M231.842 240.824L231.34 239.911L235.979 235.272L235.45 237.215L231.842 240.824Z" fill="#2F6BB4"/>
<path d="M238.589 234.076L239.999 232.666L239.192 232.192L241.59 231.075L278.827 193.838L278.866 192.385L237.053 234.198L237.431 234.439L238.383 233.498L238.589 234.076Z" fill="#2F6BB4"/>
<path d="M244.702 237.963L244.304 236.947L280.752 200.499L280.784 201.314L281.341 201.324L244.702 237.963Z" fill="#2F6BB4"/>
<path d="M250.236 241.159L250.547 242.118L293.603 199.062L292.844 198.407L250.136 241.115L250.236 241.159Z" fill="#2F6BB4"/>
<path d="M254.341 248.324L254.082 248.274L252.85 248.401L300.349 200.902L301.412 201.243L301.417 201.248L254.341 248.324Z" fill="#2F6BB4"/>
<path d="M267.575 254.316L268.57 254.096L269.737 252.928L269.376 252.262L269.13 252.121L267.174 254.077L267.575 254.316Z" fill="#2F6BB4"/>
<path d="M277.862 254.804L276.442 254.809L313.419 217.832L314.861 217.804L277.862 254.804Z" fill="#2F6BB4"/>
<path d="M286.232 256.433L284.853 256.553L284.78 256.471L323.669 217.582L324.351 218.314L286.232 256.433Z" fill="#2F6BB4"/>
<path d="M299.846 251.405L300.191 252.444L300.198 252.434L299.854 251.397L326.946 224.305L327.365 224.369L327.497 225.087L326.889 225.027L327.177 225.488L307.995 244.67L307.981 244.685L291.682 260.984L291.524 260.824L291.139 261.249L290.169 261.082L292.41 258.841L292.465 258.84L293.366 258.051L293.327 257.923L299.846 251.405Z" fill="#2F6BB4"/>
<path d="M285.001 277.664L284.732 277.584L284.095 277.156L309.569 251.682L309.582 251.668L330.301 230.95L330.708 231.957L285.001 277.664Z" fill="#2F6BB4"/>
<path d="M314.962 256.289L314.974 256.277L334.957 236.294L335.735 236.261L335.736 236.241L336.266 236.399L335.69 236.976L335.689 236.977L333.253 239.413L333.246 239.419L315.57 257.095L315.562 257.103L293.874 278.791L291.139 280.112L314.962 256.289Z" fill="#2F6BB4"/>
<path d="M323.116 259.549L304.633 278.032L303.173 278.078L321.503 259.748L321.527 259.724L330.676 250.575L330.689 250.562L343.676 237.575L344.249 238.275L344.483 238.183L330.998 251.668L330.556 251.3L330.554 251.31L330.991 251.674L323.14 259.525L323.116 259.549Z" fill="#2F6BB4"/>
<path d="M265.048 186.203L224.09 227.161L224.664 228.001L266.029 186.636L265.925 186.477L265.048 186.203Z" fill="#2F6BB4"/>
<path d="M217.791 233.46L218.409 232.842L218.554 233.437L217.791 233.46Z" fill="#2F6BB4"/>
<path d="M301.615 209.636L263.01 248.241L263.445 248.224L263.711 248.954L301.882 210.783L301.706 209.633L301.615 209.636Z" fill="#2F6BB4"/>
<path d="M305.948 215.303L306.835 214.416L307.344 214.663L306.858 215.21L305.948 215.303Z" fill="#2F6BB4"/>
<path d="M303.424 217.827L270.506 250.745L271.896 250.769L305.788 216.877L305.37 217.122L304.398 217.821L303.424 217.827Z" fill="#2F6BB4"/>
<path d="M262.331 249.792L262.583 248.668L261.841 249.41L262.331 249.792Z" fill="#2F6BB4"/>
<path d="M245.419 177.246L245.367 177.115L244.405 178.26L245.419 177.246Z" fill="#2F6BB4"/>
<path d="M164.563 196.729L164.583 196.668L164.503 196.748L164.563 196.729Z" fill="#2F6BB4"/>
<path d="M351.709 239.904L351.392 239.859L320.68 270.571L321.473 271.192L352.34 240.326L351.709 239.904Z" fill="#2F6BB4"/>
<path d="M359.746 242.919L323.231 279.434L323.073 278.177L324.365 276.886L324.784 276.552L324.739 276.512L325.364 275.887L325.716 275.975L327.447 274.548L327.055 274.196L327.194 274.057L327.214 274.062L327.212 274.039L358.865 242.386L359.462 242.607L359.746 242.919Z" fill="#2F6BB4"/>
<path d="M364.646 248.019L363.838 247.413L329.121 282.13L329.38 282.341L331.222 281.147L331.126 281.539L364.646 248.019Z" fill="#2F6BB4"/>
<path d="M354.985 306.266L355.427 307.238L368.431 294.235L368.097 293.939L368.517 292.734L354.985 306.266Z" fill="#2F6BB4"/>
<path d="M359.451 313.214L358.26 312.991L371.332 299.919L371.568 300.386L371.32 301.345L359.451 313.214Z" fill="#2F6BB4"/>
<path d="M369.061 312.19L370.135 311.116L370.263 311.59L369.716 312.349L369.061 312.19Z" fill="#2F6BB4"/>
<path d="M368.42 312.83L367.813 313.438L368.39 313.007L368.42 312.83Z" fill="#2F6BB4"/>
<path d="M366.528 315.395L366.687 314.564L365.895 315.356L365.92 315.426L366.528 315.395Z" fill="#2F6BB4"/>
<path d="M364.626 288.04L352.834 299.831L351.989 299.262L366.805 284.446L367.327 285.338L365.165 287.5L364.837 287.442L364.523 287.877L364.626 288.04Z" fill="#2F6BB4"/>
<path d="M364.685 277.372L366.417 276.248L366.57 276.095L366.142 275.109L343.907 297.344L344.308 298.357L345.608 297.057L345.818 296.136L346.8 295.865L364.631 278.034L364.685 277.372Z" fill="#2F6BB4"/>
<path d="M363.861 267.39L363.916 267.463L363.453 269.212L340.587 292.079L341.132 291.419L340.475 290.776L363.861 267.39Z" fill="#2F6BB4"/>
<path d="M329.491 282.918L329.881 282.784L329.617 283.048L329.491 282.918Z" fill="#2F6BB4"/>
<path d="M336.513 284.738L369.315 251.936L370.292 252.373L337.291 285.374L336.88 284.972L336.749 285.509L336.513 284.738Z" fill="#2F6BB4"/>
<path d="M337.229 285.436L336.945 285.72L336.668 285.6L337.229 285.436Z" fill="#2F6BB4"/>
<path d="M342.8 298.451L342.91 298.341L342.832 298.504L342.8 298.451Z" fill="#2F6BB4"/>
<path d="M283.641 269.024L283.689 268.334L284.623 268.042L283.641 269.024Z" fill="#2F6BB4"/>
</svg>
