<svg width="226" height="223" viewBox="0 0 226 223" fill="none" xmlns="http://www.w3.org/2000/svg">
<path d="M70.477 1.65565L69.1308 1.50382L68.8473 1.31152L66.9039 4.02392L65.8613 3.75064L63.5535 4.80321L62.7539 4.33766L60.9218 7.5763L59.6363 8.01151L56.8528 16.1486L53.3404 19.2759L52.8748 21.0673L46.8016 23.9113L41.356 22.4134L39.9186 22.6664L32.9142 17.6263L29.0273 18.4865L27.1244 15.764L25.4543 15.4806L25.849 17.6769L24.847 19.7516L25.1101 26.5224L24.2194 28.3341L22.9541 28.9312L22.1545 32.099L19.2799 37.8375L14.8363 43.5861L9.7449 47.6951L6.97148 48.7275L4.61305 46.8855L3.46926 47.5029L1.78901 54.0206L1.48535 57.5224L1.98132 58.4738L12.2349 62.1578L16.5165 64.8802L19.1584 67.6938L19.705 71.6915L20.9399 74.4343L20.7374 75.6387L19.3203 77.086L19.4418 78.6648L20.0896 78.8368L19.4722 81.0836L20.1706 82.45L21.5067 79.1607L25.1202 79.1506L27.3268 80.1222L32.732 84.9194L40.4855 89.9393L48.0567 99.3618L53.1501 110.075L52.9693 110.699L54.609 116.397L54.4673 120.689L52.281 125.081L50.4084 125.739L44.1024 131.852L42.8169 135.576L42.8574 137.388L44.2643 143.703L43.5659 147.458L46.1673 149.654L47.6754 152.691L49.629 153.743L51.623 158.166L50.8133 158.753L51.1574 159.785L53.4247 159.036L55.9451 160.575L55.6617 162.781L54.0017 164.016L53.0604 166.91L54.0321 172.122L55.3479 175.341L57.4837 176.758L59.6802 176.798L60.4596 178.327L61.8766 177.264L64.8019 175.979L66.1481 176.434L66.7352 179.48L68.3041 181.727L69.7009 182.415L70.9763 185.978L73.6586 182.911L74.8834 182L76.0981 181.575L76.3714 179.015L79.1954 177.517L76.6042 175.766L75.0859 169.592L76.2499 161.84L76.3612 158.925L75.5413 158.368L75.8652 156.233L81.6955 152.67L86.3112 151.152L89.6615 151.011L95.7145 152.225L96.1396 154.705L94.8643 158.125L95.4311 161.141L95.0363 162.143L94.1051 162.255L93.6091 163.834L97.7693 166.627L98.6296 166.597L99.2268 166.04L100.472 164.805L101.373 166.03L102.739 166.192L103.913 167.669L103.569 168.449L104.49 170.068L105.503 170.372L105.563 172.376L107.324 173.054L107.456 174.217L109.035 175.25L110.229 179.379L110.634 180.118L112.942 186.919L113.701 188.042L114.4 188.741L116.91 188.366L117.457 188.842L116.404 190.32L115.28 190.593L114.906 192.152L115.341 193.548L116.88 194.56L116.677 195.046L115.037 194.985L115.442 197.08L116.252 197.505L115.139 198.244L115.088 199.206L117.193 200.228L115.999 200.835L115.888 201.959L117.183 202.161L116.768 204.489L117.588 206.057L115.432 206.898L114.359 207.98L113.701 207.626L113.722 209.387L115.533 213.243L117.598 213.942L118.347 212.859L120.19 214.772L123.702 216.087L123.51 217.332L125.311 218.466L124.613 219.225L124.684 221.33L125.676 222.19L126.647 222.109L127.629 221.593L127.204 220.803L127.133 219.002L125.868 218.152L127.639 216.998L126.951 215.146L127.791 214.974L127.832 212.17L127.629 211.007L126.83 210.986L126.637 209.549L124.998 207.393L125.888 204.408L125.008 200.319L125.372 197.799L127.113 197.182L128.358 199.135L130.069 197.546L127.407 192.658L128.844 191.747L130.484 192.435L131.101 194.024L132.123 193.69L132.144 192.971L131.638 192.992L131.901 191.22L130.98 190.421L129.775 190.613L129.39 189.814L130.342 188.295L129.562 187.263L131 185.583L134.472 184.278L133.945 183.002V182.041L133.277 180.32L133.632 179.369L135.16 178.023L137.994 177.152L138.855 176.09L149.564 176.12L153.42 176.93L154.321 179.005L154.695 182.506L155.849 183.761L156.69 186.393L156.639 187.708L155.687 188.225L155.93 189.227L155.131 189.996L156.487 192.243L156.366 193.113L156.872 193.042L157.398 189.409L158.977 189.682L159.514 191.089L160.657 191.615L162.246 193.953L162.014 196.058L161.012 196.068L162.51 198.244L163.572 198.356L167.257 201.291L167.895 202.525L167.196 203.851L168.735 204.681L170.061 208.335L171.711 208.132L174.595 207.272L176.397 207.697L179.15 210.46L178.472 211.816L179.241 212.383L178.614 213.405L180.861 216.654L180.699 217.2L182.561 216.998L184.738 218.445L186.053 217.008L190.831 217.666L191.206 217.018L190.689 214.913L189.12 213.982L188.128 214.215L187.875 212.312L185.962 211.917L185.669 211.017L184.738 210.743L185.942 208.993L185.578 207.383L186.883 206.371L185.082 205.784L184.596 203.841L182.976 203.75L180.011 201.716L178.462 199.995L177.956 198.032L177.075 197.121L175.901 196.25L175.385 192.222L176.508 190.735L176.448 189.52L176.002 188.984L176.306 187.719L175.091 186.454L175.506 184.682L176.114 184.156L177.095 184.622L177.278 183.185L178.229 182.871L179.13 184.035L180.841 184.682L181.245 183.731L180.598 181.343L182.936 179.754L181.924 179.278L181.721 178.205L181.073 178.225L180.507 175.574L179.95 174.602L179.515 173.327L177.642 172.446L176.903 171.06L176.498 170.078L177.531 169.754L176.255 167.285L175.881 164.674L173.887 161.01L174.636 160.241L173.36 159.097L173.806 157.7L173.047 157.964L172.156 157.144L172.642 155.858L173.482 155.919L172.824 153.784L172.541 152.114L173.249 151.415L169.737 146.173L171.458 146.001V144.604L169.342 143.774L168.806 142.944L169.312 141.882L168.795 140.677L167.844 141.112L166.508 140.657L165.607 141.892L163.643 140.738L163.157 137.803L163.785 134.22L164.929 132.651L163.39 131.437L163.168 129.291L161.578 126.427L160.465 126.316L159.736 125.334L160.404 123.614L158.167 122.359L158.643 121.083L157.762 120.739L157.398 119.049L156.598 118.371L156.305 117.511L155.465 116.306L155.171 115.406L154.574 113.219L152.317 110.143L150.505 109.505L152.185 106.013L150.039 104.04L150.09 101.5L148.106 98.9289L149.138 95.4473L147.681 92.6843L147.306 89.8708L149.392 87.9985L152.681 87.0268L154.766 88.879L154.614 90.1441L155.698 91.9658L156.7 92.2188L156.194 93.4738L156.558 94.1215L157.499 94.0102L159.514 95.8724L160.88 94.1924L163.461 93.5548L166.366 94.5871L170.385 95.2955L171.215 96.0344L172.267 99.4552L173.259 100.447L173.209 101.894L176.954 99.5462L177.834 101.287L176.832 102.137L178.006 102.937L181.144 102.471L183.958 102.937L183.786 103.939L184.879 104.384L184.808 106.287L185.942 106.995L184.93 107.582L182.976 106.125L183.007 108.655L182.076 109.748L180.689 110.112L178.685 109.627L179.656 111.337L178.938 114.009L182.582 114.191L184.08 115.213L185.335 117.086L182.946 116.347L184.454 118.492L185.649 118.017L185.922 116.903L186.732 117.156L187.035 118.138H186.094L185.254 119.069L185.993 120.324L187.653 120.587L188.159 121.691L189.222 121.589L189.475 120.668L190.932 121.043L190.993 119.535L189.1 117.561L190.365 115.486L198.008 114.879L197.147 113.806L195.234 113.746L196.439 112.471L194.708 112.116L194.06 112.977L193.27 111.529L193.584 110.77L196.621 110.578L196.661 109.89L196.641 108.695L197.41 108.007L198.342 108.159L199.263 109.293L201.054 109.495L200.67 108.675L200.245 108.169L200.994 107.795L201.864 108.361L204.303 106.833L210.113 108.28L211.358 107.481L211.662 106.155L214.021 103.099L213.96 101.672L211.288 100.832L209.445 102.269L206.358 101.57L204.405 101.884L204.02 100.498L201.186 100.741L201.044 98.3216L200.356 97.7448L197.916 97.8561L197.279 97.0667L195.507 96.8946L193.706 95.0627L189.06 94.3644L188.108 93.2106L188.23 91.0954L189.009 89.6987L189.849 89.4659L190.315 88.4033L189.93 87.5329L191.054 86.2172L187.562 84.1019L187.076 83.1809L187.288 81.7944L187.349 81.2377L188.422 81.0556L186.711 76.9465L188.574 74.305L188.786 72.716L187.4 72.9893L183.644 70.8336L183.655 69.0017L184.586 67.8074L186.651 67.9087L189.222 65.5303L189.039 62.5345L187.956 62.3928L185.73 59.2048L184.454 58.9315L183.513 57.7069L182.814 57.4438L178.887 58.0611L177.075 57.5956L174.312 58.0611L173.441 57.5652L172.571 55.8346L173.178 55.207L172.115 53.8509L174.443 51.6243L174.13 50.6021L169.018 45.5113L167.388 47.0295L166.801 46.2704L163.522 47.8189L159.635 47.1205L153.967 43.4872L152.205 40.0259L149.422 37.9106L148.055 35.9674L142.073 32.9616L140.079 31.0791L131.212 27.7392L126.587 24.4196L123.014 25.0774L121.151 24.3791L119.613 24.9965L116.512 23.877L116.512 23.8708L114.305 22.464L113.101 20.0046L107.19 20.6018L104.416 19.3974L102.088 19.4379L100.56 17.181L98.6567 17.2113L96.1262 15.177L96.2173 14.0131L92.6543 9.68144L89.8708 11.0983L88.7776 9.07419L87.4111 8.26453L86.5507 8.54792L85.164 7.50548L84.9616 5.5724L83.7166 4.24658L81.4189 4.5097L77.694 2.49567L71.5803 2.98148L70.477 1.65565Z" stroke="#A2CF6C"/>
<path d="M171.022 209.276L170.506 209.407L169.028 209.519L167.965 210.258L167.631 211.695L166.72 211.887L166.093 214.053L166.71 214.832L168.067 213.415L169.868 213.081L171.144 214.205L171.761 215.419L172.065 213.689L171.194 213.071L171.478 211.057L171.022 209.276Z" stroke="#A2CF6C"/>
<path d="M62.8078 182.921L61.3908 182.628L60.166 181.515L59.2348 185.239L59.4979 186.494L60.9859 186.049L60.4596 187.152L61.9171 188.022L61.4819 186.656L62.8078 182.921Z" stroke="#A2CF6C"/>
<path d="M57.2711 178.448L55.9856 178.023L55.1252 177.193L54.3054 178.509L54.5888 181.363L53.9005 182.132L54.4471 183.812L55.0848 183.721L55.3884 182.678L54.9734 181.332L56.7245 180.523L56.3703 179.035L57.2711 178.448Z" stroke="#A2CF6C"/>
<path d="M42.1488 149.199L41.835 148.389L41.9565 146.618L40.2864 147.6L40.4686 148.389L41.5415 148.551L41.3593 150.353L42.1488 149.199Z" stroke="#A2CF6C"/>
<path d="M205.66 115.335L204.668 114.525L204.071 114.302L204.111 115.163L203.2 116.023L202.279 114.667L200.346 115.588L198.625 115.476L198.524 116.306L200.184 117.713L202.704 117.571L205.255 116.347L205.66 115.335Z" stroke="#A2CF6C"/>
<path d="M170.972 31.7471L169.757 30.9171L167.48 31.3827L167.237 32.4656L165.647 32.3341L164.281 33.9534L162.469 33.923L162.317 34.7833L159.281 36.8378L161.072 37.3945L161.599 37.2123L161.508 36.3824L163.066 36.4431V37.1313L161.69 37.3641L164.888 38.2345L168.846 41.6958L170.334 42.2727L170.364 43.7301L169.048 45.481L173.765 49.59L174.363 48.8715L175.749 49.59L177.47 49.0941L178.077 50.1973L179.373 50.177L180.861 49.4787L181.529 49.8633L185.213 49.2257L187.794 46.1388L189.394 45.6631L188.24 43.4163L184.626 42.3334L182.561 40.9468L183.027 38.8215L184.606 37.4046L183.331 36.7164L183.584 33.0729L179.747 33.3158L177.784 34.1052L176.68 33.7611L176.296 32.8401L175.375 32.9514L175.01 33.8826L172.854 33.0223L171.923 31.5244L170.972 31.7471Z" stroke="#A2CF6C"/>
<path d="M14.2742 63.3912L15.1387 63.9409L76.1544 2.92517L74.6181 3.04725L14.2742 63.3912Z" fill="#A2CF6C"/>
<path d="M29.285 18.3803L25.4502 22.2151L25.5031 23.5764L30.5492 18.5303L29.5452 18.7525L29.285 18.3803Z" fill="#A2CF6C"/>
<path d="M9.37302 48.2923L2.20508 55.4603L2.0708 57.0087L14.6974 44.3821L10.2627 47.9612L9.37302 48.2923Z" fill="#A2CF6C"/>
<path d="M8.26731 60.8122L7.22692 60.4384L44.3146 23.3508L45.4237 23.6558L8.26731 60.8122Z" fill="#A2CF6C"/>
<path d="M19.8498 69.2297L19.6797 67.9856L83.0129 4.65247L84.2344 4.5126L84.3954 4.68409L19.8498 69.2297Z" fill="#A2CF6C"/>
<path d="M19.9596 78.9308L20.1091 78.9705L89.4511 9.62846L89.2954 9.3402L88.6861 8.9792L19.8721 77.7932L19.9596 78.9308Z" fill="#A2CF6C"/>
<path d="M28.2932 80.7863L27.8447 80.3882L27.4506 80.2147L95.2237 12.4417L95.8619 13.2176L28.2932 80.7863Z" fill="#A2CF6C"/>
<path d="M33.2498 85.1854L33.6409 85.4386L101.302 17.778L101.077 17.447L100.204 17.4609L32.8419 84.8234L33.2498 85.1854Z" fill="#A2CF6C"/>
<path d="M39.7109 89.3686L38.8525 88.8128L64.6246 63.0407L64.2131 63.7293L64.1824 64.8972L39.7109 89.3686Z" fill="#A2CF6C"/>
<path d="M43.88 93.7854L44.51 94.5695L65.4049 73.6746L65.3467 73.0607L65.1313 72.534L43.88 93.7854Z" fill="#A2CF6C"/>
<path d="M48.8572 100.222L48.5746 99.6278L48.3353 99.33L64.0156 83.6497L63.9668 85.1127L48.8572 100.222Z" fill="#A2CF6C"/>
<path d="M51.6237 106.042L52.0794 107L72.3709 86.7087L72.2154 86.2625L72.2796 86.2675L72.4088 86.6385L95.9713 63.0761L95.0845 62.7771L95.0269 62.6643L96.0652 63.0143L104.165 54.9146L103.621 54.0444L95.0181 62.6472L95.0072 62.6259L71.4321 86.201L71.462 86.2034L51.6237 106.042Z" fill="#A2CF6C"/>
<path d="M59.5646 109.515L58.021 109.644L75.7747 91.8906L75.7504 91.8827L137.473 30.1605L138.5 30.5475L76.8592 92.1881L76.8836 92.196L59.5646 109.515Z" fill="#A2CF6C"/>
<path d="M67.8067 109.859L69.0816 109.998L72.9585 106.121L72.5199 105.145L67.8067 109.859Z" fill="#A2CF6C"/>
<path d="M81.9433 97.1363L79.6833 99.3962L78.1388 99.5266L81.2788 96.3865L81.9433 97.1363Z" fill="#A2CF6C"/>
<path d="M117.315 30.3502L117.344 30.9683L117.137 31.9429L84.33 64.7496L83.2337 64.4316L117.315 30.3502Z" fill="#A2CF6C"/>
<path d="M115.755 23.3243L114.892 22.7737L76.2269 61.4384L76.2785 61.4825L77.8281 61.2514L115.755 23.3243Z" fill="#A2CF6C"/>
<path d="M107.073 20.5923L107.707 20.8678L108.268 20.8111L72.6529 56.4266L72.6459 56.4014L64.2787 64.7686L64.3034 63.8297L65.0537 62.5794L67.7956 59.8375L72.5945 56.2157L72.5536 56.0679L68.6554 59.0099L107.073 20.5923Z" fill="#A2CF6C"/>
<path d="M63.2717 4.60368L64.0328 5.04676L61.7033 7.37624L63.2717 4.60368Z" fill="#A2CF6C"/>
<path d="M61.1336 7.94592L60.1541 8.27753L59.8173 9.26225L61.1336 7.94592Z" fill="#A2CF6C"/>
<path d="M37.942 21.1375L37.1196 20.5457L20.0344 37.6309L19.7977 38.1035L15.7855 43.294L37.942 21.1375Z" fill="#A2CF6C"/>
<path d="M122.633 25L123.662 25.3857L117.362 31.6851L117.484 31.1092L117.442 30.1909L122.633 25Z" fill="#A2CF6C"/>
<path d="M131.454 27.5935L130.63 27.0026L103.639 53.9943L104.183 54.8646L131.454 27.5935Z" fill="#A2CF6C"/>
<path d="M174.083 33.5506L175.093 33.9539L168.313 40.7346L167.558 40.0747L174.083 33.5506Z" fill="#A2CF6C"/>
<path d="M184.705 33.5584L184.032 33.601L170.97 46.6635L171.725 47.3219L184.646 34.4012L184.705 33.5584Z" fill="#A2CF6C"/>
<path d="M45.2894 143.758L45.0317 142.601L150.004 37.6294L150.543 38.3962L150.604 38.4429L45.2894 143.758Z" fill="#A2CF6C"/>
<path d="M65.4371 73.1409L65.4777 73.5696L77.6315 61.4159L76.3689 61.6032L76.1861 61.447L65.1622 72.4709L65.4371 73.1409Z" fill="#A2CF6C"/>
<path d="M64.0642 84.9832L64.113 83.5202L83.1367 64.4964L84.232 64.8153L64.0642 84.9832Z" fill="#A2CF6C"/>
<path d="M54.6172 113.016L57.9156 109.717L59.4591 109.588L54.9333 114.114L54.6172 113.016Z" fill="#A2CF6C"/>
<path d="M51.5295 126.224L47.5842 130.049L45.1854 132.448L44.4399 134.607L69.0054 110.042L67.7304 109.903L54.7256 122.908L53.402 125.567L51.5295 126.224Z" fill="#A2CF6C"/>
<path d="M47.3563 150.277L47.8257 151.222L155.083 43.964L154.606 43.0267L47.3563 150.277Z" fill="#A2CF6C"/>
<path d="M52.0144 157.033L51.5749 156.058L160.312 47.3213L160.756 47.6061L161.337 47.7104L52.0144 157.033Z" fill="#A2CF6C"/>
<path d="M57.0662 161.06L56.9305 162.117L171.598 47.4496L170.889 46.7439L56.7599 160.873L57.0662 161.06Z" fill="#A2CF6C"/>
<path d="M55.5264 173.521L55.1531 172.608L55.133 172.5L173.263 54.3702L173.884 55.163L55.5264 173.521Z" fill="#A2CF6C"/>
<path d="M57.6108 180.022L55.0721 182.561L55.0215 182.618L55.3673 183.68L56.3619 182.685L56.0945 181.818L57.8456 181.008L57.6108 180.022Z" fill="#A2CF6C"/>
<path d="M61.1262 177.921L60.8012 177.284L60.3574 177.276L77.4529 160.18L77.3967 161.651L61.1262 177.921Z" fill="#A2CF6C"/>
<path d="M63.7653 183.868L60.6683 186.965L62.1069 186.534L61.7363 187.311L62.9867 186.061L63.7653 183.868Z" fill="#A2CF6C"/>
<path d="M68.36 180.687L67.8563 179.966L67.8257 179.807L76.4731 171.16L76.7522 172.295L68.36 180.687Z" fill="#A2CF6C"/>
<path d="M76.0045 182.486L76.8613 182.186L77.2469 181.8L77.4159 180.217L71.8528 185.78L72.0974 186.463L74.7797 183.397L76.0045 182.486Z" fill="#A2CF6C"/>
<path d="M102.528 166.519L102.494 166.515L101.911 165.723L154.947 112.686L155.546 113.502L102.528 166.519Z" fill="#A2CF6C"/>
<path d="M106.628 171.005L106.67 172.378L158.695 120.352L158.519 119.535L158.292 119.342L106.628 171.005Z" fill="#A2CF6C"/>
<path d="M110.864 178.183L110.547 177.086L161.265 126.368L161.586 126.801L162.186 126.861L110.864 178.183Z" fill="#A2CF6C"/>
<path d="M113.092 184.541L113.45 185.597L165.972 133.075L165.182 132.452L113.092 184.541Z" fill="#A2CF6C"/>
<path d="M116.604 191.029L117.525 190.805L118.578 189.328L118.432 189.201L165.801 141.832L166.692 142.356L116.118 192.929L116.027 192.637L116.353 191.28L116.604 191.029Z" fill="#A2CF6C"/>
<path d="M117.12 201.321L117.053 201.994L130.948 188.099L130.684 187.749L132.121 186.069L133.496 185.552L135.21 183.837L135.066 183.488V182.567L117.376 200.258L118.314 200.714L117.12 201.321Z" fill="#A2CF6C"/>
<path d="M116.227 212.82L115.775 211.858L126.253 201.38L126.503 202.544L116.227 212.82Z" fill="#A2CF6C"/>
<path d="M122.086 215.547L123.115 215.933L127.906 211.141L127.758 210.035L127.689 209.944L122.086 215.547Z" fill="#A2CF6C"/>
<path d="M126.569 222.478L125.812 221.821L128.189 219.444L128.254 219.488L128.304 220.744L126.569 222.478Z" fill="#A2CF6C"/>
<path d="M157.123 191.924L158.412 190.636L158.519 189.894L159.06 189.988L177.872 171.176L177.619 170.564L178.652 170.24L178.223 169.41L156.591 191.043L157.123 191.924Z" fill="#A2CF6C"/>
<path d="M167.762 201.285L166.975 200.658L177.572 190.062L177.629 191.22L177.019 192.028L167.762 201.285Z" fill="#A2CF6C"/>
<path d="M170.551 207.082L170.928 208.12L179.375 199.673L179.085 198.548L170.551 207.082Z" fill="#A2CF6C"/>
<path d="M172.493 215.14L173.128 214.505L172.882 215.905L172.493 215.14Z" fill="#A2CF6C"/>
<path d="M178.483 209.15L179.188 209.859L184.774 204.274L184.097 204.236L183.682 203.951L178.483 209.15Z" fill="#A2CF6C"/>
<path d="M181.952 217.096L181.373 216.26L186.28 211.353L186.79 211.502L186.976 212.072L181.952 217.096Z" fill="#A2CF6C"/>
<path d="M189.781 217.853L191.024 218.024L192.172 216.875L191.894 215.739L189.781 217.853Z" fill="#A2CF6C"/>
<path d="M181.608 176.025L181.628 176.059L181.867 177.18L163.213 195.834L163.368 194.439L163.298 194.336L181.608 176.025Z" fill="#A2CF6C"/>
<path d="M162.28 196.768L162.497 196.55L162.133 196.554L162.28 196.768Z" fill="#A2CF6C"/>
<path d="M172.579 146.469L172.559 146.488L170.988 146.645L172.553 145.08L172.579 145.09V146.469Z" fill="#A2CF6C"/>
<path d="M201.058 117.989L203.6 115.447L203.4 115.152L201.645 115.989L200.292 117.341L201.058 117.989Z" fill="#A2CF6C"/>
<path d="M214.055 104.992L210.471 108.576L209.339 108.294L215.097 102.536L215.142 103.584L214.055 104.992Z" fill="#A2CF6C"/>
<path d="M205.526 102.37L205.469 102.164L199.055 108.578L199.463 108.645L199.884 109.163L206.898 102.149L205.526 102.37Z" fill="#A2CF6C"/>
<path d="M199.304 98.3295L200.786 98.2618L184.1 114.948L183.703 114.677L182.992 114.641L199.304 98.3295Z" fill="#A2CF6C"/>
<path d="M193.673 95.3748L192.443 95.19L184.334 103.299L185.079 103.422L184.966 104.081L193.673 95.3748Z" fill="#A2CF6C"/>
<path d="M191.4 86.2333L192.175 86.7027L191.182 87.8658L178.391 100.657L178.075 100.032L176.806 100.828L191.4 86.2333Z" fill="#A2CF6C"/>
<path d="M188.944 80.103L188.529 79.1045L171.689 95.9442L172.336 96.5199L172.381 96.6666L188.944 80.103Z" fill="#A2CF6C"/>
<path d="M185.749 71.8839L186.648 72.3996L164.896 94.1517L164.582 94.0403L163.268 94.3649L185.749 71.8839Z" fill="#A2CF6C"/>
<path d="M187.881 61.166L187.3 60.3333L156.208 91.4248L156.736 92.3117L187.881 61.166Z" fill="#A2CF6C"/>
<path d="M179.275 58.3583L180.008 58.5467L180.593 58.4548L150.585 88.4627L150.513 88.484L148.427 90.3563L148.458 90.589L87.3986 151.649L85.2912 152.342L179.275 58.3583Z" fill="#A2CF6C"/>
<path d="M96.4202 152.627L95.2423 152.391L149.652 97.9809L149.227 99.4144L149.404 99.6435L96.4202 152.627Z" fill="#A2CF6C"/>
<path d="M152.175 105.458L96.4658 161.167L96.5522 161.627L96.1574 162.629L95.2262 162.74L94.7311 164.316L152.911 106.136L152.175 105.458Z" fill="#A2CF6C"/>
<path d="M78.8561 178.777L79.9072 177.726L80.3165 178.002L78.8561 178.777Z" fill="#A2CF6C"/>
<path d="M167.629 141.142L167.835 141.213L166.884 142.163L167.629 141.142Z" fill="#A2CF6C"/>
<path d="M188.084 120.964L187.114 120.81L187.006 120.627L191.214 116.419L190.221 118.047L190.603 118.445L188.084 120.964Z" fill="#A2CF6C"/>
<path d="M193.212 115.835L196.341 112.707L195.829 112.602L195.181 113.462L194.825 112.809L191.676 115.957L193.212 115.835Z" fill="#A2CF6C"/>
<path d="M196.49 111.143L197.742 111.063L197.782 110.375L197.774 109.859L196.49 111.143Z" fill="#A2CF6C"/>
<path d="M171.472 147.575L170.905 146.728L141.055 176.578L142.465 176.582L171.472 147.575Z" fill="#A2CF6C"/>
<path d="M150.968 176.665L173.861 153.772L173.945 154.269L174.141 154.906L152.137 176.911L150.968 176.665Z" fill="#A2CF6C"/>
<path d="M128.908 198.725L130.63 197.003L131.128 197.919L129.459 199.589L128.908 198.725Z" fill="#A2CF6C"/>
<path d="M155.703 181.93L155.817 182.992L155.931 183.116L175.905 163.143L175.406 162.227L155.703 181.93Z" fill="#A2CF6C"/>
<path d="M186.117 42.9299L178.902 50.1451L178.591 49.5797L177.836 49.7973L185.189 42.4441L185.747 42.8189L186.117 42.9299Z" fill="#A2CF6C"/>
<path d="M163.59 34.4086L164.622 34.4258L161.411 37.6368L160.402 37.3234L163.438 35.2688L163.59 34.4086Z" fill="#A2CF6C"/>
<path d="M175.555 52.0783L174.617 53.0159L175.565 52.1099L175.555 52.0783Z" fill="#A2CF6C"/>
<path d="M144.796 34.2517L143.854 33.7787L81.2686 96.3645L81.9331 97.1143L144.796 34.2517Z" fill="#A2CF6C"/>
<path d="M78.0096 99.6235L72.5336 105.099L72.9736 106.074L79.5536 99.4938L78.0096 99.6235Z" fill="#A2CF6C"/>
</svg>
