<svg width="257" height="101" viewBox="0 0 257 101" fill="none" xmlns="http://www.w3.org/2000/svg">
<path d="M9.15168 9.24268L9.31457 9.07978L9.74187 10.0668L9.30927 10.4994L9.32184 10.4459L9.15168 9.24268Z" fill="#BE007D"/>
<path d="M7.34546 22.4632L7.30757 22.3176L6.59195 21.8024L10.6377 17.7567L10.6519 19.1567L7.34546 22.4632Z" fill="#BE007D"/>
<path d="M3.50322 36.3054L3.15754 36.0211L4.8884 34.5131L4.67488 33.7195L15.4827 22.9117L16.9547 22.854L3.50322 36.3054Z" fill="#BE007D"/>
<path d="M3.07804 46.5842L1.93604 46.3119L29.3327 18.9152L29.8391 19.0992L30.3681 19.2941L3.07804 46.5842Z" fill="#BE007D"/>
<path d="M7.66151 52.0007L7.38854 51.7893L7.40776 50.8402L37.9739 20.2741L39.2942 20.368L7.66151 52.0007Z" fill="#BE007D"/>
<path d="M17.4938 52.1684L16.4578 52.5687L15.9761 52.2719L47.631 20.6169L48.5851 20.7691L49.229 20.4332L17.4938 52.1684Z" fill="#BE007D"/>
<path d="M28.8765 50.7858L28.3411 50.838L27.6022 51.7792L26.3977 52.3865L25.6851 52.5629L53.9198 24.3281L54.776 24.8862L28.8765 50.7858Z" fill="#BE007D"/>
<path d="M36.9865 52.6757L36.0526 52.1953L60.8435 27.4044L61.785 27.8772L36.9865 52.6757Z" fill="#BE007D"/>
<path d="M45.8538 53.8085L45.5688 53.3783L45.1131 53.1348L68.8386 29.4094L68.6976 30.4446L69.0006 30.6616L45.8538 53.8085Z" fill="#BE007D"/>
<path d="M53.8428 55.8194L53.5449 55.6757L52.31 56.8497L51.4544 56.7936L70.1669 38.081L71.0957 38.5665L53.8428 55.8194Z" fill="#BE007D"/>
<path d="M63.6835 55.9788L63.6163 55.9288L61.8442 56.4037L80.261 37.9869L81.5793 38.083L63.6835 55.9788Z" fill="#BE007D"/>
<path d="M70.9841 58.6781L69.8751 58.3728L90.9673 37.2806L92.647 37.0152L70.9841 58.6781Z" fill="#BE007D"/>
<path d="M81.8638 57.7984L81.1783 57.0697L106.59 31.6583L107.97 31.6917L81.8638 57.7984Z" fill="#BE007D"/>
<path d="M51.6267 96.6212L55.2252 93.0227L56.3294 93.3328L52.483 97.1792L51.6267 96.6212Z" fill="#BE007D"/>
<path d="M88.2856 61.3766L87.1095 61.5964L86.7992 61.4487L116.503 31.7453L116.929 31.6186L117.573 32.0889L88.2856 61.3766Z" fill="#BE007D"/>
<path d="M95.1299 64.5323L94.4238 63.8241L126.603 31.6449L127.43 32.2317L95.1299 64.5323Z" fill="#BE007D"/>
<path d="M102.464 67.1981L101.162 67.0856L136.735 31.513L138.04 31.6224L102.464 67.1981Z" fill="#BE007D"/>
<path d="M111.297 68.3648L110.335 67.9131L140.066 38.1823L140.098 38.44L140.538 39.1243L111.297 68.3648Z" fill="#BE007D"/>
<path d="M114.535 75.1274L114.366 73.8816L147.83 40.4176L149.413 40.2487L114.535 75.1274Z" fill="#BE007D"/>
<path d="M113.177 85.0705L113.7 84.7932L113.89 84.3578L157.087 41.1614L157.893 41.5572L158.123 41.5388L113.136 86.5265L112.263 86.7972L112.23 86.0177L113.177 85.0705Z" fill="#BE007D"/>
<path d="M124.451 85.2116L123.307 84.9406L167.455 40.793L168.992 40.6701L124.451 85.2116Z" fill="#BE007D"/>
<path d="M134.113 85.5493L133.519 85.6637L132.683 85.5649L173.951 44.2973L174.849 44.8137L134.113 85.5493Z" fill="#BE007D"/>
<path d="M144.701 84.9614L144.603 84.8034L143.569 84.6786L184.38 43.8676L184.595 43.7838L186.224 42.4175L187.146 42.516L144.701 84.9614Z" fill="#BE007D"/>
<path d="M156.433 83.2296L154.226 84.0214L197.879 40.3691L198.831 40.831L156.433 83.2296Z" fill="#BE007D"/>
<path d="M171.161 78.5015L170.555 78.2856L169.509 78.7389L202.817 45.4305L202.915 45.9395L202.645 47.0172L171.161 78.5015Z" fill="#BE007D"/>
<path d="M179.989 79.6732L178.836 79.4121L201.659 56.589L202.146 57.1533L200.759 58.7221L200.829 58.8336L179.989 79.6732Z" fill="#BE007D"/>
<path d="M192.147 77.5153L190.785 77.4632L203.953 64.2948L204.241 64.3391L205.466 63.7622L205.678 63.9838L192.147 77.5153Z" fill="#BE007D"/>
<path d="M202.203 77.4595L201.1 77.1479L219.927 58.321L221.469 58.1929L202.203 77.4595Z" fill="#BE007D"/>
<path d="M212.983 76.6791L210.497 78.2856L209.983 78.2647L234.29 53.9581L234.962 54.0969L236.117 53.5453L212.983 76.6791Z" fill="#BE007D"/>
<path d="M225.564 74.0983L225.153 73.9033L223.777 74.7332L223.545 74.7033L242.242 56.0062L242.553 55.9389L244.254 54.6738L244.093 54.1554L245.402 52.8455L245.519 52.8217L246.298 52.1031L246.946 51.7995L247.662 50.5861L250.2 48.0479L250.438 48.1155L251.299 47.0427L252.382 46.2432L252.277 45.9714L253.037 45.2113L253.566 45.059L253.351 44.8966L254.888 43.3599L255.206 43.2676L255.437 44.2247L255.426 44.2362L254.457 44.7858L254.606 45.056L253.812 45.8506L253.657 45.8788L253.622 46.0402L225.564 74.0983Z" fill="#BE007D"/>
<path d="M233.803 75.8597L233.17 75.7452L232.423 75.825L252.388 55.8603L253.077 56.5854L233.803 75.8597Z" fill="#BE007D"/>
<path d="M251.812 67.85L243.298 76.3644L241.857 76.3909L252.883 65.3646L252.878 65.4018L251.39 67.2134L251.812 67.85Z" fill="#BE007D"/>
<path d="M240.771 77.4772L240.509 77.7694L240.465 77.7834L240.771 77.4772Z" fill="#BE007D"/>
<path d="M205.954 42.2935L204.753 43.4946L205.669 43.0247L205.954 42.2935Z" fill="#BE007D"/>
<path d="M157.528 30.7199L158.235 30.0134L158.267 31.1328L157.528 30.7199Z" fill="#BE007D"/>
<path d="M63.1239 16.5383L57.251 22.4112L56.1966 22.0513L62.6815 15.5664L63.1239 16.5383Z" fill="#BE007D"/>
<path d="M56.8637 11.3842L57.911 11.7512L53.3766 16.2856L52.9122 15.3358L56.8637 11.3842Z" fill="#BE007D"/>
<path d="M50.2318 18.0161L51.3676 16.8803L51.8039 17.3382L52.6809 16.9813L50.0327 19.6295L50.2318 18.0161Z" fill="#BE007D"/>
<path d="M25.4599 12.9344L25.4863 14.3224L20.8076 19.001L21.114 17.7329L21.0521 17.3422L25.4599 12.9344Z" fill="#BE007D"/>
<path d="M24.7738 3.62061L25.1223 3.89772L23.9886 5.7701L23.9981 5.81059L19.9311 9.87755L19.9803 9.7273L19.6707 8.72369L24.7738 3.62061Z" fill="#BE007D"/>
<path d="M51.3874 91.824L56.1447 93.16L56.3977 93.8886L55.426 94.8906L55.2337 96.3885L56.914 99.2122L56.084 99.5968L49.5452 95.3359L48.3609 93.5952L50.4966 93.5142L50.8104 91.9657L51.3874 91.824V91.824ZM243.918 41.0379L243.938 41.7868L242.926 42.4143L240.861 42.2119L240.537 41.6451L243.918 41.0379ZM243.614 38.4874L244.161 39.1048L243.645 40.0662L242.137 40.1574L242.127 38.9429L243.614 38.4874ZM155.867 26.13L158.478 27.8404L157.679 28.4375L157.749 30.8665L156.626 30.239L155.968 29.6621L155.128 29.7937L152.628 28.7613L152.638 28.2047L154.46 27.1724L155.067 26.3223L155.867 26.13ZM21.2946 1L24.6045 3.63138L23.4708 5.50377L23.9466 7.54813L24.9183 11.4143L25.0296 17.2743L29.3214 18.8328L31.3255 19.5716L38.8664 20.1081L40.4455 20.8671L44.2817 21.2922L46.4175 20.2396L48.0673 20.5028L49.4642 19.7741L49.8589 16.5759L50.4663 16.2115L51.2861 17.0718L53.0271 16.3634L51.4582 13.1551L52.5514 11.9507L54.009 12.396L54.2114 11.556L56.2965 11.1005L61.0033 12.7502L63.4123 18.0434L61.9041 20.1081L61.641 22.0715L60.6591 21.9197L60.0113 22.4358L60.234 23.0431L59.4242 23.0633L54.7985 21.4845L52.6121 21.3934L50.8003 22.4864L50.78 23.286L52.2275 23.2961L55.8916 25.6846L58.8574 25.6037L59.9506 26.9497L62.2078 28.0833L63.5034 28.0326L64.0399 26.6259L65.1735 26.9295L67.117 25.1988L68.5341 27.5772L68.1798 30.1783L68.9997 30.7652L68.7871 37.364L70.7811 38.4064L76.409 38.953L78.0285 38.7506L79.2938 37.6879L82.3506 37.9105L83.2312 36.858L85.8427 36.8681L86.6727 37.445L87.5533 37.192H89.3246L94.3856 36.3924L100.54 34.3682L104.012 31.3421L107.777 31.4332L108.729 30.4718L112.028 30.745L114.913 31.7976L116.411 31.3523L117.423 32.0911L119.428 32.5971L120.834 32.6983L124.499 32.4352L124.731 31.2308L125.663 31.079L128.517 33.1031L130.39 32.6781L131.938 33.2246L132.789 32.6072L133.588 30.9677L135.056 32.0809L136.149 31.2409L137.718 31.3725L137.678 32.9412L138.457 33.7003L140.006 33.0121L140.431 34.3176L139.358 36.4127L139.58 38.1737L140.744 39.9853L144.409 40.461L149.723 39.8942L149.885 39.3173L152.82 39.6918L153.437 41.1289L156.241 40.7343L157.375 41.2909L169.785 40.2991L170.979 40.5116L171.222 41.9487L172.487 43.4871L175.989 45.5011L180.22 45.0255L184.077 43.5175L185.706 42.1511L188.075 42.4041L189.583 41.2099L195.95 39.4185L198.642 40.7241L202.114 40.2585L204.523 40.7343L206.183 40.1168L205.151 42.7584L202.134 44.3069L202.398 45.6732L201.638 48.6993L202.762 49.5191L202.549 50.9461L203.278 52.2112L200.93 53.5573L200.798 55.9256L201.628 56.887L200.242 58.4558L201.719 60.8341L201.993 63.5566L202.671 63.9108L203.724 64.0728L204.948 63.4959L205.88 64.4675L209.21 65.7528L210.941 64.6598L213.026 60.652L213.755 60.2572L214.412 61.1175L217.166 58.982L217.338 57.1907L219.332 58.0611L221.893 57.8485L223.512 55.6928L224.454 56.3506L226.782 55.8952L227.51 55.207L227.217 54.4985L229.16 52.6262L232.237 52.4845L232.926 53.5168L234.444 53.8306L236.924 52.6464L237.43 53.1828L236.559 54.8426L236.873 55.3487L239.272 56.2697L242.035 55.6726L243.736 54.4075L243.27 52.9095L245.001 52.5553L245.781 51.8367L246.428 51.5331L247.36 49.9543L246.995 48.4564L247.866 47.586L248.2 47.0598L249.08 46.7156L249.242 47.6568L249.92 47.8491L250.781 46.7763L251.864 45.9768L251.57 45.2178L253.048 44.7927L252.34 44.2563L252.249 43.7098L254.688 43.0013L254.921 43.9628L253.939 44.5194L254.415 45.3797L253.139 45.6125L252.775 47.2925L250.7 48.5576L251.803 52.2011L251.165 54.8527L253.099 56.887L254.253 57.0894L255.457 55.9256L255.508 57.808L254.658 58.7594L252.269 59.1946L251.874 61.0973L252.724 62.7369L252.36 65.1355L250.872 66.9471L251.591 68.03L249.303 70.6918L247.967 74.062L246.854 73.7989L245.851 75.3271L244.525 76.0659L241.226 76.1266L239.991 77.5031L237.157 78.4038L235.517 78.1913L235.669 76.997L234.778 75.8635L232.652 75.4789L230.091 75.7522L229.353 76.3999L228.472 75.57L227.014 75.7926L226.66 74.5984L224.636 73.637L223.259 74.4668L220.739 74.143L212.783 76.2076L209.979 78.0192L206.234 77.8675L203.886 76.8654L202.853 77.5233L198.592 76.3189L196.162 77.4221L190.069 77.1893L185.545 79.2135L183.581 78.92L181.658 79.9017L177.052 78.8593L173.783 79.3552L170.038 78.0192L165.786 79.8612L161.586 79.6588L160.675 81.3186L158.337 82.604L157.79 82.2902L153.448 83.8488L152.85 82.9379L148.427 82.9784L144.55 85.286L144.085 84.537L141.068 84.1727L139.955 84.1322L138.578 85.1746L137.414 85.6098L134.368 85.1342L133.001 85.3973L131.716 85.2455L130.471 85.2759L128.659 86.0653L121.442 84.3549L118.881 84.79L117.231 86.2778L115.47 86.3689L113.911 86.5713L113.051 86.126L111.745 86.5309L111.694 85.3163L113.182 84.5269L113.739 83.2517L113.395 82.1688L113.304 81.3085L112.727 78.7682L113.162 77.4019L114.255 76.6226L113.617 71.9063L112.251 68.7891L108.283 66.9269L107.858 67.443L100.368 66.7953L98.8394 67.1799L97.4324 66.269L95.9444 66.7852L95.4788 65.1355L92.3815 62.0284L88.5959 60.9556L86.5917 61.33L83.4438 59.8322L83.0085 58.6784L81.5105 57.7068L80.3869 56.5125L78.3018 56.6644L77.1276 57.7473L74.6073 56.9275L70.9937 58.557L67.7951 57.6765L66.1149 57.9092L63.0985 55.6624L59.1712 56.715L57.7845 56.3506L57.2885 55.5005L54.1608 55.9559L53.0271 55.4094L51.7922 56.5834L49.7881 56.4518L48.0673 56.2191L46.6401 55.5106L45.051 53.112L43.8768 52.4845L40.9212 52.4541L38.2085 53.3043L34.7063 51.5027L33.2487 51.8165L29.4833 50.4097L27.8233 50.5716L27.0844 51.5129L25.8799 52.1202L23.8353 52.6262L23.1065 51.4724L18.1669 51.442L15.9401 52.3023L14.8064 51.604L12.8529 51.8064L12.0229 52.0594L10.3932 52.3934L8.45992 51.8367L7.90322 52.3225L6.87075 51.523L6.92138 49.0232L3.57097 47.9706L2.70049 46.3513L1.38464 46.0375L1 44.1854L2.0122 43.3859L2.5183 42.7584L4.15806 42.2928L4.0872 41.5439L2.45757 40.4914L3.25719 39.2971L2.63976 37.9712L3.26732 36.2709L2.63976 35.7548L4.37062 34.2468L3.90501 32.5162L6.02051 30.8665L6.12173 28.4476L5.1804 28.3261L4.74513 27.1825L4.86662 26.0996L5.6865 25.8162L7.11367 23.2961L6.78979 22.0512L5.77759 21.3226L6.01038 19.855L6.58734 17.1022L7.51858 15.5436L7.2149 14.0457L6.91125 13.1348L6.85052 12.3656L8.12587 13.064L8.80406 10.1796L8.52065 8.17561L9.82639 11.1916L9.04698 12.2948L9.38102 14.906L10.0997 15.5031L10.1503 20.4724L11.5572 21.1303L12.4885 21.8185L13.8549 22.6889L16.9523 22.5674L19.584 21.6565L20.5962 17.4666L20.1508 14.6529L18.6933 11.809L19.4625 9.46097L18.5819 6.6069L18.835 5.0078L21.2946 1V1Z" stroke="#BE007D"/>
</svg>
