<svg width="322" height="274" viewBox="0 0 322 274" fill="none" xmlns="http://www.w3.org/2000/svg">
<path d="M27.0359 13.907L27.7877 13.1552L28.4719 13.8853L27.3823 14.9748L27.0359 14.5839V13.907Z" fill="#814D99"/>
<path d="M29.6519 22.7052L27.9231 24.434L27.8355 24.3807L29.1007 22.6906L28.4581 22.4847L30.2695 20.6733L30.8418 21.3344L29.7284 21.4356L29.5056 22.559L29.6519 22.7052Z" fill="#814D99"/>
<path d="M34.0392 16.9037L33.3216 17.6213L33.3723 17.7213L34.4249 17.1849L34.0392 16.9037Z" fill="#814D99"/>
<path d="M47.5843 13.3586L47.6208 13.3221L47.6747 13.3693L47.5843 13.3586Z" fill="#814D99"/>
<path d="M48.2998 22.6431L50.1585 20.7844L50.3165 20.7677L50.5186 21.8385L48.2125 24.1446L48.1302 24.0468L47.806 23.1368L48.2692 22.6737L48.3124 22.6805L48.2998 22.6431Z" fill="#814D99"/>
<path d="M17.7843 54.5728L17.2578 55.0994L17.5111 54.4395L17.7843 54.5728Z" fill="#814D99"/>
<path d="M67.4478 4.90939L67.2682 5.08893L66.6838 4.91848L66.9672 4.38208L66.7747 4.16818L68.608 2.33484L69.4856 2.87152L68.8867 3.47038L68.6374 2.94494L68.111 3.67364L68.379 3.97814L68.1258 4.23134L67.5442 4.30112L67.4478 4.90939Z" fill="#814D99"/>
<path d="M65.957 4.98591L65.8842 5.24235L65.6983 5.24459L65.957 4.98591Z" fill="#814D99"/>
<path d="M48.9743 31.9686L49.2666 31.6763L49.6991 31.5969L50.0502 32.307L49.8595 32.4976H49.4763L48.7835 33.5736L48.4876 33.8695L48.1504 32.9126L49.3347 32.2244L48.9743 31.9686Z" fill="#814D99"/>
<path d="M57.5486 44.8086L56.2136 44.7293L59.054 41.8888L59.568 42.4464L59.5385 42.8186L57.5486 44.8086Z" fill="#814D99"/>
<path d="M78.5309 23.8263L78.0107 24.3464L77.2917 24.6439L76.8169 24.126L77.7946 23.1483L78.5309 23.8263Z" fill="#814D99"/>
<path d="M54.9005 37.4567L53.78 38.5771L52.8571 38.1653L52.736 38.2069L56.4811 34.4617L56.5719 34.4915L56.6832 35.6047L54.7702 37.3152L54.9005 37.4567Z" fill="#814D99"/>
<path d="M61.5764 49.3665L63.0665 47.8764L64.1422 48.2149L62.0391 50.318L62.1694 49.7536L61.5764 49.3665Z" fill="#814D99"/>
<path d="M12.7479 98.1949L14.7605 96.1824L14.9299 96.2485L15.5812 96.776L13.1582 99.1989L13.027 99.0115L12.7479 98.1949Z" fill="#814D99"/>
<path d="M4.00502 106.938L8.08229 102.861L9.23415 103.123L4.31117 108.046L4.00502 106.938Z" fill="#814D99"/>
<path d="M11.0397 111.317L10.5167 111.379L9.92859 111.014L11.2793 109.664L11.7184 110.639L11.0397 111.317Z" fill="#814D99"/>
<path d="M20.7079 101.649L19.6798 102.677L19.1003 102.048L18.7471 102.196L20.1742 100.769L20.7079 101.649Z" fill="#814D99"/>
<path d="M73.414 58.9431L70.7194 61.6377L69.4393 61.5036L73.3514 57.5914L73.1315 58.6397L73.414 58.9431Z" fill="#814D99"/>
<path d="M69.1875 53.1697L63.3565 59.0006L62.9609 57.982L68.4753 52.4676L69.1875 53.1697Z" fill="#814D99"/>
<path d="M68.124 62.8189L67.949 64.3984L66.6184 64.3245L68.124 62.8189Z" fill="#814D99"/>
<path d="M17.593 103.35L17.0601 103.883L17.5414 103.637L17.593 103.35Z" fill="#814D99"/>
<path d="M79.4978 61.445L80.2389 60.7039L81.4012 60.5424L81.7466 60.6105L80.0287 62.3285L79.4978 61.445Z" fill="#814D99"/>
<path d="M62.3148 88.6281L79.0512 71.8917L79.0934 71.8777L82.6862 69.6709L68.7863 83.5708L67.939 83.8506L66.8154 85.0448L66.9776 85.3795L62.8327 89.5245L62.5642 89.1944L62.3148 88.6281Z" fill="#814D99"/>
<path d="M79.2596 83.0976L78.0465 82.8964L95.1068 65.8361L95.4479 66.9093L79.2596 83.0976Z" fill="#814D99"/>
<path d="M41.0347 131.322L40.6335 131.724L40.2336 130.709L41.5244 129.419L41.9254 129.799L41.0347 131.322Z" fill="#814D99"/>
<path d="M99.2866 73.0706L98.8313 73.3148L97.0861 73.8568L100.998 69.9447L101.408 70.9495L99.2866 73.0706Z" fill="#814D99"/>
<path d="M39.989 130.954L39.8098 131.439L39.6256 131.317L39.989 130.954Z" fill="#814D99"/>
<path d="M86.6275 105.73L85.3738 105.569L88.73 102.213L88.9522 102.574L87.725 104.632L86.6275 105.73Z" fill="#814D99"/>
<path d="M83.0254 99.3317L81.325 101.032L81.4214 99.6896L83.0254 99.3317Z" fill="#814D99"/>
<path d="M101.577 120.78L101.412 119.901H101.042L103.736 117.207L104.255 118.102L101.577 120.78Z" fill="#814D99"/>
<path d="M106.843 125.514L106.575 125.66L106.018 125.083L104.884 126.216L104.763 126.179L107.963 122.98L108.194 123.241L108.825 122.118L109.233 121.71L109.969 122.388L106.843 125.514Z" fill="#814D99"/>
<path d="M97.0842 115.273L96.0282 116.329L95.9971 116.257L96.483 115.529L97.0842 115.273Z" fill="#814D99"/>
<path d="M145.069 95.8741L146.915 94.0275L147.457 93.8499L147.844 94.5129L146.483 95.8741H145.069Z" fill="#814D99"/>
<path d="M142.107 98.836L143.861 97.0822L145.524 96.3599L144.178 97.3213L143.611 98.6674L143.703 98.6541L139.898 102.459L139.36 102.635L139.886 101.218L139.77 101.172L140.118 100.824L140.888 100.934L140.807 100.145L142.073 99.7706L142.107 98.836Z" fill="#814D99"/>
<path d="M149.024 101.919L148.064 102.879L149.29 102.432L149.024 101.919Z" fill="#814D99"/>
<path d="M147.843 103.1L148.88 103.477L146.762 105.595L145.891 105.052L147.843 103.1Z" fill="#814D99"/>
<path d="M145.6 106.757L145.017 107.34L145.281 106.734L145.6 106.757Z" fill="#814D99"/>
<path d="M116.763 144.179L119.534 141.408L119.855 141.266L120.27 141.792L120.657 141.7L117.036 145.321L116.697 145.456L116.763 144.179Z" fill="#814D99"/>
<path d="M131.698 139.245L134.225 136.718L135.2 136.752L135.22 137.137L133.785 138.572L131.687 139.353L131.698 139.245Z" fill="#814D99"/>
<path d="M89.2022 181.741L91.2614 179.681L90.6747 181.682L87.5855 184.772L86.7828 184.16L87.439 183.504L87.9299 183.571L87.9652 182.978L88.6549 182.288L89.1952 181.941L89.2022 181.741Z" fill="#814D99"/>
<path d="M132.639 139.719L132.659 139.698L132.629 139.697L132.639 139.719Z" fill="#814D99"/>
<path d="M142.008 138.935L143.547 137.395L144.421 137.592L145.439 136.919L141.061 141.296L141.081 141.013L142.008 138.935Z" fill="#814D99"/>
<path d="M84.3735 196.569L90.5285 190.414L90.4806 190.736L88.5777 193.712L88.5861 193.771L84.3636 197.994L84.3735 196.569Z" fill="#814D99"/>
<path d="M76.6396 215.718L76.6945 214.773L76.3104 214.633L84.2007 206.742L84.1413 208.216L76.6396 215.718Z" fill="#814D99"/>
<path d="M62.3207 238.622L69.4557 231.487L69.7002 231.523L70.7731 231.402L69.6799 232.059L69.6373 232.72L66.5273 235.83L65.6514 235.703L63.5358 237.778L63.2322 239.023L62.3313 238.618L62.3207 238.622Z" fill="#814D99"/>
<path d="M79.2397 223.117L79.0326 222.678L79.0062 221.937L86.2282 214.715L87.067 215.29L79.2397 223.117Z" fill="#814D99"/>
<path d="M80.4485 231.909L80.2372 231.857L79.5893 232.312L79.2032 231.74L88.2449 222.698L89.4639 222.893L80.4485 231.909Z" fill="#814D99"/>
<path d="M141.708 180.649L140.036 180.907L152.272 168.671L151.244 171.114L141.708 180.649Z" fill="#814D99"/>
<path d="M166.242 156.115L162.531 159.826L162.317 159.807L160.464 160.479L166.462 154.481L166.242 156.115Z" fill="#814D99"/>
<path d="M176.208 136.149L135.904 176.453L135.308 175.635L179.539 131.404L179.595 131.479L179.372 132.279L177.226 134.141L176.208 136.149Z" fill="#814D99"/>
<path d="M181.788 119.155L181.29 121.067L138.046 164.311L138.076 162.867L181.788 119.155Z" fill="#814D99"/>
<path d="M168.839 122.104L170.94 121.227L171.172 121.185L136.09 156.267L134.813 156.13L168.839 122.104Z" fill="#814D99"/>
<path d="M151.901 130.457L150.889 130.841L149.077 132.106L146.105 136.252L151.901 130.457Z" fill="#814D99"/>
<path d="M69.1824 231.257L70.2554 231.136L69.1622 231.794L69.0407 233.676L66.5305 235.639L65.1336 235.437L63.0181 237.512L62.7144 238.757L61.8136 238.352L60.356 238.949L58.3114 241.449L57.2789 240.558L56.9955 241.317L55.6088 240.163L55.5076 239.84L54.718 239.242L55.2545 237.856L58.8175 234.516L60.1435 232.391L62.7853 232.957L68.15 231.105L69.1824 231.257ZM88.7179 187.029L89.9224 186.999L90.1856 188.972L89.9629 190.47L88.06 193.446L88.7685 198.425L86.3393 201.644L86.5518 203.476L83.6872 206.37L83.5861 208.88L83.7278 209.963L82.5941 210.864L83.4443 212.372L85.1246 212.777L85.2055 214.102L87.4628 215.651L87.4223 217.402L88.7483 218.343L88.0498 219.922L87.0276 220.377L87.4729 222.391L89.8111 222.766L90.8536 224.243L89.7098 226.733L89.0519 225.832L87.4729 225.751L86.4101 227.846L84.7602 227.877L83.1508 230.093L82.6852 232.026L84.3553 232.33L81.258 235.093L81.1163 234.516L82.1285 233.899L81.0454 231.915L79.7194 231.591L79.0716 232.047L78.1505 230.68L76.1869 229.891L79.1425 227.006L78.353 226.379L79.4158 226.288L79.8105 225.164L78.5149 222.412L78.4238 219.861L79.0817 218.292L78.1505 217.027L76.0857 216.076L76.1767 214.507L75.1544 214.133L74.7293 212.868L75.3164 211.835L77.0169 211.056L77.2395 209.619L80.0231 207.716L79.7903 206.856L80.4786 205.571L79.5878 205.702L79.4562 205.196L80.1749 202.858L81.3491 201.917L81.5616 200.288L83.8391 198.709L83.8998 189.944L84.7703 189.519L86.0558 190.066L87.483 188.062L87.7766 187.626L88.7179 187.029ZM89.9629 178.751L90.8942 178.902L89.9832 182.009L90.8739 184.509L90.7423 186.928L90.2665 187.019L89.9326 185.855L88.1308 186.25L87.2806 185.643L87.1389 184.56L85.8635 183.588L86.0761 183.123L87.4122 183.305L87.4628 182.455L88.6775 181.675L88.7685 179.064L89.9629 178.751ZM123.679 140.595L125.643 141.162L126.017 143.034L124.894 143.409L124.044 143.49L122.343 144.188L121.979 145.311L121.584 144.562L121.999 144.117L119.57 143.844L116.179 145.19L116.371 141.516L117.677 141.739L119.337 141L119.752 141.526L123.679 140.595ZM134.682 136.486L134.763 138.045L132.82 140.97L132.111 139.431L133.184 139.462L133.508 138.217L131.17 139.087L131.271 138.055L132.678 136.415L134.682 136.486ZM39.4237 127.651L41.4076 129.533L40.1828 131.628L39.6363 130.242L39.2921 131.173L38.1382 130.414L38.3204 129.655L37.5815 128.228L39.4237 127.651ZM180.14 117.621L180.221 117.196L180.464 118.137L180.818 117.641L181.274 118.876L180.261 122.762L181.942 124.645L178.46 128.774L178.146 129.978L179.077 131.213L178.854 132.013L176.709 133.875L175.241 136.769L174.603 138.632L175.271 139.988L174.563 140.079L173.793 141.911L172.781 142.589L171.799 147.275L170.676 146.91L168.925 147.609L168.56 149.35L167.467 149.795L166.182 152.447L165.696 156.06L168.581 156.495L167.336 157.325L167.963 157.618L167.68 159.167L166.323 159.825L167.346 162.152L164.147 161.019L163.773 159.713L161.799 159.541L158.924 160.584L156.556 162.8L155.209 162.992L152.244 167.243L149.976 172.627L148.66 173.559L147.324 176.149L146.019 176.534L145.745 177.759L143.984 177.668L143.255 179.044L141.474 180.339L139.176 180.694L138.073 181.898L137.152 181.736L137.202 180.937L138.883 180.744L138.933 180.066L135.714 177.587L135.846 176.817L134.267 174.652L137.476 166.555L137.668 157.386L136.878 156.141L133.66 155.797L133.933 153.226L133.234 152.021L131.544 152.042L131.241 150.928L135.117 149.603L137.283 146.931L138.468 146.85L140.381 143.378L140.563 140.747L141.99 137.549L142.688 137.053L143.903 137.326L145.28 136.415L148.559 131.841L150.371 130.575L156.039 128.42L164.532 123.42L170.423 120.961L173.601 120.394L176.496 120.779L179.563 116.771L180.14 117.621ZM101.623 114.19L104.68 119.463L103.911 121.224L104.306 121.831L104.994 122.115L106.027 121.113L107.676 122.975L108.598 121.335L109.751 122.398L108.375 124.139L106.057 125.394L105.5 124.817L104.367 125.95L103.334 125.637L103.587 124.432L102.696 122.965L101.725 124.058L100.895 119.635H99.842L99.2043 120.93L98.3338 120.677L97.7973 121.517L97.1799 121.851L97.109 120.546L95.7223 120.809L95.3681 120.151L96.0361 117.277L95.4794 115.991L95.9652 115.263L96.8459 114.888L96.5827 115.89L98.6982 116.72L99.3258 116.376L99.7307 114.382L100.662 113.755L101.623 114.19ZM147.638 108.644L148.59 109.474L146.768 110L146.717 108.806L147.638 108.644ZM84.578 98.6039L86.1064 98.5229L88.4345 102.308L86.5215 105.516L81.6224 104.889L81.2074 103.816L80.1142 103.867L80.6203 103.371L80.9037 99.4237L84.578 98.6039ZM145.006 96.094L143.66 97.0554L143.093 98.4015L144.774 98.1586L145.087 99.1403L148.205 97.268L147.992 98.7658L146.717 99.2314L148.711 98.7658L149.045 99.7577L148.944 100.76L148.154 100.972L148.772 102.166L147.132 102.764L148.772 103.361L148.347 104.494L147.375 104.474L148.833 105.638L148.124 106.033L148.721 106.549L145.806 108.006L144.318 107.49L144.763 106.468L146.019 106.559L146.251 105.334L144.014 103.938L143.114 104.808L142.921 104.282L141.363 104.747L141.352 104.11L142.142 104.069L141.889 103.533L143.002 103.027L142.942 102.156L141.788 102.126L141.494 102.794L139.773 102.065L138.842 102.369L139.368 100.952L138.619 100.658L139.227 99.7273L139.449 100.537L140.371 100.669L140.29 99.8792L141.555 99.5047L141.595 98.4015L140.937 98.3914L141.464 97.6323L145.006 96.094ZM13.9972 95.8207L14.4122 95.9826L17.6614 98.6141L17.9144 98.8873L18.4003 99.8184L19.3214 99.95L21.1434 102.956L18.7343 102.976L19.4024 102.673L18.5825 101.782L17.2059 102.359L17.0237 103.371L16.1329 103.826L14.9993 103.29L14.3211 103.361L13.1065 103.351L13.066 103.958L11.2946 103.209L11.1225 104.373L10.2015 104.666L10.8594 105.567L10.6468 107.045L9.0374 107.541L10.495 108.806L11.4566 110.941L9.99901 111.113L8.90587 110.435L7.62036 111.306L5.72754 109.666L5.51497 110.364L4.4319 110.091L3.41969 106.427L1.96213 105.678L2.95413 104.99L1.8002 102.824L2.26578 100.679L3.27797 100.952V102.268L3.86507 102.116L4.15865 100.922L4.68495 100.901L5.97046 101.266L7.19525 102.511L8.79448 102.875L9.02733 104.079L10.4849 104.008L11.0517 102.126L12.3777 102.116L12.7218 101.337L14.5742 102.581L13.7239 100.588L14.1288 100.092L13.5013 99.5856L12.8636 99.2517L12.5093 98.7456L11.821 96.7316L12.2563 95.8207H13.9972ZM146.94 93.584L147.648 94.7985L147.142 95.6082H144.531L144.591 94.3532L146.94 93.584ZM81.8451 92.1873L82.0273 93.0678L80.1952 93.3006L79.3146 96.4785L78.444 94.9402V93.25L79.9623 93.1691L80.9341 91.3979L81.8451 92.1873ZM95.1454 67.3205L97.686 68.4339L99.7711 67.9379L101.219 71.4903L98.3136 73.0489L84.2339 77.4211L79.1323 82.8964L72.7252 81.8338L67.4212 83.5847L66.2976 84.7789L67.573 87.4103L65.8725 88.8576L66.5406 92.5416L64.6477 92.1266L62.0464 88.9285L61.3379 87.3192L61.8946 82.1475L65.579 80.8925L68.7775 81.2366L71.551 76.8645L75.7415 72.553L78.5756 71.6118L84.244 68.1302L90.4893 67.3509L94.3862 64.932L95.1454 67.3205ZM80.8835 60.2765L81.6528 60.4283L81.7236 61.3392L82.9484 60.2461L84.5679 60.995L82.5941 62.9079L84.5071 63.8188L84.8513 64.7903L83.3431 64.0515L81.9564 64.7397L80.924 64.4159L80.9847 63.2621L80.1345 63.1002L78.6262 60.5902L80.8835 60.2765ZM60.8621 53.6878L62.1375 54.8518L61.4492 56.6735L61.0038 55.55L58.4936 54.1736L60.8621 53.6878ZM20.1817 54.2749L22.8034 54.872L23.2993 55.8942L20.5664 55.9549L20.1311 55.5906L20.121 55.0643L18.5015 55.6614L19.1088 56.4306L16.0925 56.3598L16.3557 55.7727L17.378 56.1472L16.6087 55.1756L16.9933 54.1736L18.2383 54.7809L18.2181 54.2141L18.8052 53.9611L19.5036 54.3153L20.1817 54.2749ZM76.6626 48.2934L78.6566 49.0323L77.2801 49.3662L75.3467 48.5161L76.6626 48.2934ZM59.5058 47.0283L60.7103 47.6558L61.4391 47.2612L64.172 48.1214L65.0931 48.334L67.8666 50.2266L68.5346 51.3499L66.6418 50.9046L69.5164 53.7384L69.476 55.2667L70.64 54.0218L72.2292 54.0724L73.7981 56.1573L73.0491 56.299L72.6138 58.3738L73.1604 58.9608L71.713 60.2664L72.2595 60.7117L73.0895 60.3372L73.8487 61.7541L67.7653 61.1165L67.4313 64.1325L65.6093 64.0313L64.172 63.6163L63.7469 64.0515L62.6638 61.7541L61.1456 61.5011L60.7913 60.9444L62.9776 59.0923L62.2387 57.1897L63.5849 55.3071L63.6052 53.2223L66.166 53.8093L63.6862 50.6212L62.4817 50.3277L61.9047 50.7123L62.2995 51.0969L61.2265 51.3297L61.6517 49.4877L58.2102 47.2409L58.9997 46.4413L59.5058 47.0283ZM51.7928 32.7175L52.967 33.2135L56.0542 34.2256L56.1655 35.3388L54.2525 37.0493L54.8395 37.6869L56.3679 37.11L57.7547 37.9095L56.4185 38.5572L56.3072 39.205L59.0503 42.1805L58.8681 44.4779L57.8154 44.5893L54.7484 44.4071L53.6552 43.0205L56.287 42.0793L56.2263 40.8648L54.1613 41.5935L52.9265 42.8788L51.4588 40.3688L52.1471 40.3588L53.5642 38.4459L52.3394 37.8994L50.6288 38.4864L50.4162 37.0493L48.3615 36.7962L47.5517 35.9259L48.7663 33.4968L50.9223 33.8713L50.2947 32.8086L51.7928 32.7175ZM49.1813 31.331L49.6267 32.2317H48.9586L48.0071 33.7094L47.6326 32.6467L48.817 31.9585L48.1894 31.5131L49.1813 31.331ZM77.2395 20.8661L77.8266 21.3519L76.8347 22.4753L78.2417 23.7708L76.774 24.378L76.1059 23.6493L76.0654 21.9592L76.5918 20.8762L77.2395 20.8661ZM44.0495 18.2651L45.1325 18.3865L45.8208 19.3581L45.4868 19.9654L47.1165 20.7851L49.7988 20.5018L50.2037 22.6474L49.404 23.1129L49.4243 24.1756L48.817 23.3356L47.9364 24.1655L47.6124 23.7809L47.0861 22.3032L47.7946 22.4146L47.5213 21.6049L46.1346 22.445L45.1021 21.3722L43.3308 21.1697L42.7943 19.2063L43.9989 19.3682L43.5231 18.7205L44.0495 18.2651ZM29.7268 12.4152L30.5669 12.7391L30.4556 13.8423L32.2371 14.1763L32.4496 15.8563L33.9072 16.919L32.8545 17.4554L32.4496 16.6559L29.6357 15.6337L29.7977 16.5344L28.6539 16.7267L29.0891 18.4675L28.3705 18.8116L30.324 21.0685L29.2106 21.1697L28.9879 22.2931L30.1924 23.4975L30.2329 24.9448L28.8159 25.0257L27.3177 24.1148L28.583 22.4247L27.5405 22.0907L27.0445 22.8296L26.0019 22.7992L26.5485 21.7567L26.255 19.7022L26.4878 18.1335L26.589 15.7551L27.2267 15.1175L26.5181 14.318V12.8504L27.0344 12.6379L28.2389 13.9232L29.2511 13.5791L29.7268 12.4152ZM44.2721 10.2899L44.9706 10.381L45.0819 11.2817L47.1569 13.1035L46.4788 13.0225L45.75 14.3989L45.5475 12.8707L44.6568 13.0731L44.4341 12.4557L43.9483 11.2615L43.2296 11.3728L43.2701 10.4113L42.6324 9.98626L43.2195 8.81224L44.2721 10.2899ZM67.1682 1.50503L69.4355 2.89157L69.6278 3.90366L68.6865 3.87329L68.1196 2.67905L67.5933 3.40775L68.0386 3.91378L67.0265 4.03523L66.8949 4.86514L66.166 4.65258L66.4495 4.11618L65.8118 3.40775L65.3664 4.97646L64.5263 4.98659L63.5445 3.42797L64.01 3.32676L63.5242 1.81878L62.1578 1.47467L67.1682 1.50503Z" stroke="#814D99"/>
<path d="M315 182C315.8 182 316 182.667 316 183C315.5 183.333 314.6 184.2 315 185C315.499 186 315 187.5 313.5 188.5C312 189.5 310.5 186 310.5 185.5C310.5 185 311 182.5 311.5 181.5C312 180.5 314 178.5 314.5 179.5C315 180.5 313.5 181 313 181.5C312.5 182 314 182 315 182Z" stroke="#814D99"/>
<path d="M318.5 187.5C318.333 187.333 318.2 186.7 319 185.5C319.5 185.167 320.6 184.6 321 185C321.5 185.5 321 186 320.5 187C320.1 187.8 319 187.667 318.5 187.5Z" stroke="#814D99"/>
<path d="M302 180C302.167 179.667 302.9 179 304.5 179L305.5 179.5C305.667 179.833 305.7 180.6 304.5 181C303.3 181.4 302.333 180.5 302 180Z" stroke="#814D99"/>
</svg>
