<svg width="183" height="191" viewBox="0 0 183 191" fill="none" xmlns="http://www.w3.org/2000/svg">
<path d="M54.8422 10.3738L63.7361 1.47998L63.1506 2.99657L63.4126 3.21769L55.0945 11.5359L54.8422 10.3738Z" fill="#2C216F"/>
<path d="M16.374 48.842L27.2161 37.9999L27.4706 38.1056L27.9146 38.7157L17.4107 49.2196L16.374 48.842Z" fill="#2C216F"/>
<path d="M61.1324 15.4979L60.5999 15.6881L60.1504 15.0657L66.9743 8.24177L67.5551 9.07522L61.1324 15.4979Z" fill="#2C216F"/>
<path d="M65.1976 21.4327L64.8916 21.3861L64.1831 21.9832L64.3872 20.8288L72.9688 12.2473L74.495 12.1353L65.1976 21.4327Z" fill="#2C216F"/>
<path d="M27.3961 67.8199L30.7177 64.4984L30.6691 64.6828L31.8014 64.8289L27.7446 68.8857L27.3289 68.3364L28.0172 67.9316L27.3961 67.8199Z" fill="#2C216F"/>
<path d="M25.7547 79.4613L25.9826 79.4592L25.9351 79.2809L33.5205 71.6955L33.5337 71.9698L32.1267 74.4393L32.1304 74.4999L26.1263 80.504L25.1627 80.785L25.0447 80.1713L25.7547 79.4613Z" fill="#2C216F"/>
<path d="M59.3455 47.2848L59.1306 47.4998L58.0653 47.1507L58.7812 46.4349L59.3455 47.2848Z" fill="#2C216F"/>
<path d="M78.9491 36.267L79.2649 37.2656L78.3438 37.2555L78.1332 37.0829L78.9491 36.267Z" fill="#2C216F"/>
<path d="M79.1739 27.4564L74.695 31.9353L74.2284 30.9877L78.7307 26.4853L78.4551 27.3169L79.1739 27.4564Z" fill="#2C216F"/>
<path d="M78.1688 17.0472L78.0043 17.2118L78.1818 17.1455L78.1688 17.0472Z" fill="#2C216F"/>
<path d="M77.0727 18.1434L76.8154 19.038L77.5833 19.047L70.0853 26.545L69.1733 26.6388L69.0693 26.1468L77.0727 18.1434Z" fill="#2C216F"/>
<path d="M35.8969 69.3192L34.7374 70.4786L34.8293 70.897L35.9022 69.9557L35.8969 69.3192Z" fill="#2C216F"/>
<path d="M82.733 42.4831L87.2072 38.0089L87.7978 38.4093L87.74 38.8903L83.4477 43.1826L82.733 42.4831Z" fill="#2C216F"/>
<path d="M35.7283 100.902L34.2667 100.949L40.5003 94.7157L39.5967 96.6544L39.8571 96.7732L35.7283 100.902Z" fill="#2C216F"/>
<path d="M74.7236 71.9067L71.6329 73.7308L71.6939 73.5221L78.7479 66.4681L79.236 67.3943L74.7236 71.9067Z" fill="#2C216F"/>
<path d="M102.236 54.3947L102.201 54.3799L99.8739 55.3421L104.06 51.1558L103.72 51.8092L103.856 52.7742L102.236 54.3947Z" fill="#2C216F"/>
<path d="M102.6 44.0306L94.163 52.4674L93.1321 52.5682L92.8956 52.3204L101.724 43.4918L102.6 44.0306Z" fill="#2C216F"/>
<path d="M93.8835 41.3326L94.4905 42.1399L88.8109 47.8195L88.4456 47.5989L88.0991 47.117L93.8835 41.3326Z" fill="#2C216F"/>
<path d="M73.1399 62.0761L76.847 58.369L77.4419 59.1885L73.6 63.0303L73.5864 62.8408L73.1917 62.3955L73.1399 62.0761Z" fill="#2C216F"/>
<path d="M70.4404 66.1899L70.3494 66.2809L70.2664 66.2313L70.4404 66.1899Z" fill="#2C216F"/>
<path d="M34.4008 92.2295L33.8575 92.0292L33.1389 93.3449L31.9951 93.7498L32.1313 94.499L34.4008 92.2295Z" fill="#2C216F"/>
<path d="M31.4247 95.2057L30.9914 95.639L30.9019 95.5209L31.4247 95.2057Z" fill="#2C216F"/>
<path d="M51.5141 113.702L53.2917 111.924L53.4133 112.058L54.636 111.994L52.111 114.519L52.3302 114.224L51.5141 113.702Z" fill="#2C216F"/>
<path d="M40.3295 134.887L42.4504 132.766L42.9775 132.674L43.6455 132.664L43.7253 132.905L39.2498 137.381L39.2258 135.99L40.2586 134.958L40.285 134.952L40.3295 134.887Z" fill="#2C216F"/>
<path d="M30.3815 144.835L32.347 142.869L33.3007 143.33L30.9907 145.64L30.3815 144.835Z" fill="#2C216F"/>
<path d="M21.1488 154.067L27.7266 147.489L28.3238 148.307L22.1198 154.511L21.286 154.93L21.1488 154.067Z" fill="#2C216F"/>
<path d="M34.1495 152.481L34.0904 152.4L32.9694 152.247L40.7947 144.421L41.034 144.617L40.8013 145.7L40.8351 145.795L34.1495 152.481Z" fill="#2C216F"/>
<path d="M47.8185 138.812L47.1651 139.465L47.7753 138.808L47.8185 138.812Z" fill="#2C216F"/>
<path d="M119.291 67.3392L118.867 67.7632L118.121 67.095L124.112 61.104L124.814 61.009L124.759 61.8711L121.964 64.6664L121.302 64.7436L121.429 65.2009L120.936 65.6943L120.897 65.6949L120.905 65.7252L120.563 66.0675L119.611 65.8568L119.291 67.3392Z" fill="#2C216F"/>
<path d="M112.605 62.6114L115.595 59.6211L115.623 60.8572L115.69 60.9404L112.745 63.8849L112.605 62.6114Z" fill="#2C216F"/>
<path d="M102.474 72.7416L105.504 69.7117L105.967 69.4295L106.159 70.4112L106.138 70.4922L104.725 71.9056L104.651 71.2411L104.023 72.577L102.657 73.2956L102.474 72.7416Z" fill="#2C216F"/>
<path d="M59.0317 116.184L53.6308 121.585L53.8485 122.574L54.0526 122.578L59.579 117.051L59.0317 116.184Z" fill="#2C216F"/>
<path d="M108.087 68.5431L106.729 69.9017L106.716 69.7534L107.242 68.2251L107.708 68.5996L108.133 68.1138L108.087 68.5431Z" fill="#2C216F"/>
<path d="M117.145 68.0709L117.182 68.0834L117.308 67.9082L117.145 68.0709Z" fill="#2C216F"/>
<path d="M110.36 66.2707L110.076 65.9277L110.673 64.946L111.176 65.4548L110.36 66.2707Z" fill="#2C216F"/>
<path d="M117.356 59.2744L117.324 59.0455L117.982 58.5496L118.075 58.5556L117.356 59.2744Z" fill="#2C216F"/>
<path d="M106.182 99.0344L106.893 98.3226L106.938 98.4762L108.275 97.788L108.601 98.0293L107.247 99.3837L107.252 99.3162L106.182 99.0344Z" fill="#2C216F"/>
<path d="M91.8871 113.329L104.608 100.609L104.661 100.581L105.87 100.761L92.4269 114.203L91.8871 113.329Z" fill="#2C216F"/>
<path d="M86.7447 118.471L89.669 115.547L89.559 116.896L88.3766 118.254L87.118 119.512L86.7447 118.471Z" fill="#2C216F"/>
<path d="M98.9699 117.66L97.7594 117.457L107.57 107.646L108.001 108.101L106.746 108.587L107.494 109.137L98.9699 117.66Z" fill="#2C216F"/>
<path d="M106.562 100.068L106.638 99.9923L106.544 99.9639L106.562 100.068Z" fill="#2C216F"/>
<path d="M116.033 109.183L132.393 92.8227L132.576 94.0539L116.687 109.943L116.033 109.183Z" fill="#2C216F"/>
<path d="M69.5887 155.627L71.5883 153.628L72.3241 154.306L70.1714 156.459L70.1551 156.458L69.5887 155.627Z" fill="#2C216F"/>
<path d="M76.0874 160.543L75.2566 160.395L75.0387 160.177L77.8915 157.325L78.4558 158.175L78.2859 158.344L77.9693 158.543L78.025 158.605L76.0874 160.543Z" fill="#2C216F"/>
<path d="M89.1332 156.083L98.1014 147.115L99.2248 147.406L91.148 155.482L90.1157 156.104L89.1332 156.083Z" fill="#2C216F"/>
<path d="M122.535 124.095L121.98 123.859L122.253 123.282L122.05 123.166L135.616 109.6L135.448 111.183L122.535 124.095Z" fill="#2C216F"/>
<path d="M136.641 99.989L118.975 117.655L118.822 117.503L117.82 117.726L117.919 117.297L136.317 98.8991L136.641 99.989Z" fill="#2C216F"/>
<path d="M153.614 101.456L153.798 101.272L154.624 101.86L154.086 102.398L153.614 101.456Z" fill="#2C216F"/>
<path d="M124.403 130.667L125.328 129.742L125.887 129.577L125.988 130.397L125.963 130.52L121.615 134.869L120.644 134.607L120.675 134.395L121.434 133.636L122.071 133.707L122.191 132.879L123.288 131.781L123.842 131.642L124.403 130.667Z" fill="#2C216F"/>
<path d="M107.634 147.435L112.525 142.544L112.455 142.714L113.487 142.724L113.629 142.855L109.214 147.27L107.634 147.435Z" fill="#2C216F"/>
<path d="M113.43 153.054L113.234 152.238L112.889 152.181L118.652 146.418L119.258 147.226L118.904 147.58L117.982 148.028L117.507 148.977L113.43 153.054Z" fill="#2C216F"/>
<path d="M140.988 125.495L140.918 125.489L140.771 125.712L140.988 125.495Z" fill="#2C216F"/>
<path d="M139.575 126.908L137.934 128.55L137.892 127.513L138.57 126.865L139.575 126.908Z" fill="#2C216F"/>
<path d="M156.621 99.8633L156.536 99.7919L156.478 100.006L156.621 99.8633Z" fill="#2C216F"/>
<path d="M143.709 132.775L143.045 133.439L142.578 132.664L143.337 132.35L143.709 132.775Z" fill="#2C216F"/>
<path d="M144.358 132.126L143.892 132.592L143.904 132.158L144.358 132.126Z" fill="#2C216F"/>
<path d="M169.713 125.357L171.498 123.572L171.527 123.616L172.084 123.039L173.319 123.165L170.743 125.741L169.713 125.357Z" fill="#2C216F"/>
<path d="M160.904 134.165L164.847 130.223L165.413 130.154L167.721 128.762L155.118 141.366L153.801 141.269L158.931 136.139L159.239 135.862L159.725 136.51L160.302 135.751L159.994 135.075L160.637 134.433L161.476 134.344L160.904 134.165Z" fill="#2C216F"/>
<path d="M119.06 176.009L120.83 174.239L120.978 174.281L121.383 175.101L120.305 176.179L120.067 175.941L119.06 176.009Z" fill="#2C216F"/>
<path d="M113.819 181.251L114.528 180.541L114.773 181.679L113.819 181.251Z" fill="#2C216F"/>
<path d="M116.995 188.075L118.325 186.745L119.601 186.883L117.69 188.794L117.688 188.794L116.995 188.075Z" fill="#2C216F"/>
<path d="M180.454 126.029L179.426 127.058L178.565 126.504L179.598 125.472L180.454 126.029Z" fill="#2C216F"/>
<path d="M174.395 122.089L174.27 122.007L173.551 122.078L173.692 122.792L174.395 122.089Z" fill="#2C216F"/>
<path d="M125.194 179.875L125.847 180.637L121.211 185.273L122.182 183.41L121.981 183.089L125.194 179.875Z" fill="#2C216F"/>
<path d="M150.153 184.917L152.669 182.4L152.852 182.671L153.436 183.048L149.376 187.108L148.945 186.345L150.153 184.917Z" fill="#2C216F"/>
<path d="M158.232 188.252L157.488 187.853L157.085 187.985L158.177 186.892L158.287 187.195L159.182 187.302L158.232 188.252Z" fill="#2C216F"/>
<path d="M152.334 182.405L157.284 185.593L157.77 186.929L160.138 187.213L160.24 187.799L158.954 188.65L156.97 187.587L153.164 188.832L149.399 187.799L148.427 186.079L151.98 181.879L152.334 182.405ZM117.778 180.917L119.488 181.363L119.124 182.719L118.183 183.144L117.261 182.071L117.778 180.917ZM114.782 177.992L113.678 178.731L114.255 181.413L111.684 180.26L112.868 175.968L113.395 175.776L113.486 176.576L114.478 176.849L114.782 177.992ZM121.249 175.614L126.614 181.869L126.017 185.836L126.412 186.899L122.434 190.117L120.308 188.498L117.17 188.528L116.118 187.435L115.318 187.83L114.356 187.223L115.429 186.221L119.812 186.696L121.665 183.144L120.966 182.031L120.835 179.612L119.873 178.974L120.703 177.395L120.258 176.383L119.549 175.675L115.976 175.918L115.703 174.288L117.494 173.175L120.46 174.015L121.249 175.614ZM70.2548 152.61L73.7671 155.848L74.8603 156.152L75.6599 155.636L77.1681 156.749L77.9678 157.953L77.4516 158.277L78.5852 159.542L77.4718 160.615L74.7389 160.129L72.7651 158.156L72.6335 156.334L69.6374 156.192L67.4915 153.045L69.3944 152.174L70.2548 152.61ZM97.5134 146.831L98.9203 147.195L98.232 147.701L98.475 148.662L96.4303 150.251L96.1469 151.425L95.2663 151.355L94.0517 153.156L89.5979 155.838L87.7153 155.798L88.4744 153.773L89.851 152.518L90.762 149.502L94.8209 146.992L97.5134 146.831ZM30.5968 140.333L30.2931 141.861L34.1698 143.734L37.5506 142.023L37.9251 140.778L38.7551 141.244L39.241 140.677L39.5446 141.487L41.073 141.962L39.7977 143.764L40.5163 144.351L40.2835 145.434L41.2957 148.288L40.5872 150.474L39.4535 151.942L38.4413 151.365L37.8138 152.023L36.8016 151.901L36.3157 152.721L35.1517 152.437L34.4229 153.298L33.5726 152.134L31.943 151.911L31.0421 153.105L30.4449 152.741L28.9975 153.561L28.2484 153.166L22.3979 153.844L20.7683 154.664L20.414 152.437L21.7299 150.889L21.0314 149.664L22.1955 147.954L21.1428 146.76L22.5093 146.001L22.0335 145.181L22.7623 144.29L22.2663 144.027L23.6834 142.792L25.3333 145.039L27.4792 144.361L27.7423 145.697L27.0844 147.053L28.046 148.369L30.1716 148.349L31.0725 149.644L33.937 148.571L34.2306 147.802L33.0665 145.889L31.0927 146.193L28.4509 142.701L29.0582 142.347L28.8659 140.525L30.5968 140.333ZM48.2799 138.643L51.4785 139.533L52.0048 142.408L51.2254 143.157L50.1322 143.622L47.4702 142.317L46.4782 139.382L47.2576 138.542L48.2799 138.643ZM110.389 138.491L112.504 141.082L111.937 142.448L112.97 142.458L114.134 143.531L115.227 143.309L115.348 144.422L117.353 145.11L118.84 147.094L117.464 147.762L116.806 149.077L117.525 149.948L117.98 151.871L117.717 152.863L117.251 153.956L115.581 153.166L114.579 155.14L113.101 153.581L112.717 151.972L111.917 151.84L111.401 151.253L108.597 147.964L108.901 146.982L106.39 147.246L105.824 146.962L105.55 145.616L106.218 143.42L105.803 140.809L106.967 138.946L110.389 138.491ZM13.7841 136.953L14.4825 136.922L14.776 138.167L13.6019 140.829L12.529 139.392L11.7496 139.361L11.5067 137.226L13.2274 136.598L13.7841 136.953ZM143.609 132.985L142.89 133.775L142.06 132.398L142.819 132.085L143.609 132.985ZM42.4598 132.408L43.1278 132.398L43.6137 133.866H44.9801L45.2028 132.914L46.458 134.271L45.5369 134.716L45.0105 138.147L43.7857 139.604L40.5366 140.373L39.5345 139.007L39.8179 138.036L38.7349 137.276L38.6944 134.928L39.7673 134.686L41.1743 132.631L42.4598 132.408ZM144.388 131.821L145.218 132.216L144.895 132.833L143.366 132.601L143.386 131.892L144.388 131.821ZM125.47 130.131L125.187 131.548L125.926 131.528L125.521 134.372L124.347 134.362L123.355 135.212L120.126 134.342L120.278 133.299L121.553 133.441L121.796 131.761L123.324 131.376L124.337 129.615L125.369 129.311L125.47 130.131ZM165.068 127.186L166.08 127.743L165.128 128.441L162.75 127.52L165.068 127.186ZM130.137 127.034L130.774 129.929L131.007 130.354L131.635 130.85L131.139 131.417L130.056 130.738L129.873 130.384L129.185 130.516L128.628 129.16L127.95 129.716L127.647 128.957L128.203 127.864L128.568 127.348L130.137 127.034ZM141.332 125.314L143.285 126.022L143.366 127.409L144.348 127.5L144.166 129.018L141.656 128.441L141.362 128.988L139.742 127.874L137.424 128.492L137.374 127.247L138.052 126.599L139.459 126.66L140.4 125.223L141.332 125.314ZM136.594 123.603L136.331 124.423L134.965 124.828L134.287 126.548L133.811 125.982L132.505 126.042L134.084 124.383H135.107L136.321 123.198L136.594 123.603ZM173.752 121.741L181.05 126.488L178.985 126.842L177.649 125.982L173.682 126.741L172.173 128.218L171.556 127.935L168.732 130.921L167.325 131.305L166.515 132.884L165.078 133.673L164.379 135.728L160.887 138.784L158.337 139.351L157.415 138.977L155.037 141.133L152.577 140.95L150.148 139.442L149.622 137.803L151.049 138.643L152.476 136.376L153.205 136.659L153.549 135.799L155.27 136.588L155.745 135.86L157.638 136.568L158.721 135.596L159.207 136.244L159.784 135.485L159.227 134.261L160.958 134.078L158.468 133.299L159.035 131.649L159.804 131.498L160.523 130.941L160.847 130.911L161.748 130.981L162.557 130.172L164.896 129.888L168.185 127.905L171.04 125.779L169.005 125.02L169.41 124.028L170.726 122.925L171.009 123.35L171.566 122.773L173.256 122.945L173.034 121.812L173.752 121.741ZM138.376 120.415L139.257 120.8L138.669 121.033L138.983 121.984L137.576 122.814L136.271 122.642L135.754 121.529L136.301 120.577L138.376 120.415ZM81.6522 117.824L82.4012 118.361L83.7677 117.754L85.4074 118.897L83.8487 119.96L83.1604 119.545L81.5611 120.334L80.144 118.826L81.1764 117.369L81.6522 117.824ZM49.7375 110.011L51.8024 110.588L52.8955 111.792L54.8289 111.691L55.8309 112.329L56.8735 114.596L58.5031 115.901L60.9122 119.717L60.983 120.385L60.0923 121.549L59.6368 120.942L58.655 122.885L57.5517 122.48L57.7339 123.624L55.5475 125.678L53.7053 122.945L54.3733 122.328L53.3308 122.308L52.8449 120.102L53.3713 119.626L52.7943 118.705L52.0251 118.867L52.3085 117.804L51.2355 117.005L53.1587 115.486L51.0533 114.98L51.8125 113.958L50.8003 113.31L51.0736 112.045L49.3225 111.58L49.5249 110.709L49.7375 110.011ZM89.4563 109.222L90.5697 109.677L89.4967 111.043L89.0412 116.63L87.7456 118.118L89.2133 120.729L88.7882 121.65L87.3306 119.646H86.7436L86.1666 118.037L84.5775 117.642L83.6867 116.499L84.6078 116.316L84.1523 113.574L86.4601 112.42L87.1889 110.507L89.102 110.092L88.9501 109.353L89.4563 109.222ZM157.8 100.012L156.656 100.639L157.679 102.097L158.691 102.228L157.648 104.799L155.948 104.596L155.351 103.726L154.743 104.475L152.85 100.7L154.571 101.925L155.502 101.429L156.019 99.5259L156.687 100.093L157.679 99.4348L157.8 100.012ZM102.848 97.6334L103.728 98.3924L103.465 98.7871L102.868 98.5443L102.362 99.8397L101.441 100.346L102.412 101.196L104.143 100.315L106.188 100.619L106.026 99.698L106.664 99.8903L106.735 99.0503L105.581 98.7466L106.198 97.4512L106.421 98.2103L107.757 97.522L108.921 98.3823L107.463 99.7182L108.131 100.457L106.826 101.925L106.218 103.655L106.654 104.181L105.398 105.639L107.484 107.835L106.228 108.321L107.301 109.11L105.368 111.013L104.538 113.847L103.647 113.776L102.21 115.79L101.35 115.517L99.0215 117.49L97.0377 117.156L96.5417 116.357L95.2258 116.549L94.2136 114.95L93.009 115.719L91.1972 112.784L91.1568 110.922L92.0677 109.859L91.9868 107.572L96.4202 104.647L96.157 104.03L95.6307 104.394L94.9525 103.767L94.3654 104.505L94.1326 104.06L96.5619 101.044L100.236 99.4956L100.884 98.4531L102.17 98.2305L102.139 97.7852L102.676 97.1375L102.848 97.6334ZM131.179 92.0365L131.867 92.5021L132.09 94L133.113 94.1923L133.527 95.3562L134.216 95.4472L135.673 98.2103L136.655 101.51L135.977 104.799L137.445 105.103L135.42 106.307L134.793 112.207L133.973 113.027L132.222 119.606L131.483 120.091L131.149 119.494L128.436 119.899L128.396 120.405L126.776 120.759L126.27 122.581L124.995 121.974L123.011 124.251L121.462 123.593L121.735 123.016L120.743 122.45L120.784 118.432L119.205 118.128L118.304 117.237L117.302 117.46L117.788 115.365L115.237 111.934L115.915 111.701L116.543 110.112L114.316 107.521L114.063 106.378L112.514 106.084L113.486 104.222L115.035 104.91L115.966 104.445L116.3 102.815L115.865 102.329L118.041 101.459L119.711 99.3539L122.039 99.1312L124.266 97.7649L127.141 93.2916L130.744 91.6823L131.179 92.0365ZM36.7611 91.3382L38.2591 91.1662L38.1883 91.7329L39.8989 92.6236L40.1013 93.6356L40.0507 94.3036L39.079 96.3885L40.1216 96.8642L40.071 99.8296L39.2916 99.6474L38.9373 98.0382L38.33 98.1293L38.3806 101.105L36.3562 102.309L36.2752 101.834L35.5262 102.006L36.3663 100.599L33.2386 100.7L33.3499 99.0402L32.5807 99.1818L32.1859 100.275L31.0826 100.245L29.9793 100.093L29.0886 100.862L29.0481 99.7081L30.5866 98.7669L29.5846 96.8034L31.1434 96.2569L30.3842 95.255L31.6596 94.4858L31.4774 93.4839L32.6212 93.079L33.3398 91.7633L34.767 92.2896L34.7063 91.1965L35.5768 91.1257L36.3157 90.812L36.7611 91.3382ZM107.565 68.3235L107.463 71.5824L106.451 72.4123L106.198 69.4874L106.724 67.9592L107.19 68.3336L107.615 67.8479L107.565 68.3235ZM102.372 64.7408L104.093 66.9471L103.526 69.285L103.89 70.1149L105.449 69.1636L105.641 70.1453L105.145 72.0581L104.214 71.7039L104.133 70.9752L103.506 72.3111L102.139 73.0297L101.866 72.1998L103.576 69.8923L102.878 68.9004L101.835 69.4368L101.663 67.7365L100.439 66.9673L100.317 65.6415L101.117 65.51L101.259 66.2386L102.109 66.4411L102.372 64.7408ZM126.877 62.5952L126.847 64.4776L126.169 64.5586L125.723 63.2935L126.877 62.5952ZM31.3154 59.9941L30.1514 64.4169L31.7203 64.6193L31.4875 65.9856L33.9471 66.097L35.3743 68.4855L35.3845 69.6898L34.3115 70.6311L34.0382 69.3862L33.4815 70.0441L32.9147 69.5886L33.0159 71.7039L31.609 74.1734L31.6798 75.3271L30.6271 75.317L30.5462 76.6732L29.4833 76.9161L29.5441 77.5942L28.0157 78.4443L27.5602 79.6689L24.645 80.5191L24.392 79.2034L25.4649 79.1932L24.8475 76.8756L25.8192 76.6124V74.6794L26.224 74.062L27.7322 73.0499L26.6289 71.7241L26.8415 70.0238L26.9124 69.285L27.6614 69.1939L26.8111 68.0705L27.4994 67.6657L26.0924 67.4127L25.9811 67.9491L24.7057 68.0199L24.5741 66.7042L27.8031 62.0588L30.0704 60.1561L31.3154 59.9941ZM113.769 57.8586L115.055 58.3748L115.105 60.5912L116.421 62.2308L117.18 61.4313L116.806 58.7796L117.464 58.2837L119.033 58.3849L119.67 60.1054L121.401 59.8524L121.381 61.1378L124.296 60.743L124.084 64.093L120.784 64.4776L121.047 65.4189L120.379 65.429L120.511 65.9047L119.093 65.5909L118.628 67.7467L117.464 66.7042L116.664 67.8175L115.834 67.5341L115.784 68.3944L114.579 68.1717L114.053 68.8802L113.81 67.858L113.051 67.5139L112.939 68.1818L112.413 68.0705L111.603 66.7244L111.077 68.617L110.125 69.0421L110.662 66.9977L109.559 65.6618L110.156 64.6801L111.644 66.188L112.241 63.7388L112.038 61.9069L110.409 61.1276L110.287 59.7006L110.632 58.7695L113.769 57.8586ZM71.8844 56.1786L72.3703 56.8061L75.9535 57.5854L77.32 59.4678L77.8058 62.7267L77.0973 64.3764L76.49 65.5201L76.8341 65.9957L77.988 65.7427L79.7695 69.1231L78.0892 69.872L77.5325 71.1169L76.6418 71.046L74.6477 71.38L71.1152 73.4649L71.6213 71.7343L70.8722 70.7019L71.5707 70.7222L71.7427 70.0238L71.348 69.4975L69.0503 69.5684L69.607 67.4734L71.105 66.7751L69.7487 65.9654L71.6618 65.51L72.2084 63.9918H73.1699L73.0687 62.5749L72.674 62.1296L72.4918 61.0062L73.2813 60.9758L72.6132 60.1864L73.2003 58.6278L72.4614 57.8283L71.7225 58.061L70.9735 56.5935L71.8844 56.1786ZM58.4829 42.6673L58.9991 42.8394L58.2501 46.1489L59.07 47.3836L53.6648 45.6125L55.4564 44.2158L55.5981 42.89L58.4829 42.6673ZM81.6825 37.87L82.2494 39.1048L82.7352 37.6879L83.7373 38.3356L84.9115 37.6677L85.3973 38.5886L86.6828 37.7385L87.28 38.1433L87.1586 39.1554L87.8772 39.4489L86.8043 40.4509L87.6343 41.0581L89.0109 40.8861L89.9016 41.1593L90.6911 40.8861L92.918 40.4711L93.9909 41.8981L94.6286 41.635L95.3878 42.5965L95.9951 42.6673L95.8129 41.635L97.8069 42.3738L98.9507 41.8374L103.242 44.4789L103.91 45.2582L105.317 45.2178L105.439 47.252L103.202 51.5433L103.485 53.5472L102.362 54.4075L101.684 54.1139L99.2847 55.1058L98.2928 54.3265L97.0174 54.3973L94.993 52.0695L92.6143 52.3023L91.9868 51.6445L92.5131 50.0049L91.5616 49.7114L91.5515 48.8815L90.0231 48.76L89.9826 48.0617L89.0008 47.9807L87.9278 47.333L86.116 44.8129L84.9823 44.8028L84.9216 44.0033L83.6057 43.5782L79.7594 39.8133L79.8302 38.3255L80.7412 37.5057L81.6825 37.87ZM23.1773 36.7871L23.1267 37.8599L24.1996 36.6961L26.9528 37.8397L28.6837 40.2181L28.6229 41.1998L27.7727 41.1694L28.0561 42.0499L27.216 44.4486L23.8251 49.428L20.7582 51.7558L19.3309 54.1645L16.6284 55.3284L16.2336 51.8671L16.9725 48.9827L15.5555 48.4665L15.8692 46.7764L16.598 46.4829L15.7376 45.4809L16.9422 43.7705L16.6689 43.2543L16.9624 42.6876L17.7418 41.9487L18.2479 39.6614L19.1791 39.2364L20.1407 39.7728L21.2339 38.791L19.9281 38.7809L21.0314 37.1312L22.3473 37.1818L23.2684 36.3924L23.1773 36.7871ZM63.301 1L62.6329 2.73065L63.4123 3.38852L63.3415 4.20831L66.8842 5.20012L66.3983 7.89226L67.4915 9.461L67.6231 11.0297L70.4977 11.1208L71.4897 12.0519L77.0062 11.6471L78.2714 12.4062L78.322 13.1753L78.2917 15.5335L77.5528 16.0395L77.6641 16.8795L76.743 17.2236L76.2976 18.7721L77.1681 18.7822L77.1276 19.4806L77.4718 19.7235L78.6763 19.7336L78.5751 21.0189L79.5569 20.5736L79.6986 21.7274L80.478 21.9905L79.0306 24.0653L79.81 24.5511L78.5144 25.3102L77.9374 27.0509L78.98 27.2533L80.1744 26.5449L82.3202 26.9902L79.8808 32.7388L78.8585 33.3967L78.6763 34.3581L77.9374 34.4391L78.7472 36.9997L77.8261 36.9895L75.9737 35.4714L74.1113 32.9817L74.4048 32.1316L72.1274 27.5064L70.5483 27.4861L69.7386 26.2615L68.6555 26.3728L68.2405 24.4094L66.4894 23.9843L66.4793 22.2132L65.5683 21.3023L64.3739 21.1201L63.6654 21.7173L63.9893 19.8854L63.0378 19.0049L62.0965 17.5981L61.0741 15.0679L60.0822 15.4221L59.2927 14.3291L58.078 14.653L57.5213 14.9869L55.8815 15.3108L56.1143 14.0862L55.3957 13.7016L56.0435 12.6187L54.6871 11.7786L54.1709 9.40028L54.4746 8.29708L53.6142 6.34378L54.0495 5.03822L57.8149 3.09501L57.8047 2.40681L59.3838 1.51617L63.301 1Z" stroke="#2C216F"/>
</svg>
