<svg width="193" height="153" viewBox="0 0 193 153" fill="none" xmlns="http://www.w3.org/2000/svg">
<path d="M155.848 142.006L157.168 142.799L157.721 144.407L157.096 146.989L155.716 147.385L154.179 146.568L153.819 147.685L152.438 147.301L151.801 146.376L153.278 141.826L154.275 141.97L154.755 141.082L155.848 142.006Z" stroke="#907C72"/>
<path d="M158.105 139.257L158.958 139.629L158.693 142.811L156.976 141.79L157.12 139.545L158.105 139.257Z" stroke="#907C72"/>
<path d="M52.1074 1.90161L53.8725 2.18977L55.9136 5.20313L59.936 6.36767L60.2001 7.73633L59.3957 9.51312L60.8845 12.4785L65.7594 13.511L66.2036 15.4319L65.2311 18.037L65.4952 20.6182L66.7559 22.9353L67.7525 23.2715L66.5999 24.0278L68.8932 28.3738L71.4267 30.6789L75.0648 31.9755L75.4009 33.7523L76.3015 33.5842L77.5502 35.0489L79.9396 35.6372L81.3084 37.7981L82.0168 36.7417L83.0134 37.0178L82.7852 39.7791L84.5743 38.8547L86.9757 41.1237L88.4886 41.4599L89.1369 40.3794L91.4063 41.676L93.1593 41.3638L95.3446 39.1908L99.1268 44.8694L100.496 45.4457L100.183 46.4061L100.976 47.7388L102.837 48.7232L106.115 48.9633L112.058 52.4449L115.828 51.4605L122.3 53.9456L125.134 52.0607L125.182 51.0042L128.148 52.2769L128.1 51.3044L129.961 51.2084L130.333 51.7966L132.05 50.3079L132.218 50.9802L135.604 51.3644L143.853 55.0861L143.829 56.0106L142.208 56.0466L140.359 58.3396L140.419 62.7097L144.333 66.8516L152.114 72.6503L147.347 78.1368L147.779 82.4948L146.866 83.1551L147.239 84.5717L146.686 85.0399L147.083 86.0004L148.535 86.1925L149.472 88.7617L147.743 88.4495L146.758 90.6225L149.964 92.4834L149.88 94.0321L150.697 94.9685L150.337 97.0695L149.244 98.258L150.913 99.1465L150.553 99.7107L151.561 101.271L152.858 101.247L152.39 102.94L154.647 105.113L154.287 109.555L154.959 110.468L153.698 111.38L153.867 113.109L156.46 117.263L159.042 117.827L159.33 118.908L161.131 119.676L162.403 118.872L163.196 120.3L162.44 121.477L164.745 123.17L169.752 121.645L170.448 123.242L172.898 124.586L175.023 124.382L176.752 125.186L181.639 124.322L186.201 125.174L190.116 122.653L190.764 123.062L190.692 125.643L188.963 129.953L189.731 131.838L189.311 133.638L190.512 135.991L189.972 141.13L188.182 143.063L188.711 144.071L187.006 145.968L187.102 147.205L185.901 148.177L185.121 148.669L184.172 148.753L183.716 150.182L182.299 151.094L180.246 151.25L177.893 149.858L178.397 148.561L176.452 144.419L172.069 142.655L169.223 143.699L169.596 144.792L168.707 144.984L168.575 146.4L169.38 147.505L170.376 147.433L168.611 148.441L168.647 149.762L167.314 149.45L167.206 148.537L163.484 146.124L162.812 142.823L161.623 142.222L161.131 142.871L159.858 140.83V139.893L161.695 138.405L160.194 134.971L158.009 135.151L157.637 133.11L154.935 131.585L148.668 132.678L150.06 127.696L149.316 127.095L146.927 127.6L146.386 126.783L147.755 124.154L149.304 123.806L149.82 121.885L149.4 119.856L147.827 118.643L147.131 115.138L144.357 113.313L142.208 113.625L143.24 115.534L141.499 114.706L140.791 116.23L139.638 114.49L142.028 111.776L143.048 108.799L144.213 108.067L143.637 106.506L142.016 106.17L142.232 107.034L141.211 107.19L140.467 109.471L139.206 110.276L137.945 108.967L138.762 108.547L138.137 107.947L138.654 107.01L137.405 106.41L138.558 105.173L139.506 105.269L140.131 103.192L138.918 103.552L139.026 101.367L136.577 100.335L135.376 101.007L134.908 99.9388L132.638 100.611L129.6 99.7347L130.057 98.6182L130.765 99.1224L133.515 98.078L132.434 94.2722L133.467 92.6274L132.482 90.6705L129.18 91.3188L126.815 89.3499L123.285 91.8831L115.696 92.1832L111.77 90.0102L108.228 89.2659L104.578 91.5709L94.5521 88.1254L92.0427 88.4255L90.7699 90.0943L89.281 90.0102L87.3839 86.0844L86.3994 85.5682L86.3874 83.3592L85.1987 82.2787L84.6343 83.059L83.7818 82.5548L83.4216 83.5392L82.7372 83.2631L82.9173 82.2427L82.8933 81.3903L84.4422 79.3373L85.4868 80.2737L86.6875 79.5174L87.0838 76.7922L87.8882 75.3275L87.7681 74.391L87.0838 74.4751L86.7236 70.4052L84.2261 67.8721L84.034 66.5995L80.9242 66.3353L79.5314 64.9787L76.1694 65.639L74.5605 64.3784L72.3392 57.7394L67.7886 55.5663L65.6753 50.9802L61.1967 49.1074L57.0663 45.1456L54.1366 40.1392L51.7352 39.0107L49.8622 39.4189L49.3939 38.0383L44.6391 34.8689L40.7248 30.2107L34.229 27.7495L28.2136 29.5984L24.0951 27.5334L22.8944 23.6196L18.4759 23.9678L15.4261 22.6832L13.9853 23.7757L13.8652 24.8082L17.3832 25.1923L18.608 26.6811L18.3078 28.1457L14.8138 30.1146L7.00925 29.8145L0.969727 31.6994L1.53404 28.3498L3.32308 25.4445L8.85831 24.4961L9.31455 23.5356L12.6045 22.5992L12.8566 21.7828L18.608 19.7418L20.2289 19.8379L20.8172 19.2616L23.1826 17.6169V16.0682L24.5995 15.1077L28.1415 15.5279L29.3062 9.90933L33.3886 6.59579L36.3783 6.21159L38.8877 7.06403L41.5653 6.89593L44.0388 4.59089L46.9084 4.23069L49.526 2.21377L52.1074 1.90161Z" stroke="#907C72"/>
<path d="M127.631 89.834L127.429 89.6658L123.899 92.199L123.576 92.2118L147.052 68.7358L148.013 69.4522L127.631 89.834Z" fill="#907C72"/>
<path d="M133.051 94.5984L133.422 95.905L148.224 81.1034L148.073 79.5772L133.051 94.5984Z" fill="#907C72"/>
<path d="M139.546 101.644L138.366 101.146L148.132 91.3794L149.194 91.9956L139.546 101.644Z" fill="#907C72"/>
<path d="M147.751 115.485L148.029 116.885L154.961 109.953L154.901 109.871L155.037 108.2L147.751 115.485Z" fill="#907C72"/>
<path d="M149.214 127.562L147.541 127.915L147.398 127.7L157.44 117.659L158.817 117.96L149.214 127.562Z" fill="#907C72"/>
<path d="M155.549 131.901L156.309 132.33L165.24 123.398L164.273 122.688L154.956 132.005L155.549 131.901Z" fill="#907C72"/>
<path d="M157.65 141.173L159.089 139.734L159.572 139.945L159.483 141.018L158.095 142.406L157.591 142.106L157.65 141.173Z" fill="#907C72"/>
<path d="M156.486 142.337L152.552 146.271L152.416 146.692L152.984 147.517L157.535 142.966L156.486 142.337Z" fill="#907C72"/>
<path d="M162.148 138.352L161.638 137.185L173.965 124.859L175.637 124.698L175.75 124.751L162.148 138.352Z" fill="#907C72"/>
<path d="M164.188 146.498L165.205 147.158L186.976 125.387L186.816 125.49L185.45 125.235L164.188 146.498Z" fill="#907C72"/>
<path d="M177.841 146.385L177.304 145.243L190.331 132.217L189.925 133.954L190.042 134.183L177.841 146.385Z" fill="#907C72"/>
<path d="M185.395 149.015L187.656 146.753L187.716 147.52L186.515 148.493L185.735 148.985L185.395 149.015Z" fill="#907C72"/>
<path d="M184.526 149.884L184.33 150.498L183.156 151.254L184.526 149.884Z" fill="#907C72"/>
<path d="M151.896 101.155L151.238 100.136L144.332 107.042L144.785 108.267L151.896 101.155Z" fill="#907C72"/>
<path d="M144.402 108.65L143.519 109.532L143.662 109.115L144.402 108.65Z" fill="#907C72"/>
<path d="M128.762 52.5928L127.954 52.2463L89.8885 90.3122L89.8952 90.3261L91.3841 90.4102L92.6568 88.7414L93.2021 88.6762L130.342 51.5362L128.714 51.6203L128.762 52.5928Z" fill="#907C72"/>
<path d="M116.529 51.8095L117.741 52.2749L86.6555 83.3605L85.8128 82.5946L85.2485 83.3749L85.0694 83.269L116.529 51.8095Z" fill="#907C72"/>
<path d="M108.082 50.0718L107.024 49.4521L86.552 69.9242L87.3377 70.7211L87.3454 70.8083L108.082 50.0718Z" fill="#907C72"/>
<path d="M99.6161 44.9979L99.741 45.1853L100.702 45.5898L80.5769 65.7147L80.1455 65.2946L79.1174 65.4965L99.6161 44.9979Z" fill="#907C72"/>
<path d="M92.0205 41.9918L91.2182 41.5335L73.3904 59.3613L73.8109 60.6183L92.5278 41.9015L92.0205 41.9918Z" fill="#907C72"/>
<path d="M83.5713 37.3181L83.6276 37.3337L83.4829 39.0841L67.8608 54.7062L67.3316 53.5578L83.5713 37.3181Z" fill="#907C72"/>
<path d="M76.0152 34.0682L75.8471 33.1801L60.6845 48.3428L61.5407 49.1641L76.7792 33.9256L76.0152 34.0682Z" fill="#907C72"/>
<path d="M69.1509 28.0141L69.5074 28.6897L69.8453 28.9972L56.0933 42.7492L55.474 41.691L69.1509 28.0141Z" fill="#907C72"/>
<path d="M66.1035 20.8768L65.9478 19.355L48.1723 37.1305L49.1789 37.8014L66.1035 20.8768Z" fill="#907C72"/>
<path d="M61.2137 12.2268L61.4987 12.7944L62.1795 12.9386L42.8241 32.2939L42.0581 31.3824L61.2137 12.2268Z" fill="#907C72"/>
<path d="M56.5278 5.51903L56.3386 5.23967L32.9225 28.6557L34.8432 28.0654L35.095 28.1608L57.4653 5.79045L56.5278 5.51903Z" fill="#907C72"/>
<path d="M44.8317 4.88433L46.75 4.64355L24.4358 26.9577L24.042 25.674L44.8317 4.88433Z" fill="#907C72"/>
<path d="M19.2221 20.0577L17.0116 20.8422L7.71973 30.1341L9.33511 30.1962L14.4889 25.0424L14.5995 24.0916L16.0403 22.9991L16.3864 23.1449L19.4595 20.0718L19.2221 20.0577Z" fill="#907C72"/>
<path d="M139.088 52.9751L101.459 90.6039L102.708 91.033L140.244 53.4966L139.088 52.9751Z" fill="#907C72"/>
<path d="M113.166 90.7589L114.246 91.3566L141.783 63.8195L141.033 63.0255L141.031 62.8941L113.166 90.7589Z" fill="#907C72"/>
</svg>
