<svg width="163" height="129" viewBox="0 0 163 129" fill="none" xmlns="http://www.w3.org/2000/svg">
<path d="M132.191 119.601L133.304 120.269L133.77 121.625L133.243 123.801L132.079 124.135L130.784 123.447L130.48 124.388L129.316 124.064L128.78 123.285L130.025 119.449L130.865 119.571L131.27 118.822L132.191 119.601Z" stroke="#907C72"/>
<path d="M134.094 117.283L134.812 117.597L134.59 120.279L133.142 119.419L133.264 117.526L134.094 117.283Z" stroke="#907C72"/>
<path d="M44.7366 1.49121L46.2245 1.73413L47.9453 4.27443L51.3361 5.25615L51.5588 6.40994L50.8807 7.90779L52.1358 10.4076L56.2453 11.278L56.6198 12.8974L55.7999 15.0936L56.0226 17.2695L57.0854 19.2229L57.9256 19.5062L56.9539 20.1439L58.8872 23.8076L61.0229 25.7508L64.0899 26.8438L64.3733 28.3417L65.1324 28.2L66.1851 29.4347L68.1994 29.9307L69.3533 31.7524L69.9505 30.8618L70.7906 31.0945L70.5983 33.4224L72.1065 32.643L74.1309 34.5559L75.4063 34.8393L75.9529 33.9284L77.866 35.0214L79.3438 34.7583L81.186 32.9264L84.3744 37.7136L85.5283 38.1994L85.2651 39.009L85.9332 40.1324L87.5021 40.9623L90.2654 41.1647L95.2758 44.0998L98.4541 43.2699L103.91 45.3649L106.299 43.7759L106.339 42.8852L108.839 43.9581L108.799 43.1383L110.368 43.0573L110.681 43.5532L112.129 42.2983L112.271 42.865L115.125 43.1889L122.079 46.3263L122.059 47.1056L120.692 47.136L119.133 49.0691L119.184 52.753L122.484 56.2447L129.043 61.1331L125.024 65.7583L125.389 69.4321L124.619 69.9888L124.933 71.183L124.468 71.5777L124.802 72.3874L126.026 72.5493L126.816 74.7152L125.358 74.452L124.528 76.2839L127.231 77.8526L127.16 79.1582L127.848 79.9476L127.545 81.7188L126.624 82.7207L128.031 83.4697L127.727 83.9453L128.577 85.261L129.67 85.2408L129.276 86.6678L131.179 88.4997L130.875 92.2444L131.442 93.0136L130.379 93.7827L130.521 95.2401L132.707 98.7419L134.883 99.2176L135.126 100.129L136.644 100.776L137.717 100.098L138.385 101.302L137.748 102.294L139.691 103.721L143.912 102.436L144.499 103.782L146.564 104.916L148.356 104.744L149.813 105.422L153.933 104.693L157.779 105.412L161.079 103.286L161.626 103.63L161.565 105.806L160.107 109.44L160.755 111.029L160.401 112.547L161.413 114.53L160.958 118.862L159.449 120.492L159.895 121.342L158.457 122.941L158.538 123.983L157.526 124.803L156.868 125.218L156.069 125.289L155.684 126.493L154.49 127.262L152.759 127.394L150.775 126.22L151.2 125.127L149.56 121.635L145.866 120.147L143.467 121.028L143.78 121.949L143.031 122.111L142.92 123.305L143.598 124.236L144.438 124.176L142.95 125.026L142.981 126.139L141.857 125.876L141.766 125.107L138.628 123.072L138.062 120.289L137.059 119.783L136.644 120.33L135.572 118.609V117.82L137.12 116.565L135.855 113.67L134.013 113.822L133.699 112.101L131.421 110.816L126.138 111.737L127.312 107.537L126.684 107.031L124.67 107.456L124.215 106.768L125.369 104.551L126.674 104.258L127.11 102.638L126.755 100.928L125.429 99.9059L124.842 96.9506L122.504 95.4122L120.692 95.6753L121.563 97.2845L120.095 96.5862L119.498 97.8716L118.526 96.404L120.54 94.1168L121.401 91.6068L122.383 90.9894L121.897 89.6737L120.53 89.3903L120.712 90.119L119.852 90.2506L119.224 92.1736L118.162 92.8517L117.099 91.7485L117.787 91.3943L117.261 90.8882L117.696 90.0988L116.643 89.5927L117.615 88.5503L118.415 88.6313L118.941 86.8804L117.919 87.184L118.01 85.342L115.945 84.4716L114.933 85.0384L114.538 84.1376L112.625 84.7044L110.064 83.9656L110.449 83.0243L111.046 83.4494L113.364 82.5689L112.453 79.3606L113.323 77.9741L112.493 76.3244L109.71 76.8709L107.716 75.2111L104.74 77.3466L98.3428 77.5996L95.0329 75.7677L92.0469 75.1403L88.9698 77.0834L80.5179 74.1788L78.4024 74.4318L77.3295 75.8386L76.0743 75.7677L74.4751 72.4582L73.6451 72.023L73.6349 70.1608L72.6329 69.2499L72.1571 69.9078L71.4385 69.4827L71.1348 70.3126L70.5578 70.0799L70.7097 69.2196L70.6894 68.501L71.9952 66.7703L72.8758 67.5597L73.888 66.9221L74.222 64.6247L74.9002 63.39L74.7989 62.6006L74.222 62.6714L73.9184 59.2405L71.813 57.105L71.651 56.0322L69.0294 55.8095L67.8553 54.6659L65.0211 55.2225L63.6647 54.1598L61.7922 48.563L57.9559 46.7312L56.1745 42.865L52.399 41.2862L48.917 37.9463L46.4472 33.7259L44.4228 32.7746L42.8438 33.1187L42.449 31.9548L38.4407 29.283L35.1409 25.3561L29.6649 23.2813L24.5938 24.8399L21.1219 23.0991L20.1097 19.7997L16.3848 20.0933L13.8138 19.0103L12.5992 19.9313L12.498 20.8017L15.4637 21.1255L16.4962 22.3805L16.2431 23.6153L13.2976 25.2751L6.71834 25.0221L1.62695 26.611L2.10268 23.7873L3.61086 21.3381L8.27711 20.5386L8.66173 19.7289L11.4352 18.9395L11.6478 18.2512L16.4962 16.5307L17.8626 16.6117L18.3586 16.1259L20.3527 14.7393V13.4338L21.5471 12.6241L24.5331 12.9783L25.5149 8.24181L28.9564 5.44846L31.4768 5.12457L33.5922 5.84319L35.8495 5.70148L37.9346 3.7583L40.3537 3.45465L42.5604 1.75436L44.7366 1.49121Z" stroke="#907C72"/>
<path d="M108.404 75.619L108.233 75.4773L105.257 77.6128L104.985 77.6236L124.775 57.8331L125.586 58.437L108.404 75.619Z" fill="#907C72"/>
<path d="M112.973 79.6355L113.286 80.737L125.764 68.2591L125.636 66.9725L112.973 79.6355Z" fill="#907C72"/>
<path d="M118.448 85.5747L117.453 85.1554L125.687 76.9219L126.581 77.4413L118.448 85.5747Z" fill="#907C72"/>
<path d="M125.365 97.2434L125.599 98.4232L131.443 92.5794L131.392 92.5106L131.507 91.1017L125.365 97.2434Z" fill="#907C72"/>
<path d="M126.598 107.424L125.188 107.722L125.068 107.541L133.533 99.0755L134.693 99.3292L126.598 107.424Z" fill="#907C72"/>
<path d="M131.939 111.082L132.579 111.444L140.109 103.914L139.293 103.315L131.439 111.169L131.939 111.082Z" fill="#907C72"/>
<path d="M133.71 118.898L134.923 117.685L135.33 117.863L135.255 118.768L134.085 119.938L133.66 119.685L133.71 118.898Z" fill="#907C72"/>
<path d="M132.729 119.879L129.412 123.196L129.297 123.551L129.776 124.247L133.613 120.41L132.729 119.879Z" fill="#907C72"/>
<path d="M137.502 116.521L137.072 115.536L147.463 105.145L148.873 105.01L148.969 105.054L137.502 116.521Z" fill="#907C72"/>
<path d="M139.221 123.387L140.079 123.944L158.432 105.591L158.297 105.678L157.146 105.463L139.221 123.387Z" fill="#907C72"/>
<path d="M150.731 123.292L150.279 122.33L161.26 111.348L160.918 112.813L161.017 113.006L150.731 123.292Z" fill="#907C72"/>
<path d="M157.099 125.51L159.006 123.603L159.056 124.249L158.044 125.069L157.386 125.484L157.099 125.51Z" fill="#907C72"/>
<path d="M156.367 126.242L156.202 126.759L155.211 127.397L156.367 126.242Z" fill="#907C72"/>
<path d="M128.859 85.1632L128.304 84.3041L122.483 90.1256L122.864 91.1584L128.859 85.1632Z" fill="#907C72"/>
<path d="M122.542 91.481L121.798 92.2251L121.918 91.873L122.542 91.481Z" fill="#907C72"/>
<path d="M109.357 44.2243L108.676 43.9322L76.5862 76.0222L76.5919 76.0339L77.847 76.1048L78.92 74.698L79.3796 74.643L110.689 43.3336L109.316 43.4045L109.357 44.2243Z" fill="#907C72"/>
<path d="M99.0444 43.564L100.066 43.9564L73.8608 70.1619L73.1504 69.5161L72.6747 70.174L72.5237 70.0847L99.0444 43.564Z" fill="#907C72"/>
<path d="M91.9236 42.0991L91.0317 41.5767L73.7736 58.8349L74.4359 59.5067L74.4424 59.5802L91.9236 42.0991Z" fill="#907C72"/>
<path d="M84.7867 37.8217L84.892 37.9798L85.7019 38.3207L68.7364 55.2862L68.3728 54.9321L67.5061 55.1023L84.7867 37.8217Z" fill="#907C72"/>
<path d="M78.3835 35.2876L77.7072 34.9012L62.6781 49.9303L63.0327 50.99L78.8112 35.2115L78.3835 35.2876Z" fill="#907C72"/>
<path d="M71.2608 31.3476L71.3082 31.3607L71.1863 32.8364L58.0167 46.006L57.5706 45.0379L71.2608 31.3476Z" fill="#907C72"/>
<path d="M64.8909 28.6079L64.7492 27.8592L51.9669 40.6415L52.6887 41.3339L65.535 28.4877L64.8909 28.6079Z" fill="#907C72"/>
<path d="M59.1042 23.5042L59.4047 24.0738L59.6896 24.333L48.0965 35.9261L47.5745 35.034L59.1042 23.5042Z" fill="#907C72"/>
<path d="M56.5352 17.4874L56.4039 16.2045L41.419 31.1894L42.2676 31.7551L56.5352 17.4874Z" fill="#907C72"/>
<path d="M52.4131 10.1953L52.6534 10.6738L53.2272 10.7954L36.9105 27.1122L36.2647 26.3437L52.4131 10.1953Z" fill="#907C72"/>
<path d="M48.4628 4.54065L48.3033 4.30515L28.5633 24.0451L30.1825 23.5475L30.3947 23.6279L49.2532 4.76945L48.4628 4.54065Z" fill="#907C72"/>
<path d="M38.6028 4.00558L40.22 3.80261L21.4089 22.6137L21.0769 21.5315L38.6028 4.00558Z" fill="#907C72"/>
<path d="M17.0137 16.7969L15.1502 17.4582L7.31708 25.2914L8.67886 25.3438L13.0236 20.9991L13.1168 20.1975L14.3314 19.2765L14.6232 19.3994L17.2138 16.8088L17.0137 16.7969Z" fill="#907C72"/>
<path d="M118.062 44.5466L86.3403 76.2681L87.3928 76.6298L119.036 44.9863L118.062 44.5466Z" fill="#907C72"/>
<path d="M96.2097 76.3988L97.12 76.9026L120.334 53.6886L119.702 53.0192L119.7 52.9084L96.2097 76.3988Z" fill="#907C72"/>
</svg>
