<svg width="120" height="79" viewBox="0 0 120 79" fill="none" xmlns="http://www.w3.org/2000/svg">
<path d="M66.9454 36.9236L66.5406 39.7372L67.5932 40.1218L67.0871 40.557L67.6337 40.891L67.2389 41.559L66.3988 41.7715L66.328 41.306L65.5182 39.7878L65.7409 38.5025L65.2145 37.7536L66.2774 36.5492L66.9454 36.9236Z" stroke="#22AAA8"/>
<path d="M7.37738 24.2625L9.10822 24.5054L11.8817 26.6915L12.0841 28.7764L11.4667 30.0617L10.7581 30.0415L10.92 28.8068L9.71555 30.0213L8.74384 29.7379L7.01294 32.1062L7.55957 32.6527L7.20526 33.604L6.12225 33.351L5.72748 31.9645L4.11807 32.5818L2.12402 31.2054L0.879028 32.0657L0.575378 29.9606L1.62805 28.7562L2.5694 28.9889L5.56549 27.5113L5.53516 25.477L7.37738 24.2625Z" stroke="#22AAA8"/>
<path d="M20.2829 23.9083L21.0826 24.3131L21.3154 25.6288L22.9754 26.1146L23.1171 27.1773L24.4127 28.5538L31.1135 31.6102L31.5284 32.683L31.0123 33.4016L31.822 34.6566L32.6014 34.4946L32.9557 33.4117L36.4377 33.4927L37.3891 34.3226L35.0307 38.2697L33.7958 38.9681L33.1581 38.4924L30.8705 40.5165L29.5952 39.9295L29.9393 38.7859L28.8057 38.0876L25.2427 38.0977L24.9289 35.9723L24.5645 35.4359L24.8176 34.2619L23.8054 32.43L22.2871 31.5697L21.6292 29.4849L19.0177 25.6288L18.8557 24.7382L20.2829 23.9083Z" stroke="#22AAA8"/>
<path d="M54.0297 21.7627L54.5156 21.6109L54.4245 24.1208L55.4671 23.716L55.0014 25.8313L54.9812 26.9951L54.7585 29.2926L53.3111 29.414L53.3617 28.5538L52.0863 29.4241L51.5093 28.9788L51.0235 28.4525L50.6287 27.3899L54.2119 25.9223L52.7746 22.957L53.3515 22.6027L53.5945 20.5381L54.0297 21.7627Z" stroke="#22AAA8"/>
<path d="M51.9446 14.921L52.3292 15.7408L52.3393 16.4392L54.6877 17.4512L49.9506 24.4953L49.4849 27.0559L48.6853 28.2704L47.0759 28.7359L47.7338 29.6265L46.3572 30.1629L45.76 29.7278L45.1932 30.5172L45.5475 31.0334L43.9482 31.8126L43.8267 32.7235L42.7234 33.2903L42.0351 32.1568L40.7294 32.3592L40.8306 30.669L41.8631 30.0415L42.6121 30.3148L43.3712 28.6752L44.2114 28.9586L45.3248 27.987L44.5353 27.0559L44.9098 25.5479L44.1911 24.9406L45.4159 24.1613L45.7398 22.7849L46.5293 22.9266L48.1387 21.6514L48.9181 18.6657L49.8088 18.1496L50.5072 16.0951L52.0053 14.3644L51.9446 14.921Z" stroke="#22AAA8"/>
<path d="M62.8864 5.50871L63.1395 6.90535L63.8076 7.5531L64.506 7.01669L65.1943 7.82635L64.6578 12.5831L62.3803 14.2227L60.5787 13.0386L62.1577 11.652L61.267 10.731L60.0624 11.3889L59.86 10.8525L60.2649 9.79992L60.1232 9.21292L60.8823 7.27985L62.8864 5.50871Z" stroke="#22AAA8"/>
<path d="M86.3493 5.47835L85.8837 9.40519L84.9322 9.46594L85.1245 6.44994L85.6205 5.44798L86.3493 5.47835Z" stroke="#22AAA8"/>
<path d="M72.3809 1.01508L73.2008 1.49075L73.1198 2.31053L70.2755 6.27787L70.316 5.24556L68.3625 5.12411L70.3666 3.77803L70.7816 2.20932L70.2452 1.764L71.4497 0.711426L72.3809 1.01508Z" stroke="#22AAA8"/>
<path d="M112.11 76.7184L113.051 76.7893L112.99 77.8823L110.136 77.2953L110.713 75.9391L112.11 76.7184Z" stroke="#22AAA8"/>
<path d="M102.059 67.3668L100.611 71.9819L99.5484 70.8484L101.472 67.4174L102.059 67.3668Z" stroke="#22AAA8"/>
<path d="M88.3939 66.2434L89.9729 67.6603L88.4547 68.7129L87.2096 67.549L88.3939 66.2434Z" stroke="#22AAA8"/>
<path d="M100.793 51.5379L108.921 57.3067L107.96 59.5535L108.577 62.3874L107.788 63.1464L108.324 63.9358L108.881 63.5108L110.257 63.946L111.27 65.7373L112.16 65.626L116.695 69.0975L117.221 70.5751L118.122 70.9394L118.466 72.7308L117.707 73.2065L118.132 74.8663L114.134 75.8683L113.851 74.7044L112.646 76.1112L111.401 75.3015L110.207 73.1255L109.296 72.994L107.929 74.0162L107.484 73.7024L107.666 76.3945L106.229 75.2914L106.472 74.0566L105.52 74.1579L105.611 73.2368L104.751 73.7834L104.306 73.166L104.518 72.1135L105.156 72.498L105.885 71.3949L107.089 71.5669L107.788 70.899L107.423 67.1745L106.593 66.8203L105.196 67.8222L104.63 66.0814L103.8 66.628L102.919 66.2535L101.836 67.2555L102.504 65.2516L99.8116 65.707L99.3864 63.2679L98.4248 64.0978L97.7669 62.5898L96.8964 63.1464L95.3477 62.9845L95.1959 62.438L97.2608 60.8389L97.3822 59.26L98.5969 58.501L98.4653 56.8412L97.3316 56.4262L96.9369 55.1611L97.9491 53.4305L97.5543 52.975L98.688 52.4892L98.9613 51.5379L99.8925 51.5581L100.206 50.455L100.793 51.5379Z" stroke="#22AAA8"/>
<path d="M8.62054 24.6304L6.07428 27.1767L6.08325 27.7774L4.88028 28.3707L1.33658 31.9144L1.39679 32.3317L2.64178 31.4715L2.96829 31.6968L9.77563 24.8895L9.62598 24.7715L8.62054 24.6304Z" fill="#22AAA8"/>
<path d="M22.8205 31.8447L22.8049 31.8358L22.4715 30.7795L24.6884 28.5626L24.9305 28.8198L25.5587 29.1064L22.8205 31.8447Z" fill="#22AAA8"/>
<path d="M25.7605 38.3637L26.3029 38.3622L31.9541 32.711L31.6313 31.8763L31.455 31.7959L25.6481 37.6028L25.7605 38.3637Z" fill="#22AAA8"/>
<path d="M51.6276 23.0376L42.1853 32.4798L41.2472 32.6252L41.2867 31.9642L42.793 30.4579L43.1298 30.5808L43.5262 29.7247L44.2036 29.0474L44.7291 29.2246L45.8425 28.2531L45.455 27.796L54.5314 18.7195L51.6276 23.0376Z" fill="#22AAA8"/>
<path d="M61.2558 13.4094L65.6027 9.06247L65.7121 8.09241L65.4577 7.79323L62.0154 11.2356L62.6754 11.9181L61.0964 13.3046L61.2558 13.4094Z" fill="#22AAA8"/>
<path d="M72.1982 1.05273L72.8987 1.28114L73.2058 1.45933L70.9791 3.686L71.2994 2.47539L71.0132 2.23779L72.1982 1.05273Z" fill="#22AAA8"/>
<path d="M69.2518 5.41328L70.0823 4.58283L68.8802 5.39018L69.2518 5.41328Z" fill="#22AAA8"/>
<path d="M36.7855 36.4655L35.5485 38.5358L34.3136 39.2341L34.1436 39.1073L36.7855 36.4655Z" fill="#22AAA8"/>
<path d="M19.4177 25.2474L20.0601 24.605L19.3735 25.0043L19.4177 25.2474Z" fill="#22AAA8"/>
<path d="M53.8449 29.406L55.4463 27.8047L55.2945 29.3706L55.0909 29.5742L53.8288 29.6801L53.8449 29.406Z" fill="#22AAA8"/>
<path d="M86.781 6.46992L85.5815 7.66943L85.4852 9.17995L86.5908 8.07435L86.781 6.46992Z" fill="#22AAA8"/>
<path d="M67.4611 37.204L66.1092 38.5559L65.7323 38.0196L66.7951 36.8152L67.4632 37.1897L67.4611 37.204Z" fill="#22AAA8"/>
<path d="M116.13 68.535L115.329 67.9218L109.968 73.2825L110.724 73.3917L110.919 73.7462L116.13 68.535Z" fill="#22AAA8"/>
<path d="M109.456 63.7951L110.53 64.1348L107.439 67.2264L107.111 67.0864L105.714 68.0884L105.579 67.6724L109.456 63.7951Z" fill="#22AAA8"/>
<path d="M108.066 56.5987L107.239 56.0117L98.9256 64.3254L98.9424 64.3639L99.904 63.534L100.086 64.579L108.066 56.5987Z" fill="#22AAA8"/>
<path d="M101.39 51.8605L102.218 52.4475L97.9397 56.7255L97.8492 56.6924L97.5423 55.7087L101.39 51.8605Z" fill="#22AAA8"/>
<path d="M101.186 72.0647L101.068 72.1831L101.129 72.248L101.186 72.0647Z" fill="#22AAA8"/>
<path d="M107.282 75.9687L108.082 76.5828L108.172 76.4928L108.083 75.1682L107.282 75.9687Z" fill="#22AAA8"/>
<path d="M118.542 74.7094L117.941 75.3102L118.65 75.1325L118.542 74.7094Z" fill="#22AAA8"/>
</svg>
