<svg width="235" height="386" viewBox="0 0 235 386" fill="none" xmlns="http://www.w3.org/2000/svg">
<path d="M52.3905 105.911L51.8508 105.037L59.8694 97.0184L59.8248 97.7986L60.8309 97.471L52.3905 105.911Z" fill="#907C72"/>
<path d="M52.8995 115.402L50.8263 116.563L50.473 116.415L68.8944 97.9933L69.9959 98.3061L52.8995 115.402Z" fill="#907C72"/>
<path d="M58.7291 119.573L59.8387 117.049L62.722 114.166L62.5881 114.397L63.0031 115.014L63.9343 114.295L63.9628 114.339L58.7291 119.573Z" fill="#907C72"/>
<path d="M67.5186 120.783L66.3359 120.552L66.8801 120.008L67.5405 120.761L67.5186 120.783Z" fill="#907C72"/>
<path d="M43.7859 153.102L47.703 149.185L48.4799 149.822L43.657 154.645L43.7859 153.102Z" fill="#907C72"/>
<path d="M76.5632 121.739L75.4461 121.442L79.1311 117.757L79.8004 118.502L78.5797 119.722L78.1658 119.983L78.1829 120.119L76.5632 121.739Z" fill="#907C72"/>
<path d="M77.0718 111.23L71.341 116.961L70.3052 116.583L78.6852 108.203L78.5707 109.478L78.8079 109.494L77.4742 110.828L77.0423 111.067L77.0718 111.23Z" fill="#907C72"/>
<path d="M81.3382 106.964L81.246 107.056L80.1244 106.763L81.0211 105.867L81.3382 106.964Z" fill="#907C72"/>
<path d="M77.226 99.6618L81.568 95.3197L82.4959 95.806L77.6638 100.638L77.8015 100.005L77.226 99.6618Z" fill="#907C72"/>
<path d="M76.2629 100.625L75.7942 101.094L76.2629 100.916V100.625Z" fill="#907C72"/>
<path d="M75.4968 101.391L69.7631 107.125L70.291 107.444L70.0176 108.112L70.1306 108.171L77.5251 100.777L75.8175 101.786L75.4968 101.391Z" fill="#907C72"/>
<path d="M66.3324 110.555L65.8011 111.087L67.1228 111.006L66.3324 110.555Z" fill="#907C72"/>
<path d="M83.0894 95.2125L84.0973 93.8414L85.0334 93.2686L83.0894 95.2125Z" fill="#907C72"/>
<path d="M50.084 98.218L49.753 98.549L49.1056 98.5374L49.6319 97.9808L50.084 98.218Z" fill="#907C72"/>
<path d="M124.251 194.051L123.215 193.673L135.862 181.026L136.479 181.326L137.4 180.03L138.594 179.585L138.65 179.652L124.251 194.051Z" fill="#907C72"/>
<path d="M129.962 198.34L128.995 197.893L150.884 176.004L152.208 175.921L153.393 174.545L152.865 174.023L157.459 169.428L158.17 169.211L158.971 169.331L129.962 198.34Z" fill="#907C72"/>
<path d="M136.736 201.566L135.288 201.6L168.187 168.701L168.843 169.459L136.736 201.566Z" fill="#907C72"/>
<path d="M147.197 201.105L146.986 201.316L146.53 200.358L147.696 199.192L147.197 201.105Z" fill="#907C72"/>
<path d="M160.877 196.011L162.442 195.687L163.246 193.642L173.626 183.262L174.47 183.832L149.209 209.093L148.707 208.18L160.877 196.011Z" fill="#907C72"/>
<path d="M96.6805 260.207L97.2896 259.598L98.6528 259.245L99.0766 259.225L95.7397 262.562L95.0636 261.824L96.328 260.56L96.3551 260.571L96.6805 260.207Z" fill="#907C72"/>
<path d="M92.6066 265.695L92.02 266.282L92.4075 265.652L92.6066 265.695Z" fill="#907C72"/>
<path d="M100.424 267.878L99.3715 267.909L99.1573 267.73L101.824 265.064L101.616 266.686L100.424 267.878Z" fill="#907C72"/>
<path d="M163.846 214.456L163.039 213.849L183.638 193.25L184.641 193.661L163.846 214.456Z" fill="#907C72"/>
<path d="M123.316 263.572L124.497 262.391L126.608 261.694L121.6 266.702L121.529 266.553L123.316 263.572Z" fill="#907C72"/>
<path d="M125.097 273.205L124.454 272.696L124.369 272.518L137.109 259.779L137.744 259.569L138.375 259.927L125.097 273.205Z" fill="#907C72"/>
<path d="M131.691 276.611L131.651 276.41L130.888 275.999L143.741 263.146L144.188 264.114L131.691 276.611Z" fill="#907C72"/>
<path d="M134.688 283.614L134.495 283.262L133.792 283.096L151.361 265.527L151.558 266.744L134.688 283.614Z" fill="#907C72"/>
<path d="M135.567 291.321L135.578 291.318L135.578 291.309L150.779 276.108L150.872 276.35L150.133 278.169L134.377 293.925L134.475 293.707L133.968 292.92L135.567 291.321Z" fill="#907C72"/>
<path d="M125.634 301.253L131.81 295.078L132.653 295.609L132.703 295.598L126.556 301.746L126.529 301.216L125.634 301.253Z" fill="#907C72"/>
<path d="M131.236 307.066L130.244 307.188L130.234 306.654L149.95 286.938L149.961 287.513L149.905 288.397L131.236 307.066Z" fill="#907C72"/>
<path d="M136.744 311.558L136.388 310.507L136.381 310.506L140.367 306.521L139.07 308.615L139.092 309.21L136.744 311.558Z" fill="#907C72"/>
<path d="M146.755 301.547L142.287 306.015L140.491 306.397L146.374 300.514L146.398 301.075L146.755 301.547Z" fill="#907C72"/>
<path d="M159.613 268.689L158.113 270.189L157.806 269.801L156.885 270.146L156.761 270.127L158.432 268.456L158.433 268.496L159.613 268.689Z" fill="#907C72"/>
<path d="M185.414 212.888L181.096 217.206L180.165 217.224L179.593 217.295L185.161 211.727L185.414 212.888Z" fill="#907C72"/>
<path d="M191.532 206.77L186.583 211.719L186.38 211.607L185.896 210.992L191.019 205.869L191.532 206.77Z" fill="#907C72"/>
<path d="M187.103 199.785L187.241 200.474L187.355 200.947L184.583 203.719L183.985 202.903L187.103 199.785Z" fill="#907C72"/>
<path d="M180.543 206.345L170.191 216.697L171.139 217.162L181.497 206.805L181.38 206.658L180.543 206.345Z" fill="#907C72"/>
<path d="M180.04 188.262L156.438 211.864L155.046 211.842L179.594 187.294L180.003 187.57L180.04 188.262Z" fill="#907C72"/>
<path d="M174.086 174.216L158.407 189.895L157.105 189.783L173.103 173.785L173.222 173.765L174.086 174.216Z" fill="#907C72"/>
<path d="M144.739 202.148L144.566 203.298L143.858 203.662L143.393 203.495L144.739 202.148Z" fill="#907C72"/>
<path d="M128.942 179.36L128.189 179.382L128.205 180.097L128.942 179.36Z" fill="#907C72"/>
<path d="M126.779 181.523L123.916 184.386L123.786 184.018L125.83 182.378L126.751 181.538L126.779 181.523Z" fill="#907C72"/>
<path d="M136.017 380.871L145.513 371.374L145.862 371.546L146.993 371.309L134.756 383.546L134.707 383.215L136.017 380.871Z" fill="#907C72"/>
<path d="M148.416 379.886L147.552 379.956L143.645 384.075L142.228 384.774L142.129 384.759L154.874 372.014L154.911 372.032L159.077 369.225L148.416 379.886Z" fill="#907C72"/>
<path d="M166.814 370.074L166.177 371.475L165.428 371.526L163.484 373.944L161.758 375.129L166.814 370.074Z" fill="#907C72"/>
<path d="M183.44 373.302L184.859 371.882L185.014 372.781L185.834 372.194L185.908 372.248L183.691 374.465L183.364 373.54L183.44 373.302Z" fill="#907C72"/>
<path d="M179.916 376.826L181.256 375.486L181.649 376.507L179.827 378.329L179.74 378.246L180.489 377.537L179.916 376.826Z" fill="#907C72"/>
<path d="M177.613 379.128L177.932 378.81L177.766 379.147L177.613 379.128Z" fill="#907C72"/>
<path d="M182.589 375.567L182.604 375.551L182.584 375.554L182.589 375.567Z" fill="#907C72"/>
<path d="M191.923 366.233L191.542 365.716L190.672 366.658L190.452 366.289L205.93 350.812L206.007 350.808L207.246 350.91L191.923 366.233Z" fill="#907C72"/>
<path d="M204.51 363.646L203.587 363.155L214.699 352.043L215.378 352.777L204.51 363.646Z" fill="#907C72"/>
<path d="M208.831 369.324L208.264 368.477L221.299 355.443L222.074 356.081L208.831 369.324Z" fill="#907C72"/>
<path d="M230.274 357.882L223.089 365.066L221.834 364.907L231.707 355.035L233.466 354.69L232.048 356.108L230.573 356.516L230.107 357.721L230.274 357.882Z" fill="#907C72"/>
<path d="M224.254 353.902L223.467 353.612L223.073 353.966L223.567 354.589L224.254 353.902Z" fill="#907C72"/>
<path d="M216.953 369.788L216.898 370.412L216.08 370.661L216.953 369.788Z" fill="#907C72"/>
<path d="M192.371 355.784L189.877 358.278L191.138 356.648L192.322 355.788L192.371 355.784Z" fill="#907C72"/>
<path d="M3.01808 13.8699L14.8069 2.08118L14.9641 2.23839L15.4369 2.86529L2.40137 15.9008L3.01808 13.8699Z" fill="#907C72"/>
<path d="M5.75606 22.5461L4.10292 22.7851L21.3704 5.51762L21.946 6.35621L5.75606 22.5461Z" fill="#907C72"/>
<path d="M11.3008 27.0014L10.4934 26.3946L24.3925 12.4955L25.5561 12.7461L11.3008 27.0014Z" fill="#907C72"/>
<path d="M24.7859 23.5163L24.5193 23.2087L22.505 25.4049L21.0959 25.7922L25.6674 21.2206L25.5112 21.8626L26.1414 22.1607L24.7859 23.5163Z" fill="#907C72"/>
<path d="M86.4482 40.4399L86.6501 40.238L87.8295 40.4727L87.0115 41.2907L86.4482 40.4399Z" fill="#907C72"/>
<path d="M92.1034 46.1988L91.35 45.5381L100.082 36.8064L101.234 37.0683L92.1034 46.1988Z" fill="#907C72"/>
<path d="M98.5035 49.7987L97.1636 49.7245L107.349 39.5387L108.106 40.1964L98.5035 49.7987Z" fill="#907C72"/>
<path d="M176.712 374.933L177.684 375.055L178.028 377.292L177.249 378.881L175.902 378.719L176.358 377.373L175.548 377.12L172.42 377.585L173.655 376.148L175.022 376.371L175.993 374.518L176.712 374.933ZM183.018 368.476L184.962 370.065L184.283 371.28L184.496 372.515L185.316 371.928L186.075 372.484L184.719 375.166L183.798 375.682L183.949 376.29L181.378 377.464L182.117 378.476L181.935 379.457L183.079 380.389L182.512 381.158L182.957 382.716L182.654 383.121L182.057 383.192L181.348 382.443L180.974 381.856L180.478 380.864L179.911 379.953L180.133 378.85L179.222 377.98L179.971 377.271L179.384 376.543L180.042 375.48L179.384 374.468L180.336 374.174L181.348 376.806L182.32 376.026L182.067 375.288L183.494 375.105L182.846 373.274L183.21 372.13L181.49 371.705L181.631 369.65L183.018 368.476ZM169.475 364.914L169.09 366.219L167.643 366.847L165.659 371.209L164.91 371.26L162.966 373.678L156.539 378.091L154.343 379.093L147.034 379.69L143.127 383.809L141.71 384.508L139.352 384.153L135.546 385.287L134.493 385.004L134.19 382.949L137.186 377.585L141.437 372.494L143.967 370.602L145.344 371.28L149.929 370.318L150.85 371.148L152.632 370.915L154.393 371.766L163.422 365.683L166.56 365.541L169.232 364.448L169.475 364.914ZM205.489 350.542L213.658 351.21L216.502 354.287L217.514 354.014L220.733 355.137L224.114 357.92L225.207 357.04L222.555 353.7L222.95 353.346L225.642 354.338L225.247 352.779L226.512 352.405L226.168 353.791L227.251 354.51L230.187 354.965L233.335 354.348L231.918 355.734L230.055 356.25L229.59 357.455L231.138 358.953L230.602 360.066L233.041 360.157L233.699 361.534L233.072 362.363L232.505 361.888L231.877 362.758L231.351 362.374L230.754 362.981L225.581 362.647L222.99 364.853L221.31 364.641L219.417 365.359L216.603 367.606L216.38 370.146L214.518 370.713L209.042 370.146L204.801 363.811L201.835 362.232L194.901 363.052L193.798 364.175L193.97 364.701L193.049 364.762L193.09 365.683L192.432 365.278L191.419 365.987L191.025 365.45L190.154 366.391L188.98 364.428L189.567 362.809L187.897 359.904L190.62 356.382L191.804 355.522L194.416 355.329L196.227 353.113L197.665 352.394L199.396 352.313L202.979 350.654L205.489 350.542ZM162.167 269.586L163.22 271.135L162.966 272.056L161.62 271.782L161.347 268.908L162.167 269.586ZM153.452 266.459L155.446 266.55L155.739 267.38L156.681 266.884L157.885 267.44L157.916 268.23L161.013 268.736L160.74 270.102L159.981 269.586L159.677 270.821L158.948 271.003L158.067 270.517L157.288 269.535L156.367 269.88L154.99 269.667L154.403 267.805L152.946 266.185L153.452 266.459ZM92.9121 265.609L93.4789 265.69L92.8007 266.773L93.3068 267.906L90.4828 267.673L91.8897 265.386L92.9121 265.609ZM137.226 259.303L140.313 261.054L142.156 260.568L144.119 264.819L146.002 264.88L147.004 264.951L147.885 264.991L148.735 263.676L149.939 265.133L150.84 265.244L151.144 267.117L150.081 268.665L150.263 271.732L149.464 272.572L147.956 272.521L147.611 273.938L149.292 273.999L149.443 274.829L150.051 275.294L150.354 276.084L148.553 280.517L148.533 282.156L149.423 286.204L149.443 287.247L149.282 289.797L151.012 291.062L150.375 292.166L150.952 293.157L145.749 297.742L145.88 300.809L146.933 302.205L145.395 304.979L139.919 306.142L138.552 308.349L138.633 310.535L137.53 312.134L136.234 311.314L135.87 310.241L133.522 309.867L131.821 307.661L131.953 306.648L129.726 306.922L129.695 305.312L129.098 305.616L128.197 304.806L127.55 304.108L126.183 304.311L126.011 300.95L124.047 301.031L125.151 297.58L126.284 297.428L128.997 294.615L129.635 294.493L130.131 294.544L131.204 294.757L132.135 295.344L133.208 295.111L133.957 293.441L133.39 292.56L133.947 291.315L135.06 291.052L135.131 289.504L135.941 289.828L135.819 287.753L135.748 287.166L135.829 286.225L135.151 285.506L134.898 284.676L133.977 282.996L132.692 282.693L132.449 278.199L131.436 277.652L131.133 276.144L128.187 274.555L126.446 274.414L123.936 272.43L121.011 266.287L123.389 262.319L126.426 261.317L130.728 261.449L137.226 259.303ZM98.135 258.979L99.4104 258.919L100.787 260.761L102.022 261.115L102.285 262.957L101.455 263.635L100.949 267.582L98.8537 267.643L97.3354 266.378L96.728 267.805L96.0803 265.852L96.9305 264.161L93.7319 260.67L94.2988 259.647L95.8373 260.305L96.6875 259.354L98.135 258.979ZM168.574 169.481L169.495 169.36L169.637 169.876L168.119 172.113L168.685 173.074L169.465 172.983L170.042 173.934L172.704 173.499L174.971 174.683L173.483 176.232L174.192 176.627L172.522 177.73L170.811 181.444L179.486 187.304L179.546 188.438L180.518 188.66L181.905 192.486L185.488 193.953L184.617 194.692L184.567 197.05L186.156 197.364L186.723 200.208L186.945 201.129L187.047 202.273L190.357 205.349L191.976 208.193L192.33 210.369L191.5 212.393L190.114 212.464L187.512 211.28L186.865 211.898L185.862 211.341L184.891 210.106L183.707 209.013L182.856 207.697L183.534 206.21L184.759 206.119L184.445 203.973L182.016 200.653L180.052 199.621L176.925 200.906L176.55 201.797L177.289 203.922L178.858 205.643L180.862 206.392L184.547 211.017L185.083 213.476L185.103 214.438L185.741 214.914L183.403 216.887L179.648 216.958L172.542 217.838L169.303 216.249L166.013 216.209L162.177 213.325L157.541 211.624L153.108 211.553L151.721 212.92L151.599 211.979L149.585 210.45L147.368 206.422L145.779 205.117L144.109 204.985L144.089 204.277L145.192 203.963L145.951 202.546L146.923 202.171L148.735 203.265L151.61 201.817L153.472 198.842L155.415 197.89L156.579 198.214L158.989 196.807L159.383 195.947L161.924 195.421L163.209 192.152L162.855 191.14L160.264 189.834L154.747 189.359L151.701 190.522L150.577 192.152L150.486 194.854L149.352 195.522L148.694 197.212L147.591 197.344L146.569 201.261L145.951 199.965L145.202 200.37L144.301 201.352L144.048 203.032L143.34 203.396L137.449 201.271L132.317 201.392L131.345 198.953L124.999 196.018L124.665 194.125L122.144 193.204L121.284 192.101L121.203 191.433L123.015 192.334L122.671 188.822L122.893 187.466L122.397 186.808L123.835 185.361L123.268 183.752L125.313 182.112L126.234 181.272L127.701 180.462L127.671 179.116L129.371 179.066L129.068 180.452L129.736 180.958L130.789 180.452L132.317 181.464L133.117 180.452L134.23 180.219L135.961 181.059L136.882 179.764L138.076 179.319L138.623 179.977L140.577 179.379L142.034 179.167L144.959 177.932L146.883 177.73L150.233 175.746L151.691 175.655L152.875 174.279L151.913 173.327L152.348 171.526L151.64 170.331L153.229 169.35L154.312 169.967L157.652 168.945L165.052 170.058L167.41 168.135L168.574 169.481ZM47.1201 148.865L50.7842 151.871L47.8995 155.737L46.7456 155.99L45.3183 157.427L44.3365 159.492L43.0308 155.677L43.3547 151.8L44.9641 149.705L45.4297 147.732L47.1201 148.865ZM85.1788 94.9619L85.1687 95.5084L85.9076 98.5042L83.0937 100.022L82.4763 101.723L80.9681 102.714L80.3506 105.073L80.8567 106.823L79.2271 106.398L78.2655 106.844L78.053 109.212L79.2473 109.293L76.5245 110.801L76.7674 112.147L77.9821 113.058L76.7067 113.776L76.9496 115.639L79.5409 118.523L77.6481 119.717L77.9315 121.974L73.0223 120.669L71.838 118.979L72.3644 117.258L69.7326 116.297L69.5403 115.214L68.1739 113.817L66.9288 114.09L67.688 112.785L69.0646 112.876L70.097 112.076L69.3986 111.094L70.8967 108.584L69.4998 107.846L69.7732 107.178L68.852 106.621L66.7568 106.854L62.8901 110.022L64.9551 109.799L66.605 110.74L63.9429 110.902L62.0703 114.131L62.4853 114.748L63.4165 114.029L63.9833 114.9L64.6312 115.163L64.5502 117.673L67.0503 120.527L63.7404 119.879L60.6127 120.395L59.56 118.999L58.062 119.646L60.309 114.535H61.2808L61.4528 113.797L60.8759 113.442L59.4487 113.898L58.9527 115.254L57.8393 116.013L57.2421 115.841L57.6166 114.778L56.3918 113.969L53.2641 115.305L52.5151 115.062L50.3085 116.297L49.7518 116.064L49.8834 115.153L51.513 113.857L51.0778 113.017L50.1466 113.655L49.9137 113.159L50.9867 111.428L50.1972 110.872L51.2094 109.941L50.4401 109.516L51.6345 108.382L52.1001 106.014L51.3005 104.718L49.8429 104.243L50.2377 102.897L49.519 101.439L50.0453 99.1316L49.7214 98.2916L48.5878 98.2714L49.1141 97.7147L50.1364 98.2511L52.5758 97.2391L54.8331 97.4718L58.2745 95.4173L59.388 96.1156L59.307 97.5326L60.6127 97.1075L61.0885 97.5427L63.2343 96.7128L63.3254 96.0043L65.0563 96.5913L66.6758 95.5792L68.0827 97.6439L69.7225 98.1095L70.4715 97.5224L70.5626 98.2511L69.4695 99.2227L70.0262 100.073L69.6618 100.69L71.9595 101.682L70.6031 102.603L72.0607 103.443L73.4373 102.421L73.3462 101.561L74.2774 101.136L74.4293 100.275L75.7451 99.9211V100.65L74.8645 100.984L75.2997 101.52L77.1318 100.437L77.2837 99.7389L76.1803 99.0811L79.2777 96.0549L79.2372 94.7696L78.7007 94.5368L79.1562 94.0611L82.0916 95.5995L83.5795 93.5753L86.11 92.0269L85.9784 93.1604L84.8347 94.051L85.1788 94.9619Z" stroke="#907C72"/>
<path d="M99.0055 36.4133L105.15 37.8099L108.955 41.1194L108.662 46.3721L100.129 49.6513L96.2928 49.4387L94.6733 47.3235L91.6367 45.9774L87.1931 42.0809L85.7456 39.8948L87.9826 40.3401L90.3005 37.6581L93.1651 36.4335L96.8394 35.7554L99.0055 36.4133ZM14.4462 1.97221L15.3774 3.20694L17.6953 4.04696L19.7197 3.03488L21.0154 4.13805L20.651 4.95783L21.7138 6.50632L22.9892 7.61961L24.9326 7.54877L25.9954 8.88471L25.7322 9.67413L24.0925 9.35027L23.5256 10.6356L23.7584 12.2043L25.7322 12.6294L25.216 13.3176L25.8233 14.8661L23.9508 16.3437L24.5682 19.7544L25.3577 20.0985L24.9933 21.5964L25.9347 22.0417L25.1857 24.3088L24.0014 22.9425L21.9871 25.1387L19.8513 25.7257L17.6144 26.0597L15.4584 27.1932L15.6709 28.0029L13.9097 28.1952L13.3328 28.934L12.9684 27.2337L11.2578 27.092L9.6281 25.8674L10.0026 24.1874L8.34261 22.5275L6.9559 22.0316L2.75527 22.6389L2.46172 20.9082L1.3382 20.6147L1.24707 17.7303L3.10955 11.5971L5.3971 8.25722L5.65015 5.86871L7.82638 5.68653L8.78799 3.97612L10.1646 3.69273L13.6972 1.22327L14.4462 1.97221Z" stroke="#907C72"/>
</svg>
