<svg width="128" height="129" viewBox="0 0 128 129" fill="none" xmlns="http://www.w3.org/2000/svg">
<path d="M19.2061 9.60456L19.9455 8.86519L21.3699 8.85507L19.2285 10.9965L19.2061 9.60456Z" fill="#F5BC2E"/>
<path d="M19.2018 21.0232L19.1741 20.0135L18.9073 19.9034L30.0171 8.79363L31.4415 8.78351L19.2018 21.0232Z" fill="#F5BC2E"/>
<path d="M23.2466 26.9784L22.8484 26.2985L22.6739 26.1368L42.3253 6.48539L42.7989 6.68443L43.1459 7.07903L23.2466 26.9784Z" fill="#F5BC2E"/>
<path d="M0.823226 69.4017L0.630621 69.3221L0.387695 68.4517L1.66306 67.6622L1.71736 67.0934L13.5482 55.2625L14.1739 55.7905L14.557 55.668L0.823226 69.4017Z" fill="#F5BC2E"/>
<path d="M9.16313 71.0618L7.8881 71.3968L7.65187 71.1589L72.0719 6.73885L72.3552 7.63579L72.5922 7.6327L9.16313 71.0618Z" fill="#F5BC2E"/>
<path d="M13.9851 76.2398L13.4375 75.3732L88.5778 0.23291L89.4715 0.632203L89.6425 0.582407L13.9851 76.2398Z" fill="#F5BC2E"/>
<path d="M17.4621 82.7628L17.1204 81.6903L87.0385 11.7722L87.596 12.6289L17.4621 82.7628Z" fill="#F5BC2E"/>
<path d="M20.5146 89.7103L20.71 88.1008L90.7661 18.0447L91.3947 17.8882L92.1088 18.1161L20.5146 89.7103Z" fill="#F5BC2E"/>
<path d="M19.7199 100.505L19.7133 99.0975L94.495 24.3157L94.5224 24.3351L94.7664 25.4585L19.7199 100.505Z" fill="#F5BC2E"/>
<path d="M26.9706 103.254L25.9902 102.821L100.134 28.6766L101.192 29.0334L26.9706 103.254Z" fill="#F5BC2E"/>
<path d="M25.5035 114.721L25.47 114.694L24.9284 113.882L101.264 37.5472L101.496 38.0589L101.375 38.8499L25.5035 114.721Z" fill="#F5BC2E"/>
<path d="M28.9023 121.323L29.033 121.09L28.5216 120.289L102.585 46.2261L103.169 47.0564L28.9023 121.323Z" fill="#F5BC2E"/>
<path d="M33.7298 126.495L32.6872 126.124L105.981 52.83L107.148 53.0765L33.7298 126.495Z" fill="#F5BC2E"/>
<path d="M45.2202 125.005L44.0945 125.118L43.8535 124.957L112.654 56.1563L113.377 56.8475L45.2202 125.005Z" fill="#F5BC2E"/>
<path d="M51.6364 128.589L50.7057 128.105L119.804 59.0069L120.847 59.3782L51.6364 128.589Z" fill="#F5BC2E"/>
<path d="M66.9432 123.282L65.9557 122.855L121.939 66.8717L122.492 67.7326L66.9432 123.282Z" fill="#F5BC2E"/>
<path d="M75.3967 124.828L74.728 124.083L125.402 73.4087L125.845 74.3796L75.3967 124.828Z" fill="#F5BC2E"/>
<path d="M82.9113 127.314L82.0975 126.713L121.299 87.5116L121.69 88.0658L121.852 88.0556L121.961 88.2635L120.518 89.7069L120.516 89.7053L120.501 89.7236L82.9113 127.314Z" fill="#F5BC2E"/>
<path d="M91.8117 128.413L90.9417 127.869L101.16 117.651L101.809 118.416L91.8117 128.413Z" fill="#F5BC2E"/>
<path d="M102.175 128.05L101.142 128.114L100.892 127.919L103.683 125.128L104.004 126.221L102.175 128.05Z" fill="#F5BC2E"/>
<path d="M127.195 81.6155L124.837 83.9733L126.913 82.8637L127.195 81.6155Z" fill="#F5BC2E"/>
<path d="M95.8925 2.91829L91.9455 6.8652L93.743 5.88489L94.1377 4.93354L96.1217 3.5976L95.8925 2.91829Z" fill="#F5BC2E"/>
<path d="M66.6612 2.14956L67.9691 2.25582L17.9022 52.3228L17.9352 50.8755L24.4229 44.3879L24.6198 44.354L24.6146 44.1962L66.6612 2.14956Z" fill="#F5BC2E"/>
<path d="M52.3709 6.43986L53.4169 6.17839L58.6196 1.6038L58.6211 1.60383L25.8731 34.3518L25.8841 32.9266L52.3709 6.43986Z" fill="#F5BC2E"/>
<path d="M6.46551 53.7594L6.43053 53.7461L6.39841 53.8265L6.46551 53.7594Z" fill="#F5BC2E"/>
</svg>
