<svg width="64" height="64" viewBox="0 0 64 64" xmlns="http://www.w3.org/2000/svg">
<path d="M44.1873 31.128C44.7397 30.854 44.0911 30.1817 44.2197 29.6389C44.2755 28.5053 44.9332 27.6307 45.5569 26.7598C46.3625 25.8122 47.7425 27.0556 48.5314 26.1005C48.8998 24.3404 50.6442 23.3697 52.0623 22.5149C53.246 21.959 54.5689 21.6055 55.3632 20.4818C56.0863 19.8706 57.3848 19.7659 57.5256 18.636C57.9108 18.1214 58.5729 17.7196 59.2235 17.4513C59.9678 17.078 60.5347 16.7879 61.3014 16.6489C61.7731 16.2694 61.5009 15.3655 62 15C61.2967 15.0938 60.7292 15.445 60.1057 15.7722C59.7039 15.8541 59.1192 16.6372 58.3921 16.4146C57.712 16.3845 57.2126 17.1726 56.4911 17.1396C55.8258 17.1931 55.5624 18.0214 55.0547 18.1248C54.736 18.6578 53.9957 18.7578 53.4181 18.8838C52.8918 19.2368 52.4164 19.3495 51.8693 19.3194C51.1986 18.8171 50.9423 19.9407 50.4071 20.307C49.8762 21.0795 48.9017 21.1512 48.2072 21.6987C47.1148 22.2886 46.0068 22.8107 44.809 23.1149C43.6786 23.4952 42.5494 23.8773 41.3631 23.6807C39.7901 23.7256 38.7645 25.2519 37.1975 25.3716C36.2905 25.2867 35.4737 25.8462 34.5399 25.7826C33.2952 26.1543 31.9712 26.0782 30.6746 26.0254C29.9212 26.0717 29.1379 25.8236 28.385 25.6439C27.7787 25.7649 27.0576 25.7748 26.516 25.3618C25.5949 25.6846 24.7336 25.2937 23.8464 25.1251C23.2086 25.6872 22.3334 25.4553 21.6606 25.1116C20.5938 25.2745 19.8842 24.0802 18.8567 23.9391C19.0108 24.5921 18.8293 25.341 19.3086 25.8857C19.5277 27.5211 19.1026 29.2097 18.4515 30.6906C17.6657 31.1987 16.7481 32.1478 15.7748 31.506C15.1542 31.22 14.5041 30.889 13.9066 30.6301C13.178 30.536 12.4744 30.1295 11.757 30.2262C11.0673 30.2934 10.739 30.6981 10.0195 30.8732C9.23481 30.641 9.29818 31.0454 8.79149 31.5758C8.12885 32.3618 7.98934 33.5694 7.00151 34.1097C5.93389 35.1918 4.12305 34.9134 3.22467 33.751C2.88436 33.2029 1.93226 32.6398 2.05039 33.7063C1.75545 34.7622 2.84185 35.4318 3.0682 36.3919C3.18216 37.1228 2.68773 37.6319 3.43955 38.2447C3.1999 38.9304 3.08594 39.3383 3.81351 39.843C3.88235 40.6217 5.1213 40.2038 5.07045 41.0916C5.15103 41.8111 5.58679 42.4605 5.41651 43.1893C6.06167 43.4571 6.52716 43.8483 7.14181 44.2772C7.63781 44.9837 8.21934 44.5642 8.84051 44.8915C10.0273 44.9536 10.7812 46.0393 11.9354 46.2113C12.632 46.424 13.358 46.8942 14.0044 46.4781C14.684 46.4942 15.2914 45.8305 16.0351 46.0399C16.6777 45.8269 17.5638 45.7185 18.1247 46.2394C18.5274 46.4882 18.911 47.0719 19.1436 47.7462C19.8153 48.2265 18.8643 49.1805 19.7653 48.8454C20.3742 48.7408 20.9695 48.6163 21.5654 49C22.365 48.8169 20.8626 48.0472 21.1414 47.423C20.9609 46.3183 22.1091 45.8365 22.8195 45.2523C23.8423 44.6873 25.0796 44.5073 26.2727 44.7286C26.982 44.7037 27.8773 45.1367 28.2259 44.372C28.8643 44.1961 29.5256 44.5377 30.1061 44.0229C30.7852 43.8611 31.4351 43.4348 32.1076 43.1348C32.5423 42.4472 33.5646 42.9215 33.933 42.3483C34.7159 42.3407 34.881 41.1781 35.7541 41.3885C36.7773 41.8428 36.7471 40.7846 37.313 40.2451C37.7897 39.3427 37.1776 38.0642 38.0379 37.2693C38.9465 36.4379 40.3312 36.7426 41.4468 36.8207C42.376 36.6589 42.7838 38.2281 43.6645 37.6177C44.2598 37.1927 44.7081 36.5394 45.5564 36.6937C46.0449 36.208 46.8418 36.6748 47.4533 36.627C47.9746 36.9262 48.5817 37.2072 49.0787 37.3163C48.9272 36.8893 48.8075 36.4238 48.4743 35.8732C47.8961 34.458 46.1739 34.005 45.7048 32.5247C45.0354 32.2514 44.924 31.1371 44.1873 31.128Z"/>
</svg>
