<svg version="1.2" xmlns="http://www.w3.org/2000/svg" viewBox="0 0 173 46" width="52" height="24"><defs><clipPath clipPathUnits="userSpaceOnUse" id="cp1"><path d="m1.93 8.65h167.62v36.92h-167.62z"/></clipPath><clipPath clipPathUnits="userSpaceOnUse" id="cp2"><path d="m35.27 0.62h12.42v12.59h-12.42z"/></clipPath><clipPath clipPathUnits="userSpaceOnUse" id="cp3"><path d="m164.82 23.29h7.68v11.81h-7.68z"/></clipPath></defs><style>.a{fill:#73b22d}.b{fill:#63a030}.c{fill:#66b5e4}.d{fill:#79c9f0}.e{fill:#8dd6f5}</style><g clip-path="url(#cp1)"><path class="a" d="m85.4 8.7c28.7 0 53.8 2.7 67.2 6.7 4.5 1.4 16.9 7.4 7.3 11.8-13.7 5.8 9.6 0.7 9.6 8.9 0 5.2-33.6 9.5-63.7 9.5-9.7 0-18.8-0.4-26.8-1.2-10.5-1.1-59.6-3.2-59.6-9.5 0-3.1 8.8-3.1-3.9-6.3-7.4-1.8-13.5-4-13.5-6.3 0-7.6 40.5-13.6 83.4-13.6z"/></g><path class="b" d="m143.8 25.3c-6 2.1-5.4 2.2-0.2 4.4 5.6 2.3 13.2 4.4-0.8 7.8-13.1 3.2-43.1 3.7-49.7 3.2-9.2-0.8-18.1-2.4-26.2-2.4-1.7 0-3.4-0.1-5.1-0.1-15.9-0.4-29.1-2.9-29.1-6 0.1-2.5 9.6-3.9 1.7-5.4-20.5-3-24.8-8.6-1.1-11.7 22.6-3.4 93.8-7.6 110.4 0.7 8 4 5.5 7.6 0.1 9.5z"/><path class="c" d="m138.7 24.9c-5.6 1.9-6.7 1.8-2 3.8 5.2 2.1 12.6 4 1.6 6.8-12.1 3-39.8 3.3-45.8 2.8-8.5-0.7-16.8-2.1-24.2-2.1-1.6 0-3.2-0.1-4.7-0.1-14.7-0.4-26-2.7-26-5.5 0-0.8 1.1-1.5 2.9-2.2 2.5-1 0.7-1.2-1.7-1.6-15.3-2.8-19.3-8.7-1.5-11.4 20.8-3.1 86.5-6.8 101.9 0.6 7.3 3.6 4.5 7.2-0.5 8.9z"/><path class="d" d="m138.7 24.9c-5.6 1.9-6.7 1.8-2 3.8 5.2 2.1 12.6 4 1.6 6.8-12.1 3-39.8 3.3-45.8 2.8-8.5-0.7-16.8-2.1-24.2-2.1-1.6 0-3.2-0.1-4.7-0.1-14.7-0.4-26-2.7-26-5.5 0-0.8 1.1-1.5 2.9-2.2 2.5-1 0.7-1.2-1.7-1.6-6.9-1.3-11.6-3.2-12.9-5.2 2.6-1.2 6.5-2.2 11.4-3 20.8-3.1 86.5-6.8 101.9 0.6 2 1 3.3 2 3.9 2.9-0.8 1.2-2.4 2.1-4.4 2.8z"/><path class="e" d="m50 24q-0.9 0.1-1.9 0.1c-3.2 0-5.9-0.9-5.9-2.1 0-1 2.3-1.9 5.1-2-2.2 0.2-3.9 1-3.9 1.9 0 1.1 2.7 2.1 5.9 2.1q0.3 0 0.7 0z"/><path class="e" d="m54 23.2c3.2 0 5.8-0.9 5.8-2 0-0.9-1.6-1.6-3.9-1.9 2.9 0.1 5.1 0.9 5.1 2 0 1.1-2.6 2-5.8 2-0.6 0-1.3 0-1.9-0.1q0.3 0 0.7 0z"/><path class="e" d="m76.1 31.4q-1.1 0.1-2.3 0.2c-3.6 0-6.6-1.1-6.6-2.4 0-1.2 2.5-2.2 5.8-2.3-2.6 0.3-4.5 1.2-4.5 2.2 0 1.3 3 2.3 6.8 2.3q0.4 0 0.8 0z"/><path class="e" d="m80.7 30.6c3.7 0 6.7-1 6.7-2.4 0-1-1.9-1.8-4.5-2.2 3.3 0.2 5.9 1.2 5.9 2.4 0 1.3-3 2.4-6.7 2.4q-1.2 0-2.3-0.2 0.5 0.1 0.9 0z"/><path class="e" d="m105.5 22.1q-0.7 0.1-1.4 0.1c-2.3 0-4.1-0.6-4.1-1.5 0-0.7 1.5-1.3 3.6-1.4-1.6 0.2-2.8 0.7-2.8 1.3 0 0.8 1.9 1.5 4.2 1.5q0.2 0 0.5 0z"/><path class="e" d="m108.3 21.6c2.3 0 4.1-0.7 4.1-1.5 0-0.6-1.1-1.1-2.7-1.3 2 0.1 3.6 0.7 3.6 1.4 0 0.8-1.9 1.5-4.2 1.5q-0.6 0-1.3-0.1 0.2 0 0.5 0z"/><path class="e" d="m117.6 34.5c-0.5 0-1.1 0.1-1.8 0.1-2.8 0-5.2-0.8-5.2-1.8 0-1 2-1.8 4.6-1.9-2 0.3-3.5 0.9-3.5 1.7 0 1.1 2.4 1.9 5.3 1.9q0.3 0 0.6 0z"/><path class="e" d="m121.2 33.8c3 0 5.3-0.8 5.3-1.8 0-0.8-1.5-1.5-3.5-1.8 2.6 0.2 4.6 1 4.6 1.9 0 1-2.3 1.9-5.3 1.9q-0.9-0.1-1.7-0.2 0.3 0 0.6 0z"/><path class="e" d="m129.5 22.1c-0.2 0-0.5 0-0.8 0-1.3 0-2.4-0.4-2.4-0.8 0-0.5 0.9-0.8 2.1-0.9-0.9 0.1-1.6 0.4-1.6 0.8 0 0.5 1.1 0.9 2.4 0.9q0.2 0 0.3 0z"/><path class="e" d="m131.2 21.8c1.3 0 2.4-0.4 2.4-0.9 0-0.4-0.7-0.7-1.6-0.8 1.2 0.1 2.1 0.4 2.1 0.8 0 0.5-1 0.9-2.4 0.9-0.3 0-0.5 0-0.8-0.1 0.1 0.1 0.2 0.1 0.3 0.1z"/><path class="e" d="m75.3 20.9c-0.2 0-0.5 0-0.8 0-1.3 0-2.4-0.4-2.4-0.8 0-0.5 0.9-0.8 2.1-0.9-0.9 0.1-1.6 0.4-1.6 0.8 0 0.5 1.1 0.9 2.4 0.9 0.1 0 0.2 0 0.3 0z"/><path class="e" d="m77 20.6c1.3 0 2.4-0.4 2.4-0.9 0-0.4-0.7-0.7-1.6-0.8 1.2 0 2.1 0.4 2.1 0.8 0 0.5-1.1 0.9-2.4 0.9-0.3 0-0.6 0-0.8-0.1 0 0.1 0.2 0.1 0.3 0.1z"/><path class="e" d="m96.2 34.4c-0.3 0.1-0.5 0.1-0.8 0.1-1.4 0-2.5-0.4-2.5-0.9 0-0.4 1-0.8 2.1-0.8-0.9 0.1-1.6 0.4-1.6 0.8 0 0.5 1.1 0.8 2.5 0.8q0.1 0 0.3 0z"/><path class="e" d="m97.8 34.1c1.4 0 2.5-0.3 2.5-0.8 0-0.4-0.7-0.7-1.6-0.8 1.2 0 2.1 0.4 2.1 0.8 0 0.5-1.1 0.9-2.4 0.9q-0.5 0-0.9-0.1 0.2 0 0.3 0z"/><path class="e" d="m49.6 32.8c-0.4 0.1-0.8 0.1-1.2 0.1-2 0-3.6-0.6-3.6-1.3 0-0.7 1.3-1.2 3.1-1.2-1.4 0.1-2.4 0.6-2.4 1.2 0 0.6 1.6 1.2 3.7 1.2q0.2 0 0.4 0z"/><path class="e" d="m52.1 32.4c2 0 3.7-0.6 3.7-1.3 0-0.6-1.1-1-2.5-1.2 1.8 0.1 3.2 0.6 3.2 1.3 0 0.7-1.6 1.3-3.6 1.3-0.5 0-0.9-0.1-1.3-0.1 0.2 0 0.4 0 0.5 0z"/><path class="a" d="m85.6 9.6l-1.9-5.5 2.7 3.7 2-4.6-0.6 4.5 4.7-4-4.5 6.3z"/><path class="a" d="m117.5 10.3l-3-6.4 3.3 3.4 1.6-3.6-0.7 4.2 6.6-3.6-5 6.7z"/><path class="a" d="m155.1 19.7l-3.9-11.9 4.8 7.5 2.6-5.6-0.8 5.4 6.1-4.4-7.1 9.9z"/><path class="a" d="m5.8 20.7l-5.1-9.2 4.2 4.3 0.5-7.7 2.3 8.2 3.7-6.6-1.7 11.4z"/><g clip-path="url(#cp2)"><path class="a" d="m40.4 12.2l-5-8.9 4.6 4.8 0.8-7.3 1.9 5.9 4.9-6.1-3.9 12.5z"/></g><g clip-path="url(#cp3)"><path class="a" d="m165.4 34.2l-0.5-7.6 2.2 3.3 1.3-6.4 0.8 6 3.3-3.4-4.7 8.9z"/></g><path class="a" d="m66.4 9.8l-2.2-3.8 2.1 2.1 0.3-3.1 0.8 2.5 2.1-2.6-1.7 5.3z"/><path class="a" d="m142.1 14.2l-1.7-5.3 2.1 2.6 0.8-2.5 0.4 3.1 1.9-2-2.1 3.7z"/></svg>