<svg version="1.2" xmlns="http://www.w3.org/2000/svg" viewBox="0 0 103 72" width="52" height="24"><defs><clipPath clipPathUnits="userSpaceOnUse" id="cp1"><path d="m21.21 0.09h69.47v68.69h-69.47z"/></clipPath><clipPath clipPathUnits="userSpaceOnUse" id="cp2"><path d="m46.79 0.09h19.89v29.22h-19.89z"/></clipPath><clipPath clipPathUnits="userSpaceOnUse" id="cp3"><path d="m0.08 68.46h102.23v3.63h-102.23z"/></clipPath></defs><style>.a{fill:#3f5d6e}.b{fill:#2e6e37}.c{fill:#368141}.d{fill:#488a4c}.e{fill:#2d420e}.f{fill:#72a82c}.g{fill:#5c8722}.h{fill:#7c5331}.i{fill:#51761d}.j{fill:#2d6c36}.k{fill:#446418}.l{fill:#305d31}.m{fill:#385213}.n{fill:#283a0c}.o{fill:#608d24}.p{fill:#3c743f}.q{fill:#6a4629}.r{fill:#4e721c}.s{fill:#367f2e}.t{fill:#24571d}.u{fill:#265c2d}.v{fill:#213009}.w{fill:#4d711c}.x{fill:#e2e2e4}</style><g clip-path="url(#cp1)"><path class="a" d="m21.4 68.5l34.6-68.4 34.6 68.4z"/></g><path class="b" d="m7 68.5l22.3-52.9 22.2 52.9z"/><path class="c" d="m26.6 68.5l22.3-34.2 22.2 34.2z"/><path class="d" d="m48.9 68.5l22.2-44.1 22.3 44.1z"/><path fill-rule="evenodd" class="e" d="m37.5 65q-0.1-0.1 0-0.3l0.9-1.3h-0.2q-0.1 0-0.1 0-0.1-0.1 0-0.2l0.8-1.3h-0.2q0 0-0.1-0.1 0-0.1 0-0.1l1.3-2q0 0 0.1 0 0.1 0 0.1 0l1.3 2q0.1 0 0.1 0c0 0.1-0.1 0.2-0.2 0.2h-0.2l0.9 1.2q0 0.1 0 0.1c0 0.1-0.1 0.2-0.2 0.2h-0.1l0.8 1.3q0.1 0.1 0.1 0.1c0 0.2-0.1 0.3-0.3 0.3h-1.3v1.2h3.1v-2.5h-1q-0.2 0-0.3-0.1 0-0.1 0-0.3l0.9-1.3h-0.1q-0.2 0-0.2 0-0.1-0.1 0-0.2l0.8-1.3h-0.1q-0.1 0-0.2-0.1 0-0.1 0-0.1l1.3-2q0 0 0.1 0 0.1 0 0.2 0l1.2 2q0.1 0 0.1 0c0 0.1-0.1 0.2-0.2 0.2h-0.2l0.9 1.2q0 0.1 0 0.1c0 0.1-0.1 0.2-0.2 0.2h-0.1l0.9 1.3q0 0.1 0 0.1c0 0.2-0.1 0.3-0.3 0.3h-1v2.5h3.9v-2.8h-0.1q-0.1 0-0.2-0.1-0.1-0.1 0-0.2l0.8-1.3h-0.1q-0.1 0-0.2-0.1 0-0.1 0-0.2l0.9-1.3h-0.2q-0.1 0-0.1 0-0.1-0.1 0-0.2l1.2-1.9q0.1-0.1 0.2-0.1 0.1 0 0.1 0.1l1.3 1.9q0 0 0 0.1c0 0 0 0.1-0.1 0.1h-0.2l0.8 1.3q0.1 0 0.1 0.1c0 0.1-0.1 0.2-0.2 0.2h-0.1l0.8 1.2q0.1 0.1 0.1 0.2c0 0.1-0.2 0.2-0.3 0.2h-0.1v2.7h2.6v-2.9h-0.4q-0.1 0-0.2-0.1-0.1-0.2 0-0.3l0.9-1.3h-0.2q-0.1 0-0.1-0.1-0.1-0.1 0-0.1l0.8-1.3h-0.2q-0.1 0-0.1-0.1 0-0.1 0-0.1l1.3-2q0-0.1 0.1-0.1 0.1 0 0.1 0.1l1.3 1.9q0 0.1 0 0.1c0 0.1 0 0.1-0.1 0.1h-0.2l0.9 1.3q0 0.1 0 0.1c0 0.1-0.1 0.2-0.2 0.2h-0.1l0.6 1 0.6-0.9h-0.2q-0.2 0-0.2-0.1-0.1-0.1 0-0.2l1.1-1.8h-0.2q-0.1 0-0.2-0.1 0-0.1 0-0.2l1.8-2.7q0-0.1 0.2-0.1 0.1 0 0.1 0.1l1.8 2.7q0.1 0 0.1 0.1c0 0.1-0.1 0.1-0.2 0.1h-0.3l1.2 1.8q0.1 0.1 0.1 0.2c0 0.1-0.2 0.2-0.3 0.2h-0.2l1.2 1.8q0.1 0.1 0.1 0.2c0 0.2-0.2 0.3-0.4 0.3h-1l0.1 2.2h3.8v-3.8h-1.2q-0.2 0-0.3-0.2-0.1-0.1 0-0.3l1.2-1.8h-0.2q-0.1 0-0.2-0.1-0.1-0.2 0-0.3l1.1-1.8h-0.2q-0.1 0-0.2-0.1 0-0.1 0-0.2l1.8-2.7q0.1-0.1 0.2-0.1 0.1 0 0.2 0.1l1.7 2.7q0.1 0 0.1 0.1c0 0.1-0.1 0.2-0.2 0.2h-0.3l1.2 1.8q0.1 0 0.1 0.1c0 0.1-0.2 0.3-0.3 0.3h-0.2l1.2 1.7q0.1 0.1 0.1 0.2c0 0.2-0.2 0.4-0.4 0.4h-1.2v3.7h3.1v-1.9h-1q-0.2 0-0.3-0.1-0.1-0.2 0-0.3l1-1.6h-0.1q-0.2 0-0.2-0.1-0.1-0.1 0-0.2l1-1.6h-0.2q-0.1 0-0.2-0.1 0 0 0-0.1l1.6-2.4q0-0.1 0.1-0.1 0.1 0 0.2 0.1l1.5 2.4q0.1 0 0.1 0c0 0.1-0.1 0.2-0.2 0.2h-0.2l1 1.5q0 0.1 0 0.2c0 0.1-0.1 0.2-0.2 0.2h-0.2l1.1 1.5q0 0.1 0 0.2c0 0.1-0.1 0.3-0.3 0.3h-1v1.9h5.2v-1.8h-1q-0.2 0-0.3-0.1-0.1-0.1 0-0.3l1.1-1.5h-0.2q-0.1 0-0.2-0.2-0.1-0.1 0-0.2l0.6-0.9 0.4-0.6h-0.2q-0.1 0-0.1-0.1-0.1-0.1 0-0.2l1.5-2.3q0-0.1 0.1-0.1 0.1 0 0.2 0.1l1.6 2.3q0 0 0 0.1c0 0.1-0.1 0.2-0.2 0.2h-0.2l0.4 0.6 0.6 0.9q0.1 0 0.1 0.1c0 0.1-0.1 0.2-0.3 0.2h-0.1l1 1.6q0.1 0.1 0.1 0.1c0 0.2-0.2 0.3-0.4 0.3h-1l0.1 1.8h1.2q-0.1 0-0.2-0.1 0-0.1 0-0.2l0.7-1.1h-0.1q-0.1 0-0.1-0.1-0.1-0.1 0-0.1l0.7-1.1h-0.2q0 0-0.1-0.1 0 0 0-0.1l1.1-1.6q0-0.1 0.1-0.1 0.1 0 0.1 0.1l1.1 1.6v0.1q0 0.1-0.1 0.1h-0.2l0.8 1q0 0.1 0 0.1c0 0.1-0.1 0.2-0.2 0.2h-0.1l0.7 1.1q0.1 0 0.1 0.1c0 0.1-0.1 0.2-0.3 0.2h-1.3v2.4h-54.8v-2.2-1.2h-1.3q-0.1 0-0.2-0.1zm23.8-1v2.2h1.1v-2.2h-1q0 0-0.1 0z"/><path class="f" d="m87.1 66.6c0 0.2-0.1 0.4-0.4 0.4h-6.8q-0.2 0-0.4-0.2-0.1-0.1 0-0.3l1.3-2h-0.2q-0.1 0-0.2-0.1-0.1-0.1 0-0.3l1.2-1.9h-0.2q-0.1 0-0.2-0.1-0.1-0.1 0-0.2l1.9-2.9q0.1-0.1 0.2-0.1 0.1 0 0.2 0.1l1.9 2.9q0 0 0 0.1c0 0.1-0.1 0.2-0.2 0.2h-0.2l1.2 1.9q0.1 0.1 0.1 0.1c0 0.2-0.2 0.3-0.3 0.3h-0.2l1.3 1.9q0 0.1 0 0.2z"/><path class="g" d="m87.1 66.6c0 0.2-0.1 0.4-0.4 0.4h-3.3l-0.1-8.1q0.1 0 0.2 0.1l1.9 2.9q0 0 0 0.1c0 0.1-0.1 0.2-0.2 0.2h-0.2l1.2 1.9q0.1 0.1 0.1 0.1c0 0.2-0.2 0.3-0.3 0.3h-0.2l1.3 1.9q0 0.1 0 0.2z"/><path class="h" d="m83.1 68.5v-2.9c0-0.1 0.1-0.2 0.2-0.2 0.1 0 0.2 0.1 0.2 0.2v2.9z"/><path class="i" d="m50.1 62.3c0 1.8-1 3.3-2.3 3.3-1.3 0-2.3-1.4-2.3-3.3 0-1.8 1-3.2 2.3-3.2 1.2-0.1 2.3 1.4 2.3 3.2z"/><path class="j" d="m50 61.3q-0.2-0.6-0.4-1 0.2 0.4 0.4 1z"/><path class="k" d="m50 61.3l-0.7-1h0.2q0 0 0.1 0 0.2 0.4 0.4 1z"/><path class="h" d="m47.6 68.5v-4.5c0-0.1 0.1-0.2 0.2-0.2 0.1 0 0.2 0.1 0.2 0.2v4.5z"/><path class="i" d="m57.4 66.9c0 0.2-0.2 0.3-0.4 0.3l-6.2 0.1q-0.2 0-0.3-0.2-0.1-0.1 0-0.3l1.1-1.8h-0.1q-0.2 0-0.3-0.1-0.1-0.1 0-0.3l1.2-1.7h-0.3q-0.1 0-0.1-0.1-0.1-0.1 0-0.2l1.7-2.7q0.1 0 0.2 0 0.1 0 0.1 0l1.8 2.7q0 0 0 0.1c0 0.1-0.1 0.2-0.2 0.2h-0.2l1.2 1.7q0 0.1 0 0.1c0 0.2-0.1 0.3-0.3 0.3h-0.1l1.1 1.7q0.1 0.1 0.1 0.2z"/><path class="l" d="m54 59.9q0 0 0 0 0 0 0 0z"/><path class="m" d="m54.1 63.3l-0.2-0.3v-3.1q0.1 0 0.1 0 0 0 0 0l0.9 1.3-0.6 0.8q0 0.1 0 0.2 0.1 0.1 0.2 0.2 0 0 0 0h0.2z"/><path class="h" d="m53.7 68.5v-2.5c0-0.1 0.1-0.2 0.2-0.2 0.1 0 0.2 0.1 0.2 0.2v2.5z"/><path class="i" d="m74.7 67c0 0.1-0.1 0.3-0.3 0.3h-5.8q-0.1 0-0.2-0.1-0.1-0.2 0-0.3l1-1.7h-0.1q-0.2 0-0.3-0.1 0-0.1 0-0.2l1.1-1.6h-0.2q-0.1 0-0.2-0.1 0-0.1 0-0.2l1.6-2.4q0.1-0.1 0.2-0.1 0.1 0 0.2 0.1l1.6 2.4q0 0 0 0.1c0 0.1-0.1 0.2-0.2 0.2h-0.2l1.1 1.6q0 0 0 0.1c0 0.1-0.1 0.2-0.3 0.2h-0.1l1.1 1.6q0 0.1 0 0.2z"/><path class="m" d="m71.6 67.3l-0.1-0.4h0.5c0.2 0 0.4-0.2 0.4-0.4q0-0.1-0.1-0.2l-0.8-1.2v-4.6q0.1 0 0.2 0.1l0.7 1.1q0 0.3 0 0.5c0 1.4 0.5 2.5 1.3 3h-0.1l1.1 1.6q0 0.1 0 0.2c0 0.1-0.1 0.3-0.3 0.3z"/><path class="h" d="m71.3 68.5v-2.4c0-0.1 0.1-0.2 0.2-0.2 0.1 0 0.2 0.1 0.2 0.2v2.4z"/><path class="i" d="m92.9 63.9c0 1.3-0.7 2.4-1.7 2.4-0.9 0-1.7-1.1-1.7-2.4 0-1.3 0.8-2.4 1.7-2.4 0.9 0 1.7 1.1 1.7 2.4z"/><path class="n" d="m91.7 66.2q0 0 0 0 0 0 0 0zm0 0c0.7-0.3 1.2-1.2 1.2-2.3 0 1.1-0.5 2-1.2 2.3z"/><path class="k" d="m91.4 66.3v-1.2q0-0.1-0.2-0.1v-3.5c0.9 0 1.7 1.1 1.7 2.4 0 1.1-0.5 2-1.2 2.3q0 0 0 0 0 0 0 0-0.2 0.1-0.3 0.1z"/><path class="h" d="m91.1 68.5v-3.4c0-0.1 0-0.1 0.1-0.1 0.1 0 0.2 0 0.2 0.1v3.4z"/><path class="i" d="m39.6 65.1c0 0.9-0.5 1.6-1.1 1.7-0.6 0-1.1-0.8-1.1-1.6 0-0.9 0.5-1.6 1.1-1.6 0.6-0.1 1.1 0.7 1.1 1.5z"/><path class="h" d="m38.4 68.5v-2.4q0-0.1 0.1-0.1 0.1 0 0.1 0.1v2.4z"/><path class="f" d="m52.1 67.5c0 0.1-0.1 0.2-0.3 0.2h-4.4q-0.1 0-0.2-0.1-0.1-0.1 0-0.2l0.8-1.3h-0.1q-0.1 0-0.2-0.1 0-0.1 0-0.2l0.8-1.2h-0.1q-0.1 0-0.2-0.1 0 0 0-0.1l1.3-1.9q0 0 0.1 0 0.1 0 0.1 0l1.3 1.9q0 0 0 0.1c0 0-0.1 0.1-0.2 0.1h-0.1l0.8 1.2q0 0.1 0 0.1c0 0.1-0.1 0.2-0.2 0.2h-0.1l0.8 1.2q0.1 0.1 0.1 0.2z"/><path class="g" d="m52.1 67.5c0 0.1-0.1 0.2-0.3 0.2h-2.2v-5.2q0.1 0 0.1 0l1.3 1.9q0 0 0 0.1c0 0-0.1 0.1-0.2 0.1h-0.1l0.8 1.2q0 0.1 0 0.1c0 0.1-0.1 0.2-0.2 0.2h-0.1l0.8 1.2q0.1 0.1 0.1 0.2z"/><path class="h" d="m49.5 68.5v-1.7c0-0.1 0-0.2 0.1-0.2 0.1 0 0.2 0.1 0.2 0.2v1.7z"/><path class="f" d="m59.4 67.1c0 0.1-0.2 0.2-0.3 0.2l-5.8 0.1q-0.2 0-0.3-0.2-0.1-0.1 0-0.3l1.1-1.6h-0.2q-0.1 0-0.2-0.1 0-0.1 0-0.2l1.1-1.7h-0.2q-0.1 0-0.2 0-0.1-0.1 0-0.2l1.6-2.5q0.1 0 0.2 0 0.1 0 0.1 0l1.6 2.5q0.1 0 0.1 0.1c0 0.1-0.1 0.1-0.2 0.1h-0.2l1 1.6q0.1 0.1 0.1 0.2c0 0.1-0.1 0.2-0.3 0.2h-0.1l1 1.6q0.1 0.1 0.1 0.2z"/><path class="g" d="m59.4 67.1c0 0.1-0.2 0.2-0.3 0.2l-2.9 0.1v-6.8q0.1 0 0.1 0l1.6 2.5q0.1 0 0.1 0.1c0 0.1-0.1 0.1-0.2 0.1h-0.2l1 1.6q0.1 0.1 0.1 0.2c0 0.1-0.1 0.2-0.3 0.2h-0.1l1 1.6q0.1 0.1 0.1 0.2z"/><path class="h" d="m56 68.5v-2.3c0-0.1 0.1-0.2 0.2-0.2 0.1 0 0.2 0.1 0.2 0.2v2.3z"/><path class="f" d="m63.8 67c0 0.2-0.1 0.3-0.3 0.3l-5.7 0.1q-0.2-0.1-0.3-0.2-0.1-0.1 0-0.3l1-1.6h-0.1q-0.2 0-0.2-0.1-0.1-0.1 0-0.3l1-1.6h-0.2q-0.1 0-0.2-0.1 0 0 0-0.1l1.6-2.5q0.1-0.1 0.2-0.1 0.1 0 0.2 0.1l1.6 2.4q0 0.1 0 0.1c0 0.1-0.1 0.2-0.2 0.2h-0.2l1.1 1.6q0 0.1 0 0.1c0 0.2-0.1 0.3-0.2 0.3h-0.2l1.1 1.6q0 0 0 0.1z"/><path class="g" d="m63.8 67c0 0.2-0.1 0.3-0.3 0.3h-2.8l-0.1-6.8q0.1 0.1 0.2 0.1l1.6 2.4q0 0.1 0 0.1c0 0.1-0.1 0.2-0.2 0.2h-0.2l1.1 1.6q0 0.1 0 0.1c0 0.2-0.1 0.3-0.2 0.3h-0.2l1.1 1.6q0 0 0 0.1z"/><path class="h" d="m60.4 68.5v-2.3c0-0.1 0.1-0.2 0.2-0.2 0.1 0 0.2 0.1 0.2 0.2v2.3z"/><path class="f" d="m72.4 66.5c0 0.2-0.2 0.4-0.4 0.4h-7.5c-0.2 0-0.3-0.1-0.4-0.2q-0.1-0.2 0-0.3l1.4-2.2h-0.2q-0.2 0-0.3-0.1-0.1-0.2 0-0.3l1.4-2.1h-0.3q-0.2 0-0.2-0.1-0.1-0.2 0-0.3l2.1-3.2q0-0.1 0.2-0.1 0.1 0 0.2 0.1l2.1 3.2q0 0.1 0 0.1c0 0.1-0.1 0.2-0.2 0.2h-0.3l1.4 2.1q0 0.1 0 0.2c0.1 0.2-0.1 0.3-0.3 0.3h-0.2l1.4 2.1q0.1 0.1 0.1 0.2z"/><path class="g" d="m72.4 66.5c0 0.2-0.2 0.4-0.4 0.4h-3.8v-8.9q0.1 0.1 0.2 0.1l2.1 3.2q0 0.1 0 0.1c0 0.1-0.1 0.2-0.2 0.2h-0.3l1.4 2.1q0 0.1 0 0.2c0.1 0.2-0.1 0.3-0.3 0.3h-0.2l1.4 2.1q0.1 0.1 0.1 0.2z"/><path class="h" d="m67.9 68.5v-3.1c0-0.2 0.1-0.3 0.3-0.3 0.1 0 0.2 0.1 0.2 0.3v3.1z"/><path class="f" d="m94.7 67.7c0 0.1-0.1 0.1-0.2 0.1l-2.8 0.1q-0.1 0-0.2-0.1 0-0.1 0-0.2l0.5-0.8q-0.1 0-0.1 0-0.1-0.1 0-0.1l0.5-0.9h-0.1q-0.1 0-0.1 0 0 0 0-0.1l0.8-1.2q0-0.1 0.1-0.1 0 0 0.1 0.1l0.8 1.2q0 0.1-0.1 0.1h-0.1l0.5 0.8v0.1q0 0.1-0.1 0.1h-0.1l0.6 0.8q0 0.1 0 0.1z"/><path class="g" d="m94.7 67.7c0 0.1-0.1 0.1-0.2 0.1l-1.4 0.1v-3.5q0 0.1 0.1 0.1l0.8 1.2q0 0.1-0.1 0.1h-0.1l0.5 0.8v0.1q0 0.1-0.1 0.1h-0.1l0.6 0.8q0 0.1 0 0.1z"/><path class="h" d="m93 68.5v-1.2q0-0.1 0.1-0.1 0.1 0 0.1 0.1v1.2z"/><path class="f" d="m87.3 67.6c0 0.1-0.1 0.1-0.3 0.1h-3.5q-0.1 0-0.2 0 0-0.1 0-0.2l0.7-1h-0.1q-0.1 0-0.1-0.1-0.1-0.1 0-0.1l0.6-1h-0.1q-0.1 0-0.1-0.1 0 0 0-0.1l1-1.5q0 0 0.1 0 0 0 0.1 0l1 1.5v0.1q0 0.1-0.1 0.1h-0.2l0.7 0.9q0 0.1 0 0.1c0 0.1-0.1 0.2-0.1 0.2h-0.1l0.6 1q0.1 0 0.1 0.1z"/><path class="g" d="m87.3 67.6c0 0.1-0.1 0.1-0.3 0.1h-1.7v-4.1q0 0 0.1 0l1 1.5v0.1q0 0.1-0.1 0.1h-0.2l0.7 0.9q0 0.1 0 0.1c0 0.1-0.1 0.2-0.1 0.2h-0.1l0.6 1q0.1 0 0.1 0.1z"/><path class="h" d="m85.2 68.5v-1.5q0-0.1 0.1-0.1 0.1 0 0.1 0.1v1.5z"/><path class="f" d="m47.8 67.5c0 0.1-0.1 0.2-0.3 0.2h-4.4q-0.1 0-0.2-0.1-0.1-0.1 0-0.2l0.8-1.3h-0.1q-0.1 0-0.2-0.1 0 0 0-0.1l0.9-1.3h-0.2q-0.1 0-0.1 0-0.1-0.1 0-0.2l1.2-1.9q0 0 0.1 0 0.1 0 0.1 0l1.3 1.9q0 0 0 0.1c0 0-0.1 0.1-0.1 0.1h-0.2l0.8 1.2q0 0.1 0 0.1c0 0.1 0 0.2-0.2 0.2h-0.1l0.9 1.2q0 0.1 0 0.2z"/><path class="g" d="m47.8 67.5c0 0.1-0.1 0.2-0.3 0.2h-2.1l-0.1-5.2q0.1 0 0.1 0l1.3 1.9q0 0 0 0.1c0 0-0.1 0.1-0.1 0.1h-0.2l0.8 1.2q0 0.1 0 0.1c0 0.1 0 0.2-0.2 0.2h-0.1l0.9 1.2q0 0.1 0 0.2z"/><path class="h" d="m45.2 68.5v-1.7c0-0.1 0-0.1 0.1-0.1 0.1 0 0.2 0 0.2 0.1v1.7z"/><path class="f" d="m42.3 67.8c0 0.1-0.1 0.1-0.2 0.1h-3.5q-0.2 0-0.2 0-0.1-0.1 0-0.2l0.6-1h-0.1q0 0-0.1-0.1 0-0.1 0-0.1l0.7-1h-0.2q0 0-0.1-0.1 0 0 0-0.1l1-1.4q0-0.1 0.1-0.1 0.1 0 0.1 0.1l1 1.4v0.1q0 0.1-0.1 0.1h-0.1l0.6 1q0 0 0 0c0 0.1 0 0.2-0.1 0.2h-0.1l0.6 1q0.1 0 0.1 0.1z"/><path class="g" d="m42.3 67.8c0 0.1-0.1 0.1-0.2 0.1h-1.8v-4.1q0.1 0 0.1 0.1l1 1.4v0.1q0 0.1-0.1 0.1h-0.1l0.6 1q0 0 0 0c0 0.1 0 0.2-0.1 0.2h-0.1l0.6 1q0.1 0 0.1 0.1z"/><path class="h" d="m40.2 68.5v-1.3q0-0.1 0.1-0.1 0.1 0 0.1 0.1v1.3z"/><path class="i" d="m44 65.9c0 0.7-0.4 1.3-0.9 1.3-0.4 0-0.8-0.6-0.8-1.3 0-0.7 0.3-1.2 0.8-1.2 0.5 0 0.9 0.5 0.9 1.2z"/><path fill-rule="evenodd" class="o" d="m44 66.1q0-0.1 0-0.2 0 0.1 0 0.2zm0-0.2q0 0 0 0 0 0 0 0zm0 0q0 0 0 0 0 0 0 0z"/><path class="o" d="m44 65.9q0-0.3-0.1-0.6 0.1 0.3 0.1 0.6z"/><path class="k" d="m43.2 66.1v-0.6q0.4 0 0.7-0.2 0.1 0.3 0.1 0.6 0 0 0 0 0 0 0 0 0 0 0 0 0 0 0 0 0 0 0 0 0 0.1 0 0.2z"/><path class="h" d="m43.1 68.5v-1.8q0-0.1 0-0.1 0.1 0 0.1 0.1v1.8z"/><path class="f" d="m53.4 66.8c0 0.4-0.2 0.8-0.6 0.8-0.3 0-0.6-0.4-0.6-0.8 0-0.5 0.3-0.9 0.6-0.9 0.4 0 0.6 0.4 0.6 0.9z"/><path class="h" d="m52.8 68.5v-1.2q0-0.1 0-0.1 0.1 0 0.1 0.1v1.2z"/><path class="i" d="m65.6 65c0 0.9-0.5 1.6-1.2 1.6-0.6 0-1.1-0.7-1.1-1.6 0-0.9 0.5-1.6 1.1-1.6 0.7 0 1.2 0.7 1.2 1.6z"/><path class="o" d="m65.6 65.1q0 0 0 0zm0 0zm0 0q0 0 0 0 0 0 0 0zm0-0.1q0 0 0 0 0 0 0 0zm0 0q0 0 0 0 0 0 0 0zm0 0q0 0 0 0 0 0 0 0z"/><path class="k" d="m64.5 66.6l-0.1-3.2c0.7 0 1.2 0.7 1.2 1.6q0 0 0 0 0 0 0 0 0 0.1 0 0.1 0 0 0 0 0 0 0 0 0 0 0 0 0 0 0 0 0 0 0 0c0 0.8-0.5 1.5-1.1 1.5z"/><path class="h" d="m64.3 68.5v-2.5q0-0.1 0.1-0.2 0.1 0.1 0.2 0.2v2.5z"/><path class="i" d="m77 62.2c0 1.8-1 3.3-2.3 3.3-1.3 0-2.3-1.5-2.3-3.3 0-1.8 1-3.3 2.3-3.3 1.2 0 2.3 1.5 2.3 3.3z"/><path class="p" d="m77 62.6q0 0 0 0 0 0 0 0zm0 0q0 0 0 0 0 0 0 0zm0 0q0 0 0 0 0 0 0 0zm0 0q0 0 0 0 0 0 0 0zm0 0q0 0 0 0 0 0 0 0zm0 0q0 0 0 0 0 0 0 0zm0 0q0-0.2 0-0.4 0 0.2 0 0.4z"/><path class="k" d="m74.7 65.5v-6.6c1.3 0.1 2.3 1.5 2.3 3.3q0 0.2 0 0.4 0 0 0 0 0 0 0 0 0 0 0 0 0 0 0 0 0 0 0 0 0 0 0 0 0 0 0 0 0 0 0 0 0 0 0 0 0 0 0 0 0 0 0 0 0 0 0 0 0 0.1 0 0.2l-0.7 1q0 0 0 0.1 0.1 0.1 0.2 0.1h0.1l-0.6 0.9c-0.3 0.4-0.8 0.6-1.3 0.6z"/><path class="h" d="m74.5 68.5v-4.6c0-0.1 0.1-0.2 0.2-0.2 0.1 0 0.2 0.1 0.2 0.2v4.6z"/><path class="i" d="m83.8 63.9c0 1.4-0.8 2.4-1.7 2.4-0.9 0-1.7-1-1.7-2.4 0-1.3 0.8-2.3 1.7-2.3 0.9 0 1.7 1 1.7 2.3z"/><path class="o" d="m82.1 66.3q0.6 0 1-0.4-0.4 0.4-1 0.4z"/><path class="q" d="m83.1 65.9q0-0.1 0.1-0.1-0.1 0-0.1 0.1zm0.1-0.1q0 0 0-0.1 0 0.1 0 0.1zm0-0.1q0 0 0 0 0 0 0 0zm0 0zm0 0q0 0 0 0 0 0 0 0zm0 0q0 0 0 0 0 0 0 0z"/><path fill-rule="evenodd" class="r" d="m83.8 63.9q0-0.7-0.3-1.3 0.3 0.6 0.3 1.3zm-0.1 0.7q0 0 0 0 0 0 0 0zm0-0.1q0 0 0 0 0 0 0 0zm0 0q0 0 0 0 0 0 0 0zm0 0q0 0 0 0 0 0 0 0zm0 0q0 0 0 0 0 0 0 0zm0 0q0 0 0 0 0 0 0 0zm0 0q0 0 0 0 0 0 0 0zm0 0q0 0 0 0 0 0 0 0zm0 0q0 0 0 0 0 0 0 0zm0 0q0 0 0 0 0 0 0 0zm0 0q0 0 0 0 0 0 0 0zm0 0q0 0 0 0 0 0 0 0zm0 0q0 0 0 0 0 0 0 0zm0 0q0 0 0 0 0 0 0 0zm0 0q0 0 0 0 0 0 0 0zm0 0q0-0.1 0-0.1 0 0 0 0.1zm0-0.1q0.1-0.2 0.1-0.5 0 0.3-0.1 0.5zm-0.2-1.8q0 0 0 0 0 0 0 0z"/><path class="k" d="m82.1 66.3v-4.7c0.6 0 1.1 0.4 1.4 1q0 0 0 0 0.3 0.6 0.3 1.3 0 0.3-0.1 0.5 0 0 0 0.1 0 0 0 0 0 0 0 0 0 0 0 0 0 0 0 0 0 0 0 0 0 0 0 0 0 0 0 0 0 0 0 0 0 0 0 0 0 0 0 0 0 0 0 0 0 0 0 0 0 0 0 0 0 0 0 0 0 0 0 0 0 0 0 0 0 0 0 0 0 0 0 0 0 0 0 0 0 0 0 0 0 0 0 0 0 0 0 0 0 0 0 0 0 0 0 0 0 0.1 0 0.1 0 0 0 0 0 0 0 0 0 0 0 0-0.1 0.7-0.5 1.1 0 0 0 0 0 0 0 0 0 0 0 0 0 0 0 0 0 0 0 0 0 0 0 0 0 0.1 0 0.1-0.1 0-0.1 0.1-0.4 0.4-1 0.4z"/><path class="h" d="m82 68.5v-3.3c0-0.1 0-0.2 0.1-0.2 0.1 0 0.1 0.1 0.1 0.2l0.1 3.3z"/><path class="i" d="m89.2 65.1c0 0.9-0.5 1.8-1.2 1.8-0.7 0-1.3-0.8-1.3-1.8 0-1 0.5-1.8 1.2-1.8 0.7 0 1.3 0.8 1.3 1.8z"/><path fill-rule="evenodd" class="n" d="m89.2 65.2q0 0 0 0 0 0 0 0zm0 0q0 0 0 0 0 0 0 0zm0 0q0 0 0 0 0 0 0 0zm0 0q0 0 0 0 0 0 0 0zm0 0q0 0 0 0 0 0 0 0zm0 0q0-0.1 0-0.1 0 0 0 0.1zm0-0.1q0 0 0 0 0 0 0 0zm-0.9-1.8zm0 0q0 0 0 0 0 0 0 0zm0 0zm0 0q-0.2 0-0.3 0 0.1 0 0.3 0z"/><path class="k" d="m88.1 66.8v-0.8q0-0.1-0.1-0.1v-2.6q0.1 0 0.3 0 0 0 0 0 0 0 0 0 0 0 0 0 0 0 0 0 0 0 0 0c0.5 0.3 0.9 0.9 0.9 1.8q0 0 0 0 0 0 0 0 0 0 0 0.1 0 0 0 0 0 0 0 0 0 0 0 0 0 0 0 0 0 0 0 0 0 0 0 0 0 0 0 0 0 0 0 0 0 0 0 0c0 0.9-0.5 1.6-1.1 1.6z"/><path class="h" d="m87.9 68.5l-0.1-2.5q0.1-0.1 0.1-0.1 0.1 0 0.2 0.1v2.5z"/><path class="f" d="m80.6 67.2c0 0.1-0.1 0.2-0.3 0.2l-4.9 0.1q-0.2 0-0.3-0.2 0-0.1 0-0.2l1-1.4h-0.2q-0.1 0-0.2-0.1 0-0.1 0-0.2l0.9-1.4h-0.1q-0.1 0-0.2-0.1 0-0.1 0-0.1l1.4-2.1q0-0.1 0.1-0.1 0.1 0 0.2 0.1l1.4 2q0 0.1 0 0.1c0 0.1-0.1 0.2-0.2 0.2h-0.2l1 1.3q0 0.1 0 0.2c0 0.1-0.1 0.2-0.2 0.2h-0.1l0.9 1.3q0 0.1 0 0.2z"/><path class="g" d="m80.6 67.2c0 0.1-0.1 0.2-0.3 0.2h-2.4v-5.8q0 0 0.1 0.1l1.4 2q0 0.1 0 0.1c0 0.1-0.1 0.2-0.2 0.2h-0.2l1 1.3q0 0.1 0 0.2c0 0.1-0.1 0.2-0.2 0.2h-0.1l0.9 1.3q0 0.1 0 0.2z"/><path class="h" d="m77.7 68.5v-2.1c0-0.1 0-0.1 0.1-0.1 0.1 0 0.2 0 0.2 0.1v2.1z"/><path class="s" d="m39.3 68.5c0.1-0.3 0.4-0.5 0.7-0.5 0.3 0 0.6 0.2 0.7 0.5z"/><path class="s" d="m41.7 68.5c0.1-0.3 0.4-0.5 0.7-0.5 0.3 0 0.5 0.2 0.6 0.5z"/><path class="s" d="m45.6 68.5c0.1-0.5 0.5-0.8 1-0.8 0.5 0 0.9 0.3 1 0.8z"/><path class="s" d="m50 68.5c0.1-0.2 0.3-0.3 0.5-0.3 0.2 0 0.4 0.1 0.5 0.3z"/><path class="s" d="m54.3 68.5c0.1-0.3 0.4-0.6 0.7-0.6 0.4 0 0.7 0.3 0.8 0.6z"/><path class="s" d="m56 68.5c0.1-0.3 0.3-0.6 0.7-0.6 0.3 0 0.6 0.3 0.7 0.6z"/><path class="s" d="m61.4 68.5c0.1-0.3 0.4-0.6 0.7-0.6 0.3 0 0.6 0.3 0.7 0.6z"/><path class="t" d="m62.8 68.5h-0.6v-0.6c0.3 0.1 0.5 0.3 0.6 0.6z"/><path class="s" d="m68.2 68.5c0.1-0.4 0.4-0.6 0.7-0.6 0.4 0 0.7 0.2 0.8 0.6z"/><path class="t" d="m69.7 68.5h-0.8v-0.6q0 0 0 0c0.4 0 0.7 0.2 0.8 0.6z"/><path class="s" d="m71.5 68.5c0.1-0.6 0.6-1 1.2-1 0.6 0 1.1 0.4 1.2 1z"/><path class="t" d="m73.9 68.5h-1.2v-1q0 0 0 0 0 0 0 0c0.6 0 1.1 0.4 1.2 1z"/><path class="s" d="m79.5 68.5c0.1-0.5 0.5-0.8 0.9-0.8 0.5 0 0.9 0.3 0.9 0.8z"/><path class="t" d="m81.3 68.5h-0.9v-0.8q0 0 0 0c0.5 0 0.9 0.3 0.9 0.8z"/><path class="s" d="m86.7 68.5c0.1-0.5 0.5-0.9 1-0.9 0.4 0 0.8 0.4 0.9 0.9z"/><path class="t" d="m88.6 68.5h-1v-0.9q0 0 0.1 0 0 0 0 0c0.4 0 0.8 0.4 0.9 0.9z"/><path class="s" d="m89.6 68.5c0-0.5 0.4-0.9 0.9-0.9 0.5 0 0.9 0.4 0.9 0.9z"/><path class="t" d="m91.4 68.5h-0.9v-0.9q0 0 0 0 0 0 0 0c0.5 0 0.9 0.4 0.9 0.9z"/><path fill-rule="evenodd" class="e" d="m5.9 65q0-0.1 0-0.3l0.9-1.3h-0.1q-0.1 0-0.2 0-0.1-0.1 0-0.2l0.8-1.3h-0.1q-0.1 0-0.2-0.1 0-0.1 0-0.1l1.3-2q0.1 0 0.1 0 0.1 0 0.2 0l1.3 2q0 0 0 0c0 0.1-0.1 0.2-0.2 0.2h-0.1l0.8 1.2q0 0.1 0 0.1c0 0.1 0 0.2-0.2 0.2h-0.1l0.9 1.3q0 0.1 0 0.1c0 0.2-0.1 0.3-0.2 0.3h-1.3v1.2h3v-2.5h-1q-0.2 0-0.2-0.1-0.1-0.1 0-0.3l0.8-1.3h-0.1q-0.1 0-0.2 0 0-0.1 0-0.2l0.9-1.3h-0.2q-0.1 0-0.1-0.1-0.1-0.1 0-0.1l1.2-2q0.1 0 0.2 0 0 0 0.1 0l1.3 2q0 0 0 0c0 0.1-0.1 0.2-0.1 0.2h-0.2l0.8 1.2q0.1 0.1 0.1 0.1c0 0.1-0.1 0.2-0.2 0.2h-0.2l0.9 1.3q0 0.1 0 0.1c0 0.2-0.1 0.3-0.2 0.3h-1.1l0.1 2.5h3.8v-2.8h-0.1q-0.1 0-0.2-0.1-0.1-0.1 0-0.2l0.9-1.3h-0.2q-0.1 0-0.1-0.1-0.1-0.1 0-0.2l0.8-1.3h-0.2q-0.1 0-0.1 0 0-0.1 0-0.2l1.3-1.9q0-0.1 0.1-0.1 0.1 0 0.1 0.1l1.3 1.9q0 0 0 0.1c0.1 0 0 0.1-0.1 0.1h-0.2l0.9 1.3q0 0 0 0.1c0 0.1-0.1 0.2-0.2 0.2h-0.1l0.8 1.2q0.1 0.1 0.1 0.2c0 0.1-0.1 0.2-0.3 0.2h-0.1v2.7h2.7v-2.9h-0.4q-0.2 0-0.3-0.1 0-0.2 0-0.3l0.9-1.3h-0.1q-0.2 0-0.2-0.1-0.1-0.1 0-0.1l0.8-1.3h-0.1q-0.1 0-0.2-0.1 0-0.1 0-0.1l1.3-2q0-0.1 0.1-0.1 0.1 0 0.2 0.1l1.2 1.9q0.1 0.1 0.1 0.1c0 0.1-0.1 0.1-0.2 0.1h-0.1l0.8 1.3q0 0.1 0 0.1c0 0.1-0.1 0.2-0.2 0.2h-0.1l0.7 1 0.5-0.9h-0.2q-0.1 0-0.2-0.1-0.1-0.1 0-0.2l1.2-1.8h-0.3q-0.1 0-0.2-0.1 0-0.1 0-0.2l1.8-2.7q0.1-0.1 0.2-0.1 0.1 0 0.2 0.1l1.8 2.7q0 0 0 0.1c0 0.1-0.1 0.1-0.2 0.1h-0.2l1.1 1.8q0.1 0.1 0.1 0.2c0 0.1-0.1 0.2-0.3 0.2h-0.2l1.2 1.8q0.1 0.1 0.1 0.2c0 0.2-0.2 0.3-0.4 0.3h-0.9v2.2h3.8v-3.8h-1.2q-0.2 0-0.3-0.2-0.1-0.1 0-0.3l1.2-1.8h-0.2q-0.1 0-0.2-0.1-0.1-0.2 0-0.3l1.2-1.8h-0.3q-0.1 0-0.2-0.1 0-0.1 0-0.2l1.8-2.7q0.1-0.1 0.2-0.1 0.1 0 0.2 0.1l1.8 2.7q0 0 0 0.1c0 0.1-0.1 0.2-0.2 0.2h-0.2l1.1 1.8q0.1 0 0.1 0.1c0 0.1-0.1 0.3-0.3 0.3h-0.2l1.2 1.7q0.1 0.1 0.1 0.2c0 0.2-0.2 0.4-0.4 0.4h-1.2l0.1 3.7h3v-1.9h-1q-0.2 0-0.3-0.1-0.1-0.2 0-0.3l1.1-1.6h-0.2q-0.1 0-0.2-0.1-0.1-0.1 0-0.2l1-1.6h-0.2q-0.1 0-0.1-0.1-0.1 0 0-0.1l1.5-2.4q0-0.1 0.1-0.1 0.1 0 0.2 0.1l1.6 2.4q0 0 0 0c0 0.1-0.1 0.2-0.2 0.2h-0.2l1 1.5q0.1 0.1 0.1 0.2c0 0.1-0.1 0.2-0.3 0.2h-0.1l1 1.5q0.1 0.1 0.1 0.2c0 0.1-0.2 0.3-0.4 0.3h-0.9v1.9h5.1v-1.8h-1q-0.1 0-0.2-0.1-0.1-0.1 0-0.3l1-1.5h-0.2q-0.1 0-0.2-0.2 0-0.1 0-0.2l0.6-0.9 0.4-0.6h-0.2q-0.1 0-0.1-0.1-0.1-0.1 0-0.2l1.5-2.3q0.1-0.1 0.2-0.1 0.1 0 0.1 0.1l1.6 2.3q0 0 0 0.1c0 0.1-0.1 0.2-0.2 0.2h-0.2l0.4 0.6h0.1l0.6 0.9q0 0 0 0.1c0 0.1-0.1 0.2-0.3 0.2h-0.1l1 1.6q0.1 0.1 0.1 0.1c0 0.2-0.2 0.3-0.3 0.3h-1v1.8h1.2q-0.1 0-0.2-0.1 0-0.1 0-0.2l0.8-1.1h-0.1q-0.1 0-0.2-0.1 0-0.1 0-0.1l0.7-1.1h-0.1q-0.1 0-0.1-0.1-0.1 0 0-0.1l1-1.6q0.1-0.1 0.1-0.1 0.1 0 0.1 0.1l1.1 1.6v0.1q0 0.1-0.1 0.1h-0.1l0.7 1q0 0.1 0 0.1c0 0.1-0.1 0.2-0.2 0.2h-0.1l0.8 1.1q0 0 0 0.1c0 0.1-0.1 0.2-0.2 0.2h-1.4v2.4h-54.8v-2.2-1.2h-1.2q-0.2 0-0.3-0.1zm23.9-1v2.2h1v-2.2h-1q0 0 0 0z"/><path class="f" d="m55.6 66.6c0 0.2-0.2 0.4-0.4 0.4h-6.9q-0.2 0-0.3-0.2-0.1-0.1 0-0.3l1.3-2h-0.2q-0.2 0-0.3-0.1-0.1-0.1 0-0.3l1.3-1.9h-0.3q-0.1 0-0.2-0.1 0-0.1 0-0.2l1.9-2.9q0.1-0.1 0.2-0.1 0.1 0 0.2 0.1l1.9 2.9q0.1 0 0.1 0.1c0 0.1-0.1 0.2-0.3 0.2h-0.2l1.2 1.9q0.1 0.1 0.1 0.1c0 0.2-0.1 0.3-0.3 0.3h-0.2l1.3 1.9q0.1 0.1 0.1 0.2z"/><path class="g" d="m55.6 66.6c0 0.2-0.2 0.4-0.4 0.4h-3.4l-0.1-8.1q0.1 0 0.2 0.1l1.9 2.9q0.1 0 0.1 0.1c0 0.1-0.1 0.2-0.3 0.2h-0.2l1.2 1.9q0.1 0.1 0.1 0.1c0 0.2-0.1 0.3-0.3 0.3h-0.2l1.3 1.9q0.1 0.1 0.1 0.2z"/><path class="h" d="m51.5 68.5v-2.9c0-0.1 0.1-0.2 0.2-0.2 0.1 0 0.2 0.1 0.2 0.2l0.1 2.9z"/><path class="i" d="m18.5 62.3c0 1.8-1 3.3-2.3 3.3-1.3 0-2.3-1.4-2.3-3.3 0-1.8 1-3.2 2.3-3.2 1.3-0.1 2.3 1.4 2.3 3.2z"/><path fill-rule="evenodd" class="u" d="m17.1 65.4c0.8-0.5 1.4-1.7 1.4-3.1 0 1.4-0.6 2.6-1.4 3.1zm1.4-3.3q0 0 0 0 0 0 0 0zm0-0.1q0 0 0 0 0 0 0 0zm0 0q0 0 0 0 0 0 0 0zm0 0q0 0 0 0 0 0 0 0zm0 0q0 0 0 0 0 0 0 0zm0 0q0 0 0 0 0 0 0 0zm0 0q0 0 0 0 0 0 0 0zm0 0c-0.1-0.8-0.3-1.6-0.7-2.1 0.4 0.5 0.6 1.3 0.7 2.1z"/><path class="k" d="m16.3 65.6l-0.1-6.5c0.6 0 1.2 0.3 1.6 0.8 0.4 0.5 0.6 1.3 0.7 2.1q0 0 0 0 0 0 0 0 0 0 0 0 0 0 0 0 0 0 0 0 0 0 0 0 0 0 0 0 0 0 0 0 0 0 0 0 0 0 0 0 0 0 0 0 0 0 0 0 0 0.1 0 0.1 0 0 0 0 0 0.1 0 0.2c0 1.4-0.6 2.6-1.4 3.1q-0.4 0.2-0.8 0.2z"/><path class="h" d="m16 68.5v-4.5c0-0.1 0.1-0.2 0.2-0.2 0.1 0 0.2 0.1 0.2 0.2v4.5z"/><path class="i" d="m25.8 66.9c0 0.2-0.1 0.3-0.3 0.3l-6.3 0.1q-0.2 0-0.3-0.2-0.1-0.1 0-0.3l1.1-1.8h-0.1q-0.2 0-0.3-0.1 0-0.1 0-0.3l1.2-1.7h-0.2q-0.2 0-0.2-0.1-0.1-0.1 0-0.2l1.7-2.7q0.1 0 0.2 0 0.1 0 0.2 0l1.7 2.7q0.1 0 0.1 0.1c0 0.1-0.1 0.2-0.2 0.2h-0.3l1.2 1.7q0 0.1 0 0.1c0 0.2-0.1 0.3-0.2 0.3h-0.2l1.1 1.7q0.1 0.1 0.1 0.2z"/><path class="m" d="m22.4 65.6v-0.3q0 0 0 0 0 0 0 0h0.1zm0-0.9v-4.8q0.1 0 0.1 0.1l1.3 1.8-0.9 1.3q-0.1 0.1 0 0.2 0.1 0.1 0.2 0.1h0.2z"/><path class="h" d="m22.1 68.5v-2.5c0-0.1 0.1-0.2 0.2-0.2 0.1 0 0.2 0.1 0.2 0.2v2.5z"/><path class="i" d="m43.2 67c0 0.1-0.2 0.3-0.4 0.3h-5.7q-0.2 0-0.3-0.1-0.1-0.2 0-0.3l1.1-1.7h-0.2q-0.1 0-0.2-0.1-0.1-0.1 0-0.2l1-1.6h-0.2q-0.1 0-0.1-0.1-0.1-0.1 0-0.2l1.6-2.4q0-0.1 0.1-0.1 0.1 0 0.2 0.1l1.6 2.4q0 0 0 0.1c0 0.1-0.1 0.2-0.2 0.2h-0.2l1.1 1.6q0 0 0 0.1c0 0.1-0.1 0.2-0.2 0.2h-0.2l1.1 1.6q0 0.1 0.1 0.2z"/><path class="v" d="m40.1 60.6q0 0 0 0 0 0 0 0z"/><path class="m" d="m40 67.3v-0.4h0.4c0.2 0 0.4-0.2 0.4-0.4q0-0.1-0.1-0.2l-0.7-1.2v-4.6q0 0 0.1 0.1 0 0 0 0l0.7 1.1q0 0.3 0 0.5c0 1.4 0.6 2.5 1.4 3h-0.2l1.1 1.6q0 0.1 0.1 0.2c0 0.1-0.2 0.3-0.4 0.3z"/><path class="h" d="m39.7 68.5v-2.4c0-0.1 0.1-0.2 0.2-0.2 0.1 0 0.2 0.1 0.2 0.2v2.4z"/><path class="i" d="m61.3 63.9c0 1.3-0.7 2.4-1.6 2.4-1 0-1.7-1.1-1.7-2.4 0-1.3 0.7-2.4 1.6-2.4 1 0 1.7 1.1 1.7 2.4z"/><path fill-rule="evenodd" class="n" d="m61.3 63.6q0 0 0 0 0 0 0 0zm0 0q0 0 0 0 0 0 0 0zm0 0q0 0 0 0 0 0 0 0zm0 0q0 0 0 0 0 0 0 0zm0 0q0 0 0 0 0 0 0 0zm0 0q0 0 0 0 0 0 0 0zm0-0.1q0 0 0 0 0 0 0 0zm0 0q0 0 0 0 0 0 0 0zm0 0q0 0 0 0 0 0 0 0zm0 0q0 0 0 0 0 0 0 0zm0 0q0 0 0 0 0 0 0 0zm0 0q0 0 0 0 0 0 0 0z"/><path class="r" d="m61 62.5q-0.2-0.3-0.3-0.5 0.1 0.2 0.3 0.5z"/><path class="n" d="m61.3 63.5q-0.1-0.6-0.3-1 0.2 0.4 0.3 1z"/><path class="r" d="m60.7 62q0 0 0 0 0 0 0 0z"/><path class="k" d="m59.8 66.3v-1.2q0-0.1-0.1-0.1v-3.5c0.3 0 0.7 0.2 1 0.5q0 0 0 0 0 0 0 0 0.1 0.2 0.3 0.5 0.2 0.4 0.3 1 0 0 0 0 0 0 0 0 0 0 0 0 0 0 0 0 0 0 0 0 0 0 0 0 0 0 0 0 0 0 0 0 0 0 0 0 0 0 0 0 0 0.1 0 0.1 0 0 0 0 0 0 0 0 0 0 0 0 0 0 0 0 0 0 0 0 0 0 0 0 0 0 0 0 0 0 0 0 0 0 0 0 0 0 0 0 0 0 0 0 0 0 0 0 0 0.1 0 0.3c0 1.2-0.6 2.3-1.5 2.4z"/><path class="h" d="m59.5 68.5v-3.4c0-0.1 0.1-0.1 0.1-0.1 0.1 0 0.2 0 0.2 0.1v3.4z"/><path class="i" d="m8 65.1c0 0.9-0.5 1.6-1.1 1.7-0.6 0-1.1-0.8-1.1-1.6 0-0.9 0.5-1.6 1.1-1.6 0.6-0.1 1.1 0.7 1.1 1.5z"/><path class="n" d="m7.6 66.5q0 0 0-0.1 0 0.1 0 0.1zm0-0.1c0.3-0.2 0.4-0.7 0.4-1.3 0 0.6-0.1 1.1-0.4 1.3z"/><path class="k" d="m6.9 66.7v-3.1c0.6 0 1.1 0.7 1.1 1.5 0 0.6-0.1 1.1-0.4 1.3q0 0.1 0 0.1-0.3 0.2-0.7 0.2z"/><path class="h" d="m6.8 68.5v-2.4q0-0.1 0.1-0.1 0.1 0 0.1 0.1v2.4z"/><path class="f" d="m20.5 67.5c0 0.1-0.1 0.2-0.2 0.2h-4.5q-0.1 0-0.2-0.1 0-0.1 0-0.2l0.8-1.3h-0.1q-0.1 0-0.1-0.1-0.1-0.1 0-0.2l0.8-1.2h-0.2q-0.1 0-0.1-0.1-0.1 0 0-0.1l1.2-1.9q0 0 0.1 0 0.1 0 0.2 0l1.2 1.9q0 0 0 0.1c0 0 0 0.1-0.1 0.1h-0.2l0.8 1.2q0.1 0.1 0.1 0.1c0 0.1-0.1 0.2-0.2 0.2h-0.2l0.9 1.2q0 0.1 0 0.2z"/><path class="g" d="m20.5 67.5c0 0.1-0.1 0.2-0.2 0.2h-2.2v-5.2q0 0 0.1 0l1.2 1.9q0 0 0 0.1c0 0 0 0.1-0.1 0.1h-0.2l0.8 1.2q0.1 0.1 0.1 0.1c0 0.1-0.1 0.2-0.2 0.2h-0.2l0.9 1.2q0 0.1 0 0.2z"/><path class="h" d="m17.9 68.5v-1.7c0-0.1 0-0.2 0.1-0.2 0.1 0 0.2 0.1 0.2 0.2v1.7z"/><path class="f" d="m27.8 67.1c0 0.1-0.1 0.2-0.3 0.2l-5.8 0.1q-0.1 0-0.2-0.2-0.1-0.1 0-0.3l1-1.6h-0.1q-0.2 0-0.3-0.1 0-0.1 0-0.2l1.1-1.7h-0.2q-0.1 0-0.2 0 0-0.1 0-0.2l1.6-2.5q0.1 0 0.2 0 0.1 0 0.2 0l1.6 2.5q0 0 0 0.1c0 0.1-0.1 0.1-0.2 0.1h-0.2l1.1 1.6q0 0.1 0 0.2c0 0.1-0.1 0.2-0.3 0.2h-0.1l1.1 1.6q0 0.1 0 0.2z"/><path class="g" d="m27.8 67.1c0 0.1-0.1 0.2-0.3 0.2l-2.9 0.1v-6.8q0.1 0 0.2 0l1.6 2.5q0 0 0 0.1c0 0.1-0.1 0.1-0.2 0.1h-0.2l1.1 1.6q0 0.1 0 0.2c0 0.1-0.1 0.2-0.3 0.2h-0.1l1.1 1.6q0 0.1 0 0.2z"/><path class="h" d="m24.4 68.5v-2.3c0-0.1 0.1-0.2 0.2-0.2 0.1 0 0.2 0.1 0.2 0.2v2.3z"/><path class="f" d="m32.3 67c0 0.2-0.2 0.3-0.4 0.3l-5.7 0.1q-0.2-0.1-0.3-0.2-0.1-0.1 0-0.3l1.1-1.6h-0.2q-0.1 0-0.2-0.1-0.1-0.1 0-0.3l1-1.6h-0.2q-0.1 0-0.1-0.1-0.1 0 0-0.1l1.6-2.5q0-0.1 0.1-0.1 0.1 0 0.2 0.1l1.6 2.4q0 0.1 0 0.1c0 0.1 0 0.2-0.1 0.2h-0.3l1.1 1.6q0 0.1 0 0.1c0 0.2-0.1 0.3-0.2 0.3h-0.2l1.1 1.6q0.1 0 0.1 0.1z"/><path class="g" d="m32.3 67c0 0.2-0.2 0.3-0.4 0.3h-2.8v-6.8q0 0.1 0.1 0.1l1.6 2.4q0 0.1 0 0.1c0 0.1 0 0.2-0.1 0.2h-0.3l1.1 1.6q0 0.1 0 0.1c0 0.2-0.1 0.3-0.2 0.3h-0.2l1.1 1.6q0.1 0 0.1 0.1z"/><path class="h" d="m28.8 68.5v-2.3c0-0.1 0.1-0.2 0.2-0.2 0.1 0 0.2 0.1 0.2 0.2v2.3z"/><path class="f" d="m40.8 66.5c0 0.2-0.2 0.4-0.4 0.4h-7.5q-0.3 0-0.4-0.2-0.1-0.2 0-0.3l1.4-2.2h-0.2q-0.2 0-0.3-0.1-0.1-0.2 0-0.3l1.4-2.1h-0.3q-0.1 0-0.2-0.1-0.1-0.2 0-0.3l2.1-3.2q0.1-0.1 0.2-0.1 0.1 0 0.2 0.1l2.1 3.2q0.1 0.1 0.1 0.1c0 0.1-0.2 0.2-0.3 0.2h-0.3l1.4 2.1q0.1 0.1 0.1 0.2c0 0.2-0.2 0.3-0.4 0.3h-0.2l1.4 2.1q0.1 0.1 0.1 0.2z"/><path class="g" d="m40.8 66.5c0 0.2-0.2 0.4-0.4 0.4h-3.7l-0.1-8.9q0.1 0.1 0.2 0.1l2.1 3.2q0.1 0.1 0.1 0.1c0 0.1-0.2 0.2-0.3 0.2h-0.3l1.4 2.1q0.1 0.1 0.1 0.2c0 0.2-0.2 0.3-0.4 0.3h-0.2l1.4 2.1q0.1 0.1 0.1 0.2z"/><path class="h" d="m36.4 68.5l-0.1-3.1c0-0.2 0.2-0.3 0.3-0.3 0.1 0 0.3 0.1 0.3 0.3v3.1z"/><path class="f" d="m63.1 67.7c0 0.1 0 0.1-0.1 0.1l-2.9 0.1q-0.1 0-0.2-0.1 0-0.1 0-0.2l0.6-0.8h-0.1q-0.1 0-0.1 0 0-0.1 0-0.1l0.5-0.9h-0.1q0 0-0.1 0 0 0 0-0.1l0.8-1.2q0.1-0.1 0.1-0.1 0.1 0 0.1 0.1l0.8 1.2q0 0.1-0.1 0.1h-0.1l0.6 0.8v0.1q0 0.1-0.2 0.1l0.5 0.8q0 0.1 0 0.1z"/><path class="g" d="m63.1 67.7c0 0.1 0 0.1-0.1 0.1l-1.5 0.1v-3.5q0.1 0.1 0.1 0.1l0.8 1.2q0 0.1-0.1 0.1h-0.1l0.6 0.8v0.1q0 0.1-0.2 0.1l0.5 0.8q0 0.1 0 0.1z"/><path class="h" d="m61.4 68.5v-1.2q0-0.1 0.1-0.1 0.1 0 0.1 0.1v1.2z"/><path class="f" d="m55.7 67.6c0 0.1-0.1 0.1-0.2 0.1h-3.5q-0.2 0-0.2 0-0.1-0.1 0-0.2l0.6-1h-0.1q-0.1 0-0.1-0.1 0-0.1 0-0.1l0.6-1h-0.1q0 0-0.1-0.1 0 0 0-0.1l1-1.5q0 0 0.1 0 0.1 0 0.1 0l1 1.5v0.1q0 0.1-0.1 0.1h-0.1l0.6 0.9q0 0.1 0 0.1c0 0.1 0 0.2-0.1 0.2h-0.1l0.6 1q0.1 0 0.1 0.1z"/><path class="g" d="m55.7 67.6c0 0.1-0.1 0.1-0.2 0.1h-1.8v-4.1q0.1 0 0.1 0l1 1.5v0.1q0 0.1-0.1 0.1h-0.1l0.6 0.9q0 0.1 0 0.1c0 0.1 0 0.2-0.1 0.2h-0.1l0.6 1q0.1 0 0.1 0.1z"/><path class="h" d="m53.6 68.5v-1.5q0-0.1 0.1-0.1 0.1 0 0.1 0.1v1.5z"/><path class="f" d="m16.2 67.5c0 0.1-0.1 0.2-0.2 0.2h-4.4q-0.2 0-0.3-0.1 0-0.1 0-0.2l0.9-1.3h-0.2q-0.1 0-0.1-0.1-0.1 0 0-0.1l0.8-1.3h-0.2q-0.1 0-0.1 0-0.1-0.1 0-0.2l1.2-1.9q0.1 0 0.1 0 0.1 0 0.2 0l1.2 1.9q0 0 0 0.1c0 0 0 0.1-0.1 0.1h-0.2l0.8 1.2q0.1 0.1 0.1 0.1c0 0.1-0.1 0.2-0.2 0.2h-0.1l0.8 1.2q0 0.1 0 0.2z"/><path class="g" d="m16.2 67.5c0 0.1-0.1 0.2-0.2 0.2h-2.2v-5.2q0 0 0.1 0l1.2 1.9q0 0 0 0.1c0 0 0 0.1-0.1 0.1h-0.2l0.8 1.2q0.1 0.1 0.1 0.1c0 0.1-0.1 0.2-0.2 0.2h-0.1l0.8 1.2q0 0.1 0 0.2z"/><path class="h" d="m13.6 68.5v-1.7c0-0.1 0.1-0.1 0.1-0.1 0.1 0 0.2 0 0.2 0.1v1.7z"/><path class="f" d="m10.7 67.8c0 0.1-0.1 0.1-0.2 0.1h-3.5q-0.1 0-0.2 0 0-0.1 0-0.2l0.7-1h-0.1q-0.1 0-0.2-0.1 0-0.1 0-0.1l0.7-1h-0.2q0 0 0-0.1-0.1 0 0-0.1l0.9-1.4q0.1-0.1 0.1-0.1 0.1 0 0.1 0.1l1 1.4v0.1q0 0.1-0.1 0.1h-0.1l0.6 1q0.1 0 0.1 0c0 0.1-0.1 0.2-0.2 0.2h-0.1l0.7 1q0 0 0 0.1z"/><path class="g" d="m10.7 67.8c0 0.1-0.1 0.1-0.2 0.1h-1.7l-0.1-4.1q0.1 0 0.1 0.1l1 1.4v0.1q0 0.1-0.1 0.1h-0.1l0.6 1q0.1 0 0.1 0c0 0.1-0.1 0.2-0.2 0.2h-0.1l0.7 1q0 0 0 0.1z"/><path class="h" d="m8.6 68.5v-1.3q0-0.1 0.1-0.1 0.1 0 0.1 0.1l0.1 1.3z"/><path class="i" d="m12.4 65.9c0.1 0.7-0.3 1.3-0.8 1.3-0.5 0-0.9-0.6-0.9-1.3 0-0.7 0.4-1.2 0.9-1.2 0.4 0 0.8 0.5 0.8 1.2z"/><path fill-rule="evenodd" class="o" d="m12.4 66.1q0 0 0 0 0 0 0 0zm0 0q0 0 0 0 0 0 0 0zm0 0zm0 0q0 0 0 0 0 0 0 0zm0 0q0 0 0 0 0 0 0 0zm0 0q0 0 0 0 0 0 0 0zm0 0q0 0 0 0 0 0 0 0zm0 0q0 0 0 0 0 0 0 0zm0 0q0 0 0 0 0 0 0 0zm0 0q0-0.1 0-0.2 0 0.1 0 0.2zm0-0.3zm0 0zm0 0zm0 0zm0 0q0 0 0 0 0 0 0 0zm0 0q0 0 0 0 0 0 0 0zm0 0zm0 0q0 0 0 0 0 0 0 0zm0 0q0 0 0 0 0 0 0 0zm0 0zm0 0q0 0 0 0 0 0 0 0zm0 0q0 0 0 0 0 0 0 0zm0 0q0 0 0 0 0 0 0 0zm0 0q0 0 0 0 0 0 0 0zm0 0q0 0 0 0 0 0 0 0zm0 0q0 0 0 0 0 0 0 0zm0 0q0 0 0 0 0 0 0 0zm0 0q0 0 0 0 0 0 0 0zm0 0q0-0.1 0-0.1 0 0 0 0.1zm0-0.1q0-0.2-0.1-0.4 0.1 0.2 0.1 0.4z"/><path class="u" d="m11.8 64.7q0 0 0 0 0 0 0 0zm0 0q-0.1 0-0.2 0 0.1 0 0.2 0z"/><path class="k" d="m11.6 67.2v-2.5q0.1 0 0.2 0 0 0 0 0 0 0 0 0c0.2 0.1 0.4 0.3 0.5 0.6q0.1 0.2 0.1 0.5 0 0 0 0 0 0 0 0 0 0 0 0 0 0 0 0 0 0 0 0 0 0 0 0 0 0 0 0 0 0 0 0 0 0 0 0 0 0 0 0 0 0 0 0 0 0 0 0 0 0 0 0 0 0 0 0 0 0 0 0 0 0 0 0 0 0 0 0 0 0 0 0 0 0 0 0 0 0 0 0 0 0 0 0 0 0 0 0 0 0 0 0 0 0 0 0 0 0 0 0 0 0 0 0 0 0 0 0 0 0 0 0 0 0 0 0 0 0 0 0 0 0.1 0 0.1 0 0 0 0 0 0.1 0 0.2 0 0 0 0 0 0 0 0 0 0 0 0 0 0 0 0 0 0 0 0 0 0 0 0 0 0 0 0 0 0 0 0 0 0 0 0 0 0 0 0 0 0 0 0 0 0 0 0 0 0 0 0 0 0 0 0 0 0 0 0 0 0 0 0c0 0.6-0.4 1.1-0.8 1.1z"/><path class="h" d="m11.5 68.5v-1.8q0-0.1 0.1-0.1 0.1 0 0.1 0.1v1.8z"/><path class="f" d="m21.9 66.8c0 0.4-0.3 0.8-0.6 0.8-0.4 0-0.6-0.4-0.6-0.8 0-0.5 0.2-0.9 0.5-0.9 0.4 0 0.7 0.4 0.7 0.9z"/><path class="v" d="m21.3 67.6q0.2 0 0.4-0.2-0.2 0.2-0.4 0.2z"/><path class="w" d="m21.7 67.4q0.1-0.3 0.2-0.6-0.1 0.3-0.2 0.6zm0.2-0.7q0 0 0 0 0 0 0 0zm0 0zm0 0zm0 0q0 0 0 0 0 0 0 0z"/><path class="m" d="m21.8 66.4c-0.1-0.3-0.3-0.5-0.5-0.5 0.2 0 0.4 0.2 0.5 0.5z"/><path class="w" d="m21.9 66.7q-0.1-0.1-0.1-0.3 0 0.2 0.1 0.3z"/><path class="w" d="m21.3 67.6v-1.7c0.2 0 0.4 0.2 0.5 0.5q0 0.2 0.1 0.3 0 0 0 0 0 0 0 0 0 0 0 0 0 0 0 0 0 0 0 0 0 0.1 0 0.1-0.1 0.3-0.2 0.6-0.2 0.2-0.4 0.2z"/><path class="h" d="m21.2 68.5v-1.2q0-0.1 0.1-0.1 0 0 0 0.1v1.2z"/><path class="i" d="m34 65c0 0.9-0.5 1.6-1.1 1.6-0.7 0-1.2-0.7-1.2-1.6 0-0.9 0.5-1.6 1.2-1.6 0.6 0 1.1 0.7 1.1 1.6z"/><path class="o" d="m33.8 65.9zm0 0q0 0 0 0 0 0 0 0zm0 0q0 0 0 0 0 0 0 0zm0 0q0 0 0 0 0 0 0 0zm0 0q0 0 0 0 0 0 0 0zm0 0q0 0 0 0 0 0 0 0zm0 0zm0 0q0 0 0 0 0 0 0 0zm0 0q0 0 0-0.1 0 0.1 0 0.1zm0-0.1q0 0 0 0 0 0 0 0zm0 0q0 0 0 0 0 0 0 0zm0 0q0 0 0 0 0 0 0 0zm0 0q0 0 0 0 0 0 0 0zm0.1 0q0 0 0 0 0 0 0 0zm0 0q0 0 0 0 0 0 0 0zm0 0q0 0 0 0 0 0 0 0zm0 0q0 0 0 0 0 0 0 0zm0 0q0 0 0 0 0 0 0 0zm0 0q0 0 0 0 0 0 0 0zm0 0q0 0 0 0 0 0 0 0zm0 0q0 0 0 0 0 0 0 0zm0 0q0 0 0 0 0 0 0 0zm0 0q0.1-0.4 0.1-0.8 0 0.4-0.1 0.8z"/><path class="k" d="m32.9 66.6v-3.2c0.6 0 1.1 0.7 1.1 1.6q0 0.4-0.1 0.8 0 0 0 0 0 0 0 0 0 0 0 0 0 0 0 0 0 0 0 0 0 0 0 0 0 0 0 0 0 0 0 0 0 0 0 0-0.1 0-0.1 0 0 0 0 0 0 0 0 0 0 0 0 0 0 0 0 0 0 0 0 0 0 0 0 0 0 0 0 0 0 0.1 0 0.1 0 0 0 0 0 0 0 0 0 0 0 0 0 0 0 0 0 0 0 0 0 0 0 0 0 0 0 0 0 0 0 0 0 0 0 0 0 0 0 0 0 0 0 0 0 0 0 0 0 0 0 0 0 0 0 0 0 0 0 0 0 0 0 0c-0.2 0.4-0.5 0.7-0.9 0.7z"/><path class="h" d="m32.8 68.5v-2.5q0-0.1 0.1-0.2 0.1 0.1 0.1 0.2v2.5z"/><path class="i" d="m45.4 62.2c0 1.8-1 3.3-2.3 3.3-1.3 0-2.3-1.5-2.3-3.3 0-1.8 1-3.3 2.3-3.3 1.3 0 2.3 1.5 2.3 3.3z"/><path class="n" d="m45.4 62.5q0-0.1 0-0.3 0 0.2 0 0.3z"/><path class="r" d="m45.4 62.8q0-0.2 0-0.3 0 0.1 0 0.3z"/><path class="k" d="m43.2 65.5l-0.1-6.6c1.3 0.1 2.3 1.5 2.3 3.3q0 0.2 0 0.3 0 0.1 0 0.3l-0.7 1q0 0 0 0.1 0.1 0.1 0.2 0.1h0.2l-0.6 0.9c-0.4 0.4-0.8 0.6-1.3 0.6z"/><path class="h" d="m42.9 68.5v-4.6c0-0.1 0.1-0.2 0.2-0.2 0.1 0 0.2 0.1 0.2 0.2v4.6z"/><path class="i" d="m52.2 63.9c0 1.4-0.7 2.4-1.7 2.4-0.9 0-1.7-1-1.7-2.4 0-1.3 0.8-2.3 1.7-2.3 0.9 0 1.7 1 1.7 2.3z"/><path class="o" d="m50.5 66.3q0.2 0 0.4 0-0.2 0-0.4 0zm0.4 0q0 0 0 0 0 0 0 0z"/><path class="r" d="m52.2 64.4q0 0 0 0 0 0 0 0zm0 0q0 0 0 0 0 0 0 0zm0 0zm0 0q0 0 0 0 0 0 0 0zm0 0q0 0 0 0 0 0 0 0zm0 0q0 0 0 0 0 0 0 0zm0 0q0 0 0 0 0 0 0 0zm0 0q0 0 0 0 0 0 0 0zm0 0q0 0 0 0 0 0 0 0zm0 0q0 0 0 0 0 0 0 0zm0 0q0 0 0 0 0 0 0 0zm0 0q0 0 0 0 0 0 0 0zm0 0q0 0 0-0.1 0 0.1 0 0.1zm0-0.1q0 0 0 0 0 0 0 0zm0 0q0-0.2 0-0.4 0 0.2 0 0.4z"/><path class="o" d="m51.8 62.4q-0.2-0.3-0.3-0.4 0.1 0.1 0.3 0.4z"/><path class="r" d="m52.2 63.9c0-0.6-0.2-1.1-0.4-1.5 0.2 0.4 0.4 0.9 0.4 1.5z"/><path class="k" d="m50.5 66.3v-4.7q0.6 0 1 0.4 0.1 0.1 0.3 0.4c0.2 0.4 0.4 0.9 0.4 1.5q0 0.2 0 0.4 0 0 0 0v0.1q0 0 0 0 0 0 0 0 0 0 0 0 0 0 0 0 0 0 0 0 0 0 0 0 0 0 0 0 0 0 0 0 0 0 0 0 0 0 0 0 0 0 0 0 0 0 0 0 0 0 0 0 0 0 0 0 0 0 0 0 0 0 0 0 0 0 0 0 0 0 0 0 0 0 0 0 0 0 0 0 0 0 0 0 0 0 0 0 0 0 0 0c-0.2 1-0.7 1.7-1.3 1.9q0 0 0 0 0 0 0 0-0.2 0-0.4 0z"/><path class="h" d="m50.4 68.5v-3.3c0-0.1 0-0.2 0.1-0.2 0.1 0 0.2 0.1 0.2 0.2v3.3z"/><path class="i" d="m57.6 65.1c0 0.9-0.5 1.8-1.2 1.8-0.7 0-1.3-0.8-1.3-1.8 0-1 0.6-1.8 1.3-1.8 0.7 0 1.2 0.8 1.2 1.8z"/><path fill-rule="evenodd" class="n" d="m56.7 66.8zm0 0q0 0 0 0 0 0 0 0zm0 0q0 0 0 0 0 0 0 0zm0 0q0.2-0.1 0.3-0.2-0.1 0.1-0.3 0.2zm0.3-0.2q0 0 0 0 0 0 0 0zm0 0q0 0 0 0 0 0 0 0zm0.1 0q0 0 0 0 0 0 0 0zm0 0zm0.5-1.3q0 0 0 0 0 0 0 0zm0 0q0 0 0 0 0 0 0 0zm0 0zm0 0q0 0 0 0 0 0 0 0zm0 0q0 0 0 0 0 0 0 0zm0 0q0 0 0 0 0 0 0 0zm0 0q0 0 0 0 0 0 0 0zm0 0q0 0 0 0 0 0 0 0zm0 0q0 0 0 0 0 0 0 0zm0 0q0 0 0 0 0 0 0 0zm0 0q0 0 0 0 0 0 0 0zm0 0q0 0 0 0 0 0 0 0zm0 0q0-0.1 0-0.1 0 0 0 0.1zm0-0.1q0 0 0 0 0 0 0 0zm0 0q0-0.1 0-0.1 0 0 0 0.1zm-1.1-1.9q-0.1 0-0.1 0 0 0 0.1 0z"/><path class="k" d="m56.5 66.8v-0.8q0-0.1-0.1-0.1v-2.6q0 0 0.1 0c0.6 0.1 1.1 0.8 1.1 1.8q0 0.1 0 0.1 0 0 0 0 0 0 0 0.1 0 0 0 0 0 0 0 0 0 0 0 0 0 0 0 0 0 0 0 0 0 0 0 0 0 0 0 0 0 0 0 0 0 0 0 0 0 0 0 0 0 0 0 0 0 0 0 0 0 0 0 0 0 0 0 0 0 0 0 0 0 0 0 0 0 0 0 0 0 0 0 0 0 0 0 0 0 0 0 0 0 0 0 0c0 0.5-0.2 1-0.5 1.3q0 0 0 0-0.1 0-0.1 0 0 0 0 0 0 0 0 0 0 0 0 0 0 0 0 0-0.1 0.1-0.3 0.2 0 0 0 0 0 0 0 0 0 0 0 0-0.1 0-0.2 0z"/><path class="h" d="m56.3 68.5v-2.5q0-0.1 0.1-0.1 0.1 0 0.1 0.1v2.5z"/><path class="f" d="m49.1 67.2c0 0.1-0.2 0.2-0.3 0.2l-5 0.1q-0.2 0-0.2-0.2-0.1-0.1 0-0.2l0.9-1.4h-0.2q-0.1 0-0.1-0.1-0.1-0.1 0-0.2l0.9-1.4h-0.2q-0.1 0-0.2-0.1 0-0.1 0-0.1l1.4-2.1q0.1-0.1 0.2-0.1 0.1 0 0.1 0.1l1.4 2q0 0.1 0 0.1c0 0.1 0 0.2-0.1 0.2h-0.2l0.9 1.3q0 0.1 0 0.2c0 0.1-0.1 0.2-0.2 0.2h-0.1l0.9 1.3q0.1 0.1 0.1 0.2z"/><path class="g" d="m49.1 67.2c0 0.1-0.2 0.2-0.3 0.2h-2.5v-5.8q0.1 0 0.1 0.1l1.4 2q0 0.1 0 0.1c0 0.1 0 0.2-0.1 0.2h-0.2l0.9 1.3q0 0.1 0 0.2c0 0.1-0.1 0.2-0.2 0.2h-0.1l0.9 1.3q0.1 0.1 0.1 0.2z"/><path class="h" d="m46.1 68.5v-2.1c0-0.1 0.1-0.1 0.2-0.1 0.1 0 0.1 0 0.1 0.1v2.1z"/><path class="s" d="m7.8 68.5c0.1-0.3 0.3-0.5 0.6-0.5 0.3 0 0.6 0.2 0.7 0.5z"/><path class="t" d="m9.1 68.5h-0.7v-0.5q0 0 0 0c0.3 0 0.6 0.2 0.7 0.5z"/><path class="s" d="m10.1 68.5c0.1-0.3 0.4-0.5 0.7-0.5 0.3 0 0.6 0.2 0.7 0.5z"/><path class="t" d="m11.5 68.5h-0.7v-0.5c0.3 0 0.6 0.2 0.7 0.5z"/><path class="s" d="m14 68.5c0.1-0.5 0.5-0.8 1-0.8 0.5 0 0.9 0.3 1 0.8z"/><path class="t" d="m16 68.5h-1v-0.8q0 0 0 0c0.5 0 0.9 0.3 1 0.8z"/><path class="s" d="m18.5 68.5c0-0.2 0.2-0.3 0.4-0.3 0.2 0 0.4 0.1 0.5 0.3z"/><path class="t" d="m19.4 68.5h-0.5v-0.3q0 0 0 0c0.2 0 0.4 0.1 0.5 0.3z"/><path class="s" d="m22.8 68.5c0-0.3 0.3-0.6 0.7-0.6 0.3 0 0.6 0.3 0.7 0.6z"/><path class="t" d="m24.2 68.5h-0.7v-0.6q0 0 0 0c0.3 0 0.6 0.3 0.7 0.6z"/><path class="s" d="m24.4 68.5c0.1-0.3 0.4-0.6 0.7-0.6 0.3 0 0.6 0.3 0.7 0.6z"/><path class="t" d="m25.8 68.5h-0.7v-0.6q0 0 0 0 0 0 0 0c0.3 0 0.6 0.3 0.7 0.6z"/><path class="s" d="m29.8 68.5c0.1-0.3 0.4-0.6 0.7-0.6 0.4 0 0.7 0.3 0.8 0.6z"/><path class="t" d="m31.3 68.5h-0.8v-0.6q0 0 0 0c0.4 0 0.7 0.3 0.8 0.6z"/><path class="s" d="m36.6 68.5c0.1-0.4 0.4-0.6 0.8-0.6 0.3 0 0.6 0.2 0.7 0.6z"/><path class="t" d="m38.1 68.5h-0.7v-0.6q0 0 0 0c0.3 0 0.6 0.2 0.7 0.6z"/><path class="s" d="m40 68.5c0-0.6 0.5-1 1.1-1 0.6 0 1.1 0.4 1.2 1z"/><path class="t" d="m42.3 68.5h-1.2v-1q0 0 0 0 0 0 0 0c0.6 0 1.1 0.4 1.2 1z"/><path class="s" d="m47.9 68.5c0.1-0.5 0.5-0.8 1-0.8 0.4 0 0.8 0.3 0.9 0.8z"/><path class="t" d="m49.8 68.5h-0.9v-0.8q0 0 0 0c0.4 0 0.8 0.3 0.9 0.8z"/><path class="s" d="m55.2 68.5c0-0.5 0.4-0.9 0.9-0.9 0.5 0 0.9 0.4 0.9 0.9z"/><path class="t" d="m57 68.5h-0.9v-0.9q0 0 0 0 0 0 0 0c0.5 0 0.9 0.4 0.9 0.9z"/><path class="s" d="m58 68.5c0-0.5 0.4-0.9 0.9-0.9 0.5 0 0.9 0.4 0.9 0.9z"/><path class="t" d="m59.8 68.5h-0.9v-0.9q0 0 0 0 0 0 0 0c0.5 0 0.9 0.4 0.9 0.9z"/><g clip-path="url(#cp2)"><path class="x" d="m56 0.1l10.4 20.5-1.8 8.4-3.2-8.1-1.6 5.2h-3.4l-1.7-10.5-5.8 8.8-1.8-6.6z"/></g><g clip-path="url(#cp3)"><path class="c" d="m102.2 70.3c0 1-0.8 1.8-1.8 1.8h-98.4c-1 0-1.8-0.8-1.8-1.8 0-1 0.8-1.8 1.8-1.8h98.4c1 0 1.8 0.8 1.8 1.8z"/></g></svg>