<svg width="64" height="64" viewBox="0 0 64 64" fill="currentColor" xmlns="http://www.w3.org/2000/svg">
<path d="M44.3326 21.5021C44.6521 21.567 44.9595 21.5952 45.0105 22.0522C45.0364 22.285 45.3505 22.3088 45.5823 22.3151C45.9982 22.3264 46.107 22.3937 46.0822 22.7644C46.0622 23.0639 46.159 23.1525 46.4389 23.1771C46.8075 23.2096 47.1529 23.3147 47.5409 23.1655C47.89 23.0314 48.0897 23.2084 48.2554 23.6289C48.2906 23.718 48.3409 23.8368 48.445 23.7725C48.9194 23.4799 49.4858 23.7079 49.994 23.4496C50.3316 23.278 50.8126 23.3557 51.1514 23.6812C51.3151 23.8386 51.5095 23.9143 51.7127 23.7759C51.9283 23.6292 52.1068 23.7642 52.2177 23.8783C52.57 24.2406 52.9678 24.1329 53.372 24.0559C53.4261 24.0455 53.4785 24.026 53.5317 24.0109C53.7512 23.9479 53.5455 24.4519 53.7915 24.2371C53.922 24.1233 54.0132 24.0994 54.1606 24.0815C54.8326 23.9999 55.328 24.381 55.8433 24.7188L55.5968 25.2977C55.579 25.2931 55.5611 25.289 55.5431 25.2852C55.3969 25.2547 55.2635 24.999 55.2195 25.0689C55.1283 25.2133 54.945 25.3368 54.9689 25.5387C54.9994 25.7978 54.8713 25.859 54.6418 25.87C54.4374 25.8798 54.2286 25.9159 54.0704 26.0775C53.9415 26.2092 53.7887 26.2118 53.6059 26.2048C53.1336 26.1866 52.8794 26.4109 52.8203 26.8896C52.7596 27.3807 52.3011 27.5569 52.0586 27.9028C51.9802 28.0145 51.9099 27.8697 51.8678 27.7952C51.6753 27.4541 51.7946 27.137 51.9662 26.8378C52.0493 26.693 52.1828 26.5779 52.2882 26.4451C52.3521 26.3645 52.5184 26.3128 52.4427 26.1875C52.3756 26.0767 52.2216 26.0466 52.0881 26.0501C51.9213 26.0545 51.8085 26.1689 51.7316 26.2987C51.5976 26.525 51.4397 26.4918 51.2076 26.4501C50.6025 26.3417 49.9759 26.2782 49.5544 26.8855C49.4429 27.0463 49.0976 27.0697 49.2029 27.3308C49.302 27.5765 49.6071 27.414 49.8138 27.4776C49.9666 27.5246 50.1724 27.4719 50.1793 27.6775C50.1866 27.8991 50.4121 28.1472 50.1605 28.3446C50.0824 28.4059 50.0119 28.4433 50.0013 28.5476C49.996 28.6002 49.9978 28.6798 49.9335 28.6796C49.8726 28.6794 49.8793 28.6009 49.873 28.5503C49.8684 28.513 49.8716 28.4749 49.8673 28.4374C49.8553 28.3325 49.9015 28.2187 49.82 28.1243C49.7916 28.2305 49.7819 28.3468 49.7315 28.4414C49.4918 28.893 49.2362 29.3195 48.6759 29.4555C48.1625 29.58 48.1115 29.6851 48.235 30.2035C48.28 30.3925 48.281 30.5535 48.0783 30.6203C47.8824 30.6849 47.8214 30.5029 47.7538 30.3769C47.7016 30.2798 47.6724 30.1656 47.6554 30.0557C47.6306 29.8946 47.5411 29.8801 47.4156 29.9262C47.3179 29.9621 47.2142 30.0838 47.1251 29.9396C47.0636 29.8401 47.0244 29.7743 46.9356 29.8991C46.8825 29.9738 46.7987 30.0659 46.8091 30.1386C46.8317 30.2969 46.9491 30.1688 47.0254 30.1762C47.2436 30.1976 47.4492 30.2236 47.1625 30.4807C47.0325 30.5974 47.0714 30.75 47.1012 30.9022C47.2534 31.6798 46.9201 32.2542 46.1821 32.5178C45.9977 32.5837 45.7674 32.5725 45.6878 32.8324C45.6371 32.9981 45.5613 32.984 45.4876 32.8182C45.3986 32.6177 45.2653 32.746 45.1653 32.8159C45.0297 32.911 45.0274 33.0301 45.1533 33.1442C45.2092 33.1948 45.269 33.2415 45.3212 33.2956C45.6776 33.6645 45.5521 34.1809 45.0673 34.3736C44.9336 34.4268 44.9131 34.3354 44.8595 34.2595C44.7139 34.053 44.4627 33.8092 44.2757 33.9784C44.0345 34.1966 44.2896 34.4558 44.4815 34.6395C44.6227 34.7746 44.7889 34.9372 44.7531 35.1127C44.6711 35.5142 45.0267 35.7583 45.0493 36.1139C45.0595 36.2742 45.2139 36.2982 45.3424 36.3338C45.7194 36.4384 46.0704 36.6544 46.487 36.5894C46.5586 36.5782 46.6639 36.607 46.6692 36.6841C46.6767 36.7934 46.5631 36.7619 46.4968 36.7679C46.0215 36.8105 45.5351 36.7305 45.1077 36.5939C44.7781 36.4886 44.4993 36.1096 44.2852 35.7933C44.1074 35.5298 43.9124 35.2784 43.7015 35.0405C43.6398 34.9711 43.5245 34.9272 43.599 34.8221C43.6831 34.7036 43.8059 34.7502 43.893 34.827C44.0196 34.9384 44.1301 35.0682 44.2488 35.1887C44.2882 35.2286 44.3445 35.2723 44.3922 35.2321C44.448 35.185 44.3882 35.1338 44.359 35.0929C44.0497 34.6602 43.9337 34.1801 43.9762 33.6511C43.9921 33.4538 43.9598 33.2564 43.6671 33.3196C43.4153 33.3739 43.422 33.1337 43.3345 33.0099C42.9675 32.4905 42.8311 32.4772 42.3597 32.8983C42.2514 32.9949 42.1327 33.0799 42.0143 33.1639C41.6071 33.453 41.4997 33.8811 41.709 34.3564C41.7518 34.4539 41.8568 34.5617 41.7408 34.6603C41.634 34.7512 41.5439 34.6362 41.4421 34.6014C40.9722 34.4408 40.7952 34.0493 40.7306 33.6281C40.6343 33.0006 40.162 32.6379 39.8244 32.1783C39.7378 32.0602 39.6084 32.0353 39.4726 32.0329C39.3031 32.0299 39.132 32.0149 38.9641 32.0314C38.8596 32.0416 38.7601 32.0264 38.6621 32.0049C38.4948 31.9684 38.3956 32.1832 38.532 32.2866C38.5971 32.3359 38.6677 32.3809 38.7279 32.4343C38.8363 32.5305 38.7247 32.5888 38.6932 32.6704C38.4941 33.1864 37.9975 33.3193 37.5708 33.5153C37.304 33.6379 37.0514 33.8231 36.7393 33.8415C36.6813 33.8449 36.6237 33.8753 36.6237 33.9415C36.6237 34.0309 36.6944 34.074 36.7696 34.0807C36.9607 34.098 37.1291 33.9937 37.3119 33.9646C37.5665 33.9241 37.6893 34.0968 37.5758 34.3282C37.3518 34.7851 37.0638 35.2065 36.6513 35.5277C36.0196 36.0196 35.9595 36.2205 36.1964 36.9573C36.382 37.5347 36.3602 37.6218 35.8567 38.0037C35.6646 38.1495 35.5 38.2831 35.5955 38.559C35.6333 38.6681 35.6426 38.8173 35.5522 38.8796C35.191 39.1291 35.0728 39.544 34.846 39.8815C34.4814 40.424 33.9226 40.398 33.3851 40.4389C33.2166 40.4517 33.0896 40.2846 33.0725 40.154C33.011 39.6841 32.778 39.2563 32.6164 38.8418C32.3679 38.204 32.1814 37.6542 32.4304 36.9817C32.5019 36.7887 32.4077 36.4699 32.2807 36.2824C32.0679 35.9682 31.9667 35.6517 31.9766 35.2821C31.9797 35.1644 31.9156 35.0178 31.797 35.035C31.4733 35.0821 31.2108 34.7839 30.9397 34.845C30.6355 34.9135 30.3024 34.8536 30.0228 35.0275C29.8351 35.1443 29.6689 35.0974 29.4979 34.9849C29.0686 34.7028 28.8253 34.2411 28.4506 33.9063C28.4114 33.8711 28.3876 33.8021 28.397 33.7503C28.5258 33.037 28.2795 32.2168 28.9525 31.6572C29.2797 31.3851 29.4089 30.9682 29.7237 30.6894C29.8559 30.5723 29.862 30.4138 29.6611 30.3354C29.5271 30.2831 29.3874 30.2078 29.431 30.0632C29.5036 29.8221 29.3638 29.5681 29.4859 29.3475C29.5956 29.1496 29.8086 29.1855 29.9952 29.1954C30.5512 29.225 30.602 29.1824 30.5032 28.6154C30.4614 28.3752 30.5186 28.2632 30.7238 28.1147C30.9618 27.9424 31.1893 27.742 31.4312 27.5711C31.8205 27.296 31.8645 27.1892 31.5865 26.7714C31.4995 26.6407 31.4431 26.5129 31.4087 26.3657C31.3133 25.9556 31.3776 25.7792 31.7647 25.5973C32.0348 25.4704 32.2373 25.3044 32.3561 25.027C32.5624 24.545 32.9599 24.2719 33.4305 24.0907C33.6236 24.0164 33.8253 23.9645 34.0198 23.8932C34.3662 23.7661 34.6621 23.7073 34.9761 24.0396C35.1828 24.2584 35.5772 24.2247 35.8509 24.4021C35.9439 24.4624 36.0885 24.4729 36.1467 24.5522C36.3745 24.8622 36.5415 25.0227 36.6708 24.4864C36.7006 24.3633 36.8973 24.3222 37.0035 24.4486C37.1647 24.6407 37.3099 24.5957 37.4929 24.49C37.7999 24.3128 38.1559 24.4026 38.4865 24.3382C38.8373 24.2699 38.6071 24.1187 38.562 23.9883L38.5682 23.9805C38.8442 24.037 39.1189 24.1014 39.3967 24.1468C39.5437 24.1708 39.6473 24.1744 39.693 23.9442C39.792 23.4446 40.0164 23.3504 40.5649 23.402C40.7612 23.4205 40.951 23.3867 41.1498 23.4745C41.2647 23.5252 41.4706 23.5029 41.5025 23.2989C41.547 23.0144 41.6924 23.051 41.9067 23.1139C42.1049 23.1719 42.3753 23.2712 42.3725 22.8711C42.3718 22.7663 42.5013 22.7472 42.5924 22.7273C42.9922 22.6401 43.3651 22.4566 43.7962 22.4758C44.192 22.4934 44.2988 22.2306 44.0861 21.8533C44.2027 21.7609 44.2698 21.6331 44.3326 21.5021ZM31.6485 29.2934C31.2312 29.3671 30.9481 29.6188 30.7781 29.9815C30.695 30.1588 30.6226 30.3178 30.439 30.4051C30.3778 30.4341 30.2536 30.4174 30.2686 30.4973C30.2804 30.5596 30.4056 30.5465 30.4727 30.5231C30.8091 30.4058 31.1439 30.296 31.5045 30.2647C31.7014 30.2476 31.8782 30.2759 32.0499 30.3544C32.2186 30.4317 32.197 30.5913 32.2063 30.7428C32.2136 30.8605 32.3057 30.9587 32.4236 30.9648C32.8012 30.9842 33.161 31.3043 33.5611 31.0253C33.6227 30.9823 33.7569 30.9912 33.8321 31.028C34.2481 31.2323 34.6932 31.0906 35.1208 31.1494C35.3302 31.1781 35.4046 30.9731 35.4448 30.821C35.4938 30.635 35.3429 30.6313 35.198 30.6213C35.0726 30.6125 34.9425 30.5075 34.8285 30.527C34.4358 30.5942 34.263 30.4311 34.2381 30.0543C34.2331 29.9781 34.1869 29.9056 34.0923 29.9186C34.0287 29.9274 34.0342 29.9973 34.0101 30.0436C33.8711 30.3111 33.5112 30.3571 33.3391 30.1294C33.2868 30.0604 33.2822 29.8774 33.2064 29.9154C32.8155 30.1115 32.6427 29.7486 32.3822 29.6226C32.2112 29.5399 32.1049 29.5095 32.0878 29.7577C32.0787 29.8898 32.0048 30.0566 31.8558 30.0127C31.6418 29.9497 31.8317 29.8013 31.8409 29.6893C31.8551 29.5214 31.9766 29.2979 31.6485 29.2934ZM33.1398 27.2367C33.4004 27.2503 33.3788 27.2366 33.4846 27.0698C33.7332 26.678 33.6346 26.2908 33.5049 25.9006C33.4684 25.7908 33.483 25.588 33.2818 25.6597C33.1286 25.7144 33.0327 25.8927 33.132 26.0276C33.4675 26.484 33.026 26.7043 32.8455 26.9803C32.7326 27.1529 32.5057 27.3279 32.3141 27.0019C32.2861 26.9542 32.2215 26.9156 32.1761 26.9606C32.1435 26.9929 32.1306 27.0663 32.1397 27.1157C32.1995 27.4395 32.4546 27.3705 32.6727 27.371C32.8409 27.3715 32.9475 27.1548 33.1398 27.2367ZM36.2397 29.5149C36.1602 29.2051 35.7207 29.2319 35.6557 28.8764C35.6409 28.7953 35.5301 29.0009 35.4512 29.0605C35.3264 29.1549 35.2003 29.1831 35.1229 29.0279C35.0596 28.9009 34.9916 28.8245 34.8815 28.9405C34.7557 29.0731 34.6067 29.2099 34.6309 29.424C34.6463 29.56 34.7509 29.6376 34.8659 29.6126C35.2266 29.534 35.5607 29.5845 35.9013 29.7185C36.044 29.7746 36.2003 29.7073 36.2397 29.5149ZM35.8841 32.4559C35.7661 32.4814 35.7615 32.5672 35.7553 32.6611C35.7371 32.9346 35.9338 33.0937 36.0784 33.28C36.144 33.3645 36.2115 33.5155 36.3199 33.4693C36.4765 33.4025 36.3779 33.2488 36.3482 33.1327C36.2921 32.9122 36.1295 32.751 36.0156 32.5627C35.9896 32.5194 35.9331 32.4945 35.8841 32.4559ZM7.66064 27.6198C8.13211 27.3306 8.60949 27.0542 9.13721 26.876C9.20452 26.8534 9.29808 26.8116 9.29077 26.7303C9.28233 26.636 9.16861 26.677 9.10899 26.6419C8.86608 26.4991 8.61427 26.3687 8.38402 26.2075C8.09958 26.0084 8.1128 25.8436 8.40568 25.6652C8.46886 25.6266 8.54321 25.6067 8.61202 25.577C8.69086 25.543 8.85136 25.5664 8.81986 25.4501C8.79221 25.3479 8.65505 25.4445 8.56683 25.4395C8.49268 25.4354 8.41299 25.4396 8.34614 25.4134C8.21724 25.363 8.10352 25.2669 8.12658 25.1203C8.15593 24.9336 8.32168 24.9192 8.47702 24.9174C8.54621 24.9166 8.64539 24.9977 8.67614 24.911C8.70474 24.8306 8.58624 24.8178 8.52652 24.779C8.08036 24.4894 8.08205 24.4185 8.53149 24.1576C8.64521 24.0916 8.75171 24.0105 8.87105 23.9577C9.21033 23.8077 9.52918 23.7169 9.92958 23.8577C10.3636 24.0103 10.8516 24.0014 11.3094 24.0958C11.8773 24.2129 12.4166 24.2156 12.9958 24.0684C13.5521 23.927 14.1484 24.0322 14.7064 24.2284C14.7735 24.252 14.8594 24.3112 14.9116 24.2334C14.9587 24.163 14.9011 24.0866 14.8381 24.0441C14.7438 23.9809 14.6577 23.9277 14.6338 23.7964C14.6067 23.6478 14.5187 23.6146 14.4041 23.7379C14.2681 23.884 14.1046 23.8814 13.9377 23.8087C13.7669 23.7344 13.6363 23.6253 13.7545 23.4192C13.8207 23.3038 13.8931 23.1984 13.8852 23.056C13.8739 22.8562 14.0486 22.8123 14.1481 22.8762C14.4685 23.0817 14.8701 22.9678 15.1955 23.2192C15.4631 23.426 15.8326 23.4867 16.1855 23.2715C16.3892 23.1474 16.6042 23.1199 16.5597 23.4862C16.5424 23.6284 16.5901 23.7837 16.6955 23.8395C16.9848 23.9926 17.2276 24.1106 16.8157 24.4101C16.7294 24.4729 16.7936 24.5913 16.901 24.6217C17.0291 24.658 17.2127 24.6832 17.2275 24.5199C17.2447 24.3286 17.3111 24.2247 17.4604 24.1144C17.7041 23.9344 17.6631 23.8245 17.3502 23.8212C17.0959 23.8185 17.0088 23.555 16.8175 23.4501C17.0403 23.41 17.1279 23.1427 17.3682 23.1262C17.499 23.1172 17.6285 23.0889 17.7584 23.0675C17.9436 23.0371 18.0705 22.9448 18.0977 22.7459C18.1116 22.645 18.1043 22.552 17.9851 22.5283C17.8152 22.4945 17.6657 22.3935 17.5124 22.6396C17.2958 22.9869 16.8667 22.6962 16.5668 22.8553L16.4891 22.6495C16.5361 22.5996 16.5413 22.5499 16.4889 22.5001C16.5274 22.3 16.3822 22.1196 16.4792 21.8953C16.642 21.519 16.6829 21.4805 17.011 21.6885C17.1089 21.7505 17.2341 21.8205 17.1959 21.9409C17.1446 22.102 17.0082 21.9655 16.9107 21.9721C16.7896 21.9802 16.6731 21.9911 16.6718 22.143C16.6705 22.2924 16.7808 22.3189 16.9057 22.3182C17.0372 22.3174 17.1691 22.3304 17.3002 22.3234C17.542 22.3104 17.6833 22.2284 17.4889 21.978C17.4044 21.8689 17.2958 21.7486 17.4352 21.6385C17.5803 21.5239 17.681 21.6904 17.7513 21.7791C17.8216 21.8677 18.0678 21.8676 17.9221 22.1111C17.8779 22.1849 18.1116 22.2352 18.231 22.2647C18.2881 22.2787 18.3442 22.2439 18.3585 22.1802C18.3873 22.0509 18.3257 21.9648 18.2153 21.9062C18.1979 21.8972 18.1811 21.887 18.1651 21.8756C17.4676 21.363 17.476 21.2022 18.225 20.7614C18.3545 20.6849 18.4949 20.6285 18.6414 20.5941C19.4081 20.4113 20.1938 20.3585 20.9719 20.2675C21.2971 20.2294 21.6417 20.3408 21.9752 20.3975C22.102 20.4191 22.3235 20.4714 22.3266 20.5208C22.3357 20.6644 22.1362 20.6592 22.0471 20.7509C21.9964 20.803 21.902 20.8401 21.9524 20.9277C22.0098 21.0275 22.1371 21.0323 22.192 20.9586C22.5193 20.5202 22.9757 20.6311 23.4247 20.6031C23.7901 20.5804 24.1591 20.5324 24.5345 20.4032C24.948 20.2609 25.4411 20.2196 25.9056 20.1824C25.9987 20.175 26.1184 20.2279 26.1835 20.1864C26.7454 19.829 27.2153 20.3609 27.7399 20.3356C27.8025 20.3326 27.8506 20.3854 27.8306 20.4482C27.8156 20.495 27.767 20.5624 27.7289 20.5654C27.4667 20.5869 27.2033 20.5925 26.9404 20.6067C26.8862 20.6096 26.8328 20.6274 26.779 20.6384C26.8109 20.7304 26.8926 20.6989 26.952 20.6989C27.5134 20.6975 28.0739 20.7769 28.6371 20.7094C28.7739 20.6929 28.9722 20.6734 28.9991 20.8792C29.0203 21.0411 28.8481 21.0718 28.7362 21.1332C28.3338 21.3541 27.8851 21.5483 28.1934 22.1511C28.2319 22.2264 28.1319 22.296 28.1336 22.3545C28.1488 22.8743 27.6944 23.2806 27.7914 23.8226C27.8187 23.975 27.723 24.134 27.568 24.1819C27.2295 24.2863 26.9661 24.5847 26.5795 24.5606C26.5429 24.5584 26.4976 24.5609 26.4693 24.5803C25.9158 24.9589 25.1788 25.1385 24.9934 25.9193C24.923 26.2159 24.7494 26.2529 24.4846 26.1771C24.065 26.0571 23.8575 25.7379 23.6468 25.3933C23.4285 25.0362 23.3338 24.7129 23.6682 24.3776C23.7204 24.3253 23.7167 24.2597 23.6437 24.1913C23.4769 24.0353 23.1822 23.5242 23.1379 23.3542C23.0023 22.8328 22.4831 22.4071 21.9687 22.5445C21.4003 22.6964 21.1957 22.318 20.9102 22.0186C20.7942 21.8969 20.8959 21.8118 21.0008 21.7594C21.1509 21.6843 21.3277 21.6847 21.4731 21.5809C21.591 21.4969 21.5989 21.425 21.5388 21.3013C21.4755 21.1707 21.3978 21.2166 21.312 21.251C20.8011 21.4556 20.3477 21.7062 20.18 22.3005C20.1239 22.4997 19.9666 22.6623 19.915 22.8904C19.8706 23.0868 19.6018 23.042 19.4205 23.0715C19.3544 23.0823 19.2399 23.0197 19.2341 23.1112C19.2298 23.1791 19.3671 23.1467 19.426 23.1805C19.8334 23.4143 20.3387 23.272 20.7454 23.5665C21.0692 23.8009 21.4508 23.9239 21.6084 24.3647C21.6853 24.5798 21.9833 24.6576 22.2077 24.7519C22.3126 24.796 22.4648 24.83 22.3502 24.9657C22.2605 25.0719 22.218 25.3266 21.978 25.2001C21.8971 25.1574 21.837 25.0763 21.7656 25.0148C21.7242 24.9791 21.668 24.9314 21.622 24.9717C21.5712 25.0161 21.6207 25.0714 21.656 25.1117C21.7057 25.1683 21.7665 25.2162 21.8105 25.2765C21.891 25.3865 22.1017 25.4895 21.9368 25.6411C21.8124 25.7555 21.6557 25.9398 21.4451 25.8409C21.0301 25.6464 20.6582 25.3331 20.1498 25.4235C20.1016 25.432 20.0543 25.3682 20.0535 25.3068C20.0524 25.238 20.1014 25.2099 20.1626 25.205C20.2562 25.1975 20.3553 25.2112 20.4429 25.1852C20.6833 25.1135 20.8309 24.8164 20.7453 24.6023C20.6459 24.3536 20.0432 24.0644 19.758 24.0971C19.5557 24.1204 19.6877 24.1999 19.6741 24.2859C19.6355 24.5282 19.8286 24.9121 19.3129 24.9328C19.1298 24.9402 19.2748 25.091 19.3486 25.1594C19.4826 25.2836 19.7962 25.3032 19.7595 25.4841C19.7245 25.6566 19.4188 25.4059 19.2638 25.5815C19.1993 25.6547 19.079 25.6623 19.002 25.5994C18.6995 25.3526 18.5169 25.6087 18.3238 25.7617C17.7493 26.217 17.773 26.4686 18.4399 26.79C18.5908 26.8626 18.7298 26.9719 18.8912 27.0112C19.3118 27.1137 19.6701 27.2704 19.7758 27.7516C19.7944 27.8363 19.8991 27.9899 20.0255 27.8712C20.0951 27.8059 20.0956 27.6969 20.0418 27.6181C19.8771 27.3762 19.9082 27.2157 20.1908 27.092C20.3169 27.0369 20.2786 26.8917 20.2258 26.7909C20.1319 26.6119 20.1679 26.4229 20.1593 26.237C20.1374 25.7603 20.4051 25.5859 20.8344 25.8124C20.9976 25.8985 21.1854 25.9996 21.2768 26.1467C21.4302 26.3935 21.5507 26.5215 21.8476 26.3374C22.0405 26.2178 22.1777 26.4015 22.2401 26.5509C22.3765 26.8778 22.626 27.0884 22.8798 27.314C23.0731 27.4859 23.3791 27.6402 23.197 28.008C23.1381 28.1268 23.2711 28.153 23.3439 28.2021C23.4705 28.2875 23.5889 28.3821 23.617 28.5451C23.6299 28.62 23.5815 28.7521 23.5723 28.7449C23.3651 28.5845 23.1177 28.7373 22.9139 28.6555C22.7764 28.6004 22.7687 28.4547 22.8202 28.3126C22.8992 28.0942 22.7848 28.0999 22.622 28.1402C22.5138 28.167 22.3946 28.1841 22.2859 28.1677C21.8942 28.1088 21.9163 28.2419 22.0353 28.5543C22.141 28.8315 22.2492 28.8098 22.4462 28.6985C22.5384 28.6465 22.6354 28.6582 22.6786 28.7663C22.7195 28.869 22.6556 28.9891 22.5773 29.0017C22.2836 29.0494 22.0438 29.4033 21.6948 29.1544C21.5898 29.0796 21.4134 29.1364 21.3954 29.22C21.3241 29.5515 21.0448 29.6388 20.8143 29.7909C20.7708 29.8196 20.7391 29.8784 20.72 29.9299C20.5504 30.3873 20.3081 30.7787 19.9063 31.0861C19.7021 31.2423 19.6889 31.5139 19.8984 31.7384C20.0012 31.8485 20.0303 32.0006 19.8917 32.0799C19.7545 32.1584 19.7352 31.9614 19.6528 31.9005C19.5649 31.8355 19.4907 31.7412 19.435 31.6455C19.2708 31.3635 19.0187 31.3331 18.7502 31.4192C18.5859 31.4719 18.4272 31.5117 18.2559 31.5118C17.9188 31.512 17.6178 31.4953 17.696 32.0229C17.7252 32.2197 17.4437 32.4408 17.7012 32.692C17.8887 32.8749 18.0581 32.9617 18.2946 32.8141C18.3744 32.7643 18.449 32.7059 18.5297 32.6576C18.6473 32.5872 18.7936 32.5332 18.9057 32.6027C19.0777 32.7094 18.9092 32.8435 18.8638 32.936C18.7175 33.2343 18.7463 33.3888 19.1206 33.3857C19.3203 33.3841 19.4318 33.5176 19.4364 33.7139C19.4407 33.8978 19.3627 34.1291 19.5979 34.2002C19.8433 34.2742 20.1547 34.2994 20.3461 34.1464C20.7583 33.817 21.1643 33.8868 21.6074 34.0256C21.7265 34.0629 21.8503 34.0805 21.9749 34.0887C22.6936 34.1361 23.0891 34.8149 23.7489 34.9752C23.9739 35.7539 24.778 35.6335 25.2957 35.9569C25.4298 36.0407 25.6021 36.0837 25.7473 36.1732C26.0271 36.3461 26.1043 36.568 25.8919 36.8285C25.6796 37.089 25.6246 37.3942 25.5343 37.7028C25.3857 38.2099 25.2942 38.7956 24.5652 38.8417C24.3687 38.8542 24.2666 39.0391 24.2085 39.2364C23.9752 40.0284 23.8909 40.1119 23.0353 40.4425C22.9689 40.4682 22.9497 40.4944 22.9714 40.5554C23.1059 40.9317 22.8481 41.0342 22.5754 41.0597C22.3205 41.0836 22.3075 41.2955 22.2063 41.4335C22.0245 41.6817 21.9821 42.0197 21.711 42.2167C21.6941 42.229 21.713 42.338 21.7454 42.3629C21.9207 42.4974 21.843 42.5841 21.7315 42.7242C21.3617 43.1892 21.3684 43.2147 21.7005 43.6984C21.7535 43.7757 21.8561 43.8333 21.6895 43.8893C21.2391 44.0408 20.8163 43.8314 20.6457 43.383C20.5126 43.0333 20.5047 42.6512 20.5977 42.3243C20.7918 41.6416 20.7635 40.9322 20.9285 40.2399C21.0548 39.7099 21.1567 39.1204 21.1651 38.5434C21.1705 38.1824 21.0265 37.9044 20.7406 37.7354C20.4241 37.5483 20.2467 37.2854 20.1274 36.9578C20.0957 36.8708 20.0388 36.7932 19.9988 36.7088C19.8931 36.4862 19.4733 36.4126 19.7143 36.0184C19.8446 35.8052 19.7873 35.4949 20.0274 35.3187C20.182 35.2053 20.1899 35.0403 20.1988 34.8649C20.2083 34.6774 20.1631 34.6002 19.957 34.5801C19.5841 34.5439 19.1933 34.5037 19.1014 34.0166C19.0815 33.9108 18.9547 33.8991 18.8708 33.8822C18.4377 33.7941 18.0961 33.5066 17.5954 33.4883C17.1729 33.4729 16.6035 33.2585 16.3891 32.6958C16.2944 32.4472 16.1884 32.2666 15.7966 32.3459C15.4762 32.4108 15.2683 32.0077 15.1595 31.7157C14.9899 31.2605 14.7481 30.911 14.3566 30.5976C13.9333 30.2589 13.817 29.7024 13.8277 29.1616C13.835 28.792 13.8631 28.4422 13.4656 28.2411C13.3809 28.1983 13.3462 28.1294 13.3345 28.0188C13.2879 27.58 13.2519 27.5554 12.786 27.5184C12.6361 27.5065 12.642 27.3792 12.5868 27.2864C12.2479 26.7162 11.8175 26.294 11.0984 26.2163C10.8377 26.1881 10.6777 26.3225 10.4697 26.3628C10.2489 26.4054 9.98611 26.3025 10.1312 26.7128C10.1741 26.8341 9.98405 27.0178 9.82861 26.9675C9.54446 26.8756 9.40908 27.0278 9.26339 27.2084C9.22871 27.2514 9.18446 27.3177 9.14255 27.3193C8.62768 27.3389 8.20205 27.6803 7.69364 27.7175L7.66064 27.6198ZM18.364 23.4108C18.2716 23.4263 18.1794 23.4445 18.1154 23.5213C18.0423 23.6089 18.0698 23.7007 18.1308 23.774C18.3285 24.0113 18.4754 24.3053 18.825 24.376C18.8928 24.3897 18.8073 24.5962 18.9537 24.5601C19.0251 24.5426 19.0987 24.4367 19.1246 24.3558C19.158 24.2514 19.063 24.1787 18.9745 24.1568C18.6712 24.082 18.5641 23.8672 18.5316 23.5864C18.5205 23.4904 18.4912 23.4012 18.364 23.4108Z"/>
<path d="M49.869 37.3644C49.864 37.0878 49.8744 36.851 49.5774 36.7793C49.5412 36.7706 49.4751 36.7509 49.4762 36.7424C49.542 36.1705 49.0379 36.2627 48.7453 36.1078C48.6806 36.0734 48.6262 36.0151 48.5753 35.9603C48.4843 35.8621 48.3785 35.7416 48.4835 35.6154C48.6066 35.4674 48.8034 35.5168 48.8693 35.6498C49.0072 35.9282 49.1782 35.8455 49.4149 35.8246C49.9388 35.7782 50.3591 36.0588 50.6447 36.4723C50.7556 36.6328 51.0671 36.8128 50.9705 36.9193C50.8167 37.0889 50.6188 36.8296 50.444 36.7415C50.3034 36.6706 50.1809 36.7059 50.0881 36.8135C49.9845 36.9337 50.0533 37.0528 50.1121 37.1777C50.3982 37.7865 50.8191 38.3035 51.221 38.8337C51.5951 39.3272 51.6161 39.5998 51.3161 40.1375C51.2607 40.2368 51.2039 40.3355 51.1567 40.4389C50.7946 41.2336 50.1943 41.3316 49.5786 40.7485C49.2874 40.4726 48.9365 40.2565 48.5991 40.0337C48.3888 39.8948 48.1731 39.9614 47.9608 40.0796C47.6155 40.2718 47.2537 40.4083 46.8495 40.4483C46.4076 40.492 46.4025 40.517 46.3403 40.0699C46.2869 39.6854 46.057 39.3499 46.1103 38.9262C46.1527 38.5878 46.2801 38.4198 46.593 38.3309C46.8515 38.2575 47.0939 38.2105 47.2191 37.8593C47.2886 37.6646 47.6551 37.4692 47.96 37.4835C48.1375 37.4919 48.237 37.4644 48.3259 37.3133C48.4653 37.0762 48.705 37.1026 48.932 37.1197C49.0798 37.1308 49.2037 37.1983 49.1674 37.3658C49.0853 37.7435 49.3283 37.8696 49.6059 37.8544C49.9248 37.8369 49.8388 37.5283 49.869 37.3644ZM32.7181 21.3241C32.5365 21.3689 32.2893 21.1751 32.174 21.4536C32.0555 21.7396 32.385 21.8143 32.465 22.0099C32.5097 22.1188 32.6056 22.1803 32.6942 22.2507C32.8539 22.3776 33.0232 22.3971 33.1265 22.2152C33.2855 21.9349 33.458 21.93 33.6903 22.1107C33.7505 22.1575 33.8345 22.1473 33.8982 22.0948C33.9457 22.0555 33.9718 21.9834 33.9244 21.9479C33.4244 21.5748 33.8717 21.6381 34.0865 21.5797C34.1735 21.556 34.2527 21.4972 34.3299 21.446C34.3734 21.4172 34.4341 21.3726 34.436 21.3328C34.439 21.2729 34.3644 21.2645 34.3123 21.261C34.0505 21.2438 33.8048 21.116 33.5083 21.1586C33.2403 21.1023 32.9891 21.2572 32.7181 21.3241ZM16.0996 22.3166C16.0119 22.2185 15.8767 22.1953 15.8228 22.3273C15.6126 22.8422 15.3567 22.452 15.1971 22.3299C14.7716 22.0043 14.5884 21.9868 14.2272 22.3364C14.0706 22.488 14.0608 22.5831 14.2952 22.63C14.6075 22.6924 14.9012 22.7822 15.1837 22.9502C15.526 23.1538 16.2149 22.9659 16.489 22.6498C16.536 22.6 16.5412 22.5502 16.4888 22.5004C16.3235 22.5141 16.2063 22.4359 16.0996 22.3166ZM45.4699 35.3672C45.4496 35.3817 45.446 35.4401 45.4552 35.4723C45.5277 35.7275 45.6046 35.9835 45.9092 36.0571C46.1725 36.1208 46.3653 36.0493 46.5327 35.8117C46.7424 35.5139 46.6471 35.1605 46.7671 34.8482C46.8114 34.7329 46.6636 34.6718 46.4691 34.6705C46.1668 34.8799 45.8165 35.121 45.4699 35.3672ZM37.3996 37.2563C37.1649 37.4212 36.8396 37.5502 36.719 37.8011C36.5802 38.0901 36.5301 38.4398 36.5502 38.7781C36.5572 38.8969 36.6199 38.9918 36.7486 39.0147C36.9044 39.0424 37.0895 39.0322 37.134 38.8724C37.2575 38.4299 37.4967 38.024 37.5576 37.5907C37.5052 37.4435 37.5543 37.1475 37.3996 37.2563ZM38.5685 23.9818C38.1805 23.5509 38.181 23.46 38.6211 23.0947C38.8808 22.8792 39.1641 22.6998 39.5018 22.6201C39.646 22.5861 39.7868 22.5312 39.922 22.4698C39.958 22.4535 39.9872 22.3777 39.9848 22.331C39.9802 22.2426 39.9068 22.1968 39.827 22.2163C39.0997 22.3942 38.372 22.573 37.901 23.2366C37.7126 23.5019 37.7774 23.7904 38.0656 23.9339C38.2235 24.0126 38.3948 23.9875 38.5623 23.9894L38.5685 23.9818ZM53.8823 42.1557C54.018 41.8284 54.265 41.6233 54.5397 41.4193C54.8731 41.1717 54.8492 40.9928 54.5052 40.7203C54.4325 40.6627 54.3597 40.5683 54.2657 40.6112C54.1521 40.6631 54.2244 40.7717 54.2394 40.8581C54.2826 41.1076 54.2492 41.2783 53.9751 41.4231C53.7424 41.5462 53.5768 41.8082 53.402 42.0253C53.2644 42.1963 53.3388 42.3772 53.5529 42.3896C53.6998 42.3915 53.8262 42.2911 53.8823 42.1557ZM49.8651 29.7268C49.7896 29.6833 49.7102 29.6986 49.6706 29.7698C49.4309 30.2016 49.031 30.4125 48.5955 30.5903C48.4175 30.6629 48.2934 30.8128 48.3026 31.0286C48.3062 31.112 48.3526 31.1856 48.4399 31.1468C48.8379 30.97 49.2486 30.8111 49.6195 30.5873C49.8427 30.4527 49.9182 30.1692 49.97 29.9492C49.976 29.8247 49.9335 29.7661 49.8651 29.7268ZM43.7968 21.0202C43.527 20.844 43.3606 21.0118 43.2597 21.2203C43.1547 21.4373 43.2313 21.6287 43.4857 21.7017C43.6843 21.7586 43.886 21.8041 44.0864 21.8548C44.2027 21.7613 44.2699 21.6335 44.3326 21.5025C44.2087 21.2808 44.0007 21.1532 43.7968 21.0202ZM49.3284 22.6159C49.2173 22.8108 49.4546 22.8405 49.5386 22.9437C49.5739 22.987 49.6135 23.0273 49.6436 23.0739C49.7281 23.2047 49.8297 23.3417 49.9982 23.2866C50.2065 23.2184 49.949 23.0638 50.0302 22.9578C50.075 22.8995 50.1127 22.8354 50.1603 22.7796C50.2727 22.6475 50.1983 22.5752 50.0747 22.5412C49.9684 22.5119 49.8541 22.5116 49.78 22.5028C49.5962 22.5186 49.4099 22.4729 49.3284 22.6159ZM47.2116 34.0386C47.394 34.1961 47.5596 34.0708 47.6519 33.9595C47.7516 33.839 47.6416 33.6991 47.4956 33.6702C47.2314 33.6178 47.2155 33.4886 47.3072 33.2674C47.3461 33.1736 47.2349 33.093 47.1459 33.0689C47.027 33.0367 46.9845 33.144 46.9549 33.2306C46.931 33.3001 46.9338 33.3789 46.9247 33.4535C46.9062 33.7055 47.0315 33.883 47.2116 34.0386ZM46.7677 35.8561C46.7815 36.0234 46.8053 36.2628 46.987 36.3044C47.0851 36.3269 47.3359 36.2384 47.3194 36.0179C47.3074 35.8565 47.2693 35.6779 47.0434 35.6542C46.9087 35.6608 46.7555 35.7066 46.7677 35.8561Z"/>
</svg>
