<svg width="33" height="32" viewBox="0 0 33 32" fill="none" xmlns="http://www.w3.org/2000/svg">
<rect x="0.5" width="32" height="32" rx="8" fill="#1B242D"/>
<path d="M19.7002 23.1984V21.5984C19.7002 20.7497 19.3631 19.9358 18.7629 19.3357C18.1628 18.7356 17.3489 18.3984 16.5002 18.3984H10.9002C10.0515 18.3984 9.23757 18.7356 8.63745 19.3357C8.03734 19.9358 7.7002 20.7497 7.7002 21.5984V23.1984" stroke="#F2F5F8" stroke-width="1.6" stroke-linecap="round" stroke-linejoin="round"/>
<path d="M13.7 15.2008C15.4673 15.2008 16.9 13.7681 16.9 12.0008C16.9 10.2335 15.4673 8.80078 13.7 8.80078C11.9327 8.80078 10.5 10.2335 10.5 12.0008C10.5 13.7681 11.9327 15.2008 13.7 15.2008Z" stroke="#F2F5F8" stroke-width="1.6" stroke-linecap="round" stroke-linejoin="round"/>
<path d="M22.9004 12.8008V17.6008" stroke="#F2F5F8" stroke-width="1.6" stroke-linecap="round" stroke-linejoin="round"/>
<path d="M25.3 15.1992H20.5" stroke="#F2F5F8" stroke-width="1.6" stroke-linecap="round" stroke-linejoin="round"/>
</svg>
