<svg width="21" height="20" viewBox="0 0 21 20" fill="none" xmlns="http://www.w3.org/2000/svg">
<path d="M14.666 1.66406H6.33268C4.0315 1.66406 2.16602 3.52954 2.16602 5.83073V14.1641C2.16602 16.4652 4.0315 18.3307 6.33268 18.3307H14.666C16.9672 18.3307 18.8327 16.4652 18.8327 14.1641V5.83073C18.8327 3.52954 16.9672 1.66406 14.666 1.66406Z" stroke="#1B242D" stroke-width="2" stroke-linecap="round" stroke-linejoin="round"/>
<path d="M13.8337 9.4772C13.9366 10.1707 13.8181 10.8791 13.4952 11.5014C13.1723 12.1237 12.6614 12.6284 12.0351 12.9436C11.4088 13.2588 10.6991 13.3685 10.0069 13.2571C9.31468 13.1458 8.67521 12.8189 8.17944 12.3232C7.68367 11.8274 7.35685 11.1879 7.24546 10.4957C7.13408 9.8035 7.24379 9.09378 7.55901 8.46752C7.87423 7.84125 8.3789 7.33032 9.00123 7.00741C9.62356 6.68449 10.3319 6.56603 11.0254 6.66887C11.7328 6.77377 12.3878 7.10342 12.8935 7.60913C13.3992 8.11483 13.7288 8.76977 13.8337 9.4772Z" stroke="#1B242D" stroke-width="2" stroke-linecap="round" stroke-linejoin="round"/>
<path d="M15.084 5.41406H15.0923" stroke="#1B242D" stroke-width="2" stroke-linecap="round" stroke-linejoin="round"/>
</svg>
