<svg width="21" height="20" viewBox="0 0 21 20" fill="none" xmlns="http://www.w3.org/2000/svg">
<path d="M13.834 6.66406C15.1601 6.66406 16.4318 7.19085 17.3695 8.12853C18.3072 9.06621 18.834 10.338 18.834 11.6641V17.4974H15.5007V11.6641C15.5007 11.222 15.3251 10.7981 15.0125 10.4856C14.6999 10.173 14.276 9.9974 13.834 9.9974C13.392 9.9974 12.968 10.173 12.6555 10.4856C12.3429 10.7981 12.1673 11.222 12.1673 11.6641V17.4974H8.83398V11.6641C8.83398 10.338 9.36077 9.06621 10.2985 8.12853C11.2361 7.19085 12.5079 6.66406 13.834 6.66406V6.66406Z" stroke="#1B242D" stroke-width="2" stroke-linecap="round" stroke-linejoin="round"/>
<path d="M5.50033 7.5H2.16699V17.5H5.50033V7.5Z" stroke="#1B242D" stroke-width="2" stroke-linecap="round" stroke-linejoin="round"/>
<path d="M3.83268 4.9974C4.75316 4.9974 5.49935 4.2512 5.49935 3.33073C5.49935 2.41025 4.75316 1.66406 3.83268 1.66406C2.91221 1.66406 2.16602 2.41025 2.16602 3.33073C2.16602 4.2512 2.91221 4.9974 3.83268 4.9974Z" stroke="#1B242D" stroke-width="2" stroke-linecap="round" stroke-linejoin="round"/>
</svg>
