<svg width="255" height="39" viewBox="0 0 255 39" fill="none" xmlns="http://www.w3.org/2000/svg">
<path d="M207.502 187.657L209.265 188.715L210.002 190.862L209.169 194.307L207.326 194.835L205.275 193.746L204.794 195.236L202.951 194.723L202.102 193.489L204.073 187.417L205.403 187.609L206.044 186.424L207.502 187.657Z" fill="white"/>
<path d="M210.515 183.988L211.652 184.485L211.3 188.731L209.008 187.369L209.201 184.373L210.515 183.988Z" fill="white"/>
<path d="M69.0528 0.677002L71.4084 1.06157L74.1325 5.08314L79.5006 6.6373L79.8532 8.46388L78.7796 10.8351L80.7666 14.7927L87.2724 16.1706L87.8653 18.7342L86.5673 22.211L86.9199 25.6558L88.6024 28.7481L89.9324 29.1967L88.3941 30.2061L91.4547 36.0062L94.8358 39.0825L99.6911 40.8129L100.14 43.1842L101.342 42.9599L103.008 44.9146L106.197 45.6997L108.024 48.5837L108.969 47.1738L110.299 47.5422L109.995 51.2274L112.382 49.9937L115.587 53.0219L117.606 53.4705L118.472 52.0285L121.5 53.7589L123.84 53.3423L126.756 50.4423L131.804 58.0209L133.63 58.7899L133.214 60.0717L134.271 61.8502L136.755 63.164L141.13 63.4844L149.062 68.1309L154.093 66.8171L162.73 70.1337L166.512 67.6182L166.576 66.2082L170.534 67.9066L170.47 66.6088L172.954 66.4806L173.451 67.2657L175.742 65.279L175.966 66.1762L180.485 66.6889L191.494 71.6558L191.462 72.8895L189.299 72.9376L186.831 75.9979L186.911 81.83L192.135 87.3577L202.519 95.0965L196.157 102.419L196.734 108.235L195.516 109.116L196.013 111.007L195.276 111.631L195.805 112.913L197.743 113.17L198.993 116.598L196.686 116.182L195.372 119.082L199.65 121.565L199.538 123.632L200.628 124.882L200.147 127.686L198.689 129.272L200.916 130.458L200.435 131.211L201.782 133.294L203.512 133.262L202.887 135.521L205.9 138.421L205.419 144.349L206.316 145.567L204.634 146.784L204.858 149.092L208.319 154.635L211.765 155.388L212.149 156.83L214.553 157.856L216.251 156.782L217.309 158.689L216.299 160.259L219.376 162.518L226.058 160.483L226.988 162.614L230.257 164.409L233.093 164.137L235.4 165.21L241.922 164.056L248.011 165.194L253.235 161.829L254.101 162.374L254.004 165.819L251.697 171.571L252.723 174.086L252.162 176.49L253.764 179.63L253.043 186.488L250.655 189.067L251.36 190.413L249.085 192.945L249.213 194.595L247.611 195.893L246.569 196.55L245.303 196.662L244.694 198.568L242.804 199.786L240.063 199.994L236.923 198.136L237.596 196.405L235 190.878L229.151 188.523L225.353 189.916L225.85 191.375L224.664 191.631L224.488 193.521L225.561 194.995L226.891 194.899L224.536 196.245L224.584 198.008L222.805 197.591L222.661 196.373L217.694 193.153L216.796 188.747L215.21 187.946L214.553 188.811L212.854 186.087V184.837L215.306 182.851L213.303 178.268L210.387 178.509L209.89 175.785L206.284 173.75L197.92 175.208L199.778 168.559L198.785 167.758L195.596 168.431L194.875 167.341L196.702 163.832L198.769 163.368L199.458 160.804L198.897 158.096L196.798 156.478L195.869 151.799L192.167 149.364L189.299 149.781L190.677 152.328L188.353 151.223L187.408 153.257L185.869 150.934L189.058 147.313L190.42 143.34L191.975 142.362L191.206 140.279L189.042 139.831L189.331 140.984L187.969 141.193L186.975 144.237L185.293 145.31L183.61 143.564L184.7 143.003L183.866 142.202L184.555 140.952L182.889 140.151L184.427 138.501L185.693 138.629L186.526 135.857L184.908 136.338L185.052 133.422L181.783 132.044L180.181 132.941L179.556 131.515L176.527 132.412L172.473 131.243L173.082 129.753L174.028 130.426L177.697 129.032L176.255 123.953L177.633 121.758L176.319 119.146L171.912 120.011L168.756 117.383L164.044 120.764L153.917 121.165L148.677 118.265L143.95 117.271L139.079 120.348L125.698 115.749L122.349 116.15L120.651 118.377L118.664 118.265L116.132 113.025L114.818 112.336L114.802 109.388L113.216 107.946L112.462 108.988L111.325 108.315L110.844 109.629L109.931 109.26L110.171 107.898L110.139 106.761L112.206 104.021L113.6 105.271L115.203 104.261L115.731 100.624L116.805 98.6694L116.645 97.4197L115.731 97.5319L115.251 92.1003L111.918 88.7196L111.661 87.0212L107.511 86.6687L105.652 84.8582L101.165 85.7394L99.0181 84.0571L96.0537 75.1968L89.9805 72.2967L87.1602 66.1762L81.1832 63.6767L75.6708 58.3894L71.761 51.708L68.5561 50.2019L66.0563 50.7467L65.4314 48.9042L59.0858 44.6743L53.8619 38.4576L45.1927 35.173L37.1646 37.6405L31.6683 34.8846L30.0659 29.6614L24.169 30.126L20.0988 28.4116L18.1759 29.8696L18.0157 31.2476L22.7108 31.7603L24.3453 33.7471L23.9447 35.7018L19.2816 38.3294L8.86587 37.9289L0.805664 40.4444L1.55879 35.9741L3.94639 32.0968L11.3336 30.831L11.9425 29.5492L16.3332 28.2995L16.6697 27.2099L24.3453 24.4862L26.5085 24.6143L27.2937 23.8453L30.4505 21.6502V19.5834L32.3414 18.3015L37.0685 18.8623L38.6229 11.3639L44.0711 6.94174L48.0611 6.429L51.4101 7.56664L54.9836 7.3423L58.2846 4.26605L62.1143 3.78534L65.6077 1.0936L69.0528 0.677002Z" fill="white"/>
<path d="M207.502 187.657L209.265 188.715L210.002 190.862L209.169 194.307L207.326 194.835L205.275 193.746L204.794 195.236L202.951 194.723L202.102 193.489L204.073 187.417L205.403 187.609L206.044 186.424L207.502 187.657Z" stroke="#C3C6C9"/>
<path d="M210.515 183.988L211.652 184.485L211.3 188.731L209.008 187.369L209.201 184.373L210.515 183.988Z" stroke="#C3C6C9"/>
<path d="M69.0528 0.677002L71.4084 1.06157L74.1325 5.08314L79.5006 6.6373L79.8532 8.46388L78.7796 10.8351L80.7666 14.7927L87.2724 16.1706L87.8653 18.7342L86.5673 22.211L86.9199 25.6558L88.6024 28.7481L89.9324 29.1967L88.3941 30.2061L91.4547 36.0062L94.8358 39.0825L99.6911 40.8129L100.14 43.1842L101.342 42.9599L103.008 44.9146L106.197 45.6997L108.024 48.5837L108.969 47.1738L110.299 47.5422L109.995 51.2274L112.382 49.9937L115.587 53.0219L117.606 53.4705L118.472 52.0285L121.5 53.7589L123.84 53.3423L126.756 50.4423L131.804 58.0209L133.63 58.7899L133.214 60.0717L134.271 61.8502L136.755 63.164L141.13 63.4844L149.062 68.1309L154.093 66.8171L162.73 70.1337L166.512 67.6182L166.576 66.2082L170.534 67.9066L170.47 66.6088L172.954 66.4806L173.451 67.2657L175.742 65.279L175.966 66.1762L180.485 66.6889L191.494 71.6558L191.462 72.8895L189.299 72.9376L186.831 75.9979L186.911 81.83L192.135 87.3577L202.519 95.0965L196.157 102.419L196.734 108.235L195.516 109.116L196.013 111.007L195.276 111.631L195.805 112.913L197.743 113.17L198.993 116.598L196.686 116.182L195.372 119.082L199.65 121.565L199.538 123.632L200.628 124.882L200.147 127.686L198.689 129.272L200.916 130.458L200.435 131.211L201.782 133.294L203.512 133.262L202.887 135.521L205.9 138.421L205.419 144.349L206.316 145.567L204.634 146.784L204.858 149.092L208.319 154.635L211.765 155.388L212.149 156.83L214.553 157.856L216.251 156.782L217.309 158.689L216.299 160.259L219.376 162.518L226.058 160.483L226.988 162.614L230.257 164.409L233.093 164.137L235.4 165.21L241.922 164.056L248.011 165.194L253.235 161.829L254.101 162.374L254.004 165.819L251.697 171.571L252.723 174.086L252.162 176.49L253.764 179.63L253.043 186.488L250.655 189.067L251.36 190.413L249.085 192.945L249.213 194.595L247.611 195.893L246.569 196.55L245.303 196.662L244.694 198.568L242.804 199.786L240.063 199.994L236.923 198.136L237.596 196.405L235 190.878L229.151 188.523L225.353 189.916L225.85 191.375L224.664 191.631L224.488 193.521L225.561 194.995L226.891 194.899L224.536 196.245L224.584 198.008L222.805 197.591L222.661 196.373L217.694 193.153L216.796 188.747L215.21 187.946L214.553 188.811L212.854 186.087V184.837L215.306 182.851L213.303 178.268L210.387 178.509L209.89 175.785L206.284 173.75L197.92 175.208L199.778 168.559L198.785 167.758L195.596 168.431L194.875 167.341L196.702 163.832L198.769 163.368L199.458 160.804L198.897 158.096L196.798 156.478L195.869 151.799L192.167 149.364L189.299 149.781L190.677 152.328L188.353 151.223L187.408 153.257L185.869 150.934L189.058 147.313L190.42 143.34L191.975 142.362L191.206 140.279L189.042 139.831L189.331 140.984L187.969 141.193L186.975 144.237L185.293 145.31L183.61 143.564L184.7 143.003L183.866 142.202L184.555 140.952L182.889 140.151L184.427 138.501L185.693 138.629L186.526 135.857L184.908 136.338L185.052 133.422L181.783 132.044L180.181 132.941L179.556 131.515L176.527 132.412L172.473 131.243L173.082 129.753L174.028 130.426L177.697 129.032L176.255 123.953L177.633 121.758L176.319 119.146L171.912 120.011L168.756 117.383L164.044 120.764L153.917 121.165L148.677 118.265L143.95 117.271L139.079 120.348L125.698 115.749L122.349 116.15L120.651 118.377L118.664 118.265L116.132 113.025L114.818 112.336L114.802 109.388L113.216 107.946L112.462 108.988L111.325 108.315L110.844 109.629L109.931 109.26L110.171 107.898L110.139 106.761L112.206 104.021L113.6 105.271L115.203 104.261L115.731 100.624L116.805 98.6694L116.645 97.4197L115.731 97.5319L115.251 92.1003L111.918 88.7196L111.661 87.0212L107.511 86.6687L105.652 84.8582L101.165 85.7394L99.0181 84.0571L96.0537 75.1968L89.9805 72.2967L87.1602 66.1762L81.1832 63.6767L75.6708 58.3894L71.761 51.708L68.5561 50.2019L66.0563 50.7467L65.4314 48.9042L59.0858 44.6743L53.8619 38.4576L45.1927 35.173L37.1646 37.6405L31.6683 34.8846L30.0659 29.6614L24.169 30.126L20.0988 28.4116L18.1759 29.8696L18.0157 31.2476L22.7108 31.7603L24.3453 33.7471L23.9447 35.7018L19.2816 38.3294L8.86587 37.9289L0.805664 40.4444L1.55879 35.9741L3.94639 32.0968L11.3336 30.831L11.9425 29.5492L16.3332 28.2995L16.6697 27.2099L24.3453 24.4862L26.5085 24.6143L27.2937 23.8453L30.4505 21.6502V19.5834L32.3414 18.3015L37.0685 18.8623L38.6229 11.3639L44.0711 6.94174L48.0611 6.429L51.4101 7.56664L54.9836 7.3423L58.2846 4.26605L62.1143 3.78534L65.6077 1.0936L69.0528 0.677002Z" stroke="#C3C6C9"/>
</svg>
