<svg width="189" height="108" viewBox="0 0 189 108" fill="none" xmlns="http://www.w3.org/2000/svg">
<path d="M106.238 58.5578L105.597 63.012L107.263 63.6208L106.462 64.3098L107.327 64.8386L106.702 65.896L105.373 66.2325L105.26 65.4955L103.978 63.0921L104.331 61.0573L103.498 59.8716L105.18 57.965L106.238 58.5578Z" fill="white"/>
<path d="M11.9353 38.5139L14.6754 38.8984L19.066 42.3593L19.3865 45.6599L18.4091 47.6947L17.2874 47.6626L17.5437 45.7079L15.6369 47.6306L14.0985 47.182L11.3583 50.9312L12.2237 51.7964L11.6628 53.3025L9.94829 52.9019L9.32332 50.7069L6.77546 51.6843L3.61866 49.5052L1.6477 50.8671L1.16699 47.5345L2.83349 45.6278L4.32374 45.9963L9.06688 43.6571L9.01885 40.4366L11.9353 38.5139Z" fill="white"/>
<path d="M32.3662 37.9531L33.6321 38.594L34.0006 40.6769L36.6286 41.446L36.8529 43.1284L38.904 45.3074L49.5121 50.1461L50.169 51.8445L49.3519 52.9821L50.6338 54.9688L51.8676 54.7124L52.4285 52.9981L57.9408 53.1263L59.4471 54.4401L55.7135 60.6888L53.7585 61.7943L52.749 61.0413L49.1275 64.2457L47.1085 63.3164L47.6533 61.5059L45.8586 60.4004L40.218 60.4164L39.7213 57.0517L39.1444 56.2025L39.545 54.344L37.9426 51.4439L35.539 50.082L34.4974 46.7814L30.3631 40.6769L30.1067 39.267L32.3662 37.9531Z" fill="white"/>
<path d="M85.7909 34.5564L86.5601 34.3161L86.4159 38.2896L88.0664 37.6487L87.3293 40.9974L87.2972 42.8399L86.9447 46.477L84.6532 46.6693L84.7333 45.3074L82.7143 46.6853L81.8009 45.9803L81.0317 45.1471L80.4068 43.4648L86.0793 41.1415L83.804 36.447L84.7173 35.8862L85.1019 32.6177L85.7909 34.5564Z" fill="white"/>
<path d="M82.4899 23.7253L83.0989 25.0231L83.1149 26.1287L86.8325 27.7309L79.3332 38.8824L78.596 42.936L77.3302 44.8587L74.7823 45.5958L75.8239 47.0057L73.6446 47.8549L72.6991 47.166L71.8018 48.4157L72.3626 49.2328L69.8308 50.4665L69.6385 51.9085L67.8918 52.8058L66.8022 51.0113L64.7351 51.3318L64.8953 48.656L66.5298 47.6626L67.7156 48.0952L68.9174 45.4996L70.2474 45.9482L72.0101 44.4101L70.7602 42.936L71.3531 40.5487L70.2154 39.5874L72.1543 38.3537L72.6671 36.1746L73.917 36.399L76.4648 34.3801L77.6987 29.6536L79.1088 28.8365L80.2145 25.5839L82.5861 22.8441L82.4899 23.7253Z" fill="white"/>
<path d="M99.8121 8.82459L100.213 11.0356L101.27 12.0611L102.376 11.2119L103.466 12.4937L102.616 20.0242L99.0109 22.6198L96.1586 20.7452L98.6584 18.5501L97.2483 17.0921L95.3414 18.1335L95.0209 17.2844L95.6619 15.618L95.4375 14.6888L96.6394 11.6285L99.8121 8.82459Z" fill="white"/>
<path d="M136.956 8.77653L136.219 14.9931L134.713 15.0893L135.017 10.3147L135.803 8.72846L136.956 8.77653Z" fill="white"/>
<path d="M114.843 1.71069L116.141 2.46374L116.013 3.76154L111.51 10.0423L111.574 8.408L108.481 8.21574L111.654 6.08474L112.311 3.60131L111.462 2.89632L113.369 1.22998L114.843 1.71069Z" fill="white"/>
<path d="M177.738 121.557L179.228 121.669L179.132 123.4L174.613 122.47L175.527 120.323L177.738 121.557Z" fill="white"/>
<path d="M161.826 106.753L159.534 114.059L157.852 112.264L160.896 106.833L161.826 106.753Z" fill="white"/>
<path d="M140.193 104.974L142.693 107.217L140.289 108.884L138.318 107.041L140.193 104.974Z" fill="white"/>
<path d="M159.823 81.6937L172.69 90.8264L171.168 94.3834L172.145 98.8696L170.896 100.071L171.745 101.321L172.626 100.648L174.805 101.337L176.408 104.173L177.818 103.997L184.997 109.492L185.83 111.832L187.256 112.408L187.801 115.244L186.599 115.997L187.272 118.625L180.943 120.211L180.494 118.369L178.587 120.596L176.616 119.314L174.725 115.869L173.283 115.661L171.12 117.279L170.415 116.783L170.703 121.044L168.428 119.298L168.812 117.343L167.306 117.504L167.45 116.045L166.088 116.911L165.383 115.933L165.72 114.267L166.729 114.876L167.883 113.129L169.79 113.402L170.896 112.344L170.319 106.448L169.005 105.887L166.793 107.474L165.896 104.718L164.582 105.583L163.188 104.99L161.473 106.576L162.531 103.404L158.268 104.125L157.595 100.264L156.073 101.577L155.032 99.1901L153.653 100.071L151.202 99.8149L150.961 98.9497L154.23 96.4182L154.423 93.9187L156.346 92.717L156.137 90.0894L154.343 89.4325L153.718 87.4297L155.32 84.6898L154.695 83.9689L156.49 83.1998L156.922 81.6937L158.397 81.7258L158.893 79.9793L159.823 81.6937Z" fill="white"/>
<path d="M106.238 58.5578L105.597 63.012L107.263 63.6208L106.462 64.3098L107.327 64.8386L106.702 65.896L105.373 66.2325L105.26 65.4955L103.978 63.0921L104.331 61.0573L103.498 59.8716L105.18 57.965L106.238 58.5578Z" stroke="#C3C6C9"/>
<path d="M11.9353 38.5139L14.6754 38.8984L19.066 42.3593L19.3865 45.6599L18.4091 47.6947L17.2874 47.6626L17.5437 45.7079L15.6369 47.6306L14.0985 47.182L11.3583 50.9312L12.2237 51.7964L11.6628 53.3025L9.94829 52.9019L9.32332 50.7069L6.77546 51.6843L3.61866 49.5052L1.6477 50.8671L1.16699 47.5345L2.83349 45.6278L4.32374 45.9963L9.06688 43.6571L9.01885 40.4366L11.9353 38.5139Z" stroke="#C3C6C9"/>
<path d="M32.3662 37.9531L33.6321 38.594L34.0006 40.6769L36.6286 41.446L36.8529 43.1284L38.904 45.3074L49.5121 50.1461L50.169 51.8445L49.3519 52.9821L50.6338 54.9688L51.8676 54.7124L52.4285 52.9981L57.9408 53.1263L59.4471 54.4401L55.7135 60.6888L53.7585 61.7943L52.749 61.0413L49.1275 64.2457L47.1085 63.3164L47.6533 61.5059L45.8586 60.4004L40.218 60.4164L39.7213 57.0517L39.1444 56.2025L39.545 54.344L37.9426 51.4439L35.539 50.082L34.4974 46.7814L30.3631 40.6769L30.1067 39.267L32.3662 37.9531Z" stroke="#C3C6C9"/>
<path d="M85.7909 34.5564L86.5601 34.3161L86.4159 38.2896L88.0664 37.6487L87.3293 40.9974L87.2972 42.8399L86.9447 46.477L84.6532 46.6693L84.7333 45.3074L82.7143 46.6853L81.8009 45.9803L81.0317 45.1471L80.4068 43.4648L86.0793 41.1415L83.804 36.447L84.7173 35.8862L85.1019 32.6177L85.7909 34.5564Z" stroke="#C3C6C9"/>
<path d="M82.4899 23.7253L83.0989 25.0231L83.1149 26.1287L86.8325 27.7309L79.3332 38.8824L78.596 42.936L77.3302 44.8587L74.7823 45.5958L75.8239 47.0057L73.6446 47.8549L72.6991 47.166L71.8018 48.4157L72.3626 49.2328L69.8308 50.4665L69.6385 51.9085L67.8918 52.8058L66.8022 51.0113L64.7351 51.3318L64.8953 48.656L66.5298 47.6626L67.7156 48.0952L68.9174 45.4996L70.2474 45.9482L72.0101 44.4101L70.7602 42.936L71.3531 40.5487L70.2154 39.5874L72.1543 38.3537L72.6671 36.1746L73.917 36.399L76.4648 34.3801L77.6987 29.6536L79.1088 28.8365L80.2145 25.5839L82.5861 22.8441L82.4899 23.7253Z" stroke="#C3C6C9"/>
<path d="M99.8121 8.82459L100.213 11.0356L101.27 12.0611L102.376 11.2119L103.466 12.4937L102.616 20.0242L99.0109 22.6198L96.1586 20.7452L98.6584 18.5501L97.2483 17.0921L95.3414 18.1335L95.0209 17.2844L95.6619 15.618L95.4375 14.6888L96.6394 11.6285L99.8121 8.82459Z" stroke="#C3C6C9"/>
<path d="M136.956 8.77653L136.219 14.9931L134.713 15.0893L135.017 10.3147L135.803 8.72846L136.956 8.77653Z" stroke="#C3C6C9"/>
<path d="M114.843 1.71069L116.141 2.46374L116.013 3.76154L111.51 10.0423L111.574 8.408L108.481 8.21574L111.654 6.08474L112.311 3.60131L111.462 2.89632L113.369 1.22998L114.843 1.71069Z" stroke="#C3C6C9"/>
<path d="M177.738 121.557L179.228 121.669L179.132 123.4L174.613 122.47L175.527 120.323L177.738 121.557Z" stroke="#C3C6C9"/>
<path d="M161.826 106.753L159.534 114.059L157.852 112.264L160.896 106.833L161.826 106.753Z" stroke="#C3C6C9"/>
<path d="M140.193 104.974L142.693 107.217L140.289 108.884L138.318 107.041L140.193 104.974Z" stroke="#C3C6C9"/>
<path d="M159.823 81.6937L172.69 90.8264L171.168 94.3834L172.145 98.8696L170.896 100.071L171.745 101.321L172.626 100.648L174.805 101.337L176.408 104.173L177.818 103.997L184.997 109.492L185.83 111.832L187.256 112.408L187.801 115.244L186.599 115.997L187.272 118.625L180.943 120.211L180.494 118.369L178.587 120.596L176.616 119.314L174.725 115.869L173.283 115.661L171.12 117.279L170.415 116.783L170.703 121.044L168.428 119.298L168.812 117.343L167.306 117.504L167.45 116.045L166.088 116.911L165.383 115.933L165.72 114.267L166.729 114.876L167.883 113.129L169.79 113.402L170.896 112.344L170.319 106.448L169.005 105.887L166.793 107.474L165.896 104.718L164.582 105.583L163.188 104.99L161.473 106.576L162.531 103.404L158.268 104.125L157.595 100.264L156.073 101.577L155.032 99.1901L153.653 100.071L151.202 99.8149L150.961 98.9497L154.23 96.4182L154.423 93.9187L156.346 92.717L156.137 90.0894L154.343 89.4325L153.718 87.4297L155.32 84.6898L154.695 83.9689L156.49 83.1998L156.922 81.6937L158.397 81.7258L158.893 79.9793L159.823 81.6937Z" stroke="#C3C6C9"/>
</svg>
