<svg width="371" height="368" viewBox="0 0 371 368" fill="none" xmlns="http://www.w3.org/2000/svg">
<path d="M278.905 592.451L280.443 592.643L280.988 596.184L279.754 598.7L277.623 598.443L278.344 596.312L277.062 595.912L272.11 596.649L274.065 594.374L276.229 594.726L277.767 591.794L278.905 592.451ZM288.888 582.229L291.964 584.744L290.891 586.667L291.227 588.622L292.525 587.692L293.727 588.573L291.58 592.819L290.122 593.637L290.362 594.598L286.292 596.456L287.462 598.059L287.173 599.613L288.984 601.087L288.086 602.305L288.792 604.772L288.311 605.413L287.365 605.525L286.244 604.339L285.651 603.41L284.866 601.84L283.968 600.398L284.321 598.651L282.879 597.274L284.064 596.152L283.135 594.998L284.177 593.316L283.135 591.714L284.641 591.249L286.244 595.415L287.782 594.181L287.381 593.012L289.641 592.723L288.615 589.823L289.192 588.013L286.468 587.34L286.692 584.087L288.888 582.229ZM267.447 576.589L266.838 578.656L264.547 579.649L261.406 586.555L260.22 586.635L257.144 590.464L246.968 597.45L243.491 599.036L231.922 599.981L225.736 606.502L223.493 607.608L219.759 607.047L213.734 608.842L212.067 608.393L211.587 605.141L216.33 596.649L223.06 588.59L227.066 585.593L229.245 586.667L236.504 585.145L237.963 586.459L240.783 586.09L243.571 587.436L257.865 577.807L262.832 577.582L267.063 575.852L267.447 576.589ZM324.461 553.837L337.393 554.895L341.896 559.765L343.498 559.333L348.594 561.111L353.946 565.517L355.677 564.123L351.478 558.836L352.103 558.275L356.366 559.846L355.741 557.378L357.744 556.785L357.199 558.98L358.914 560.118L363.561 560.839L368.544 559.862L366.301 562.057L363.352 562.874L362.615 564.78L365.067 567.152L364.218 568.914L368.079 569.058L369.121 571.237L368.127 572.551L367.23 571.798L366.237 573.176L365.403 572.567L364.458 573.529L356.27 573L352.167 576.493L349.507 576.156L346.511 577.294L342.056 580.851L341.704 584.872L338.755 585.77L330.086 584.872L323.372 574.842L318.677 572.343L307.7 573.641L305.953 575.419L306.226 576.252L304.768 576.348L304.832 577.807L303.79 577.166L302.188 578.287L301.563 577.438L300.185 578.928L298.326 575.82L299.255 573.256L296.611 568.658L300.922 563.082L302.797 561.72L306.931 561.416L309.799 557.907L312.075 556.769L314.815 556.641L320.487 554.013L324.461 553.837ZM255.878 425.675L257.544 428.126L257.144 429.584L255.012 429.152L254.58 424.601L255.878 425.675ZM242.081 420.724L245.238 420.868L245.702 422.182L247.193 421.397L249.1 422.278L249.148 423.528L254.051 424.329L253.618 426.492L252.417 425.675L251.936 427.629L250.782 427.918L249.388 427.149L248.154 425.595L246.696 426.139L244.517 425.803L243.587 422.855L241.28 420.291L242.081 420.724ZM146.24 419.378L147.137 419.506L146.064 421.221L146.865 423.015L142.394 422.646L144.622 419.026L146.24 419.378ZM216.394 409.396L221.281 412.168L224.198 411.399L227.307 418.128L230.287 418.224L231.874 418.337L233.268 418.401L234.614 416.318L236.52 418.625L237.947 418.801L238.427 421.765L236.745 424.217L237.033 429.071L235.767 430.401L233.38 430.321L232.835 432.564L235.495 432.66L235.735 433.974L236.697 434.711L237.178 435.961L234.325 442.979L234.293 445.574L235.703 451.983L235.735 453.634L235.479 457.671L238.219 459.674L237.209 461.421L238.123 462.991L229.887 470.249L230.095 475.104L231.761 477.315L229.326 481.705L220.657 483.547L218.493 487.04L218.621 490.501L216.875 493.032L214.824 491.735L214.247 490.036L210.529 489.443L207.837 485.951L208.045 484.348L204.52 484.781L204.472 482.233L203.527 482.714L202.1 481.432L201.075 480.327L198.912 480.647L198.639 475.328L195.531 475.456L197.277 469.992L199.072 469.752L203.366 465.298L204.376 465.106L205.161 465.186L206.86 465.522L208.334 466.452L210.032 466.083L211.218 463.439L210.321 462.045L211.202 460.075L212.965 459.658L213.077 457.207L214.359 457.719L214.167 454.435L214.055 453.505L214.183 452.015L213.109 450.878L212.708 449.564L211.25 446.904L209.215 446.424L208.831 439.31L207.228 438.445L206.748 436.057L202.084 433.542L199.328 433.317L195.354 430.177L190.723 420.451L194.489 414.171L199.296 412.585L206.107 412.793L216.394 409.396ZM154.508 408.883L156.528 408.787L158.707 411.703L160.662 412.264L161.078 415.18L159.764 416.254L158.963 422.502L155.646 422.598L153.243 420.596L152.281 422.855L151.256 419.763L152.602 417.087L147.538 411.559L148.435 409.941L150.871 410.982L152.217 409.476L154.508 408.883ZM266.021 267.198L267.479 267.006L267.704 267.823L265.3 271.364L266.197 272.886L267.431 272.742L268.345 274.248L272.559 273.559L276.148 275.434L273.793 277.885L274.915 278.51L272.271 280.256L269.562 286.137L283.295 295.413L283.391 297.208L284.93 297.56L287.125 303.617L292.798 305.94L291.419 307.11L291.339 310.843L293.855 311.34L294.753 315.842L295.105 317.3L295.265 319.11L300.505 323.981L303.069 328.483L303.63 331.928L302.316 335.133L300.121 335.245L296.002 333.37L294.977 334.348L293.39 333.466L291.852 331.512L289.977 329.781L288.631 327.698L289.705 325.343L291.644 325.199L291.147 321.802L287.301 316.547L284.193 314.913L279.241 316.947L278.648 318.357L279.818 321.722L282.302 324.446L285.475 325.632L291.307 332.954L292.157 336.847L292.189 338.369L293.198 339.122L289.497 342.247L283.552 342.359L272.303 343.753L267.175 341.237L261.967 341.173L255.894 336.607L248.555 333.915L241.536 333.803L239.341 335.966L239.148 334.476L235.96 332.056L232.45 325.68L229.935 323.613L227.29 323.404L227.259 322.283L229.005 321.786L230.207 319.543L231.745 318.95L234.614 320.681L239.165 318.389L242.113 313.679L245.19 312.173L247.032 312.685L250.846 310.458L251.471 309.096L255.493 308.263L257.528 303.088L256.967 301.486L252.865 299.419L244.132 298.666L239.309 300.509L237.53 303.088L237.386 307.366L235.591 308.424L234.55 311.099L232.803 311.308L231.184 317.508L230.207 315.457L229.021 316.098L227.595 317.652L227.194 320.312L226.073 320.889L216.747 317.524L208.622 317.716L207.084 313.855L197.037 309.209L196.508 306.212L192.518 304.754L191.156 303.008L191.028 301.951L193.896 303.376L193.351 297.817L193.704 295.67L192.919 294.628L195.194 292.337L194.297 289.79L197.534 287.194L198.992 285.864L201.315 284.582L201.267 282.451L203.959 282.371L203.479 284.566L204.536 285.367L206.203 284.566L208.622 286.169L209.888 284.566L211.651 284.198L214.391 285.528L215.849 283.477L217.74 282.772L218.605 283.813L221.698 282.868L224.006 282.531L228.637 280.577L231.681 280.256L236.985 277.116L239.293 276.972L241.168 274.793L239.645 273.287L240.334 270.435L239.213 268.544L241.728 266.99L243.443 267.967L248.731 266.349L260.445 268.111L264.178 265.067L266.021 267.198ZM73.7464 234.561L79.5471 239.319L74.9803 245.44L73.1535 245.84L70.8941 248.116L69.3397 251.384L67.2726 245.344L67.7854 239.207L70.3332 235.891L71.0704 232.766L73.7464 234.561ZM133.997 149.226L133.981 150.091L135.151 154.834L130.697 157.237L129.719 159.929L127.331 161.499L126.354 165.232L127.155 168.004L124.575 167.331L123.053 168.036L122.716 171.785L124.607 171.913L120.297 174.301L120.681 176.432L122.604 177.874L120.585 179.011L120.97 181.959L125.072 186.526L122.075 188.416L122.524 191.989L114.752 189.923L112.878 187.247L113.711 184.523L109.545 183.001L109.24 181.287L107.077 179.075L105.106 179.508L106.308 177.441L108.487 177.585L110.121 176.32L109.016 174.765L111.387 170.792L109.176 169.622L109.609 168.565L108.15 167.684L104.833 168.052L98.7121 173.067L101.981 172.715L104.593 174.205L100.379 174.461L97.4141 179.572L98.0712 180.55L99.5454 179.412L100.443 180.79L101.468 181.206L101.34 185.18L105.298 189.698L100.058 188.673L95.1067 189.49L93.4402 187.279L91.0686 188.304L94.6259 180.213H96.1643L96.4367 179.043L95.5233 178.483L93.2639 179.204L92.4788 181.351L90.716 182.552L89.7707 182.28L90.3635 180.598L88.4246 179.316L83.473 181.431L82.2873 181.046L78.794 183.001L77.9127 182.632L78.121 181.19L80.7009 179.14L80.0119 177.81L78.5377 178.819L78.1691 178.034L79.8676 175.294L78.6178 174.413L80.2202 172.939L79.0023 172.266L80.8932 170.471L81.6303 166.722L80.3644 164.671L78.0569 163.918L78.6819 161.787L77.5441 159.48L78.3774 155.827L77.8646 154.497L76.0699 154.465L76.9032 153.584L78.5216 154.433L82.3835 152.831L85.9569 153.199L91.4051 149.947L93.1678 151.052L93.0396 153.296L95.1067 152.623L95.8598 153.312L99.257 151.998L99.4011 150.876L102.141 151.806L104.705 150.203L106.933 153.472L109.528 154.209L110.714 153.28L110.858 154.433L109.128 155.971L110.009 157.317L109.432 158.295L113.07 159.865L110.923 161.323L113.23 162.653L115.409 161.034L115.265 159.672L116.739 159L116.98 157.638L119.063 157.077V158.23L117.669 158.759L118.358 159.608L121.258 157.894L121.499 156.788L119.752 155.747L124.655 150.956L124.591 148.921L123.742 148.553L124.463 147.8L129.11 150.235L131.466 147.031L135.472 144.579L135.263 146.374L133.453 147.784L133.997 149.226Z" fill="white"/>
<path d="M155.887 56.5372L165.613 58.7482L171.638 63.9876L171.174 72.3031L157.665 77.4944L151.592 77.1579L149.028 73.8092L144.221 71.6783L137.186 65.5097L134.895 62.0488L138.436 62.7538L142.106 58.5079L146.641 56.5692L152.457 55.4957L155.887 56.5372ZM22.0201 2.01329L23.4944 3.968L27.1639 5.29784L30.3687 3.69562L32.4198 5.44206L31.843 6.73985L33.5255 9.19127L35.5446 10.9537L38.6212 10.8416L40.3038 12.9565L39.8871 14.2063L37.2912 13.6935L36.3939 15.7284L36.7624 18.2118L39.8871 18.8848L39.0699 19.9743L40.0313 22.4257L37.0669 24.765L38.0444 30.1645L39.2942 30.7092L38.7174 33.0805L40.2076 33.7855L39.0219 37.3745L37.147 35.2115L33.9582 38.6883L30.5771 39.6176L27.0357 40.1464L23.6226 41.9409L23.959 43.2226L21.1708 43.5271L20.2574 44.6967L19.6806 42.005L16.9725 41.7806L14.3926 39.8419L14.9855 37.1823L12.3575 34.5546L10.1622 33.7695L3.51216 34.7308L3.04744 31.991L1.26877 31.5264L1.12451 26.96L4.07302 17.2505L7.69446 11.9631L8.09507 8.18187L11.5403 7.89346L13.0626 5.1857L15.2419 4.73707L20.8343 0.827637L22.0201 2.01329Z" fill="white"/>
<path d="M278.905 592.451L280.443 592.643L280.988 596.184L279.754 598.7L277.623 598.443L278.344 596.312L277.062 595.912L272.11 596.649L274.065 594.374L276.229 594.726L277.767 591.794L278.905 592.451ZM288.888 582.229L291.964 584.744L290.891 586.667L291.227 588.622L292.525 587.692L293.727 588.573L291.58 592.819L290.122 593.637L290.362 594.598L286.292 596.456L287.462 598.059L287.173 599.613L288.984 601.087L288.086 602.305L288.792 604.772L288.311 605.413L287.365 605.525L286.244 604.339L285.651 603.41L284.866 601.84L283.968 600.398L284.321 598.651L282.879 597.274L284.064 596.152L283.135 594.998L284.177 593.316L283.135 591.714L284.641 591.249L286.244 595.415L287.782 594.181L287.381 593.012L289.641 592.723L288.615 589.823L289.192 588.013L286.468 587.34L286.692 584.087L288.888 582.229ZM267.447 576.589L266.838 578.656L264.547 579.649L261.406 586.555L260.22 586.635L257.144 590.464L246.968 597.45L243.491 599.036L231.922 599.981L225.736 606.502L223.493 607.608L219.759 607.047L213.734 608.842L212.067 608.393L211.587 605.141L216.33 596.649L223.06 588.59L227.066 585.593L229.245 586.667L236.504 585.145L237.963 586.459L240.783 586.09L243.571 587.436L257.865 577.807L262.832 577.582L267.063 575.852L267.447 576.589ZM324.461 553.837L337.393 554.895L341.896 559.765L343.498 559.333L348.594 561.111L353.946 565.517L355.677 564.123L351.478 558.836L352.103 558.275L356.366 559.846L355.741 557.378L357.744 556.785L357.199 558.98L358.914 560.118L363.561 560.839L368.544 559.862L366.301 562.057L363.352 562.874L362.615 564.78L365.067 567.152L364.218 568.914L368.079 569.058L369.121 571.237L368.127 572.551L367.23 571.798L366.237 573.176L365.403 572.567L364.458 573.529L356.27 573L352.167 576.493L349.507 576.156L346.511 577.294L342.056 580.851L341.704 584.872L338.755 585.77L330.086 584.872L323.372 574.842L318.677 572.343L307.7 573.641L305.953 575.419L306.226 576.252L304.768 576.348L304.832 577.807L303.79 577.166L302.188 578.287L301.563 577.438L300.185 578.928L298.326 575.82L299.255 573.256L296.611 568.658L300.922 563.082L302.797 561.72L306.931 561.416L309.799 557.907L312.075 556.769L314.815 556.641L320.487 554.013L324.461 553.837ZM255.878 425.675L257.544 428.126L257.144 429.584L255.012 429.152L254.58 424.601L255.878 425.675ZM242.081 420.724L245.238 420.868L245.702 422.182L247.193 421.397L249.1 422.278L249.148 423.528L254.051 424.329L253.618 426.492L252.417 425.675L251.936 427.629L250.782 427.918L249.388 427.149L248.154 425.595L246.696 426.139L244.517 425.803L243.587 422.855L241.28 420.291L242.081 420.724ZM146.24 419.378L147.137 419.506L146.064 421.221L146.865 423.015L142.394 422.646L144.622 419.026L146.24 419.378ZM216.394 409.396L221.281 412.168L224.198 411.399L227.307 418.128L230.287 418.224L231.874 418.337L233.268 418.401L234.614 416.318L236.52 418.625L237.947 418.801L238.427 421.765L236.745 424.217L237.033 429.071L235.767 430.401L233.38 430.321L232.835 432.564L235.495 432.66L235.735 433.974L236.697 434.711L237.178 435.961L234.325 442.979L234.293 445.574L235.703 451.983L235.735 453.634L235.479 457.671L238.219 459.674L237.209 461.421L238.123 462.991L229.887 470.249L230.095 475.104L231.761 477.315L229.326 481.705L220.657 483.547L218.493 487.04L218.621 490.501L216.875 493.032L214.824 491.735L214.247 490.036L210.529 489.443L207.837 485.951L208.045 484.348L204.52 484.781L204.472 482.233L203.527 482.714L202.1 481.432L201.075 480.327L198.912 480.647L198.639 475.328L195.531 475.456L197.277 469.992L199.072 469.752L203.366 465.298L204.376 465.106L205.161 465.186L206.86 465.522L208.334 466.452L210.032 466.083L211.218 463.439L210.321 462.045L211.202 460.075L212.965 459.658L213.077 457.207L214.359 457.719L214.167 454.435L214.055 453.505L214.183 452.015L213.109 450.878L212.708 449.564L211.25 446.904L209.215 446.424L208.831 439.31L207.228 438.445L206.748 436.057L202.084 433.542L199.328 433.317L195.354 430.177L190.723 420.451L194.489 414.171L199.296 412.585L206.107 412.793L216.394 409.396ZM154.508 408.883L156.528 408.787L158.707 411.703L160.662 412.264L161.078 415.18L159.764 416.254L158.963 422.502L155.646 422.598L153.243 420.596L152.281 422.855L151.256 419.763L152.602 417.087L147.538 411.559L148.435 409.941L150.871 410.982L152.217 409.476L154.508 408.883ZM266.021 267.198L267.479 267.006L267.704 267.823L265.3 271.364L266.197 272.886L267.431 272.742L268.345 274.248L272.559 273.559L276.148 275.434L273.793 277.885L274.915 278.51L272.271 280.256L269.562 286.137L283.295 295.413L283.391 297.208L284.93 297.56L287.125 303.617L292.798 305.94L291.419 307.11L291.339 310.843L293.855 311.34L294.753 315.842L295.105 317.3L295.265 319.11L300.505 323.981L303.069 328.483L303.63 331.928L302.316 335.133L300.121 335.245L296.002 333.37L294.977 334.348L293.39 333.466L291.852 331.512L289.977 329.781L288.631 327.698L289.705 325.343L291.644 325.199L291.147 321.802L287.301 316.547L284.193 314.913L279.241 316.947L278.648 318.357L279.818 321.722L282.302 324.446L285.475 325.632L291.307 332.954L292.157 336.847L292.189 338.369L293.198 339.122L289.497 342.247L283.552 342.359L272.303 343.753L267.175 341.237L261.967 341.173L255.894 336.607L248.555 333.915L241.536 333.803L239.341 335.966L239.148 334.476L235.96 332.056L232.45 325.68L229.935 323.613L227.29 323.404L227.259 322.283L229.005 321.786L230.207 319.543L231.745 318.95L234.614 320.681L239.165 318.389L242.113 313.679L245.19 312.173L247.032 312.685L250.846 310.458L251.471 309.096L255.493 308.263L257.528 303.088L256.967 301.486L252.865 299.419L244.132 298.666L239.309 300.509L237.53 303.088L237.386 307.366L235.591 308.424L234.55 311.099L232.803 311.308L231.184 317.508L230.207 315.457L229.021 316.098L227.595 317.652L227.194 320.312L226.073 320.889L216.747 317.524L208.622 317.716L207.084 313.855L197.037 309.209L196.508 306.212L192.518 304.754L191.156 303.008L191.028 301.951L193.896 303.376L193.351 297.817L193.704 295.67L192.919 294.628L195.194 292.337L194.297 289.79L197.534 287.194L198.992 285.864L201.315 284.582L201.267 282.451L203.959 282.371L203.479 284.566L204.536 285.367L206.203 284.566L208.622 286.169L209.888 284.566L211.651 284.198L214.391 285.528L215.849 283.477L217.74 282.772L218.605 283.813L221.698 282.868L224.006 282.531L228.637 280.577L231.681 280.256L236.985 277.116L239.293 276.972L241.168 274.793L239.645 273.287L240.334 270.435L239.213 268.544L241.728 266.99L243.443 267.967L248.731 266.349L260.445 268.111L264.178 265.067L266.021 267.198ZM73.7464 234.561L79.5471 239.319L74.9803 245.44L73.1535 245.84L70.8941 248.116L69.3397 251.384L67.2726 245.344L67.7854 239.207L70.3332 235.891L71.0704 232.766L73.7464 234.561ZM133.997 149.226L133.981 150.091L135.151 154.834L130.697 157.237L129.719 159.929L127.331 161.499L126.354 165.232L127.155 168.004L124.575 167.331L123.053 168.036L122.716 171.785L124.607 171.913L120.297 174.301L120.681 176.432L122.604 177.874L120.585 179.011L120.97 181.959L125.072 186.526L122.075 188.416L122.524 191.989L114.752 189.923L112.878 187.247L113.711 184.523L109.545 183.001L109.24 181.287L107.077 179.075L105.106 179.508L106.308 177.441L108.487 177.585L110.121 176.32L109.016 174.765L111.387 170.792L109.176 169.622L109.609 168.565L108.15 167.684L104.833 168.052L98.7121 173.067L101.981 172.715L104.593 174.205L100.379 174.461L97.4141 179.572L98.0712 180.55L99.5454 179.412L100.443 180.79L101.468 181.206L101.34 185.18L105.298 189.698L100.058 188.673L95.1067 189.49L93.4402 187.279L91.0686 188.304L94.6259 180.213H96.1643L96.4367 179.043L95.5233 178.483L93.2639 179.204L92.4788 181.351L90.716 182.552L89.7707 182.28L90.3635 180.598L88.4246 179.316L83.473 181.431L82.2873 181.046L78.794 183.001L77.9127 182.632L78.121 181.19L80.7009 179.14L80.0119 177.81L78.5377 178.819L78.1691 178.034L79.8676 175.294L78.6178 174.413L80.2202 172.939L79.0023 172.266L80.8932 170.471L81.6303 166.722L80.3644 164.671L78.0569 163.918L78.6819 161.787L77.5441 159.48L78.3774 155.827L77.8646 154.497L76.0699 154.465L76.9032 153.584L78.5216 154.433L82.3835 152.831L85.9569 153.199L91.4051 149.947L93.1678 151.052L93.0396 153.296L95.1067 152.623L95.8598 153.312L99.257 151.998L99.4011 150.876L102.141 151.806L104.705 150.203L106.933 153.472L109.528 154.209L110.714 153.28L110.858 154.433L109.128 155.971L110.009 157.317L109.432 158.295L113.07 159.865L110.923 161.323L113.23 162.653L115.409 161.034L115.265 159.672L116.739 159L116.98 157.638L119.063 157.077V158.23L117.669 158.759L118.358 159.608L121.258 157.894L121.499 156.788L119.752 155.747L124.655 150.956L124.591 148.921L123.742 148.553L124.463 147.8L129.11 150.235L131.466 147.031L135.472 144.579L135.263 146.374L133.453 147.784L133.997 149.226Z" stroke="#C3C6C9"/>
<path d="M155.887 56.5372L165.613 58.7482L171.638 63.9876L171.174 72.3031L157.665 77.4944L151.592 77.1579L149.028 73.8092L144.221 71.6783L137.186 65.5097L134.895 62.0488L138.436 62.7538L142.106 58.5079L146.641 56.5692L152.457 55.4957L155.887 56.5372ZM22.0201 2.01329L23.4944 3.968L27.1639 5.29784L30.3687 3.69562L32.4198 5.44206L31.843 6.73985L33.5255 9.19127L35.5446 10.9537L38.6212 10.8416L40.3038 12.9565L39.8871 14.2063L37.2912 13.6935L36.3939 15.7284L36.7624 18.2118L39.8871 18.8848L39.0699 19.9743L40.0313 22.4257L37.0669 24.765L38.0444 30.1645L39.2942 30.7092L38.7174 33.0805L40.2076 33.7855L39.0219 37.3745L37.147 35.2115L33.9582 38.6883L30.5771 39.6176L27.0357 40.1464L23.6226 41.9409L23.959 43.2226L21.1708 43.5271L20.2574 44.6967L19.6806 42.005L16.9725 41.7806L14.3926 39.8419L14.9855 37.1823L12.3575 34.5546L10.1622 33.7695L3.51216 34.7308L3.04744 31.991L1.26877 31.5264L1.12451 26.96L4.07302 17.2505L7.69446 11.9631L8.09507 8.18187L11.5403 7.89346L13.0626 5.1857L15.2419 4.73707L20.8343 0.827637L22.0201 2.01329Z" stroke="#C3C6C9"/>
</svg>
