<svg width="588" height="283" viewBox="0 0 588 283" fill="none" xmlns="http://www.w3.org/2000/svg">
<path d="M111.024 0.961914L116.216 3.1089L120.318 2.03541L122.514 4.24647L124.709 3.66966L131.199 10.399L133.811 14.5328L134.211 17.577L136.695 19.1953L138.426 24.6429L141.727 27.6871L139.884 30.1546L142.848 30.5551L142.432 33.8557L143.441 37.6049L136.647 41.4983L141.23 47.2503L141.246 50.6631L144.355 55.9344L147.656 55.5018L150.524 53.7394L155.123 55.7742L154.562 63.0483L152.96 66.3169L150.828 67.6628L147.88 66.0605L146.694 67.3744L150.332 72.838L153.985 75.8822L154.963 78.2535L154.274 80.3043L155.988 82.9641L154.819 85.063L156.613 85.9602L156.677 89.1326L166.628 92.6736L168.936 88.7641L171.884 88.9884L176.163 86.9055L179.864 89.373L182.412 89.1166L185.425 92.9299L185.616 93.0492L188.485 90.9913L189.126 93.6029L192.427 95.3173L193.148 96.9516L195.904 96.6472L196.706 97.8969L198.004 97.8008L198.901 95.7339L200.712 96.1825L203.548 94.1157L204.317 90.1421L201.817 89.7576L204.413 86.0404L206.48 86.6973L209.173 85.063L211.24 85.1912L212.441 87.2261L214.22 85.8321L216.816 86.9537L220.069 85.9122L224.107 87.4664L226.863 86.1846L229.796 89.4532L230.437 92.4974L232.263 93.9394L237.792 90.4145L241.782 93.3466L246.092 90.799L248.208 90.8952L250.082 92.1609L250.163 93.3786L253.079 93.2985L256.204 95.2532L262.501 92.209L268.622 93.0422L270.273 94.3239L273.141 94.1637L274.007 95.5096L275.272 92.93L272.949 84.9669L273.782 81.8586L267.757 74.7607L270.065 74.969L272.725 73.2066L273.894 69.6336L276.795 69.922L279.086 68.2717L282.964 61.0616L286.185 58.6102L285.704 55.4538L289.31 55.1174L290.207 52.2334L297.001 45.8565L298.46 42.3796L301.007 39.9603L301.969 38.3901L299.886 34.9132L300.959 33.5674L303.587 35.2818L304.02 32.7182L303.091 30.9557L303.699 30.6032L315.077 29.706L316.695 30.8276L317.641 32.8303L314.516 35.6663L313.939 38.4702L316.631 38.1978L316.198 42.1233L317.689 46.4493L321.118 44.9913L324.467 40.0083L325.108 36.4994L327.848 33.7116L332.976 32.2535L337.35 36.5956L336.116 39.7199L336.453 42.0111L337.799 40.0404L340.026 40.1846L339.033 47.9554L336.357 53.3709L338.376 53.8837L338.825 56.2389L340.539 57.1041L340.972 58.8826L343.824 57.0721L345.587 59.7799L348.535 58.5782L350.602 61.1578L356.579 64.3302L358.23 72.1491L359.159 74.0237L360.569 74.1358L362.348 76.0906L373.02 74.2961L376.145 71.7325L380.439 72.9502L382.491 76.5071L385.792 73.559L383.356 71.5242L388.724 75.3856L389.782 77.9812L388.884 82.5956L392.538 90.8952L397.073 93.2024L403.466 100.493L409.139 103.441L411.334 117.46L414.539 126.064L415.468 132.858L420.997 145.788L426.717 148.255L427.999 150.258L430.836 149.761L433.159 153.927L437.277 154.039L443.895 159.15L446.908 166.456L454.792 176.406L456.25 176.534L457.452 178.057L460.112 184.417L463.846 188.679L467.307 190.153L469.518 193.198L470.127 197.411L471.425 198.629L471.457 201.866L475.944 206.528L475.848 208.162L478.187 210.325L478.235 212.761L480.815 217.087L478.684 222.166L474.39 225.803L469.614 225.947L466.089 228.687L463.237 228.655L462.548 227.549L460.753 228.607L460.16 230.273L462.948 231.459L459.615 233.013L459.775 234.343L457.532 232.757L454.423 233.43L453.911 235L449.328 234.615L448.014 236.442L443.174 235.577L440.995 236.282L440.626 234.904L437.806 234.151L440.146 230.289L440.498 226.172L442.117 224.858L444.024 225.659L446.091 222.454L446.347 226.652L448.046 226.973L444.745 231.01L443.895 234.038L446.059 233.494L450.818 229.696L452.949 229.985L453.542 228.799L455.946 228.543L455.545 224.633L456.699 222.599L457.596 223.544L459.407 225.483L461.041 224.97L461.939 217.391L457.788 213.61L457.276 210.918L455.946 209.925L456.587 205.855L454.423 203.66L454.055 201.834L448.398 197.203L447.982 195.857L441.139 193.919L438.511 194.608L433.512 193.854L432.086 189.48L430.435 189.032L429.393 187.253L425.996 187.638L421.99 185.299L421.638 186.244L420.436 185.523L419.699 187.51L421.462 187.606L421.99 188.631L419.843 193.182L421.365 193.903L422.824 196.594L421.51 197.524L416.943 197.54L415.5 198.934L412.889 197.876L411.286 199.158L410.293 198.725L404.812 200.824L403.835 207.217L404.604 212.216L409.7 224.313L410.549 224.681L411.975 220.884L413.257 220.676L411.927 217.696L414.924 217.183L414.443 220.9L416.398 220.5L418 223.143L417.984 227.597L419.458 231.202L420.58 231.875L422.183 231.17L420.628 228.943L421.157 227.71L422.647 230.001L425.323 229.985L425.836 232.052L428.031 233.798L427.134 235.625L428.031 238.028L430.579 239.662L428.849 242.146L429.986 243.027L428.993 244.165L429.986 245.414L427.519 245.254L426.846 246.648L425.051 246.151L424.875 251.006L430.499 248.843L431.781 247.081L432.983 247.593L435.435 245.19L440.146 244.902L438.672 249.228L434.97 248.955L433.56 251.006L433.538 251.042L432.086 256.293L429.963 257.892L429.922 258.111L429.671 258.198L429.201 262.141L426.141 260.651L423.064 263.519L421.397 262.125L420.74 263.375L421.926 265.009L419.49 265.586L418.769 266.836L409.812 265.49L407.184 268.566L407.601 271.53L406.014 272.524L402.409 272.876L399.701 274.639L398.082 274.094L395.791 276.241L390.951 274.959L388.692 272.636L386.529 274.414L382.923 273.693L379.991 269.816L376.433 269.319L375.6 268.23L373.485 268.726L369.511 272.396L365.601 273.677L365.441 275.039L366.498 275.584L362.524 278.035L364.591 278.372L368.149 276.289L369.751 276.786L365.986 279.814L366.883 279.878L366.258 282.586L369.19 281.384L369.575 284.284L371.322 284.172L372.251 281.881L371.722 280.903L373.068 280.871L372.588 282.858L373.757 285.005L376.914 282.137L379.35 283.178L385.103 281.448L386.865 279.349L388.339 283.05L390.983 284.46L397.008 292.439L398.707 293.064L400.117 291.927L402.841 292.263L405.341 290.725L411.222 297.182L416.125 293.144L419.41 294.17L421.461 297.294L425.788 298.688L433.416 297.919L435.531 296.637L439.921 302.694L439.729 309.727L442.854 315.576L442.934 317.659L444.617 317.691L446.155 320.703L448.478 318.396L449.456 319.149L450.193 317.114L453.718 316.697L455.321 316.617L458.029 315.928L458.237 314.855L454.471 311.57L459.15 310.577L466.618 317.018L470.896 316.04L475.591 317.546L478.972 321.248L479.517 324.18L476.985 326.727L474.662 327.32L472.018 330.54L471.441 333.633L473.284 330.925L476.056 330.829L476.489 333.649L477.578 334.242L477.642 335.812L477.803 336.677L478.796 337.67L480.27 336.501L484.982 338.792L484.212 339.657L478.444 340.25L477.995 343.807L480.318 343.791L481.857 342.685L483.603 341.66L488.619 341.772L489.789 343.903L497.176 343.759L499.307 346.002L504.563 347.268L507.976 341.788L509.995 342.525L515.86 348.806L515.203 350.584L513.44 350.472L511.79 352.171L512.495 353.516L516.677 354.157L516.886 355.295L515.924 355.199L517.431 357.618L516.229 359.028L518.777 358.708L521.629 360.102L520.972 363.707L522.815 368.257L527.318 372.401L529.93 372.952L533.263 373.945L535.426 372.84L535.683 373.705L536.179 374.346L540.875 373.08L543.406 376.172L546.483 374.955L550.056 378.015L555.216 378.752L558.934 381.235L560.761 380.546L567.491 383.03L574.333 390.576L580.727 395.367L581.304 397.001L584.637 398.491L584.717 399.869L583.034 400.222L582.457 401.648L585.614 405.285L582.97 405.894L583.611 407.448L582.393 408.281L581.576 408.938L579.829 408.842L576 410.572L571.433 415.283L571.962 418.936L574.541 422.381L573.756 425.345L574.269 428.677L575.567 429.975L575.455 431.577L576.817 431.61L578.772 436.112L575.759 438.067L575.439 441.976L576.849 445.02L574.237 448.209L578.788 448.705L580.951 452.406L578.788 454.505L576 454.009L575.503 454.698L576.448 456.204L577.939 458.239L579.429 458.671L579.381 457.646L580.55 457.213L580.07 459.52L582.473 460.53L581.159 464.295L582.81 465.753L580.887 466.955L583.371 468.301L583.179 469.935L586.335 471.617L585.774 472.755L586.656 474.501L585.614 478.523L584.829 478.651L585.822 481.118L583.563 480.878L583.034 482.096L581.929 483.057L582.009 484.627L583.323 484.948L583.771 486.422L582.249 487.143L583.819 489.386L584.589 492.238L583.723 493.44L581.881 492.991L581.624 494.481L579.028 496.42L578.676 498.262L577.714 498.31L577.201 496.9L575.871 497.445L572.875 496.115L571.385 497.189L570.007 495.282L565.376 494.417L564.991 487.848L566.321 485.477L564.863 484.804L563.228 486.822L561.305 485.797L560.104 483.153V476.055L558.693 475.046L557.764 475.863L558.277 474.485L555.328 472.498L555.024 471.233L552.508 470.368L550.521 468.06L550.056 469.502L548.903 469.358L547.637 467.291L545.89 467.772L545.121 471.153L543.663 471.697L542.493 468.749L541.163 471.521L540.49 470.384L541.58 469.15L539.128 468.621L540.987 467.564L541.115 464.808L538.407 462.052L536.868 462.244L538.471 460.306L535.907 457.79L535.106 458.239L534.625 456.957L535.586 457.454L533.423 454.089L533.808 452.134L531.404 451.093L532.446 450.788L531.741 450.099L531.532 450.949L531.052 449.378L528.472 447.6L529.561 445.725L527.286 444.94L524.081 446.863L523.697 445.917L523.104 447.952L521.373 448.225L520.043 446.847L522.286 446.078L522.783 444.043L519.867 445.934L518.905 445.148L519.258 444.059L517.719 444.315L518.328 441.848L516.357 442.713L515.829 441.912L510.252 442.28L509.836 438.964L512.592 436.769L510.605 434.99L514.066 435.855L516.806 433.596L515.716 432.619L516.438 432.827L516.165 428.982L513.217 426.931L510.252 427.027L508.345 429.062L505.477 426.819L504.419 428.277L502.625 427.972L500.622 430.392L495.382 430.536L490.655 435.118L490.126 437.233L486.2 438.643L490.927 440.582L487.754 441.111L487.354 439.909L482.242 440.021L481.344 439.092L477.226 439.22L474.438 440.518L470.272 439.172L465.657 439.348L456.731 443.658L454.904 440.101L449.184 438.403L445.915 436.208L446.652 432.843L449.152 430.616L447.133 429.527L447.533 423.759L454.921 421.451L456.827 418.567L461.426 416.805L461.619 413.568L459.936 411.87L459.327 412.543L456.363 412.03L455.722 408.826L461.426 408.73L462.853 407.48L462.468 406.198L456.94 404.452L449.376 405.109L448.697 404.342L448.639 404.355L448.674 404.317L448.623 404.259L449.385 403.545L451.074 401.712L446.668 397.209L440.178 403.858L438.928 402.336L434.649 402.352L437.999 399.581L434.553 397.482L434.105 396.04L426.493 395.911L425.035 395.863L423.609 394.261L421.766 395.767L419.875 395.399L418.898 398.074L420.756 398.779L421.606 397.193L422.792 397.129L424.875 398.315L426.141 400.654L422.022 401.567L418.16 399.26L415.484 391.922L414.267 391.97L413.722 394.405L411.302 392.515L407.536 393.861L402.585 392.371L400.662 392.002L398.643 392.21L396.4 389.775L398.355 387.66L399.348 386.57L401.367 385.785L401.351 384.6L395.182 382.613L394.573 380.738L386.384 377.133L384.51 372.359L385.824 371.413L385.247 368.529L381.321 364.572L377.09 366.543L379.847 368.161L378.228 371.253L376.562 370.724L375.808 368.609L374.302 370.099L373.421 369.539L372.219 370.628L370.905 375.451L374.014 377.117L371.322 379.248L371.29 382.373L370.617 384.039L366.066 383.382L366.098 381.379L363.967 377.502L361.21 375.243L361.691 374.073L364.159 373.833L364.079 372.407L360.505 369.282L359.303 365.469L356.179 362.97L352.157 357.073L346.789 356.272L346.708 354.045L345.346 354.189L344.369 353.02L343.968 356.032L345.09 356.817L345.507 359.429L346.564 359.781L344.545 360.566L343.424 359.893L340.315 363.659L342.302 366.703L343.776 365.886L344.417 368.513L341.773 368.593L341.148 371.814L341.933 370.805L343.424 371.509L341.164 373.048L340.892 374.345L338.168 373.672L338.135 371.413L333.088 372.327L329.547 370.099L329.595 371.686L327.8 373.352L322.656 368.866L321.454 370.805L319.74 369.491L314.724 373.336L313.266 376.476L309.324 371.317L308.379 372.455L306.359 371.542L307.032 371.285L306.472 369.667L305.061 369.379L304.757 368.065L302.898 368.401L302.241 367.456L301.616 368.129L296.2 365.293L294.037 362.986L287.227 363.851L285.704 362.12L280.576 361.063L277.275 360.887L271.747 367.456L268.702 367.856L265.466 366.751L265.382 366.276L265.209 366.398L262.533 364.251L260.674 366.366L256.043 367.744L252.871 376.268L247.951 374.922L243.737 372.022L240.436 372.952L234.731 370.949L231.799 373.721L227.312 373.416L225.806 376.348L221.559 377.342L215.47 382.228L211.752 381.572L207.073 377.566L202.795 376.38L203.292 375.403L205.455 376.22L206.625 375.595L208.516 378.191L209.477 377.582L212.506 380.418L211.881 375.739L210.887 375.467L210.551 373.977L211.464 374.137L212.506 371.077L209.926 371.558L209.509 370.26L211.079 369.779L209.942 368.674L206.272 368.754L203.917 370.628L201.865 369.395L204.093 367.328L202.17 364.396L201.08 367.488L196.289 363.931L195.28 362.072L196.481 360.374L194.783 359.717L195.183 356.993L193.164 356.32L194.43 355.904L194.751 354.446L192.139 349.03L188.549 344.913L186.13 348.373L193.1 356.272L192.555 357.618L191.386 357.474L192.283 359.893L191.097 362.986L191.338 365.854L189.367 365.725L187.7 367.824L184.704 367.969L184.688 370.452V371.622L184.415 372.455L184.271 373.544L183.341 374.426L182.604 373.32L181.29 374.281L176.788 375.739L177.012 376.893L175.746 378.095L174.897 377.726L173.967 377.085L173.102 378.816L175.842 380.418L179.672 380.53L176.371 381.523L171.852 380.498L167.51 381.604L165.17 381.443L162.782 380.322L161.789 374.81L157.142 375.227L156.837 373.368L157.815 373.416L158.312 370.42L156.869 368.706L155.86 369.571L156.805 366.142L157.767 365.87L157.687 368.866L160.763 364.059L160.235 363.707L160.475 360.342L163.023 361.592L164.209 362.072L165.154 360.646L158.408 359.493L160.235 358.147L159.193 355.679L158.584 354.91L156.853 350.777L157.671 348.71L157.126 348.165L155.571 348.774L154.914 347.572L153.328 347.716L154.466 346.755L156.052 347.957L157.142 347.252L156.821 346.322L154.786 346.146L156.837 339.289L154.113 338.68L149.178 344.224L147.543 344.72L146.614 344.224L146.213 340.01L144.05 338.488L144.387 336.469L145.252 335.251L146.165 325.654L141.294 318.171L141.23 313.685L137.672 312.868L134.804 314.214L133.218 312.131L131.727 313.557L130.59 312.964L127.609 306.507L127.625 302.197L125.398 296.541L124.629 291.046L120.991 290.709L118.972 291.815L114.614 297.358L114.293 295.836L112.37 296.429L111.184 298.352L109.886 298.175L108.572 297.775L108.252 293.994L106.874 291.734L104.727 290.132L103.557 287.072L104.166 284.412L105.608 283.627L104.598 281L105.528 279.766L109.342 277.923L112.194 277.987L112.739 276.914L111.697 276.417L107.515 270.297L106.537 267.172L108.284 265.153L109.101 260.747L112.258 266.692L115.335 268.005L119.757 267.525L119.837 266.275L120.51 264.497L122.642 264.08L123.138 260.892L124.02 262.205L123.395 263.311L122.93 267.861L129.308 267.236L129.853 265.298L131.663 264.096L131.151 262.237L134.355 265.25L139.483 262.942L140.925 263.888L142.207 267.477L146.422 265.682L147.191 269.047L145.588 271.402L152.511 275.296L154.193 277.603L154.85 277.699L154.306 275.696L156.068 275.119L155.523 270.873L157.03 268.726L159.337 268.775L158.921 270.168L161.02 270.377L160.859 271.626L164.369 272.219L166.692 277.651L168.134 276.802L166.885 270.313L163.055 266.868L163.279 259.818L165.09 256.998L164.962 254.162L159.898 245.158L158.007 244.068L157.398 243.358L154.418 243.844L152.207 244.132L151.245 245.19L151.678 246.263L149.531 247.209L147.912 248.218L148.056 250.141L149.675 251.663L143.441 249.532L141.086 250.99L139.852 247.785L138.858 247.898L138.073 245.398L136.455 245.334L135.333 245.735L133.314 242.899L133.827 241.953L132.32 240.624L131.487 240.992L131.712 236.922L129.773 236.378L127.097 238.236L127.609 241.521L125.302 240.624L123.956 241.729L123.283 244.197L125.286 245.19L124.613 246.247L122.962 245.879L122.898 243.556L123.235 240.527L121.232 240.736L120.607 241.361L119.341 239.39L119.854 238.012L117.69 238.493L117.626 239.678L116.024 237.98L118.476 237.707L120.158 234.92L115.719 230.449L115.703 229.184L112.931 230.257L113.7 230.818L113.059 231.635L116.104 232.628L114.469 233.269L113.829 234.231L111.377 232.692L110.239 233.285L112.787 235.144L110.303 236.73L112.947 236.666L112.531 237.387L112.675 238.252L112.771 240.287L111.569 241.425L112.226 242.194L109.149 245.11L107.707 249.179L106.97 248.458L105.48 249.179L109.085 252.913L110.96 253.025L115.655 257.062L118.187 257.671L118.652 259.514L117.017 260.459L116.729 258.088L114.918 259.61L112.691 257.415L108.124 257.271L108.268 261.1L105.544 262.109L103.845 261.148L99.8714 252.64L100.048 251.663L101.394 251.711L102.083 249.324L100.849 243.572L94.8398 236.217L92.5003 234.519L90.8979 234.775L82.4211 226.668L76.2036 217.439L67.6147 211.735L67.4224 208.627L67.0859 207.169L67.839 205.935L66.9416 203.404L67.7589 200.888L66.3007 200.408L65.6116 202.106L62.6311 199.863L61.4133 201.417L55.949 199.254L54.7793 200.664L48.1132 199.558L47.2799 197.652L40.5017 191.707L40.3414 187.381L38.8512 184.497L39.6043 181.998L37.0404 178.745L35.2137 178.008L34.7169 179.034L32.5056 177.88L33.6273 176.534L29.9097 169.725L38.6108 169.436L38.5467 167.93L34.124 164.566L33.2106 165.014L29.9097 161.217L31.8967 160.16L35.9828 162.274L36.9283 158.109L32.7459 155.834L29.445 156.394L28.4515 156.314L24.157 156.971L21.7213 154.984L24.4133 156.042L25.487 155.753L27.9707 155.673L23.2115 152.709L22.859 153.414L21.9296 154.327L18.8049 154.023L20.9681 150.578L22.5065 149.825L23.0353 149.569L24.1249 144.474L23.2916 141.99L26.144 139.475L26.0318 136.238L22.6026 133.707L19.558 133.867L15.6481 129.781L14.5104 129.685L13.8534 131.448L11.5619 129.14L8.98202 127.778L8.00454 125.68L5.98548 125.279L3.00497 126.641L1.01797 124.59L0.825684 124.029L3.82221 122.331L4.75161 123.981L8.74165 124.414L10.3601 125.984L12.4272 125.792L17.8434 130.759L26.6407 132.617L31.8967 132.056L30.7429 128.836L32.6338 125.279L34.6208 125.615L37.3609 127.875L37.5853 123.372L39.9408 120.456L42.2323 119.735L45.5653 116.659L41.2548 110.57L43.37 107.174L40.8702 102.864L42.9854 100.765L49.7477 103.296L54.1062 106.597L58.7693 100.765L59.0577 96.1985L55.1959 91.1835L54.1543 87.3061L52.7442 86.4729L51.4783 83.3646L47.9529 80.753L48.9785 76.4911L44.2513 68.2716L52.7602 68.6081L55.917 67.3744L56.574 63.4329L58.9776 59.2991L58.5289 56.8797L59.8589 54.9891L64.3297 52.6018L65.9481 52.4416L69.6978 54.4764L72.9668 50.8393L78.2708 54.2841L81.6519 54.172L85.7541 53.3068L89.4076 49.3653L96.8589 48.5001L96.6185 42.6359L99.1824 38.1016L96.5064 35.522L96.939 31.0037L100.977 29.1131L103.589 24.3384L103.204 19.0351L101.602 17.7052L101.506 14.7571L105.384 8.17195L107.851 7.77139L109.31 6.31336L108.541 3.57353L111.024 0.961914Z" fill="white"/>
<path d="M441.139 221.621L443.992 220.996L443.367 222.791L439.905 224.025L441.139 221.621Z" fill="white"/>
<path d="M159.786 380.562V378.479L157.863 378.111L157.286 379.697L158.007 380.867L156.116 381.379L156.805 384.472L157.943 384.215L157.591 381.844L159.786 380.562Z" fill="white"/>
<path d="M158.232 359.797L156.116 358.66L154.562 356.417L154.85 360.727L157.27 364.123L158.232 359.797Z" fill="white"/>
<path d="M146.854 349.751L146.245 347.332L145.284 346.29L144.931 347.444L143.73 347.54L144.835 349.319L146.854 349.751Z" fill="white"/>
<path d="M133.057 327.192L134.243 326.663L134.115 325.477L133.073 325.686L128.987 332.88L128.106 332.351L127.882 336.949L128.394 336.228L129.564 337.014L128.475 334.402L129.372 334.386L133.057 327.192Z" fill="white"/>
<path d="M136.342 319.854L137.256 317.578L135.894 316.393L133.618 317.562L128.843 317.819L125.125 323.923L125.686 324.949L124.052 326.198L124.356 330.316L127.016 327.913L127.369 326.759L126.471 325.958L128.635 324.26L132.513 323.427L133.618 321.392L136.342 319.854Z" fill="white"/>
<path d="M568.773 499.272L567.619 497.141L565.632 497.157L565.071 498.727L568.773 499.272Z" fill="white"/>
<path d="M111.024 0.961914L116.216 3.1089L120.318 2.03541L122.514 4.24647L124.709 3.66966L131.199 10.399L133.811 14.5328L134.211 17.577L136.695 19.1953L138.426 24.6429L141.727 27.6871L139.884 30.1546L142.848 30.5551L142.432 33.8557L143.441 37.6049L136.647 41.4983L141.23 47.2503L141.246 50.6631L144.355 55.9344L147.656 55.5018L150.524 53.7394L155.123 55.7742L154.562 63.0483L152.96 66.3169L150.828 67.6628L147.88 66.0605L146.694 67.3744L150.332 72.838L153.985 75.8822L154.963 78.2535L154.274 80.3043L155.988 82.9641L154.819 85.063L156.613 85.9602L156.677 89.1326L166.628 92.6736L168.936 88.7641L171.884 88.9884L176.163 86.9055L179.864 89.373L182.412 89.1166L185.425 92.9299L185.616 93.0492L188.485 90.9913L189.126 93.6029L192.427 95.3173L193.148 96.9516L195.904 96.6472L196.706 97.8969L198.004 97.8008L198.901 95.7339L200.712 96.1825L203.548 94.1157L204.317 90.1421L201.817 89.7576L204.413 86.0404L206.48 86.6973L209.173 85.063L211.24 85.1912L212.441 87.2261L214.22 85.8321L216.816 86.9537L220.069 85.9122L224.107 87.4664L226.863 86.1846L229.796 89.4532L230.437 92.4974L232.263 93.9394L237.792 90.4145L241.782 93.3466L246.092 90.799L248.208 90.8952L250.082 92.1609L250.163 93.3786L253.079 93.2985L256.204 95.2532L262.501 92.209L268.622 93.0422L270.273 94.3239L273.141 94.1637L274.007 95.5096L275.272 92.93L272.949 84.9669L273.782 81.8586L267.757 74.7607L270.065 74.969L272.725 73.2066L273.894 69.6336L276.795 69.922L279.086 68.2717L282.964 61.0616L286.185 58.6102L285.704 55.4538L289.31 55.1174L290.207 52.2334L297.001 45.8565L298.46 42.3796L301.007 39.9603L301.969 38.3901L299.886 34.9132L300.959 33.5674L303.587 35.2818L304.02 32.7182L303.091 30.9557L303.699 30.6032L315.077 29.706L316.695 30.8276L317.641 32.8303L314.516 35.6663L313.939 38.4702L316.631 38.1978L316.198 42.1233L317.689 46.4493L321.118 44.9913L324.467 40.0083L325.108 36.4994L327.848 33.7116L332.976 32.2535L337.35 36.5956L336.116 39.7199L336.453 42.0111L337.799 40.0404L340.026 40.1846L339.033 47.9554L336.357 53.3709L338.376 53.8837L338.825 56.2389L340.539 57.1041L340.972 58.8826L343.824 57.0721L345.587 59.7799L348.535 58.5782L350.602 61.1578L356.579 64.3302L358.23 72.1491L359.159 74.0237L360.569 74.1358L362.348 76.0906L373.02 74.2961L376.145 71.7325L380.439 72.9502L382.491 76.5071L385.792 73.559L383.356 71.5242L388.724 75.3856L389.782 77.9812L388.884 82.5956L392.538 90.8952L397.073 93.2024L403.466 100.493L409.139 103.441L411.334 117.46L414.539 126.064L415.468 132.858L420.997 145.788L426.717 148.255L427.999 150.258L430.836 149.761L433.159 153.927L437.277 154.039L443.895 159.15L446.908 166.456L454.792 176.406L456.25 176.534L457.452 178.057L460.112 184.417L463.846 188.679L467.307 190.153L469.518 193.198L470.127 197.411L471.425 198.629L471.457 201.866L475.944 206.528L475.848 208.162L478.187 210.325L478.235 212.761L480.815 217.087L478.684 222.166L474.39 225.803L469.614 225.947L466.089 228.687L463.237 228.655L462.548 227.549L460.753 228.607L460.16 230.273L462.948 231.459L459.615 233.013L459.775 234.343L457.532 232.757L454.423 233.43L453.911 235L449.328 234.615L448.014 236.442L443.174 235.577L440.995 236.282L440.626 234.904L437.806 234.151L440.146 230.289L440.498 226.172L442.117 224.858L444.024 225.659L446.091 222.454L446.347 226.652L448.046 226.973L444.745 231.01L443.895 234.038L446.059 233.494L450.818 229.696L452.949 229.985L453.542 228.799L455.946 228.543L455.545 224.633L456.699 222.599L457.596 223.544L459.407 225.483L461.041 224.97L461.939 217.391L457.788 213.61L457.276 210.918L455.946 209.925L456.587 205.855L454.423 203.66L454.055 201.834L448.398 197.203L447.982 195.857L441.139 193.919L438.511 194.608L433.512 193.854L432.086 189.48L430.435 189.032L429.393 187.253L425.996 187.638L421.99 185.299L421.638 186.244L420.436 185.523L419.699 187.51L421.462 187.606L421.99 188.631L419.843 193.182L421.365 193.903L422.824 196.594L421.51 197.524L416.943 197.54L415.5 198.934L412.889 197.876L411.286 199.158L410.293 198.725L404.812 200.824L403.835 207.217L404.604 212.216L409.7 224.313L410.549 224.681L411.975 220.884L413.257 220.676L411.927 217.696L414.924 217.183L414.443 220.9L416.398 220.5L418 223.143L417.984 227.597L419.458 231.202L420.58 231.875L422.183 231.17L420.628 228.943L421.157 227.71L422.647 230.001L425.323 229.985L425.836 232.052L428.031 233.798L427.134 235.625L428.031 238.028L430.579 239.662L428.849 242.146L429.986 243.027L428.993 244.165L429.986 245.414L427.519 245.254L426.846 246.648L425.051 246.151L424.875 251.006L430.499 248.843L431.781 247.081L432.983 247.593L435.435 245.19L440.146 244.902L438.672 249.228L434.97 248.955L433.56 251.006L433.538 251.042L432.086 256.293L429.963 257.892L429.922 258.111L429.671 258.198L429.201 262.141L426.141 260.651L423.064 263.519L421.397 262.125L420.74 263.375L421.926 265.009L419.49 265.586L418.769 266.836L409.812 265.49L407.184 268.566L407.601 271.53L406.014 272.524L402.409 272.876L399.701 274.639L398.082 274.094L395.791 276.241L390.951 274.959L388.692 272.636L386.529 274.414L382.923 273.693L379.991 269.816L376.433 269.319L375.6 268.23L373.485 268.726L369.511 272.396L365.601 273.677L365.441 275.039L366.498 275.584L362.524 278.035L364.591 278.372L368.149 276.289L369.751 276.786L365.986 279.814L366.883 279.878L366.258 282.586L369.19 281.384L369.575 284.284L371.322 284.172L372.251 281.881L371.722 280.903L373.068 280.871L372.588 282.858L373.757 285.005L376.914 282.137L379.35 283.178L385.103 281.448L386.865 279.349L388.339 283.05L390.983 284.46L397.008 292.439L398.707 293.064L400.117 291.927L402.841 292.263L405.341 290.725L411.222 297.182L416.125 293.144L419.41 294.17L421.461 297.294L425.788 298.688L433.416 297.919L435.531 296.637L439.921 302.694L439.729 309.727L442.854 315.576L442.934 317.659L444.617 317.691L446.155 320.703L448.478 318.396L449.456 319.149L450.193 317.114L453.718 316.697L455.321 316.617L458.029 315.928L458.237 314.855L454.471 311.57L459.15 310.577L466.618 317.018L470.896 316.04L475.591 317.546L478.972 321.248L479.517 324.18L476.985 326.727L474.662 327.32L472.018 330.54L471.441 333.633L473.284 330.925L476.056 330.829L476.489 333.649L477.578 334.242L477.642 335.812L477.803 336.677L478.796 337.67L480.27 336.501L484.982 338.792L484.212 339.657L478.444 340.25L477.995 343.807L480.318 343.791L481.857 342.685L483.603 341.66L488.619 341.772L489.789 343.903L497.176 343.759L499.307 346.002L504.563 347.268L507.976 341.788L509.995 342.525L515.86 348.806L515.203 350.584L513.44 350.472L511.79 352.171L512.495 353.516L516.677 354.157L516.886 355.295L515.924 355.199L517.431 357.618L516.229 359.028L518.777 358.708L521.629 360.102L520.972 363.707L522.815 368.257L527.318 372.401L529.93 372.952L533.263 373.945L535.426 372.84L535.683 373.705L536.179 374.346L540.875 373.08L543.406 376.172L546.483 374.955L550.056 378.015L555.216 378.752L558.934 381.235L560.761 380.546L567.491 383.03L574.333 390.576L580.727 395.367L581.304 397.001L584.637 398.491L584.717 399.869L583.034 400.222L582.457 401.648L585.614 405.285L582.97 405.894L583.611 407.448L582.393 408.281L581.576 408.938L579.829 408.842L576 410.572L571.433 415.283L571.962 418.936L574.541 422.381L573.756 425.345L574.269 428.677L575.567 429.975L575.455 431.577L576.817 431.61L578.772 436.112L575.759 438.067L575.439 441.976L576.849 445.02L574.237 448.209L578.788 448.705L580.951 452.406L578.788 454.505L576 454.009L575.503 454.698L576.448 456.204L577.939 458.239L579.429 458.671L579.381 457.646L580.55 457.213L580.07 459.52L582.473 460.53L581.159 464.295L582.81 465.753L580.887 466.955L583.371 468.301L583.179 469.935L586.335 471.617L585.774 472.755L586.656 474.501L585.614 478.523L584.829 478.651L585.822 481.118L583.563 480.878L583.034 482.096L581.929 483.057L582.009 484.627L583.323 484.948L583.771 486.422L582.249 487.143L583.819 489.386L584.589 492.238L583.723 493.44L581.881 492.991L581.624 494.481L579.028 496.42L578.676 498.262L577.714 498.31L577.201 496.9L575.871 497.445L572.875 496.115L571.385 497.189L570.007 495.282L565.376 494.417L564.991 487.848L566.321 485.477L564.863 484.804L563.228 486.822L561.305 485.797L560.104 483.153V476.055L558.693 475.046L557.764 475.863L558.277 474.485L555.328 472.498L555.024 471.233L552.508 470.368L550.521 468.06L550.056 469.502L548.903 469.358L547.637 467.291L545.89 467.772L545.121 471.153L543.663 471.697L542.493 468.749L541.163 471.521L540.49 470.384L541.58 469.15L539.128 468.621L540.987 467.564L541.115 464.808L538.407 462.052L536.868 462.244L538.471 460.306L535.907 457.79L535.106 458.239L534.625 456.957L535.586 457.454L533.423 454.089L533.808 452.134L531.404 451.093L532.446 450.788L531.741 450.099L531.532 450.949L531.052 449.378L528.472 447.6L529.561 445.725L527.286 444.94L524.081 446.863L523.697 445.917L523.104 447.952L521.373 448.225L520.043 446.847L522.286 446.078L522.783 444.043L519.867 445.934L518.905 445.148L519.258 444.059L517.719 444.315L518.328 441.848L516.357 442.713L515.829 441.912L510.252 442.28L509.836 438.964L512.592 436.769L510.605 434.99L514.066 435.855L516.806 433.596L515.716 432.619L516.438 432.827L516.165 428.982L513.217 426.931L510.252 427.027L508.345 429.062L505.477 426.819L504.419 428.277L502.625 427.972L500.622 430.392L495.382 430.536L490.655 435.118L490.126 437.233L486.2 438.643L490.927 440.582L487.754 441.111L487.354 439.909L482.242 440.021L481.344 439.092L477.226 439.22L474.438 440.518L470.272 439.172L465.657 439.348L456.731 443.658L454.904 440.101L449.184 438.403L445.915 436.208L446.652 432.843L449.152 430.616L447.133 429.527L447.533 423.759L454.921 421.451L456.827 418.567L461.426 416.805L461.619 413.568L459.936 411.87L459.327 412.543L456.363 412.03L455.722 408.826L461.426 408.73L462.853 407.48L462.468 406.198L456.94 404.452L449.376 405.109L448.697 404.342L448.639 404.355L448.674 404.317L448.623 404.259L449.385 403.545L451.074 401.712L446.668 397.209L440.178 403.858L438.928 402.336L434.649 402.352L437.999 399.581L434.553 397.482L434.105 396.04L426.493 395.911L425.035 395.863L423.609 394.261L421.766 395.767L419.875 395.399L418.898 398.074L420.756 398.779L421.606 397.193L422.792 397.129L424.875 398.315L426.141 400.654L422.022 401.567L418.16 399.26L415.484 391.922L414.267 391.97L413.722 394.405L411.302 392.515L407.536 393.861L402.585 392.371L400.662 392.002L398.643 392.21L396.4 389.775L398.355 387.66L399.348 386.57L401.367 385.785L401.351 384.6L395.182 382.613L394.573 380.738L386.384 377.133L384.51 372.359L385.824 371.413L385.247 368.529L381.321 364.572L377.09 366.543L379.847 368.161L378.228 371.253L376.562 370.724L375.808 368.609L374.302 370.099L373.421 369.539L372.219 370.628L370.905 375.451L374.014 377.117L371.322 379.248L371.29 382.373L370.617 384.039L366.066 383.382L366.098 381.379L363.967 377.502L361.21 375.243L361.691 374.073L364.159 373.833L364.079 372.407L360.505 369.282L359.303 365.469L356.179 362.97L352.157 357.073L346.789 356.272L346.708 354.045L345.346 354.189L344.369 353.02L343.968 356.032L345.09 356.817L345.507 359.429L346.564 359.781L344.545 360.566L343.424 359.893L340.315 363.659L342.302 366.703L343.776 365.886L344.417 368.513L341.773 368.593L341.148 371.814L341.933 370.805L343.424 371.509L341.164 373.048L340.892 374.345L338.168 373.672L338.135 371.413L333.088 372.327L329.547 370.099L329.595 371.686L327.8 373.352L322.656 368.866L321.454 370.805L319.74 369.491L314.724 373.336L313.266 376.476L309.324 371.317L308.379 372.455L306.359 371.542L307.032 371.285L306.472 369.667L305.061 369.379L304.757 368.065L302.898 368.401L302.241 367.456L301.616 368.129L296.2 365.293L294.037 362.986L287.227 363.851L285.704 362.12L280.576 361.063L277.275 360.887L271.747 367.456L268.702 367.856L265.466 366.751L265.382 366.276L265.209 366.398L262.533 364.251L260.674 366.366L256.043 367.744L252.871 376.268L247.951 374.922L243.737 372.022L240.436 372.952L234.731 370.949L231.799 373.721L227.312 373.416L225.806 376.348L221.559 377.342L215.47 382.228L211.752 381.572L207.073 377.566L202.795 376.38L203.292 375.403L205.455 376.22L206.625 375.595L208.516 378.191L209.477 377.582L212.506 380.418L211.881 375.739L210.887 375.467L210.551 373.977L211.464 374.137L212.506 371.077L209.926 371.558L209.509 370.26L211.079 369.779L209.942 368.674L206.272 368.754L203.917 370.628L201.865 369.395L204.093 367.328L202.17 364.396L201.08 367.488L196.289 363.931L195.28 362.072L196.481 360.374L194.783 359.717L195.183 356.993L193.164 356.32L194.43 355.904L194.751 354.446L192.139 349.03L188.549 344.913L186.13 348.373L193.1 356.272L192.555 357.618L191.386 357.474L192.283 359.893L191.097 362.986L191.338 365.854L189.367 365.725L187.7 367.824L184.704 367.969L184.688 370.452V371.622L184.415 372.455L184.271 373.544L183.341 374.426L182.604 373.32L181.29 374.281L176.788 375.739L177.012 376.893L175.746 378.095L174.897 377.726L173.967 377.085L173.102 378.816L175.842 380.418L179.672 380.53L176.371 381.523L171.852 380.498L167.51 381.604L165.17 381.443L162.782 380.322L161.789 374.81L157.142 375.227L156.837 373.368L157.815 373.416L158.312 370.42L156.869 368.706L155.86 369.571L156.805 366.142L157.767 365.87L157.687 368.866L160.763 364.059L160.235 363.707L160.475 360.342L163.023 361.592L164.209 362.072L165.154 360.646L158.408 359.493L160.235 358.147L159.193 355.679L158.584 354.91L156.853 350.777L157.671 348.71L157.126 348.165L155.571 348.774L154.914 347.572L153.328 347.716L154.466 346.755L156.052 347.957L157.142 347.252L156.821 346.322L154.786 346.146L156.837 339.289L154.113 338.68L149.178 344.224L147.543 344.72L146.614 344.224L146.213 340.01L144.05 338.488L144.387 336.469L145.252 335.251L146.165 325.654L141.294 318.171L141.23 313.685L137.672 312.868L134.804 314.214L133.218 312.131L131.727 313.557L130.59 312.964L127.609 306.507L127.625 302.197L125.398 296.541L124.629 291.046L120.991 290.709L118.972 291.815L114.614 297.358L114.293 295.836L112.37 296.429L111.184 298.352L109.886 298.175L108.572 297.775L108.252 293.994L106.874 291.734L104.727 290.132L103.557 287.072L104.166 284.412L105.608 283.627L104.598 281L105.528 279.766L109.342 277.923L112.194 277.987L112.739 276.914L111.697 276.417L107.515 270.297L106.537 267.172L108.284 265.153L109.101 260.747L112.258 266.692L115.335 268.005L119.757 267.525L119.837 266.275L120.51 264.497L122.642 264.08L123.138 260.892L124.02 262.205L123.395 263.311L122.93 267.861L129.308 267.236L129.853 265.298L131.663 264.096L131.151 262.237L134.355 265.25L139.483 262.942L140.925 263.888L142.207 267.477L146.422 265.682L147.191 269.047L145.588 271.402L152.511 275.296L154.193 277.603L154.85 277.699L154.306 275.696L156.068 275.119L155.523 270.873L157.03 268.726L159.337 268.775L158.921 270.168L161.02 270.377L160.859 271.626L164.369 272.219L166.692 277.651L168.134 276.802L166.885 270.313L163.055 266.868L163.279 259.818L165.09 256.998L164.962 254.162L159.898 245.158L158.007 244.068L157.398 243.358L154.418 243.844L152.207 244.132L151.245 245.19L151.678 246.263L149.531 247.209L147.912 248.218L148.056 250.141L149.675 251.663L143.441 249.532L141.086 250.99L139.852 247.785L138.858 247.898L138.073 245.398L136.455 245.334L135.333 245.735L133.314 242.899L133.827 241.953L132.32 240.624L131.487 240.992L131.712 236.922L129.773 236.378L127.097 238.236L127.609 241.521L125.302 240.624L123.956 241.729L123.283 244.197L125.286 245.19L124.613 246.247L122.962 245.879L122.898 243.556L123.235 240.527L121.232 240.736L120.607 241.361L119.341 239.39L119.854 238.012L117.69 238.493L117.626 239.678L116.024 237.98L118.476 237.707L120.158 234.92L115.719 230.449L115.703 229.184L112.931 230.257L113.7 230.818L113.059 231.635L116.104 232.628L114.469 233.269L113.829 234.231L111.377 232.692L110.239 233.285L112.787 235.144L110.303 236.73L112.947 236.666L112.531 237.387L112.675 238.252L112.771 240.287L111.569 241.425L112.226 242.194L109.149 245.11L107.707 249.179L106.97 248.458L105.48 249.179L109.085 252.913L110.96 253.025L115.655 257.062L118.187 257.671L118.652 259.514L117.017 260.459L116.729 258.088L114.918 259.61L112.691 257.415L108.124 257.271L108.268 261.1L105.544 262.109L103.845 261.148L99.8714 252.64L100.048 251.663L101.394 251.711L102.083 249.324L100.849 243.572L94.8398 236.217L92.5003 234.519L90.8979 234.775L82.4211 226.668L76.2036 217.439L67.6147 211.735L67.4224 208.627L67.0859 207.169L67.839 205.935L66.9416 203.404L67.7589 200.888L66.3007 200.408L65.6116 202.106L62.6311 199.863L61.4133 201.417L55.949 199.254L54.7793 200.664L48.1132 199.558L47.2799 197.652L40.5017 191.707L40.3414 187.381L38.8512 184.497L39.6043 181.998L37.0404 178.745L35.2137 178.008L34.7169 179.034L32.5056 177.88L33.6273 176.534L29.9097 169.725L38.6108 169.436L38.5467 167.93L34.124 164.566L33.2106 165.014L29.9097 161.217L31.8967 160.16L35.9828 162.274L36.9283 158.109L32.7459 155.834L29.445 156.394L28.4515 156.314L24.157 156.971L21.7213 154.984L24.4133 156.042L25.487 155.753L27.9707 155.673L23.2115 152.709L22.859 153.414L21.9296 154.327L18.8049 154.023L20.9681 150.578L22.5065 149.825L23.0353 149.569L24.1249 144.474L23.2916 141.99L26.144 139.475L26.0318 136.238L22.6026 133.707L19.558 133.867L15.6481 129.781L14.5104 129.685L13.8534 131.448L11.5619 129.14L8.98202 127.778L8.00454 125.68L5.98548 125.279L3.00497 126.641L1.01797 124.59L0.825684 124.029L3.82221 122.331L4.75161 123.981L8.74165 124.414L10.3601 125.984L12.4272 125.792L17.8434 130.759L26.6407 132.617L31.8967 132.056L30.7429 128.836L32.6338 125.279L34.6208 125.615L37.3609 127.875L37.5853 123.372L39.9408 120.456L42.2323 119.735L45.5653 116.659L41.2548 110.57L43.37 107.174L40.8702 102.864L42.9854 100.765L49.7477 103.296L54.1062 106.597L58.7693 100.765L59.0577 96.1985L55.1959 91.1835L54.1543 87.3061L52.7442 86.4729L51.4783 83.3646L47.9529 80.753L48.9785 76.4911L44.2513 68.2716L52.7602 68.6081L55.917 67.3744L56.574 63.4329L58.9776 59.2991L58.5289 56.8797L59.8589 54.9891L64.3297 52.6018L65.9481 52.4416L69.6978 54.4764L72.9668 50.8393L78.2708 54.2841L81.6519 54.172L85.7541 53.3068L89.4076 49.3653L96.8589 48.5001L96.6185 42.6359L99.1824 38.1016L96.5064 35.522L96.939 31.0037L100.977 29.1131L103.589 24.3384L103.204 19.0351L101.602 17.7052L101.506 14.7571L105.384 8.17195L107.851 7.77139L109.31 6.31336L108.541 3.57353L111.024 0.961914Z" stroke="#C3C6C9"/>
<path d="M441.139 221.621L443.992 220.996L443.367 222.791L439.905 224.025L441.139 221.621Z" stroke="#C3C6C9"/>
<path d="M159.786 380.562V378.479L157.863 378.111L157.286 379.697L158.007 380.867L156.116 381.379L156.805 384.472L157.943 384.215L157.591 381.844L159.786 380.562Z" stroke="#C3C6C9"/>
<path d="M158.232 359.797L156.116 358.66L154.562 356.417L154.85 360.727L157.27 364.123L158.232 359.797Z" stroke="#C3C6C9"/>
<path d="M146.854 349.751L146.245 347.332L145.284 346.29L144.931 347.444L143.73 347.54L144.835 349.319L146.854 349.751Z" stroke="#C3C6C9"/>
<path d="M133.057 327.192L134.243 326.663L134.115 325.477L133.073 325.686L128.987 332.88L128.106 332.351L127.882 336.949L128.394 336.228L129.564 337.014L128.475 334.402L129.372 334.386L133.057 327.192Z" stroke="#C3C6C9"/>
<path d="M136.342 319.854L137.256 317.578L135.894 316.393L133.618 317.562L128.843 317.819L125.125 323.923L125.686 324.949L124.052 326.198L124.356 330.316L127.016 327.913L127.369 326.759L126.471 325.958L128.635 324.26L132.513 323.427L133.618 321.392L136.342 319.854Z" stroke="#C3C6C9"/>
<path d="M568.773 499.272L567.619 497.141L565.632 497.157L565.071 498.727L568.773 499.272Z" stroke="#C3C6C9"/>
</svg>
