<svg width="144" height="26" viewBox="0 0 144 26" fill="none" xmlns="http://www.w3.org/2000/svg">
<path d="M12.4223 0.39209C5.55633 0.423027 0 5.99881 0 12.8721C0 16.3047 1.38598 19.414 3.62895 21.6703L12.4223 0.39209Z" fill="#D80000"/>
<path d="M5.26336 23.0552L13.56 2.43209L16.8 10.4721H14.28L13.56 12.3921H17.64L20.04 18.1521H22.32L14.9249 0.631621C20.6468 1.76834 24.96 6.81631 24.96 12.8721C24.96 19.7646 19.3725 25.3521 12.48 25.3521C9.79113 25.3521 7.30078 24.5018 5.26336 23.0552Z" fill="#D80000"/>
<path d="M88.32 18.2721V9.75209H89.52V10.3521C89.68 10.1921 89.88 9.87209 90.48 9.63209C90.8786 9.47264 91.44 9.39209 91.68 9.39209V10.5921C90.36 10.5921 89.52 11.5281 89.52 12.8721V18.2721H88.32Z" fill="#D80000"/>
<path fill-rule="evenodd" clip-rule="evenodd" d="M66.72 9.75209V21.3921H68.04V17.1921C68.52 17.6321 69.84 18.5121 71.28 18.5121C73.08 18.5121 75.84 16.8321 75.84 13.8321C75.84 10.8321 73.2 9.39209 71.28 9.39209C69.36 9.39209 68.52 10.4321 68.04 10.9521V9.75209H66.72ZM71.4 17.1921C73.322 17.1921 74.64 15.874 74.64 13.9521C74.64 12.0301 73.322 10.7121 71.4 10.7121C69.4781 10.7121 67.92 12.0301 67.92 13.9521C67.92 15.874 69.4781 17.1921 71.4 17.1921Z" fill="#D80000"/>
<path fill-rule="evenodd" clip-rule="evenodd" d="M76.8 13.9521C76.8 11.3674 78.8416 9.51209 81.36 9.51209C82.6272 9.51209 83.7736 9.98179 84.6 10.7778V9.75209H85.92V18.2721H84.6V17.2453C83.7736 18.1016 82.6272 18.6321 81.36 18.6321C78.8416 18.6321 76.8 16.5368 76.8 13.9521ZM81.36 17.4321C83.2157 17.4321 84.72 15.874 84.72 13.9521C84.72 12.0301 83.2157 10.4721 81.36 10.4721C79.5043 10.4721 78 12.0301 78 13.9521C78 15.874 79.5043 17.4321 81.36 17.4321Z" fill="#D80000"/>
<path d="M92.88 6.63209H94.32V13.3521L97.44 9.75209H99.36L95.76 14.0721L99.72 18.2721H97.68L94.32 14.7326V18.2721H92.88V6.63209Z" fill="#D80000"/>
<path d="M100.56 9.75209H102.12V18.2721H100.56V9.75209Z" fill="#D80000"/>
<path d="M100.56 6.63209H102.12V8.19209H100.56V6.63209Z" fill="#D80000"/>
<path d="M103.68 9.75209H105.12V10.3521C105.48 10.0321 106.2 9.39209 107.52 9.39209C109.2 9.39209 111.48 10.8321 111.48 12.6321V18.2721H109.92V12.9921C109.92 11.4321 108.48 10.7121 107.52 10.7121C106.32 10.7121 105.12 11.9121 105.12 12.9921V18.2721H103.68V9.75209Z" fill="#D80000"/>
<path fill-rule="evenodd" clip-rule="evenodd" d="M112.68 13.9521C112.68 11.3674 114.722 9.51209 117.24 9.51209C118.507 9.51209 119.654 9.98179 120.48 10.7778V9.75209H121.8V17.7921C121.8 19.2321 120.624 21.6321 117.36 21.6321C114.096 21.6321 112.96 19.6321 112.8 18.6321H114.36C114.68 19.1921 115.704 20.3121 117.24 20.3121C118.776 20.3121 120.48 19.4721 120.48 18.0321V17.2453C119.654 18.1016 118.507 18.6321 117.24 18.6321C114.722 18.6321 112.68 16.5368 112.68 13.9521ZM117.24 17.4321C119.096 17.4321 120.6 15.874 120.6 13.9521C120.6 12.0301 119.096 10.4721 117.24 10.4721C115.384 10.4721 113.88 12.0301 113.88 13.9521C113.88 15.874 115.384 17.4321 117.24 17.4321Z" fill="#D80000"/>
<path fill-rule="evenodd" clip-rule="evenodd" d="M49.4401 18.6284C51.9586 18.6284 54.0001 16.5331 54.0001 13.9484C54.0001 11.3637 51.9586 9.50842 49.4401 9.50842C46.9217 9.50842 44.8801 11.3637 44.8801 13.9484C44.8801 16.5331 46.9217 18.6284 49.4401 18.6284ZM49.4401 17.4284C51.2958 17.4284 52.8001 15.8704 52.8001 13.9484C52.8001 12.0265 51.2958 10.4684 49.4401 10.4684C47.5845 10.4684 46.0801 12.0265 46.0801 13.9484C46.0801 15.8704 47.5845 17.4284 49.4401 17.4284Z" fill="#1B242D"/>
<path fill-rule="evenodd" clip-rule="evenodd" d="M34.8001 9.74842V21.3884H36.1201V17.1884C36.6001 17.6284 37.9201 18.5084 39.3601 18.5084C41.1601 18.5084 43.9201 16.8284 43.9201 13.8284C43.9201 10.8284 41.2801 9.38842 39.3601 9.38842C37.5423 9.38842 36.6926 10.3207 36.1999 10.8613C36.1722 10.8916 36.1457 10.9208 36.1201 10.9484V9.74842H34.8001ZM39.4801 17.4284C41.4021 17.4284 42.7201 15.8704 42.7201 13.9484C42.7201 12.0265 41.4021 10.4684 39.4801 10.4684C37.5582 10.4684 36.0001 12.0265 36.0001 13.9484C36.0001 15.8704 37.5582 17.4284 39.4801 17.4284Z" fill="#1B242D"/>
<path d="M26.6401 6.62842V8.18842H27.9601V6.62842H26.6401Z" fill="#1B242D"/>
<path d="M26.6401 9.74842V18.2684H27.9601V9.74842H26.6401Z" fill="#1B242D"/>
<path d="M30.0001 9.74842V18.2684H31.2001V12.8684C31.2001 11.5244 32.0401 10.5884 33.3601 10.5884V9.38842C33.1201 9.38842 32.5588 9.46897 32.1601 9.62842C31.5601 9.86842 31.3601 10.1884 31.2001 10.3484V9.74842H30.0001Z" fill="#1B242D"/>
<path d="M55.6801 9.74842V18.2684H56.8801V12.8684C56.8801 11.5244 57.7201 10.5884 59.0401 10.5884V9.38842C58.8001 9.38842 58.2388 9.46897 57.8401 9.62842C57.2401 9.86842 57.0401 10.1884 56.8801 10.3484V9.74842H55.6801Z" fill="#1B242D"/>
<path d="M63.2401 6.62842V9.74842H65.1601V10.8284H63.2401V18.2684H62.0401V10.8284H60.1201V9.74842H62.0401V6.62842H63.2401Z" fill="#1B242D"/>
<path d="M134.859 15.9884C134.05 17.5512 132.366 18.6284 130.56 18.6284C128.042 18.6284 126 16.5331 126 13.9484C126 11.3637 128.042 9.50842 130.56 9.50842C132.347 9.50842 134.015 10.4426 134.833 11.9084H133.439C132.76 11.0361 131.68 10.4684 130.56 10.4684C128.704 10.4684 127.2 12.0265 127.2 13.9484C127.2 15.8703 128.704 17.4284 130.56 17.4284C131.68 17.4284 132.76 16.8608 133.439 15.9884H134.859Z" fill="#1B242D"/>
<path d="M124.92 16.7084H123.36V18.2684H124.92V16.7084Z" fill="#1B242D"/>
<path d="M136.44 6.62842H137.76V10.5884C138.08 10.1884 139.008 9.38842 140.16 9.38842C141.6 9.38842 144 10.2284 144 12.8684V18.2684H142.68V13.1084C142.68 11.5484 141.6 10.5884 140.16 10.5884C139.008 10.5884 137.76 11.7884 137.76 12.5084V18.2684H136.44V6.62842Z" fill="#1B242D"/>
</svg>
