<svg width="16" height="16" viewBox="0 0 16 16" fill="none" xmlns="http://www.w3.org/2000/svg">
<path d="M15.376 11.6195C15.5434 11.6736 15.6803 11.5741 15.6803 11.3981V10.28C15.6803 10.104 15.5565 9.88639 15.4054 9.79615L9.55519 6.30975C9.40415 6.21983 9.28031 6.00191 9.28031 5.82623V1.92031C9.28031 1.74431 9.22655 1.46687 9.16063 1.30335C9.16063 1.30335 8.81151 0.436793 8.20063 0.340153C8.13531 0.327785 8.06903 0.321146 8.00255 0.320312H7.99935C7.92273 0.320576 7.84632 0.328292 7.77119 0.343353L7.70207 0.358713L7.59711 0.391352C7.08895 0.560952 6.82719 1.29855 6.82719 1.29855C6.76232 1.4997 6.72633 1.70905 6.72031 1.92031V5.82623C6.72031 6.00223 6.59647 6.21983 6.44543 6.31007L0.595192 9.79615C0.444152 9.88639 0.320312 10.104 0.320312 10.28V11.3981C0.320312 11.5741 0.457272 11.6736 0.624632 11.6192L6.41599 9.73919C6.58335 9.68511 6.72031 9.78463 6.72031 9.96063V13.0112C6.72031 13.1872 6.60511 13.4179 6.46431 13.5235L5.69631 14.1002C5.55551 14.2058 5.44031 14.4365 5.44031 14.6125V15.3603C5.44031 15.5363 5.57887 15.6406 5.74783 15.592L7.69183 15.0336C7.86079 14.985 8.13791 14.985 8.30687 15.0336L10.2528 15.592C10.4218 15.6406 10.5603 15.5363 10.5603 15.3603V14.6122C10.5603 14.4362 10.4451 14.2054 10.3043 14.0998L9.53631 13.5232C9.39583 13.4176 9.28031 13.1869 9.28031 13.0109V9.96031C9.28031 9.78431 9.41727 9.68479 9.58463 9.73919L15.376 11.6195Z" fill="#1B242D"/>
</svg>
