<svg width="20" height="20" viewBox="0 0 20 20" fill="none" xmlns="http://www.w3.org/2000/svg">
<path d="M13.4 14.9996L14.7 19.3996H13.6L11 14.9996H8C7.45 14.9996 7 14.5496 7 13.9996C7 13.4496 7.45 12.9996 8 12.9996H11L13.6 8.59961H14.7L13.4 12.9996H16.25L17 11.9996H18L17.4 13.9996L18 15.9996H17L16.25 14.9996H13.4ZM3.75 4.99961L3 3.99961H2L2.6 5.99961L2 7.99961H3L3.75 6.99961H6.6L5.3 11.3996H6.4L9 6.99961H12C12.55 6.99961 13 6.54961 13 5.99961C13 5.44961 12.55 4.99961 12 4.99961H9L6.4 0.599609H5.3L6.6 4.99961H3.75Z" fill="#9C9EA1"/>
</svg>
