<svg width="41" height="40" viewBox="0 0 41 40" fill="none" xmlns="http://www.w3.org/2000/svg">
<path d="M11.125 5C9.30194 5.00099 7.55384 5.72564 6.26474 7.01474C4.97564 8.30384 4.25099 10.0519 4.25 11.875C4.25 15.6687 7.33125 18.75 11.125 18.75C12.1413 18.75 13.0975 18.4963 13.9762 18.0863L20.5 26.68V33.75H15.5V36.25H28V33.75H23V26.68L34.0163 12.1487L34.25 11.7975V10H17.6875C16.9312 7.1 14.23 5 11.125 5ZM11.125 7.5C12.8625 7.5 14.3625 8.55 15.0312 10H9.25V11.7975L9.485 12.1475L12.4137 16.0162C12.0003 16.166 11.5647 16.245 11.125 16.25C10.5486 16.2567 9.97669 16.1481 9.44286 15.9306C8.90904 15.7131 8.42407 15.3911 8.01647 14.9835C7.60887 14.5759 7.28686 14.091 7.06937 13.5571C6.85188 13.0233 6.7433 12.4514 6.75 11.875C6.7433 11.2986 6.85188 10.7267 7.06937 10.1929C7.28686 9.65904 7.60887 9.17407 8.01647 8.76647C8.42407 8.35887 8.90904 8.03686 9.44286 7.81937C9.97669 7.60188 10.5486 7.4933 11.125 7.5ZM12.9225 12.5H30.5775L28.7025 15H17.375L19.25 17.5H26.7887L21.75 24.18L12.9225 12.5Z" fill="#0ABAEE"/>
</svg>
