<svg width="24" height="25" viewBox="0 0 24 25" fill="none" xmlns="http://www.w3.org/2000/svg">
<path d="M1.2 3.7002C1.86263 3.7002 2.4 4.23757 2.4 4.9002V14.5002H10.8V8.5002C10.8 7.83645 11.3363 7.3002 12 7.3002H20.4C22.3875 7.3002 24 8.87895 24 10.9002V19.3002C24 19.9639 23.4638 20.5002 22.8 20.5002C22.1363 20.5002 21.6 19.9639 21.6 19.3002V18.1002H2.4V19.3002C2.4 19.9639 1.86263 20.5002 1.2 20.5002C0.537375 20.5002 0 19.9639 0 19.3002V4.9002C0 4.23757 0.537375 3.7002 1.2 3.7002ZM3.6 10.3002C3.6 8.6427 4.9425 7.3002 6.6 7.3002C8.2575 7.3002 9.6 8.6427 9.6 10.3002C9.6 11.9577 8.2575 13.3002 6.6 13.3002C4.9425 13.3002 3.6 11.9577 3.6 10.3002Z" fill="#C3C6C9"/>
</svg>
