
<svg width="13" height="13" viewBox="0 0 12 13" fill="none" xmlns="http://www.w3.org/2000/svg">
<path d="M8.25 5.375C8.25 5.27554 8.28951 5.18016 8.35983 5.10984C8.43016 5.03951 8.52554 5 8.625 5H9.375C9.47446 5 9.56984 5.03951 9.64017 5.10984C9.71049 5.18016 9.75 5.27554 9.75 5.375V6.125C9.75 6.22446 9.71049 6.31984 9.64017 6.39016C9.56984 6.46049 9.47446 6.5 9.375 6.5H8.625C8.52554 6.5 8.43016 6.46049 8.35983 6.39016C8.28951 6.31984 8.25 6.22446 8.25 6.125V5.375ZM6 5.375C6 5.27554 6.03951 5.18016 6.10983 5.10984C6.18016 5.03951 6.27554 5 6.375 5H7.125C7.22446 5 7.31984 5.03951 7.39017 5.10984C7.46049 5.18016 7.5 5.27554 7.5 5.375V6.125C7.5 6.22446 7.46049 6.31984 7.39017 6.39016C7.31984 6.46049 7.22446 6.5 7.125 6.5H6.375C6.27554 6.5 6.18016 6.46049 6.10983 6.39016C6.03951 6.31984 6 6.22446 6 6.125V5.375ZM2.25 7.625C2.25 7.52554 2.28951 7.43016 2.35984 7.35983C2.43016 7.28951 2.52554 7.25 2.625 7.25H3.375C3.47446 7.25 3.56984 7.28951 3.64016 7.35983C3.71049 7.43016 3.75 7.52554 3.75 7.625V8.375C3.75 8.47446 3.71049 8.56984 3.64016 8.64017C3.56984 8.71049 3.47446 8.75 3.375 8.75H2.625C2.52554 8.75 2.43016 8.71049 2.35984 8.64017C2.28951 8.56984 2.25 8.47446 2.25 8.375V7.625ZM4.5 7.625C4.5 7.52554 4.53951 7.43016 4.60984 7.35983C4.68016 7.28951 4.77554 7.25 4.875 7.25H5.625C5.72446 7.25 5.81984 7.28951 5.89016 7.35983C5.96049 7.43016 6 7.52554 6 7.625V8.375C6 8.47446 5.96049 8.56984 5.89016 8.64017C5.81984 8.71049 5.72446 8.75 5.625 8.75H4.875C4.77554 8.75 4.68016 8.71049 4.60984 8.64017C4.53951 8.56984 4.5 8.47446 4.5 8.375V7.625Z" fill="#C3C6C9"/>
<path d="M2.625 0.5C2.72446 0.5 2.81984 0.539509 2.89016 0.609835C2.96049 0.680161 3 0.775544 3 0.875V1.25H9V0.875C9 0.775544 9.03951 0.680161 9.10983 0.609835C9.18016 0.539509 9.27554 0.5 9.375 0.5C9.47446 0.5 9.56984 0.539509 9.64017 0.609835C9.71049 0.680161 9.75 0.775544 9.75 0.875V1.25H10.5C10.8978 1.25 11.2794 1.40804 11.5607 1.68934C11.842 1.97064 12 2.35218 12 2.75V11C12 11.3978 11.842 11.7794 11.5607 12.0607C11.2794 12.342 10.8978 12.5 10.5 12.5H1.5C1.10218 12.5 0.720644 12.342 0.43934 12.0607C0.158035 11.7794 0 11.3978 0 11V2.75C0 2.35218 0.158035 1.97064 0.43934 1.68934C0.720644 1.40804 1.10218 1.25 1.5 1.25H2.25V0.875C2.25 0.775544 2.28951 0.680161 2.35984 0.609835C2.43016 0.539509 2.52554 0.5 2.625 0.5ZM0.75 3.5V11C0.75 11.1989 0.829018 11.3897 0.96967 11.5303C1.11032 11.671 1.30109 11.75 1.5 11.75H10.5C10.6989 11.75 10.8897 11.671 11.0303 11.5303C11.171 11.3897 11.25 11.1989 11.25 11V3.5H0.75Z" fill="#C3C6C9"/>
</svg>