<svg width="16" height="16" viewBox="0 0 16 16" fill="none" xmlns="http://www.w3.org/2000/svg">
<path d="M13.8477 6.76967L12.9357 4.03367C12.8034 3.63533 12.5489 3.28881 12.2084 3.04335C11.8679 2.79788 11.4587 2.66597 11.039 2.66634H9.33301V1.33301H6.66634V2.66634H4.96034C4.5406 2.66597 4.13142 2.79788 3.79093 3.04335C3.45044 3.28881 3.19597 3.63533 3.06367 4.03367L2.15167 6.76967C1.90916 6.87115 1.70205 7.04206 1.55639 7.26091C1.41072 7.47975 1.33301 7.73678 1.33301 7.99967V11.333C1.33301 11.825 1.60234 12.2503 1.99967 12.4817V13.9997C1.99967 14.1765 2.06991 14.3461 2.19494 14.4711C2.31996 14.5961 2.48953 14.6663 2.66634 14.6663H3.33301C3.50982 14.6663 3.67939 14.5961 3.80441 14.4711C3.92944 14.3461 3.99967 14.1765 3.99967 13.9997V12.6663H11.9997V13.9997C11.9997 14.1765 12.0699 14.3461 12.1949 14.4711C12.32 14.5961 12.4895 14.6663 12.6663 14.6663H13.333C13.5098 14.6663 13.6794 14.5961 13.8044 14.4711C13.9294 14.3461 13.9997 14.1765 13.9997 13.9997V12.4817C14.2019 12.3657 14.3701 12.1984 14.4871 11.9968C14.6041 11.7951 14.666 11.5662 14.6663 11.333V7.99967C14.6663 7.73678 14.5886 7.47975 14.443 7.26091C14.2973 7.04206 14.0902 6.87115 13.8477 6.76967ZM4.96034 3.99967H11.0383C11.3257 3.99967 11.5803 4.18234 11.671 4.45567L12.4083 6.66634H3.59101L4.32767 4.45567C4.37191 4.32287 4.45682 4.20736 4.57037 4.12551C4.68393 4.04367 4.82036 3.99964 4.96034 3.99967ZM3.66634 10.6663C3.53498 10.6663 3.4049 10.6404 3.28356 10.5901C3.16221 10.5398 3.05195 10.466 2.9591 10.3731C2.86624 10.2802 2.79259 10.1699 2.74236 10.0485C2.69213 9.92713 2.6663 9.79704 2.66634 9.66567C2.66638 9.53431 2.6923 9.40424 2.74261 9.28289C2.79293 9.16154 2.86665 9.05129 2.95957 8.95843C3.05249 8.86557 3.16279 8.79192 3.28417 8.74169C3.40555 8.69146 3.53564 8.66563 3.66701 8.66567C3.93231 8.66576 4.18672 8.77124 4.37425 8.9589C4.56179 9.14656 4.6671 9.40104 4.66701 9.66634C4.66692 9.93165 4.56144 10.186 4.37378 10.3736C4.18612 10.5611 3.93165 10.6664 3.66634 10.6663ZM12.333 10.6663C12.2016 10.6663 12.0716 10.6404 11.9502 10.5901C11.8289 10.5398 11.7186 10.466 11.6258 10.3731C11.5329 10.2802 11.4593 10.1699 11.409 10.0485C11.3588 9.92713 11.333 9.79704 11.333 9.66567C11.3331 9.53431 11.359 9.40424 11.4093 9.28289C11.4596 9.16154 11.5333 9.05129 11.6262 8.95843C11.7192 8.86557 11.8295 8.79192 11.9508 8.74169C12.0722 8.69146 12.2023 8.66563 12.3337 8.66567C12.599 8.66576 12.8534 8.77124 13.0409 8.9589C13.2285 9.14656 13.3338 9.40104 13.3337 9.66634C13.3336 9.93165 13.2281 10.186 13.0404 10.3736C12.8528 10.5611 12.5983 10.6664 12.333 10.6663Z" fill="#1B242D"/>
</svg>
