<svg width="14" height="14" viewBox="0 0 14 14" fill="none" xmlns="http://www.w3.org/2000/svg">
<path d="M12.8467 5.77016L11.9347 3.03416C11.8024 2.63582 11.5479 2.2893 11.2074 2.04383C10.867 1.79837 10.4578 1.66646 10.038 1.66683H8.33203V0.333496H5.66536V1.66683H3.95936C3.53962 1.66646 3.13044 1.79837 2.78995 2.04383C2.44947 2.2893 2.195 2.63582 2.0627 3.03416L1.1507 5.77016C0.908179 5.87164 0.701072 6.04254 0.555409 6.26139C0.409747 6.48024 0.332031 6.73727 0.332031 7.00016V10.3335C0.332031 10.8255 0.601365 11.2508 0.998698 11.4822V13.0002C0.998698 13.177 1.06894 13.3465 1.19396 13.4716C1.31898 13.5966 1.48855 13.6668 1.66536 13.6668H2.33203C2.50884 13.6668 2.67841 13.5966 2.80344 13.4716C2.92846 13.3465 2.9987 13.177 2.9987 13.0002V11.6668H10.9987V13.0002C10.9987 13.177 11.0689 13.3465 11.194 13.4716C11.319 13.5966 11.4886 13.6668 11.6654 13.6668H12.332C12.5088 13.6668 12.6784 13.5966 12.8034 13.4716C12.9285 13.3465 12.9987 13.177 12.9987 13.0002V11.4822C13.201 11.3662 13.3691 11.1989 13.4861 10.9973C13.6032 10.7956 13.665 10.5667 13.6654 10.3335V7.00016C13.6654 6.73727 13.5876 6.48024 13.442 6.26139C13.2963 6.04254 13.0892 5.87164 12.8467 5.77016ZM3.95936 3.00016H10.0374C10.3247 3.00016 10.5794 3.18283 10.67 3.45616L11.4074 5.66683H2.59003L3.3267 3.45616C3.37093 3.32336 3.45584 3.20785 3.5694 3.126C3.68295 3.04416 3.81939 3.00013 3.95936 3.00016V3.00016ZM2.66536 9.66683C2.534 9.66679 2.40393 9.64087 2.28258 9.59056C2.16123 9.54024 2.05098 9.46652 1.95812 9.3736C1.86526 9.28068 1.79161 9.17038 1.74138 9.049C1.69115 8.92762 1.66532 8.79753 1.66536 8.66616C1.66541 8.5348 1.69133 8.40473 1.74164 8.28338C1.79195 8.16203 1.86567 8.05178 1.95859 7.95892C2.05151 7.86606 2.16181 7.79241 2.28319 7.74218C2.40458 7.69195 2.53467 7.66612 2.66603 7.66616C2.93134 7.66625 3.18574 7.77173 3.37328 7.95939C3.56081 8.14705 3.66612 8.40152 3.66603 8.66683C3.66594 8.93213 3.56047 9.18654 3.3728 9.37407C3.18514 9.56161 2.93067 9.66692 2.66536 9.66683V9.66683ZM11.332 9.66683C11.2007 9.66679 11.0706 9.64087 10.9492 9.59056C10.8279 9.54024 10.7176 9.46652 10.6248 9.3736C10.5319 9.28068 10.4583 9.17038 10.408 9.049C10.3578 8.92762 10.332 8.79753 10.332 8.66616C10.3321 8.5348 10.358 8.40473 10.4083 8.28338C10.4586 8.16203 10.5323 8.05178 10.6253 7.95892C10.7182 7.86606 10.8285 7.79241 10.9499 7.74218C11.0712 7.69195 11.2013 7.66612 11.3327 7.66616C11.598 7.66625 11.8524 7.77173 12.0399 7.95939C12.2275 8.14705 12.3328 8.40152 12.3327 8.66683C12.3326 8.93213 12.2271 9.18654 12.0395 9.37407C11.8518 9.56161 11.5973 9.66692 11.332 9.66683V9.66683Z" fill="#FAFBFC"/>
</svg>
