<svg width="13" height="8" viewBox="0 0 13 8" fill="none" xmlns="http://www.w3.org/2000/svg">
<path d="M7.47065 0.970043C7.61151 0.835932 7.79897 0.76179 7.99346 0.763262C8.18796 0.764733 8.37427 0.841703 8.51309 0.977931C8.65191 1.11416 8.73239 1.29899 8.73753 1.49342C8.74267 1.68785 8.67208 1.87667 8.54065 2.02004L4.55065 7.01004C4.48204 7.08394 4.39923 7.14325 4.30718 7.18441C4.21513 7.22557 4.11572 7.24775 4.0149 7.24962C3.91408 7.25149 3.81392 7.233 3.7204 7.19528C3.62689 7.15755 3.54194 7.10135 3.47065 7.03004L0.824646 4.38404C0.750959 4.31538 0.691857 4.23258 0.650865 4.14058C0.609873 4.04858 0.587831 3.94927 0.586054 3.84857C0.584277 3.74786 0.602802 3.64783 0.640523 3.55445C0.678244 3.46106 0.734389 3.37622 0.805607 3.305C0.876826 3.23379 0.96166 3.17764 1.05505 3.13992C1.14844 3.1022 1.24847 3.08367 1.34917 3.08545C1.44987 3.08723 1.54918 3.10927 1.64118 3.15026C1.73318 3.19125 1.81598 3.25036 1.88465 3.32404L3.97865 5.41704L7.45065 0.992043C7.45687 0.984323 7.46355 0.976976 7.47065 0.970043ZM6.55065 6.11004L7.47065 7.03004C7.54193 7.10119 7.62681 7.15726 7.72023 7.1949C7.81365 7.23253 7.91369 7.25097 8.01439 7.2491C8.11509 7.24723 8.21438 7.22511 8.30634 7.18403C8.3983 7.14296 8.48105 7.08379 8.54965 7.01004L12.5416 2.02004C12.6134 1.94924 12.6701 1.86472 12.7084 1.77152C12.7467 1.67832 12.7658 1.57835 12.7647 1.47758C12.7635 1.37682 12.742 1.27732 12.7015 1.18504C12.6611 1.09276 12.6024 1.00958 12.5291 0.940472C12.4557 0.871365 12.3692 0.817747 12.2747 0.782819C12.1801 0.747891 12.0796 0.732371 11.9789 0.737184C11.8782 0.741998 11.7796 0.767047 11.6888 0.810835C11.5981 0.854623 11.5171 0.916253 11.4506 0.992043L7.97765 5.41704L7.49265 4.93104L6.54965 6.11004H6.55065Z" fill="#1B242D"/>
</svg>
