<svg width="24" height="28" viewBox="0 0 24 28" fill="none" xmlns="http://www.w3.org/2000/svg">
<path fill-rule="evenodd" clip-rule="evenodd" d="M6.30048 20.3101V7H7.70048V20.3101L10.9603 17.0503C11.2336 16.7769 11.6769 16.7769 11.9502 17.0503C12.2236 17.3236 12.2236 17.7668 11.9502 18.0402L7.49545 22.495C7.22208 22.7683 6.77887 22.7683 6.5055 22.495L2.05073 18.0402C1.77736 17.7668 1.77736 17.3236 2.05073 17.0503C2.3241 16.7769 2.76731 16.7769 3.04068 17.0503L6.30048 20.3101Z" fill="white"/>
<path fill-rule="evenodd" clip-rule="evenodd" d="M17.3005 7.68995V21H18.7005V7.68995L21.9603 10.9497C22.2336 11.2231 22.6769 11.2231 22.9502 10.9497C23.2236 10.6764 23.2236 10.2332 22.9502 9.9598L18.4955 5.50502C18.2221 5.23166 17.7789 5.23166 17.5055 5.50502L13.0507 9.9598C12.7774 10.2332 12.7774 10.6764 13.0507 10.9497C13.3241 11.2231 13.7673 11.2231 14.0407 10.9497L17.3005 7.68995Z" fill="white"/>
</svg>
