<svg width="24" height="25" viewBox="0 0 24 25" fill="none" xmlns="http://www.w3.org/2000/svg">
<path d="M1.2 3.69922C1.86263 3.69922 2.4 4.23659 2.4 4.89922V14.4992H10.8V8.49922C10.8 7.83547 11.3363 7.29922 12 7.29922H20.4C22.3875 7.29922 24 8.87797 24 10.8992V19.2992C24 19.963 23.4638 20.4992 22.8 20.4992C22.1363 20.4992 21.6 19.963 21.6 19.2992V18.0992H2.4V19.2992C2.4 19.963 1.86263 20.4992 1.2 20.4992C0.537375 20.4992 0 19.963 0 19.2992V4.89922C0 4.23659 0.537375 3.69922 1.2 3.69922ZM3.6 10.2992C3.6 8.64172 4.9425 7.29922 6.6 7.29922C8.2575 7.29922 9.6 8.64172 9.6 10.2992C9.6 11.9567 8.2575 13.2992 6.6 13.2992C4.9425 13.2992 3.6 11.9567 3.6 10.2992Z" fill="#C3C6C9"/>
</svg>
