<svg width="14" height="16" viewBox="0 0 14 16" fill="none" xmlns="http://www.w3.org/2000/svg">
<path d="M2.99967 4.00033H10.9997V6.64033L6.99967 5.33366L2.99967 6.64033M1.62634 12.667H1.66634C2.73301 12.667 3.66634 12.0803 4.33301 11.3337C4.99967 12.0803 5.93301 12.667 6.99967 12.667C8.06634 12.667 8.99967 12.0803 9.66634 11.3337C10.333 12.0803 11.2663 12.667 12.333 12.667H12.3663L13.633 8.20699C13.6863 8.04033 13.6663 7.85366 13.593 7.69366C13.5063 7.53366 13.3663 7.41366 13.193 7.36033L12.333 7.08033V4.00033C12.333 3.6467 12.1925 3.30756 11.9425 3.05752C11.6924 2.80747 11.3533 2.66699 10.9997 2.66699H8.99967V0.666992H4.99967V2.66699H2.99967C2.64605 2.66699 2.30691 2.80747 2.05687 3.05752C1.80682 3.30756 1.66634 3.6467 1.66634 4.00033V7.08033L0.806341 7.36033C0.633008 7.41366 0.493008 7.53366 0.406341 7.69366C0.333008 7.85366 0.313008 8.04033 0.366341 8.20699M12.333 14.0003C11.4063 14.0003 10.4797 13.687 9.66634 13.1137C8.03967 14.2537 5.95967 14.2537 4.33301 13.1137C3.51967 13.687 2.59301 14.0003 1.66634 14.0003H0.333008V15.3337H1.66634C2.57967 15.3337 3.49301 15.1003 4.33301 14.667C5.99967 15.5337 7.99967 15.5337 9.66634 14.667C10.5063 15.1003 11.413 15.3337 12.333 15.3337H13.6663V14.0003H12.333Z" fill="#1B242D"/>
</svg>
