<svg width="226" height="121" viewBox="0 0 226 121" fill="none" xmlns="http://www.w3.org/2000/svg">
<g clip-path="url(#clip0_4199_27099)">
<path opacity="0.5" d="M98.4257 14.3873C97.2157 12.7451 94.7157 14.5271 95.8457 16.2292C96.1407 16.6735 96.4657 17.1028 96.7707 17.5171C100.496 22.5086 102.426 28.6332 104.091 34.663C104.496 36.1605 104.891 37.7179 104.426 39.1555C105.091 35.2421 104.661 31.1989 103.656 27.3554C102.651 23.5119 101.086 19.8631 99.4707 16.2342C99.1882 15.5837 98.8379 14.9647 98.4257 14.3873Z" fill="#21386C"/>
<path d="M74.2513 24.9496C71.7513 24.8747 71.4213 28.6783 73.9213 28.8779C74.5763 28.9328 75.2413 28.9478 75.8713 28.9628C83.5663 29.1724 90.8463 31.9577 97.8413 34.9527C99.5563 35.6864 101.341 36.51 102.341 38.0824C99.1863 34.4335 95.0363 31.7631 90.6213 29.7964C86.2063 27.8297 81.5013 26.5419 76.8013 25.3389C75.9676 25.1187 75.1128 24.9882 74.2513 24.9496V24.9496Z" fill="#21386C"/>
<path opacity="0.2" d="M74.9457 34.2837C73.3557 34.3436 73.7157 36.5948 75.3157 36.6098C75.7307 36.6098 76.1507 36.6098 76.5457 36.5748C81.4007 36.3802 86.3757 37.7179 91.1957 39.1904C92.3807 39.5498 93.6307 39.9591 94.4907 40.8426C91.9306 38.8691 89.0291 37.3819 85.9307 36.455C82.8773 35.5503 79.7626 34.8664 76.6107 34.4085C76.0612 34.312 75.5035 34.2702 74.9457 34.2837Z" fill="#21386C"/>
<path opacity="0.5" d="M107.426 76.168C107.876 77.6904 109.976 76.7819 109.591 75.2345C109.491 74.8302 109.366 74.4309 109.251 74.0515C107.856 69.4044 107.921 64.2631 108.151 59.2366C108.211 57.9987 108.296 56.6909 108.941 55.6377C107.661 58.6038 106.939 61.7798 106.811 65.0069C106.686 68.1835 106.795 71.365 107.136 74.5257C107.178 75.0814 107.275 75.6315 107.426 76.168V76.168Z" fill="#21386C"/>
<path opacity="0.2" d="M77.8359 12.276C76.8809 12.1113 76.8109 13.4989 77.7609 13.7136C78.0109 13.7685 78.2609 13.8084 78.5009 13.8483C81.4259 14.3475 84.2259 15.7751 86.9209 17.2676C87.6148 17.5826 88.2183 18.0666 88.6759 18.6752C87.3982 17.1705 85.8542 15.9134 84.1209 14.9664C82.4143 14.0367 80.6411 13.2342 78.8159 12.5655C78.4999 12.436 78.1716 12.339 77.8359 12.276V12.276Z" fill="#21386C"/>
<path d="M63.0857 49.0986C60.6607 50.3465 62.7107 53.7658 65.2007 52.6327C65.8507 52.3332 66.4857 51.9987 67.0957 51.6843C74.5007 47.8508 83.0956 46.4381 91.5956 45.35C93.6706 45.0854 95.8857 44.8508 97.8057 45.6694C92.5707 44.1969 86.9907 44.0721 81.6007 44.7011C76.2107 45.33 70.9657 46.6728 65.7757 48.0953C64.8476 48.3391 63.9465 48.6752 63.0857 49.0986V49.0986Z" fill="#21386C"/>
<path opacity="0.5" d="M70.0109 62.411C68.2709 64.0333 71.0109 65.95 72.8159 64.4076C73.3159 64.0033 73.7509 63.574 74.1859 63.1647C79.4959 58.1732 86.5109 54.6491 93.4959 51.3847C95.2109 50.581 102.271 49.7674 104.151 49.8123C99.2309 50.2516 89.1809 51.8089 84.7109 53.8056C80.3285 55.8869 76.0922 58.2616 72.0309 60.9136C71.3117 61.3479 70.6353 61.8493 70.0109 62.411V62.411Z" fill="#21386C"/>
<path d="M82.4408 83.6552C81.9408 85.9763 85.2558 86.0112 85.8758 83.6901C86.0358 83.0861 86.1658 82.4722 86.2908 81.8882C87.8258 74.7852 91.5808 67.8868 95.4708 61.2381C96.4258 59.6059 101.766 54.9288 103.341 53.8955C99.5408 57.0502 92.1458 64.0184 89.6258 68.2213C87.2046 72.4207 85.0698 76.7782 83.2358 81.2642C82.8978 82.0351 82.6317 82.8355 82.4408 83.6552V83.6552Z" fill="#21386C"/>
<path d="M107.456 2.09309C106.266 -0.322821 102.876 1.66382 103.956 4.13963C104.236 4.78854 104.551 5.42246 104.851 6.02644C108.506 13.409 109.761 21.9395 110.701 30.3303C110.931 32.3869 111.131 34.5831 110.291 36.4749C111.821 31.3087 112.026 25.793 111.496 20.452C110.966 15.1111 109.721 9.90488 108.401 4.7486C108.175 3.83422 107.858 2.94463 107.456 2.09309V2.09309Z" fill="#21386C"/>
<path d="M88.5505 6.2012C88.6126 6.23905 88.683 6.26131 88.7555 6.26608C88.8905 6.26608 88.9805 6.13131 89.0355 6.01152C89.3305 5.3676 89.1606 4.51405 89.6206 4.01489C90.079 4.56111 90.4516 5.17375 90.7255 5.83182L92.4656 5.33266C92.549 5.67042 92.5628 6.02159 92.5061 6.36483C92.4493 6.70806 92.3233 7.0362 92.1355 7.32929C92.4423 7.46132 92.7207 7.65113 92.9555 7.88834C93.0736 8.00617 93.1563 8.15463 93.1943 8.31693C93.2323 8.47924 93.2241 8.64891 93.1706 8.80679C92.7682 8.90409 92.3541 8.94442 91.9405 8.92659C92.005 9.69094 91.9612 10.4606 91.8106 11.2127C91.8065 11.2686 91.791 11.3231 91.7653 11.3728C91.7395 11.4226 91.7039 11.4666 91.6605 11.5022C91.5355 11.5821 91.3655 11.5022 91.2355 11.4323C90.6354 11.0673 90.1422 10.5508 89.8055 9.93488L89.1556 11.4773C89.1098 11.6367 89.0088 11.7747 88.8706 11.8666C88.7716 11.9009 88.6639 11.9008 88.565 11.8664C88.4661 11.832 88.3817 11.7652 88.3256 11.6769C88.2165 11.5002 88.1514 11.2999 88.1355 11.0929L87.8905 9.6254C87.8877 9.54864 87.8596 9.47496 87.8106 9.41576C87.7376 9.36056 87.6469 9.33392 87.5555 9.34088C86.9389 9.34088 86.3239 9.34088 85.7105 9.34088C85.6055 9.01144 85.9305 8.71195 86.2455 8.57219C86.5605 8.43242 86.9306 8.33259 87.0906 8.02811C87.4106 7.40416 86.5906 6.53064 86.9356 6.00652C87.3456 5.33266 88.0155 5.93664 88.5505 6.2012Z" fill="#21386C"/>
<path opacity="0.5" d="M122.161 14.3873C123.371 12.7451 125.871 14.5271 124.741 16.2292C124.446 16.6735 124.121 17.1028 123.816 17.5171C120.091 22.5086 118.156 28.6332 116.496 34.663C116.086 36.1605 115.691 37.7179 116.156 39.1555C115.491 35.2421 115.926 31.1989 116.931 27.3554C117.936 23.5119 119.501 19.8381 121.116 16.2093C121.4 15.5674 121.75 14.9568 122.161 14.3873Z" fill="#21386C"/>
<path d="M146.331 24.9496C148.831 24.8747 149.166 28.6783 146.661 28.8779C146.006 28.9328 145.346 28.9478 144.716 28.9628C137.016 29.1724 129.741 31.9577 122.746 34.9527C121.031 35.6864 119.246 36.51 118.246 38.0824C121.396 34.4335 125.546 31.7631 129.966 29.7964C134.386 27.8297 139.086 26.5469 143.766 25.3439C144.604 25.1209 145.464 24.9887 146.331 24.9496V24.9496Z" fill="#21386C"/>
<path opacity="0.5" d="M145.641 34.2837C147.226 34.3436 146.871 36.5948 145.271 36.6098C144.856 36.6098 144.436 36.6098 144.036 36.5748C139.181 36.3802 134.211 37.7179 129.391 39.1904C128.206 39.5498 126.956 39.9591 126.096 40.8426C128.656 38.8691 131.557 37.3819 134.656 36.455C137.709 35.5498 140.824 34.8658 143.976 34.4085C144.525 34.312 145.083 34.2702 145.641 34.2837V34.2837Z" fill="#21386C"/>
<path opacity="0.2" d="M142.746 12.276C143.706 12.1113 143.776 13.4989 142.826 13.7136C142.576 13.7685 142.326 13.8084 142.081 13.8483C139.156 14.3475 136.361 15.7751 133.666 17.2676C132.972 17.5826 132.369 18.0666 131.911 18.6752C133.188 17.1695 134.732 15.9121 136.466 14.9664C138.171 14.0367 139.943 13.2342 141.766 12.5655C142.083 12.4374 142.411 12.3404 142.746 12.276V12.276Z" fill="#21386C"/>
<path opacity="0.2" d="M117.876 79.048C117.661 79.9964 116.346 79.5472 116.521 78.5489C116.566 78.2943 116.621 78.0497 116.676 77.8101C117.346 74.925 117.101 71.7953 116.766 68.7404C116.74 67.9794 116.525 67.2367 116.141 66.5791C117.04 68.3407 117.606 70.2529 117.811 72.2196C118.011 74.1511 118.07 76.0947 117.986 78.0347C117.982 78.3753 117.945 78.7146 117.876 79.048V79.048Z" fill="#21386C"/>
<path opacity="0.5" d="M142.136 72.7737C142.881 74.0365 141.051 73.9467 140.246 72.6838C140.031 72.3544 139.841 72.0249 139.651 71.6855C137.381 67.827 133.921 64.0085 130.441 60.3197C129.615 59.3625 128.651 58.5332 127.581 57.8589C130.308 59.7083 132.823 61.8509 135.081 64.2481C137.316 66.5841 139.291 69.015 141.226 71.4459C141.56 71.8672 141.864 72.3108 142.136 72.7737V72.7737Z" fill="#21386C"/>
<path opacity="0.2" d="M75.7456 72.7737C75.0006 74.0365 76.8356 73.9467 77.6406 72.6838C77.8506 72.3544 78.0456 72.0249 78.2306 71.6855C80.5006 67.827 83.9606 64.0085 87.4456 60.3197C88.2697 59.3626 89.2319 58.5333 90.3006 57.8589C87.576 59.7109 85.0612 61.8533 82.8006 64.2481C80.5656 66.5841 78.5906 69.015 76.6606 71.4459C76.3255 71.8671 76.0198 72.3107 75.7456 72.7737V72.7737Z" fill="#21386C"/>
<path opacity="0.2" d="M100.026 79.048C100.241 79.9964 101.551 79.5472 101.381 78.5489C101.336 78.2943 101.276 78.0497 101.221 77.8101C100.556 74.925 100.796 71.7953 101.136 68.7404C101.162 67.9802 101.375 67.238 101.756 66.5791C100.856 68.3406 100.29 70.2528 100.086 72.2196C99.8836 74.151 99.8235 76.0945 99.9058 78.0347C99.9127 78.3756 99.9529 78.7149 100.026 79.048V79.048Z" fill="#21386C"/>
<path opacity="0.2" d="M135.086 21.7599C136.041 21.5902 136.111 22.9828 135.161 23.1925C134.911 23.2474 134.661 23.2923 134.421 23.3322C131.496 23.8314 128.696 25.259 126.001 26.7465C125.309 27.0647 124.706 27.5482 124.246 28.1541C125.524 26.651 127.068 25.3955 128.801 24.4504C130.509 23.521 132.282 22.7169 134.106 22.0444C134.422 21.9165 134.751 21.8211 135.086 21.7599V21.7599Z" fill="#21386C"/>
<path opacity="0.2" d="M126.176 3.14147C127.001 2.64231 127.586 3.89519 126.786 4.44426C126.571 4.58902 126.356 4.72379 126.146 4.84858C123.621 6.40095 121.561 8.77194 119.621 11.1579C119.097 11.7114 118.717 12.3851 118.516 13.1196C119.14 11.2486 120.102 9.5077 121.356 7.98328C122.584 6.48473 123.921 5.07831 125.356 3.77539C125.608 3.53852 125.883 3.32625 126.176 3.14147V3.14147Z" fill="#21386C"/>
<path d="M157.501 49.0986C159.926 50.3465 157.876 53.7658 155.386 52.6327C154.736 52.3332 154.096 51.9987 153.491 51.6843C146.081 47.8508 137.491 46.4381 128.991 45.35C126.916 45.0854 124.701 44.8508 122.781 45.6694C128.016 44.1969 133.591 44.0721 138.986 44.7011C144.381 45.33 149.616 46.6728 154.811 48.0953C155.739 48.3401 156.64 48.6762 157.501 49.0986V49.0986Z" fill="#21386C"/>
<path opacity="0.5" d="M150.586 62.4112C152.326 64.0335 149.586 65.9502 147.781 64.4078C147.281 64.0035 146.846 63.5742 146.411 63.1649C141.086 58.1684 134.086 54.6294 127.086 51.3649C125.371 50.5612 118.311 49.7476 116.426 49.7926C121.351 50.2318 131.401 51.7892 135.871 53.7858C140.253 55.8671 144.489 58.2418 148.551 60.8938C149.276 61.3337 149.957 61.8418 150.586 62.4112V62.4112Z" fill="#21386C"/>
<path d="M130.046 86.3058C130.261 88.6718 126.956 88.3024 126.636 85.9115C126.551 85.2925 126.501 84.6686 126.446 84.0746C125.816 76.8318 122.946 69.5192 119.946 62.4362C119.201 60.6991 114.491 55.3881 113.056 54.1702C116.431 57.7741 122.891 65.6108 124.866 70.0982C126.742 74.5663 128.314 79.1557 129.571 83.835C129.806 84.6421 129.965 85.4693 130.046 86.3058V86.3058Z" fill="#21386C"/>
<path d="M132.031 6.2012C131.97 6.23981 131.899 6.26214 131.826 6.26608C131.696 6.26608 131.606 6.13131 131.551 6.01152C131.251 5.3676 131.421 4.51405 130.966 4.01489C130.508 4.56111 130.135 5.17375 129.861 5.83182L128.116 5.33266C128.034 5.67052 128.021 6.02148 128.077 6.36454C128.134 6.70761 128.26 7.03573 128.446 7.32929C128.14 7.4625 127.862 7.65217 127.626 7.88834C127.51 8.00733 127.429 8.15603 127.392 8.31808C127.355 8.48012 127.363 8.64923 127.416 8.80679C127.819 8.90409 128.233 8.94442 128.646 8.92659C128.579 9.69091 128.623 10.4609 128.776 11.2127C128.78 11.2686 128.796 11.3231 128.822 11.3728C128.847 11.4226 128.883 11.4666 128.926 11.5022C129.051 11.5821 129.221 11.5022 129.351 11.4323C129.949 11.0639 130.441 10.5482 130.781 9.93488L131.431 11.4773C131.473 11.6386 131.575 11.7778 131.716 11.8666C131.815 11.9009 131.923 11.9008 132.022 11.8664C132.121 11.832 132.205 11.7652 132.261 11.6769C132.368 11.4992 132.433 11.2995 132.451 11.0929L132.696 9.6254C132.699 9.54864 132.727 9.47496 132.776 9.41576C132.849 9.36056 132.94 9.33392 133.031 9.34088C133.648 9.34088 134.263 9.34088 134.876 9.34088C134.981 9.01144 134.656 8.71195 134.341 8.57219C134.026 8.43242 133.651 8.33259 133.496 8.02811C133.176 7.40416 133.996 6.53064 133.651 6.00652C133.241 5.33266 132.586 5.93664 132.031 6.2012Z" fill="#21386C"/>
<path opacity="0.2" d="M137.286 77.785C137.224 77.8215 137.153 77.8421 137.081 77.8449C136.946 77.8449 136.856 77.7102 136.801 77.5904C136.506 76.9515 136.676 76.1179 136.221 75.5938C135.756 76.1492 135.382 76.7741 135.111 77.4456L133.371 76.9115C133.288 77.2493 133.274 77.6004 133.331 77.9436C133.388 78.2868 133.514 78.6149 133.701 78.9081C133.395 79.0384 133.116 79.2265 132.881 79.4622C132.765 79.581 132.683 79.7294 132.645 79.8914C132.607 80.0534 132.614 80.2226 132.666 80.3807C133.068 80.4796 133.482 80.5217 133.896 80.5054C133.832 81.2681 133.875 82.0361 134.026 82.7866C134.037 82.9001 134.091 83.0052 134.176 83.0811C134.306 83.161 134.471 83.0811 134.601 83.0062C135.202 82.6424 135.696 82.1256 136.031 81.5087L136.681 83.0511C136.728 83.2099 136.831 83.3463 136.971 83.4355C137.069 83.4708 137.176 83.4718 137.274 83.4382C137.372 83.4046 137.456 83.3385 137.511 83.2508C137.619 83.073 137.686 82.8735 137.706 82.6668L137.946 81.1943C137.949 81.1175 137.977 81.0438 138.026 80.9846C138.101 80.9304 138.194 80.9056 138.286 80.9148C138.896 80.9148 139.511 80.8898 140.126 80.9148C140.231 80.5903 139.906 80.2858 139.591 80.1461C139.276 80.0063 138.906 79.9065 138.746 79.602C138.426 78.983 139.246 78.1045 138.901 77.6053C138.491 76.8965 137.821 77.5205 137.286 77.785Z" fill="#21386C"/>
<path d="M152.041 29.7913C151.98 29.8299 151.909 29.8506 151.836 29.8512C151.701 29.8512 151.611 29.7214 151.556 29.6016C151.261 28.9577 151.431 28.1041 150.971 27.605C150.509 28.1636 150.137 28.7899 149.866 29.4618L148.126 28.9228C148.043 29.2605 148.029 29.6116 148.086 29.9548C148.143 30.298 148.269 30.6262 148.456 30.9194C148.151 31.0514 147.872 31.2393 147.636 31.4734C147.518 31.5924 147.435 31.7417 147.398 31.9047C147.36 32.0678 147.368 32.2382 147.421 32.3969C147.823 32.4942 148.238 32.5345 148.651 32.5167C148.587 33.281 148.631 34.0506 148.781 34.8028C148.785 34.8587 148.801 34.9131 148.826 34.9629C148.852 35.0127 148.888 35.0567 148.931 35.0923C149.056 35.1722 149.226 35.0923 149.356 35.0224C149.956 34.6574 150.449 34.1409 150.786 33.525L151.436 35.0674C151.482 35.2268 151.583 35.3648 151.721 35.4567C151.82 35.4901 151.927 35.4896 152.026 35.4552C152.125 35.4209 152.209 35.3546 152.266 35.267C152.375 35.0902 152.44 34.89 152.456 34.683L152.701 33.1855C152.705 33.1105 152.733 33.0387 152.781 32.9809C152.854 32.9257 152.945 32.8991 153.036 32.906C153.651 32.906 154.266 32.906 154.881 32.906C154.986 32.5816 154.661 32.2771 154.346 32.1423C154.031 32.0075 153.661 31.9027 153.501 31.5982C153.181 30.9743 154.001 30.1008 153.656 29.6016C153.246 28.9178 152.586 29.5367 152.041 29.7913Z" fill="#21386C"/>
<path d="M93.051 84.9631C92.9648 85.0152 92.8667 85.0444 92.766 85.0479C92.581 85.0479 92.456 84.8633 92.376 84.6985C91.966 83.8001 92.201 82.637 91.566 81.8833C90.9198 82.6591 90.4001 83.5317 90.026 84.4689L87.586 83.7002C87.4729 84.17 87.4554 84.6577 87.5344 85.1344C87.6134 85.6111 87.7873 86.0671 88.046 86.4755C87.6185 86.6607 87.23 86.9249 86.901 87.2542C86.7393 87.4198 86.6263 87.6266 86.5743 87.8519C86.5223 88.0772 86.5332 88.3125 86.606 88.5321C87.1667 88.6698 87.7439 88.7286 88.321 88.7068C88.2307 89.7698 88.2913 90.8402 88.501 91.8864C88.5065 91.9645 88.528 92.0407 88.5641 92.1102C88.6002 92.1798 88.6502 92.2412 88.711 92.2907C88.886 92.4055 89.121 92.2907 89.301 92.1959C90.1419 91.6775 90.8315 90.9477 91.301 90.0794L92.206 92.2308C92.273 92.4512 92.4143 92.6416 92.606 92.7699C92.7427 92.8185 92.8918 92.8192 93.029 92.7721C93.1662 92.7249 93.2832 92.6326 93.361 92.5103C93.5135 92.2621 93.606 91.9818 93.631 91.6917L93.966 89.6452C93.9746 89.5394 94.0147 89.4386 94.081 89.3557C94.1828 89.2754 94.3119 89.2378 94.441 89.2508C95.296 89.2508 96.151 89.2209 97.006 89.2259C97.156 88.7717 96.701 88.3524 96.261 88.1577C95.821 87.963 95.306 87.8233 95.086 87.399C94.636 86.5354 95.791 85.3325 95.301 84.5837C94.736 83.7302 93.801 84.5937 93.051 84.9631Z" fill="#21386C"/>
<path d="M68.5105 31.2338C68.4228 31.2866 68.3229 31.3158 68.2205 31.3187C68.0405 31.3187 67.9105 31.134 67.8355 30.9693C67.4205 30.0708 67.6605 28.9078 67.0255 28.1541C66.3778 28.9297 65.8565 29.8022 65.4805 30.7397L63.0555 29.986C62.9403 30.4553 62.9212 30.9431 62.9994 31.42C63.0776 31.8968 63.2514 32.3531 63.5105 32.7613C63.0846 32.9464 62.6977 33.2107 62.3705 33.5399C62.208 33.705 62.0941 33.9115 62.0412 34.1369C61.9883 34.3623 61.9984 34.5978 62.0705 34.8178C62.6312 34.9555 63.2085 35.0143 63.7855 34.9925C63.6945 36.0557 63.7568 37.1265 63.9705 38.1721C63.9645 38.2674 63.9891 38.362 64.0406 38.4424C64.0921 38.5228 64.1679 38.5847 64.257 38.6192C64.3462 38.6537 64.444 38.6589 64.5363 38.6342C64.6287 38.6094 64.7107 38.556 64.7705 38.4816C65.6114 37.9632 66.3011 37.2334 66.7705 36.3652L67.6705 38.5165C67.7349 38.7397 67.879 38.9315 68.0755 39.0556C68.2123 39.1033 68.3611 39.1036 68.4981 39.0565C68.6351 39.0094 68.7522 38.9177 68.8305 38.7961C68.9824 38.5479 69.0732 38.2674 69.0955 37.9774L69.4355 35.9309C69.4405 35.8252 69.479 35.7238 69.5455 35.6414C69.6481 35.5629 69.7771 35.5271 69.9055 35.5416C70.7605 35.5416 71.6155 35.5066 72.4755 35.5116C72.6205 35.0574 72.1655 34.6381 71.7305 34.4434C71.2955 34.2487 70.7705 34.109 70.5505 33.6847C70.1055 32.8212 71.2605 31.6182 70.7705 30.8695C70.1905 30.0009 69.2555 30.8645 68.5105 31.2338Z" fill="#21386C"/>
<path opacity="0.2" d="M142.981 64.5076C142.936 64.536 142.884 64.5516 142.831 64.5525C142.731 64.5525 142.666 64.4527 142.621 64.3678C142.401 63.8687 142.531 63.2747 142.191 62.8704C141.849 63.2833 141.572 63.7463 141.371 64.243L140.081 63.8437C140.019 64.097 140.009 64.36 140.051 64.6173C140.093 64.8745 140.187 65.1207 140.326 65.3412C140.099 65.4367 139.894 65.5758 139.721 65.7505C139.634 65.838 139.573 65.9477 139.545 66.0674C139.517 66.1872 139.522 66.3124 139.561 66.4293C139.858 66.503 140.165 66.535 140.471 66.5242C140.424 67.0885 140.458 67.6565 140.571 68.2113C140.573 68.2528 140.584 68.2932 140.603 68.3302C140.622 68.3671 140.649 68.3997 140.681 68.426C140.733 68.4469 140.79 68.4533 140.845 68.4446C140.901 68.4358 140.953 68.4121 140.996 68.376C141.44 68.0986 141.805 67.7118 142.056 67.2529L142.556 68.396C142.589 68.5132 142.663 68.6144 142.766 68.6805C142.839 68.7067 142.918 68.7076 142.992 68.6832C143.065 68.6587 143.128 68.6103 143.171 68.5458C143.25 68.4137 143.298 68.2651 143.311 68.1115L143.491 67.0233C143.495 66.9669 143.516 66.9129 143.551 66.8686C143.577 66.8468 143.607 66.8306 143.64 66.8212C143.673 66.8117 143.707 66.8092 143.741 66.8137H145.106C145.181 66.5741 144.941 66.3495 144.706 66.2496C144.471 66.1498 144.206 66.0699 144.081 65.8453C143.846 65.3861 144.461 64.7472 144.201 64.3479C143.941 63.9485 143.376 64.3079 142.981 64.5076Z" fill="#21386C"/>
<path opacity="0.2" d="M109.641 83.725C109.594 83.7497 109.543 83.765 109.491 83.7699C109.443 83.759 109.399 83.7357 109.363 83.7024C109.327 83.6691 109.3 83.627 109.286 83.5802C109.066 83.106 109.191 82.4871 108.851 82.0828C108.508 82.495 108.231 82.9581 108.031 83.4554L106.746 83.0561C106.685 83.3051 106.675 83.5637 106.716 83.8167C106.757 84.0697 106.849 84.3118 106.986 84.5286C106.761 84.6302 106.557 84.7705 106.381 84.9429C106.294 85.0304 106.234 85.1401 106.205 85.2599C106.177 85.3797 106.182 85.5049 106.221 85.6218C106.518 85.6963 106.825 85.7266 107.131 85.7116C107.084 86.2776 107.117 86.8473 107.231 87.4038C107.234 87.4451 107.245 87.4853 107.264 87.5222C107.283 87.5591 107.309 87.5918 107.341 87.6184C107.436 87.6783 107.561 87.6184 107.656 87.5685C108.1 87.2912 108.465 86.9044 108.716 86.4454L109.216 87.5885C109.249 87.7057 109.324 87.8069 109.426 87.873C109.499 87.8978 109.579 87.8975 109.652 87.8722C109.726 87.8469 109.788 87.798 109.831 87.7332C109.911 87.6012 109.958 87.4525 109.971 87.2989L110.151 86.2108C110.155 86.1559 110.176 86.1035 110.211 86.061C110.265 86.0185 110.333 85.9987 110.401 86.0061C110.858 86.0061 111.313 86.0061 111.766 86.0061C111.841 85.7665 111.601 85.5419 111.371 85.4371C111.141 85.3323 110.871 85.2624 110.746 85.0328C110.506 84.5736 111.121 83.9346 110.861 83.5353C110.601 83.136 110.041 83.5253 109.641 83.725Z" fill="#21386C"/>
<path opacity="0.5" d="M77.3762 16.4689C77.3299 16.4942 77.2788 16.5095 77.2262 16.5138C77.1784 16.5029 77.1343 16.4796 77.0983 16.4463C77.0623 16.413 77.0357 16.3709 77.0212 16.3241C76.8012 15.825 76.9262 15.231 76.5912 14.8267C76.2446 15.2364 75.9676 15.7001 75.7712 16.1993L74.4812 15.8C74.4163 16.053 74.4046 16.3166 74.4467 16.5743C74.4889 16.8321 74.5841 17.0783 74.7262 17.2975C74.4996 17.3978 74.2929 17.5382 74.1162 17.7118C74.0299 17.7995 73.9698 17.9094 73.9424 18.0293C73.915 18.1492 73.9216 18.2743 73.9612 18.3906C74.2584 18.4656 74.5651 18.4959 74.8712 18.4805C74.8224 19.0462 74.8544 19.6159 74.9662 20.1726C74.9692 20.2139 74.9805 20.2542 74.9994 20.2911C75.0183 20.3279 75.0444 20.3606 75.0762 20.3873C75.1712 20.4472 75.2962 20.3873 75.3912 20.3373C75.8367 20.0618 76.2022 19.6746 76.4512 19.2142L76.9512 20.3573C76.9854 20.4753 77.0619 20.5766 77.1662 20.6418C77.239 20.6663 77.3178 20.6658 77.3902 20.6405C77.4627 20.6152 77.5246 20.5665 77.5662 20.5021C77.6458 20.37 77.6937 20.2214 77.7062 20.0678L77.8862 18.9796C77.8894 18.9245 77.9105 18.872 77.9462 18.8299C77.9998 18.7873 78.0681 18.7676 78.1362 18.775C78.5929 18.775 79.0479 18.775 79.5012 18.775C79.5812 18.5354 79.3362 18.3108 79.1062 18.2059C78.8762 18.1011 78.6062 18.0312 78.4812 17.8016C78.2412 17.3424 78.8562 16.7035 78.5962 16.3042C78.3362 15.9048 77.7762 16.2692 77.3762 16.4689Z" fill="#21386C"/>
<path opacity="0.5" d="M94.5508 54.3648C94.5044 54.3938 94.4507 54.4094 94.3958 54.4097C94.3008 54.4097 94.2308 54.3149 94.1908 54.225C93.9708 53.7508 94.0958 53.1319 93.7608 52.7275C93.416 53.1386 93.1392 53.602 92.9408 54.1002L91.6508 53.7009C91.5883 53.9541 91.5778 54.2173 91.6199 54.4746C91.662 54.732 91.7559 54.9782 91.8958 55.1984C91.6703 55.298 91.4652 55.4385 91.2908 55.6127C91.2037 55.6999 91.1426 55.8095 91.1144 55.9294C91.0861 56.0493 91.0918 56.1747 91.1308 56.2915C91.428 56.3663 91.7347 56.3966 92.0408 56.3814C91.992 56.9471 92.024 57.5168 92.1358 58.0735C92.1445 58.1562 92.1837 58.2327 92.2458 58.2881C92.3408 58.348 92.4658 58.2881 92.5608 58.2332C93.0069 57.9606 93.3727 57.5748 93.6208 57.1151L94.1208 58.2582C94.1581 58.3746 94.2339 58.4749 94.3358 58.5427C94.4085 58.5681 94.4877 58.568 94.5603 58.5426C94.633 58.5173 94.6949 58.468 94.7358 58.4029C94.8172 58.2714 94.8668 58.1227 94.8808 57.9687L95.0608 56.8805C95.0616 56.8249 95.083 56.7715 95.1208 56.7308C95.147 56.7089 95.1773 56.6928 95.21 56.6833C95.2428 56.6739 95.2771 56.6713 95.3108 56.6759C95.7658 56.6759 96.2208 56.6759 96.6708 56.6759C96.7508 56.4363 96.5108 56.2116 96.2758 56.1068C96.0408 56.002 95.7758 55.9271 95.6508 55.7025C95.4158 55.2433 96.0308 54.6044 95.7658 54.205C95.5008 53.8057 94.9458 54.1701 94.5508 54.3648Z" fill="#21386C"/>
<path opacity="0.5" d="M82.086 39.5896C82.0414 39.6188 81.9893 39.6344 81.936 39.6345C81.836 39.6345 81.771 39.5397 81.731 39.4499C81.511 38.9757 81.636 38.3567 81.296 37.9524C80.9529 38.3646 80.6762 38.8277 80.476 39.3251L79.191 38.9257C79.1266 39.1785 79.1146 39.4417 79.1559 39.6993C79.1972 39.9568 79.2908 40.2032 79.431 40.4232C79.2065 40.5248 79.0017 40.665 78.826 40.8375C78.7389 40.9247 78.6778 41.0344 78.6495 41.1543C78.6213 41.2742 78.627 41.3995 78.666 41.5164C78.9632 41.5909 79.2699 41.6212 79.576 41.6062C79.5288 42.1721 79.5625 42.7419 79.676 43.2983C79.679 43.3397 79.6903 43.3799 79.7092 43.4168C79.7281 43.4537 79.7542 43.4864 79.786 43.513C79.881 43.5729 80.006 43.513 80.101 43.4581C80.5471 43.1854 80.9128 42.7996 81.161 42.34L81.661 43.483C81.6939 43.6003 81.7686 43.7015 81.871 43.7676C81.9445 43.7924 82.0241 43.7921 82.0974 43.7668C82.1707 43.7415 82.2335 43.6926 82.276 43.6278C82.3556 43.4958 82.4035 43.3471 82.416 43.1935L82.596 42.1054C82.5992 42.0503 82.6203 41.9977 82.656 41.9556C82.7096 41.913 82.7779 41.8933 82.846 41.9007C83.2993 41.9007 83.7543 41.9007 84.211 41.9007C84.286 41.6611 84.046 41.4365 83.816 41.3317C83.586 41.2269 83.316 41.152 83.191 40.9274C82.951 40.4681 83.566 39.8292 83.306 39.4299C83.046 39.0306 82.486 39.395 82.086 39.5896Z" fill="#21386C"/>
<path opacity="0.5" d="M135.616 43.0689C135.571 43.0973 135.519 43.1128 135.466 43.1138C135.366 43.1138 135.301 43.019 135.256 42.9291C135.041 42.4549 135.166 41.836 134.826 41.4316C134.483 41.8439 134.206 42.307 134.006 42.8043L132.721 42.405C132.66 42.654 132.65 42.9126 132.691 43.1656C132.733 43.4185 132.824 43.6607 132.961 43.8775C132.734 43.9748 132.529 44.1156 132.356 44.2918C132.269 44.379 132.208 44.4887 132.18 44.6086C132.152 44.7285 132.157 44.8538 132.196 44.9707C132.494 45.0427 132.8 45.073 133.106 45.0605C133.059 45.6264 133.093 46.1962 133.206 46.7526C133.209 46.7939 133.221 46.8342 133.239 46.8711C133.258 46.908 133.284 46.9407 133.316 46.9673C133.411 47.0272 133.536 46.9673 133.631 46.9124C134.075 46.6368 134.44 46.2517 134.691 45.7943L135.191 46.9323C135.223 47.0514 135.298 47.1545 135.401 47.2218C135.475 47.2466 135.554 47.2464 135.628 47.2211C135.701 47.1958 135.764 47.1469 135.806 47.0821C135.886 46.9501 135.934 46.8014 135.946 46.6478L136.126 45.5597C136.13 45.5032 136.151 45.4492 136.186 45.4049C136.241 45.3646 136.309 45.3467 136.376 45.355C136.83 45.355 137.285 45.355 137.741 45.355C137.816 45.1154 137.576 44.8908 137.346 44.786C137.116 44.6811 136.846 44.6063 136.721 44.3816C136.481 43.9224 137.096 43.2835 136.836 42.8842C136.576 42.4849 136.016 42.8742 135.616 43.0689Z" fill="#21386C"/>
<path opacity="0.2" d="M109.64 40.1638C109.596 40.193 109.544 40.2086 109.491 40.2088C109.391 40.2088 109.326 40.1089 109.286 40.0241C109.066 39.5249 109.191 38.9309 108.851 38.5266C108.51 38.9403 108.233 39.4031 108.031 39.8993L106.746 39.5C106.682 39.7528 106.67 40.0159 106.711 40.2733C106.753 40.5308 106.846 40.7771 106.985 40.9974C106.76 41.0956 106.555 41.2344 106.381 41.4067C106.293 41.495 106.232 41.6056 106.204 41.7262C106.176 41.8469 106.182 41.9729 106.22 42.0906C106.519 42.1601 106.825 42.1903 107.131 42.1804C107.084 42.7447 107.117 43.3127 107.231 43.8676C107.232 43.9091 107.243 43.9498 107.262 43.9869C107.281 44.0239 107.308 44.0564 107.341 44.0822C107.436 44.1471 107.561 44.0822 107.656 44.0323C108.101 43.7568 108.467 43.3696 108.716 42.9092L109.216 44.0523C109.248 44.1695 109.323 44.2707 109.426 44.3368C109.498 44.3639 109.578 44.3653 109.652 44.3408C109.726 44.3162 109.789 44.2673 109.83 44.202C109.91 44.07 109.958 43.9213 109.97 43.7677L110.151 42.6796C110.154 42.6231 110.175 42.5692 110.211 42.5248C110.266 42.4867 110.333 42.4674 110.401 42.4699C110.857 42.4699 111.312 42.4699 111.765 42.4699C111.84 42.2303 111.601 42.0057 111.371 41.9059C111.141 41.8061 110.871 41.7262 110.746 41.5016C110.506 41.0424 111.12 40.4034 110.86 40.0041C110.6 39.6048 110.04 39.9692 109.64 40.1638Z" fill="#21386C"/>
<path opacity="0.3" d="M101.491 43.7027C101.446 43.7311 101.394 43.7466 101.341 43.7476C101.241 43.7476 101.176 43.6527 101.131 43.5629C100.911 43.0637 101.041 42.4697 100.701 42.0654C100.36 42.4792 100.084 42.9419 99.8811 43.4381L98.5911 43.0438C98.532 43.2932 98.5233 43.5518 98.5654 43.8046C98.6074 44.0574 98.6994 44.2993 98.8361 44.5163C98.6105 44.6136 98.4053 44.7525 98.2311 44.9256C98.144 45.0139 98.083 45.1244 98.0548 45.2451C98.0266 45.3657 98.0322 45.4918 98.0711 45.6094C98.3692 45.679 98.6751 45.7092 98.9811 45.6993C98.9344 46.2652 98.968 46.8349 99.0811 47.3914C99.0841 47.4327 99.0954 47.473 99.1143 47.5099C99.1332 47.5467 99.1593 47.5795 99.1911 47.6061C99.2861 47.666 99.4111 47.6061 99.5061 47.5512C99.9516 47.2756 100.317 46.8884 100.566 46.4281L101.066 47.5711C101.098 47.6902 101.173 47.7933 101.276 47.8606C101.35 47.8854 101.429 47.8852 101.503 47.8599C101.576 47.8346 101.639 47.7857 101.681 47.7209C101.761 47.5888 101.809 47.4402 101.821 47.2866L102.001 46.1984C102.005 46.142 102.026 46.088 102.061 46.0437C102.116 46.0041 102.183 45.9847 102.251 45.9888C102.706 45.9888 103.161 45.9888 103.616 45.9888C103.691 45.7442 103.451 45.5196 103.221 45.4198C102.991 45.3199 102.721 45.2401 102.596 45.0154C102.356 44.5562 102.971 43.9173 102.711 43.518C102.451 43.1187 101.891 43.508 101.491 43.7027Z" fill="#21386C"/>
<path opacity="0.2" d="M93.8962 22.304C93.8498 22.333 93.7961 22.3486 93.7412 22.3489C93.6462 22.3489 93.5762 22.2541 93.5362 22.1642C93.3162 21.6651 93.4412 21.0711 93.1062 20.6667C92.7625 21.0767 92.4858 21.5383 92.2862 22.0344L90.9962 21.6401C90.9313 21.8931 90.9196 22.1567 90.9618 22.4144C91.0039 22.6721 91.0991 22.9184 91.2412 23.1376C91.0148 23.2361 90.8081 23.3748 90.6312 23.5469C90.546 23.6363 90.4866 23.7471 90.4593 23.8675C90.432 23.9879 90.4378 24.1134 90.4762 24.2307C90.7739 24.303 91.0802 24.3333 91.3862 24.3206C91.3379 24.8863 91.3699 25.4559 91.4812 26.0127C91.4843 26.054 91.4956 26.0943 91.5144 26.1312C91.5333 26.168 91.5595 26.2007 91.5912 26.2273C91.6862 26.2872 91.8112 26.2273 91.9062 26.1724C92.3536 25.8992 92.7196 25.5114 92.9662 25.0493L93.4662 26.1924C93.5022 26.3109 93.5781 26.4132 93.6812 26.4819C93.7597 26.5049 93.8439 26.4989 93.9182 26.465C93.9926 26.431 94.0523 26.3715 94.0862 26.2972C94.1676 26.1656 94.2173 26.017 94.2312 25.863L94.4062 24.7748C94.4101 24.7183 94.431 24.6644 94.4662 24.6201C94.522 24.5819 94.5887 24.5626 94.6563 24.5652C95.1113 24.5652 95.5662 24.5652 96.0212 24.5652C96.1012 24.3206 95.8612 24.0959 95.6262 23.9961C95.3912 23.8963 95.1262 23.8164 95.0012 23.5918C94.7662 23.1326 95.3762 22.4937 95.1162 22.0943C94.8562 21.695 94.2912 22.0843 93.8962 22.304Z" fill="#21386C"/>
<path opacity="0.3" d="M108.861 50.2567C108.813 50.2837 108.76 50.2991 108.706 50.3016C108.611 50.3016 108.541 50.2018 108.501 50.112C108.281 49.6378 108.406 49.0238 108.071 48.6145C107.727 49.0263 107.45 49.4895 107.251 49.9872L105.961 49.5879C105.896 49.8409 105.885 50.1044 105.927 50.362C105.969 50.6197 106.064 50.8659 106.206 51.0853C105.978 51.182 105.771 51.3209 105.596 51.4946C105.511 51.5833 105.452 51.6932 105.424 51.8127C105.397 51.9322 105.403 52.0569 105.441 52.1735C105.738 52.2474 106.044 52.2794 106.351 52.2683C106.302 52.8324 106.334 53.4004 106.446 53.9555C106.454 54.0382 106.493 54.1147 106.556 54.1701C106.608 54.1911 106.664 54.1975 106.72 54.1887C106.775 54.1799 106.828 54.1562 106.871 54.1202C107.316 53.8447 107.682 53.4575 107.931 52.9971L108.431 54.1402C108.465 54.2582 108.541 54.3595 108.646 54.4247C108.718 54.4496 108.796 54.4499 108.869 54.4255C108.941 54.4011 109.003 54.3534 109.046 54.2899C109.127 54.1583 109.177 54.0097 109.191 53.8556L109.371 52.7675C109.369 52.736 109.375 52.7045 109.387 52.6756C109.4 52.6466 109.419 52.621 109.443 52.6007C109.468 52.5804 109.496 52.566 109.527 52.5586C109.558 52.5511 109.59 52.5509 109.621 52.5578C110.076 52.5578 110.526 52.5578 110.981 52.5578C111.061 52.3182 110.821 52.0936 110.586 51.9938C110.351 51.8939 110.086 51.8141 109.961 51.5895C109.726 51.1302 110.336 50.4913 110.076 50.092C109.816 49.6927 109.256 50.0371 108.861 50.2567Z" fill="#21386C"/>
<g opacity="0.6">
<path opacity="0.5" d="M187.73 70.8518C187.569 70.6536 187.34 70.524 187.087 70.4895C186.834 70.4549 186.578 70.5181 186.37 70.666C186.163 70.814 186.019 71.0355 185.97 71.2853C185.921 71.5351 185.969 71.7943 186.105 72.0099C186.29 72.2894 186.495 72.5589 186.69 72.8185C189.035 75.9832 190.25 79.8067 191.3 83.6202C191.555 84.5537 191.8 85.547 191.51 86.4704C191.872 83.9839 191.701 81.4489 191.01 79.033C190.323 76.6247 189.442 74.276 188.375 72.0099C188.201 71.602 187.985 71.2138 187.73 70.8518V70.8518Z" fill="#21386C"/>
<path d="M172.499 77.5057C170.914 77.4557 170.714 79.8517 172.289 79.9765C172.704 80.0114 173.119 80.0214 173.519 80.0314C178.369 80.1612 182.949 81.9182 187.354 83.805C188.439 84.2692 189.574 84.8033 190.204 85.8016C188.158 83.5412 185.638 81.7586 182.824 80.5805C180.005 79.4021 177.091 78.4621 174.114 77.7702C173.587 77.6231 173.046 77.5344 172.499 77.5057V77.5057Z" fill="#21386C"/>
<path opacity="0.2" d="M172.94 83.3958C171.94 83.4307 172.165 84.8533 173.175 84.8583C173.435 84.8583 173.675 84.8583 173.95 84.8583C177.01 84.7335 180.14 85.5771 183.18 86.5055C183.948 86.6742 184.662 87.033 185.255 87.5488C183.641 86.305 181.813 85.3677 179.86 84.7834C177.941 84.2057 175.983 83.7686 174 83.4756C173.65 83.4158 173.295 83.3891 172.94 83.3958V83.3958Z" fill="#21386C"/>
<path opacity="0.5" d="M193.399 109.766C193.684 110.725 195.004 110.155 194.764 109.177C194.699 108.923 194.624 108.678 194.549 108.433C193.674 105.503 193.714 102.269 193.859 99.0992C193.835 98.314 194.006 97.5352 194.359 96.833C193.549 98.7004 193.088 100.7 192.999 102.733C192.922 104.732 192.991 106.734 193.204 108.723C193.236 109.076 193.302 109.425 193.399 109.766V109.766Z" fill="#21386C"/>
<path opacity="0.2" d="M174.765 69.5192C174.16 69.4143 174.115 70.2929 174.715 70.4226L175.18 70.5125C177.025 70.827 178.785 71.7254 180.485 72.6638C180.921 72.8618 181.301 73.1655 181.59 73.5474C180.785 72.6009 179.812 71.8107 178.72 71.2163C177.644 70.6375 176.528 70.1371 175.38 69.7188C175.181 69.6348 174.975 69.568 174.765 69.5192Z" fill="#21386C"/>
<path d="M165.47 92.7149C163.945 93.4986 165.235 95.6549 166.805 94.9412C167.215 94.7515 167.615 94.5418 167.995 94.3472C172.665 91.9263 178.085 91.0378 183.415 90.3539C184.725 90.1842 186.12 90.0394 187.33 90.5536C183.998 89.6906 180.53 89.4838 177.12 89.9446C173.748 90.4036 170.417 91.1195 167.155 92.086C166.573 92.2382 166.008 92.4489 165.47 92.7149Z" fill="#21386C"/>
<path opacity="0.5" d="M169.835 101.101C168.735 102.099 170.45 103.327 171.6 102.349C171.9 102.089 172.19 101.82 172.46 101.565C175.805 98.4303 180.225 96.1991 184.625 94.1426C185.705 93.6434 190.125 93.1443 191.34 93.1443C188.24 93.4238 181.905 94.3872 179.09 95.6401C176.325 96.9557 173.652 98.4566 171.09 100.132C170.642 100.415 170.222 100.74 169.835 101.101Z" fill="#21386C"/>
<path d="M177.659 114.483C177.339 115.946 179.434 115.981 179.824 114.483C179.924 114.104 180.009 113.72 180.089 113.35C181.054 108.858 183.419 104.53 185.869 100.342C186.469 99.3139 189.834 96.3489 190.829 95.72C188.434 97.7166 183.774 102.094 182.189 104.74C180.672 107.386 179.336 110.131 178.189 112.956C177.966 113.448 177.789 113.959 177.659 114.483Z" fill="#21386C"/>
<path d="M193.42 63.105C192.67 61.5826 190.535 62.8355 191.215 64.3979C191.39 64.8022 191.59 65.2015 191.78 65.5858C194.08 70.233 194.875 75.6089 195.465 80.895C195.61 82.1878 195.735 83.5704 195.205 84.7634C196.106 81.4793 196.365 78.0523 195.965 74.6705C195.565 71.3285 194.913 68.0213 194.015 64.7772C193.873 64.2014 193.673 63.6412 193.42 63.105V63.105Z" fill="#21386C"/>
<path d="M181.5 65.6956C181.537 65.7193 181.581 65.7314 181.625 65.7306C181.666 65.7238 181.704 65.7057 181.735 65.6783C181.766 65.651 181.788 65.6154 181.8 65.5758C181.99 65.1665 181.88 64.6424 182.17 64.303C182.461 64.6539 182.695 65.048 182.865 65.471L183.965 65.1316C184.016 65.3438 184.023 65.5641 183.987 65.7793C183.951 65.9946 183.872 66.2004 183.755 66.3845C183.941 66.4699 184.111 66.5882 184.255 66.7339C184.327 66.8094 184.378 66.9033 184.401 67.0053C184.423 67.1074 184.418 67.2137 184.385 67.3129C184.132 67.3772 183.871 67.4041 183.61 67.3928C183.653 67.8733 183.626 68.3575 183.53 68.8303C183.523 68.9018 183.489 68.9679 183.435 69.015C183.391 69.0323 183.343 69.0373 183.296 69.0294C183.249 69.0215 183.206 69.001 183.17 68.9701C182.79 68.7368 182.478 68.4081 182.265 68.0167L181.86 68.9851C181.83 69.0861 181.764 69.1729 181.675 69.2296C181.613 69.2514 181.547 69.2519 181.485 69.2311C181.423 69.2102 181.37 69.1693 181.335 69.1148C181.268 69.002 181.227 68.8759 181.215 68.7455L181.06 67.817C181.058 67.7694 181.041 67.7236 181.01 67.6873C180.964 67.6524 180.907 67.6364 180.85 67.6423C180.46 67.6423 180.075 67.6423 179.69 67.6423C179.62 67.4377 179.825 67.248 180.025 67.1432C180.225 67.0384 180.455 66.9884 180.555 66.7988C180.76 66.4044 180.235 65.8603 180.46 65.5259C180.685 65.1915 181.175 65.5259 181.5 65.6956Z" fill="#21386C"/>
<path opacity="0.5" d="M202.68 70.852C202.834 70.6362 203.067 70.4902 203.329 70.4463C203.59 70.4023 203.859 70.4638 204.075 70.6174C204.291 70.7709 204.437 71.0039 204.481 71.2651C204.525 71.5263 204.464 71.7942 204.31 72.01C204.12 72.2895 203.92 72.5591 203.725 72.8187C201.38 75.9833 200.16 79.8068 199.115 83.6204C198.855 84.5538 198.615 85.5471 198.9 86.4706C198.538 83.984 198.708 81.4491 199.4 79.0331C200.084 76.6241 200.966 74.2752 202.035 72.01C202.208 71.6021 202.424 71.2139 202.68 70.852V70.852Z" fill="#21386C"/>
<path d="M217.909 77.5057C219.489 77.4557 219.694 79.8517 218.114 79.9765C217.704 80.0114 217.284 80.0214 216.889 80.0314C212.039 80.1612 207.454 81.9182 203.049 83.805C201.969 84.2692 200.834 84.8033 200.204 85.8016C202.25 83.5412 204.77 81.7586 207.584 80.5805C210.402 79.4028 213.314 78.4628 216.289 77.7702C216.818 77.6235 217.361 77.5348 217.909 77.5057V77.5057Z" fill="#21386C"/>
<path opacity="0.5" d="M217.5 83.3958C218.5 83.4307 218.27 84.8533 217.265 84.8583C217 84.8583 216.74 84.8583 216.49 84.8583C213.43 84.7335 210.3 85.5771 207.26 86.5055C206.491 86.6732 205.777 87.032 205.185 87.5487C206.798 86.3041 208.626 85.3666 210.58 84.7834C212.502 84.2119 214.464 83.7815 216.45 83.4956C216.796 83.4297 217.147 83.3963 217.5 83.3958V83.3958Z" fill="#21386C"/>
<path opacity="0.2" d="M215.649 69.5192C216.254 69.4143 216.299 70.2929 215.699 70.4226L215.229 70.5125C213.389 70.827 211.624 71.7254 209.929 72.6638C209.493 72.8618 209.113 73.1655 208.824 73.5474C209.628 72.6011 210.599 71.8109 211.689 71.2163C212.767 70.6384 213.885 70.138 215.034 69.7188C215.233 69.6341 215.439 69.5673 215.649 69.5192V69.5192Z" fill="#21386C"/>
<path opacity="0.2" d="M199.999 111.583C199.864 112.177 199.039 111.882 199.149 111.278C199.149 111.119 199.214 110.964 199.249 110.814C199.669 108.997 199.514 107.026 199.304 105.099C199.287 104.621 199.152 104.154 198.909 103.741C199.475 104.846 199.83 106.046 199.959 107.28C200.085 108.497 200.123 109.722 200.074 110.944C200.071 111.159 200.046 111.373 199.999 111.583V111.583Z" fill="#21386C"/>
<path opacity="0.5" d="M215.265 107.63C215.735 108.423 214.58 108.368 214.075 107.575C213.94 107.365 213.82 107.156 213.7 106.956C212.27 104.525 210.09 102.119 207.895 99.798C207.377 99.1946 206.772 98.6714 206.1 98.2456C207.812 99.4126 209.393 100.762 210.815 102.269C212.225 103.766 213.465 105.264 214.685 106.801C214.896 107.064 215.09 107.341 215.265 107.63V107.63Z" fill="#21386C"/>
<path opacity="0.2" d="M173.444 107.63C172.974 108.423 174.129 108.368 174.639 107.575C174.769 107.365 174.894 107.156 175.009 106.956C176.439 104.525 178.619 102.119 180.814 99.798C181.334 99.1945 181.941 98.6713 182.614 98.2456C180.9 99.4125 179.317 100.761 177.894 102.269C176.489 103.766 175.244 105.264 174.024 106.801C173.812 107.064 173.619 107.341 173.444 107.63Z" fill="#21386C"/>
<path opacity="0.2" d="M188.739 111.583C188.874 112.177 189.699 111.882 189.594 111.278C189.564 111.119 189.529 110.964 189.494 110.814C189.074 108.997 189.224 107.026 189.439 105.099C189.452 104.621 189.586 104.154 189.829 103.741C189.264 104.846 188.908 106.046 188.779 107.28C188.653 108.497 188.616 109.722 188.669 110.944C188.673 111.159 188.696 111.373 188.739 111.583Z" fill="#21386C"/>
<path opacity="0.2" d="M210.835 75.4941C211.435 75.3892 211.48 76.2628 210.88 76.3975C210.725 76.4325 210.565 76.4574 210.415 76.4824C208.57 76.7969 206.81 77.6953 205.11 78.6387C204.674 78.8381 204.295 79.1416 204.005 79.5223C204.81 78.5743 205.783 77.7824 206.875 77.1862C207.951 76.6073 209.067 76.1069 210.215 75.6887C210.415 75.6034 210.622 75.5382 210.835 75.4941V75.4941Z" fill="#21386C"/>
<path opacity="0.2" d="M205.21 63.7689C205.71 63.4445 206.1 64.2381 205.595 64.5875L205.195 64.8421C203.605 65.8404 202.305 67.3129 201.08 68.8354C200.748 69.1828 200.511 69.6088 200.39 70.0733C200.781 68.8933 201.386 67.7952 202.175 66.8337C202.953 65.8906 203.798 65.0048 204.705 64.1832C204.858 64.0283 205.028 63.8894 205.21 63.7689V63.7689Z" fill="#21386C"/>
<path d="M224.945 92.715C226.47 93.4986 225.18 95.655 223.61 94.9412C223.2 94.7515 222.8 94.5419 222.415 94.3472C217.75 91.9263 212.33 91.0378 207 90.354C205.69 90.1842 204.295 90.0395 203.085 90.5536C206.415 89.6913 209.881 89.4845 213.29 89.9446C216.663 90.4031 219.996 91.119 223.26 92.086C223.841 92.2399 224.405 92.4505 224.945 92.715Z" fill="#21386C"/>
<path opacity="0.5" d="M220.579 101.101C221.679 102.099 219.964 103.327 218.814 102.349C218.514 102.089 218.224 101.82 217.949 101.565C214.604 98.4303 210.189 96.1991 205.784 94.1426C204.709 93.6434 200.259 93.1443 199.074 93.1443C202.174 93.4238 208.504 94.3872 211.319 95.6401C214.085 96.9548 216.758 98.4558 219.319 100.132C219.769 100.415 220.19 100.739 220.579 101.101V101.101Z" fill="#21386C"/>
<path d="M207.649 116.145C207.784 117.643 205.699 117.398 205.499 115.901C205.449 115.506 205.414 115.117 205.379 114.743C204.984 110.18 203.179 105.573 201.274 101.111C200.809 100.018 197.839 96.6732 196.939 95.9045C199.064 98.1757 203.134 103.112 204.379 105.938C205.559 108.751 206.548 111.641 207.339 114.588C207.492 115.096 207.595 115.618 207.649 116.145V116.145Z" fill="#21386C"/>
<path d="M208.9 65.6956C208.861 65.7194 208.816 65.7315 208.77 65.7306C208.73 65.7223 208.692 65.7036 208.662 65.6765C208.631 65.6493 208.608 65.6146 208.595 65.5758C208.41 65.1665 208.515 64.6424 208.23 64.303C207.937 64.6537 207.701 65.0478 207.53 65.471L206.435 65.1316C206.382 65.3437 206.374 65.5642 206.41 65.7797C206.446 65.9951 206.526 66.2009 206.645 66.3845C206.458 66.4699 206.289 66.5882 206.145 66.7339C206.072 66.8089 206.02 66.9025 205.996 67.0046C205.973 67.1066 205.977 67.2133 206.01 67.3129C206.263 67.3766 206.524 67.4035 206.785 67.3928C206.746 67.8736 206.774 68.3575 206.87 68.8303C206.877 68.9018 206.911 68.9679 206.965 69.015C207.009 69.0323 207.057 69.0373 207.104 69.0294C207.15 69.0215 207.194 69.001 207.23 68.9701C207.61 68.7368 207.922 68.4081 208.135 68.0167L208.54 68.9851C208.57 69.0848 208.634 69.1711 208.72 69.2296C208.782 69.2517 208.85 69.2524 208.912 69.2316C208.975 69.2108 209.028 69.1697 209.065 69.1148C209.131 69.002 209.172 68.8759 209.185 68.7455L209.34 67.817C209.341 67.7694 209.359 67.7236 209.39 67.6873C209.436 67.6524 209.493 67.6364 209.55 67.6423C209.935 67.6423 210.325 67.6423 210.71 67.6423C210.78 67.4377 210.57 67.248 210.375 67.1432C210.18 67.0384 209.94 66.9884 209.84 66.7988C209.64 66.4044 210.165 65.8603 209.94 65.5259C209.715 65.1915 209.24 65.5259 208.9 65.6956Z" fill="#21386C"/>
<path opacity="0.2" d="M212.209 110.784C212.169 110.807 212.125 110.821 212.079 110.824C211.994 110.824 211.939 110.74 211.904 110.665C211.719 110.26 211.824 109.731 211.539 109.392C211.245 109.741 211.009 110.136 210.839 110.56L209.744 110.22C209.692 110.432 209.684 110.652 209.719 110.868C209.754 111.083 209.832 111.289 209.949 111.473C209.762 111.56 209.593 111.68 209.449 111.828C209.375 111.902 209.324 111.996 209.3 112.098C209.276 112.2 209.281 112.307 209.314 112.407C209.568 112.466 209.829 112.492 210.089 112.482C210.048 112.962 210.075 113.446 210.169 113.919C210.176 113.991 210.21 114.057 210.264 114.104C210.344 114.154 210.449 114.104 210.534 114.059C210.913 113.825 211.223 113.497 211.434 113.106L211.844 114.074C211.871 114.175 211.935 114.263 212.024 114.319C212.086 114.34 212.153 114.341 212.214 114.32C212.276 114.299 212.329 114.258 212.364 114.204C212.433 114.091 212.476 113.965 212.489 113.834L212.639 112.906C212.645 112.859 212.662 112.815 212.689 112.776C212.736 112.741 212.796 112.724 212.854 112.731C213.239 112.731 213.629 112.731 214.014 112.731C214.079 112.527 213.874 112.337 213.679 112.232C213.484 112.127 213.244 112.077 213.144 111.888C212.944 111.493 213.464 110.954 213.244 110.615C213.024 110.275 212.549 110.615 212.209 110.784Z" fill="#21386C"/>
<path d="M221.499 80.5606C221.459 80.5829 221.415 80.5965 221.369 80.6005C221.284 80.6005 221.229 80.5157 221.194 80.4408C221.004 80.0365 221.114 79.5074 220.824 79.168C220.533 79.5189 220.299 79.913 220.129 80.336L219.029 79.9966C218.978 80.2088 218.971 80.4291 219.007 80.6443C219.043 80.8595 219.122 81.0653 219.239 81.2494C219.051 81.3345 218.882 81.4548 218.739 81.6039C218.666 81.6786 218.614 81.7722 218.59 81.8744C218.566 81.9765 218.571 82.0833 218.604 82.1829C218.858 82.2428 219.119 82.268 219.379 82.2577C219.338 82.7383 219.365 83.2222 219.459 83.6953C219.466 83.7668 219.5 83.8329 219.554 83.88C219.598 83.8973 219.646 83.9023 219.693 83.8944C219.74 83.8865 219.783 83.866 219.819 83.8351C220.199 83.6018 220.511 83.273 220.724 82.8817L221.134 83.8501C221.161 83.9514 221.225 84.0388 221.314 84.0946C221.376 84.1164 221.443 84.1169 221.504 84.0961C221.566 84.0752 221.619 84.0343 221.654 83.9798C221.724 83.8683 221.765 83.7415 221.774 83.6105L221.929 82.682C221.931 82.6344 221.948 82.5886 221.979 82.5522C222.025 82.5174 222.082 82.5014 222.139 82.5073C222.529 82.5073 222.914 82.5073 223.304 82.5073C223.369 82.3027 223.164 82.113 222.964 82.0082C222.764 81.9033 222.534 81.8534 222.434 81.6637C222.229 81.2694 222.754 80.7253 222.534 80.3909C222.314 80.0565 221.839 80.3909 221.499 80.5606Z" fill="#21386C"/>
<path d="M184.345 115.307C184.29 115.34 184.229 115.359 184.165 115.362C184.05 115.362 183.97 115.242 183.92 115.137C183.66 114.573 183.81 113.844 183.42 113.365C183.014 113.854 182.687 114.403 182.45 114.992L180.92 114.523C180.848 114.819 180.837 115.126 180.887 115.426C180.937 115.726 181.047 116.013 181.21 116.27C180.94 116.389 180.696 116.558 180.49 116.769C180.387 116.873 180.316 117.003 180.282 117.144C180.248 117.286 180.255 117.434 180.3 117.573C180.653 117.661 181.017 117.698 181.38 117.683C181.326 118.35 181.365 119.022 181.495 119.679C181.499 119.729 181.513 119.778 181.536 119.823C181.56 119.867 181.591 119.907 181.63 119.939C181.74 120.009 181.885 119.939 182 119.874C182.527 119.547 182.961 119.089 183.26 118.546L183.825 119.899C183.865 120.04 183.956 120.16 184.08 120.238C184.169 120.275 184.269 120.278 184.36 120.248C184.452 120.218 184.53 120.156 184.58 120.074C184.675 119.923 184.733 119.752 184.75 119.574L184.96 118.287C184.959 118.249 184.967 118.212 184.982 118.178C184.998 118.144 185.021 118.114 185.05 118.09C185.079 118.066 185.112 118.049 185.149 118.04C185.185 118.03 185.223 118.03 185.26 118.037C185.8 118.037 186.335 118.037 186.875 118.037C186.97 117.753 186.68 117.483 186.405 117.363C186.13 117.243 185.805 117.154 185.665 116.864C185.385 116.32 186.11 115.561 185.8 115.092C185.405 114.528 184.82 115.072 184.345 115.307Z" fill="#21386C"/>
<path d="M168.884 81.4639C168.83 81.4955 168.768 81.5126 168.704 81.5138C168.589 81.5138 168.509 81.399 168.459 81.2942C168.199 80.7302 168.349 79.9964 167.959 79.5222C167.553 80.011 167.226 80.56 166.989 81.1495L165.459 80.6753C165.388 80.971 165.377 81.2781 165.426 81.5782C165.476 81.8784 165.586 82.1655 165.749 82.4223C165.482 82.5451 165.238 82.714 165.029 82.9215C164.927 83.0261 164.855 83.157 164.823 83.2997C164.79 83.4424 164.798 83.5914 164.844 83.7301C165.196 83.8165 165.558 83.8534 165.919 83.8399C165.866 84.5076 165.904 85.1794 166.034 85.8365C166.039 85.8858 166.053 85.9338 166.076 85.9775C166.099 86.0212 166.131 86.0599 166.169 86.0911C166.279 86.166 166.424 86.0911 166.539 86.0312C167.068 85.7035 167.502 85.2442 167.799 84.6985L168.364 86.0562C168.409 86.1946 168.499 86.3142 168.619 86.3956C168.706 86.4238 168.799 86.423 168.885 86.3932C168.971 86.3635 169.044 86.3064 169.094 86.2309C169.189 86.0797 169.247 85.9089 169.264 85.7317L169.474 84.4389C169.48 84.3727 169.507 84.31 169.549 84.2592C169.58 84.2336 169.616 84.2147 169.655 84.2035C169.694 84.1923 169.734 84.1892 169.774 84.1943C170.314 84.1943 170.849 84.1943 171.389 84.1943C171.484 83.9048 171.199 83.6402 170.919 83.5205C170.639 83.4007 170.319 83.3058 170.179 83.0213C169.899 82.4772 170.624 81.7185 170.319 81.2493C169.944 80.7052 169.359 81.2293 168.884 81.4639Z" fill="#21386C"/>
<path opacity="0.2" d="M215.795 102.419C215.767 102.438 215.734 102.449 215.7 102.449C215.67 102.442 215.642 102.429 215.619 102.408C215.597 102.388 215.579 102.363 215.57 102.334C215.435 102.029 215.515 101.645 215.3 101.39C215.09 101.651 214.921 101.942 214.8 102.254L213.985 102.004C213.947 102.162 213.942 102.325 213.968 102.484C213.995 102.644 214.053 102.796 214.14 102.933C213.997 102.994 213.868 103.082 213.76 103.192C213.705 103.248 213.666 103.317 213.649 103.393C213.631 103.469 213.635 103.548 213.66 103.622C213.846 103.667 214.038 103.686 214.23 103.677C214.199 104.034 214.221 104.394 214.295 104.745C214.299 104.797 214.324 104.846 214.365 104.879C214.397 104.892 214.433 104.896 214.467 104.889C214.502 104.883 214.534 104.868 214.56 104.845C214.842 104.672 215.073 104.427 215.23 104.136L215.53 104.86C215.552 104.933 215.6 104.997 215.665 105.039C215.711 105.055 215.761 105.054 215.808 105.038C215.854 105.022 215.893 104.991 215.92 104.949C215.967 104.861 215.994 104.764 216 104.665L216.11 103.976C216.11 103.956 216.115 103.937 216.123 103.92C216.132 103.902 216.144 103.886 216.16 103.874C216.175 103.862 216.192 103.853 216.212 103.848C216.231 103.843 216.25 103.843 216.27 103.846C216.555 103.846 216.84 103.846 217.125 103.846C217.175 103.696 217.025 103.557 216.88 103.492C216.735 103.427 216.555 103.377 216.485 103.237C216.335 102.948 216.72 102.543 216.555 102.294C216.39 102.044 216.05 102.299 215.795 102.419Z" fill="#21386C"/>
<path opacity="0.2" d="M194.795 114.523C194.766 114.541 194.733 114.551 194.7 114.553C194.669 114.546 194.641 114.532 194.618 114.511C194.596 114.49 194.579 114.463 194.57 114.433C194.435 114.134 194.515 113.749 194.3 113.495C194.089 113.755 193.92 114.046 193.8 114.358L192.985 114.109C192.947 114.266 192.942 114.429 192.969 114.589C192.995 114.748 193.053 114.901 193.14 115.037C192.997 115.098 192.868 115.187 192.76 115.297C192.705 115.352 192.666 115.421 192.649 115.497C192.631 115.573 192.635 115.652 192.66 115.726C192.846 115.772 193.038 115.79 193.23 115.781C193.199 116.137 193.221 116.495 193.295 116.844C193.298 116.897 193.321 116.947 193.36 116.984C193.42 117.019 193.5 116.984 193.56 116.949C193.842 116.776 194.073 116.532 194.23 116.24L194.53 116.964C194.552 117.038 194.6 117.101 194.665 117.144C194.711 117.158 194.761 117.157 194.807 117.141C194.853 117.125 194.893 117.094 194.92 117.054C194.969 116.972 194.998 116.88 195.005 116.784L195.12 116.095C195.12 116.076 195.125 116.057 195.133 116.039C195.142 116.021 195.154 116.006 195.169 115.994C195.185 115.981 195.202 115.972 195.221 115.967C195.241 115.963 195.26 115.962 195.28 115.966C195.565 115.966 195.85 115.966 196.135 115.966C196.185 115.816 196.035 115.671 195.89 115.611C195.745 115.551 195.565 115.496 195.495 115.357C195.345 115.067 195.73 114.663 195.565 114.413C195.4 114.164 195.045 114.403 194.795 114.523Z" fill="#21386C"/>
<path opacity="0.5" d="M174.499 72.1596C174.47 72.1763 174.438 72.1865 174.404 72.1896C174.339 72.1896 174.299 72.1247 174.274 72.0698C174.134 71.7703 174.214 71.3809 173.999 71.1313C173.787 71.3908 173.619 71.6823 173.499 71.9949L172.649 71.7203C172.609 71.8771 172.602 72.0404 172.628 72.2C172.654 72.3597 172.712 72.5124 172.799 72.6488C172.658 72.7129 172.53 72.8007 172.419 72.9083C172.365 72.9639 172.327 73.0333 172.309 73.109C172.291 73.1847 172.295 73.2638 172.319 73.3376C172.507 73.3827 172.701 73.4028 172.894 73.3975C172.864 73.753 172.884 74.1109 172.954 74.4607C172.956 74.4868 172.963 74.5122 172.975 74.5354C172.987 74.5586 173.004 74.579 173.024 74.5955C173.084 74.6354 173.159 74.5955 173.219 74.5655C173.5 74.3916 173.731 74.1472 173.889 73.8567L174.189 74.5755C174.21 74.6502 174.258 74.7143 174.324 74.7552C174.37 74.7731 174.42 74.7744 174.467 74.7588C174.514 74.7433 174.553 74.712 174.579 74.6704C174.629 74.5866 174.66 74.4929 174.669 74.3958L174.779 73.712C174.782 73.6754 174.796 73.6406 174.819 73.6121C174.836 73.5995 174.855 73.5903 174.876 73.5851C174.897 73.58 174.918 73.579 174.939 73.5822C175.224 73.5822 175.509 73.5822 175.799 73.5822C175.844 73.4275 175.694 73.2877 175.549 73.2228C175.404 73.1579 175.229 73.113 175.154 72.9682C175.004 72.6787 175.389 72.2794 175.229 72.0298C175.069 71.7802 174.724 72.0348 174.499 72.1596Z" fill="#21386C"/>
<path opacity="0.5" d="M185.289 96.0343C185.258 96.0439 185.225 96.0439 185.194 96.0343C185.134 96.0343 185.089 95.9744 185.064 95.9195C184.924 95.62 185.004 95.2306 184.794 94.9761C184.582 95.237 184.413 95.5302 184.294 95.8446L183.484 95.59C183.446 95.7472 183.44 95.9105 183.466 96.0702C183.493 96.2298 183.552 96.3823 183.639 96.5185C183.496 96.5807 183.366 96.6687 183.254 96.778C183.2 96.8339 183.163 96.9033 183.145 96.9789C183.127 97.0545 183.131 97.1334 183.154 97.2073C183.343 97.2521 183.536 97.2723 183.729 97.2672C183.699 97.6227 183.719 97.9806 183.789 98.3304C183.794 98.3828 183.819 98.4312 183.859 98.4652C183.919 98.5051 183.999 98.4652 184.059 98.4352C184.339 98.2609 184.568 98.0166 184.724 97.7264L185.029 98.4452C185.05 98.5199 185.098 98.584 185.164 98.6249C185.21 98.6397 185.258 98.6394 185.304 98.6241C185.349 98.6088 185.388 98.5793 185.414 98.54C185.467 98.4573 185.497 98.363 185.504 98.2655L185.619 97.5817C185.62 97.5456 185.633 97.5107 185.654 97.4818C185.69 97.4577 185.732 97.4454 185.774 97.4469C186.059 97.4469 186.349 97.4469 186.634 97.4469C186.684 97.2922 186.529 97.1524 186.384 97.0875C186.239 97.0226 186.064 96.9777 185.989 96.8329C185.844 96.5434 186.229 96.1391 186.064 95.8895C185.899 95.64 185.539 95.9095 185.289 96.0343Z" fill="#21386C"/>
<path opacity="0.5" d="M177.44 86.725C177.411 86.7425 177.378 86.7528 177.345 86.755C177.314 86.7483 177.286 86.7338 177.263 86.7127C177.241 86.6916 177.224 86.6649 177.215 86.6352C177.075 86.3357 177.155 85.9464 176.945 85.6968C176.733 85.9559 176.564 86.2475 176.445 86.5603L175.635 86.3107C175.596 86.4679 175.59 86.6312 175.617 86.7908C175.644 86.9504 175.702 87.1029 175.79 87.2392C175.647 87.3014 175.516 87.3894 175.405 87.4987C175.351 87.5546 175.313 87.624 175.295 87.6996C175.278 87.7752 175.281 87.8541 175.305 87.928C175.493 87.974 175.686 87.9925 175.88 87.9829C175.85 88.3384 175.87 88.6963 175.94 89.0461C175.941 89.0729 175.948 89.0991 175.96 89.1231C175.973 89.1471 175.989 89.1685 176.01 89.1859C176.07 89.2208 176.15 89.1859 176.21 89.1509C176.491 88.9779 176.72 88.7333 176.875 88.4421L177.18 89.1659C177.202 89.2397 177.25 89.3033 177.315 89.3456C177.36 89.3608 177.41 89.3601 177.455 89.3439C177.501 89.3276 177.539 89.2965 177.565 89.2558C177.615 89.1723 177.646 89.0784 177.655 88.9812L177.77 88.2974C177.771 88.2628 177.783 88.2295 177.805 88.2025C177.839 88.1761 177.882 88.1636 177.925 88.1676C178.21 88.1676 178.5 88.1676 178.785 88.1676C178.835 88.0178 178.68 87.8731 178.535 87.8132C178.39 87.7533 178.215 87.6984 178.14 87.5586C177.99 87.2691 178.38 86.8648 178.215 86.6152C178.05 86.3656 177.69 86.6002 177.44 86.725Z" fill="#21386C"/>
<path opacity="0.5" d="M211.159 88.9164C211.13 88.9331 211.097 88.9433 211.064 88.9464C211.033 88.9408 211.005 88.9266 210.982 88.9054C210.959 88.8841 210.942 88.8568 210.934 88.8266C210.794 88.5271 210.874 88.1428 210.659 87.8882C210.448 88.1484 210.28 88.4397 210.159 88.7517L209.349 88.5021C209.31 88.659 209.303 88.8221 209.329 88.9817C209.355 89.1412 209.413 89.2939 209.499 89.4306C209.357 89.493 209.229 89.581 209.119 89.6901C209.064 89.7454 209.026 89.8148 209.008 89.8906C208.99 89.9664 208.994 90.0456 209.019 90.1194C209.207 90.1654 209.401 90.1839 209.594 90.1743C209.564 90.5298 209.584 90.8877 209.654 91.2375C209.656 91.2643 209.663 91.2905 209.675 91.3145C209.687 91.3385 209.704 91.3599 209.724 91.3773C209.784 91.4122 209.859 91.3773 209.919 91.3423C210.201 91.1697 210.433 90.925 210.589 90.6335L210.889 91.3573C210.912 91.4312 210.959 91.4947 211.024 91.537C211.07 91.5525 211.121 91.5521 211.167 91.5358C211.213 91.5195 211.253 91.4883 211.279 91.4472C211.33 91.3637 211.36 91.2698 211.369 91.1726L211.479 90.4888C211.479 90.4692 211.484 90.4499 211.493 90.4323C211.501 90.4147 211.514 90.3992 211.529 90.3868C211.544 90.3745 211.562 90.3656 211.581 90.3608C211.6 90.356 211.62 90.3554 211.639 90.359C211.924 90.359 212.209 90.359 212.499 90.359C212.544 90.2093 212.394 90.0645 212.249 90.0046C212.104 89.9447 211.929 89.8898 211.854 89.75C211.704 89.4605 212.089 89.0562 211.929 88.8066C211.769 88.5571 211.409 88.7917 211.159 88.9164Z" fill="#21386C"/>
<path opacity="0.2" d="M194.795 87.0844C194.767 87.1039 194.734 87.1144 194.7 87.1144C194.67 87.1082 194.642 87.0943 194.619 87.0742C194.597 87.054 194.579 87.0283 194.57 86.9996C194.435 86.7001 194.515 86.3107 194.3 86.0562C194.09 86.317 193.921 86.6082 193.8 86.9197L192.985 86.6701C192.947 86.8274 192.942 86.9905 192.968 87.15C192.995 87.3094 193.053 87.4619 193.14 87.5985C192.997 87.6597 192.868 87.7478 192.76 87.8581C192.705 87.9133 192.666 87.9827 192.649 88.0586C192.631 88.1344 192.635 88.2136 192.66 88.2874C192.846 88.3329 193.038 88.3514 193.23 88.3423C193.199 88.6996 193.221 89.0595 193.295 89.4105C193.299 89.4617 193.322 89.5096 193.36 89.5453C193.393 89.5578 193.429 89.5611 193.464 89.555C193.5 89.5489 193.532 89.5334 193.56 89.5103C193.842 89.3376 194.073 89.093 194.23 88.8015L194.53 89.5253C194.552 89.5991 194.6 89.6627 194.665 89.705C194.711 89.7196 194.761 89.7188 194.807 89.7026C194.853 89.6864 194.893 89.6557 194.92 89.6151C194.969 89.5331 194.998 89.4408 195.005 89.3456L195.12 88.6567C195.12 88.6372 195.125 88.6179 195.133 88.6003C195.142 88.5827 195.154 88.5672 195.169 88.5548C195.185 88.5425 195.202 88.5336 195.221 88.5288C195.241 88.5239 195.26 88.5233 195.28 88.527C195.565 88.527 195.85 88.527 196.135 88.527C196.185 88.3772 196.035 88.2375 195.89 88.1726C195.745 88.1077 195.565 88.0578 195.495 87.918C195.345 87.6285 195.73 87.2242 195.565 86.9746C195.4 86.725 195.045 86.9646 194.795 87.0844Z" fill="#21386C"/>
<path opacity="0.3" d="M189.665 89.3156C189.634 89.3324 189.6 89.3426 189.565 89.3456C189.505 89.3456 189.465 89.2807 189.435 89.2258C189.3 88.9263 189.38 88.5369 189.165 88.2874C188.954 88.5475 188.786 88.8389 188.665 89.1509L187.85 88.9013C187.813 89.0586 187.807 89.2217 187.834 89.3811C187.861 89.5405 187.919 89.693 188.005 89.8297C187.862 89.8903 187.733 89.9785 187.625 90.0893C187.57 90.1445 187.532 90.2139 187.514 90.2898C187.496 90.3656 187.5 90.4448 187.525 90.5186C187.711 90.5641 187.903 90.5826 188.095 90.5735C188.067 90.9292 188.088 91.2871 188.16 91.6367C188.161 91.6629 188.168 91.6885 188.18 91.7118C188.192 91.7351 188.209 91.7555 188.23 91.7715C188.29 91.8114 188.365 91.7715 188.425 91.7415C188.706 91.5675 188.937 91.3232 189.095 91.0327L189.395 91.7515C189.416 91.8274 189.464 91.893 189.53 91.9362C189.576 91.9517 189.627 91.9513 189.673 91.935C189.719 91.9187 189.758 91.8875 189.785 91.8463C189.833 91.7616 189.863 91.6683 189.875 91.5718L189.985 90.888C189.985 90.8684 189.99 90.8491 189.999 90.8315C190.007 90.8139 190.02 90.7984 190.035 90.786C190.05 90.7737 190.068 90.7648 190.087 90.76C190.106 90.7551 190.126 90.7545 190.145 90.7582C190.43 90.7582 190.715 90.7582 191.005 90.7582C191.05 90.6084 190.9 90.4637 190.755 90.3988C190.61 90.3339 190.435 90.289 190.36 90.1492C190.21 89.8547 190.595 89.4554 190.43 89.2058C190.265 88.9562 189.915 89.1908 189.665 89.3156Z" fill="#21386C"/>
<path opacity="0.2" d="M184.875 75.8235C184.846 75.8416 184.813 75.8503 184.78 75.8485C184.72 75.8485 184.675 75.7886 184.65 75.7337C184.515 75.4342 184.595 75.0449 184.38 74.7903C184.17 75.0511 184.002 75.3423 183.88 75.6538L183.065 75.4043C183.027 75.5615 183.022 75.7246 183.048 75.8841C183.075 76.0435 183.133 76.196 183.22 76.3327C183.077 76.3938 182.948 76.4819 182.84 76.5922C182.785 76.6475 182.746 76.7169 182.729 76.7927C182.711 76.8685 182.715 76.9477 182.74 77.0215C182.926 77.0663 183.118 77.0865 183.31 77.0814C183.279 77.4371 183.301 77.7953 183.375 78.1446C183.38 78.1959 183.403 78.2437 183.44 78.2794C183.5 78.3193 183.58 78.2794 183.64 78.2444C183.922 78.0737 184.153 77.8307 184.31 77.5406L184.61 78.2594C184.632 78.3333 184.68 78.3969 184.745 78.4391C184.791 78.4535 184.84 78.453 184.886 78.4377C184.932 78.4225 184.972 78.3933 185 78.3543C185.048 78.2702 185.077 78.1764 185.085 78.0797L185.2 77.3959C185.203 77.3593 185.217 77.3245 185.24 77.296C185.275 77.2712 185.317 77.2589 185.36 77.2611C185.645 77.2611 185.93 77.2611 186.215 77.2611C186.265 77.1064 186.115 76.9666 185.97 76.9017C185.825 76.8368 185.645 76.7869 185.575 76.6471C185.425 76.3576 185.81 75.9533 185.645 75.7037C185.48 75.4542 185.125 75.7137 184.875 75.8235Z" fill="#21386C"/>
<path opacity="0.3" d="M194.305 93.4336C194.285 93.4474 194.262 93.456 194.238 93.4587C194.214 93.4614 194.19 93.4582 194.168 93.4493C194.145 93.4404 194.126 93.4261 194.11 93.4077C194.095 93.3893 194.084 93.3673 194.08 93.3438C193.94 93.0443 194.02 92.655 193.805 92.4004C193.595 92.6612 193.426 92.9524 193.305 93.2639L192.495 93.0144C192.456 93.1713 192.45 93.3343 192.475 93.4937C192.501 93.6532 192.559 93.8059 192.645 93.9428C192.504 94.0063 192.375 94.0942 192.265 94.2023C192.21 94.2576 192.171 94.327 192.153 94.4028C192.136 94.4786 192.14 94.5578 192.165 94.6316C192.353 94.6776 192.546 94.6961 192.74 94.6865C192.709 95.0436 192.729 95.4032 192.8 95.7547C192.804 95.8071 192.829 95.8555 192.87 95.8895C192.902 95.9021 192.938 95.9056 192.972 95.8994C193.006 95.8932 193.038 95.8777 193.065 95.8546C193.346 95.6823 193.577 95.4397 193.735 95.1507L194.035 95.8695C194.057 95.9434 194.105 96.007 194.17 96.0492C194.216 96.0647 194.266 96.0643 194.313 96.048C194.359 96.0318 194.398 96.0006 194.425 95.9594C194.471 95.8734 194.497 95.7776 194.5 95.6798L194.61 94.991C194.615 94.9565 194.628 94.9239 194.65 94.8962C194.683 94.8693 194.727 94.8567 194.77 94.8612C195.055 94.8612 195.345 94.8612 195.63 94.8612C195.68 94.7115 195.525 94.5717 195.38 94.5068C195.235 94.4419 195.06 94.392 194.985 94.2523C194.835 93.9628 195.225 93.5584 195.06 93.3089C194.895 93.0593 194.555 93.3089 194.305 93.4336Z" fill="#21386C"/>
</g>
<g opacity="0.6">
<path opacity="0.5" d="M15.0843 38.5468C14.979 38.4165 14.8278 38.3313 14.6617 38.3086C14.4955 38.2858 14.327 38.3274 14.1905 38.4246C14.054 38.5219 13.9599 38.6676 13.9275 38.8318C13.895 38.996 13.9266 39.1665 14.0159 39.3082C14.1375 39.492 14.2723 39.6692 14.4005 39.8398C15.9423 41.9205 16.7411 44.4343 17.4314 46.9416C17.5991 47.5553 17.7602 48.2083 17.5695 48.8155C17.8076 47.1807 17.6956 45.514 17.2408 43.9256C16.7893 42.3423 16.2099 40.7981 15.5083 39.3082C15.3945 39.04 15.2524 38.7848 15.0843 38.5468V38.5468Z" fill="#21386C"/>
<path d="M5.07015 42.9214C4.02807 42.8886 3.89658 44.4638 4.93208 44.5459C5.20493 44.5689 5.47777 44.5754 5.74075 44.582C8.92945 44.6673 11.9407 45.8225 14.8368 47.063C15.5501 47.3682 16.2963 47.7194 16.7105 48.3757C15.3654 46.8896 13.7088 45.7176 11.8585 44.943C10.0048 44.1683 8.08919 43.5502 6.13194 43.0953C5.78548 42.9986 5.42941 42.9403 5.07015 42.9214V42.9214Z" fill="#21386C"/>
<path opacity="0.2" d="M5.3603 46.7939C4.70283 46.8168 4.85075 47.7522 5.51479 47.7554C5.68573 47.7554 5.84354 47.7554 6.02434 47.7554C8.03618 47.6734 10.094 48.228 12.0927 48.8384C12.5978 48.9493 13.067 49.1852 13.457 49.5243C12.3961 48.7066 11.1938 48.0904 9.90994 47.7062C8.64837 47.3263 7.36071 47.039 6.05721 46.8464C5.82707 46.8071 5.59374 46.7895 5.3603 46.7939V46.7939Z" fill="#21386C"/>
<path opacity="0.5" d="M18.8113 64.1315C18.9986 64.7616 19.8665 64.3875 19.7087 63.7442C19.666 63.5769 19.6166 63.4161 19.5673 63.2552C18.9921 61.3288 19.0183 59.2023 19.1137 57.1183C19.0976 56.6022 19.2105 56.0901 19.4424 55.6284C18.9099 56.8562 18.6069 58.1708 18.5483 59.5075C18.4979 60.8217 18.5429 62.1379 18.683 63.4456C18.7043 63.6777 18.7472 63.9073 18.8113 64.1315V64.1315Z" fill="#21386C"/>
<path opacity="0.2" d="M6.56009 37.6705C6.16232 37.6016 6.13273 38.1792 6.5272 38.2645L6.83292 38.3236C8.04594 38.5303 9.20308 39.121 10.3208 39.738C10.6076 39.8682 10.8574 40.0678 11.0473 40.3189C10.5179 39.6967 9.87828 39.1771 9.16035 38.7863C8.45307 38.4058 7.71919 38.0767 6.96442 37.8018C6.83366 37.7465 6.69839 37.7026 6.56009 37.6705Z" fill="#21386C"/>
<path d="M0.44866 52.9209C-0.553973 53.4362 0.29415 54.8539 1.32637 54.3846C1.59593 54.2599 1.85892 54.1221 2.10875 53.9941C5.17911 52.4024 8.74258 51.8182 12.2469 51.3686C13.1081 51.2571 14.0253 51.1619 14.8208 51.4999C12.6305 50.9325 10.3505 50.7966 8.10811 51.0995C5.89146 51.4013 3.70119 51.872 1.55649 52.5074C1.17415 52.6075 0.802971 52.746 0.44866 52.9209Z" fill="#21386C"/>
<path opacity="0.5" d="M3.31834 58.4343C2.59513 59.0906 3.72269 59.8979 4.47877 59.2547C4.67601 59.0841 4.86666 58.9068 5.04418 58.7395C7.2434 56.6785 10.1494 55.2116 13.0422 53.8595C13.7523 53.5313 16.6583 53.2031 17.4571 53.2031C15.419 53.3869 11.2539 54.0203 9.40317 54.844C7.58523 55.709 5.82798 56.6958 4.14346 57.7976C3.84914 57.9837 3.5729 58.1968 3.31834 58.4343Z" fill="#21386C"/>
<path d="M8.46318 67.2329C8.25279 68.1945 9.63018 68.2174 9.88659 67.2329C9.95234 66.9835 10.0082 66.7308 10.0608 66.4879C10.6953 63.5343 12.2502 60.6891 13.861 57.9356C14.2554 57.2596 16.4678 55.3102 17.122 54.8967C15.5473 56.2094 12.4836 59.0875 11.4415 60.8269C10.4444 62.5665 9.56576 64.3712 8.81163 66.2287C8.66524 66.5522 8.54861 66.8883 8.46318 67.2329Z" fill="#21386C"/>
<path d="M18.8255 33.4535C18.3324 32.4525 16.9287 33.2763 17.3757 34.3035C17.4908 34.5693 17.6223 34.8318 17.7472 35.0845C19.2594 38.1399 19.7821 41.6743 20.17 45.1497C20.2653 45.9997 20.3475 46.9087 19.999 47.6931C20.5918 45.5339 20.7615 43.2808 20.4987 41.0574C20.2358 38.8601 19.8072 36.6858 19.2166 34.5529C19.1233 34.1743 18.9922 33.806 18.8255 33.4535V33.4535Z" fill="#21386C"/>
<path d="M10.9883 35.1568C11.0128 35.1724 11.0414 35.1804 11.0705 35.1798C11.0973 35.1753 11.1223 35.1634 11.1427 35.1455C11.163 35.1275 11.1778 35.1041 11.1855 35.0781C11.3104 34.809 11.2381 34.4644 11.4288 34.2412C11.6202 34.4719 11.7743 34.731 11.8857 35.0091L12.6089 34.786C12.6424 34.9255 12.6475 35.0703 12.6237 35.2119C12.6 35.3534 12.548 35.4887 12.4709 35.6097C12.5934 35.6659 12.7048 35.7437 12.7996 35.8394C12.8472 35.8891 12.8804 35.9508 12.8954 36.0179C12.9105 36.085 12.9069 36.1549 12.8851 36.2201C12.7187 36.2624 12.547 36.2801 12.3755 36.2726C12.4038 36.5886 12.3861 36.9069 12.3229 37.2178C12.3185 37.2648 12.2961 37.3082 12.2605 37.3392C12.2315 37.3506 12.1999 37.3539 12.1692 37.3487C12.1385 37.3435 12.1098 37.33 12.0863 37.3097C11.8364 37.1563 11.6312 36.9402 11.4912 36.6828L11.225 37.3195C11.2051 37.386 11.1619 37.443 11.1033 37.4803C11.063 37.4946 11.019 37.4949 10.9785 37.4812C10.9379 37.4676 10.9032 37.4406 10.8798 37.4048C10.836 37.3306 10.809 37.2477 10.8009 37.162L10.699 36.5516C10.6981 36.5202 10.6865 36.4901 10.6661 36.4663C10.6361 36.4434 10.5985 36.4328 10.5609 36.4367C10.3045 36.4367 10.0514 36.4367 9.79827 36.4367C9.75225 36.3022 9.88702 36.1775 10.0185 36.1085C10.15 36.0396 10.3012 36.0068 10.367 35.8821C10.5018 35.6228 10.1566 35.2651 10.3045 35.0452C10.4524 34.8254 10.7746 35.0452 10.9883 35.1568Z" fill="#21386C"/>
<path opacity="0.5" d="M24.9135 38.5469C25.0147 38.405 25.1681 38.309 25.3401 38.2801C25.5121 38.2512 25.6886 38.2917 25.8307 38.3926C25.9728 38.4936 26.0689 38.6468 26.0979 38.8185C26.1269 38.9902 26.0864 39.1664 25.9852 39.3082C25.8603 39.492 25.7288 39.6692 25.6006 39.8399C24.0589 41.9205 23.2567 44.4344 22.5697 46.9416C22.3987 47.5553 22.241 48.2084 22.4283 48.8155C22.1903 47.1807 22.3023 45.5141 22.7571 43.9257C23.2071 42.3418 23.7865 40.7975 24.4895 39.3082C24.6032 39.04 24.7453 38.7848 24.9135 38.5469V38.5469Z" fill="#21386C"/>
<path d="M34.9256 42.9214C35.9644 42.8886 36.0991 44.4638 35.0603 44.5459C34.7908 44.5689 34.5147 44.5754 34.255 44.582C31.0663 44.6673 28.0518 45.8225 25.1556 47.063C24.4456 47.3682 23.6994 47.7194 23.2852 48.3757C24.6303 46.8896 26.287 45.7176 28.1372 44.943C29.99 44.1687 31.9044 43.5507 33.8605 43.0953C34.2081 42.9989 34.5653 42.9405 34.9256 42.9214V42.9214Z" fill="#21386C"/>
<path opacity="0.5" d="M34.6562 46.7939C35.3137 46.8169 35.1625 47.7522 34.5017 47.7555C34.3275 47.7555 34.1566 47.7555 33.9922 47.7555C31.9804 47.6735 29.9225 48.2281 27.9238 48.8385C27.4185 48.9487 26.9492 49.1847 26.5596 49.5244C27.62 48.706 28.8224 48.0897 30.1066 47.7063C31.3706 47.3305 32.6605 47.0475 33.9659 46.8596C34.1935 46.8163 34.4246 46.7943 34.6562 46.7939V46.7939Z" fill="#21386C"/>
<path opacity="0.2" d="M33.4403 37.6705C33.8381 37.6016 33.8677 38.1792 33.4732 38.2645L33.1642 38.3236C31.9544 38.5303 30.794 39.121 29.6796 39.738C29.3927 39.8682 29.143 40.0678 28.9531 40.3189C29.4813 39.6968 30.1198 39.1772 30.8368 38.7863C31.5455 38.4064 32.2804 38.0773 33.036 37.8018C33.1666 37.7461 33.3019 37.7022 33.4403 37.6705V37.6705Z" fill="#21386C"/>
<path opacity="0.2" d="M23.1502 65.3261C23.0615 65.7166 22.5191 65.523 22.5914 65.1259C22.5914 65.0209 22.6341 64.9191 22.6571 64.8207C22.9333 63.6261 22.8314 62.3298 22.6933 61.0631C22.6822 60.7486 22.593 60.4419 22.4336 60.1704C22.8053 60.8969 23.0393 61.6858 23.1239 62.4972C23.2065 63.2973 23.2318 64.1023 23.1995 64.906C23.1977 65.0474 23.1812 65.1881 23.1502 65.3261V65.3261Z" fill="#21386C"/>
<path opacity="0.5" d="M33.1868 62.7269C33.4958 63.2487 32.7364 63.2126 32.4044 62.6908C32.3157 62.5529 32.2368 62.4151 32.1579 62.2838C31.2177 60.6856 29.7844 59.1038 28.3413 57.5778C28.0007 57.1811 27.603 56.8371 27.1611 56.5571C28.2872 57.3244 29.3266 58.2112 30.2611 59.2022C31.1881 60.1868 32.0034 61.1713 32.8055 62.1821C32.9447 62.3549 33.0721 62.5369 33.1868 62.7269V62.7269Z" fill="#21386C"/>
<path opacity="0.2" d="M5.69155 62.7269C5.38254 63.2487 6.14192 63.2126 6.47723 62.6908C6.5627 62.5529 6.64488 62.4151 6.72048 62.2838C7.66066 60.6856 9.09393 59.1038 10.5371 57.5778C10.8788 57.181 11.2776 56.837 11.7205 56.5571C10.5934 57.3243 9.5529 58.2112 8.61726 59.2022C7.69352 60.1868 6.87498 61.1713 6.07287 62.1821C5.93361 62.3549 5.80622 62.5369 5.69155 62.7269Z" fill="#21386C"/>
<path opacity="0.2" d="M15.7481 65.3261C15.8368 65.7166 16.3792 65.523 16.3102 65.1259C16.2905 65.0209 16.2675 64.9191 16.2445 64.8207C15.9683 63.6261 16.0669 62.3298 16.2083 61.0631C16.2167 60.7486 16.3049 60.4415 16.4647 60.1704C16.093 60.8969 15.859 61.6858 15.7744 62.4972C15.6912 63.2973 15.6671 64.1024 15.7021 64.906C15.7044 65.0471 15.7198 65.1878 15.7481 65.3261Z" fill="#21386C"/>
<path opacity="0.2" d="M30.2747 41.5987C30.6691 41.5298 30.6987 42.1041 30.3042 42.1927C30.2023 42.2157 30.0971 42.2321 29.9985 42.2485C28.7855 42.4553 27.6284 43.046 26.5107 43.6663C26.2244 43.7973 25.9749 43.9969 25.7842 44.2471C26.3134 43.6239 26.953 43.1033 27.6711 42.7113C28.3783 42.3307 29.1122 42.0016 29.867 41.7267C29.9983 41.6707 30.1349 41.6278 30.2747 41.5987V41.5987Z" fill="#21386C"/>
<path opacity="0.2" d="M26.5762 33.89C26.9049 33.6767 27.1613 34.1985 26.8293 34.4282L26.5663 34.5956C25.521 35.2519 24.6663 36.2201 23.8609 37.221C23.6429 37.4494 23.4868 37.7295 23.4072 38.0349C23.6643 37.2591 24.0621 36.5372 24.5808 35.905C25.0925 35.2849 25.6484 34.7025 26.2442 34.1624C26.3452 34.0605 26.4565 33.9692 26.5762 33.89V33.89Z" fill="#21386C"/>
<path d="M39.5519 52.9209C40.5545 53.4361 39.7064 54.8538 38.6741 54.3845C38.4046 54.2598 38.1416 54.122 37.8885 53.994C34.8214 52.4024 31.2579 51.8182 27.7537 51.3686C26.8924 51.257 25.9752 51.1618 25.1797 51.4999C27.3689 50.9329 29.6478 50.7969 31.8891 51.0995C34.1069 51.4009 36.2983 51.8716 38.444 52.5074C38.826 52.6085 39.1971 52.747 39.5519 52.9209Z" fill="#21386C"/>
<path opacity="0.5" d="M36.6817 58.4343C37.4049 59.0906 36.2774 59.8979 35.5213 59.2547C35.3241 59.0841 35.1334 58.9068 34.9526 58.7395C32.7534 56.6785 29.8507 55.2116 26.9545 53.8595C26.2478 53.5313 23.3221 53.2031 22.543 53.2031C24.5811 53.3869 28.7429 54.0203 30.5936 54.844C32.4119 55.7084 34.1692 56.6952 35.8533 57.7976C36.1488 57.9835 36.4261 58.1967 36.6817 58.4343V58.4343Z" fill="#21386C"/>
<path d="M28.1801 68.3256C28.2689 69.3102 26.8981 69.1494 26.7666 68.1648C26.7337 67.9056 26.7107 67.6496 26.6877 67.4035C26.428 64.4039 25.2412 61.3749 23.9888 58.441C23.6831 57.7222 21.7304 55.5235 21.1387 55.0181C22.5358 56.5113 25.2117 59.7569 26.0302 61.6144C26.8059 63.4645 27.4561 65.3645 27.9763 67.3017C28.0763 67.6359 28.1446 67.9787 28.1801 68.3256V68.3256Z" fill="#21386C"/>
<path d="M29.0027 35.1568C28.977 35.1725 28.9474 35.1804 28.9173 35.1798C28.8909 35.1743 28.8664 35.1621 28.8462 35.1442C28.826 35.1264 28.8108 35.1036 28.8022 35.0781C28.6806 34.809 28.7496 34.4644 28.5622 34.2412C28.3698 34.4718 28.2146 34.7309 28.102 35.0091L27.3821 34.786C27.3476 34.9254 27.3421 35.0704 27.3659 35.2121C27.3896 35.3537 27.4421 35.4891 27.5201 35.6097C27.3976 35.6659 27.2862 35.7437 27.1914 35.8394C27.1432 35.8888 27.1095 35.9503 27.0938 36.0174C27.0782 36.0845 27.0812 36.1546 27.1027 36.2201C27.2691 36.262 27.4407 36.2797 27.6122 36.2726C27.5864 36.5887 27.6052 36.9069 27.6681 37.2178C27.6725 37.2648 27.6949 37.3082 27.7305 37.3392C27.7595 37.3506 27.7911 37.3539 27.8218 37.3487C27.8525 37.3435 27.8812 37.33 27.9048 37.3097C28.1546 37.1563 28.3598 36.9402 28.4998 36.6828L28.7661 37.3195C28.7859 37.3851 28.8276 37.4418 28.8844 37.4803C28.9252 37.4948 28.9697 37.4953 29.0108 37.4816C29.0519 37.4679 29.0873 37.4409 29.1112 37.4048C29.155 37.3306 29.182 37.2477 29.1901 37.162L29.292 36.5516C29.2929 36.5202 29.3045 36.4901 29.3249 36.4663C29.3549 36.4434 29.3925 36.4328 29.4301 36.4367C29.6832 36.4367 29.9396 36.4367 30.1927 36.4367C30.2388 36.3022 30.1007 36.1775 29.9725 36.1085C29.8443 36.0396 29.6865 36.0068 29.6207 35.8821C29.4893 35.6228 29.8344 35.2651 29.6865 35.0452C29.5386 34.8254 29.2263 35.0452 29.0027 35.1568Z" fill="#21386C"/>
<path opacity="0.2" d="M31.1784 64.8011C31.1522 64.8162 31.123 64.8251 31.0929 64.8274C31.037 64.8274 31.0008 64.7716 30.9778 64.7223C30.8562 64.4565 30.9252 64.1087 30.7379 63.8855C30.5443 64.1153 30.389 64.3745 30.2776 64.6534L29.5577 64.4303C29.5235 64.5696 29.5179 64.7143 29.541 64.8558C29.5642 64.9974 29.6157 65.1328 29.6925 65.254C29.5694 65.3107 29.4579 65.3897 29.3638 65.487C29.3153 65.5361 29.2813 65.5977 29.2656 65.6649C29.2499 65.732 29.2532 65.8022 29.275 65.8677C29.4419 65.9069 29.6132 65.9235 29.7845 65.9169C29.7576 66.2329 29.7753 66.551 29.8371 66.8621C29.8416 66.909 29.8639 66.9525 29.8996 66.9835C29.9522 67.0163 30.0212 66.9835 30.0771 66.954C30.3259 66.8004 30.53 66.5842 30.6688 66.3271L30.9384 66.9638C30.956 67.0304 30.9983 67.0879 31.0567 67.1246C31.0971 67.1389 31.1411 67.1392 31.1816 67.1255C31.2222 67.1118 31.2569 67.0849 31.2803 67.0491C31.3255 66.9753 31.3536 66.8923 31.3624 66.8063L31.4611 66.1959C31.4651 66.1652 31.4763 66.136 31.4939 66.1105C31.525 66.0871 31.5638 66.0766 31.6024 66.081C31.8556 66.081 32.112 66.081 32.3651 66.081C32.4078 65.9465 32.273 65.8217 32.1448 65.7528C32.0166 65.6839 31.8588 65.6511 31.7931 65.5264C31.6616 65.2671 32.0035 64.9127 31.8588 64.6895C31.7142 64.4664 31.4019 64.6895 31.1784 64.8011Z" fill="#21386C"/>
<path d="M37.2858 44.93C37.2595 44.9447 37.2303 44.9536 37.2003 44.9563C37.1444 44.9563 37.1083 44.9005 37.0853 44.8513C36.9603 44.5854 37.0327 44.2376 36.842 44.0144C36.6506 44.2451 36.4965 44.5042 36.3851 44.7823L35.6618 44.5592C35.6283 44.6987 35.6233 44.8435 35.647 44.985C35.6707 45.1266 35.7227 45.2619 35.7999 45.3829C35.6764 45.4388 35.5648 45.5179 35.4712 45.6159C35.4227 45.665 35.3887 45.7266 35.373 45.7938C35.3574 45.8609 35.3606 45.9311 35.3824 45.9966C35.5492 46.036 35.7207 46.0526 35.892 46.0458C35.865 46.3618 35.8827 46.6799 35.9445 46.991C35.949 47.038 35.9713 47.0814 36.007 47.1124C36.036 47.1238 36.0675 47.1271 36.0982 47.1219C36.1289 47.1166 36.1577 47.1032 36.1812 47.0829C36.4311 46.9295 36.6362 46.7133 36.7762 46.456L37.0458 47.0927C37.0635 47.1593 37.1057 47.2168 37.1641 47.2535C37.2045 47.2678 37.2485 47.2681 37.289 47.2544C37.3296 47.2407 37.3643 47.2138 37.3877 47.178C37.4333 47.1047 37.4604 47.0213 37.4666 46.9352L37.5685 46.3248C37.5694 46.2934 37.581 46.2633 37.6014 46.2394C37.6314 46.2166 37.669 46.206 37.7066 46.2099C37.963 46.2099 38.2161 46.2099 38.4725 46.2099C38.5152 46.0754 38.3805 45.9506 38.249 45.8817C38.1175 45.8128 37.9662 45.78 37.9005 45.6553C37.7657 45.396 38.1109 45.0383 37.9663 44.8184C37.8216 44.5986 37.5093 44.8184 37.2858 44.93Z" fill="#21386C"/>
<path d="M12.859 67.7742C12.8232 67.7959 12.7826 67.8083 12.7407 67.8103C12.6651 67.8103 12.6125 67.7315 12.5796 67.6626C12.4087 67.2918 12.5073 66.8126 12.2509 66.4976C11.9839 66.8189 11.7687 67.1799 11.6132 67.5674L10.6072 67.2589C10.5602 67.4534 10.5528 67.6553 10.5855 67.8526C10.6183 68.0499 10.6905 68.2387 10.7979 68.4076C10.6205 68.4856 10.4598 68.5971 10.3245 68.7357C10.2571 68.8039 10.2098 68.8892 10.1878 68.9824C10.1658 69.0756 10.1698 69.1731 10.1996 69.2641C10.4315 69.3223 10.6707 69.3466 10.9097 69.3363C10.8741 69.7752 10.8996 70.217 10.9853 70.649C10.988 70.6819 10.9973 70.7139 11.0125 70.7432C11.0277 70.7725 11.0487 70.7985 11.074 70.8197C11.1463 70.8656 11.2417 70.8197 11.3173 70.777C11.6639 70.5618 11.9492 70.2612 12.1457 69.904L12.5172 70.7934C12.5436 70.8858 12.6033 70.9653 12.6848 71.0166C12.7435 71.0406 12.8089 71.0429 12.8692 71.023C12.9295 71.0032 12.9807 70.9625 13.0135 70.9083C13.0759 70.8091 13.1142 70.6967 13.1253 70.5801L13.2634 69.7334C13.2629 69.7088 13.2679 69.6844 13.2782 69.662C13.2884 69.6396 13.3035 69.6198 13.3225 69.604C13.3414 69.5882 13.3637 69.577 13.3876 69.5709C13.4115 69.5649 13.4365 69.5644 13.4606 69.5693C13.8157 69.5693 14.1674 69.5693 14.5224 69.5693C14.5849 69.3822 14.3942 69.205 14.2134 69.1263C14.0326 69.0475 13.8189 68.9884 13.7269 68.7981C13.5428 68.4404 14.0195 67.9415 13.8156 67.6331C13.5559 67.2622 13.1713 67.6199 12.859 67.7742Z" fill="#21386C"/>
<path d="M2.69431 45.5239C2.65827 45.5447 2.61754 45.5559 2.57595 45.5567C2.50034 45.5567 2.44775 45.4813 2.41488 45.4123C2.24394 45.0415 2.34256 44.5591 2.08615 44.2473C1.81916 44.5687 1.604 44.9296 1.4484 45.3172L0.442485 45.0054C0.395404 45.1998 0.388019 45.4017 0.420776 45.5991C0.453533 45.7964 0.525768 45.9851 0.633156 46.154C0.457235 46.2347 0.29698 46.3458 0.15978 46.4822C0.0923661 46.551 0.0453313 46.6371 0.0238655 46.7309C0.00239962 46.8247 0.00734075 46.9226 0.0381512 47.0138C0.26923 47.0706 0.507125 47.0949 0.744933 47.086C0.709505 47.525 0.734941 47.9667 0.820535 48.3988C0.823346 48.4312 0.832656 48.4627 0.847903 48.4914C0.86315 48.5202 0.88403 48.5456 0.909299 48.5661C0.98162 48.6153 1.07695 48.5661 1.15256 48.5267C1.50009 48.3113 1.78555 48.0093 1.98095 47.6505L2.35242 48.5432C2.38168 48.6342 2.44072 48.7128 2.52007 48.7663C2.57683 48.7849 2.63812 48.7843 2.69453 48.7648C2.75095 48.7452 2.79936 48.7077 2.83237 48.658C2.8943 48.5586 2.93255 48.4463 2.94415 48.3298L3.08221 47.4799C3.08615 47.4364 3.10335 47.3951 3.13151 47.3617C3.15195 47.3449 3.17561 47.3324 3.20105 47.3251C3.2265 47.3178 3.25318 47.3157 3.27944 47.3191C3.63448 47.3191 3.98623 47.3191 4.34126 47.3191C4.40372 47.1287 4.21634 46.9548 4.03225 46.876C3.84816 46.7972 3.63776 46.7349 3.54572 46.5478C3.36163 46.1901 3.8383 45.6913 3.63777 45.3828C3.39122 45.0251 3.00661 45.3697 2.69431 45.5239Z" fill="#21386C"/>
<path opacity="0.2" d="M33.5353 59.3008C33.517 59.3136 33.4952 59.3205 33.4729 59.3205C33.4533 59.3164 33.4351 59.3073 33.4201 59.2941C33.4051 59.2808 33.3938 59.2639 33.3874 59.245C33.2986 59.0448 33.3512 58.7921 33.2099 58.6248C33.0721 58.7963 32.9612 58.9877 32.8811 59.1925L32.3453 59.0284C32.3207 59.1318 32.317 59.2391 32.3345 59.3439C32.352 59.4487 32.3904 59.549 32.4472 59.6388C32.3536 59.679 32.2688 59.737 32.1974 59.8095C32.1613 59.8458 32.136 59.8914 32.1244 59.9413C32.1128 59.9911 32.1153 60.0432 32.1316 60.0917C32.2542 60.1216 32.3804 60.1338 32.5064 60.1278C32.4862 60.3627 32.5006 60.5993 32.5491 60.8301C32.5522 60.8645 32.5687 60.8964 32.5951 60.9187C32.6166 60.927 32.6399 60.9293 32.6625 60.9252C32.6851 60.9212 32.7062 60.911 32.7233 60.8957C32.909 60.7822 33.0611 60.6214 33.1639 60.4297L33.3611 60.9056C33.3759 60.9541 33.4073 60.9959 33.4498 61.0237C33.4804 61.0339 33.5135 61.0336 33.5438 61.0229C33.5742 61.0122 33.6001 60.9917 33.6175 60.9647C33.6484 60.9068 33.6663 60.843 33.6701 60.7776L33.7424 60.3247C33.7427 60.3118 33.7457 60.2992 33.7514 60.2876C33.7571 60.276 33.7652 60.2658 33.7752 60.2577C33.7852 60.2496 33.7969 60.2437 33.8094 60.2406C33.8219 60.2374 33.8349 60.237 33.8476 60.2394C34.035 60.2394 34.2224 60.2394 34.4097 60.2394C34.4426 60.1409 34.344 60.049 34.2487 60.0064C34.1533 59.9637 34.035 59.9309 33.989 59.839C33.8903 59.6487 34.1435 59.3828 34.035 59.2188C33.9265 59.0547 33.703 59.222 33.5353 59.3008Z" fill="#21386C"/>
<path opacity="0.2" d="M19.7287 67.2591C19.7097 67.2705 19.6883 67.2773 19.6662 67.2787C19.6463 67.2744 19.6278 67.2648 19.6128 67.2509C19.5977 67.2371 19.5867 67.2195 19.5807 67.2C19.492 67.0031 19.5446 66.7504 19.4032 66.583C19.2648 66.7541 19.1539 66.9456 19.0745 67.1508L18.5387 66.9867C18.5142 67.0901 18.5107 67.1973 18.5282 67.3021C18.5457 67.4069 18.5839 67.5072 18.6406 67.5971C18.547 67.6373 18.4621 67.6952 18.3907 67.7677C18.3546 67.804 18.3293 67.8497 18.3177 67.8995C18.3061 67.9494 18.3086 68.0015 18.325 68.05C18.4475 68.0799 18.5737 68.092 18.6997 68.0861C18.6794 68.3199 18.6938 68.5554 18.7425 68.7851C18.7448 68.8199 18.7601 68.8527 18.7852 68.877C18.8246 68.8999 18.8773 68.877 18.9167 68.854C19.1024 68.7405 19.2544 68.5796 19.3572 68.388L19.5544 68.8638C19.5693 68.9124 19.6007 68.9542 19.6432 68.982C19.6738 68.9916 19.7067 68.9911 19.7369 68.9804C19.7671 68.9697 19.7931 68.9496 19.8109 68.9229C19.843 68.869 19.8622 68.8083 19.8667 68.7457L19.9423 68.2928C19.9426 68.2799 19.9457 68.2673 19.9513 68.2557C19.957 68.2441 19.9651 68.2339 19.9751 68.2258C19.9851 68.2177 19.9968 68.2118 20.0093 68.2087C20.0218 68.2055 20.0349 68.2051 20.0475 68.2075C20.2349 68.2075 20.4223 68.2075 20.6097 68.2075C20.6426 68.109 20.5439 68.0139 20.4486 67.9745C20.3533 67.9351 20.2349 67.899 20.1889 67.8071C20.0903 67.6168 20.3434 67.3509 20.2349 67.1869C20.1264 67.0228 19.893 67.1803 19.7287 67.2591Z" fill="#21386C"/>
<path opacity="0.5" d="M6.38573 39.4065C6.36655 39.4175 6.34526 39.4242 6.32327 39.4262C6.28053 39.4262 6.25423 39.3835 6.23779 39.3474C6.14575 39.1505 6.19835 38.8946 6.05699 38.7305C5.91781 38.901 5.80683 39.0927 5.72826 39.2982L5.16941 39.1177C5.14337 39.2208 5.13869 39.3281 5.15565 39.4331C5.17261 39.538 5.21084 39.6384 5.26803 39.7281C5.17558 39.7703 5.09108 39.828 5.01821 39.8988C4.98241 39.9353 4.95733 39.9809 4.94574 40.0307C4.93414 40.0805 4.93647 40.1325 4.95246 40.181C5.07619 40.2106 5.20329 40.2239 5.33049 40.2204C5.31069 40.4541 5.32397 40.6894 5.36993 40.9194C5.37108 40.9365 5.37576 40.9533 5.38368 40.9685C5.3916 40.9838 5.40259 40.9972 5.41596 41.008C5.45541 41.0343 5.50472 41.008 5.54417 40.9883C5.72916 40.8739 5.88101 40.7133 5.98468 40.5223L6.18191 40.9949C6.19563 41.044 6.22731 41.0861 6.27068 41.113C6.30075 41.1248 6.33399 41.1256 6.36462 41.1154C6.39525 41.1052 6.42131 41.0846 6.43831 41.0572C6.47117 41.0022 6.4914 40.9405 6.4975 40.8767L6.56981 40.4271C6.57166 40.4031 6.58085 40.3802 6.59612 40.3615C6.6073 40.3532 6.62003 40.3471 6.63358 40.3437C6.64712 40.3404 6.66121 40.3397 6.67501 40.3418C6.86239 40.3418 7.04976 40.3418 7.24042 40.3418C7.27001 40.2401 7.17139 40.1482 7.07605 40.1055C6.98072 40.0629 6.86567 40.0333 6.81636 39.9382C6.71774 39.7478 6.97088 39.4853 6.86568 39.3212C6.76049 39.1571 6.53365 39.3245 6.38573 39.4065Z" fill="#21386C"/>
<path opacity="0.5" d="M13.4797 55.1032C13.4594 55.1095 13.4376 55.1095 13.4173 55.1032C13.3778 55.1032 13.3482 55.0638 13.3318 55.0277C13.2397 54.8308 13.2923 54.5748 13.1543 54.4075C13.0147 54.579 12.9038 54.7718 12.8255 54.9785L12.293 54.8111C12.2676 54.9145 12.2636 55.0219 12.2811 55.1268C12.2986 55.2317 12.3373 55.332 12.3949 55.4215C12.3008 55.4625 12.215 55.5203 12.1418 55.5922C12.1063 55.6289 12.0814 55.6745 12.0698 55.7242C12.0583 55.7739 12.0604 55.8258 12.076 55.8744C12.1998 55.9039 12.3269 55.9171 12.4541 55.9138C12.4343 56.1475 12.4476 56.3828 12.4935 56.6128C12.4966 56.6473 12.5131 56.6791 12.5395 56.7014C12.579 56.7277 12.6316 56.7014 12.671 56.6817C12.855 56.5671 13.0057 56.4065 13.1083 56.2157L13.3088 56.6883C13.3225 56.7374 13.3542 56.7795 13.3975 56.8064C13.4273 56.8162 13.4594 56.816 13.489 56.8059C13.5187 56.7958 13.5442 56.7765 13.5619 56.7507C13.5962 56.6963 13.6165 56.6343 13.6211 56.5702L13.6967 56.1206C13.6974 56.0968 13.7054 56.0739 13.7197 56.0549C13.7429 56.039 13.7705 56.031 13.7986 56.0319C13.986 56.0319 14.1766 56.0319 14.364 56.0319C14.3969 55.9302 14.295 55.8383 14.1996 55.7957C14.1043 55.753 13.9892 55.7235 13.9399 55.6283C13.8446 55.4379 14.0977 55.1721 13.9893 55.008C13.8808 54.8439 13.6441 55.0212 13.4797 55.1032Z" fill="#21386C"/>
<path opacity="0.5" d="M8.31859 48.9827C8.29965 48.9942 8.27823 49.0009 8.25613 49.0024C8.23616 48.998 8.21772 48.9884 8.2027 48.9746C8.18767 48.9607 8.17661 48.9431 8.17065 48.9236C8.07861 48.7267 8.13121 48.4707 7.99315 48.3066C7.85368 48.477 7.74268 48.6687 7.66441 48.8744L7.13187 48.7103C7.10669 48.8136 7.10274 48.921 7.12025 49.0259C7.13777 49.1308 7.17639 49.2311 7.23377 49.3207C7.13964 49.3616 7.05384 49.4195 6.98064 49.4914C6.94515 49.5281 6.92029 49.5737 6.90871 49.6234C6.89714 49.6731 6.89927 49.725 6.91489 49.7736C7.03849 49.8038 7.16584 49.816 7.29294 49.8097C7.27315 50.0434 7.28643 50.2787 7.33239 50.5087C7.33348 50.5263 7.33811 50.5435 7.34601 50.5593C7.35392 50.5751 7.36495 50.5892 7.37842 50.6006C7.41787 50.6236 7.47045 50.6006 7.5099 50.5776C7.69457 50.4639 7.8455 50.303 7.94712 50.1116L8.14764 50.5875C8.16245 50.636 8.19387 50.6778 8.2364 50.7056C8.26647 50.7156 8.29901 50.7152 8.32882 50.7045C8.35863 50.6938 8.38397 50.6734 8.40077 50.6465C8.43404 50.5917 8.45428 50.5299 8.45994 50.466L8.53554 50.0164C8.53625 49.9937 8.54433 49.9718 8.55855 49.9541C8.58098 49.9367 8.60918 49.9285 8.63745 49.9311C8.82482 49.9311 9.0155 49.9311 9.20288 49.9311C9.23575 49.8327 9.13384 49.7375 9.03851 49.6981C8.94318 49.6587 8.82813 49.6226 8.77882 49.5307C8.6802 49.3404 8.9366 49.0746 8.82812 48.9105C8.71964 48.7464 8.48295 48.9006 8.31859 48.9827Z" fill="#21386C"/>
<path opacity="0.5" d="M30.4878 50.4236C30.4687 50.4345 30.4474 50.4413 30.4254 50.4433C30.4051 50.4396 30.3863 50.4303 30.3712 50.4163C30.356 50.4024 30.3452 50.3844 30.3399 50.3645C30.2479 50.1676 30.3005 49.9149 30.1591 49.7476C30.0206 49.9186 29.9097 50.1102 29.8304 50.3153L29.2978 50.1512C29.2722 50.2543 29.2677 50.3616 29.2846 50.4665C29.3016 50.5714 29.3396 50.6718 29.3964 50.7616C29.3033 50.8026 29.2186 50.8605 29.1466 50.9323C29.1105 50.9686 29.0852 51.0142 29.0736 51.0641C29.062 51.1139 29.0645 51.166 29.0808 51.2145C29.2044 51.2447 29.3318 51.2569 29.4589 51.2506C29.4391 51.4843 29.4524 51.7196 29.4983 51.9496C29.4994 51.9672 29.5041 51.9845 29.512 52.0003C29.5199 52.016 29.5309 52.0301 29.5444 52.0415C29.5838 52.0645 29.6331 52.0415 29.6726 52.0185C29.8583 51.905 30.0103 51.7442 30.1131 51.5525L30.3103 52.0284C30.3251 52.0769 30.3565 52.1187 30.3991 52.1465C30.4296 52.1567 30.4627 52.1564 30.4931 52.1457C30.5234 52.135 30.5494 52.1145 30.5667 52.0875C30.6 52.0326 30.6202 51.9709 30.6259 51.907L30.6982 51.4574C30.6985 51.4445 30.7015 51.4318 30.7072 51.4202C30.7129 51.4087 30.721 51.3985 30.731 51.3903C30.741 51.3822 30.7527 51.3764 30.7652 51.3732C30.7777 51.37 30.7907 51.3696 30.8034 51.372C30.9908 51.372 31.1782 51.372 31.3688 51.372C31.3984 51.2736 31.2998 51.1784 31.2045 51.139C31.1091 51.0996 30.9941 51.0635 30.9448 50.9717C30.8462 50.7813 31.0993 50.5155 30.9941 50.3514C30.8889 50.1873 30.6522 50.3416 30.4878 50.4236Z" fill="#21386C"/>
<path opacity="0.2" d="M19.7287 49.219C19.7104 49.2318 19.6886 49.2387 19.6662 49.2387C19.6466 49.2346 19.6284 49.2255 19.6135 49.2123C19.5985 49.1991 19.5872 49.1821 19.5807 49.1632C19.492 48.9663 19.5446 48.7103 19.4032 48.543C19.2654 48.7145 19.1546 48.9059 19.0745 49.1107L18.5387 48.9466C18.514 49.05 18.5104 49.1573 18.5279 49.2621C18.5454 49.3669 18.5837 49.4672 18.6406 49.557C18.547 49.5972 18.4621 49.6552 18.3907 49.7277C18.3546 49.764 18.3293 49.8096 18.3177 49.8595C18.3061 49.9093 18.3086 49.9614 18.325 50.0099C18.4475 50.0398 18.5737 50.052 18.6997 50.046C18.6794 50.2809 18.6938 50.5176 18.7425 50.7483C18.7456 50.782 18.7608 50.8135 18.7852 50.8369C18.8072 50.8452 18.831 50.8474 18.8541 50.8433C18.8772 50.8393 18.8988 50.8292 18.9167 50.814C19.1024 50.7004 19.2544 50.5396 19.3572 50.3479L19.5544 50.8238C19.5693 50.8723 19.6007 50.9142 19.6432 50.9419C19.6738 50.9516 19.7067 50.951 19.7369 50.9404C19.7671 50.9297 19.7931 50.9095 19.8109 50.8829C19.843 50.8289 19.8622 50.7683 19.8667 50.7057L19.9423 50.2528C19.9426 50.2399 19.9457 50.2272 19.9513 50.2156C19.957 50.2041 19.9651 50.1939 19.9751 50.1857C19.9851 50.1776 19.9968 50.1718 20.0093 50.1686C20.0218 50.1655 20.0349 50.1651 20.0475 50.1674C20.2349 50.1674 20.4223 50.1674 20.6097 50.1674C20.6426 50.069 20.5439 49.9771 20.4486 49.9344C20.3533 49.8918 20.2349 49.859 20.1889 49.7671C20.0903 49.5767 20.3434 49.3109 20.2349 49.1468C20.1264 48.9827 19.893 49.1403 19.7287 49.219Z" fill="#21386C"/>
<path opacity="0.3" d="M16.356 50.6861C16.3357 50.6971 16.3133 50.7038 16.2902 50.7057C16.2508 50.7057 16.2245 50.6631 16.2048 50.627C16.116 50.4301 16.1686 50.1741 16.0273 50.01C15.8888 50.1811 15.7779 50.3726 15.6985 50.5778L15.1627 50.4137C15.1383 50.5171 15.1347 50.6243 15.1522 50.7291C15.1697 50.8339 15.2079 50.9342 15.2646 51.0241C15.1708 51.0639 15.0859 51.1219 15.0148 51.1947C14.9786 51.231 14.9534 51.2767 14.9417 51.3265C14.9301 51.3764 14.9326 51.4285 14.949 51.477C15.0715 51.5069 15.1978 51.519 15.3238 51.5131C15.3051 51.7469 15.3195 51.9822 15.3665 52.2121C15.3672 52.2293 15.3717 52.2462 15.3797 52.2615C15.3876 52.2768 15.3989 52.2902 15.4125 52.3007C15.452 52.3269 15.5013 52.3007 15.5407 52.281C15.7257 52.1666 15.8776 52.006 15.9812 51.815L16.1785 52.2876C16.1923 52.3374 16.2239 52.3806 16.2672 52.409C16.2978 52.4192 16.3309 52.4189 16.3612 52.4082C16.3916 52.3975 16.4175 52.377 16.4349 52.3499C16.4662 52.2942 16.4863 52.2329 16.4941 52.1694L16.5664 51.7198C16.5666 51.7069 16.5697 51.6943 16.5754 51.6827C16.581 51.6711 16.5891 51.6609 16.5992 51.6528C16.6092 51.6447 16.6208 51.6388 16.6333 51.6357C16.6459 51.6325 16.6589 51.6321 16.6716 51.6345C16.8589 51.6345 17.0463 51.6345 17.237 51.6345C17.2666 51.536 17.168 51.4409 17.0726 51.3982C16.9773 51.3555 16.8622 51.326 16.8129 51.2341C16.7143 51.0405 16.9674 50.7779 16.8589 50.6139C16.7505 50.4498 16.5204 50.604 16.356 50.6861Z" fill="#21386C"/>
<path opacity="0.2" d="M13.2072 41.8156C13.1886 41.8274 13.1668 41.8332 13.1447 41.832C13.1053 41.832 13.0757 41.7926 13.0593 41.7565C12.9705 41.5596 13.0231 41.3036 12.8818 41.1362C12.744 41.3077 12.6331 41.4992 12.553 41.704L12.0172 41.5399C11.9926 41.6433 11.9889 41.7505 12.0064 41.8554C12.0239 41.9602 12.0622 42.0605 12.1191 42.1503C12.0255 42.1905 11.9407 42.2484 11.8693 42.3209C11.8331 42.3573 11.8079 42.4029 11.7962 42.4527C11.7846 42.5026 11.7871 42.5547 11.8035 42.6032C11.9262 42.6326 12.0522 42.6459 12.1783 42.6426C12.1579 42.8764 12.1723 43.1119 12.221 43.3416C12.2241 43.3753 12.2393 43.4067 12.2637 43.4302C12.3032 43.4564 12.3558 43.4302 12.3952 43.4072C12.5808 43.295 12.7329 43.1352 12.8357 42.9445L13.033 43.4171C13.0478 43.4656 13.0792 43.5074 13.1217 43.5352C13.152 43.5446 13.1845 43.5443 13.2146 43.5343C13.2446 43.5243 13.2708 43.5051 13.2894 43.4794C13.3212 43.4241 13.3403 43.3625 13.3453 43.2989L13.4209 42.8493C13.4227 42.8253 13.4319 42.8024 13.4472 42.7837C13.4701 42.7674 13.4979 42.7593 13.5261 42.7607C13.7134 42.7607 13.9008 42.7607 14.0882 42.7607C14.1211 42.659 14.0225 42.5671 13.9271 42.5244C13.8318 42.4818 13.7135 42.4489 13.6674 42.357C13.5688 42.1667 13.8219 41.9009 13.7134 41.7368C13.605 41.5727 13.3716 41.7434 13.2072 41.8156Z" fill="#21386C"/>
<path opacity="0.3" d="M19.4068 53.3934C19.3938 53.4025 19.3788 53.4081 19.3631 53.4099C19.3474 53.4117 19.3315 53.4096 19.3169 53.4037C19.3022 53.3979 19.2892 53.3885 19.2791 53.3764C19.269 53.3643 19.262 53.3498 19.2588 53.3344C19.1668 53.1375 19.2194 52.8815 19.078 52.7141C18.9402 52.8856 18.8294 53.0771 18.7493 53.2819L18.2168 53.1178C18.1915 53.2209 18.1872 53.3281 18.2041 53.433C18.2211 53.5378 18.2589 53.6382 18.3154 53.7282C18.2227 53.77 18.1381 53.8277 18.0656 53.8988C18.0294 53.9351 18.0041 53.9808 17.9925 54.0306C17.9809 54.0805 17.9834 54.1326 17.9998 54.1811C18.1234 54.2113 18.2507 54.2235 18.3778 54.2172C18.358 54.452 18.3712 54.6884 18.4173 54.9195C18.4203 54.9539 18.4369 54.9857 18.4633 55.0081C18.4847 55.0164 18.508 55.0186 18.5306 55.0146C18.5533 55.0105 18.5743 55.0003 18.5915 54.9851C18.7763 54.8719 18.9281 54.7123 19.032 54.5224L19.2293 54.9949C19.2441 55.0435 19.2755 55.0853 19.318 55.1131C19.3486 55.1233 19.3816 55.123 19.412 55.1123C19.4424 55.1016 19.4683 55.0811 19.4857 55.054C19.5164 54.9975 19.5333 54.9345 19.535 54.8702L19.6073 54.4174C19.6106 54.3947 19.6197 54.3732 19.6336 54.355C19.6559 54.3373 19.6842 54.3291 19.7125 54.332C19.8999 54.332 20.0905 54.332 20.2779 54.332C20.3108 54.2336 20.2089 54.1417 20.1136 54.099C20.0182 54.0564 19.9032 54.0235 19.8538 53.9317C19.7552 53.7413 20.0116 53.4755 19.9032 53.3114C19.7947 53.1473 19.5711 53.3114 19.4068 53.3934Z" fill="#21386C"/>
</g>
</g>
<defs>
<clipPath id="clip0_4199_27099">
<rect width="226" height="121" fill="white"/>
</clipPath>
</defs>
</svg>
