<svg width="17" height="16" viewBox="0 0 17 16" fill="none" xmlns="http://www.w3.org/2000/svg">
<path d="M3.5 2.5C3.5 1.83696 3.76339 1.20107 4.23223 0.732233C4.70107 0.263392 5.33696 0 6 0C6.66304 0 7.29893 0.263392 7.76777 0.732233C8.23661 1.20107 8.5 1.83696 8.5 2.5C8.5 1.83696 8.76339 1.20107 9.23223 0.732233C9.70107 0.263392 10.337 0 11 0C11.663 0 12.2989 0.263392 12.7678 0.732233C13.2366 1.20107 13.5 1.83696 13.5 2.5V2.506C13.5 2.576 13.5 2.776 13.462 3H15.5C15.7652 3 16.0196 3.10536 16.2071 3.29289C16.3946 3.48043 16.5 3.73478 16.5 4V5C16.5 5.26522 16.3946 5.51957 16.2071 5.70711C16.0196 5.89464 15.7652 6 15.5 6H1.5C1.23478 6 0.98043 5.89464 0.792893 5.70711C0.605357 5.51957 0.5 5.26522 0.5 5V4C0.5 3.73478 0.605357 3.48043 0.792893 3.29289C0.98043 3.10536 1.23478 3 1.5 3H3.538C3.51159 2.83668 3.49888 2.67144 3.5 2.506V2.5ZM4.568 3H7.5V2.5C7.5 2.30302 7.4612 2.10796 7.38582 1.92597C7.31044 1.74399 7.19995 1.57863 7.06066 1.43934C6.92137 1.30005 6.75601 1.18956 6.57403 1.11418C6.39204 1.0388 6.19698 1 6 1C5.80302 1 5.60796 1.0388 5.42597 1.11418C5.24399 1.18956 5.07863 1.30005 4.93934 1.43934C4.80005 1.57863 4.68956 1.74399 4.61418 1.92597C4.5388 2.10796 4.5 2.30302 4.5 2.5C4.5 2.585 4.502 2.774 4.545 2.93C4.55101 2.95385 4.55869 2.97724 4.568 3ZM9.5 3H12.432C12.4412 2.9772 12.4489 2.95381 12.455 2.93C12.498 2.774 12.5 2.585 12.5 2.5C12.5 2.10218 12.342 1.72064 12.0607 1.43934C11.7794 1.15804 11.3978 1 11 1C10.6022 1 10.2206 1.15804 9.93934 1.43934C9.65804 1.72064 9.5 2.10218 9.5 2.5V3ZM15.5 7V14.5C15.5 14.8978 15.342 15.2794 15.0607 15.5607C14.7794 15.842 14.3978 16 14 16H9V7H15.5ZM3 16C2.60218 16 2.22064 15.842 1.93934 15.5607C1.65804 15.2794 1.5 14.8978 1.5 14.5V7H8V16H3Z" fill="#F2F5F8"/>
</svg>
