<svg width="16" height="16" viewBox="0 0 16 16" fill="none" xmlns="http://www.w3.org/2000/svg">
<path fill-rule="evenodd" clip-rule="evenodd" d="M4.66683 1.33398H11.3335C13.1744 1.33398 14.6668 2.82637 14.6668 4.66732V11.334C14.6668 13.1749 13.1744 14.6673 11.3335 14.6673H4.66683C2.82588 14.6673 1.3335 13.1749 1.3335 11.334V4.66732C1.3335 2.82637 2.82588 1.33398 4.66683 1.33398ZM11.1665 4.33398C11.1665 4.05784 11.3904 3.83398 11.6665 3.83398H11.6732C11.9493 3.83398 12.1732 4.05784 12.1732 4.33398C12.1732 4.61013 11.9493 4.83398 11.6732 4.83398H11.6665C11.3904 4.83398 11.1665 4.61013 11.1665 4.33398ZM8.34679 5.82813C7.89599 5.76128 7.43559 5.83828 7.03107 6.04817C6.62656 6.25807 6.29852 6.59017 6.09363 6.99725C5.88874 7.40432 5.81742 7.86563 5.88983 8.31558C5.96223 8.76552 6.17466 9.18117 6.49691 9.50342C6.81916 9.82567 7.23482 10.0381 7.68476 10.1105C8.1347 10.1829 8.59601 10.1116 9.00309 9.9067C9.41016 9.70181 9.74226 9.37378 9.95216 8.96926C10.1621 8.56474 10.2391 8.10434 10.1722 7.65354C10.104 7.19371 9.88975 6.768 9.56104 6.43929C9.23233 6.11059 8.80662 5.89631 8.34679 5.82813ZM6.5705 5.16055C7.16172 4.85378 7.83461 4.74124 8.49347 4.83894C9.16554 4.9386 9.78773 5.25177 10.2681 5.73219C10.7486 6.2126 11.0617 6.8348 11.1614 7.50686C11.2591 8.16572 11.1466 8.83861 10.8398 9.42983C10.533 10.021 10.0476 10.5005 9.45268 10.7999C8.85772 11.0994 8.18349 11.2036 7.52589 11.0978C6.86828 10.992 6.26078 10.6815 5.7898 10.2105C5.31882 9.73955 5.00834 9.13205 4.90253 8.47445C4.79671 7.81684 4.90094 7.14261 5.2004 6.54766C5.49985 5.9527 5.97929 5.46732 6.5705 5.16055Z" fill="#1B242D"/>
</svg>
