<svg width="100" height="40" viewBox="0 0 100 40" fill="none" xmlns="http://www.w3.org/2000/svg">
<g clipPath="url(#clip0_2427_10974)">
<path d="M20.1964 35.5698C21.5017 35.5698 22.4555 34.8919 22.4555 33.7625V33.7373C22.4555 32.6453 21.6268 32.0054 20.2088 32.0054H17.4977V35.5698H20.1964ZM16.5054 31.0891H20.2842C21.376 31.0891 22.2292 31.4153 22.782 31.9676C23.2215 32.4068 23.4603 32.9966 23.4603 33.6995V33.7246C23.4603 35.1807 22.4555 36.009 21.0747 36.2849L23.7743 39.8745H22.5563L20.0083 36.4607H19.9832H17.4977V39.8745H16.5054V31.0891Z" fill="#243E74"/>
<path d="M29.3501 31.0891H35.7024V31.9927H30.342V34.9924H35.1369V35.8962H30.342V38.9709H35.7651V39.8745H29.3501V31.0891Z" fill="#243E74"/>
<path d="M41.6172 31.0891H42.6088V39.8745H41.6172V31.0891Z" fill="#243E74"/>
<path d="M48.3721 38.5943L48.9868 37.8662C49.9027 38.7071 50.7817 39.1089 51.9992 39.1089C53.192 39.1089 53.958 38.481 53.958 37.6153V37.5901C53.958 36.7742 53.5185 36.3225 51.6727 35.9207C49.6524 35.4815 48.7233 34.8289 48.7233 33.3855V33.3604C48.7233 31.9925 49.9412 30.9632 51.6107 30.9632C52.9034 30.9632 53.7944 31.3272 54.6979 32.0423L54.1209 32.8084C53.305 32.1431 52.489 31.8543 51.5855 31.8543C50.4303 31.8543 49.7149 32.4693 49.7149 33.2725V33.2979C49.7149 34.1263 50.1541 34.6031 52.1005 35.0045C54.0579 35.419 54.962 36.1468 54.962 37.4895V37.5149C54.962 39.0208 53.7063 40 51.962 40C50.5554 40 49.4262 39.5481 48.3721 38.5943Z" fill="#243E74"/>
<path d="M60.751 31.0891H67.1032V31.9927H61.7429V34.9924H66.5379V35.8962H61.7429V38.9709H67.1659V39.8745H60.751V31.0891Z" fill="#243E74"/>
<path d="M72.9312 31.0891H73.8592L79.3953 38.1299V31.0891H80.3621V39.8745H79.5711L73.8979 32.6702V39.8745H72.9312V31.0891Z" fill="#243E74"/>
<path d="M0 0.343294H2.24826V18.1779H13.4574V20.252H0V0.343294Z" fill="#243E74"/>
<path d="M49.8267 10.4944C52.7841 10.4944 54.9453 8.96185 54.9453 6.40021V6.34514C54.9453 3.86729 53.0695 2.41801 49.8538 2.41801H43.7098V10.4944H49.8267ZM41.4639 0.343294H50.0244C52.4985 0.343294 54.4347 1.08027 55.6862 2.33143C56.68 3.3286 57.223 4.66679 57.223 6.25789V6.31363C57.223 9.61487 54.9453 11.4915 51.8174 12.117L57.935 20.252H55.1751L49.399 12.5165H49.3433H43.7098V20.252H41.4639V0.343294Z" fill="#243E74"/>
<path d="M78.9688 10.3548V10.2958C78.9688 5.7751 75.6713 2.07755 71.1181 2.07755C66.5683 2.07755 63.3256 5.71936 63.3256 10.2405V10.2958C63.3256 14.8205 66.6243 18.5182 71.1769 18.5182C75.7261 18.5182 78.9688 14.876 78.9688 10.3548ZM60.9902 10.3548V10.2958C60.9902 4.8053 65.1152 -0.000465393 71.1769 -0.000465393C77.2347 -0.000465393 81.3048 4.74978 81.3048 10.2405C81.3333 10.2683 81.3333 10.2683 81.3048 10.2958C81.3048 15.7867 77.1798 20.5923 71.1181 20.5923C65.0603 20.5923 60.9902 15.8423 60.9902 10.3548Z" fill="#243E74"/>
<path d="M84.6445 17.3503L86.0389 15.7034C88.1168 17.6075 90.1084 18.5181 92.8642 18.5181C95.5684 18.5181 97.3026 17.0927 97.3026 15.1332V15.0744C97.3026 13.2255 96.309 12.2039 92.1281 11.2931C87.5464 10.2957 85.4405 8.8156 85.4405 5.54872V5.48973C85.4405 2.39031 88.2002 0.0587006 91.9853 0.0587006C94.9157 0.0587006 96.9342 0.88204 98.9819 2.5051L97.6742 4.23874C95.8253 2.7307 93.977 2.07745 91.926 2.07745C89.3085 2.07745 87.6891 3.47071 87.6891 5.29167V5.34763C87.6891 7.22406 88.6833 8.30473 93.0942 9.21504C97.5321 10.1536 99.5797 11.804 99.5797 14.8485V14.9041C99.5797 18.3198 96.7361 20.5371 92.7813 20.5371C89.594 20.5371 87.0353 19.5118 84.6445 17.3503Z" fill="#243E74"/>
<path d="M22.3409 12.2978L26.5918 2.81786L30.8216 12.3115C31.492 12.0022 32.156 11.7379 32.795 11.5195L27.6724 0.201155H25.5694L20.4224 11.5715C21.0442 11.7731 21.6877 12.0129 22.3409 12.2978Z" fill="#243E74"/>
<path d="M37.769 10.5426C36.5948 10.4977 30.5992 10.4903 26.6436 14.7611C22.7442 10.546 16.8459 10.4977 15.5635 10.5426V12.513C16.4289 12.4815 22.5427 12.4367 25.8549 16.8881L26.6436 17.9478L27.4323 16.8881C30.8185 12.3427 37.1119 12.4883 37.769 12.5161V10.5426Z" fill="#4DC5F3"/>
<path d="M18.4086 14.9318L16 20.252H18.3047L20.4001 15.5829C19.7249 15.2875 19.0464 15.0798 18.4086 14.9318Z" fill="#243E74"/>
<path d="M32.2852 15.6368L34.3285 20.252H36.748L34.3467 14.9429C33.6846 15.0981 32.9809 15.3222 32.2852 15.6368Z" fill="#243E74"/>
</g>
<defs>
<clipPath id="clip0_2427_10974">
<rect width="99.577" height="40" fill="white"/>
</clipPath>
</defs>
</svg>
