<svg width="10" height="14" viewBox="0 0 10 14" fill="none" xmlns="http://www.w3.org/2000/svg">
<path d="M2.333 0.5C2.333 0.367392 2.38568 0.240215 2.47945 0.146447C2.57321 0.0526784 2.70039 0 2.833 0H7.166C7.29861 0 7.42579 0.0526784 7.51955 0.146447C7.61332 0.240215 7.666 0.367392 7.666 0.5C7.666 0.632608 7.61332 0.759785 7.51955 0.853553C7.42579 0.947322 7.29861 1 7.166 1H7V2H8C8.53043 2 9.03914 2.21071 9.41421 2.58579C9.78929 2.96086 10 3.46957 10 4V11C10 11.5304 9.78929 12.0391 9.41421 12.4142C9.03914 12.7893 8.53043 13 8 13V13.5C8 13.6326 7.94732 13.7598 7.85355 13.8536C7.75979 13.9473 7.63261 14 7.5 14C7.36739 14 7.24021 13.9473 7.14645 13.8536C7.05268 13.7598 7 13.6326 7 13.5V13H3V13.5C3 13.6326 2.94732 13.7598 2.85355 13.8536C2.75979 13.9473 2.63261 14 2.5 14C2.36739 14 2.24021 13.9473 2.14645 13.8536C2.05268 13.7598 2 13.6326 2 13.5V13C1.46957 13 0.960859 12.7893 0.585786 12.4142C0.210714 12.0391 0 11.5304 0 11V4C0 3.46957 0.210714 2.96086 0.585786 2.58579C0.960859 2.21071 1.46957 2 2 2H3V1H2.833C2.70039 1 2.57321 0.947322 2.47945 0.853553C2.38568 0.759785 2.333 0.632608 2.333 0.5ZM4 1V2H6V1H4ZM2 3C1.73478 3 1.48043 3.10536 1.29289 3.29289C1.10536 3.48043 1 3.73478 1 4V11C1 11.2652 1.10536 11.5196 1.29289 11.7071C1.48043 11.8946 1.73478 12 2 12H8C8.26522 12 8.51957 11.8946 8.70711 11.7071C8.89464 11.5196 9 11.2652 9 11V4C9 3.73478 8.89464 3.48043 8.70711 3.29289C8.51957 3.10536 8.26522 3 8 3H2ZM2 5.5C2 5.36739 2.05268 5.24021 2.14645 5.14645C2.24021 5.05268 2.36739 5 2.5 5H7.5C7.63261 5 7.75979 5.05268 7.85355 5.14645C7.94732 5.24021 8 5.36739 8 5.5C8 5.63261 7.94732 5.75979 7.85355 5.85355C7.75979 5.94732 7.63261 6 7.5 6H2.5C2.36739 6 2.24021 5.94732 2.14645 5.85355C2.05268 5.75979 2 5.63261 2 5.5Z" fill="#C3C6C9"/>
</svg>
