<svg width="16" height="16" viewBox="0 0 16 16" fill="none" xmlns="http://www.w3.org/2000/svg">
<rect width="16" height="16" fill="white"/>
<path fill-rule="evenodd" clip-rule="evenodd" d="M8 15.3337C8 15.3337 14 11.3337 14 6.66699C14 5.07569 13.3679 3.54957 12.2426 2.42435C11.1174 1.29913 9.5913 0.666992 8 0.666992C6.4087 0.666992 4.88258 1.29913 3.75736 2.42435C2.63214 3.54957 2 5.07569 2 6.66699C2 11.3337 8 15.3337 8 15.3337ZM10 6.66699C10 7.77156 9.10457 8.66699 8 8.66699C6.89543 8.66699 6 7.77156 6 6.66699C6 5.56242 6.89543 4.66699 8 4.66699C9.10457 4.66699 10 5.56242 10 6.66699Z" fill="#00B7EB"/>
</svg>
