<svg width="16" height="16" viewBox="0 0 16 16" fill="none" xmlns="http://www.w3.org/2000/svg">
<path fill-rule="evenodd" clip-rule="evenodd" d="M8 15.3333C8 15.3333 14 11.3333 14 6.66663C14 5.07533 13.3679 3.5492 12.2426 2.42399C11.1174 1.29877 9.5913 0.666626 8 0.666626C6.4087 0.666626 4.88258 1.29877 3.75736 2.42399C2.63214 3.5492 2 5.07533 2 6.66663C2 11.3333 8 15.3333 8 15.3333ZM10 6.66663C10 7.7712 9.10457 8.66663 8 8.66663C6.89543 8.66663 6 7.7712 6 6.66663C6 5.56206 6.89543 4.66663 8 4.66663C9.10457 4.66663 10 5.56206 10 6.66663Z" fill="#9C9EA1"/>
</svg>
