<svg width="16" height="16" viewBox="0 0 16 16" fill="none" xmlns="http://www.w3.org/2000/svg">
<path d="M3.99967 3.99996H11.9997V6.63996L7.99967 5.33329L3.99967 6.63996M2.62634 12.6666H2.66634C3.73301 12.6666 4.66634 12.08 5.33301 11.3333C5.99967 12.08 6.93301 12.6666 7.99967 12.6666C9.06634 12.6666 9.99967 12.08 10.6663 11.3333C11.333 12.08 12.2663 12.6666 13.333 12.6666H13.3663L14.633 8.20663C14.6863 8.03996 14.6663 7.85329 14.593 7.69329C14.5063 7.53329 14.3663 7.41329 14.193 7.35996L13.333 7.07996V3.99996C13.333 3.64634 13.1925 3.3072 12.9425 3.05715C12.6924 2.8071 12.3533 2.66663 11.9997 2.66663H9.99967V0.666626H5.99967V2.66663H3.99967C3.64605 2.66663 3.30691 2.8071 3.05687 3.05715C2.80682 3.3072 2.66634 3.64634 2.66634 3.99996V7.07996L1.80634 7.35996C1.63301 7.41329 1.49301 7.53329 1.40634 7.69329C1.33301 7.85329 1.31301 8.03996 1.36634 8.20663M13.333 14C12.4063 14 11.4797 13.6866 10.6663 13.1133C9.03967 14.2533 6.95967 14.2533 5.33301 13.1133C4.51967 13.6866 3.59301 14 2.66634 14H1.33301V15.3333H2.66634C3.57967 15.3333 4.49301 15.1 5.33301 14.6666C6.99967 15.5333 8.99967 15.5333 10.6663 14.6666C11.5063 15.1 12.413 15.3333 13.333 15.3333H14.6663V14H13.333Z" fill="#1B242D"/>
</svg>
