<svg width="41" height="40" viewBox="0 0 41 40" fill="none" xmlns="http://www.w3.org/2000/svg">
<path d="M6.83268 5H33.4993C33.9414 5 34.3653 5.17559 34.6779 5.48816C34.9904 5.80072 35.166 6.22464 35.166 6.66667V33.3333C35.166 33.7754 34.9904 34.1993 34.6779 34.5118C34.3653 34.8244 33.9414 35 33.4993 35H6.83268C6.39065 35 5.96673 34.8244 5.65417 34.5118C5.34161 34.1993 5.16602 33.7754 5.16602 33.3333V6.66667C5.16602 6.22464 5.34161 5.80072 5.65417 5.48816C5.96673 5.17559 6.39065 5 6.83268 5ZM8.49935 8.33333V31.6667H31.8327V8.33333H8.49935ZM15.166 11.6667H20.9993C22.5464 11.6667 24.0302 12.2812 25.1241 13.3752C26.2181 14.4692 26.8327 15.9529 26.8327 17.5C26.8327 19.0471 26.2181 20.5308 25.1241 21.6248C24.0302 22.7188 22.5464 23.3333 20.9993 23.3333H18.4993V28.3333H15.166V11.6667ZM18.4993 15V20H20.9993C21.6624 20 22.2983 19.7366 22.7671 19.2678C23.236 18.7989 23.4993 18.163 23.4993 17.5C23.4993 16.837 23.236 16.2011 22.7671 15.7322C22.2983 15.2634 21.6624 15 20.9993 15H18.4993Z" fill="#0ABAEE"/>
</svg>
