<svg width="16" height="15" viewBox="0 0 16 15" fill="none" xmlns="http://www.w3.org/2000/svg">
<path d="M11.334 1.5015C11.5091 1.32641 11.7169 1.18751 11.9457 1.09275C12.1745 0.997992 12.4197 0.949219 12.6673 0.949219C12.9149 0.949219 13.1601 0.997992 13.3889 1.09275C13.6177 1.18751 13.8256 1.32641 14.0007 1.5015C14.1757 1.6766 14.3146 1.88447 14.4094 2.11324C14.5042 2.34202 14.5529 2.58721 14.5529 2.83484C14.5529 3.08246 14.5042 3.32766 14.4094 3.55643C14.3146 3.78521 14.1757 3.99307 14.0007 4.16817L5.00065 13.1682L1.33398 14.1682L2.33398 10.5015L11.334 1.5015Z" stroke="#0ABAEE" stroke-linecap="round" stroke-linejoin="round"/>
</svg>
