<svg width="16" height="15" viewBox="0 0 16 15" fill="none" xmlns="http://www.w3.org/2000/svg">
<path d="M11.3335 1.5015C11.5086 1.32641 11.7165 1.18751 11.9452 1.09275C12.174 0.997992 12.4192 0.949219 12.6668 0.949219C12.9145 0.949219 13.1597 0.997992 13.3884 1.09275C13.6172 1.18751 13.8251 1.32641 14.0002 1.5015C14.1753 1.6766 14.3142 1.88447 14.4089 2.11324C14.5037 2.34202 14.5524 2.58721 14.5524 2.83484C14.5524 3.08246 14.5037 3.32766 14.4089 3.55643C14.3142 3.78521 14.1753 3.99307 14.0002 4.16817L5.00016 13.1682L1.3335 14.1682L2.3335 10.5015L11.3335 1.5015Z" stroke="#C3C6C9" stroke-linecap="round" stroke-linejoin="round"/>
</svg>
