<svg width="16" height="12" viewBox="0 0 16 12" fill="none" xmlns="http://www.w3.org/2000/svg">
<path d="M16 7.73329C16 8.13329 15.2 8.39996 14.2667 8.53329C13.6667 7.39996 12.4667 6.53329 11.0667 5.93329C11.2 5.73329 11.3333 5.59996 11.4667 5.39996H12C14.0667 5.33329 16 6.59996 16 7.73329ZM4.53333 5.33329H4C1.93333 5.33329 0 6.59996 0 7.73329C0 8.13329 0.8 8.39996 1.73333 8.53329C2.33333 7.39996 3.53333 6.53329 4.93333 5.93329L4.53333 5.33329ZM8 5.99996C9.46667 5.99996 10.6667 4.79996 10.6667 3.33329C10.6667 1.86663 9.46667 0.666626 8 0.666626C6.53333 0.666626 5.33333 1.86663 5.33333 3.33329C5.33333 4.79996 6.53333 5.99996 8 5.99996ZM8 6.66663C5.26667 6.66663 2.66667 8.39996 2.66667 9.99996C2.66667 11.3333 8 11.3333 8 11.3333C8 11.3333 13.3333 11.3333 13.3333 9.99996C13.3333 8.39996 10.7333 6.66663 8 6.66663ZM11.8 4.66663H12C13.1333 4.66663 14 3.79996 14 2.66663C14 1.53329 13.1333 0.666626 12 0.666626C11.6667 0.666626 11.4 0.733293 11.1333 0.866626C11.6667 1.53329 12 2.39996 12 3.33329C12 3.79996 11.9333 4.26663 11.8 4.66663ZM4 4.66663H4.2C4.06667 4.26663 4 3.79996 4 3.33329C4 2.39996 4.33333 1.53329 4.86667 0.866626C4.6 0.733293 4.33333 0.666626 4 0.666626C2.86667 0.666626 2 1.53329 2 2.66663C2 3.79996 2.86667 4.66663 4 4.66663Z" fill="#C3C6C9"/>
</svg>
