<svg width="24" height="25" viewBox="0 0 24 25" fill="none" xmlns="http://www.w3.org/2000/svg">
<path d="M24 15.1C24 15.7 22.8 16.1 21.4 16.3C20.5 14.6 18.7 13.3 16.6 12.4C16.8 12.1 17 11.9 17.2 11.6H18C21.1 11.5 24 13.4 24 15.1ZM6.8 11.5H6C2.9 11.5 0 13.4 0 15.1C0 15.7 1.2 16.1 2.6 16.3C3.5 14.6 5.3 13.3 7.4 12.4L6.8 11.5ZM12 12.5C14.2 12.5 16 10.7 16 8.5C16 6.3 14.2 4.5 12 4.5C9.8 4.5 8 6.3 8 8.5C8 10.7 9.8 12.5 12 12.5ZM12 13.5C7.9 13.5 4 16.1 4 18.5C4 20.5 12 20.5 12 20.5C12 20.5 20 20.5 20 18.5C20 16.1 16.1 13.5 12 13.5ZM17.7 10.5H18C19.7 10.5 21 9.2 21 7.5C21 5.8 19.7 4.5 18 4.5C17.5 4.5 17.1 4.6 16.7 4.8C17.5 5.8 18 7.1 18 8.5C18 9.2 17.9 9.9 17.7 10.5ZM6 10.5H6.3C6.1 9.9 6 9.2 6 8.5C6 7.1 6.5 5.8 7.3 4.8C6.9 4.6 6.5 4.5 6 4.5C4.3 4.5 3 5.8 3 7.5C3 9.2 4.3 10.5 6 10.5Z" fill="#C3C6C9"/>
</svg>
