<svg width="120" height="36" viewBox="0 0 120 36" fill="none" xmlns="http://www.w3.org/2000/svg">
<path fill-rule="evenodd" clip-rule="evenodd" d="M65.9919 13.5425C66.3914 12.4682 67.0705 11.7363 68.0805 11.7363C68.9511 11.7363 69.4312 12.3725 69.6641 12.92C69.8994 13.473 69.9703 14.1061 69.9703 14.5213V15.1181H68.7768V14.5213C68.7768 14.2071 68.7185 13.7461 68.5658 13.3873C68.4108 13.0231 68.2444 12.9299 68.0805 12.9299C67.7976 12.9299 67.4324 13.0932 67.1107 13.9584C66.7876 14.8273 66.5886 16.2339 66.5886 18.3009C66.5886 20.4178 66.5914 21.963 66.7891 22.9868C66.8875 23.4959 67.0205 23.7928 67.1599 23.9567C67.2725 24.0893 67.4161 24.1692 67.6827 24.1692C68.0923 24.1692 68.3387 23.9701 68.5139 23.6552C68.7046 23.3125 68.7768 22.8731 68.7768 22.5778V19.395H67.4838V18.2014H69.9703V22.5778C69.9703 23.0118 69.8735 23.6665 69.5569 24.2355C69.2248 24.8324 68.6258 25.3627 67.6827 25.3627C67.1039 25.3627 66.6134 25.1567 66.2505 24.7297C65.9143 24.3342 65.7303 23.7981 65.6172 23.2131C65.395 22.0627 65.395 20.4016 65.3951 18.3746V18.3009C65.3951 16.1904 65.5939 14.6131 65.9919 13.5425ZM100.704 11.7363V25.3627H99.5305L97.422 16.9316V25.3627H96.2285V11.7363H97.4023L99.5108 20.1675V11.7363H100.704ZM103.39 11.7363H108.562V12.9299H106.573V25.3627H105.379V12.9299H103.39V11.7363ZM82.5026 13.1359V17.7492C82.5684 17.7435 82.6357 17.7336 82.7033 17.7185C82.9844 17.6556 83.2638 17.5066 83.4806 17.2056C83.7015 16.8987 83.8951 16.3808 83.8951 15.5159C83.8951 14.2955 83.5124 13.7118 83.1529 13.4285C82.9483 13.2674 82.7186 13.1775 82.5026 13.1359ZM82.5026 19.2295V25.3627H81.3091V12.0201L81.8151 11.9422C82.3729 11.8564 83.1961 11.9433 83.8914 12.4909C84.6093 13.0564 85.0887 14.0309 85.0887 15.5159C85.0887 16.5535 84.856 17.338 84.4492 17.903C84.1973 18.2528 83.8932 18.498 83.5748 18.6624L85.6393 25.3627H84.5019L82.5026 19.2295ZM30.981 11.9353H31.5777C32.0553 11.9353 32.5051 11.9519 32.8998 12.0334C33.3045 12.117 33.688 12.276 34.0001 12.5862C34.3096 12.8938 34.4958 13.2974 34.6066 13.7728C34.7165 14.2439 34.7605 14.8206 34.7605 15.5159C34.7605 16.5131 34.6073 17.2888 34.2313 17.8607C33.9716 18.2557 33.633 18.5134 33.2533 18.6832L35.3112 25.1538L34.1738 25.5155L32.1745 19.2295V25.3627H30.981V11.9353ZM32.1745 17.7492V13.1437C32.3607 13.155 32.52 13.1737 32.6583 13.2023C32.9156 13.2554 33.0605 13.3351 33.1587 13.4327C33.2595 13.5329 33.3655 13.7062 33.4443 14.0439C33.524 14.386 33.567 14.8586 33.567 15.5159C33.567 16.4212 33.4218 16.9193 33.234 17.205C33.0645 17.4629 32.8112 17.621 32.3752 17.7185C32.3076 17.7336 32.2403 17.7435 32.1745 17.7492ZM38.4407 11.9353H42.0213V13.1288H39.6342V17.7041H42.0213V18.8976H39.6342V24.1692H42.0213V25.3627H38.4407V11.9353ZM46.895 11.9353V25.3627H45.7014V11.9353H46.895ZM51.1215 12.659C51.6301 12.1152 52.3098 11.9353 52.9622 11.9353C53.3611 11.9353 53.8188 12.0269 54.1943 12.2951C54.5968 12.5826 54.852 13.038 54.852 13.6261V14.2229H53.6585V13.6261C53.6585 13.4185 53.5854 13.3269 53.5006 13.2663C53.3887 13.1864 53.1999 13.1288 52.9622 13.1288C52.5205 13.1288 52.2056 13.2472 51.9931 13.4743C51.7741 13.7085 51.5697 14.1582 51.5697 15.0186C51.5697 15.7852 51.7478 16.321 52.0007 16.7528C52.2637 17.2017 52.6183 17.5606 53.0361 17.9783L53.056 17.9982C53.4541 18.3963 53.9106 18.8527 54.2573 19.4445C54.6198 20.0633 54.852 20.8081 54.852 21.7821C54.852 22.9601 54.678 23.8605 54.2462 24.475C53.7775 25.142 53.0894 25.3627 52.3654 25.3627C51.6044 25.3627 51.0828 25.0028 50.7719 24.5638C50.4822 24.1548 50.3762 23.6833 50.3762 23.3735V22.7767H51.5697V23.3735C51.5697 23.4614 51.6129 23.6862 51.7459 23.874C51.8577 24.0318 52.0324 24.1692 52.3654 24.1692C52.835 24.1692 53.0919 24.0418 53.2696 23.7888C53.4844 23.4832 53.6585 22.8917 53.6585 21.7821C53.6585 21.0154 53.4804 20.4796 53.2274 20.0478C52.9645 19.5989 52.6099 19.2401 52.1921 18.8223L52.1722 18.8024C51.774 18.4043 51.3176 17.9479 50.9709 17.3561C50.6084 16.7373 50.3762 15.9926 50.3762 15.0186C50.3762 13.9892 50.6194 13.1957 51.1215 12.659ZM58.5321 11.9353H62.1128V13.1288H59.7257V17.7041H62.1128V18.8976H59.7257V24.1692H62.1128V25.3627H58.5321V11.9353ZM112.54 11.9353V25.3627H111.347V11.9353H112.54ZM116.419 11.9353H120V13.1288H117.613V17.7041H120V18.8976H117.613V24.1692H120V25.3627H116.419V11.9353ZM74.7283 21.1853H76.2822L75.5251 16.2049L74.7283 21.1853ZM76.4636 22.3788L76.9297 25.3627H78.1097L76.1302 11.9353H74.951L72.8674 25.3627H74.046L74.5373 22.3788H76.4636ZM89.6477 21.1853H91.2015L90.4445 16.2049L89.6477 21.1853ZM91.383 22.3788L91.8491 25.3627H93.0291L91.0497 11.7363H89.8704L87.7868 25.3627H88.9654L89.4567 22.3788H91.383Z" fill="#1B242D"/>
<path d="M14.47 33.6184C14.47 17.4503 26.4506 4.08036 42.0185 1.90205C38.5691 0.670616 34.8533 0 30.9808 0C16.6622 0 4.48509 9.16859 0 21.9551L14.5395 35.7446C14.4934 35.0418 14.47 34.3328 14.47 33.6184Z" fill="#E31A22"/>
<path fill-rule="evenodd" clip-rule="evenodd" d="M19.2922 16.7098H16.2605V11.9355H12.282V16.7098H7.50781V20.6883H12.282V25.4625H15.5178C15.7339 24.6394 15.982 23.8292 16.2605 23.0334V20.6883H17.1874C17.7971 19.3082 18.5014 17.9793 19.2922 16.7098Z" fill="white"/>
</svg>
