<svg width="16" height="16" viewBox="0 0 16 16" fill="none" xmlns="http://www.w3.org/2000/svg">
<path fill-rule="evenodd" clip-rule="evenodd" d="M14.0003 7.03359V3.99992C14.0003 3.55789 13.8247 3.13397 13.5122 2.82141C13.1996 2.50885 12.7757 2.33325 12.3337 2.33325H3.66699C3.22497 2.33325 2.80104 2.50885 2.48848 2.82141C2.17592 3.13397 2.00033 3.55789 2.00033 3.99992V7.03359C1.68251 7.09846 1.38794 7.25528 1.15515 7.48807C0.842587 7.80063 0.666992 8.22456 0.666992 8.66658V11.6666C0.666992 12.0348 0.965469 12.3333 1.33366 12.3333V12.9999C1.33366 13.3681 1.63214 13.6666 2.00033 13.6666C2.36852 13.6666 2.66699 13.3681 2.66699 12.9999V12.3333H13.3337V12.9999C13.3337 13.3681 13.6321 13.6666 14.0003 13.6666C14.3685 13.6666 14.667 13.3681 14.667 12.9999V12.3333C15.0352 12.3333 15.3337 12.0348 15.3337 11.6666V8.66658C15.3337 8.22456 15.1581 7.80063 14.8455 7.48807C14.6127 7.25528 14.3181 7.09846 14.0003 7.03359ZM3.43129 3.76422C3.4938 3.7017 3.57859 3.66659 3.66699 3.66659H12.3337C12.4221 3.66659 12.5068 3.7017 12.5694 3.76422C12.6319 3.82673 12.667 3.91151 12.667 3.99992V5.99991C12.6199 5.93718 12.5683 5.8775 12.5122 5.82141C12.1996 5.50885 11.7757 5.33325 11.3337 5.33325H9.33366C8.89163 5.33325 8.46771 5.50885 8.15515 5.82141C8.09905 5.8775 8.04737 5.93718 8.00033 5.99991C7.95328 5.93718 7.9016 5.8775 7.8455 5.82141C7.53294 5.50885 7.10902 5.33325 6.66699 5.33325H4.66699C4.22497 5.33325 3.80104 5.50885 3.48848 5.82141C3.43239 5.8775 3.38071 5.93718 3.33366 5.99991V3.99992C3.33366 3.91151 3.36878 3.82673 3.43129 3.76422ZM2.33366 8.33325C2.24525 8.33325 2.16047 8.36837 2.09796 8.43088C2.03544 8.49339 2.00033 8.57818 2.00033 8.66658V10.9999H14.0003V8.66658C14.0003 8.57818 13.9652 8.4934 13.9027 8.43088C13.8402 8.36837 13.7554 8.33325 13.667 8.33325H2.33366Z" fill="#9C9EA1"/>
</svg>
