<svg width="16" height="16" viewBox="0 0 16 16" fill="none" xmlns="http://www.w3.org/2000/svg">
<path fill-rule="evenodd" clip-rule="evenodd" d="M8.95829 12.694L12.6992 8.95307C12.8935 8.75756 13.0026 8.49309 13.0026 8.21742C13.0026 7.94174 12.8935 7.67727 12.6992 7.48176L8.21742 3H3V8.21742L7.48176 12.694C7.57867 12.791 7.69376 12.8679 7.82043 12.9205C7.94711 12.973 8.0829 13 8.22003 13C8.35716 13 8.49294 12.973 8.61962 12.9205C8.74629 12.8679 8.86138 12.791 8.95829 12.694ZM5.60884 4.82584C5.17661 4.82584 4.82622 5.17623 4.82622 5.60845C4.82622 6.04068 5.17661 6.39107 5.60884 6.39107H5.61405C6.04628 6.39107 6.39667 6.04068 6.39667 5.60845C6.39667 5.17623 6.04628 4.82584 5.61405 4.82584H5.60884Z" fill="white"/>
</svg>
