<svg width="41" height="40" viewBox="0 0 41 40" fill="none" xmlns="http://www.w3.org/2000/svg">
<path d="M35.4777 15.0382C35.2694 15.0832 32.4727 15.7348 28.8893 17.9948C28.351 15.3832 26.7577 10.4932 22.0427 5.51983L20.8327 4.24316L19.6227 5.5215C14.891 10.5132 13.3043 15.4165 12.771 18.0448C9.17435 15.7465 6.39935 15.0865 6.19602 15.0398L4.16602 14.5865V16.6665C4.16602 28.8165 10.7077 36.6665 20.8327 36.6665C30.801 36.6665 37.4993 28.6298 37.4993 16.6665V14.5965L35.4777 15.0382ZM15.831 20.0632C15.8343 20.0082 16.0843 14.8965 20.8327 9.1765C25.5227 14.8432 25.831 19.9998 25.8327 19.9998V20.2082C23.9636 21.7614 22.2802 23.5253 20.816 25.4648C19.3476 23.5595 17.6761 21.8198 15.831 20.2765V20.0632ZM20.8327 33.3332C11.9727 33.3332 8.25102 26.3398 7.60435 19.0598C10.3627 20.2565 15.2977 23.1032 19.4493 29.2648L20.851 31.3465L22.226 29.2465C26.2694 23.0665 31.2677 20.2282 34.0527 19.0432C33.3893 26.0898 29.6727 33.3332 20.8327 33.3332Z" fill="#0ABAEE"/>
</svg>
