<svg width="144" height="31" viewBox="0 0 144 31" fill="none" xmlns="http://www.w3.org/2000/svg">
<path d="M51.9138 12.4648L44.8457 0.0346985L48.9891 0.0346983L56.0572 12.4648L51.9138 12.4648Z" fill="#1C3670"/>
<path d="M42.6531 29.0352L35.585 16.605L39.7283 16.605L46.7965 29.0352L42.6531 29.0352Z" fill="#1C3670"/>
<path d="M56.301 12.4648L63.3691 0.0346985L59.2258 0.0346983L52.1576 12.4648L56.301 12.4648Z" fill="#B5C000"/>
<path d="M47.0398 29.0352L54.1079 16.605L49.9645 16.605L42.8964 29.0352L47.0398 29.0352Z" fill="#B5C000"/>
<path fill-rule="evenodd" clip-rule="evenodd" d="M39.1187 0.03125C41.6089 0.03125 43.3839 1.56253 43.3839 4.54022V5.45682C43.3839 7.38986 41.4341 8.56174 40.7665 8.56174L43.3839 12.4614H38.7531L36.3794 9.0492H31.4412V12.4614H27.2979V0.03125H39.1187ZM31.4412 2.95599H37.9C38.775 2.95599 39.4843 3.66528 39.4843 4.54022C39.4843 5.41517 38.775 6.12446 37.9 6.12446H31.4412V2.95599Z" fill="#1C3670"/>
<path d="M23.886 0.03125V2.95599H12.5526C12.0815 2.95599 11.6995 3.33791 11.6995 3.80904C11.6995 4.28017 12.0815 4.66209 12.5526 4.66209H19.9863C22.14 4.66209 23.886 6.40802 23.886 8.56174C23.886 10.7155 22.14 12.4614 19.9863 12.4614H7.55615V9.53666H18.7677C19.3061 9.53666 19.7426 9.10017 19.7426 8.56174C19.7426 8.02331 19.3061 7.58683 18.7677 7.58683H11.3339C9.24753 7.58683 7.55615 5.89545 7.55615 3.80904C7.55615 1.72262 9.24753 0.03125 11.3339 0.03125H23.886Z" fill="#1C3670"/>
<path d="M33.8786 16.6016V19.5263H22.5453C22.0741 19.5263 21.6922 19.9082 21.6922 20.3794C21.6922 20.8505 22.0741 21.2324 22.5453 21.2324H29.979C32.1327 21.2324 33.8786 22.9783 33.8786 25.1321C33.8786 27.2858 32.1327 29.0317 29.979 29.0317H17.5488V26.107H28.7603C29.2988 26.107 29.7352 25.6705 29.7352 25.1321C29.7352 24.5936 29.2988 24.1571 28.7603 24.1571H21.3266C19.2402 24.1571 17.5488 22.4658 17.5488 20.3794C17.5488 18.2929 19.2402 16.6016 21.3266 16.6016H33.8786Z" fill="#1C3670"/>
<path d="M14.8674 16.6016V19.5263H3.89965V21.2324H14.8674V24.1571H3.89965V29.0317H0V16.6016H14.8674Z" fill="#1C3670"/>
<path d="M71.4553 12.5339C71.8063 12.5339 72.1106 12.4784 72.3683 12.3673C72.6282 12.2563 72.8282 12.0996 72.9681 11.8975C73.1103 11.6931 73.1814 11.4532 73.1814 11.1777V11.1744C73.1814 10.819 73.0736 10.5391 72.8581 10.3347C72.6427 10.1303 72.2894 9.97258 71.7985 9.8615L71.272 9.74488C70.9232 9.6649 70.6678 9.55494 70.5056 9.41499C70.3434 9.27281 70.2623 9.09065 70.2623 8.8685V8.86184C70.2623 8.68856 70.3101 8.5375 70.4056 8.40865C70.5034 8.27759 70.64 8.1754 70.8155 8.10209C70.991 8.02878 71.1943 7.99213 71.4253 7.99213C71.6519 7.99213 71.8518 8.02989 72.0251 8.10542C72.1984 8.17873 72.3372 8.28314 72.4416 8.41865C72.5482 8.55416 72.6138 8.71633 72.6382 8.90515L72.6415 8.94847H73.0947L73.0914 8.90182C73.0736 8.63747 72.9914 8.40643 72.8448 8.20872C72.7004 8.00879 72.5071 7.85328 72.265 7.74221C72.0229 7.62891 71.7463 7.57227 71.4353 7.57227C71.1198 7.57227 70.8388 7.6278 70.5922 7.73888C70.3456 7.84995 70.1524 8.00323 70.0124 8.19872C69.8725 8.39421 69.8014 8.61969 69.7992 8.87516V8.8785C69.7992 9.22061 69.908 9.49607 70.1257 9.70489C70.3456 9.91149 70.6878 10.0681 71.152 10.1747L71.6785 10.2914C72.0495 10.3758 72.3161 10.4891 72.4783 10.6312C72.6404 10.7712 72.7215 10.9589 72.7215 11.1944V11.1977C72.7215 11.3821 72.6693 11.5443 72.5649 11.6842C72.4627 11.822 72.3183 11.9286 72.1317 12.0041C71.9473 12.0774 71.7296 12.1141 71.4786 12.1141C71.2254 12.1141 71.0021 12.0774 70.8088 12.0041C70.6156 11.9286 70.4612 11.8231 70.3456 11.6876C70.2301 11.5498 70.1613 11.3888 70.139 11.2044L70.1324 11.1577H69.6792L69.6825 11.2044C69.7025 11.4732 69.7881 11.7076 69.9391 11.9075C70.0924 12.1074 70.2979 12.2618 70.5556 12.3707C70.8155 12.4795 71.1154 12.5339 71.4553 12.5339Z" fill="#1B242D"/>
<path d="M75.3205 12.5206C75.5738 12.5206 75.8004 12.4717 76.0003 12.374C76.2002 12.2763 76.3635 12.143 76.4901 11.9741C76.619 11.8053 76.7001 11.6131 76.7334 11.3977L76.74 11.371H76.3069L76.3002 11.401C76.2469 11.6165 76.1347 11.792 75.9636 11.9275C75.7948 12.0608 75.5804 12.1274 75.3205 12.1274C75.0962 12.1274 74.8984 12.0719 74.7274 11.9608C74.5586 11.8475 74.4275 11.6865 74.3342 11.4776C74.2409 11.2688 74.1942 11.0189 74.1942 10.7279V10.7245C74.1942 10.438 74.2409 10.1903 74.3342 9.98146C74.4275 9.77042 74.5574 9.60825 74.7241 9.49496C74.8929 9.37944 75.0895 9.32168 75.3139 9.32168C75.5871 9.32168 75.807 9.39277 75.9736 9.53495C76.1425 9.6749 76.2513 9.84595 76.3002 10.0481L76.3069 10.0781H76.7367L76.7334 10.0481C76.7023 9.84817 76.6256 9.66379 76.5035 9.49496C76.3835 9.32613 76.2224 9.1895 76.0203 9.08509C75.8204 8.98069 75.5849 8.92848 75.3139 8.92848C75.0006 8.92848 74.7252 9.00179 74.4875 9.14841C74.252 9.29502 74.0687 9.50273 73.9376 9.77153C73.8088 10.0381 73.7444 10.3536 73.7444 10.7179V10.7212C73.7444 11.0878 73.8088 11.4054 73.9376 11.6742C74.0665 11.943 74.2487 12.1519 74.4841 12.3007C74.7218 12.4473 75.0006 12.5206 75.3205 12.5206Z" fill="#1B242D"/>
<path d="M77.4563 12.4573H77.8962V10.4147C77.8962 10.1992 77.9373 10.0103 78.0195 9.84817C78.1039 9.68378 78.2216 9.55494 78.3727 9.46164C78.5238 9.36833 78.6982 9.32168 78.8959 9.32168C79.1935 9.32168 79.4268 9.41499 79.5956 9.60159C79.7667 9.78819 79.8522 10.0526 79.8522 10.3947V12.4573H80.2887V10.3247C80.2887 10.0426 80.2365 9.79708 80.1321 9.58826C80.0299 9.37944 79.8844 9.21838 79.6956 9.10509C79.509 8.98957 79.2902 8.93181 79.0391 8.93181C78.7637 8.93181 78.5282 8.99512 78.3327 9.12175C78.1372 9.24615 77.9951 9.41387 77.9062 9.62492H77.8962V7.64891H77.4563V12.4573Z" fill="#1B242D"/>
<path d="M81.8381 12.4573H82.3046L83.1643 9.57826H83.1743L84.0373 12.4573H84.5005L85.4869 8.99179H85.0437L84.2673 11.9675H84.2539L83.3909 8.99179H82.9477L82.0847 11.9675H82.0747L81.2949 8.99179H80.8517L81.8381 12.4573Z" fill="#1B242D"/>
<path d="M87.4727 12.5206C87.6593 12.5206 87.8326 12.4962 87.9926 12.4473C88.1525 12.3962 88.2947 12.3251 88.4191 12.234C88.5435 12.1407 88.6457 12.0319 88.7257 11.9075C88.8078 11.7809 88.8645 11.6442 88.8956 11.4976L88.9023 11.4643H88.4691L88.4591 11.4943C88.4213 11.6209 88.358 11.732 88.2691 11.8275C88.1803 11.923 88.0692 11.9975 87.9359 12.0508C87.8026 12.1019 87.6516 12.1274 87.4827 12.1274C87.2517 12.1274 87.0507 12.0752 86.8796 11.9708C86.7085 11.8664 86.5753 11.7153 86.4797 11.5176C86.3864 11.3199 86.3398 11.08 86.3398 10.7979V10.6312C86.3398 10.3558 86.3864 10.1203 86.4797 9.92482C86.5753 9.7271 86.7052 9.57715 86.8696 9.47497C87.034 9.37278 87.2217 9.32168 87.4328 9.32168C87.6438 9.32168 87.8293 9.37167 87.9892 9.47163C88.1514 9.5716 88.278 9.71933 88.3691 9.91482C88.4624 10.1081 88.5091 10.3469 88.5091 10.6312V10.7979L88.7323 10.4813H86.1165V10.8312H88.9456V10.6579C88.9456 10.3114 88.8834 10.0081 88.759 9.74821C88.6368 9.48829 88.4624 9.28725 88.2358 9.14507C88.0114 9.00068 87.7449 8.92848 87.4361 8.92848C87.1273 8.92848 86.8574 9.0029 86.6264 9.15174C86.3953 9.30058 86.2154 9.51051 86.0865 9.78153C85.9599 10.0526 85.8966 10.3691 85.8966 10.7312V10.7345C85.8966 11.0989 85.9599 11.4154 86.0865 11.6842C86.2154 11.9508 86.3975 12.1574 86.633 12.304C86.8685 12.4484 87.1484 12.5206 87.4727 12.5206Z" fill="#1B242D"/>
<path d="M89.7052 12.4573H90.1451V8.99179H89.7052V12.4573ZM89.9251 8.36533C90.0073 8.36533 90.0762 8.33757 90.1317 8.28203C90.1895 8.22427 90.2184 8.15429 90.2184 8.0721C90.2184 7.99213 90.1895 7.92437 90.1317 7.86883C90.0762 7.81107 90.0073 7.7822 89.9251 7.7822C89.8451 7.7822 89.7763 7.81107 89.7185 7.86883C89.663 7.92437 89.6352 7.99213 89.6352 8.0721C89.6352 8.15429 89.663 8.22427 89.7185 8.28203C89.7763 8.33757 89.8451 8.36533 89.9251 8.36533Z" fill="#1B242D"/>
<path d="M90.958 12.4573H93.5371V12.0874H91.4678V12.0808L93.5271 9.32502V8.99179H90.9613V9.36167H93.024V9.36833L90.958 12.1307V12.4573Z" fill="#1B242D"/>
<path d="M95.6063 12.5206C95.7929 12.5206 95.9662 12.4962 96.1261 12.4473C96.2861 12.3962 96.4282 12.3251 96.5526 12.234C96.677 12.1407 96.7792 12.0319 96.8592 11.9075C96.9414 11.7809 96.9981 11.6442 97.0292 11.4976L97.0358 11.4643H96.6026L96.5926 11.4943C96.5549 11.6209 96.4916 11.732 96.4027 11.8275C96.3138 11.923 96.2028 11.9975 96.0695 12.0508C95.9362 12.1019 95.7851 12.1274 95.6163 12.1274C95.3853 12.1274 95.1842 12.0752 95.0132 11.9708C94.8421 11.8664 94.7088 11.7153 94.6133 11.5176C94.52 11.3199 94.4733 11.08 94.4733 10.7979V10.6312C94.4733 10.3558 94.52 10.1203 94.6133 9.92482C94.7088 9.7271 94.8388 9.57715 95.0032 9.47497C95.1676 9.37278 95.3553 9.32168 95.5663 9.32168C95.7773 9.32168 95.9628 9.37167 96.1228 9.47163C96.285 9.5716 96.4116 9.71933 96.5027 9.91482C96.596 10.1081 96.6426 10.3469 96.6426 10.6312V10.7979L96.8659 10.4813H94.2501V10.8312H97.0791V10.6579C97.0791 10.3114 97.0169 10.0081 96.8925 9.74821C96.7704 9.48829 96.596 9.28725 96.3694 9.14507C96.145 9.00068 95.8784 8.92848 95.5696 8.92848C95.2609 8.92848 94.9909 9.0029 94.7599 9.15174C94.5289 9.30058 94.3489 9.51051 94.2201 9.78153C94.0935 10.0526 94.0302 10.3691 94.0302 10.7312V10.7345C94.0302 11.0989 94.0935 11.4154 94.2201 11.6842C94.3489 11.9508 94.5311 12.1574 94.7666 12.304C95.0021 12.4484 95.282 12.5206 95.6063 12.5206Z" fill="#1B242D"/>
<path d="M97.8054 12.4573H98.2453V10.3114C98.2453 10.1159 98.2775 9.94592 98.3419 9.80152C98.4086 9.65713 98.5019 9.54605 98.6218 9.4683C98.744 9.38833 98.8862 9.34834 99.0484 9.34834C99.1261 9.34834 99.1939 9.35389 99.2516 9.365C99.3094 9.37389 99.3527 9.38499 99.3816 9.39832V8.96847C99.3549 8.95958 99.3172 8.9507 99.2683 8.94181C99.2194 8.93292 99.1661 8.92848 99.1083 8.92848C98.8973 8.92848 98.7174 8.98957 98.5685 9.11175C98.4219 9.23393 98.3175 9.40166 98.2553 9.61492H98.2453V8.99179H97.8054V12.4573Z" fill="#1B242D"/>
<path d="M101.601 12.4573H102.054V10.488H103.233C103.249 10.488 103.266 10.488 103.283 10.488C103.303 10.488 103.32 10.4869 103.333 10.4846L104.44 12.4573H104.969L103.803 10.4147C104.123 10.3302 104.374 10.1681 104.556 9.92815C104.741 9.68823 104.833 9.39943 104.833 9.06177V9.0551C104.833 8.76853 104.77 8.52084 104.643 8.31202C104.518 8.10098 104.341 7.9377 104.11 7.82218C103.881 7.70667 103.61 7.64891 103.297 7.64891H101.601V12.4573ZM102.054 10.0848V8.05544H103.24C103.591 8.05544 103.866 8.1443 104.066 8.32202C104.266 8.49973 104.366 8.74743 104.366 9.0651V9.07177C104.366 9.39166 104.269 9.64047 104.073 9.81818C103.88 9.9959 103.609 10.0848 103.26 10.0848H102.054Z" fill="#1B242D"/>
<path d="M106.982 12.5206C107.169 12.5206 107.342 12.4962 107.502 12.4473C107.662 12.3962 107.804 12.3251 107.928 12.234C108.053 12.1407 108.155 12.0319 108.235 11.9075C108.317 11.7809 108.374 11.6442 108.405 11.4976L108.411 11.4643H107.978L107.968 11.4943C107.931 11.6209 107.867 11.732 107.778 11.8275C107.69 11.923 107.578 11.9975 107.445 12.0508C107.312 12.1019 107.161 12.1274 106.992 12.1274C106.761 12.1274 106.56 12.0752 106.389 11.9708C106.218 11.8664 106.084 11.7153 105.989 11.5176C105.896 11.3199 105.849 11.08 105.849 10.7979V10.6312C105.849 10.3558 105.896 10.1203 105.989 9.92482C106.084 9.7271 106.214 9.57715 106.379 9.47497C106.543 9.37278 106.731 9.32168 106.942 9.32168C107.153 9.32168 107.339 9.37167 107.498 9.47163C107.661 9.5716 107.787 9.71933 107.878 9.91482C107.972 10.1081 108.018 10.3469 108.018 10.6312V10.7979L108.242 10.4813H105.626V10.8312H108.455V10.6579C108.455 10.3114 108.393 10.0081 108.268 9.74821C108.146 9.48829 107.972 9.28725 107.745 9.14507C107.521 9.00068 107.254 8.92848 106.945 8.92848C106.637 8.92848 106.367 9.0029 106.136 9.15174C105.905 9.30058 105.725 9.51051 105.596 9.78153C105.469 10.0526 105.406 10.3691 105.406 10.7312V10.7345C105.406 11.0989 105.469 11.4154 105.596 11.6842C105.725 11.9508 105.907 12.1574 106.142 12.304C106.378 12.4484 106.658 12.5206 106.982 12.5206Z" fill="#1B242D"/>
<path d="M109.214 12.4573H109.654V8.99179H109.214V12.4573ZM109.434 8.36533C109.517 8.36533 109.585 8.33757 109.641 8.28203C109.699 8.22427 109.728 8.15429 109.728 8.0721C109.728 7.99213 109.699 7.92437 109.641 7.86883C109.585 7.81107 109.517 7.7822 109.434 7.7822C109.354 7.7822 109.286 7.81107 109.228 7.86883C109.172 7.92437 109.144 7.99213 109.144 8.0721C109.144 8.15429 109.172 8.22427 109.228 8.28203C109.286 8.33757 109.354 8.36533 109.434 8.36533Z" fill="#1B242D"/>
<path d="M111.773 12.5206C112.027 12.5206 112.251 12.4784 112.447 12.394C112.644 12.3074 112.8 12.1885 112.913 12.0374C113.026 11.8864 113.083 11.712 113.083 11.5143V11.511C113.083 11.2688 113.01 11.0755 112.863 10.9311C112.719 10.7845 112.473 10.6701 112.127 10.5879L111.607 10.4646C111.378 10.4091 111.214 10.3358 111.114 10.2447C111.014 10.1536 110.964 10.0392 110.964 9.90149V9.89816C110.964 9.78042 110.996 9.67712 111.06 9.58826C111.125 9.49718 111.216 9.4272 111.334 9.37833C111.451 9.32724 111.589 9.30169 111.747 9.30169C111.989 9.30169 112.183 9.36278 112.33 9.48496C112.479 9.60492 112.567 9.76598 112.593 9.96813L112.597 9.99146H113.016L113.013 9.95481C112.997 9.75487 112.935 9.57826 112.826 9.42498C112.72 9.26948 112.574 9.14841 112.39 9.06177C112.208 8.97291 111.993 8.92848 111.747 8.92848C111.507 8.92848 111.294 8.97069 111.107 9.0551C110.923 9.13952 110.777 9.25615 110.67 9.40499C110.566 9.55161 110.514 9.72155 110.514 9.91482V9.91815C110.514 10.1558 110.593 10.3502 110.75 10.5013C110.91 10.6501 111.154 10.7634 111.48 10.8412L112.003 10.9645C112.237 11.02 112.4 11.0922 112.493 11.1811C112.587 11.2699 112.633 11.3899 112.633 11.5409V11.5443C112.633 11.6642 112.598 11.7709 112.527 11.8642C112.458 11.9552 112.359 12.0252 112.23 12.0741C112.103 12.123 111.951 12.1474 111.773 12.1474C111.514 12.1474 111.305 12.0885 111.147 11.9708C110.989 11.8508 110.893 11.6898 110.857 11.4876L110.85 11.4576H110.414L110.417 11.4876C110.439 11.692 110.508 11.8719 110.624 12.0274C110.739 12.1807 110.894 12.3018 111.087 12.3907C111.282 12.4773 111.511 12.5206 111.773 12.5206Z" fill="#1B242D"/>
<path d="M115.215 12.5206C115.402 12.5206 115.575 12.4962 115.735 12.4473C115.895 12.3962 116.037 12.3251 116.162 12.234C116.286 12.1407 116.388 12.0319 116.468 11.9075C116.551 11.7809 116.607 11.6442 116.638 11.4976L116.645 11.4643H116.212L116.202 11.4943C116.164 11.6209 116.101 11.732 116.012 11.8275C115.923 11.923 115.812 11.9975 115.679 12.0508C115.545 12.1019 115.394 12.1274 115.225 12.1274C114.994 12.1274 114.793 12.0752 114.622 11.9708C114.451 11.8664 114.318 11.7153 114.222 11.5176C114.129 11.3199 114.083 11.08 114.083 10.7979V10.6312C114.083 10.3558 114.129 10.1203 114.222 9.92482C114.318 9.7271 114.448 9.57715 114.612 9.47497C114.777 9.37278 114.964 9.32168 115.176 9.32168C115.387 9.32168 115.572 9.37167 115.732 9.47163C115.894 9.5716 116.021 9.71933 116.112 9.91482C116.205 10.1081 116.252 10.3469 116.252 10.6312V10.7979L116.475 10.4813H113.859V10.8312H116.688V10.6579C116.688 10.3114 116.626 10.0081 116.502 9.74821C116.38 9.48829 116.205 9.28725 115.979 9.14507C115.754 9.00068 115.488 8.92848 115.179 8.92848C114.87 8.92848 114.6 9.0029 114.369 9.15174C114.138 9.30058 113.958 9.51051 113.829 9.78153C113.703 10.0526 113.639 10.3691 113.639 10.7312V10.7345C113.639 11.0989 113.703 11.4154 113.829 11.6842C113.958 11.9508 114.14 12.1574 114.376 12.304C114.611 12.4484 114.891 12.5206 115.215 12.5206Z" fill="#1B242D"/>
<path d="M117.415 10.7212H119.564V10.3114H117.415V10.7212Z" fill="#1B242D"/>
<path d="M121.666 12.4573H122.116L123.916 7.64891H123.439L121.9 11.9042H121.886L120.347 7.64891H119.867L121.666 12.4573Z" fill="#1B242D"/>
<path d="M125.462 12.5206C125.648 12.5206 125.822 12.4962 125.982 12.4473C126.141 12.3962 126.284 12.3251 126.408 12.234C126.532 12.1407 126.635 12.0319 126.715 11.9075C126.797 11.7809 126.853 11.6442 126.885 11.4976L126.891 11.4643H126.458L126.448 11.4943C126.41 11.6209 126.347 11.732 126.258 11.8275C126.169 11.923 126.058 11.9975 125.925 12.0508C125.792 12.1019 125.641 12.1274 125.472 12.1274C125.241 12.1274 125.04 12.0752 124.869 11.9708C124.697 11.8664 124.564 11.7153 124.469 11.5176C124.375 11.3199 124.329 11.08 124.329 10.7979V10.6312C124.329 10.3558 124.375 10.1203 124.469 9.92482C124.564 9.7271 124.694 9.57715 124.859 9.47497C125.023 9.37278 125.211 9.32168 125.422 9.32168C125.633 9.32168 125.818 9.37167 125.978 9.47163C126.14 9.5716 126.267 9.71933 126.358 9.91482C126.451 10.1081 126.498 10.3469 126.498 10.6312V10.7979L126.721 10.4813H124.105V10.8312H126.935V10.6579C126.935 10.3114 126.872 10.0081 126.748 9.74821C126.626 9.48829 126.451 9.28725 126.225 9.14507C126 9.00068 125.734 8.92848 125.425 8.92848C125.116 8.92848 124.846 9.0029 124.615 9.15174C124.384 9.30058 124.204 9.51051 124.075 9.78153C123.949 10.0526 123.886 10.3691 123.886 10.7312V10.7345C123.886 11.0989 123.949 11.4154 124.075 11.6842C124.204 11.9508 124.386 12.1574 124.622 12.304C124.857 12.4484 125.137 12.5206 125.462 12.5206Z" fill="#1B242D"/>
<path d="M127.661 12.4573H128.101V10.3114C128.101 10.1159 128.133 9.94592 128.197 9.80152C128.264 9.65713 128.357 9.54605 128.477 9.4683C128.599 9.38833 128.742 9.34834 128.904 9.34834C128.981 9.34834 129.049 9.35389 129.107 9.365C129.165 9.37389 129.208 9.38499 129.237 9.39832V8.96847C129.21 8.95958 129.173 8.9507 129.124 8.94181C129.075 8.93292 129.021 8.92848 128.964 8.92848C128.753 8.92848 128.573 8.98957 128.424 9.11175C128.277 9.23393 128.173 9.40166 128.111 9.61492H128.101V8.99179H127.661V12.4573Z" fill="#1B242D"/>
<path d="M131.513 12.5206C131.806 12.5206 132.063 12.4462 132.282 12.2974C132.502 12.1485 132.673 11.9397 132.796 11.6709C132.918 11.3999 132.979 11.0844 132.979 10.7245V10.7212C132.979 10.3591 132.917 10.0448 132.792 9.7782C132.67 9.5094 132.499 9.30058 132.279 9.15174C132.061 9.0029 131.808 8.92848 131.519 8.92848C131.246 8.92848 131.004 9.00068 130.793 9.14507C130.584 9.28725 130.43 9.4783 130.33 9.71822H130.32V7.64891H129.88V12.4573H130.32V11.7242H130.33C130.432 11.9686 130.586 12.163 130.793 12.3074C131 12.4495 131.239 12.5206 131.513 12.5206ZM131.429 12.1274C131.214 12.1274 131.022 12.0697 130.853 11.9541C130.686 11.8364 130.555 11.672 130.46 11.461C130.364 11.2477 130.316 11.0022 130.316 10.7245V10.7212C130.316 10.4435 130.364 10.1992 130.46 9.98813C130.557 9.77709 130.69 9.61381 130.856 9.49829C131.023 9.38055 131.215 9.32168 131.433 9.32168C131.655 9.32168 131.848 9.37944 132.013 9.49496C132.179 9.60825 132.307 9.77042 132.396 9.98146C132.487 10.1903 132.532 10.4369 132.532 10.7212V10.7245C132.532 11.0089 132.487 11.2566 132.396 11.4676C132.307 11.6787 132.179 11.842 132.013 11.9575C131.848 12.0708 131.654 12.1274 131.429 12.1274Z" fill="#1B242D"/>
<path d="M134.732 12.5206C134.903 12.5206 135.065 12.4917 135.218 12.434C135.371 12.374 135.507 12.2918 135.625 12.1874C135.742 12.083 135.832 11.9608 135.894 11.8209H135.904V12.4573H136.344V10.0848C136.344 9.84928 136.291 9.64491 136.184 9.47163C136.08 9.29836 135.931 9.16507 135.738 9.07177C135.547 8.97624 135.319 8.92848 135.055 8.92848C134.795 8.92848 134.568 8.97291 134.375 9.06177C134.182 9.14841 134.028 9.26837 133.915 9.42165C133.802 9.57493 133.734 9.75154 133.712 9.95147L133.709 9.99146H134.132L134.138 9.95814C134.176 9.76043 134.274 9.60492 134.432 9.49163C134.592 9.37833 134.797 9.32168 135.048 9.32168C135.319 9.32168 135.529 9.39277 135.678 9.53495C135.829 9.67712 135.904 9.87372 135.904 10.1247V11.1544C135.904 11.3388 135.856 11.5054 135.758 11.6542C135.662 11.8031 135.532 11.9208 135.368 12.0075C135.206 12.0919 135.023 12.1341 134.818 12.1341C134.585 12.1341 134.395 12.0763 134.248 11.9608C134.102 11.8431 134.028 11.6887 134.028 11.4976V11.491C134.028 11.2999 134.102 11.1489 134.248 11.0378C134.397 10.9245 134.607 10.8578 134.878 10.8378L136.124 10.7545V10.4113L134.825 10.4946C134.427 10.5191 134.121 10.6179 133.905 10.7912C133.69 10.9622 133.582 11.1955 133.582 11.491V11.4976C133.582 11.6998 133.63 11.8786 133.725 12.0341C133.823 12.1874 133.958 12.3074 134.132 12.394C134.305 12.4784 134.505 12.5206 134.732 12.5206Z" fill="#1B242D"/>
<path d="M137.221 12.4573H137.66V10.4047C137.66 10.1869 137.702 9.99812 137.784 9.83818C137.868 9.67601 137.986 9.54938 138.137 9.4583C138.288 9.36722 138.465 9.32168 138.667 9.32168C138.962 9.32168 139.188 9.4061 139.343 9.57493C139.499 9.74376 139.576 9.98924 139.576 10.3114V12.4573H140.016V10.238C140.016 9.82929 139.909 9.5094 139.693 9.27836C139.478 9.04733 139.178 8.93181 138.793 8.93181C138.516 8.93181 138.281 8.99401 138.09 9.11842C137.899 9.2406 137.759 9.3961 137.67 9.58493H137.66V8.99179H137.221V12.4573Z" fill="#1B242D"/>
<path d="M142.189 12.5206C142.464 12.5206 142.704 12.4495 142.909 12.3074C143.115 12.1652 143.268 11.9741 143.368 11.7342H143.385V12.4573H143.822V7.64891H143.385V9.71822H143.372C143.274 9.4783 143.12 9.28725 142.909 9.14507C142.7 9.00068 142.459 8.92848 142.185 8.92848C141.897 8.92848 141.642 9.0029 141.422 9.15174C141.205 9.30058 141.034 9.5094 140.909 9.7782C140.785 10.0448 140.723 10.3591 140.723 10.7212V10.7245C140.723 11.0844 140.784 11.3999 140.906 11.6709C141.03 11.9397 141.202 12.1485 141.422 12.2974C141.642 12.4462 141.898 12.5206 142.189 12.5206ZM142.272 12.1274C142.05 12.1274 141.856 12.0708 141.689 11.9575C141.525 11.842 141.397 11.6787 141.306 11.4676C141.217 11.2566 141.172 11.0089 141.172 10.7245V10.7212C141.172 10.4369 141.217 10.1903 141.306 9.98146C141.397 9.77042 141.525 9.60825 141.689 9.49496C141.856 9.37944 142.05 9.32168 142.272 9.32168C142.49 9.32168 142.682 9.38055 142.849 9.49829C143.015 9.61381 143.146 9.77709 143.242 9.98813C143.337 10.1992 143.385 10.4435 143.385 10.7212V10.7245C143.385 11.0022 143.337 11.2477 143.242 11.461C143.148 11.672 143.017 11.8364 142.849 11.9541C142.682 12.0697 142.49 12.1274 142.272 12.1274Z" fill="#1B242D"/>
<path d="M64.3071 20.7464H64.7603V18.5604H66.9729V18.1572H64.7603V16.3478H67.1662V15.938H64.3071V20.7464Z" fill="#1B242D"/>
<path d="M68.9989 20.8097C69.1855 20.8097 69.3588 20.7852 69.5187 20.7364C69.6787 20.6853 69.8208 20.6142 69.9453 20.5231C70.0697 20.4298 70.1718 20.321 70.2518 20.1966C70.334 20.0699 70.3907 19.9333 70.4218 19.7867L70.4284 19.7534H69.9952L69.9852 19.7834C69.9475 19.91 69.8842 20.0211 69.7953 20.1166C69.7064 20.2121 69.5954 20.2865 69.4621 20.3398C69.3288 20.3909 69.1777 20.4165 69.0089 20.4165C68.7779 20.4165 68.5768 20.3643 68.4058 20.2599C68.2347 20.1555 68.1014 20.0044 68.0059 19.8067C67.9126 19.609 67.8659 19.369 67.8659 19.0869V18.9203C67.8659 18.6448 67.9126 18.4094 68.0059 18.2139C68.1014 18.0162 68.2314 17.8662 68.3958 17.764C68.5602 17.6618 68.7479 17.6107 68.9589 17.6107C69.17 17.6107 69.3554 17.6607 69.5154 17.7607C69.6776 17.8607 69.8042 18.0084 69.8953 18.2039C69.9886 18.3972 70.0352 18.636 70.0352 18.9203V19.0869L70.2585 18.7704H67.6427V19.1202H70.4717V18.947C70.4717 18.6004 70.4095 18.2972 70.2851 18.0373C70.163 17.7774 69.9886 17.5763 69.762 17.4341C69.5376 17.2897 69.271 17.2175 68.9622 17.2175C68.6535 17.2175 68.3835 17.292 68.1525 17.4408C67.9215 17.5896 67.7415 17.7996 67.6127 18.0706C67.4861 18.3416 67.4228 18.6582 67.4228 19.0203V19.0236C67.4228 19.3879 67.4861 19.7045 67.6127 19.9733C67.7415 20.2399 67.9237 20.4465 68.1592 20.5931C68.3947 20.7375 68.6746 20.8097 68.9989 20.8097ZM69.1122 16.8943L69.792 15.9013H69.3255L68.759 16.8943H69.1122Z" fill="#1B242D"/>
<path d="M72.3544 20.8097C72.6299 20.8097 72.8698 20.7386 73.0742 20.5964C73.2808 20.4542 73.4341 20.2632 73.5341 20.0233H73.5507V20.7464H73.9872V15.938H73.5507V18.0073H73.5374C73.4396 17.7674 73.2853 17.5763 73.0742 17.4341C72.8654 17.2897 72.6244 17.2175 72.3511 17.2175C72.0623 17.2175 71.808 17.292 71.588 17.4408C71.3703 17.5896 71.1993 17.7985 71.0749 18.0673C70.9505 18.3338 70.8883 18.6482 70.8883 19.0103V19.0136C70.8883 19.3735 70.9494 19.6889 71.0715 19.96C71.1959 20.2288 71.3681 20.4376 71.588 20.5864C71.808 20.7353 72.0634 20.8097 72.3544 20.8097ZM72.4378 20.4165C72.2156 20.4165 72.0212 20.3598 71.8546 20.2465C71.6902 20.131 71.5625 19.9677 71.4714 19.7567C71.3826 19.5457 71.3381 19.298 71.3381 19.0136V19.0103C71.3381 18.7259 71.3826 18.4793 71.4714 18.2705C71.5625 18.0595 71.6902 17.8973 71.8546 17.784C72.0212 17.6685 72.2156 17.6107 72.4378 17.6107C72.6555 17.6107 72.8476 17.6696 73.0142 17.7874C73.1808 17.9029 73.3119 18.0661 73.4074 18.2772C73.503 18.4882 73.5507 18.7326 73.5507 19.0103V19.0136C73.5507 19.2913 73.503 19.5368 73.4074 19.75C73.3141 19.9611 73.1831 20.1255 73.0142 20.2432C72.8476 20.3587 72.6555 20.4165 72.4378 20.4165Z" fill="#1B242D"/>
<path d="M76.1832 20.8097C76.3698 20.8097 76.5431 20.7852 76.703 20.7364C76.8629 20.6853 77.0051 20.6142 77.1295 20.5231C77.2539 20.4298 77.3561 20.321 77.4361 20.1966C77.5183 20.0699 77.5749 19.9333 77.606 19.7867L77.6127 19.7534H77.1795L77.1695 19.7834C77.1317 19.91 77.0684 20.0211 76.9796 20.1166C76.8907 20.2121 76.7796 20.2865 76.6464 20.3398C76.5131 20.3909 76.362 20.4165 76.1932 20.4165C75.9621 20.4165 75.7611 20.3643 75.59 20.2599C75.419 20.1555 75.2857 20.0044 75.1902 19.8067C75.0969 19.609 75.0502 19.369 75.0502 19.0869V18.9203C75.0502 18.6448 75.0969 18.4094 75.1902 18.2139C75.2857 18.0162 75.4157 17.8662 75.58 17.764C75.7444 17.6618 75.9321 17.6107 76.1432 17.6107C76.3542 17.6107 76.5397 17.6607 76.6997 17.7607C76.8618 17.8607 76.9885 18.0084 77.0795 18.2039C77.1728 18.3972 77.2195 18.636 77.2195 18.9203V19.0869L77.4428 18.7704H74.827V19.1202H77.656V18.947C77.656 18.6004 77.5938 18.2972 77.4694 18.0373C77.3472 17.7774 77.1728 17.5763 76.9463 17.4341C76.7219 17.2897 76.4553 17.2175 76.1465 17.2175C75.8377 17.2175 75.5678 17.292 75.3368 17.4408C75.1058 17.5896 74.9258 17.7996 74.797 18.0706C74.6703 18.3416 74.607 18.6582 74.607 19.0203V19.0236C74.607 19.3879 74.6703 19.7045 74.797 19.9733C74.9258 20.2399 75.108 20.4465 75.3435 20.5931C75.5789 20.7375 75.8588 20.8097 76.1832 20.8097ZM76.2965 16.8943L76.9762 15.9013H76.5097L75.9433 16.8943H76.2965Z" fill="#1B242D"/>
<path d="M78.2458 20.7464H78.6857V18.6004C78.6857 18.4049 78.7179 18.235 78.7823 18.0906C78.849 17.9462 78.9423 17.8351 79.0622 17.7574C79.1844 17.6774 79.3266 17.6374 79.4887 17.6374C79.5665 17.6374 79.6342 17.643 79.692 17.6541C79.7498 17.663 79.7931 17.6741 79.822 17.6874V17.2575C79.7953 17.2486 79.7575 17.2398 79.7087 17.2309C79.6598 17.222 79.6065 17.2175 79.5487 17.2175C79.3377 17.2175 79.1577 17.2786 79.0089 17.4008C78.8623 17.523 78.7579 17.6907 78.6957 17.904H78.6857V17.2809H78.2458V20.7464Z" fill="#1B242D"/>
<path d="M81.2182 20.8097C81.3892 20.8097 81.5514 20.7808 81.7047 20.723C81.858 20.6631 81.9935 20.5809 82.1112 20.4765C82.2289 20.372 82.3189 20.2499 82.3811 20.1099H82.3911V20.7464H82.831V18.3738C82.831 18.1383 82.7776 17.934 82.671 17.7607C82.5666 17.5874 82.4178 17.4541 82.2245 17.3608C82.0334 17.2653 81.8057 17.2175 81.5414 17.2175C81.2815 17.2175 81.0549 17.262 80.8616 17.3508C80.6683 17.4375 80.5151 17.5574 80.4018 17.7107C80.2885 17.864 80.2207 18.0406 80.1985 18.2405L80.1952 18.2805H80.6184L80.625 18.2472C80.6628 18.0495 80.7605 17.894 80.9183 17.7807C81.0782 17.6674 81.2837 17.6107 81.5347 17.6107C81.8057 17.6107 82.0157 17.6818 82.1645 17.824C82.3156 17.9662 82.3911 18.1628 82.3911 18.4138V19.4435C82.3911 19.6279 82.3422 19.7945 82.2445 19.9433C82.149 20.0921 82.019 20.2099 81.8546 20.2965C81.6925 20.3809 81.5092 20.4231 81.3048 20.4231C81.0715 20.4231 80.8816 20.3654 80.735 20.2499C80.5884 20.1321 80.5151 19.9777 80.5151 19.7867V19.78C80.5151 19.589 80.5884 19.4379 80.735 19.3268C80.8838 19.2135 81.0938 19.1469 81.3648 19.1269L82.611 19.0436V18.7004L81.3115 18.7837C80.9138 18.8081 80.6073 18.907 80.3918 19.0803C80.1763 19.2513 80.0685 19.4846 80.0685 19.78V19.7867C80.0685 19.9888 80.1163 20.1677 80.2118 20.3232C80.3096 20.4765 80.4451 20.5964 80.6184 20.6831C80.7916 20.7675 80.9916 20.8097 81.2182 20.8097Z" fill="#1B242D"/>
<path d="M84.6037 20.8097C84.657 20.8097 84.7092 20.8063 84.7603 20.7997C84.8136 20.7952 84.857 20.7897 84.8903 20.783V20.4265C84.8658 20.4287 84.8358 20.432 84.8003 20.4365C84.767 20.4387 84.7314 20.4398 84.6937 20.4398C84.5315 20.4398 84.4093 20.402 84.3271 20.3265C84.2472 20.251 84.2072 20.1177 84.2072 19.9266V17.6507H84.8903V17.2809H84.2072V16.3445H83.754V17.2809H83.2442V17.6507H83.754V19.9333C83.754 20.2354 83.824 20.4576 83.9639 20.5998C84.1061 20.7397 84.3194 20.8097 84.6037 20.8097Z" fill="#1B242D"/>
<path d="M85.5434 20.7464H85.9832V17.2809H85.5434V20.7464ZM85.7633 16.6544C85.8455 16.6544 85.9144 16.6266 85.9699 16.5711C86.0277 16.5133 86.0566 16.4434 86.0566 16.3612C86.0566 16.2812 86.0277 16.2134 85.9699 16.1579C85.9144 16.1001 85.8455 16.0713 85.7633 16.0713C85.6833 16.0713 85.6145 16.1001 85.5567 16.1579C85.5012 16.2134 85.4734 16.2812 85.4734 16.3612C85.4734 16.4434 85.5012 16.5133 85.5567 16.5711C85.6145 16.6266 85.6833 16.6544 85.7633 16.6544Z" fill="#1B242D"/>
<path d="M88.1825 20.8097C88.498 20.8097 88.7734 20.7364 89.0089 20.5898C89.2444 20.4431 89.4288 20.2365 89.5621 19.97C89.6953 19.7012 89.762 19.3824 89.762 19.0136V19.0069C89.762 18.6382 89.6953 18.3205 89.5621 18.0539C89.4288 17.7874 89.2433 17.5819 89.0056 17.4375C88.7701 17.2909 88.4946 17.2175 88.1792 17.2175C87.8682 17.2175 87.5938 17.2909 87.3561 17.4375C87.1184 17.5819 86.9329 17.7885 86.7996 18.0573C86.6686 18.3238 86.603 18.6404 86.603 19.0069V19.0136C86.603 19.3802 86.6686 19.6978 86.7996 19.9666C86.9329 20.2354 87.1184 20.4431 87.3561 20.5898C87.5938 20.7341 87.8693 20.8075 88.1825 20.8097ZM88.1858 20.4165C87.957 20.4165 87.7582 20.3609 87.5894 20.2499C87.4205 20.1388 87.2884 19.9777 87.1928 19.7667C87.0995 19.5557 87.0529 19.3046 87.0529 19.0136V19.0069C87.0529 18.7159 87.0995 18.466 87.1928 18.2572C87.2884 18.0484 87.4205 17.8884 87.5894 17.7774C87.7582 17.6663 87.9548 17.6107 88.1792 17.6107C88.408 17.6107 88.6068 17.6663 88.7756 17.7774C88.9467 17.8862 89.0789 18.045 89.1722 18.2539C89.2655 18.4627 89.3121 18.7137 89.3121 19.0069V19.0136C89.3121 19.3046 89.2655 19.5557 89.1722 19.7667C89.0789 19.9777 88.9478 20.1388 88.779 20.2499C88.6101 20.3609 88.4124 20.4165 88.1858 20.4165Z" fill="#1B242D"/>
<path d="M90.3485 20.7464H90.7883V18.6937C90.7883 18.476 90.8294 18.2872 90.9116 18.1272C90.996 17.9651 91.1138 17.8384 91.2648 17.7474C91.4159 17.6563 91.5925 17.6107 91.7946 17.6107C92.0901 17.6107 92.3156 17.6952 92.4711 17.864C92.6266 18.0328 92.7043 18.2783 92.7043 18.6004V20.7464H93.1442V18.5271C93.1442 18.1184 93.0365 17.7985 92.821 17.5674C92.6055 17.3364 92.3056 17.2209 91.9213 17.2209C91.6436 17.2209 91.4092 17.2831 91.2182 17.4075C91.0271 17.5297 90.8872 17.6852 90.7983 17.874H90.7883V17.2809H90.3485V20.7464Z" fill="#1B242D"/>
<path d="M96.8996 20.823C97.2506 20.823 97.5549 20.7675 97.8126 20.6564C98.0726 20.5453 98.2725 20.3887 98.4124 20.1866C98.5546 19.9822 98.6257 19.7423 98.6257 19.4668V19.4635C98.6257 19.108 98.518 18.8281 98.3025 18.6237C98.087 18.4194 97.7338 18.2616 97.2428 18.1506L96.7163 18.0339C96.3676 17.954 96.1121 17.844 95.9499 17.704C95.7878 17.5619 95.7067 17.3797 95.7067 17.1576V17.1509C95.7067 16.9776 95.7544 16.8266 95.85 16.6977C95.9477 16.5666 96.0843 16.4645 96.2598 16.3912C96.4353 16.3178 96.6386 16.2812 96.8696 16.2812C97.0962 16.2812 97.2961 16.319 97.4694 16.3945C97.6427 16.4678 97.7815 16.5722 97.8859 16.7077C97.9926 16.8432 98.0581 17.0054 98.0826 17.1942L98.0859 17.2375H98.5391L98.5357 17.1909C98.518 16.9265 98.4358 16.6955 98.2891 16.4978C98.1448 16.2978 97.9515 16.1423 97.7093 16.0313C97.4672 15.918 97.1906 15.8613 96.8796 15.8613C96.5642 15.8613 96.2831 15.9169 96.0366 16.0279C95.79 16.139 95.5967 16.2923 95.4568 16.4878C95.3168 16.6833 95.2457 16.9088 95.2435 17.1642V17.1676C95.2435 17.5097 95.3523 17.7851 95.5701 17.994C95.79 18.2005 96.1321 18.3572 96.5964 18.4638L97.1229 18.5804C97.4939 18.6648 97.7604 18.7781 97.9226 18.9203C98.0848 19.0603 98.1659 19.248 98.1659 19.4835V19.4868C98.1659 19.6712 98.1137 19.8333 98.0092 19.9733C97.9071 20.111 97.7627 20.2177 97.576 20.2932C97.3917 20.3665 97.174 20.4031 96.9229 20.4031C96.6697 20.4031 96.4464 20.3665 96.2532 20.2932C96.0599 20.2177 95.9055 20.1121 95.79 19.9766C95.6745 19.8389 95.6056 19.6778 95.5834 19.4935L95.5767 19.4468H95.1235L95.1269 19.4935C95.1469 19.7623 95.2324 19.9966 95.3834 20.1966C95.5367 20.3965 95.7422 20.5509 95.9999 20.6597C96.2598 20.7686 96.5597 20.823 96.8996 20.823Z" fill="#1B242D"/>
<path d="M100.442 20.8063C100.724 20.8063 100.959 20.7453 101.148 20.6231C101.339 20.4987 101.478 20.3421 101.565 20.1532H101.578V20.7464H102.015V17.2809H101.578V19.3335C101.578 19.549 101.536 19.7378 101.451 19.9C101.367 20.0622 101.249 20.1888 101.098 20.2799C100.947 20.3709 100.771 20.4165 100.568 20.4165C100.275 20.4165 100.05 20.3321 99.8919 20.1632C99.7364 19.9944 99.6587 19.7489 99.6587 19.4268V17.2809H99.2188V19.5001C99.2188 19.7711 99.2677 20.0044 99.3655 20.1999C99.4632 20.3954 99.6032 20.5453 99.7853 20.6497C99.9675 20.7541 100.186 20.8063 100.442 20.8063Z" fill="#1B242D"/>
<path d="M102.811 20.7464H103.251V17.2809H102.811V20.7464ZM103.031 16.6544C103.113 16.6544 103.182 16.6266 103.237 16.5711C103.295 16.5133 103.324 16.4434 103.324 16.3612C103.324 16.2812 103.295 16.2134 103.237 16.1579C103.182 16.1001 103.113 16.0713 103.031 16.0713C102.951 16.0713 102.882 16.1001 102.824 16.1579C102.769 16.2134 102.741 16.2812 102.741 16.3612C102.741 16.4434 102.769 16.5133 102.824 16.5711C102.882 16.6266 102.951 16.6544 103.031 16.6544Z" fill="#1B242D"/>
<path d="M105.234 20.8097C105.487 20.8097 105.711 20.7675 105.907 20.6831C106.104 20.5964 106.26 20.4776 106.373 20.3265C106.486 20.1754 106.543 20.0011 106.543 19.8033V19.8C106.543 19.5579 106.47 19.3646 106.323 19.2202C106.179 19.0736 105.933 18.9592 105.587 18.877L105.067 18.7537C104.838 18.6982 104.674 18.6249 104.574 18.5338C104.474 18.4427 104.424 18.3283 104.424 18.1906V18.1872C104.424 18.0695 104.456 17.9662 104.52 17.8773C104.585 17.7862 104.676 17.7163 104.794 17.6674C104.911 17.6163 105.049 17.5908 105.207 17.5908C105.449 17.5908 105.643 17.6518 105.79 17.774C105.939 17.894 106.027 18.055 106.053 18.2572L106.057 18.2805H106.476L106.473 18.2439C106.458 18.0439 106.395 17.8673 106.286 17.714C106.18 17.5585 106.034 17.4375 105.85 17.3508C105.668 17.262 105.453 17.2175 105.207 17.2175C104.967 17.2175 104.754 17.2598 104.567 17.3442C104.383 17.4286 104.237 17.5452 104.131 17.6941C104.026 17.8407 103.974 18.0106 103.974 18.2039V18.2072C103.974 18.4449 104.053 18.6393 104.211 18.7904C104.37 18.9392 104.614 19.0525 104.94 19.1302L105.463 19.2535C105.697 19.3091 105.86 19.3813 105.953 19.4701C106.047 19.559 106.093 19.6789 106.093 19.83V19.8333C106.093 19.9533 106.058 20.0599 105.987 20.1532C105.918 20.2443 105.819 20.3143 105.69 20.3632C105.563 20.412 105.411 20.4365 105.234 20.4365C104.974 20.4365 104.765 20.3776 104.607 20.2599C104.449 20.1399 104.353 19.9788 104.317 19.7767L104.31 19.7467H103.874L103.877 19.7767C103.9 19.9811 103.968 20.161 104.084 20.3165C104.199 20.4698 104.354 20.5909 104.547 20.6797C104.743 20.7664 104.971 20.8097 105.234 20.8097Z" fill="#1B242D"/>
<path d="M108.326 20.8097C108.579 20.8097 108.803 20.7675 108.999 20.6831C109.197 20.5964 109.352 20.4776 109.465 20.3265C109.579 20.1754 109.635 20.0011 109.635 19.8033V19.8C109.635 19.5579 109.562 19.3646 109.415 19.2202C109.271 19.0736 109.026 18.9592 108.679 18.877L108.159 18.7537C107.93 18.6982 107.766 18.6249 107.666 18.5338C107.566 18.4427 107.516 18.3283 107.516 18.1906V18.1872C107.516 18.0695 107.548 17.9662 107.613 17.8773C107.677 17.7862 107.768 17.7163 107.886 17.6674C108.004 17.6163 108.141 17.5908 108.299 17.5908C108.541 17.5908 108.736 17.6518 108.882 17.774C109.031 17.894 109.119 18.055 109.146 18.2572L109.149 18.2805H109.569L109.565 18.2439C109.55 18.0439 109.488 17.8673 109.379 17.714C109.272 17.5585 109.127 17.4375 108.942 17.3508C108.76 17.262 108.546 17.2175 108.299 17.2175C108.059 17.2175 107.846 17.2598 107.659 17.3442C107.475 17.4286 107.329 17.5452 107.223 17.6941C107.118 17.8407 107.066 18.0106 107.066 18.2039V18.2072C107.066 18.4449 107.145 18.6393 107.303 18.7904C107.463 18.9392 107.706 19.0525 108.033 19.1302L108.556 19.2535C108.789 19.3091 108.952 19.3813 109.046 19.4701C109.139 19.559 109.186 19.6789 109.186 19.83V19.8333C109.186 19.9533 109.15 20.0599 109.079 20.1532C109.01 20.2443 108.911 20.3143 108.782 20.3632C108.656 20.412 108.504 20.4365 108.326 20.4365C108.066 20.4365 107.857 20.3776 107.699 20.2599C107.542 20.1399 107.445 19.9788 107.409 19.7767L107.403 19.7467H106.966L106.97 19.7767C106.992 19.9811 107.061 20.161 107.176 20.3165C107.292 20.4698 107.446 20.5909 107.639 20.6797C107.835 20.7664 108.064 20.8097 108.326 20.8097Z" fill="#1B242D"/>
<path d="M111.631 20.8097C111.818 20.8097 111.991 20.7852 112.151 20.7364C112.311 20.6853 112.453 20.6142 112.578 20.5231C112.702 20.4298 112.804 20.321 112.884 20.1966C112.966 20.0699 113.023 19.9333 113.054 19.7867L113.061 19.7534H112.628L112.618 19.7834C112.58 19.91 112.517 20.0211 112.428 20.1166C112.339 20.2121 112.228 20.2865 112.095 20.3398C111.961 20.3909 111.81 20.4165 111.641 20.4165C111.41 20.4165 111.209 20.3643 111.038 20.2599C110.867 20.1555 110.734 20.0044 110.638 19.8067C110.545 19.609 110.498 19.369 110.498 19.0869V18.9203C110.498 18.6448 110.545 18.4094 110.638 18.2139C110.734 18.0162 110.864 17.8662 111.028 17.764C111.193 17.6618 111.38 17.6107 111.591 17.6107C111.802 17.6107 111.988 17.6607 112.148 17.7607C112.31 17.8607 112.437 18.0084 112.528 18.2039C112.621 18.3972 112.668 18.636 112.668 18.9203V19.0869L112.891 18.7704H110.275V19.1202H113.104V18.947C113.104 18.6004 113.042 18.2972 112.918 18.0373C112.795 17.7774 112.621 17.5763 112.394 17.4341C112.17 17.2897 111.904 17.2175 111.595 17.2175C111.286 17.2175 111.016 17.292 110.785 17.4408C110.554 17.5896 110.374 17.7996 110.245 18.0706C110.119 18.3416 110.055 18.6582 110.055 19.0203V19.0236C110.055 19.3879 110.119 19.7045 110.245 19.9733C110.374 20.2399 110.556 20.4465 110.792 20.5931C111.027 20.7375 111.307 20.8097 111.631 20.8097Z" fill="#1B242D"/>
<path d="M116.386 20.8097C116.662 20.8097 116.902 20.7386 117.106 20.5964C117.313 20.4542 117.466 20.2632 117.566 20.0233H117.583V20.7464H118.019V15.938H117.583V18.0073H117.569C117.472 17.7674 117.317 17.5763 117.106 17.4341C116.897 17.2897 116.656 17.2175 116.383 17.2175C116.094 17.2175 115.84 17.292 115.62 17.4408C115.402 17.5896 115.231 17.7985 115.107 18.0673C114.982 18.3338 114.92 18.6482 114.92 19.0103V19.0136C114.92 19.3735 114.981 19.6889 115.104 19.96C115.228 20.2288 115.4 20.4376 115.62 20.5864C115.84 20.7353 116.095 20.8097 116.386 20.8097ZM116.47 20.4165C116.248 20.4165 116.053 20.3598 115.887 20.2465C115.722 20.131 115.594 19.9677 115.503 19.7567C115.415 19.5457 115.37 19.298 115.37 19.0136V19.0103C115.37 18.7259 115.415 18.4793 115.503 18.2705C115.594 18.0595 115.722 17.8973 115.887 17.784C116.053 17.6685 116.248 17.6107 116.47 17.6107C116.687 17.6107 116.88 17.6696 117.046 17.7874C117.213 17.9029 117.344 18.0661 117.439 18.2772C117.535 18.4882 117.583 18.7326 117.583 19.0103V19.0136C117.583 19.2913 117.535 19.5368 117.439 19.75C117.346 19.9611 117.215 20.1255 117.046 20.2432C116.88 20.3587 116.687 20.4165 116.47 20.4165Z" fill="#1B242D"/>
<path d="M120.015 20.8063C120.297 20.8063 120.533 20.7453 120.722 20.6231C120.913 20.4987 121.052 20.3421 121.138 20.1532H121.152V20.7464H121.588V17.2809H121.152V19.3335C121.152 19.549 121.109 19.7378 121.025 19.9C120.94 20.0622 120.823 20.1888 120.672 20.2799C120.521 20.3709 120.344 20.4165 120.142 20.4165C119.849 20.4165 119.623 20.3321 119.465 20.1632C119.31 19.9944 119.232 19.7489 119.232 19.4268V17.2809H118.792V19.5001C118.792 19.7711 118.841 20.0044 118.939 20.1999C119.037 20.3954 119.177 20.5453 119.359 20.6497C119.541 20.7541 119.76 20.8063 120.015 20.8063Z" fill="#1B242D"/>
<path d="M125.247 20.7464H125.697L127.496 15.938H127.02L125.48 20.1932H125.467L123.927 15.938H123.447L125.247 20.7464Z" fill="#1B242D"/>
<path d="M128.909 20.8097C129.224 20.8097 129.5 20.7364 129.735 20.5898C129.971 20.4431 130.155 20.2365 130.288 19.97C130.422 19.7012 130.488 19.3824 130.488 19.0136V19.0069C130.488 18.6382 130.422 18.3205 130.288 18.0539C130.155 17.7874 129.97 17.5819 129.732 17.4375C129.497 17.2909 129.221 17.2175 128.906 17.2175C128.595 17.2175 128.32 17.2909 128.083 17.4375C127.845 17.5819 127.659 17.7885 127.526 18.0573C127.395 18.3238 127.329 18.6404 127.329 19.0069V19.0136C127.329 19.3802 127.395 19.6978 127.526 19.9666C127.659 20.2354 127.845 20.4431 128.083 20.5898C128.32 20.7341 128.596 20.8075 128.909 20.8097ZM128.912 20.4165C128.683 20.4165 128.485 20.3609 128.316 20.2499C128.147 20.1388 128.015 19.9777 127.919 19.7667C127.826 19.5557 127.779 19.3046 127.779 19.0136V19.0069C127.779 18.7159 127.826 18.466 127.919 18.2572C128.015 18.0484 128.147 17.8884 128.316 17.7774C128.485 17.6663 128.681 17.6107 128.906 17.6107C129.134 17.6107 129.333 17.6663 129.502 17.7774C129.673 17.8862 129.805 18.045 129.899 18.2539C129.992 18.4627 130.039 18.7137 130.039 19.0069V19.0136C130.039 19.3046 129.992 19.5557 129.899 19.7667C129.805 19.9777 129.674 20.1388 129.505 20.2499C129.337 20.3609 129.139 20.4165 128.912 20.4165Z" fill="#1B242D"/>
<path d="M131.212 21.9126C131.409 21.9126 131.576 21.8804 131.711 21.816C131.847 21.7538 131.962 21.6572 132.058 21.5261C132.153 21.395 132.24 21.2273 132.318 21.0229L133.707 17.2809H133.241L132.148 20.4265L132.261 20.3098H132.101L132.215 20.4265L131.122 17.2809H130.648L131.955 20.7697L131.871 20.993C131.796 21.204 131.701 21.3484 131.588 21.4261C131.475 21.5039 131.32 21.5428 131.125 21.5428C131.096 21.5428 131.068 21.5417 131.042 21.5394C131.015 21.5372 130.99 21.5339 130.968 21.5294V21.896C130.999 21.9004 131.037 21.9038 131.082 21.906C131.126 21.9104 131.169 21.9126 131.212 21.9126Z" fill="#1B242D"/>
<path d="M135.087 20.8097C135.258 20.8097 135.42 20.7808 135.573 20.723C135.727 20.6631 135.862 20.5809 135.98 20.4765C136.098 20.372 136.188 20.2499 136.25 20.1099H136.26V20.7464H136.7V18.3738C136.7 18.1383 136.646 17.934 136.54 17.7607C136.435 17.5874 136.286 17.4541 136.093 17.3608C135.902 17.2653 135.674 17.2175 135.41 17.2175C135.15 17.2175 134.924 17.262 134.73 17.3508C134.537 17.4375 134.384 17.5574 134.271 17.7107C134.157 17.864 134.089 18.0406 134.067 18.2405L134.064 18.2805H134.487L134.494 18.2472C134.532 18.0495 134.629 17.894 134.787 17.7807C134.947 17.6674 135.152 17.6107 135.403 17.6107C135.674 17.6107 135.884 17.6818 136.033 17.824C136.184 17.9662 136.26 18.1628 136.26 18.4138V19.4435C136.26 19.6279 136.211 19.7945 136.113 19.9433C136.018 20.0921 135.888 20.2099 135.723 20.2965C135.561 20.3809 135.378 20.4231 135.174 20.4231C134.94 20.4231 134.75 20.3654 134.604 20.2499C134.457 20.1321 134.384 19.9777 134.384 19.7867V19.78C134.384 19.589 134.457 19.4379 134.604 19.3268C134.753 19.2135 134.962 19.1469 135.234 19.1269L136.48 19.0436V18.7004L135.18 18.7837C134.783 18.8081 134.476 18.907 134.261 19.0803C134.045 19.2513 133.937 19.4846 133.937 19.78V19.7867C133.937 19.9888 133.985 20.1677 134.081 20.3232C134.178 20.4765 134.314 20.5964 134.487 20.6831C134.66 20.7675 134.86 20.8097 135.087 20.8097Z" fill="#1B242D"/>
<path d="M138.879 21.976C139.186 21.976 139.45 21.9215 139.672 21.8127C139.894 21.7038 140.065 21.5505 140.185 21.3528C140.305 21.1573 140.365 20.9263 140.365 20.6597V17.2809H139.929V18.0173H139.915C139.853 17.864 139.765 17.7274 139.652 17.6074C139.539 17.4875 139.405 17.393 139.252 17.3242C139.099 17.2531 138.929 17.2175 138.742 17.2175C138.451 17.2175 138.195 17.292 137.973 17.4408C137.753 17.5874 137.579 17.794 137.453 18.0606C137.328 18.3272 137.266 18.6393 137.266 18.997V19.0003C137.266 19.3602 137.327 19.6745 137.449 19.9433C137.574 20.2099 137.746 20.4176 137.966 20.5664C138.188 20.713 138.445 20.7864 138.736 20.7864C138.922 20.7864 139.093 20.753 139.249 20.6864C139.404 20.6197 139.539 20.5287 139.652 20.4131C139.768 20.2954 139.855 20.1599 139.915 20.0066H139.929V20.6197C139.929 20.9152 139.835 21.1496 139.649 21.3228C139.464 21.4961 139.207 21.5828 138.876 21.5828C138.611 21.5828 138.392 21.5361 138.219 21.4428C138.048 21.3517 137.934 21.2362 137.876 21.0963L137.863 21.0663H137.419L137.426 21.0929C137.466 21.2573 137.548 21.4061 137.673 21.5394C137.799 21.6727 137.964 21.7782 138.166 21.856C138.368 21.936 138.606 21.976 138.879 21.976ZM138.822 20.3932C138.6 20.3932 138.406 20.3365 138.239 20.2232C138.073 20.1077 137.944 19.9455 137.853 19.7367C137.762 19.5279 137.716 19.2824 137.716 19.0003V18.997C137.716 18.717 137.762 18.4738 137.853 18.2672C137.944 18.0584 138.073 17.8973 138.239 17.784C138.406 17.6685 138.6 17.6107 138.822 17.6107C139.04 17.6107 139.232 17.6685 139.399 17.784C139.565 17.8995 139.695 18.0617 139.789 18.2705C139.882 18.4771 139.929 18.7193 139.929 18.997V19.0003C139.929 19.278 139.882 19.5212 139.789 19.73C139.695 19.9389 139.565 20.1021 139.399 20.2199C139.232 20.3354 139.04 20.3932 138.822 20.3932Z" fill="#1B242D"/>
<path d="M142.528 20.8097C142.714 20.8097 142.888 20.7852 143.048 20.7364C143.208 20.6853 143.35 20.6142 143.474 20.5231C143.599 20.4298 143.701 20.321 143.781 20.1966C143.863 20.0699 143.92 19.9333 143.951 19.7867L143.957 19.7534H143.524L143.514 19.7834C143.476 19.91 143.413 20.0211 143.324 20.1166C143.235 20.2121 143.124 20.2865 142.991 20.3398C142.858 20.3909 142.707 20.4165 142.538 20.4165C142.307 20.4165 142.106 20.3643 141.935 20.2599C141.764 20.1555 141.63 20.0044 141.535 19.8067C141.441 19.609 141.395 19.369 141.395 19.0869V18.9203C141.395 18.6448 141.441 18.4094 141.535 18.2139C141.63 18.0162 141.76 17.8662 141.925 17.764C142.089 17.6618 142.277 17.6107 142.488 17.6107C142.699 17.6107 142.884 17.6607 143.044 17.7607C143.206 17.8607 143.333 18.0084 143.424 18.2039C143.517 18.3972 143.564 18.636 143.564 18.9203V19.0869L143.787 18.7704H141.172V19.1202H144.001V18.947C144.001 18.6004 143.938 18.2972 143.814 18.0373C143.692 17.7774 143.517 17.5763 143.291 17.4341C143.066 17.2897 142.8 17.2175 142.491 17.2175C142.182 17.2175 141.912 17.292 141.681 17.4408C141.45 17.5896 141.27 17.7996 141.142 18.0706C141.015 18.3416 140.952 18.6582 140.952 19.0203V19.0236C140.952 19.3879 141.015 19.7045 141.142 19.9733C141.27 20.2399 141.453 20.4465 141.688 20.5931C141.924 20.7375 142.203 20.8097 142.528 20.8097Z" fill="#1B242D"/>
<path d="M60.4072 29.0276H60.8604V26.8417H63.073V26.4385H60.8604V24.6291H63.2663V24.2192H60.4072V29.0276Z" fill="#1B242D"/>
<path d="M65.099 29.0909C65.2856 29.0909 65.4589 29.0665 65.6188 29.0176C65.7788 28.9665 65.9209 28.8954 66.0453 28.8044C66.1698 28.7111 66.2719 28.6022 66.3519 28.4778C66.4341 28.3512 66.4908 28.2146 66.5219 28.0679L66.5285 28.0346H66.0953L66.0853 28.0646C66.0476 28.1912 65.9843 28.3023 65.8954 28.3978C65.8065 28.4934 65.6955 28.5678 65.5622 28.6211C65.4289 28.6722 65.2778 28.6977 65.109 28.6977C64.878 28.6977 64.6769 28.6455 64.5059 28.5411C64.3348 28.4367 64.2015 28.2856 64.106 28.0879C64.0127 27.8902 63.966 27.6503 63.966 27.3682V27.2016C63.966 26.9261 64.0127 26.6906 64.106 26.4951C64.2015 26.2974 64.3315 26.1475 64.4959 26.0453C64.6603 25.9431 64.848 25.892 65.059 25.892C65.2701 25.892 65.4555 25.942 65.6155 26.0419C65.7777 26.1419 65.9043 26.2896 65.9954 26.4851C66.0887 26.6784 66.1353 26.9172 66.1353 27.2016V27.3682L66.3586 27.0516H63.7428V27.4015H66.5718V27.2282C66.5718 26.8817 66.5096 26.5784 66.3852 26.3185C66.2631 26.0586 66.0887 25.8576 65.8621 25.7154C65.6377 25.571 65.3711 25.4988 65.0623 25.4988C64.7536 25.4988 64.4836 25.5732 64.2526 25.7221C64.0216 25.8709 63.8416 26.0808 63.7128 26.3518C63.5862 26.6229 63.5229 26.9394 63.5229 27.3015V27.3049C63.5229 27.6692 63.5862 27.9857 63.7128 28.2545C63.8416 28.5211 64.0238 28.7277 64.2593 28.8743C64.4948 29.0187 64.7747 29.0909 65.099 29.0909Z" fill="#1B242D"/>
<path d="M68.4545 29.0909C68.73 29.0909 68.9699 29.0198 69.1743 28.8777C69.3809 28.7355 69.5342 28.5444 69.6342 28.3045H69.6508V29.0276H70.0873V24.2192H69.6508V26.2885H69.6375C69.5397 26.0486 69.3853 25.8576 69.1743 25.7154C68.9655 25.571 68.7245 25.4988 68.4512 25.4988C68.1624 25.4988 67.9081 25.5732 67.6881 25.7221C67.4704 25.8709 67.2994 26.0797 67.175 26.3485C67.0506 26.6151 66.9884 26.9294 66.9884 27.2915V27.2949C66.9884 27.6547 67.0495 27.9702 67.1716 28.2412C67.296 28.51 67.4682 28.7188 67.6881 28.8677C67.9081 29.0165 68.1635 29.0909 68.4545 29.0909ZM68.5379 28.6977C68.3157 28.6977 68.1213 28.6411 67.9547 28.5278C67.7903 28.4123 67.6626 28.249 67.5715 28.0379C67.4826 27.8269 67.4382 27.5792 67.4382 27.2949V27.2915C67.4382 27.0072 67.4826 26.7606 67.5715 26.5518C67.6626 26.3407 67.7903 26.1786 67.9547 26.0653C68.1213 25.9498 68.3157 25.892 68.5379 25.892C68.7556 25.892 68.9477 25.9509 69.1143 26.0686C69.2809 26.1841 69.412 26.3474 69.5075 26.5584C69.6031 26.7695 69.6508 27.0138 69.6508 27.2915V27.2949C69.6508 27.5725 69.6031 27.818 69.5075 28.0313C69.4142 28.2423 69.2832 28.4067 69.1143 28.5245C68.9477 28.64 68.7556 28.6977 68.5379 28.6977Z" fill="#1B242D"/>
<path d="M72.2833 29.0909C72.4699 29.0909 72.6432 29.0665 72.8031 29.0176C72.963 28.9665 73.1052 28.8954 73.2296 28.8044C73.354 28.7111 73.4562 28.6022 73.5362 28.4778C73.6184 28.3512 73.675 28.2146 73.7061 28.0679L73.7128 28.0346H73.2796L73.2696 28.0646C73.2318 28.1912 73.1685 28.3023 73.0797 28.3978C72.9908 28.4934 72.8797 28.5678 72.7464 28.6211C72.6132 28.6722 72.4621 28.6977 72.2933 28.6977C72.0622 28.6977 71.8612 28.6455 71.6901 28.5411C71.5191 28.4367 71.3858 28.2856 71.2903 28.0879C71.197 27.8902 71.1503 27.6503 71.1503 27.3682V27.2016C71.1503 26.9261 71.197 26.6906 71.2903 26.4951C71.3858 26.2974 71.5157 26.1475 71.6801 26.0453C71.8445 25.9431 72.0322 25.892 72.2433 25.892C72.4543 25.892 72.6398 25.942 72.7998 26.0419C72.9619 26.1419 73.0886 26.2896 73.1796 26.4851C73.2729 26.6784 73.3196 26.9172 73.3196 27.2016V27.3682L73.5429 27.0516H70.9271V27.4015H73.7561V27.2282C73.7561 26.8817 73.6939 26.5784 73.5695 26.3185C73.4473 26.0586 73.2729 25.8576 73.0463 25.7154C72.822 25.571 72.5554 25.4988 72.2466 25.4988C71.9378 25.4988 71.6679 25.5732 71.4369 25.7221C71.2059 25.8709 71.0259 26.0808 70.8971 26.3518C70.7704 26.6229 70.7071 26.9394 70.7071 27.3015V27.3049C70.7071 27.6692 70.7704 27.9857 70.8971 28.2545C71.0259 28.5211 71.2081 28.7277 71.4436 28.8743C71.679 29.0187 71.9589 29.0909 72.2833 29.0909Z" fill="#1B242D"/>
<path d="M74.3459 29.0276H74.7858V26.8817C74.7858 26.6862 74.818 26.5162 74.8824 26.3718C74.949 26.2274 75.0424 26.1164 75.1623 26.0386C75.2845 25.9586 75.4267 25.9187 75.5888 25.9187C75.6666 25.9187 75.7343 25.9242 75.7921 25.9353C75.8499 25.9442 75.8932 25.9553 75.9221 25.9686V25.5388C75.8954 25.5299 75.8576 25.521 75.8088 25.5121C75.7599 25.5032 75.7066 25.4988 75.6488 25.4988C75.4378 25.4988 75.2578 25.5599 75.109 25.6821C74.9624 25.8042 74.858 25.972 74.7958 26.1852H74.7858V25.5621H74.3459V29.0276Z" fill="#1B242D"/>
<path d="M77.3183 29.0909C77.4893 29.0909 77.6515 29.0621 77.8048 29.0043C77.958 28.9443 78.0936 28.8621 78.2113 28.7577C78.329 28.6533 78.419 28.5311 78.4812 28.3912H78.4912V29.0276H78.9311V26.6551C78.9311 26.4196 78.8777 26.2152 78.7711 26.0419C78.6667 25.8687 78.5179 25.7354 78.3246 25.6421C78.1335 25.5466 77.9058 25.4988 77.6415 25.4988C77.3816 25.4988 77.155 25.5432 76.9617 25.6321C76.7684 25.7187 76.6152 25.8387 76.5019 25.992C76.3886 26.1452 76.3208 26.3219 76.2986 26.5218L76.2953 26.5618H76.7185L76.7251 26.5285C76.7629 26.3307 76.8606 26.1752 77.0184 26.0619C77.1783 25.9486 77.3838 25.892 77.6348 25.892C77.9058 25.892 78.1158 25.9631 78.2646 26.1053C78.4157 26.2474 78.4912 26.444 78.4912 26.6951V27.7247C78.4912 27.9091 78.4423 28.0757 78.3446 28.2246C78.2491 28.3734 78.1191 28.4911 77.9547 28.5778C77.7925 28.6622 77.6093 28.7044 77.4049 28.7044C77.1716 28.7044 76.9817 28.6466 76.8351 28.5311C76.6885 28.4134 76.6152 28.259 76.6152 28.0679V28.0613C76.6152 27.8702 76.6885 27.7192 76.8351 27.6081C76.9839 27.4948 77.1939 27.4282 77.4649 27.4082L78.7111 27.3249V26.9816L77.4116 27.0649C77.0139 27.0894 76.7074 27.1882 76.4919 27.3615C76.2764 27.5326 76.1686 27.7658 76.1686 28.0613V28.0679C76.1686 28.2701 76.2164 28.4489 76.3119 28.6044C76.4097 28.7577 76.5452 28.8777 76.7185 28.9643C76.8917 29.0487 77.0917 29.0909 77.3183 29.0909Z" fill="#1B242D"/>
<path d="M79.5342 29.0276H82.1133V28.6577H80.044V28.6511L82.1033 25.8953V25.5621H79.5375V25.932H81.6002V25.9386L79.5342 28.7011V29.0276Z" fill="#1B242D"/>
<path d="M82.7898 29.0276H83.2296V25.5621H82.7898V29.0276ZM83.0097 24.9356C83.0919 24.9356 83.1608 24.9079 83.2163 24.8523C83.2741 24.7946 83.3029 24.7246 83.3029 24.6424C83.3029 24.5624 83.2741 24.4947 83.2163 24.4391C83.1608 24.3814 83.0919 24.3525 83.0097 24.3525C82.9297 24.3525 82.8609 24.3814 82.8031 24.4391C82.7476 24.4947 82.7198 24.5624 82.7198 24.6424C82.7198 24.7246 82.7476 24.7946 82.8031 24.8523C82.8609 24.9079 82.9297 24.9356 83.0097 24.9356Z" fill="#1B242D"/>
<path d="M85.4289 29.0909C85.7443 29.0909 86.0198 29.0176 86.2553 28.871C86.4908 28.7244 86.6751 28.5178 86.8084 28.2512C86.9417 27.9824 87.0084 27.6636 87.0084 27.2949V27.2882C87.0084 26.9194 86.9417 26.6018 86.8084 26.3352C86.6751 26.0686 86.4897 25.8631 86.252 25.7187C86.0165 25.5721 85.741 25.4988 85.4256 25.4988C85.1146 25.4988 84.8402 25.5721 84.6025 25.7187C84.3648 25.8631 84.1793 26.0697 84.046 26.3385C83.915 26.6051 83.8494 26.9217 83.8494 27.2882V27.2949C83.8494 27.6614 83.915 27.9791 84.046 28.2479C84.1793 28.5167 84.3648 28.7244 84.6025 28.871C84.8402 29.0154 85.1157 29.0887 85.4289 29.0909ZM85.4322 28.6977C85.2034 28.6977 85.0046 28.6422 84.8358 28.5311C84.6669 28.42 84.5347 28.259 84.4392 28.0479C84.3459 27.8369 84.2993 27.5859 84.2993 27.2949V27.2882C84.2993 26.9972 84.3459 26.7473 84.4392 26.5384C84.5347 26.3296 84.6669 26.1697 84.8358 26.0586C85.0046 25.9475 85.2012 25.892 85.4256 25.892C85.6544 25.892 85.8532 25.9475 86.022 26.0586C86.1931 26.1675 86.3253 26.3263 86.4186 26.5351C86.5119 26.7439 86.5585 26.995 86.5585 27.2882V27.2949C86.5585 27.5859 86.5119 27.8369 86.4186 28.0479C86.3253 28.259 86.1942 28.42 86.0254 28.5311C85.8565 28.6422 85.6588 28.6977 85.4322 28.6977Z" fill="#1B242D"/>
<path d="M87.5948 29.0276H88.0347V26.975C88.0347 26.7573 88.0758 26.5684 88.158 26.4085C88.2424 26.2463 88.3601 26.1197 88.5112 26.0286C88.6623 25.9375 88.8389 25.892 89.041 25.892C89.3365 25.892 89.562 25.9764 89.7175 26.1452C89.873 26.3141 89.9507 26.5596 89.9507 26.8817V29.0276H90.3906V26.8084C90.3906 26.3996 90.2828 26.0797 90.0673 25.8487C89.8519 25.6176 89.552 25.5021 89.1676 25.5021C88.89 25.5021 88.6556 25.5643 88.4645 25.6887C88.2735 25.8109 88.1335 25.9664 88.0447 26.1552H88.0347V25.5621H87.5948V29.0276Z" fill="#1B242D"/>
<path d="M92.5365 29.0909C92.7231 29.0909 92.8964 29.0665 93.0564 29.0176C93.2163 28.9665 93.3585 28.8954 93.4829 28.8044C93.6073 28.7111 93.7095 28.6022 93.7894 28.4778C93.8716 28.3512 93.9283 28.2146 93.9594 28.0679L93.966 28.0346H93.5329L93.5229 28.0646C93.4851 28.1912 93.4218 28.3023 93.3329 28.3978C93.2441 28.4934 93.133 28.5678 92.9997 28.6211C92.8664 28.6722 92.7154 28.6977 92.5465 28.6977C92.3155 28.6977 92.1144 28.6455 91.9434 28.5411C91.7723 28.4367 91.639 28.2856 91.5435 28.0879C91.4502 27.8902 91.4036 27.6503 91.4036 27.3682V27.2016C91.4036 26.9261 91.4502 26.6906 91.5435 26.4951C91.639 26.2974 91.769 26.1475 91.9334 26.0453C92.0978 25.9431 92.2855 25.892 92.4965 25.892C92.7076 25.892 92.8931 25.942 93.053 26.0419C93.2152 26.1419 93.3418 26.2896 93.4329 26.4851C93.5262 26.6784 93.5728 26.9172 93.5728 27.2016V27.3682L93.7961 27.0516H91.1803V27.4015H94.0094V27.2282C94.0094 26.8817 93.9472 26.5784 93.8228 26.3185C93.7006 26.0586 93.5262 25.8576 93.2996 25.7154C93.0752 25.571 92.8087 25.4988 92.4999 25.4988C92.1911 25.4988 91.9212 25.5732 91.6901 25.7221C91.4591 25.8709 91.2792 26.0808 91.1503 26.3518C91.0237 26.6229 90.9604 26.9394 90.9604 27.3015V27.3049C90.9604 27.6692 91.0237 27.9857 91.1503 28.2545C91.2792 28.5211 91.4613 28.7277 91.6968 28.8743C91.9323 29.0187 92.2122 29.0909 92.5365 29.0909Z" fill="#1B242D"/>
<path d="M97.6115 29.1043C97.9625 29.1043 98.2668 29.0487 98.5245 28.9376C98.7844 28.8266 98.9844 28.67 99.1243 28.4678C99.2665 28.2634 99.3376 28.0235 99.3376 27.748V27.7447C99.3376 27.3893 99.2299 27.1094 99.0144 26.905C98.7989 26.7006 98.4457 26.5429 97.9547 26.4318L97.4282 26.3152C97.0795 26.2352 96.824 26.1253 96.6618 25.9853C96.4996 25.8431 96.4186 25.661 96.4186 25.4388V25.4321C96.4186 25.2589 96.4663 25.1078 96.5619 24.979C96.6596 24.8479 96.7962 24.7457 96.9717 24.6724C97.1472 24.5991 97.3505 24.5624 97.5815 24.5624C97.8081 24.5624 98.008 24.6002 98.1813 24.6757C98.3546 24.749 98.4934 24.8535 98.5978 24.989C98.7045 25.1245 98.77 25.2866 98.7944 25.4755L98.7978 25.5188H99.251L99.2476 25.4721C99.2299 25.2078 99.1477 24.9767 99.001 24.779C98.8566 24.5791 98.6634 24.4236 98.4212 24.3125C98.1791 24.1992 97.9025 24.1426 97.5915 24.1426C97.2761 24.1426 96.995 24.1981 96.7485 24.3092C96.5019 24.4203 96.3086 24.5735 96.1686 24.769C96.0287 24.9645 95.9576 25.19 95.9554 25.4455V25.4488C95.9554 25.7909 96.0642 26.0664 96.2819 26.2752C96.5019 26.4818 96.844 26.6384 97.3083 26.745L97.8348 26.8617C98.2057 26.9461 98.4723 27.0594 98.6345 27.2016C98.7967 27.3415 98.8777 27.5292 98.8777 27.7647V27.768C98.8777 27.9524 98.8255 28.1146 98.7211 28.2545C98.6189 28.3923 98.4745 28.4989 98.2879 28.5744C98.1036 28.6477 97.8859 28.6844 97.6348 28.6844C97.3816 28.6844 97.1583 28.6477 96.965 28.5744C96.7718 28.4989 96.6174 28.3934 96.5019 28.2579C96.3864 28.1201 96.3175 27.9591 96.2953 27.7747L96.2886 27.7281H95.8354L95.8388 27.7747C95.8587 28.0435 95.9443 28.2779 96.0953 28.4778C96.2486 28.6777 96.4541 28.8321 96.7118 28.941C96.9717 29.0498 97.2716 29.1043 97.6115 29.1043Z" fill="#1B242D"/>
<path d="M100.92 29.0276H101.387L102.673 25.5621H102.217L101.16 28.5678H101.147L100.094 25.5621H99.6308L100.92 29.0276Z" fill="#1B242D"/>
<path d="M103.143 29.0276H103.583V25.5621H103.143V29.0276ZM103.363 24.9356C103.445 24.9356 103.514 24.9079 103.57 24.8523C103.627 24.7946 103.656 24.7246 103.656 24.6424C103.656 24.5624 103.627 24.4947 103.57 24.4391C103.514 24.3814 103.445 24.3525 103.363 24.3525C103.283 24.3525 103.214 24.3814 103.156 24.4391C103.101 24.4947 103.073 24.5624 103.073 24.6424C103.073 24.7246 103.101 24.7946 103.156 24.8523C103.214 24.9079 103.283 24.9356 103.363 24.9356Z" fill="#1B242D"/>
<path d="M104.259 29.0276H106.838V28.6577H104.769V28.6511L106.828 25.8953V25.5621H104.263V25.932H106.325V25.9386L104.259 28.7011V29.0276Z" fill="#1B242D"/>
<path d="M107.365 29.0276H109.944V28.6577H107.875V28.6511L109.934 25.8953V25.5621H107.368V25.932H109.431V25.9386L107.365 28.7011V29.0276Z" fill="#1B242D"/>
<path d="M111.877 29.0909C112.063 29.0909 112.237 29.0665 112.397 29.0176C112.557 28.9665 112.699 28.8954 112.823 28.8044C112.948 28.7111 113.05 28.6022 113.13 28.4778C113.212 28.3512 113.269 28.2146 113.3 28.0679L113.306 28.0346H112.873L112.863 28.0646C112.825 28.1912 112.762 28.3023 112.673 28.3978C112.584 28.4934 112.473 28.5678 112.34 28.6211C112.207 28.6722 112.056 28.6977 111.887 28.6977C111.656 28.6977 111.455 28.6455 111.284 28.5411C111.113 28.4367 110.979 28.2856 110.884 28.0879C110.79 27.8902 110.744 27.6503 110.744 27.3682V27.2016C110.744 26.9261 110.79 26.6906 110.884 26.4951C110.979 26.2974 111.109 26.1475 111.274 26.0453C111.438 25.9431 111.626 25.892 111.837 25.892C112.048 25.892 112.233 25.942 112.393 26.0419C112.555 26.1419 112.682 26.2896 112.773 26.4851C112.866 26.6784 112.913 26.9172 112.913 27.2016V27.3682L113.136 27.0516H110.521V27.4015H113.35V27.2282C113.35 26.8817 113.287 26.5784 113.163 26.3185C113.041 26.0586 112.866 25.8576 112.64 25.7154C112.415 25.571 112.149 25.4988 111.84 25.4988C111.531 25.4988 111.261 25.5732 111.03 25.7221C110.799 25.8709 110.619 26.0808 110.491 26.3518C110.364 26.6229 110.301 26.9394 110.301 27.3015V27.3049C110.301 27.6692 110.364 27.9857 110.491 28.2545C110.619 28.5211 110.802 28.7277 111.037 28.8743C111.273 29.0187 111.552 29.0909 111.877 29.0909Z" fill="#1B242D"/>
<path d="M113.939 29.0276H114.379V26.8817C114.379 26.6862 114.411 26.5162 114.476 26.3718C114.543 26.2274 114.636 26.1164 114.756 26.0386C114.878 25.9586 115.02 25.9187 115.182 25.9187C115.26 25.9187 115.328 25.9242 115.386 25.9353C115.443 25.9442 115.487 25.9553 115.516 25.9686V25.5388C115.489 25.5299 115.451 25.521 115.402 25.5121C115.353 25.5032 115.3 25.4988 115.242 25.4988C115.031 25.4988 114.851 25.5599 114.702 25.6821C114.556 25.8042 114.451 25.972 114.389 26.1852H114.379V25.5621H113.939V29.0276Z" fill="#1B242D"/>
<path d="M116.912 29.0909C117.083 29.0909 117.245 29.0621 117.398 29.0043C117.552 28.9443 117.687 28.8621 117.805 28.7577C117.923 28.6533 118.012 28.5311 118.075 28.3912H118.085V29.0276H118.525V26.6551C118.525 26.4196 118.471 26.2152 118.365 26.0419C118.26 25.8687 118.111 25.7354 117.918 25.6421C117.727 25.5466 117.499 25.4988 117.235 25.4988C116.975 25.4988 116.748 25.5432 116.555 25.6321C116.362 25.7187 116.209 25.8387 116.095 25.992C115.982 26.1452 115.914 26.3219 115.892 26.5218L115.889 26.5618H116.312L116.319 26.5285C116.356 26.3307 116.454 26.1752 116.612 26.0619C116.772 25.9486 116.977 25.892 117.228 25.892C117.499 25.892 117.709 25.9631 117.858 26.1053C118.009 26.2474 118.085 26.444 118.085 26.6951V27.7247C118.085 27.9091 118.036 28.0757 117.938 28.2246C117.843 28.3734 117.713 28.4911 117.548 28.5778C117.386 28.6622 117.203 28.7044 116.998 28.7044C116.765 28.7044 116.575 28.6466 116.429 28.5311C116.282 28.4134 116.209 28.259 116.209 28.0679V28.0613C116.209 27.8702 116.282 27.7192 116.429 27.6081C116.577 27.4948 116.787 27.4282 117.058 27.4082L118.305 27.3249V26.9816L117.005 27.0649C116.607 27.0894 116.301 27.1882 116.085 27.3615C115.87 27.5326 115.762 27.7658 115.762 28.0613V28.0679C115.762 28.2701 115.81 28.4489 115.905 28.6044C116.003 28.7577 116.139 28.8777 116.312 28.9643C116.485 29.0487 116.685 29.0909 116.912 29.0909Z" fill="#1B242D"/>
<path d="M121.957 29.0909C122.232 29.0909 122.472 29.0198 122.676 28.8777C122.883 28.7355 123.036 28.5444 123.136 28.3045H123.153V29.0276H123.59V24.2192H123.153V26.2885H123.14C123.042 26.0486 122.888 25.8576 122.676 25.7154C122.468 25.571 122.227 25.4988 121.953 25.4988C121.665 25.4988 121.41 25.5732 121.19 25.7221C120.973 25.8709 120.802 26.0797 120.677 26.3485C120.553 26.6151 120.491 26.9294 120.491 27.2915V27.2949C120.491 27.6547 120.552 27.9702 120.674 28.2412C120.798 28.51 120.97 28.7188 121.19 28.8677C121.41 29.0165 121.666 29.0909 121.957 29.0909ZM122.04 28.6977C121.818 28.6977 121.624 28.6411 121.457 28.5278C121.293 28.4123 121.165 28.249 121.074 28.0379C120.985 27.8269 120.94 27.5792 120.94 27.2949V27.2915C120.94 27.0072 120.985 26.7606 121.074 26.5518C121.165 26.3407 121.293 26.1786 121.457 26.0653C121.624 25.9498 121.818 25.892 122.04 25.892C122.258 25.892 122.45 25.9509 122.617 26.0686C122.783 26.1841 122.914 26.3474 123.01 26.5584C123.105 26.7695 123.153 27.0138 123.153 27.2915V27.2949C123.153 27.5725 123.105 27.818 123.01 28.0313C122.916 28.2423 122.785 28.4067 122.617 28.5245C122.45 28.64 122.258 28.6977 122.04 28.6977Z" fill="#1B242D"/>
<path d="M124.416 29.0276H124.856V25.5621H124.416V29.0276ZM124.636 24.9356C124.718 24.9356 124.787 24.9079 124.842 24.8523C124.9 24.7946 124.929 24.7246 124.929 24.6424C124.929 24.5624 124.9 24.4947 124.842 24.4391C124.787 24.3814 124.718 24.3525 124.636 24.3525C124.556 24.3525 124.487 24.3814 124.429 24.4391C124.374 24.4947 124.346 24.5624 124.346 24.6424C124.346 24.7246 124.374 24.7946 124.429 24.8523C124.487 24.9079 124.556 24.9356 124.636 24.9356Z" fill="#1B242D"/>
<path d="M128.545 29.0276H128.994L130.794 24.2192H130.317L128.778 28.4745H128.764L127.225 24.2192H126.745L128.545 29.0276Z" fill="#1B242D"/>
<path d="M131.22 29.0276H131.66V25.5621H131.22V29.0276ZM131.44 24.9356C131.522 24.9356 131.591 24.9079 131.647 24.8523C131.705 24.7946 131.733 24.7246 131.733 24.6424C131.733 24.5624 131.705 24.4947 131.647 24.4391C131.591 24.3814 131.522 24.3525 131.44 24.3525C131.36 24.3525 131.291 24.3814 131.234 24.4391C131.178 24.4947 131.15 24.5624 131.15 24.6424C131.15 24.7246 131.178 24.7946 131.234 24.8523C131.291 24.9079 131.36 24.9356 131.44 24.9356Z" fill="#1B242D"/>
<path d="M133.48 29.0909C133.651 29.0909 133.813 29.0621 133.966 29.0043C134.119 28.9443 134.255 28.8621 134.373 28.7577C134.49 28.6533 134.58 28.5311 134.643 28.3912H134.652V29.0276H135.092V26.6551C135.092 26.4196 135.039 26.2152 134.932 26.0419C134.828 25.8687 134.679 25.7354 134.486 25.6421C134.295 25.5466 134.067 25.4988 133.803 25.4988C133.543 25.4988 133.316 25.5432 133.123 25.6321C132.93 25.7187 132.776 25.8387 132.663 25.992C132.55 26.1452 132.482 26.3219 132.46 26.5218L132.457 26.5618H132.88L132.886 26.5285C132.924 26.3307 133.022 26.1752 133.18 26.0619C133.34 25.9486 133.545 25.892 133.796 25.892C134.067 25.892 134.277 25.9631 134.426 26.1053C134.577 26.2474 134.652 26.444 134.652 26.6951V27.7247C134.652 27.9091 134.604 28.0757 134.506 28.2246C134.41 28.3734 134.28 28.4911 134.116 28.5778C133.954 28.6622 133.771 28.7044 133.566 28.7044C133.333 28.7044 133.143 28.6466 132.996 28.5311C132.85 28.4134 132.776 28.259 132.776 28.0679V28.0613C132.776 27.8702 132.85 27.7192 132.996 27.6081C133.145 27.4948 133.355 27.4282 133.626 27.4082L134.872 27.3249V26.9816L133.573 27.0649C133.175 27.0894 132.869 27.1882 132.653 27.3615C132.438 27.5326 132.33 27.7658 132.33 28.0613V28.0679C132.33 28.2701 132.378 28.4489 132.473 28.6044C132.571 28.7577 132.706 28.8777 132.88 28.9643C133.053 29.0487 133.253 29.0909 133.48 29.0909Z" fill="#1B242D"/>
<path d="M137.272 30.2572C137.578 30.2572 137.843 30.2028 138.065 30.0939C138.287 29.9851 138.458 29.8318 138.578 29.6341C138.698 29.4386 138.758 29.2076 138.758 28.941V25.5621H138.321V26.2985H138.308C138.246 26.1452 138.158 26.0086 138.045 25.8887C137.931 25.7687 137.798 25.6743 137.645 25.6054C137.492 25.5343 137.322 25.4988 137.135 25.4988C136.844 25.4988 136.587 25.5732 136.365 25.7221C136.145 25.8687 135.972 26.0753 135.845 26.3418C135.721 26.6084 135.659 26.9205 135.659 27.2782V27.2815C135.659 27.6414 135.72 27.9558 135.842 28.2246C135.966 28.4911 136.139 28.6988 136.359 28.8477C136.581 28.9943 136.837 29.0676 137.128 29.0676C137.315 29.0676 137.486 29.0343 137.642 28.9676C137.797 28.901 137.931 28.8099 138.045 28.6944C138.16 28.5767 138.248 28.4411 138.308 28.2879H138.321V28.901C138.321 29.1965 138.228 29.4308 138.041 29.6041C137.857 29.7774 137.599 29.864 137.268 29.864C137.004 29.864 136.785 29.8174 136.612 29.7241C136.441 29.633 136.326 29.5175 136.269 29.3775L136.255 29.3475H135.812L135.819 29.3742C135.859 29.5386 135.941 29.6874 136.065 29.8207C136.192 29.954 136.356 30.0595 136.559 30.1372C136.761 30.2172 136.998 30.2572 137.272 30.2572ZM137.215 28.6744C136.993 28.6744 136.798 28.6178 136.632 28.5045C136.465 28.3889 136.336 28.2268 136.245 28.018C136.154 27.8091 136.109 27.5637 136.109 27.2815V27.2782C136.109 26.9983 136.154 26.755 136.245 26.5484C136.336 26.3396 136.465 26.1786 136.632 26.0653C136.798 25.9498 136.993 25.892 137.215 25.892C137.433 25.892 137.625 25.9498 137.791 26.0653C137.958 26.1808 138.088 26.343 138.181 26.5518C138.275 26.7584 138.321 27.0005 138.321 27.2782V27.2815C138.321 27.5592 138.275 27.8025 138.181 28.0113C138.088 28.2201 137.958 28.3834 137.791 28.5011C137.625 28.6166 137.433 28.6744 137.215 28.6744Z" fill="#1B242D"/>
<path d="M140.957 30.2572C141.264 30.2572 141.528 30.2028 141.75 30.0939C141.972 29.9851 142.143 29.8318 142.263 29.6341C142.383 29.4386 142.443 29.2076 142.443 28.941V25.5621H142.007V26.2985H141.993C141.931 26.1452 141.843 26.0086 141.73 25.8887C141.617 25.7687 141.484 25.6743 141.33 25.6054C141.177 25.5343 141.007 25.4988 140.82 25.4988C140.529 25.4988 140.273 25.5732 140.051 25.7221C139.831 25.8687 139.657 26.0753 139.531 26.3418C139.406 26.6084 139.344 26.9205 139.344 27.2782V27.2815C139.344 27.6414 139.405 27.9558 139.528 28.2246C139.652 28.4911 139.824 28.6988 140.044 28.8477C140.266 28.9943 140.523 29.0676 140.814 29.0676C141 29.0676 141.171 29.0343 141.327 28.9676C141.482 28.901 141.617 28.8099 141.73 28.6944C141.846 28.5767 141.933 28.4411 141.993 28.2879H142.007V28.901C142.007 29.1965 141.913 29.4308 141.727 29.6041C141.542 29.7774 141.285 29.864 140.954 29.864C140.689 29.864 140.471 29.8174 140.297 29.7241C140.126 29.633 140.012 29.5175 139.954 29.3775L139.941 29.3475H139.498L139.504 29.3742C139.544 29.5386 139.626 29.6874 139.751 29.8207C139.877 29.954 140.042 30.0595 140.244 30.1372C140.446 30.2172 140.684 30.2572 140.957 30.2572ZM140.9 28.6744C140.678 28.6744 140.484 28.6178 140.317 28.5045C140.151 28.3889 140.022 28.2268 139.931 28.018C139.84 27.8091 139.794 27.5637 139.794 27.2815V27.2782C139.794 26.9983 139.84 26.755 139.931 26.5484C140.022 26.3396 140.151 26.1786 140.317 26.0653C140.484 25.9498 140.678 25.892 140.9 25.892C141.118 25.892 141.31 25.9498 141.477 26.0653C141.644 26.1808 141.773 26.343 141.867 26.5518C141.96 26.7584 142.007 27.0005 142.007 27.2782V27.2815C142.007 27.5592 141.96 27.8025 141.867 28.0113C141.773 28.2201 141.644 28.3834 141.477 28.5011C141.31 28.6166 141.118 28.6744 140.9 28.6744Z" fill="#1B242D"/>
<path d="M143.236 29.0276H143.676V25.5621H143.236V29.0276ZM143.456 24.9356C143.538 24.9356 143.607 24.9079 143.663 24.8523C143.721 24.7946 143.749 24.7246 143.749 24.6424C143.749 24.5624 143.721 24.4947 143.663 24.4391C143.607 24.3814 143.538 24.3525 143.456 24.3525C143.376 24.3525 143.307 24.3814 143.25 24.4391C143.194 24.4947 143.166 24.5624 143.166 24.6424C143.166 24.7246 143.194 24.7946 143.25 24.8523C143.307 24.9079 143.376 24.9356 143.456 24.9356Z" fill="#1B242D"/>
</svg>
