<svg width="41" height="40" viewBox="0 0 41 40" fill="none" xmlns="http://www.w3.org/2000/svg">
<path d="M4.08301 25.0002C6.86634 23.7502 9.63301 22.5002 12.4163 21.9502V8.3335C12.4163 7.00741 12.9431 5.73564 13.8808 4.79796C14.8185 3.86028 16.0903 3.3335 17.4163 3.3335C19.5997 3.3335 21.4497 4.71683 22.133 6.66683H17.4163C16.9743 6.66683 16.5504 6.84242 16.2378 7.15498C15.9253 7.46755 15.7497 7.89147 15.7497 8.3335V10.0002H24.083V8.3335C24.083 7.00741 24.6098 5.73564 25.5475 4.79796C26.4852 3.86028 27.7569 3.3335 29.083 3.3335C31.2663 3.3335 33.1163 4.71683 33.7997 6.66683H29.083C28.641 6.66683 28.2171 6.84242 27.9045 7.15498C27.5919 7.46755 27.4163 7.89147 27.4163 8.3335V24.9002C30.7497 24.3668 34.083 21.6668 37.4163 21.6668V25.0002C33.7163 25.0002 30.0163 28.3335 26.2997 28.3335C22.5997 28.3335 18.8997 25.0002 15.1997 25.0002C11.483 25.0002 7.78301 26.6668 4.08301 28.3335V25.0002ZM24.083 13.3335H15.7497V16.6668H24.083V13.3335ZM24.083 20.0002H15.7497V21.6668C18.533 21.9335 21.2997 23.8502 24.083 24.6502V20.0002ZM4.08301 31.6668C7.78301 30.0002 11.483 28.3335 15.1997 28.3335C18.8997 28.3335 22.5997 31.6668 26.2997 31.6668C30.0163 31.6668 33.7163 28.3335 37.4163 28.3335V31.6668C33.7163 31.6668 30.0163 35.0002 26.2997 35.0002C22.5997 35.0002 18.8997 31.6668 15.1997 31.6668C11.483 31.6668 7.78301 33.3335 4.08301 35.0002V31.6668Z" fill="#0ABAEE"/>
</svg>
