<svg width="16" height="16" viewBox="0 0 16 16" fill="none" xmlns="http://www.w3.org/2000/svg">
<g clipPath="url(#clip0_1955_38217)">
<path fill-rule="evenodd" clip-rule="evenodd" d="M7.47916 2.3295C7.71377 1.86786 8.28768 1.86863 8.5214 2.32917L8.77887 2.83555L13.9326 12.9716C14.2019 13.5032 13.8035 14.017 13.4104 14.017H2.58836C2.19562 14.017 1.79753 13.5033 2.06766 12.9725C2.07191 12.9642 2.07597 12.9557 2.07983 12.9472L4.70609 7.78273L7.47916 2.3295ZM0.908305 12.3831C0.903192 12.3931 0.898359 12.4033 0.893804 12.4135C0.280339 13.671 1.09063 15.317 2.58836 15.317H13.4104C14.9212 15.317 15.7304 13.6434 15.0918 12.3831L9.68043 1.74042C8.96466 0.330788 7.03628 0.331811 6.32023 1.74054L0.908305 12.3831ZM8.64985 6.00037C8.64985 5.64139 8.35884 5.35037 7.99985 5.35037C7.64087 5.35037 7.34985 5.64139 7.34985 6.00037V9.33371C7.34985 9.69269 7.64087 9.98371 7.99985 9.98371C8.35884 9.98371 8.64985 9.69269 8.64985 9.33371V6.00037ZM8.64985 11.667C8.64985 11.3081 8.35884 11.017 7.99985 11.017C7.64087 11.017 7.34985 11.3081 7.34985 11.667V12.0004C7.34985 12.3594 7.64087 12.6504 7.99985 12.6504C8.35884 12.6504 8.64985 12.3594 8.64985 12.0004V11.667Z" fill="#1B242D"/>
</g>
<defs>
<clipPath id="clip0_1955_38217">
<rect width="16" height="16" fill="white"/>
</clipPath>
</defs>
</svg>
