<svg width="33" height="29" viewBox="0 0 33 29" fill="none" xmlns="http://www.w3.org/2000/svg">
<path d="M7.788 28.32C5.192 28.32 3.22533 27.494 1.888 25.842C0.629334 24.19 0 22.1447 0 19.706C0 16.4807 0.865333 12.98 2.596 9.204C4.40533 5.34933 6.56867 2.28133 9.086 0L12.98 2.832C9.44 7.08 7.47333 11.4067 7.08 15.812C7.70933 15.6547 8.142 15.576 8.378 15.576C10.1087 15.576 11.564 16.1267 12.744 17.228C13.924 18.3293 14.514 19.7453 14.514 21.476C14.514 23.4427 13.8847 25.0947 12.626 26.432C11.446 27.6907 9.83333 28.32 7.788 28.32ZM25.842 28.32C23.246 28.32 21.2793 27.494 19.942 25.842C18.6833 24.19 18.054 22.1447 18.054 19.706C18.054 16.4807 18.9193 12.98 20.65 9.204C22.4593 5.428 24.6227 2.36 27.14 0L31.034 2.832C27.494 7.08 25.5273 11.4067 25.134 15.812C25.7633 15.6547 26.196 15.576 26.432 15.576C28.1627 15.576 29.618 16.1267 30.798 17.228C31.978 18.3293 32.568 19.7453 32.568 21.476C32.568 23.4427 31.9387 25.0947 30.68 26.432C29.5 27.6907 27.8873 28.32 25.842 28.32Z" fill="#F2F5F8"/>
</svg>
