<svg width="20" height="20" viewBox="0 0 20 20" fill="none" xmlns="http://www.w3.org/2000/svg">
<path d="M5.625 1.25C5.12772 1.25 4.65081 1.44754 4.29917 1.79917C3.94754 2.15081 3.75 2.62772 3.75 3.125V3.75H8.75V3.125C8.75 2.62772 8.55246 2.15081 8.20083 1.79917C7.84919 1.44754 7.37228 1.25 6.875 1.25H5.625ZM8.75 5V6.25H11.25V5H16.25V6.1025C16.25 6.21847 16.2823 6.33216 16.3432 6.43084C16.4041 6.52951 16.4913 6.60929 16.595 6.66125L17.7137 7.22C18.0252 7.37579 18.2872 7.61525 18.4702 7.91154C18.6532 8.20783 18.7501 8.54924 18.75 8.8975V16.25H11.25V14.375C11.2499 14.2929 11.2659 14.2115 11.2972 14.1356C11.3285 14.0597 11.3745 13.9906 11.4325 13.9325L12.5 12.8663V11.875C12.5 11.7092 12.4342 11.5503 12.3169 11.4331C12.1997 11.3158 12.0408 11.25 11.875 11.25H8.125C7.95924 11.25 7.80027 11.3158 7.68306 11.4331C7.56585 11.5503 7.5 11.7092 7.5 11.875V12.8663L8.5675 13.9325C8.6255 13.9906 8.67147 14.0597 8.70279 14.1356C8.7341 14.2115 8.75015 14.2929 8.75 14.375V16.25H1.25V8.8975C1.25001 8.54911 1.34709 8.20761 1.53035 7.9113C1.7136 7.615 1.97579 7.37562 2.2875 7.22L3.405 6.66125C3.50868 6.60929 3.59587 6.52951 3.6568 6.43084C3.71772 6.33216 3.75 6.21847 3.75 6.1025V5H8.75ZM1.25 17.5V18.125C1.25 18.6223 1.44754 19.0992 1.79917 19.4508C2.15081 19.8025 2.62772 20 3.125 20H6.875C7.37228 20 7.84919 19.8025 8.20083 19.4508C8.55246 19.0992 8.75 18.6223 8.75 18.125V17.5H1.25ZM11.25 17.5V18.125C11.25 18.6223 11.4475 19.0992 11.7992 19.4508C12.1508 19.8025 12.6277 20 13.125 20H16.875C17.3723 20 17.8492 19.8025 18.2008 19.4508C18.5525 19.0992 18.75 18.6223 18.75 18.125V17.5H11.25ZM16.25 3.75H11.25V3.125C11.25 2.62772 11.4475 2.15081 11.7992 1.79917C12.1508 1.44754 12.6277 1.25 13.125 1.25H14.375C14.8723 1.25 15.3492 1.44754 15.7008 1.79917C16.0525 2.15081 16.25 2.62772 16.25 3.125V3.75Z" fill="#21386C"/>
</svg>
