<svg width="11" height="10" viewBox="0 0 11 10" fill="none" xmlns="http://www.w3.org/2000/svg">
<path fill-rule="evenodd" clip-rule="evenodd" d="M5.95829 9.69396L9.69918 5.95307C9.89353 5.75756 10.0026 5.49309 10.0026 5.21742C10.0026 4.94174 9.89353 4.67727 9.69918 4.48176L5.21742 0H0V5.21742L4.48176 9.69396C4.57867 9.79098 4.69376 9.86795 4.82043 9.92046C4.94711 9.97297 5.0829 10 5.22003 10C5.35716 10 5.49294 9.97297 5.61962 9.92046C5.74629 9.86795 5.86138 9.79098 5.95829 9.69396ZM2.60884 1.82584C2.17661 1.82584 1.82622 2.17623 1.82622 2.60845C1.82622 3.04068 2.17661 3.39107 2.60884 3.39107H2.61405C3.04628 3.39107 3.39667 3.04068 3.39667 2.60845C3.39667 2.17623 3.04628 1.82584 2.61405 1.82584H2.60884Z" fill="white"/>
</svg>
