<svg width="12" height="12" viewBox="0 0 12 12" fill="none" xmlns="http://www.w3.org/2000/svg">
<path fill-rule="evenodd" clip-rule="evenodd" d="M1.41361 0.383604C1.54485 0.252571 1.70243 0.150923 1.87591 0.0853968C2.0494 0.0198706 2.23483 -0.00803768 2.41992 0.00352147C2.60501 0.0150806 2.78553 0.0658432 2.94951 0.152445C3.1135 0.239047 3.25721 0.359511 3.37111 0.505854L4.71737 2.23535C4.96412 2.5526 5.05112 2.96585 4.95362 3.35585L4.54337 4.99835C4.52215 5.08343 4.5233 5.17254 4.54669 5.25704C4.57008 5.34154 4.61493 5.41855 4.67687 5.4806L6.51962 7.32335C6.58174 7.38542 6.65889 7.43034 6.74353 7.45373C6.82817 7.47713 6.91743 7.4782 7.00261 7.45685L8.64437 7.0466C8.83683 6.99848 9.03771 6.99475 9.23182 7.03567C9.42594 7.0766 9.60822 7.16113 9.76487 7.28285L11.4944 8.62835C12.1161 9.1121 12.1731 10.0309 11.6166 10.5866L10.8411 11.3621C10.2861 11.9171 9.45662 12.1609 8.68336 11.8886C6.70425 11.1922 4.90732 10.0592 3.42586 8.5736C1.94033 7.09237 0.807321 5.2957 0.110865 3.31685C-0.160635 2.54435 0.0831149 1.7141 0.638115 1.1591L1.41361 0.383604Z" fill="#1B242D"/>
</svg>
