<svg width="23" height="21" viewBox="0 0 23 21" fill="none" xmlns="http://www.w3.org/2000/svg">
<path d="M6.77738 13.0458L11.0284 3.56591L15.2581 13.0596C15.9285 12.7502 16.5926 12.4859 17.2315 12.2675L12.1089 0.949202H10.0059L4.85889 12.3196C5.48073 12.5211 6.12424 12.7609 6.77738 13.0458Z" fill="#243E74"/>
<path d="M22.2055 11.2911C21.0313 11.2463 15.0357 11.2388 11.0801 15.5097C7.18075 11.2946 1.28243 11.2463 0 11.2911V13.2616C0.865456 13.2301 6.97918 13.1853 10.2914 17.6367L11.0801 18.6963L11.8688 17.6367C15.255 13.0913 21.5484 13.2368 22.2055 13.2646V11.2911Z" fill="#4DC5F3"/>
<path d="M3.3363 15.6798L0.927734 21H3.23241L5.32784 16.3309C4.65259 16.0355 3.9741 15.8278 3.3363 15.6798Z" fill="#243E74"/>
<path d="M16.7217 16.3849L18.7651 21H21.1845L18.7832 15.691C18.1211 15.8462 17.4175 16.0703 16.7217 16.3849Z" fill="#243E74"/>
</svg>
