<svg width="120" height="38" viewBox="0 0 120 38" fill="none" xmlns="http://www.w3.org/2000/svg">
<path d="M15.6706 4.68706H0.000488281V6.9112H6.9762V31.1746H9.30144V6.9112H15.6706V4.68706Z" fill="#005298"/>
<path d="M25.7803 4.68706H16.4794V31.1746H18.7035V6.9112H25.7803C27.8023 6.9112 31.9472 9.33754 31.9472 13.7858C31.9472 18.2341 28.1055 20.7615 25.2748 20.7615C23.0102 20.7615 21.0287 19.481 20.3211 18.8407V21.5703C20.7254 22.0421 22.2823 22.9857 25.2748 22.9857C29.0154 22.9857 34.1714 19.5484 34.1714 13.7858C34.1714 8.02327 29.0154 4.68706 25.7803 4.68706Z" fill="#005298"/>
<path d="M38.3164 4.48486C42.0368 4.48486 44.0452 7.51778 44.5844 9.03424L42.5625 9.74192C42.1244 8.73095 40.6618 6.709 38.3164 6.709C35.9709 6.709 34.5758 8.52876 34.1714 9.43863L32.756 7.41669C33.2615 6.50681 35.4857 4.48486 38.3164 4.48486Z" fill="#005298"/>
<path d="M39.7317 17.0209C36.9851 15.8332 35.5194 14.662 35.1824 14.0891L34.9802 15.7067L34.5758 16.8187C35.0813 17.122 36.4562 18.0926 39.1252 19.144C42.4614 20.4582 43.2701 22.9857 43.2701 24.6032C43.2701 26.2208 41.6526 29.6581 38.0131 29.6581C34.3736 29.6581 33.0256 26.2882 32.9582 24.6032H30.7341C30.7341 26.3219 32.756 31.9833 38.0131 31.7811C41.8519 31.6335 45.4943 28.546 45.4943 24.6032C45.4943 20.6604 43.4723 18.6385 39.7317 17.0209Z" fill="#005298"/>
<rect x="21.9385" y="24.4009" width="6.67242" height="6.67242" fill="#E30613"/>
<path fill-rule="evenodd" clip-rule="evenodd" d="M25.983 25.8169H24.5677V27.132H23.2534V28.5474H24.5677V29.8608H25.983V28.5474H27.2973V27.132H25.983V25.8169Z" fill="#005298"/>
<path fill-rule="evenodd" clip-rule="evenodd" d="M51.459 37.5441V0.744629H51.8634V37.5441H51.459Z" fill="#005298"/>
<path d="M61.2208 9.02415H59.8135V12.876H59.2282V9.02415H57.8179V8.52979H61.2208V9.02415Z" fill="#005298"/>
<path d="M65.1443 11.0829C65.2802 11.0829 65.3999 11.0667 65.5034 11.0344C65.6086 11.0004 65.6959 10.9535 65.7655 10.8936C65.8366 10.8322 65.89 10.7594 65.9256 10.6753C65.9612 10.5912 65.979 10.4982 65.979 10.3962C65.979 10.1892 65.911 10.0331 65.7752 9.92796C65.6393 9.82282 65.4355 9.77025 65.1637 9.77025H64.6493V11.0829H65.1443ZM66.7506 12.876H66.3332C66.2475 12.876 66.1844 12.8428 66.144 12.7765L65.2414 11.5342C65.2139 11.4954 65.1839 11.4679 65.1516 11.4517C65.1209 11.4339 65.0723 11.425 65.006 11.425H64.6493V12.876H64.1811V9.39902H65.1637C65.3837 9.39902 65.5738 9.42167 65.7339 9.46696C65.8941 9.51063 66.0259 9.57453 66.1294 9.65864C66.2346 9.74275 66.3122 9.84466 66.3623 9.96436C66.4125 10.0824 66.4376 10.2151 66.4376 10.3623C66.4376 10.4852 66.4181 10.6001 66.3793 10.7068C66.3405 10.8136 66.2839 10.9098 66.2095 10.9955C66.1367 11.0797 66.0469 11.1516 65.9402 11.2115C65.835 11.2713 65.7153 11.3166 65.5811 11.3474C65.6409 11.3813 65.6927 11.4307 65.7363 11.4954L66.7506 12.876Z" fill="#005298"/>
<path d="M71.011 11.5851L70.465 10.1706C70.4489 10.1285 70.4319 10.08 70.4141 10.025C70.3963 9.9684 70.3793 9.90855 70.3631 9.84547C70.3292 9.97649 70.2944 10.0857 70.2588 10.173L69.7129 11.5851H71.011ZM71.9912 12.876H71.6273C71.5852 12.876 71.5512 12.8654 71.5254 12.8444C71.4995 12.8234 71.4801 12.7967 71.4671 12.7643L71.142 11.9248H69.5819L69.2567 12.7643C69.247 12.7935 69.2284 12.8193 69.2009 12.842C69.1734 12.8646 69.1395 12.876 69.099 12.876H68.7351L70.1254 9.39902H70.6009L71.9912 12.876Z" fill="#005298"/>
<path d="M76.9557 9.39902L75.5387 12.876H75.1166L73.6996 9.39902H74.0757C74.1177 9.39902 74.1517 9.40953 74.1776 9.43056C74.2034 9.45159 74.2229 9.47828 74.2358 9.51063L75.216 11.9637C75.2371 12.0187 75.2573 12.0785 75.2767 12.1432C75.2977 12.2079 75.3163 12.2758 75.3325 12.347C75.3487 12.2758 75.3657 12.2079 75.3835 12.1432C75.4012 12.0785 75.4207 12.0187 75.4417 11.9637L76.4195 9.51063C76.4292 9.48313 76.4478 9.45806 76.4753 9.43542C76.5044 9.41115 76.5392 9.39902 76.5796 9.39902H76.9557Z" fill="#005298"/>
<path d="M81.4991 12.4926L81.4966 12.876H79.3542V9.39902H81.4966V9.78238H79.8249V10.9373H81.1788V11.3061H79.8249V12.4926H81.4991Z" fill="#005298"/>
<path d="M86.0686 12.4805V12.876H84.096V9.39902H84.5643V12.4805H86.0686Z" fill="#005298"/>
<path d="M59.5648 18.4666C59.7327 18.4666 59.8803 18.4444 60.0076 18.3999C60.137 18.3554 60.2452 18.2938 60.3322 18.2149C60.4211 18.134 60.4879 18.038 60.5323 17.9268C60.5768 17.8156 60.5991 17.6932 60.5991 17.5598C60.5991 17.2828 60.5131 17.0664 60.3413 16.9108C60.1714 16.7551 59.9126 16.6772 59.5648 16.6772H58.8673V18.4666H59.5648ZM59.5648 16.2132C59.8398 16.2132 60.0784 16.2455 60.2806 16.3102C60.4848 16.3729 60.6537 16.4629 60.7871 16.5802C60.9205 16.6974 61.0196 16.839 61.0843 17.0048C61.1511 17.1706 61.1844 17.3556 61.1844 17.5598C61.1844 17.762 61.149 17.947 61.0783 18.1148C61.0075 18.2826 60.9034 18.4272 60.7659 18.5485C60.6304 18.6698 60.4616 18.7649 60.2594 18.8336C60.0592 18.9004 59.8277 18.9337 59.5648 18.9337H58.8673V20.5594H58.2819V16.2132H59.5648Z" fill="#005298"/>
<path d="M65.2036 18.7663C65.3394 18.7663 65.4591 18.7501 65.5627 18.7178C65.6678 18.6838 65.7551 18.6369 65.8247 18.577C65.8959 18.5156 65.9492 18.4428 65.9848 18.3587C66.0204 18.2746 66.0382 18.1815 66.0382 18.0796C66.0382 17.8726 65.9703 17.7165 65.8344 17.6114C65.6985 17.5062 65.4947 17.4536 65.223 17.4536H64.7086V18.7663H65.2036ZM66.8098 20.5594H66.3925C66.3067 20.5594 66.2436 20.5262 66.2032 20.4599L65.3006 19.2176C65.2731 19.1788 65.2432 19.1513 65.2108 19.1351C65.1801 19.1173 65.1316 19.1084 65.0653 19.1084H64.7086V20.5594H64.2403V17.0824H65.223C65.443 17.0824 65.633 17.1051 65.7932 17.1504C65.9533 17.194 66.0851 17.2579 66.1886 17.342C66.2938 17.4261 66.3714 17.5281 66.4216 17.6478C66.4717 17.7658 66.4968 17.8985 66.4968 18.0457C66.4968 18.1686 66.4774 18.2835 66.4386 18.3902C66.3997 18.497 66.3431 18.5932 66.2687 18.6789C66.1959 18.7631 66.1062 18.835 65.9994 18.8949C65.8942 18.9547 65.7746 19 65.6403 19.0308C65.7001 19.0647 65.7519 19.1141 65.7956 19.1788L66.8098 20.5594Z" fill="#005298"/>
<path d="M72.4031 18.8221C72.4031 19.0825 72.3618 19.3219 72.2793 19.5403C72.1968 19.7571 72.0804 19.9439 71.9299 20.1008C71.7795 20.2577 71.5983 20.3798 71.3864 20.4672C71.1761 20.5529 70.9432 20.5958 70.6876 20.5958C70.4321 20.5958 70.1991 20.5529 69.9889 20.4672C69.7786 20.3798 69.5982 20.2577 69.4478 20.1008C69.2974 19.9439 69.1809 19.7571 69.0984 19.5403C69.0159 19.3219 68.9746 19.0825 68.9746 18.8221C68.9746 18.5617 69.0159 18.3231 69.0984 18.1063C69.1809 17.888 69.2974 17.7003 69.4478 17.5434C69.5982 17.3849 69.7786 17.262 69.9889 17.1746C70.1991 17.0873 70.4321 17.0436 70.6876 17.0436C70.9432 17.0436 71.1761 17.0873 71.3864 17.1746C71.5983 17.262 71.7795 17.3849 71.9299 17.5434C72.0804 17.7003 72.1968 17.888 72.2793 18.1063C72.3618 18.3231 72.4031 18.5617 72.4031 18.8221ZM71.9202 18.8221C71.9202 18.6086 71.8911 18.4169 71.8329 18.2471C71.7746 18.0772 71.6921 17.9341 71.5854 17.8176C71.4786 17.6995 71.3492 17.6089 71.1972 17.5458C71.0451 17.4828 70.8753 17.4512 70.6876 17.4512C70.5016 17.4512 70.3326 17.4828 70.1805 17.5458C70.0285 17.6089 69.8983 17.6995 69.7899 17.8176C69.6831 17.9341 69.6006 18.0772 69.5424 18.2471C69.4842 18.4169 69.4551 18.6086 69.4551 18.8221C69.4551 19.0356 69.4842 19.2273 69.5424 19.3971C69.6006 19.5654 69.6831 19.7085 69.7899 19.8266C69.8983 19.9431 70.0285 20.0328 70.1805 20.0959C70.3326 20.1574 70.5016 20.1881 70.6876 20.1881C70.8753 20.1881 71.0451 20.1574 71.1972 20.0959C71.3492 20.0328 71.4786 19.9431 71.5854 19.8266C71.6921 19.7085 71.7746 19.5654 71.8329 19.3971C71.8911 19.2273 71.9202 19.0356 71.9202 18.8221Z" fill="#005298"/>
<path d="M75.4883 17.4658V18.6814H76.9174V19.0647H75.4883V20.5594H75.0176V17.0824H77.16V17.4658H75.4883Z" fill="#005298"/>
<path d="M81.8474 20.176L81.845 20.5594H79.7025V17.0824H81.845V17.4658H80.1732V18.6207H81.5271V18.9895H80.1732V20.176H81.8474Z" fill="#005298"/>
<path d="M86.2228 17.6259C86.2082 17.6502 86.1921 17.6688 86.1743 17.6817C86.1581 17.693 86.1379 17.6987 86.1136 17.6987C86.0861 17.6987 86.0538 17.685 86.0166 17.6575C85.9793 17.63 85.9324 17.6 85.8758 17.5677C85.8208 17.5337 85.7537 17.503 85.6744 17.4755C85.5968 17.448 85.5022 17.4342 85.3906 17.4342C85.2854 17.4342 85.1924 17.4488 85.1115 17.4779C85.0323 17.5054 84.9651 17.5434 84.9101 17.5919C84.8568 17.6405 84.8163 17.6979 84.7888 17.7642C84.7613 17.8289 84.7476 17.8993 84.7476 17.9753C84.7476 18.0724 84.771 18.1532 84.8179 18.2179C84.8665 18.281 84.9296 18.3352 85.0072 18.3805C85.0865 18.4258 85.1754 18.4654 85.2741 18.4994C85.3744 18.5317 85.4763 18.5657 85.5798 18.6013C85.685 18.6369 85.7869 18.6773 85.8855 18.7226C85.9858 18.7663 86.0748 18.8221 86.1524 18.89C86.2317 18.958 86.2948 19.0413 86.3417 19.14C86.3902 19.2386 86.4145 19.3599 86.4145 19.5039C86.4145 19.656 86.3886 19.7991 86.3368 19.9334C86.2851 20.066 86.209 20.1817 86.1088 20.2803C86.0101 20.379 85.888 20.4566 85.7424 20.5133C85.5984 20.5699 85.4342 20.5982 85.2498 20.5982C85.0234 20.5982 84.8179 20.5577 84.6335 20.4769C84.4491 20.3944 84.2914 20.2836 84.1604 20.1445L84.2963 19.9212C84.3092 19.9034 84.3246 19.8889 84.3424 19.8776C84.3618 19.8646 84.3828 19.8581 84.4055 19.8581C84.4265 19.8581 84.4499 19.867 84.4758 19.8848C84.5033 19.901 84.5341 19.922 84.568 19.9479C84.602 19.9738 84.6408 20.0021 84.6845 20.0328C84.7282 20.0636 84.7775 20.0919 84.8325 20.1178C84.8891 20.1436 84.953 20.1655 85.0242 20.1833C85.0954 20.1995 85.1754 20.2075 85.2644 20.2075C85.376 20.2075 85.4755 20.1922 85.5628 20.1614C85.6502 20.1307 85.7238 20.0878 85.7836 20.0328C85.8451 19.9762 85.892 19.9091 85.9244 19.8315C85.9567 19.7538 85.9729 19.6673 85.9729 19.5718C85.9729 19.4667 85.9486 19.381 85.9001 19.3146C85.8532 19.2467 85.7909 19.1901 85.7133 19.1448C85.6356 19.0995 85.5466 19.0615 85.4464 19.0308C85.3461 18.9984 85.2442 18.9661 85.1406 18.9337C85.0371 18.8997 84.9352 18.8609 84.8349 18.8172C84.7346 18.7736 84.6457 18.717 84.568 18.6474C84.4904 18.5779 84.4273 18.4913 84.3788 18.3878C84.3319 18.2826 84.3084 18.1532 84.3084 17.9996C84.3084 17.8766 84.3319 17.7577 84.3788 17.6429C84.4273 17.5281 84.4969 17.4261 84.5874 17.3372C84.6796 17.2482 84.7921 17.177 84.9247 17.1237C85.059 17.0703 85.2126 17.0436 85.3857 17.0436C85.5798 17.0436 85.7561 17.0743 85.9146 17.1358C86.0748 17.1973 86.2155 17.2862 86.3368 17.4027L86.2228 17.6259Z" fill="#005298"/>
<path d="M90.7987 17.6259C90.7842 17.6502 90.768 17.6688 90.7502 17.6817C90.734 17.693 90.7138 17.6987 90.6895 17.6987C90.662 17.6987 90.6297 17.685 90.5925 17.6575C90.5553 17.63 90.5084 17.6 90.4517 17.5677C90.3967 17.5337 90.3296 17.503 90.2504 17.4755C90.1727 17.448 90.0781 17.4342 89.9665 17.4342C89.8613 17.4342 89.7683 17.4488 89.6874 17.4779C89.6082 17.5054 89.5411 17.5434 89.4861 17.5919C89.4327 17.6405 89.3922 17.6979 89.3647 17.7642C89.3372 17.8289 89.3235 17.8993 89.3235 17.9753C89.3235 18.0724 89.347 18.1532 89.3939 18.2179C89.4424 18.281 89.5055 18.3352 89.5831 18.3805C89.6624 18.4258 89.7513 18.4654 89.85 18.4994C89.9503 18.5317 90.0522 18.5657 90.1557 18.6013C90.2609 18.6369 90.3628 18.6773 90.4614 18.7226C90.5617 18.7663 90.6507 18.8221 90.7283 18.89C90.8076 18.958 90.8707 19.0413 90.9176 19.14C90.9661 19.2386 90.9904 19.3599 90.9904 19.5039C90.9904 19.656 90.9645 19.7991 90.9127 19.9334C90.861 20.066 90.785 20.1817 90.6847 20.2803C90.586 20.379 90.4639 20.4566 90.3183 20.5133C90.1743 20.5699 90.0102 20.5982 89.8258 20.5982C89.5993 20.5982 89.3939 20.5577 89.2095 20.4769C89.0251 20.3944 88.8673 20.2836 88.7363 20.1445L88.8722 19.9212C88.8851 19.9034 88.9005 19.8889 88.9183 19.8776C88.9377 19.8646 88.9587 19.8581 88.9814 19.8581C89.0024 19.8581 89.0259 19.867 89.0517 19.8848C89.0792 19.901 89.11 19.922 89.1439 19.9479C89.1779 19.9738 89.2167 20.0021 89.2604 20.0328C89.3041 20.0636 89.3534 20.0919 89.4084 20.1178C89.465 20.1436 89.5289 20.1655 89.6001 20.1833C89.6713 20.1995 89.7513 20.2075 89.8403 20.2075C89.9519 20.2075 90.0514 20.1922 90.1387 20.1614C90.2261 20.1307 90.2997 20.0878 90.3595 20.0328C90.421 19.9762 90.4679 19.9091 90.5003 19.8315C90.5326 19.7538 90.5488 19.6673 90.5488 19.5718C90.5488 19.4667 90.5245 19.381 90.476 19.3146C90.4291 19.2467 90.3668 19.1901 90.2892 19.1448C90.2115 19.0995 90.1226 19.0615 90.0223 19.0308C89.922 18.9984 89.8201 18.9661 89.7166 18.9337C89.613 18.8997 89.5111 18.8609 89.4108 18.8172C89.3106 18.7736 89.2216 18.717 89.1439 18.6474C89.0663 18.5779 89.0032 18.4913 88.9547 18.3878C88.9078 18.2826 88.8843 18.1532 88.8843 17.9996C88.8843 17.8766 88.9078 17.7577 88.9547 17.6429C89.0032 17.5281 89.0728 17.4261 89.1634 17.3372C89.2556 17.2482 89.368 17.177 89.5006 17.1237C89.6349 17.0703 89.7885 17.0436 89.9616 17.0436C90.1557 17.0436 90.332 17.0743 90.4906 17.1358C90.6507 17.1973 90.7914 17.2862 90.9127 17.4027L90.7987 17.6259Z" fill="#005298"/>
<path d="M94.0668 20.5594H93.5961V17.0824H94.0668V20.5594Z" fill="#005298"/>
<path d="M100.11 18.8221C100.11 19.0825 100.068 19.3219 99.986 19.5403C99.9035 19.7571 99.787 19.9439 99.6366 20.1008C99.4862 20.2577 99.305 20.3798 99.0931 20.4672C98.8828 20.5529 98.6499 20.5958 98.3943 20.5958C98.1387 20.5958 97.9058 20.5529 97.6955 20.4672C97.4852 20.3798 97.3049 20.2577 97.1545 20.1008C97.004 19.9439 96.8876 19.7571 96.8051 19.5403C96.7226 19.3219 96.6813 19.0825 96.6813 18.8221C96.6813 18.5617 96.7226 18.3231 96.8051 18.1063C96.8876 17.888 97.004 17.7003 97.1545 17.5434C97.3049 17.3849 97.4852 17.262 97.6955 17.1746C97.9058 17.0873 98.1387 17.0436 98.3943 17.0436C98.6499 17.0436 98.8828 17.0873 99.0931 17.1746C99.305 17.262 99.4862 17.3849 99.6366 17.5434C99.787 17.7003 99.9035 17.888 99.986 18.1063C100.068 18.3231 100.11 18.5617 100.11 18.8221ZM99.6269 18.8221C99.6269 18.6086 99.5978 18.4169 99.5396 18.2471C99.4813 18.0772 99.3988 17.9341 99.2921 17.8176C99.1853 17.6995 99.0559 17.6089 98.9038 17.5458C98.7518 17.4828 98.582 17.4512 98.3943 17.4512C98.2083 17.4512 98.0393 17.4828 97.8872 17.5458C97.7352 17.6089 97.6049 17.6995 97.4966 17.8176C97.3898 17.9341 97.3073 18.0772 97.2491 18.2471C97.1909 18.4169 97.1617 18.6086 97.1617 18.8221C97.1617 19.0356 97.1909 19.2273 97.2491 19.3971C97.3073 19.5654 97.3898 19.7085 97.4966 19.8266C97.6049 19.9431 97.7352 20.0328 97.8872 20.0959C98.0393 20.1574 98.2083 20.1881 98.3943 20.1881C98.582 20.1881 98.7518 20.1574 98.9038 20.0959C99.0559 20.0328 99.1853 19.9431 99.2921 19.8266C99.3988 19.7085 99.4813 19.5654 99.5396 19.3971C99.5978 19.2273 99.6269 19.0356 99.6269 18.8221Z" fill="#005298"/>
<path d="M105.541 17.0824V20.5594H105.306C105.269 20.5594 105.237 20.5529 105.211 20.5399C105.187 20.527 105.163 20.5052 105.138 20.4744L103.127 17.854C103.13 17.8944 103.133 17.9341 103.134 17.9729C103.136 18.0117 103.137 18.0481 103.137 18.0821V20.5594H102.724V17.0824H102.967C102.988 17.0824 103.006 17.084 103.02 17.0873C103.035 17.0889 103.048 17.0929 103.059 17.0994C103.07 17.1043 103.082 17.1123 103.093 17.1237C103.104 17.1334 103.117 17.1463 103.129 17.1625L105.141 19.7805C105.138 19.7384 105.134 19.698 105.131 19.6592C105.13 19.6187 105.129 19.5807 105.129 19.5452V17.0824H105.541Z" fill="#005298"/>
<path d="M110.218 19.2685L109.672 17.854C109.656 17.8119 109.639 17.7634 109.621 17.7084C109.603 17.6518 109.586 17.5919 109.57 17.5289C109.536 17.6599 109.501 17.7691 109.465 17.8564L108.92 19.2685H110.218ZM111.198 20.5594H110.834C110.792 20.5594 110.758 20.5488 110.732 20.5278C110.706 20.5068 110.687 20.4801 110.674 20.4477L110.349 19.6082H108.789L108.463 20.4477C108.454 20.4769 108.435 20.5027 108.408 20.5254C108.38 20.548 108.346 20.5594 108.306 20.5594H107.942L109.332 17.0824H109.808L111.198 20.5594Z" fill="#005298"/>
<path d="M115.569 20.1639V20.5594H113.596V17.0824H114.065V20.1639H115.569Z" fill="#005298"/>
<path d="M119.809 17.6259C119.794 17.6502 119.778 17.6688 119.76 17.6817C119.744 17.693 119.724 17.6987 119.699 17.6987C119.672 17.6987 119.64 17.685 119.602 17.6575C119.565 17.63 119.518 17.6 119.462 17.5677C119.407 17.5337 119.34 17.503 119.26 17.4755C119.183 17.448 119.088 17.4342 118.976 17.4342C118.871 17.4342 118.778 17.4488 118.697 17.4779C118.618 17.5054 118.551 17.5434 118.496 17.5919C118.443 17.6405 118.402 17.6979 118.375 17.7642C118.347 17.8289 118.333 17.8993 118.333 17.9753C118.333 18.0724 118.357 18.1532 118.404 18.2179C118.452 18.281 118.515 18.3352 118.593 18.3805C118.672 18.4258 118.761 18.4654 118.86 18.4994C118.96 18.5317 119.062 18.5657 119.166 18.6013C119.271 18.6369 119.373 18.6773 119.471 18.7226C119.572 18.7663 119.661 18.8221 119.738 18.89C119.817 18.958 119.881 19.0413 119.927 19.14C119.976 19.2386 120 19.3599 120 19.5039C120 19.656 119.974 19.7991 119.923 19.9334C119.871 20.066 119.795 20.1817 119.695 20.2803C119.596 20.379 119.474 20.4566 119.328 20.5133C119.184 20.5699 119.02 20.5982 118.836 20.5982C118.609 20.5982 118.404 20.5577 118.219 20.4769C118.035 20.3944 117.877 20.2836 117.746 20.1445L117.882 19.9212C117.895 19.9034 117.91 19.8889 117.928 19.8776C117.948 19.8646 117.969 19.8581 117.991 19.8581C118.012 19.8581 118.036 19.867 118.062 19.8848C118.089 19.901 118.12 19.922 118.154 19.9479C118.188 19.9738 118.227 20.0021 118.27 20.0328C118.314 20.0636 118.363 20.0919 118.418 20.1178C118.475 20.1436 118.539 20.1655 118.61 20.1833C118.681 20.1995 118.761 20.2075 118.85 20.2075C118.962 20.2075 119.061 20.1922 119.149 20.1614C119.236 20.1307 119.31 20.0878 119.369 20.0328C119.431 19.9762 119.478 19.9091 119.51 19.8315C119.543 19.7538 119.559 19.6673 119.559 19.5718C119.559 19.4667 119.534 19.381 119.486 19.3146C119.439 19.2467 119.377 19.1901 119.299 19.1448C119.221 19.0995 119.132 19.0615 119.032 19.0308C118.932 18.9984 118.83 18.9661 118.726 18.9337C118.623 18.8997 118.521 18.8609 118.421 18.8172C118.32 18.7736 118.231 18.717 118.154 18.6474C118.076 18.5779 118.013 18.4913 117.965 18.3878C117.918 18.2826 117.894 18.1532 117.894 17.9996C117.894 17.8766 117.918 17.7577 117.965 17.6429C118.013 17.5281 118.083 17.4261 118.173 17.3372C118.265 17.2482 118.378 17.177 118.51 17.1237C118.645 17.0703 118.798 17.0436 118.972 17.0436C119.166 17.0436 119.342 17.0743 119.5 17.1358C119.661 17.1973 119.801 17.2862 119.923 17.4027L119.809 17.6259Z" fill="#005298"/>
<path d="M60.505 24.576C60.4868 24.6063 60.4666 24.6295 60.4444 24.6457C60.4242 24.6599 60.3989 24.6669 60.3686 24.6669C60.3342 24.6669 60.2937 24.6498 60.2472 24.6154C60.2007 24.581 60.1421 24.5436 60.0713 24.5032C60.0026 24.4607 59.9187 24.4223 59.8196 24.3879C59.7225 24.3535 59.6043 24.3364 59.4647 24.3364C59.3333 24.3364 59.2171 24.3546 59.116 24.3909C59.0169 24.4253 58.933 24.4728 58.8642 24.5335C58.7975 24.5942 58.747 24.6659 58.7126 24.7488C58.6782 24.8297 58.661 24.9177 58.661 25.0127C58.661 25.134 58.6903 25.2351 58.749 25.316C58.8096 25.3948 58.8885 25.4626 58.9855 25.5192C59.0846 25.5758 59.1958 25.6253 59.3192 25.6678C59.4445 25.7082 59.5719 25.7507 59.7013 25.7952C59.8327 25.8397 59.9601 25.8902 60.0835 25.9468C60.2088 26.0014 60.32 26.0712 60.4171 26.1561C60.5162 26.241 60.595 26.3452 60.6537 26.4685C60.7143 26.5918 60.7446 26.7435 60.7446 26.9234C60.7446 27.1135 60.7123 27.2924 60.6476 27.4603C60.5829 27.6261 60.4879 27.7706 60.3625 27.894C60.2392 28.0173 60.0865 28.1144 59.9045 28.1851C59.7246 28.2559 59.5193 28.2913 59.2888 28.2913C59.0058 28.2913 58.749 28.2407 58.5185 28.1396C58.288 28.0365 58.0908 27.898 57.9271 27.7241L58.0969 27.4451C58.1131 27.4229 58.1323 27.4047 58.1545 27.3905C58.1788 27.3743 58.2051 27.3662 58.2334 27.3662C58.2597 27.3662 58.289 27.3774 58.3213 27.3996C58.3557 27.4198 58.3941 27.4461 58.4366 27.4785C58.479 27.5108 58.5276 27.5462 58.5822 27.5846C58.6368 27.623 58.6984 27.6584 58.7672 27.6908C58.8379 27.7231 58.9178 27.7504 59.0068 27.7727C59.0957 27.7929 59.1958 27.803 59.307 27.803C59.4465 27.803 59.5709 27.7838 59.6801 27.7454C59.7893 27.7069 59.8813 27.6534 59.9561 27.5846C60.0329 27.5138 60.0916 27.4299 60.132 27.3329C60.1724 27.2358 60.1926 27.1277 60.1926 27.0084C60.1926 26.8769 60.1623 26.7698 60.1017 26.6869C60.043 26.6019 59.9652 26.5312 59.8681 26.4746C59.7711 26.4179 59.6599 26.3704 59.5345 26.332C59.4091 26.2916 59.2818 26.2511 59.1524 26.2107C59.023 26.1682 58.8956 26.1197 58.7702 26.0651C58.6448 26.0105 58.5336 25.9398 58.4366 25.8528C58.3395 25.7659 58.2607 25.6577 58.2 25.5283C58.1414 25.3969 58.1121 25.2351 58.1121 25.043C58.1121 24.8894 58.1414 24.7407 58.2 24.5972C58.2607 24.4536 58.3476 24.3262 58.4609 24.215C58.5761 24.1038 58.7166 24.0149 58.8824 23.9481C59.0502 23.8814 59.2423 23.8481 59.4587 23.8481C59.7013 23.8481 59.9217 23.8865 60.1199 23.9633C60.32 24.0401 60.4959 24.1513 60.6476 24.2969L60.505 24.576Z" fill="#005298"/>
<path d="M68.3965 24.7658L67.3119 28.2428H66.8898L66.009 25.5908C66.0009 25.5649 65.9928 25.5374 65.9847 25.5083C65.9783 25.4792 65.971 25.4484 65.9629 25.4161C65.9548 25.4484 65.9467 25.4792 65.9386 25.5083C65.9305 25.5374 65.9225 25.5649 65.9144 25.5908L65.0288 28.2428H64.6066L63.522 24.7658H63.9126C63.9547 24.7658 63.9895 24.7763 64.017 24.7974C64.0461 24.8184 64.0647 24.8451 64.0728 24.8774L64.791 27.2941C64.8023 27.3377 64.8128 27.3846 64.8225 27.4348C64.8338 27.4849 64.8444 27.5383 64.8541 27.5949C64.8654 27.5383 64.8767 27.4849 64.888 27.4348C64.901 27.383 64.9147 27.3361 64.9293 27.2941L65.7469 24.8774C65.7567 24.8499 65.7753 24.8249 65.8028 24.8022C65.8319 24.7779 65.8666 24.7658 65.9071 24.7658H66.043C66.085 24.7658 66.119 24.7763 66.1449 24.7974C66.1707 24.8184 66.1902 24.8451 66.2031 24.8774L67.0183 27.2941C67.0329 27.3361 67.0458 27.3814 67.0572 27.4299C67.0701 27.4785 67.0822 27.5294 67.0936 27.5828C67.1017 27.5294 67.1105 27.4785 67.1203 27.4299C67.13 27.3814 67.1405 27.3361 67.1518 27.2941L67.8724 24.8774C67.8805 24.8483 67.8983 24.8224 67.9258 24.7998C67.9549 24.7771 67.9897 24.7658 68.0301 24.7658H68.3965Z" fill="#005298"/>
<path d="M71.3259 28.2428H70.8551V24.7658H71.3259V28.2428Z" fill="#005298"/>
<path d="M76.5074 25.1613H75.3816V28.2428H74.9133V25.1613H73.7851V24.7658H76.5074V25.1613Z" fill="#005298"/>
<path d="M81.284 24.9405C81.284 24.9939 81.2678 25.0457 81.2355 25.0958L79.2677 27.8594H81.2549V28.2428H78.649V28.0584C78.649 28.0325 78.653 28.0082 78.6611 27.9856C78.6708 27.9629 78.6822 27.9411 78.6951 27.9201L80.6677 25.1492H78.7412V24.7658H81.284V24.9405Z" fill="#005298"/>
<path d="M85.9696 27.8594L85.9671 28.2428H83.8247V24.7658H85.9671V25.1492H84.2954V26.3041H85.6493V26.6729H84.2954V27.8594H85.9696Z" fill="#005298"/>
<path d="M89.5297 26.4497C89.6656 26.4497 89.7853 26.4335 89.8888 26.4012C89.9939 26.3672 90.0813 26.3203 90.1508 26.2604C90.222 26.199 90.2754 26.1262 90.311 26.0421C90.3466 25.958 90.3644 25.8649 90.3644 25.763C90.3644 25.556 90.2964 25.3999 90.1606 25.2948C90.0247 25.1896 89.8209 25.137 89.5491 25.137H89.0347V26.4497H89.5297ZM91.1359 28.2428H90.7186C90.6329 28.2428 90.5698 28.2096 90.5294 28.1433L89.6268 26.901C89.5993 26.8622 89.5693 26.8347 89.537 26.8185C89.5063 26.8007 89.4577 26.7918 89.3914 26.7918H89.0347V28.2428H88.5665V24.7658H89.5491C89.7691 24.7658 89.9592 24.7885 90.1193 24.8338C90.2794 24.8774 90.4113 24.9413 90.5148 25.0254C90.6199 25.1095 90.6976 25.2115 90.7477 25.3312C90.7979 25.4492 90.8229 25.5819 90.8229 25.7291C90.8229 25.852 90.8035 25.9669 90.7647 26.0736C90.7259 26.1804 90.6693 26.2766 90.5949 26.3623C90.5221 26.4465 90.4323 26.5184 90.3255 26.5783C90.2204 26.6381 90.1007 26.6834 89.9664 26.7142C90.0263 26.7481 90.0781 26.7975 90.1217 26.8622L91.1359 28.2428Z" fill="#005298"/>
<path d="M95.5225 27.8473V28.2428H93.5499V24.7658H94.0182V27.8473H95.5225Z" fill="#005298"/>
<path d="M99.8301 26.9519L99.2842 25.5374C99.268 25.4953 99.251 25.4468 99.2332 25.3918C99.2154 25.3352 99.1985 25.2753 99.1823 25.2123C99.1483 25.3433 99.1135 25.4525 99.0779 25.5398L98.532 26.9519H99.8301ZM100.81 28.2428H100.446C100.404 28.2428 100.37 28.2322 100.344 28.2112C100.319 28.1902 100.299 28.1635 100.286 28.1311L99.9611 27.2916H98.401L98.0759 28.1311C98.0662 28.1603 98.0476 28.1861 98.0201 28.2088C97.9926 28.2314 97.9586 28.2428 97.9182 28.2428H97.5542L98.9445 24.7658H99.4201L100.81 28.2428Z" fill="#005298"/>
<path d="M106.026 24.7658V28.2428H105.79C105.753 28.2428 105.722 28.2363 105.696 28.2233C105.672 28.2104 105.647 28.1886 105.623 28.1578L103.612 25.5374C103.615 25.5778 103.617 25.6175 103.619 25.6563C103.62 25.6951 103.621 25.7315 103.621 25.7655V28.2428H103.209V24.7658H103.451C103.472 24.7658 103.49 24.7674 103.505 24.7707C103.519 24.7723 103.532 24.7763 103.544 24.7828C103.555 24.7877 103.566 24.7957 103.578 24.8071C103.589 24.8168 103.601 24.8297 103.614 24.8459L105.625 27.4639C105.622 27.4218 105.619 27.3814 105.616 27.3426C105.614 27.3021 105.613 27.2641 105.613 27.2285V24.7658H106.026Z" fill="#005298"/>
<path d="M111.869 26.5055C111.869 26.7659 111.828 27.0029 111.746 27.2164C111.663 27.4299 111.547 27.6127 111.396 27.7648C111.246 27.9168 111.065 28.0349 110.853 28.119C110.642 28.2015 110.409 28.2428 110.154 28.2428H108.856V24.7658H110.154C110.409 24.7658 110.642 24.8079 110.853 24.892C111.065 24.9745 111.246 25.0926 111.396 25.2462C111.547 25.3983 111.663 25.5811 111.746 25.7946C111.828 26.0081 111.869 26.2451 111.869 26.5055ZM111.386 26.5055C111.386 26.292 111.357 26.1011 111.299 25.9329C111.241 25.7647 111.158 25.6223 111.052 25.5058C110.945 25.3894 110.815 25.3004 110.663 25.239C110.511 25.1775 110.341 25.1468 110.154 25.1468H109.326V27.8618H110.154C110.341 27.8618 110.511 27.8311 110.663 27.7696C110.815 27.7082 110.945 27.62 111.052 27.5051C111.158 27.3887 111.241 27.2463 111.299 27.0781C111.357 26.9099 111.386 26.719 111.386 26.5055Z" fill="#005298"/>
</svg>
