<svg width="64" height="64" viewBox="0 0 64 64" fill="none" xmlns="http://www.w3.org/2000/svg">
<path d="M13.4259 53.784L13.6396 53.7598L13.4218 53.8909L13.3976 54.266L12.8975 54.6572L12.6191 54.6169L12.1976 55.0302L12.1371 55.2783L11.9576 55.1976L11.6672 55.3166L11.2598 55.8147L11.0541 55.6372L10.9976 55.7885L10.7213 55.5586L10.7012 55.494L10.5438 55.3751L10.6507 55.0988L11.3607 54.4333L11.6249 54.0099L12.1512 54.1228L13.2201 53.7538L13.4259 53.784ZM17.3183 44.9716L17.5583 44.9656L17.6107 45.3588L17.5664 45.6573L17.1872 46.2501L17.3284 47.2423L16.8444 47.8835L16.8867 48.2486L16.3159 48.8253L16.2958 49.3254L16.324 49.5412L16.0981 49.7206L16.2675 50.0211L16.6023 50.1018L16.6185 50.3659L17.0682 50.6745L17.0601 51.0233L17.3243 51.2109L17.1852 51.5255L16.9815 51.6162L17.0702 52.0175L17.5361 52.0921L17.7438 52.3865L17.5159 52.8826L17.3848 52.7031L17.0702 52.687L16.8585 53.1044L16.5297 53.1105L16.2091 53.5521L16.1163 53.9373L16.449 53.9978L15.8319 54.5483L15.8037 54.4333L16.0054 54.3103L15.7896 53.9151L15.5254 53.8506L15.3963 53.9413L15.2128 53.6691L14.8215 53.5118L15.4104 52.937L15.2531 52.812L15.4648 52.7939L15.5435 52.57L15.2853 52.0215L15.2672 51.5134L15.3983 51.2008L15.2128 50.9487L14.8013 50.7592L14.8195 50.4466L14.6158 50.372L14.5311 50.1199L14.648 49.9142L14.9869 49.7589L15.0312 49.4726L15.5859 49.0935L15.5395 48.9221L15.6766 48.666L15.4991 48.6922L15.4729 48.5914L15.6161 48.1255L15.8501 47.938L15.8924 47.6133L16.3462 47.2987L16.3583 45.5524L16.5317 45.4677L16.7879 45.5766L17.0722 45.1773L17.1307 45.0906L17.3183 44.9716ZM17.5664 43.3221L17.7519 43.3523L17.5704 43.9714L17.7479 44.4695L17.7217 44.9515L17.6269 44.9696L17.5603 44.7377L17.2013 44.8164L17.0319 44.6954L17.0037 44.4796L16.7496 44.286L16.7919 44.1932L17.0581 44.2295L17.0682 44.0601L17.3102 43.9049L17.3284 43.3846L17.5664 43.3221ZM24.2843 35.7197L24.6756 35.8326L24.7502 36.2056L24.5264 36.2803L24.3569 36.2964L24.0181 36.4355L23.9455 36.6594L23.8668 36.5101L23.9495 36.4214L23.4655 36.367L22.7899 36.6352L22.8282 35.9032L23.0884 35.9475L23.4191 35.8003L23.5018 35.9052L24.2843 35.7197ZM26.4766 34.9009L26.4927 35.2115L26.1055 35.7943L25.9643 35.4877L26.1781 35.4938L26.2427 35.2458L25.7768 35.4192L25.7969 35.2135L26.0773 34.8868L26.4766 34.9009ZM7.49646 33.1405L7.89175 33.5156L7.64772 33.933L7.53882 33.6567L7.47024 33.8422L7.24032 33.691L7.27663 33.5397L7.1294 33.2554L7.49646 33.1405ZM35.5341 31.1421L35.5502 31.0574L35.5986 31.2449L35.6692 31.1461L35.7599 31.3921L35.5583 32.1665L35.8931 32.5415L35.1993 33.3643L35.1368 33.6043L35.3223 33.8503L35.2779 34.0096L34.8504 34.3806L34.5579 34.9574L34.4309 35.3284L34.564 35.5987L34.4228 35.6168L34.2695 35.9818L34.0679 36.1169L33.8722 37.0506L33.6483 36.978L33.2994 37.1171L33.2268 37.464L33.009 37.5527L32.7529 38.081L32.6561 38.801L33.2309 38.8877L32.9828 39.053L33.1078 39.1115L33.0514 39.42L32.7811 39.5511L32.9848 40.0149L32.3475 39.7891L32.2729 39.5289L31.8796 39.4946L31.3068 39.7024L30.8349 40.144L30.5667 40.1823L29.9758 41.0293L29.524 42.1021L29.2618 42.2876L28.9956 42.8038L28.7354 42.8805L28.681 43.1245L28.33 43.1063L28.1848 43.3806L27.8299 43.6387L27.3721 43.7093L27.1522 43.9492L26.9687 43.917L26.9788 43.7577L27.3136 43.7193L27.3237 43.5842L26.6823 43.0902L26.7085 42.9369L26.3939 42.5054L27.0332 40.8921L27.0716 39.0651L26.9142 38.8171L26.2729 38.7485L26.3274 38.2363L26.1882 37.9963L25.8514 38.0004L25.7909 37.7786L26.5633 37.5144L26.9949 36.982L27.2309 36.9659L27.6121 36.2742L27.6484 35.7499L27.9327 35.1127L28.0719 35.0139L28.3139 35.0683L28.5882 34.8868L29.2416 33.9753L29.6026 33.7232L30.7321 33.2937L32.4242 32.2976L33.5979 31.8075L34.2312 31.6946L34.808 31.7712L35.4191 30.9727L35.5341 31.1421ZM19.8897 30.4584L20.4988 31.5091L20.3455 31.86L20.4242 31.981L20.5613 32.0374L20.767 31.8378L21.0958 32.2088L21.2793 31.8821L21.5092 32.0939L21.2349 32.4407L20.7731 32.6908L20.6622 32.5758L20.4363 32.8017L20.2306 32.7392L20.281 32.4992L20.1035 32.2068L19.9099 32.4246L19.7445 31.5433H19.5348L19.4077 31.8015L19.2343 31.7511L19.1274 31.9184L19.0043 31.985L18.9902 31.7248L18.7139 31.7773L18.6433 31.6462L18.7764 31.0735L18.6655 30.8174L18.7623 30.6722L18.9378 30.5976L18.8854 30.7972L19.3069 30.9626L19.4319 30.894L19.5126 30.4968L19.6981 30.3717L19.8897 30.4584ZM29.0581 29.3534L29.2477 29.5187L28.8847 29.6236L28.8746 29.3856L29.0581 29.3534ZM16.4934 27.3529L16.798 27.3368L17.2618 28.091L16.8807 28.7303L15.9045 28.6052L15.8218 28.3915L15.604 28.4016L15.7049 28.3027L15.7613 27.5163L16.4934 27.3529ZM28.5337 26.8528L28.2655 27.0444L28.1526 27.3126L28.4874 27.2642L28.5499 27.4598L29.1711 27.0868L29.1287 27.3852L28.8746 27.478L29.2719 27.3852L29.3384 27.5828L29.3183 27.7825L29.161 27.8248L29.284 28.0628L28.9573 28.1817L29.284 28.3007L29.1993 28.5266L29.0057 28.5225L29.2961 28.7544L29.1549 28.8331L29.2739 28.9359L28.6931 29.2263L28.3966 29.1235L28.4853 28.9198L28.7354 28.938L28.7818 28.6939L28.3361 28.4157L28.1566 28.5891L28.1183 28.4842L27.8077 28.577L27.8057 28.4499L27.963 28.4419L27.9126 28.335L28.1344 28.2342L28.1223 28.0608L27.8924 28.0547L27.8339 28.1878L27.4911 28.0426L27.3055 28.1031L27.4104 27.8208L27.2611 27.7623L27.3822 27.5768L27.4265 27.7381L27.61 27.7643L27.5939 27.607L27.846 27.5324L27.8541 27.3126L27.723 27.3106L27.8279 27.1593L28.5337 26.8528ZM2.43025 26.7984L2.51293 26.8306L3.16033 27.355L3.21075 27.4094L3.30755 27.5949L3.49109 27.6211L3.85411 28.2201L3.37411 28.2241L3.50722 28.1636L3.34387 27.9861L3.06957 28.1011L3.03327 28.3027L2.85579 28.3935L2.62991 28.2866L2.49478 28.3007L2.25277 28.2987L2.2447 28.4197L1.89176 28.2705L1.85747 28.5024L1.67395 28.5609L1.80504 28.7403L1.76269 29.0347L1.44201 29.1336L1.73243 29.3856L1.92403 29.8111L1.63361 29.8454L1.4158 29.7103L1.15966 29.8837L0.782519 29.557L0.740165 29.6962L0.524364 29.6417L0.322683 28.9117L0.0322637 28.7625L0.22992 28.6254L0 28.1938L0.0927657 27.7663L0.294444 27.8208V28.0829L0.411423 28.0527L0.469918 27.8147L0.574785 27.8107L0.830921 27.8833L1.07496 28.1313L1.39361 28.2039L1.44 28.4439L1.73042 28.4298L1.84336 28.0547L2.10756 28.0527L2.17613 27.8974L2.54521 28.1454L2.37579 27.7482L2.45646 27.6494L2.33143 27.5485L2.20437 27.482L2.13378 27.3812L1.99663 26.9799L2.08336 26.7984H2.43025ZM28.919 26.3527L29.0601 26.5947L28.9593 26.756H28.439L28.4511 26.506L28.919 26.3527ZM15.9489 26.0744L15.9852 26.2499L15.6201 26.2963L15.4447 26.9295L15.2712 26.6229V26.2862L15.5738 26.27L15.7674 25.9171L15.9489 26.0744ZM18.599 21.1197L19.1052 21.3416L19.5206 21.2428L19.809 21.9506L19.2302 22.2611L16.4248 23.1323L15.4084 24.2232L14.1317 24.0115L13.0749 24.3604L12.8511 24.5983L13.1052 25.1226L12.7664 25.411L12.8995 26.145L12.5223 26.0623L12.004 25.4251L11.8628 25.1045L11.9738 24.074L12.7079 23.824L13.3452 23.8925L13.8978 23.0214L14.7327 22.1623L15.2975 21.9748L16.4269 21.2811L17.6712 21.1258L18.4477 20.6438L18.599 21.1197ZM15.7573 19.7162L15.9106 19.7465L15.9247 19.928L16.1687 19.7102L16.4914 19.8594L16.0981 20.2405L16.4793 20.422L16.5479 20.6156L16.2474 20.4684L15.9711 20.6055L15.7654 20.541L15.7775 20.3111L15.608 20.2788L15.3075 19.7787L15.7573 19.7162ZM11.768 18.4034L12.0222 18.6353L11.885 18.9983L11.7963 18.7745L11.2961 18.5002L11.768 18.4034ZM3.66251 18.5204L4.18487 18.6394L4.28369 18.843L3.73915 18.8551L3.65243 18.7826L3.65041 18.6777L3.32773 18.7967L3.44873 18.9499L2.84773 18.9358L2.90016 18.8188L3.10386 18.8935L2.95058 18.6999L3.02722 18.5002L3.27529 18.6212L3.27125 18.5083L3.38823 18.4579L3.52739 18.5285L3.66251 18.5204ZM14.9163 17.3286L15.3136 17.4758L15.0393 17.5424L14.6541 17.373L14.9163 17.3286ZM11.4978 17.0765L11.7378 17.2016L11.883 17.1229L12.4275 17.2943L12.6111 17.3367L13.1637 17.7138L13.2968 17.9376L12.9196 17.8489L13.4924 18.4135L13.4843 18.718L13.7163 18.47L14.0329 18.4801L14.3455 18.8955L14.1963 18.9237L14.1096 19.3371L14.2185 19.4541L13.9301 19.7142L14.039 19.8029L14.2043 19.7283L14.3556 20.0106L13.1435 19.8836L13.077 20.4845L12.7139 20.4644L12.4275 20.3817L12.3428 20.4684L12.127 20.0106L11.8245 19.9602L11.7539 19.8493L12.1896 19.4803L12.0423 19.1012L12.3106 18.7261L12.3146 18.3107L12.8249 18.4276L12.3307 17.7924L12.0907 17.7339L11.9758 17.8106L12.0544 17.8872L11.8406 17.9336L11.9254 17.5666L11.2396 17.1189L11.397 16.9596L11.4978 17.0765ZM9.961 14.2251L10.1949 14.3239L10.8101 14.5256L10.8322 14.7474L10.4511 15.0882L10.568 15.2153L10.8726 15.1003L11.1489 15.2596L10.8827 15.3887L10.8605 15.5177L11.407 16.1106L11.3707 16.5684L11.161 16.5906L10.5499 16.5543L10.3321 16.278L10.8565 16.0904L10.8444 15.8485L10.4329 15.9936L10.1869 16.2498L9.89444 15.7496L10.0316 15.7476L10.3139 15.3665L10.0699 15.2576L9.72906 15.3746L9.6867 15.0882L9.2773 15.0378L9.11596 14.8644L9.35796 14.3804L9.78754 14.455L9.6625 14.2433L9.961 14.2251ZM9.44066 13.9488L9.5294 14.1283H9.39628L9.2067 14.4227L9.13208 14.211L9.36806 14.0739L9.24301 13.9851L9.44066 13.9488ZM15.0312 11.8637L15.1482 11.9605L14.9506 12.1844L15.2309 12.4425L14.9385 12.5635L14.8054 12.4183L14.7973 12.0815L14.9022 11.8658L15.0312 11.8637ZM8.41814 11.3455L8.63394 11.3697L8.77108 11.5633L8.70452 11.6843L9.02924 11.8476L9.56368 11.7911L9.64436 12.2186L9.48502 12.3114L9.48906 12.5231L9.36806 12.3558L9.1926 12.5211L9.12806 12.4445L9.02318 12.1501L9.16436 12.1723L9.1099 12.0109L8.8336 12.1783L8.62788 11.9646L8.27494 11.9242L8.16805 11.533L8.40806 11.5653L8.31326 11.4362L8.41814 11.3455ZM5.56435 10.1799L5.73175 10.2444L5.70957 10.4642L6.06453 10.5308L6.10687 10.8655L6.3973 11.0773L6.18755 11.1842L6.10687 11.0248L5.54621 10.8212L5.57847 11.0006L5.35057 11.039L5.4373 11.3858L5.29411 11.4544L5.68335 11.9041L5.46151 11.9242L5.41713 12.1481L5.65713 12.388L5.66519 12.6764L5.38285 12.6925L5.08435 12.511L5.33646 12.1743L5.12873 12.1077L5.02991 12.2549L4.82217 12.2489L4.93109 12.0412L4.87259 11.6318L4.91899 11.3193L4.93915 10.8454L5.06621 10.7183L4.92503 10.559V10.2666L5.02789 10.2243L5.26789 10.4804L5.46957 10.4118L5.56435 10.1799ZM8.4625 9.75642L8.60166 9.77457L8.62386 9.95405L9.0373 10.317L8.90217 10.3009L8.75696 10.5751L8.71662 10.2706L8.53914 10.311L8.49478 10.188L8.39797 9.95001L8.25478 9.9722L8.26284 9.78062L8.13578 9.69593L8.25276 9.46201L8.4625 9.75642ZM13.0245 8.00605L13.4763 8.28232L13.5146 8.48397L13.327 8.47792L13.2141 8.23997L13.1092 8.38516L13.198 8.48599L12.9963 8.51019L12.9701 8.67555L12.8249 8.6332L12.8813 8.52632L12.7543 8.38516L12.6655 8.69773L12.4981 8.69975L12.3025 8.38919L12.3953 8.36903L12.2985 8.06856L12.0262 8L13.0245 8.00605Z" fill="#CED9E5"/>
<path d="M62.7632 44.2972C62.9226 44.2972 62.9624 44.4301 62.9624 44.4965C62.8628 44.5629 62.6835 44.7356 62.7632 44.895C62.8627 45.0942 62.7632 45.3931 62.4644 45.5924C62.1656 45.7916 61.8666 45.0942 61.8666 44.9946C61.8666 44.895 61.9662 44.3969 62.0659 44.1976C62.1655 43.9984 62.564 43.5999 62.6636 43.7991C62.7632 43.9984 62.4643 44.098 62.3647 44.1976C62.2651 44.2972 62.5639 44.2972 62.7632 44.2972Z" fill="#CED9E5"/>
<path d="M63.4606 45.3931C63.4274 45.3599 63.4008 45.2337 63.5602 44.9946C63.6599 44.9282 63.879 44.8153 63.9587 44.895C64.0584 44.9946 63.9587 45.0942 63.8591 45.2935C63.7794 45.4529 63.5602 45.4263 63.4606 45.3931Z" fill="#CED9E5"/>
<path d="M60.173 43.8987C60.2062 43.8323 60.3523 43.6995 60.6711 43.6995L60.8704 43.7991C60.9036 43.8655 60.9102 44.0183 60.6711 44.098C60.432 44.1777 60.2394 43.9984 60.173 43.8987Z" fill="#CED9E5"/>
</svg>
