<svg width="64" height="64" viewBox="0 0 64 64" fill="none" xmlns="http://www.w3.org/2000/svg">
<path d="M22.5313 31.048L22.5991 31.3534L22.7179 31.5103L22.8225 31.4834L22.8394 31.67L23.1773 32.0346L23.3837 32.1237L23.5561 32.0106L23.9647 32.1548L25.0093 32.6905L24.9684 33.1753L25.4674 33.4043L25.5889 33.6573L25.7642 33.776L26.1332 33.9188L26.0781 34.2835L25.7473 34.07L25.5465 34.0432L25.1733 33.7887L24.974 33.8015L24.5372 33.988L24.2092 34.4149L24.1371 34.658L24.4029 34.8856L24.3972 35.1287L24.0622 35.2799L24.0127 35.181L23.7357 35.1047L23.7116 34.8616L23.3045 34.6298L23.1391 34.2509L22.9186 34.176L22.8663 34.0615L22.5652 33.9852L22.3136 33.6884L22.3715 33.4085L22.0775 33.3223L22.0322 33.1923L22.1581 33.0594L22.1326 32.9449L21.7425 32.8361L21.6887 32.7711L21.5205 32.5562L21.464 32.4417L21.5375 32.2509L21.3919 31.9979L21.4753 31.8636L21.4583 31.8156L21.4088 31.6954L21.4922 31.6657L21.5021 31.4806L21.6619 31.3463L21.6534 31.2488L22.3984 30.6452L22.5454 30.8162L22.5313 31.048ZM20.6695 21.9892L20.9155 22.1051L20.9211 22.1828L20.8349 22.1673L20.9749 22.4118L20.9805 22.7016L21.0992 22.8189L21.0837 23.0705L21.2873 23.1341L21.3594 23.5044L21.3 23.5864L21.4767 23.9836L21.5035 24.3723L21.4569 24.5235L21.1431 24.7454L21.4654 25.4041L21.5657 25.5214H21.7099L21.9488 25.2896L21.9743 25.1341L22.1284 25.079L22.0747 25.3744L22.257 25.2882L22.3588 25.349L22.3616 25.5115L22.5553 25.7094L22.5482 25.944L23.2466 26.8303L23.3342 27.1087L23.4162 27.2049L23.5151 27.1822L23.5872 27.4692L23.8728 27.7264L23.6466 28.5307L23.5151 28.6593L23.2395 28.4657L22.9511 28.5971L22.4111 28.4544L21.6435 27.7999L21.3551 27.6911L21.218 27.6868L20.9692 27.9088L20.7685 27.954L20.7133 28.1434L20.285 27.9073L20.0207 27.9526L19.9825 27.8169L19.7054 27.6529L19.8086 27.431L19.5372 27.0465L19.6234 26.8289L19.4623 26.5066L19.598 26.5024L19.8991 26.9349L19.9867 26.8543L19.8157 26.7271L19.803 26.5066L19.6135 26.3045L19.2573 25.3462L19.2531 25.1228L19.1612 25.0776L19.0283 25.079L18.8869 25.2741L19.0156 25.479L18.9732 25.6811L19.0976 25.9497L19.1089 27.0041L18.7526 27.0239L18.3709 27.2077L18.2946 26.9222L17.821 26.7144L17.797 26.5405L17.8013 26.3653L17.961 26.2946L18.067 25.9652L18.0727 25.3801L18.3003 25.3942L18.337 25.2161L18.4671 25.1143L18.4374 24.8133L18.607 24.3567L18.5985 23.8818L18.7399 24.2041L18.87 23.9497L19.1385 23.8663L19.2205 24.3511L19.328 24.4246L19.5004 24.3737L19.5895 24.6168L19.9288 24.4288L20.1818 24.0769L20.3076 24.0896L20.2864 23.9228L20.4235 23.9115L20.4744 23.7617L20.4193 23.5793L20.2044 23.4663L20.2002 23.3588L20.3387 23.3744L20.3627 23.5129L20.4914 23.3871L20.3627 22.9701L20.456 22.9192L20.4447 22.7609L20.3161 22.6578L20.4151 22.3171L20.3373 22.0457L20.4037 21.9736L20.6695 21.9892ZM21.782 21.5128L22.1383 21.7178L22.0407 21.8549L22.0718 22.0669L21.9503 22.1956L22.1976 22.2747L22.3079 22.1574L22.3786 22.3143L22.2782 22.3581L22.4323 22.3906L22.5313 22.5814L22.3743 22.7624L22.4196 22.8669L22.0902 23.4422L22.0845 23.7037L22.4351 23.5694L22.4323 23.4663L22.4917 23.3546L22.592 23.4422L22.7051 23.3984L22.6019 23.2726L22.8663 23.3546L22.9921 23.4973L22.9398 23.5963L22.8719 23.7065L23.0204 23.8988L22.8988 24.1207L22.9794 24.1461L22.9582 24.3002L23.2635 24.4486L22.7716 24.696L22.6924 24.7511L22.4662 24.6451L22.3022 24.4274L22.2259 23.9666L22.0195 23.8408L21.9361 23.3433L21.6704 22.8245L21.6746 22.5108L21.5516 22.5178L21.341 22.115L21.382 21.8818L21.6887 22.0613L21.7566 22.0231L21.782 21.5128ZM23.436 18.7255L23.5576 18.6817L23.5363 18.8782L23.7215 18.7453L23.7795 18.8075L23.7738 18.9601L23.73 19.076L23.4346 19.2541L23.231 19.1778L23.1024 19.5001L23.8219 20.105L23.2437 19.7404L22.8564 19.2782L22.9172 18.8188L23.2169 18.9686L23.2098 18.8372L23.3116 18.7707L23.436 18.7255ZM22.3333 15.8392L22.6599 15.9071L22.5044 16.1573L22.7376 16.5785L22.6542 16.7255L22.6373 17.3022L22.8126 17.6442L22.8112 17.8294L22.3828 18.4541L22.3644 18.6449L22.5016 18.6591L22.5906 18.2251L22.715 18.3806L22.6952 18.7114L22.6458 18.7792L22.5468 18.7396L22.7277 19.4153L22.585 19.5708L22.3489 19.2895L22.4139 19.6372L22.3192 19.6683L22.2372 19.804L22.069 19.8902L21.8456 19.7616L21.6831 19.9623L21.7523 20.2238L21.6534 20.2676L21.5502 20.1234L21.57 19.9015L21.3367 19.9439L21.2152 19.64L21.2449 19.4775L21.0922 19.4068L20.7656 20.1262L20.408 20.5503L20.514 20.2789L20.4023 20.1347L20.5041 20.0188L20.4645 19.869L20.5536 19.7898L20.6101 19.404L20.5691 18.6153L20.8349 18.0824L21.1388 16.9968L21.2632 16.8272L21.4117 16.8032L21.741 16.1488L22.069 16.1686L22.2273 15.8449H22.3333V15.8392ZM16.4032 10.8794L16.8046 11.3147L16.6619 11.3416L16.4569 11.1437L16.3254 11.1607L16.2321 11.001L16.4032 10.8794ZM15.2355 9.47583L15.6964 9.74863L15.6723 9.88573L15.9508 10.0921L15.9098 10.2476L16.1332 10.379L16.1699 10.5783L15.7571 10.5543L15.5691 10.4511L15.473 10.3197L15.285 10.1925L15.2921 10.0016L15.2016 9.83768L15.0772 9.79951L15.0843 9.49562L15.1606 9.46028L15.2355 9.47583ZM11.693 0.0424021L11.9347 0.101769L12.1072 0.397182L12.4224 0.556901L12.5044 0.433931L12.7461 0.695422L12.8196 0.559729L12.9751 0.763267L12.8493 1.10815L12.78 1.28766L12.6429 1.43325L11.9092 1.68626L11.5728 1.88838L11.4781 2.0792L11.6039 2.21489L11.5134 2.3944L11.7792 2.58946L11.6491 2.69971L11.5276 2.66861L11.618 2.86226L11.7297 2.82268L11.8287 2.99229L12.2994 3.19724L12.691 3.24389L12.5341 3.37817L12.6146 3.47711L12.6033 3.70326L12.4535 3.84461L12.3984 4.17112L12.6401 5.53652L12.7489 5.74713L13.1674 5.94784L13.5307 5.97469L13.7569 6.37329L14.2191 6.21498L14.4439 5.9026L14.8581 6.99803L15.0814 7.25246L14.9514 7.55635L14.7662 7.45176L14.6107 7.48285L13.8657 7.03337L13.5406 6.94857L13.3964 6.75351L13.026 6.53301L12.6726 6.39873L12.4167 6.42983L11.9248 6.03688L11.6449 5.35984L11.6421 4.98668L11.5375 4.80293L11.6308 4.53155L11.3834 4.07924L11.0582 3.75698L10.678 3.62269L10.7034 3.46439L10.2652 3.25237L10.1691 2.88487L10.0023 2.76473L10.097 2.42973L9.90896 2.47921L9.73226 2.44953L9.39299 2.33079L9.51032 1.79509L9.29969 1.64385L9.14136 1.83184L9.16398 1.45586L9.02545 1.21981L9 1.10391L9.38875 0.366085L9.45802 0.445239L9.70964 0.405662L9.91886 0.5357L10.3613 0.381634L10.4829 0.4622L10.7077 0.384461L10.9381 0.514499L11.2406 0.363258L11.5898 0L11.693 0.0424021Z" fill="#CED9E5"/>
<path d="M55.2625 63.0699L55.3402 62.9131L55.5918 63.0784L55.7162 63.5081L55.6964 64L55.5989 63.7837L55.2356 63.4982L54.9854 62.701L55.1451 62.7957L55.2625 63.0699ZM51.0004 55.2592L51.4103 56.1892L52.1793 56.6571L52.8876 57.3779L52.9017 57.5023L52.7377 57.7511L52.6034 57.7172L52.2656 57.7836L52.1496 58.4182L52.1765 58.7334L52.3037 58.8903L52.2246 58.9045L52.1765 59.1575L52.0182 59.1292L51.8598 58.9539L51.6506 59.0557L51.5644 58.9214L51.4386 59.1433L51.2732 58.8479L51.0894 58.8903L50.8279 58.7518L50.7021 58.4974L50.4123 58.0974L50.5183 57.8981L50.3148 57.5998L50.4985 57.3709L50.5749 57.4175L50.6413 57.3271L50.4844 57.0331L50.6017 56.7391L50.5282 56.4889L50.1988 56.2034L50.3996 55.6775L50.6045 55.4571L50.5833 55.3143L50.7926 55.3256L50.9382 55.1729L51.0004 55.2592Z" fill="#CED9E5"/>
</svg>
