<svg width="64" height="64" viewBox="0 0 64 64" fill="currentColor" xmlns="http://www.w3.org/2000/svg">
<path d="M36.0306 30.6587L35.8108 32.1861L36.3823 32.3949L36.1075 32.6311L36.4042 32.8125L36.1899 33.1751L35.7339 33.2905L35.6954 33.0377L35.2558 32.2136L35.3767 31.5158L35.0909 31.1092L35.6679 30.4554L36.0306 30.6587Z" />
<path d="M3.69263 23.7853L4.63226 23.9172L6.13789 25.1039L6.24779 26.2358L5.9126 26.9335L5.52795 26.9225L5.61585 26.2522L4.96196 26.9116L4.43445 26.7577L3.49479 28.0434L3.79154 28.3401L3.59919 28.8565L3.01126 28.7192L2.79694 27.9665L1.92324 28.3016L0.84072 27.5544L0.164844 28.0214L0 26.8786L0.571469 26.2248L1.0825 26.3511L2.709 25.549L2.69254 24.4446L3.69263 23.7853Z" />
<path d="M10.6987 23.593L11.1328 23.8128L11.2592 24.527L12.1604 24.7908L12.2373 25.3677L12.9407 26.1149L16.5784 27.7742L16.8036 28.3566L16.5234 28.7467L16.963 29.428L17.3861 29.34L17.5784 28.7522L19.4687 28.7961L19.9852 29.2467L18.7049 31.3894L18.0345 31.7685L17.6883 31.5103L16.4465 32.6092L15.7541 32.2905L15.9409 31.6696L15.3255 31.2905L13.3913 31.296L13.2209 30.1422L13.0231 29.851L13.1605 29.2137L12.611 28.2192L11.7867 27.7522L11.4296 26.6204L10.0118 24.527L9.92392 24.0435L10.6987 23.593Z" />
<path d="M29.019 22.4282L29.2828 22.3458L29.2333 23.7084L29.7993 23.4886L29.5465 24.6369L29.5355 25.2687L29.4146 26.516L28.6288 26.5819L28.6563 26.1149L27.9639 26.5874L27.6507 26.3456L27.387 26.0599L27.1727 25.483L29.1179 24.6864L28.3376 23.0765L28.6508 22.8842L28.7827 21.7634L29.019 22.4282Z" />
<path d="M27.887 18.714L28.0958 19.1591L28.1013 19.5382L29.3762 20.0876L26.8045 23.9117L26.5517 25.3017L26.1176 25.961L25.2439 26.2138L25.6011 26.6973L24.8538 26.9885L24.5296 26.7522L24.2219 27.1808L24.4142 27.461L23.546 27.884L23.48 28.3785L22.8811 28.6862L22.5074 28.0709L21.7986 28.1807L21.8535 27.2632L22.414 26.9225L22.8206 27.0709L23.2328 26.1808L23.6889 26.3346L24.2933 25.8072L23.8647 25.3017L24.068 24.4831L23.6779 24.1534L24.3427 23.7304L24.5186 22.9831L24.9472 23.06L25.8209 22.3677L26.244 20.7469L26.7276 20.4667L27.1067 19.3514L27.92 18.4118L27.887 18.714Z" />
<path d="M33.8271 13.6043L33.9645 14.3625L34.3271 14.7142L34.7063 14.423L35.08 14.8625L34.7887 17.4448L33.5523 18.3349L32.5742 17.6921L33.4314 16.9394L32.9479 16.4394L32.294 16.7965L32.1841 16.5053L32.4039 15.9339L32.327 15.6152L32.7391 14.5658L33.8271 13.6043Z" />
<path d="M46.5644 13.5878L46.3117 15.7196L45.7952 15.7526L45.8996 14.1153L46.1688 13.5714L46.5644 13.5878Z" />
<path d="M38.9814 11.1648L39.4265 11.4231L39.3825 11.8681L37.8384 14.0219L37.8604 13.4615L36.7999 13.3955L37.8879 12.6648L38.1132 11.8132L37.8219 11.5714L38.4758 11L38.9814 11.1648Z" />
<path d="M60.5492 52.2622L61.0602 52.3007L61.0272 52.8941L59.4776 52.5754L59.7908 51.8392L60.5492 52.2622Z" />
<path d="M55.0926 47.1855L54.3068 49.6909L53.7299 49.0755L54.7739 47.213L55.0926 47.1855Z" />
<path d="M47.6744 46.5756L48.5316 47.3448L47.7074 47.9162L47.0315 47.2844L47.6744 46.5756Z" />
<path d="M54.4058 38.5924L58.8182 41.7241L58.2962 42.9439L58.6314 44.4823L58.2028 44.8944L58.494 45.3229L58.7963 45.0922L59.5436 45.3284L60.0931 46.3009L60.5766 46.2405L63.0384 48.125L63.3241 48.9272L63.8132 49.125L64 50.0975L63.5879 50.3557L63.8187 51.2568L61.6482 51.8007L61.4943 51.1689L60.8404 51.9326L60.1645 51.493L59.5161 50.3118L59.0216 50.2403L58.2797 50.7953L58.0379 50.6249L58.1369 52.0864L57.3566 51.4875L57.4884 50.8172L56.9719 50.8722L57.0214 50.3722L56.5543 50.6689L56.3125 50.3337L56.4279 49.7623L56.7741 49.9711L57.1697 49.3722L57.8237 49.4656L58.2028 49.103L58.005 47.0811L57.5544 46.8888L56.7961 47.4327L56.4884 46.4877L56.0378 46.7844L55.5597 46.5811L54.9718 47.125L55.3344 46.0372L53.8728 46.2844L53.642 44.9603L53.12 45.4108L52.7628 44.5922L52.2902 44.8944L51.4495 44.8064L51.367 44.5098L52.488 43.6417L52.554 42.7845L53.2134 42.3725L53.1419 41.4714L52.5265 41.2461L52.3122 40.5593L52.8617 39.6198L52.6474 39.3726L53.2628 39.1088L53.4112 38.5924L53.9167 38.6034L54.087 38.0045L54.4058 38.5924Z" />
</svg>
