<svg width="64" height="64" viewBox="0 0 64 64" fill="currentColor" xmlns="http://www.w3.org/2000/svg">
<path d="M12.6707 42.8391L13.867 43.1751L13.9306 43.3583L13.6863 43.6103L13.6379 43.9869L14.0604 44.697L13.8517 44.7937L12.2074 43.7222L11.9096 43.2845L12.4467 43.2641L12.5256 42.8748L12.6707 42.8391ZM61.0856 30.0682L61.0907 30.2565L60.8361 30.4143L60.3169 30.3634L60.2354 30.2208L61.0856 30.0682ZM61.0092 29.4268L61.1467 29.582L61.0169 29.8238L60.6376 29.8467L60.6351 29.5413L61.0092 29.4268ZM38.9437 26.3193L39.6004 26.7494L39.3993 26.8996L39.4171 27.5104L39.1346 27.3526L38.9691 27.2075L38.7579 27.2406L38.1292 26.981L38.1317 26.8411L38.5899 26.5815L38.7426 26.3677L38.9437 26.3193ZM5.1034 20L5.93573 20.6617L5.65065 21.1325L5.77028 21.6466L6.01464 22.6188L6.04263 24.0924L7.12185 24.4843L7.62583 24.6701L9.52211 24.805L9.91919 24.9959L10.8839 25.1028L11.4209 24.8381L11.8358 24.9043L12.1871 24.721L12.2863 23.9168L12.4391 23.8252L12.6452 24.0415L13.083 23.8634L12.6885 23.0566L12.9634 22.7537L13.3299 22.8657L13.3808 22.6545L13.9052 22.5399L15.0888 22.9548L15.6946 24.2858L15.3153 24.805L15.2491 25.2988L15.0022 25.2606L14.8393 25.3904L14.8953 25.5431L14.6917 25.5482L13.5285 25.1511L12.9787 25.1282L12.5231 25.4031L12.518 25.6042L12.882 25.6067L13.8034 26.2073L14.5492 26.187L14.8241 26.5255L15.3917 26.8105L15.7175 26.7978L15.8524 26.444L16.1374 26.5204L16.6262 26.0852L16.9825 26.6833L16.8934 27.3373L17.0996 27.4849L17.0461 29.1443L17.5476 29.4064L18.9628 29.5439L19.37 29.493L19.6882 29.2257L20.4569 29.2817L20.6783 29.0171L21.335 29.0196L21.5437 29.1647L21.7652 29.101H22.2106L23.4833 28.9L25.0309 28.391L25.9039 27.63L26.8508 27.6529L27.09 27.4111L27.9198 27.4799L28.6452 27.7445L29.022 27.6326L29.2765 27.8183L29.7805 27.9456L30.1343 27.971L31.0557 27.9049L31.1142 27.602L31.3484 27.5638L32.0662 28.0728L32.5371 27.966L32.9265 28.1034L33.1403 27.9481L33.3414 27.5358L33.7105 27.8158L33.9854 27.6046L34.3799 27.6376L34.3697 28.0321L34.5657 28.223L34.9551 28.0499L35.062 28.3782L34.7922 28.9051L34.8482 29.3479L35.1409 29.8035L36.0624 29.9231L37.3987 29.7806L37.4394 29.6355L38.1775 29.7297L38.3328 30.091L39.0379 29.9918L39.3229 30.1318L42.4435 29.8824L42.7439 29.9358L42.805 30.2972L43.1231 30.684L44.0038 31.1905L45.0678 31.0709L46.0375 30.6917L46.4473 30.3481L47.043 30.4117L47.4222 30.1114L49.0232 29.6609L49.7003 29.9893L50.5733 29.8722L51.1791 29.9918L51.5966 29.8365L51.3369 30.5008L50.5784 30.8902L50.6446 31.2338L50.4537 31.9947L50.7362 32.2009L50.6828 32.5597L50.866 32.8779L50.2755 33.2164L50.2424 33.8119L50.4512 34.0537L50.1024 34.4482L50.4741 35.0462L50.5428 35.7308L50.7133 35.8199L50.978 35.8606L51.286 35.7156L51.5202 35.9599L52.3576 36.2831L52.7929 36.0082L53.3172 35.0004L53.5005 34.9012L53.6659 35.1175L54.3583 34.5805L54.4015 34.13L54.903 34.3489L55.5469 34.2954L55.9542 33.7534L56.1909 33.9188L56.7763 33.8043L56.9596 33.6312L56.8858 33.453L57.3745 32.9822L58.1483 32.9466L58.3214 33.2062L58.7032 33.2851L59.3268 32.9873L59.454 33.1222L59.2351 33.5396L59.314 33.6668L59.9173 33.8984L60.6122 33.7483L61.0398 33.4301L60.9227 33.0535L61.3579 32.9644L61.5539 32.7837L61.7168 32.7073L61.951 32.3103L61.8594 31.9337L62.0783 31.7148L62.1623 31.5824L62.3837 31.4959L62.4244 31.7326L62.595 31.781L62.8113 31.5112L63.0837 31.3101L63.0099 31.1193L63.3815 31.0124L63.2033 30.8775L63.1804 30.74L63.7938 30.5619L63.8524 30.8037L63.6055 30.9436L63.7251 31.16L63.4044 31.2185L63.3128 31.641L62.791 31.9591L63.0684 32.8753L62.908 33.5421L63.3942 34.0537L63.6844 34.1046L63.9873 33.8119L64 34.2853L63.7862 34.5245L63.1855 34.6339L63.0862 35.1124L63.3 35.5247L63.2084 36.1279L62.8342 36.5834L63.015 36.8557L62.4397 37.5251L62.1037 38.3726L61.8237 38.3064L61.5717 38.6907L61.2383 38.8765L60.4085 38.8918L60.098 39.2379L59.3853 39.4644L58.973 39.411L59.0111 39.1106L58.7872 38.8256L58.2526 38.7289L57.6087 38.7976L57.4228 38.9605L57.2014 38.7518L56.8349 38.8078L56.7458 38.5075L56.2367 38.2657L55.8906 38.4744L55.2568 38.393L53.2561 38.9121L52.5511 39.3677L51.6093 39.3295L51.0188 39.0776L50.7591 39.243L49.6876 38.9401L49.0767 39.2175L47.5444 39.159L46.4066 39.668L45.9128 39.5942L45.4292 39.8411L44.2711 39.5789L43.4489 39.7036L42.5072 39.3677L41.4381 39.8309L40.3818 39.78L40.1527 40.1974L39.5647 40.5206L39.4273 40.4417L38.3353 40.8336L38.1852 40.6046L37.0729 40.6148L36.098 41.195L35.9809 41.0067L35.2224 40.9151L34.9424 40.9049L34.5962 41.167L34.3035 41.2765L33.5374 41.1569L33.1938 41.223L32.8705 41.1849L32.5574 41.1925L32.1018 41.391L30.287 40.9609L29.643 41.0703L29.2281 41.4445L28.7852 41.4673L28.3933 41.5183L28.1769 41.4063L27.8486 41.5081L27.8358 41.2027L28.21 41.0042L28.35 40.6835L28.2634 40.4112L28.2405 40.1948L28.0955 39.556L28.2049 39.2125L28.4798 39.0165L28.3194 37.8305L27.9758 37.0466L26.978 36.5784L26.8711 36.7081L24.9876 36.5453L24.6032 36.642L24.2494 36.4129L23.8753 36.5427L23.7582 36.1279L22.9793 35.3465L22.0274 35.0768L21.5234 35.1709L20.7318 34.7943L20.6223 34.5041L20.2456 34.2598L19.9631 33.9595L19.4388 33.9977L19.1435 34.27L18.5097 34.0639L17.601 34.4736L16.7967 34.2522L16.3742 34.3107L15.6157 33.7457L14.6281 34.0104L14.2794 33.9188L14.1546 33.705L13.3681 33.8195L13.083 33.6821L12.7725 33.9773L12.2685 33.9442L11.8358 33.8857L11.4769 33.7075L11.0773 33.1044L10.7821 32.9466L10.0388 32.9389L9.35666 33.1527L8.47598 32.6997L8.10945 32.7786L7.16258 32.4249L6.74515 32.4656L6.55934 32.7023L6.25644 32.855L5.74228 32.9822L5.55902 32.6921L4.31689 32.6844L3.75691 32.9008L3.47184 32.7252L2.98059 32.7761L2.77187 32.8397L2.36207 32.9237L1.87591 32.7837L1.73592 32.9059L1.47629 32.7048L1.48902 32.0762L0.64651 31.8115L0.427615 31.4043L0.0967241 31.3254L0 30.8597L0.254534 30.6586L0.381801 30.5008L0.794145 30.3837L0.776325 30.1954L0.366529 29.9307L0.567606 29.6304L0.412344 29.297L0.570153 28.8694L0.412344 28.7396L0.847594 28.3604L0.730511 27.9252L1.26249 27.5104L1.28794 26.9021L1.05123 26.8716L0.941771 26.584L0.972321 26.3117L1.17849 26.2404L1.53738 25.6067L1.45593 25.2937L1.2014 25.1104L1.25994 24.7414L1.40502 24.0491L1.6392 23.6572L1.56283 23.2806L1.48648 23.0515L1.47121 22.8581L1.79191 23.0337L1.96245 22.3083L1.89118 21.8044L2.21954 22.5629L2.02354 22.8403L2.10754 23.4969L2.28826 23.647L2.30098 24.8966L2.65479 25.0621L2.88896 25.2351L3.23258 25.454L4.01145 25.4235L4.67324 25.1944L4.92777 24.1408L4.81578 23.4332L4.44925 22.7181L4.6427 22.1276L4.42125 21.4099L4.48489 21.0078L5.1034 20Z"/>
</svg>
