<svg width="64" height="68" viewBox="0 0 64 68" fill="none" xmlns="http://www.w3.org/2000/svg">
<path d="M53.7926 64.4816L55.552 65.6148L55.7247 66.0896L56.5666 66.1904L56.6026 66.399L56.1457 66.7012L55.4405 66.3235L54.0877 66.766L52.7492 66.399L52.4038 65.7875L53.6667 64.2945L53.7926 64.4816ZM41.5093 63.9527L42.1173 64.111L41.9878 64.5931L41.6532 64.7442L41.3258 64.3628L41.5093 63.9527ZM40.4443 62.9131L40.0521 63.1757L40.2572 64.129L39.3433 63.7189L39.7643 62.1936L39.9514 62.1252L39.9838 62.4094L40.3364 62.5065L40.4443 62.9131ZM42.7434 62.0676L44.6503 64.2909L44.438 65.7011L44.5783 66.0789L43.1643 67.2229L42.4088 66.6472L41.2934 66.6581L40.9192 66.2695L40.635 66.4098L40.2932 66.194L40.6746 65.8378L42.2325 66.0069L42.8909 64.7442L42.6427 64.3485L42.5959 63.4887L42.2541 63.262L42.5491 62.7008L42.3908 62.341L42.1389 62.0892L40.8689 62.1756L40.7717 61.5964L41.4085 61.2007L42.4628 61.4992L42.7434 62.0676ZM24.617 53.8905L25.8655 55.0417L26.2541 55.1497L26.5383 54.9662L27.0744 55.3619L27.3586 55.79L27.1751 55.9051L27.5781 56.3548L27.1823 56.7361L26.2109 56.5635L25.5093 55.862L25.4625 55.2144L24.3975 55.164L23.6348 54.0452L24.3112 53.7358L24.617 53.8905ZM34.3062 51.8363L34.8063 51.9659L34.5617 52.1457L34.648 52.4875L33.9212 53.0523L33.8205 53.4696L33.5075 53.4444L33.0757 54.0848L31.4926 55.0381L30.8234 55.0237L31.0933 54.3042L31.5826 53.8581L31.9064 52.7861L33.3492 51.8939L34.3062 51.8363ZM10.5203 49.5268L10.4124 50.07L11.7904 50.7355L12.9921 50.1275L13.1252 49.6851L13.4202 49.8505L13.5929 49.6491L13.7009 49.9369L14.2442 50.106L13.7908 50.7463L14.0463 50.955L13.9635 51.3399L14.3233 52.3544L14.0715 53.1315L13.6685 53.6531L13.3087 53.448L13.0856 53.6819L12.7258 53.6387L12.5531 53.9301L12.1394 53.8294L11.8803 54.1352L11.5781 53.7214L10.9988 53.6423L10.6786 54.0668L10.4663 53.9373L9.95184 54.2287L9.68559 54.0884L7.60599 54.3294L7.02672 54.6208L6.90079 53.8294L7.36852 53.279L7.12026 52.8436L7.53403 52.2357L7.15985 51.8112L7.64557 51.5414L7.47647 51.25L7.73552 50.9334L7.55921 50.8398L8.06293 50.401L8.64938 51.1996L9.41215 50.9586L9.50569 51.4334L9.27183 51.9155L9.61364 52.3832L10.3692 52.376L10.6894 52.8365L11.7076 52.4551L11.812 52.1817L11.3982 51.5018L10.6966 51.6097L9.75755 50.3686L9.97343 50.2427L9.90507 49.5951L10.5203 49.5268ZM16.8059 48.926L17.9428 49.2426L18.1299 50.2642L17.8529 50.5305L17.4643 50.696L16.5181 50.2319L16.1655 49.1886L16.4425 48.89L16.8059 48.926ZM38.8828 48.872L39.6348 49.793L39.4333 50.2786L39.8003 50.2822L40.214 50.6636L40.6026 50.5844L40.6458 50.9801L41.3582 51.2248L41.8871 51.9299L41.3978 52.1673L41.1639 52.635L41.4193 52.9444L41.5813 53.6279L41.4877 53.9805L41.3222 54.369L40.7285 54.0884L40.3724 54.7899L39.847 54.2359L39.7103 53.6639L39.4261 53.6171L39.2426 53.4085L38.246 52.2393L38.3539 51.8903L37.4616 51.9839L37.2601 51.8831L37.163 51.4047L37.4005 50.624L37.2529 49.6958L37.6667 49.0339L38.8828 48.872ZM4.54415 48.3252L4.79241 48.3144L4.89674 48.7569L4.47938 49.703L4.098 49.1922L3.82097 49.1814L3.73462 48.4223L4.34626 48.1993L4.54415 48.3252ZM50.6912 46.915L50.4358 47.1956L50.1407 46.7063L50.4106 46.5948L50.6912 46.915ZM14.7371 46.7099L14.9746 46.7063L15.1473 47.228H15.633L15.7121 46.8898L16.1583 47.3719L15.8309 47.5302L15.6438 48.7497L15.2084 49.2677L14.0535 49.5411L13.6973 49.0555L13.798 48.7101L13.4131 48.4403L13.3987 47.6057L13.78 47.5194L14.2802 46.7891L14.7371 46.7099ZM50.9682 46.5013L51.2633 46.6416L51.1481 46.861L50.6049 46.7783L50.6121 46.5264L50.9682 46.5013ZM44.2437 45.9005L44.143 46.4041L44.4056 46.3969L44.2617 47.4078L43.8443 47.4042L43.4918 47.7064L42.344 47.3971L42.398 47.0265L42.8513 47.0769L42.9377 46.4797L43.481 46.343L43.8407 45.717L44.2077 45.6091L44.2437 45.9005ZM58.3188 44.8536L58.6786 45.0515L58.3404 45.2997L57.4949 44.9723L58.3188 44.8536ZM45.9024 44.7996L46.129 45.8285L46.2118 45.9796L46.4349 46.1559L46.2586 46.3574L45.8736 46.1163L45.8088 45.9904L45.5642 46.0372L45.3663 45.5551L45.1252 45.753L45.0173 45.4832L45.2152 45.0946L45.3447 44.9112L45.9024 44.7996ZM49.8817 44.1881L50.5761 44.4399L50.6049 44.9328L50.9539 44.9651L50.8891 45.5048L49.9968 45.2997L49.8925 45.494L49.3168 45.0982L48.4929 45.3177L48.4749 44.8752L48.7159 44.645L49.2161 44.6665L49.5507 44.1557L49.8817 44.1881ZM48.1979 43.5801L48.1043 43.8715L47.6186 44.0154L47.3775 44.627L47.2084 44.4255L46.7443 44.4471L47.3056 43.8571H47.6689L48.1007 43.4362L48.1979 43.5801ZM61.4058 42.9182L64 44.6054L63.266 44.7313L62.7911 44.4255L61.3807 44.6953L60.8446 45.2205L60.6251 45.1198L59.6213 46.1811L59.1212 46.3178L58.8333 46.879L58.3224 47.1596L58.0742 47.8899L56.8329 48.9763L55.9262 49.1778L55.5988 49.0447L54.7533 49.811L53.879 49.7462L53.0155 49.2102L52.8284 48.6274L53.3357 48.926L53.843 48.1201L54.1021 48.2209L54.2244 47.9151L54.836 48.1957L55.0051 47.9367L55.6779 48.1885L56.0629 47.8431L56.2356 48.0734L56.4407 47.8036L56.2428 47.3683L56.8581 47.3035L55.973 47.0265L56.1745 46.4401L56.4479 46.3862L56.7034 46.1883L56.8185 46.1775L57.1387 46.2027L57.4265 45.9149L58.2577 45.8141L59.427 45.109L60.4416 44.3536L59.7184 44.0837L59.8623 43.7312L60.3301 43.3391L60.4308 43.4902L60.6287 43.2851L61.2296 43.3463L61.1504 42.9433L61.4058 42.9182ZM48.8311 42.4469L49.1441 42.5836L48.9354 42.6663L49.047 43.0045L48.5468 43.2995L48.0827 43.2383L47.8992 42.8426L48.0935 42.5044L48.8311 42.4469ZM28.6683 41.5259L28.9345 41.7166L29.4202 41.5007L30.0031 41.9073L29.449 42.285L29.2044 42.1375L28.6359 42.4181L28.1322 41.8821L28.4992 41.364L28.6683 41.5259ZM17.324 38.7486L18.058 38.9537L18.4466 39.3818L19.1338 39.3459L19.49 39.5725L19.8605 40.3783L20.4398 40.8424L21.2961 42.1987L21.3213 42.4361L21.0047 42.8498L20.8428 42.6339L20.4938 43.3247L20.1016 43.1808L20.1664 43.5873L19.3892 44.3176L18.7344 43.3463L18.9718 43.1268L18.6013 43.1196L18.4286 42.3354L18.6157 42.1663L18.4106 41.8389L18.1371 41.8965L18.2379 41.5187L17.8565 41.2345L18.5401 40.6949L17.7917 40.515L18.0616 40.1517L17.7018 39.9214L17.7989 39.4718L17.1765 39.3063L17.2484 38.9969L17.324 38.7486ZM31.4423 38.4681L31.8381 38.63L31.4567 39.1156L31.2948 41.1014L30.8342 41.6302L31.3559 42.5584L31.2048 42.8858L30.6867 42.1735H30.478L30.273 41.6015L29.7081 41.4612L29.3915 41.0547L29.7189 40.9899L29.557 40.015L30.3773 39.6049L30.6363 38.9249L31.3163 38.7774L31.2624 38.5148L31.4423 38.4681ZM55.7355 35.1943L55.3289 35.4174L55.6923 35.9354L56.0521 35.9822L55.6815 36.896L55.0771 36.824L54.8648 36.5146L54.6489 36.7808L53.9761 35.4389L54.5878 35.8743L54.9188 35.698L55.1023 35.0216L55.3397 35.2231L55.6923 34.9893L55.7355 35.1943ZM36.2023 34.3489L36.5154 34.6187L36.4218 34.759L36.2095 34.6727L36.0297 35.1332L35.7022 35.313L36.0476 35.6152L36.6629 35.3023L37.3897 35.4102L37.3321 35.0828L37.5588 35.1512L37.584 34.8526L37.1738 34.7446L37.3933 34.2842L37.4724 34.554L37.9473 34.3094L38.3611 34.6151L37.843 35.09L38.0805 35.3526L37.6163 35.8743L37.4005 36.4894L37.5552 36.6765L37.109 37.1945L37.8502 37.9752L37.4041 38.1479L37.7854 38.4285L37.0982 39.1048L36.8032 40.1121L36.4866 40.0869L35.9757 40.8028L35.6699 40.7057L34.8423 41.4072L34.1371 41.2885L33.9608 41.0043L33.4931 41.0726L33.1333 40.5042L32.7051 40.7776L32.0611 39.7344L32.0467 39.0724L32.3705 38.6947L32.3418 37.8817L33.9177 36.842L33.8241 36.6225L33.637 36.752L33.396 36.529L33.1873 36.7916L33.1045 36.6333L33.968 35.5613L35.2741 35.0108L35.5043 34.6403L35.9613 34.5612L35.9505 34.4029L36.1412 34.1726L36.2023 34.3489ZM46.273 32.3595L46.5176 32.525L46.5968 33.0574L46.9602 33.1258L47.1077 33.5395L47.3523 33.5718L47.8704 34.554L48.2194 35.7268L47.9784 36.896L48.5001 37.0039L47.7805 37.432L47.5574 39.5293L47.266 39.8207L46.6435 42.1591L46.3809 42.3318L46.2622 42.1195L45.2979 42.2634L45.2835 42.4433L44.7079 42.5692L44.528 43.2168L44.0746 43.0009L43.3694 43.8103L42.8189 43.5765L42.9161 43.3714L42.5635 43.17L42.5779 41.7418L42.0166 41.6339L41.6964 41.3173L41.3402 41.3964L41.5129 40.6517L40.6062 39.4322L40.8473 39.3494L41.0703 38.7846L40.2788 37.8637L40.1889 37.4572L39.6384 37.3528L39.9838 36.6909L40.5342 36.9355L40.8653 36.77L40.984 36.1908L40.8293 36.0182L41.6028 35.7088L42.1965 34.9605L43.024 34.8813L43.8156 34.3957L44.8374 32.8056L46.1182 32.2336L46.273 32.3595ZM12.7115 32.1113L13.2439 32.0501L13.2188 32.2516L13.8268 32.5681L13.8988 32.9279L13.8808 33.1654L13.5354 33.9064L13.906 34.0755L13.888 35.1296L13.6109 35.0648L13.485 34.4928L13.2691 34.5252L13.2871 35.5829L12.5675 36.011L12.5388 35.8419L12.2725 35.903L12.5711 35.403L11.4594 35.4389L11.4989 34.849L11.2255 34.8993L11.0852 35.2879L10.693 35.2771L10.3008 35.2231L9.98422 35.4965L9.96983 35.0864L10.5167 34.7518L10.1605 34.0539L10.7146 33.8597L10.4448 33.5035L10.8981 33.2301L10.8333 32.874L11.2399 32.73L11.4953 32.2624L12.0027 32.4494L11.9811 32.0609L12.2905 32.0357L12.5531 31.9242L12.7115 32.1113ZM37.879 23.9306L37.843 25.089L37.4832 25.3839L37.3933 24.3443L37.5804 23.8011L37.7458 23.9342L37.897 23.7615L37.879 23.9306ZM36.0332 22.657L36.6449 23.4413L36.4434 24.2723L36.5729 24.5673L37.127 24.2292L37.1954 24.5781L37.0191 25.258L36.6881 25.1321L36.6593 24.8731L36.4362 25.348L35.9505 25.6034L35.8533 25.3084L36.4614 24.4882L36.2131 24.1356L35.8426 24.3263L35.7814 23.7219L35.346 23.4485L35.3029 22.9772L35.5871 22.9305L35.6375 23.1895L35.9397 23.2614L36.0332 22.657ZM44.7438 21.8944L44.733 22.5635L44.492 22.5923L44.3337 22.1426L44.7438 21.8944ZM10.7758 20.9698L10.362 22.5419L10.9197 22.6139L10.8369 23.0995L11.7112 23.1391L12.2185 23.9881L12.2221 24.4162L11.8408 24.7508L11.7436 24.3083L11.5457 24.5421L11.3442 24.3803L11.3802 25.1321L10.8801 26.0099L10.9053 26.42L10.5311 26.4164L10.5023 26.8985L10.1245 26.9848L10.1461 27.2259L9.60284 27.5281L9.44093 27.9634L8.40473 28.2655L8.31478 27.7979L8.69616 27.7943L8.47669 26.9704L8.82209 26.8769V26.1898L8.966 25.9703L9.5021 25.6106L9.10993 25.1393L9.18548 24.5349L9.21067 24.2723L9.47691 24.2399L9.17469 23.8406L9.41935 23.6967L8.91923 23.6068L8.87966 23.7974L8.42631 23.8226L8.37954 23.355L9.52728 21.7037L10.3332 21.0274L10.7758 20.9698ZM40.0845 20.2107L40.5415 20.3942L40.5594 21.1821L41.0272 21.7649L41.297 21.4807L41.1639 20.5381L41.3978 20.3618L41.9554 20.3978L42.1821 21.0094L42.7974 20.9195L42.7902 21.3763L43.8264 21.236L43.7508 22.4268L42.5779 22.5635L42.6714 22.8981L42.434 22.9017L42.4807 23.0708L41.977 22.9592L41.8115 23.7255L41.3978 23.355L41.1135 23.7507L40.8185 23.65L40.8005 23.9557L40.3724 23.8766L40.1853 24.1284L40.0989 23.7651L39.8291 23.6428L39.7895 23.8802L39.6024 23.8406L39.3146 23.3622L39.1275 24.0349L38.7893 24.186L38.9799 23.4593L38.5878 22.9844L38.8 22.6355L39.3289 23.1715L39.5412 22.3009L39.4693 21.6497L38.89 21.3727L38.8468 20.8655L38.9692 20.5345L40.0845 20.2107ZM25.1963 19.6136L25.369 19.8366L26.6426 20.1136L27.1284 20.7828L27.3011 21.9412L27.0492 22.5275L26.8333 22.9341L26.9557 23.1031L27.3658 23.0132L27.9991 24.2148L27.4018 24.481L27.2039 24.9235L26.8873 24.8983L26.1785 25.017L24.9228 25.7581L25.1027 25.1429L24.8365 24.776L25.0847 24.7832L25.1459 24.5349L25.0056 24.3479L24.1888 24.3731L24.3867 23.6284L24.9192 23.3801L24.4371 23.0923L25.1171 22.9305L25.3114 22.3908H25.6532L25.6172 21.8872L25.4769 21.7289L25.4122 21.3296L25.6928 21.3188L25.4553 21.0382L25.664 20.4842L25.4014 20.2L25.1387 20.2827L24.8725 19.7611L25.1963 19.6136ZM20.4326 14.8109L20.6161 14.8721L20.3499 16.0484L20.6413 16.4873L18.72 15.8578L19.3568 15.3613L19.4072 14.8901L20.4326 14.8109ZM28.6791 13.1057L28.8806 13.5446L29.0533 13.0409L29.4094 13.2712L29.8268 13.0337L29.9995 13.3611L30.4564 13.0589L30.6687 13.2028L30.6256 13.5626L30.881 13.6669L30.4996 14.0231L30.7947 14.2389L31.284 14.1777L31.6006 14.2749L31.8812 14.1777L32.6728 14.0302L33.0542 14.5375L33.2808 14.444L33.5507 14.7857L33.7665 14.8109L33.7018 14.444L34.4106 14.7066L34.8172 14.5159L36.3427 15.4548L36.5801 15.7319L37.0802 15.7175L37.1234 16.4406L36.3283 17.9659L36.429 18.6782L36.0297 18.984L35.7886 18.8797L34.9359 19.2322L34.5833 18.9552L34.1299 18.9804L33.4103 18.153L32.5648 18.2357L32.3418 18.0019L32.5289 17.4191L32.1906 17.3148L32.1871 17.0198L31.6438 16.9766L31.6294 16.7284L31.2804 16.6996L30.899 16.4693L30.255 15.5736L29.852 15.57L29.8304 15.2858L29.3627 15.1347L27.9955 13.7964L28.0207 13.2676L28.3445 12.9762L28.6791 13.1057ZM7.88303 12.7208L7.86504 13.1021L8.24642 12.6884L9.22505 13.0949L9.84031 13.9403L9.81871 14.2893L9.51649 14.2785L9.61723 14.5915L9.3186 15.4441L8.1133 17.214L7.02312 18.0415L6.51581 18.8977L5.55517 19.3114L5.41485 18.081L5.6775 17.0557L5.17379 16.8723L5.28533 16.2715L5.54438 16.1672L5.23855 15.811L5.66671 15.203L5.56956 15.0196L5.6739 14.8181L5.95094 14.5555L6.13083 13.7424L6.46185 13.5913L6.80365 13.782L7.19223 13.4331L6.72809 13.4295L7.12026 12.8431L7.588 12.8611L7.91541 12.5805L7.88303 12.7208ZM22.1452 0L21.9078 0.615169L22.1848 0.849015L22.1596 1.14041L23.4189 1.49296L23.2462 2.4499L23.6348 3.00751L23.6816 3.56512L24.7034 3.5975L25.056 3.92847L27.0168 3.78458L27.4666 4.05439L27.4846 4.32779L27.4738 5.16601L27.2111 5.34589L27.2507 5.64448L26.9233 5.76679L26.765 6.31721L27.0744 6.32081L27.06 6.56904L27.1823 6.65537L27.6105 6.65897L27.5745 7.11585L27.9235 6.95756L27.9739 7.36768L28.2509 7.46122L27.7364 8.1987L28.0135 8.37139L27.5529 8.6412L27.3478 9.25997L27.7184 9.33191L28.143 9.08009L28.9057 9.23837L28.0386 11.2818L27.6752 11.5156L27.6105 11.8574L27.3478 11.8861L27.6357 12.7963L27.3083 12.7927L26.6498 12.2531L25.9878 11.3681L26.0922 11.0659L25.2826 9.42185L24.7213 9.41466L24.4335 8.97935L24.0485 9.01893L23.901 8.32102L23.2786 8.16992L23.275 7.54035L22.9512 7.21658L22.5266 7.15183L22.2748 7.36408L22.3899 6.71293L22.0517 6.39995L21.7171 5.8999L21.3537 5.00052L21.0011 5.12644L20.7204 4.73791L20.2887 4.85303L20.0908 4.97175L19.5079 5.08687L19.5907 4.65156L19.3352 4.51487L19.5655 4.12993L19.0834 3.83133L18.8999 2.98593L19.0078 2.59379L18.702 1.89948L18.8567 1.43541L20.1952 0.744685L20.1916 0.500058L20.7528 0.183476L22.1452 0Z" fill="#CED9E5"/>
</svg>
