<svg width="64" height="28" viewBox="0 0 64 28" fill="currentColor" xmlns="http://www.w3.org/2000/svg">
<path d="M59.3911 0.233704L59.5652 0.127807L59.8111 0.390724L60.2177 0.558699L60.4478 0.583043L60.6547 0.491752L60.9846 0.54531L61.1977 0.749801L61.7978 0.968898L61.9147 0.926296L62.0449 1.09184L62.2129 1.16L62.3992 1.12957L62.4893 1.23182L62.3955 1.38884L62.8435 1.84772L63.2659 2.01935L63.5301 2.02909L63.5995 2.37721L63.4717 2.58535L63.5691 2.95904L63.5216 3.24264L63.6506 3.61755L63.636 3.98636L63.7517 4.20302L63.7395 4.70695L63.9257 4.80676L64 5.28999L63.9367 5.82921L63.5545 6.15421L63.356 6.19803L62.9969 5.93998L62.7254 5.9765L62.6585 6.12378L62.4868 6.14082L62.3736 6.45851L62.1301 6.53641L62.0827 6.78229L61.827 6.82854L61.4667 7.20953L60.9517 7.26187L60.7984 7.11459L60.5805 7.21562L60.5245 7.45419L60.6584 7.69885L60.5464 7.93377L60.5841 8.1906L60.4514 8.23198L60.4039 8.3391L60.4867 8.54481L60.7375 8.79312L60.5719 8.92945L60.5805 9.07551L60.3686 9.24592L60.4246 9.31287L60.6998 9.29583L60.6535 9.48206L60.4478 9.67559L60.4563 9.81436L60.6474 10.1272L60.6182 10.2696L60.7472 10.2903L61.0552 10.5727L60.9554 10.8782L60.6036 11.0803L60.9737 11.645L60.5561 11.7254L60.3601 11.9165L60.1933 11.8581L60.1787 12.0005L60.3321 12.2658L60.2457 12.3851L60.0606 12.3985L59.9133 12.0954L59.8062 12.2622L59.7794 12.5713L59.6139 12.5153L59.5701 12.4508L59.5031 12.452V12.7856L59.3132 12.8087L59.4069 12.9694H59.3035V13.0728L59.4276 13.1069L59.3534 13.315L59.2645 13.3041L59.1732 13.3443L58.8822 13.5841L58.7605 13.5828L58.4574 14.1476L58.4172 14.5603L57.8718 14.7733L57.4592 14.738L57.4141 14.6004L57.4117 14.4994L57.4494 14.3339L57.4677 14.2316L57.4251 14.1221L57.4105 14.0502L57.2924 13.7934L57.3508 13.7508L57.503 13.7289L57.5079 13.5987L57.7477 13.4502L57.5918 13.315V13.4051L57.2473 13.3321L57.1974 13.5402L57.0501 13.6181L56.9466 13.4429L56.5681 13.1787L56.4938 13.1398L56.0848 13.0765L55.6197 13.158L54.742 13.0241L54.1175 13.1093L52.5824 12.7734L52.2988 12.9292L52.1539 12.9L51.6865 12.6991L51.6694 12.5896L51.0826 12.3547L50.2682 12.1757L50.0832 11.8215L49.9262 11.7497L49.4368 11.6791L49.0923 11.8641L49.018 11.9919L48.9291 11.9761L48.9389 11.8641L48.8598 11.8008L48.0344 11.7375L47.9224 11.6085L47.5462 11.5221L47.4927 11.4345L47.5328 11.3249L47.6631 11.0535H47.7751L47.9723 10.8977L47.8165 10.8453L47.6314 10.7273L47.4306 10.7869L47.4768 10.8551L47.041 10.776L46.7123 10.8599L46.7257 10.9281L46.1353 11.4442L46.0136 11.8897L45.6094 11.8678L44.8157 12.1745L43.9964 13.0753L43.9124 13.0692L43.546 12.9109L43.0201 12.9974L42.7791 12.9633L42.7206 12.9243L42.8728 12.9316L42.9118 12.8099L42.8229 12.8026L42.4309 12.7174L42.0754 12.8988L41.7504 12.2512L41.653 12.2269L41.6189 12.1307L41.6993 12.0248L41.4923 12.0029L41.4168 11.8203L41.3852 11.7838L41.4692 11.7047L41.3755 11.5732L41.2988 11.5525L41.1673 11.516L40.7863 11.4673L40.3748 11.5671L40.3431 11.6998L39.883 11.6901L39.7296 11.8885L39.6748 11.8069L39.5263 11.8191L39.351 12.166L39.2195 12.1903L39.1453 12.3218L38.9663 12.3035L38.8227 12.575L38.7265 12.5482L38.6632 12.6298L38.6681 12.7795L38.8921 12.9012L38.83 13.1142L38.6961 13.012L38.5816 13.0765L38.5548 13.3284L38.6425 13.4051L38.8421 13.3077L38.9261 13.3808L38.2895 13.6108L36.7361 14.6406L36.1798 14.8719L35.7257 14.9242L35.2388 14.7635L34.2746 14.385L33.7779 14.0454L33.3198 13.957L32.8515 14.131L32.6117 14.3257L32.3427 14.3561L31.9641 15.0037L31.8704 15.5466L32.3816 15.773L32.8235 16.3585L32.8649 16.6847L33.0013 16.6774L33.0634 16.849L33.2496 16.8563L33.3884 17.1776L33.6258 17.1436L33.9131 17.247L33.9581 17.1594L34.0872 17.2373L34.0628 17.3602L34.3392 17.5197L34.2503 17.6597L34.0786 17.7217L33.4006 17.7424L33.2898 17.925L33.2521 18.2074L33.3616 18.6845L33.4578 18.8586L33.532 18.8464L33.728 19.2226L34.019 19.4989L34.4548 19.69L34.7896 19.6741L34.9174 19.7533L35.3167 19.6048L35.4202 20.2949L35.2899 20.6637L35.0123 20.5177L34.8224 20.2024L34.5595 20.0381L34.1748 19.9151L34.0019 19.9943L33.6075 19.847L33.1121 20.0636L32.843 20.3205L32.333 20.0904L32.2246 20.3886L32.025 20.3765L31.8874 20.7891L31.8801 21.0581L32.0335 21.444L32.2015 21.5352L32.3536 21.8578L32.3926 21.73L32.4717 21.7543L32.6081 21.8529L32.5764 22.0806L32.7578 22.3995L32.9343 22.4591L33.1255 22.3642L33.3117 22.5638L34.2819 22.8803L34.4998 23.1578L34.9503 23.3367L34.999 23.4682L35.1755 23.5935L35.0014 23.6873L34.9844 23.9173L35.2461 24.1936L35.3082 24.3628L35.1122 24.4066L35.0513 24.5065L35.1 24.6184L35.4238 24.6002L35.4616 25.0189L35.3337 25.1577L35.1755 25.1735L35.2278 25.2599L35.1231 25.255L35.083 25.3305L35.2388 25.5399L34.8529 25.6324L34.9795 25.7285L35.1597 25.7371L35.117 25.8563L34.7859 25.8649L34.6325 26.0085L34.4463 26.0219L34.4889 25.8831L34.3416 25.8709L34.3051 25.72L34.4085 25.7005L34.3891 25.6153L34.3063 25.5399L34.3331 25.6567L34.1419 25.6835L34.1054 25.5435L34.1687 25.3804L34.0044 25.1893L33.8291 25.1917L33.7719 25.0286L33.4359 24.7949L33.3239 24.801L33.3507 25.0152L33.2801 25.0481L33.2289 24.9702L33.2849 24.857L33.1206 24.6087L33.162 24.5223L32.9331 24.3373L32.8832 24.1997L32.9416 23.8832L32.7456 23.7798L32.7335 23.4755L32.6044 23.2966L32.3062 23.1188L32.1077 22.6259L31.9324 22.4214L31.8083 22.4262L31.717 22.3386L31.6804 22.1694L31.4394 21.954L31.0267 21.8882L30.6798 21.9296L30.3438 21.7787L30.2026 21.8043L29.7254 21.4622L28.6724 21.1713L28.1392 21.6886L27.9468 22.0392L27.9456 22.3203L27.819 22.3228L27.7192 21.971L27.5025 21.7763L27.315 21.7702L27.2334 21.6764L26.6808 21.4866L26.4434 21.4768L26.2157 21.2845L25.8603 21.2334L25.4293 20.8865L24.52 20.5213L24.4567 20.2255L24.1182 19.9042L23.8602 19.864L23.7591 19.7374L23.5948 19.7107L23.0932 19.8239L23.249 19.4745L23.0287 19.0887L22.8327 18.9718L22.8351 18.7771L22.7061 18.4886L22.2886 18.3401L22.3105 18.0017L22.5028 17.9153L23.064 17.9968L23.5205 17.8751L23.9892 17.555L24.0951 17.314L23.596 16.8819L23.7506 16.6409L23.7262 16.1941L23.3537 16.0237L23.3367 15.9945L23.1261 15.9531L22.7925 16.2221L22.6392 16.1637L22.4894 16.3232L22.7463 16.3913V16.6506L22.4748 16.9281L21.9818 17.1399L21.8211 17.0267L21.6994 17.0717L21.5021 17.1667L21.5082 17.4418L21.5021 17.5331L21.4571 17.5878L21.5094 17.6597L21.5423 17.74L21.4851 17.8361L21.4279 17.9043L21.3074 17.992L21.2015 17.9786L21.0809 17.7363L20.9239 17.7388L21.0152 17.5976L20.8265 17.5878L20.4467 17.7753L20.5112 17.8313L20.6025 18.11L20.7742 18.233L20.5563 18.2281L20.4905 18.3182L20.3956 18.2512V18.3985L20.2702 18.4216L20.1704 18.3243L20.2397 18.2914L20.1472 18.2756L20.0924 18.4216L19.9598 18.3644L19.7857 18.519L20.0109 18.8282L20.0693 19.3345L20.2531 19.7386L20.5843 19.9066L20.6244 20.0028L19.9902 21.1482L19.793 21.8822L19.8405 22.1597L19.4533 22.7245L19.3791 23.0933L19.6006 23.7567L19.6359 24.3543L19.7711 24.5271L19.8928 24.969L20.359 25.3743L20.7364 25.5423L20.9215 25.6969L20.6707 25.9209L20.5149 25.6519L20.1886 25.5593L19.9512 25.7541L19.1405 25.8904L19.0053 25.7419L18.8982 25.7334L18.8276 25.591L18.7022 24.9982L18.2481 24.7572L18.0911 24.5612L17.8671 24.6525L17.7344 24.4468L17.5177 24.5844L17.4849 24.4492L17.3546 24.3835L17.3205 24.2046L17.1671 24.1669L17.3704 23.7554L17.4459 23.1651L17.2767 23.1541L17.1744 23.3039L17.1489 23.1298L17.2426 22.8924L16.9103 22.5626L16.5207 22.6733L16.3138 22.8851L16.2651 23.1517L16.0107 23.5303L15.7501 23.641L15.6162 23.2978L15.6491 23.0008L15.4446 23.0227L15.4884 22.8097L15.7258 22.5942L15.654 22.4421L15.531 22.3569L15.0661 22.3935L14.5888 22.466L14.6083 22.4648L14.6789 22.5987L14.6472 22.7935L14.4476 22.6632L14.366 22.7667L14.5243 23.0308L14.4512 23.1501L14.2577 23.3339L14.1469 23.598L13.6307 24.0837L13.5613 24.3028L13.2874 24.3284L13.3252 24.5681L13.0805 24.7544L12.7859 25.3021L12.6118 25.4275L12.3915 25.4056L12.3026 25.677L12.1005 25.8109L11.9252 25.7951L12.3829 26.3343L12.3196 26.5705L12.4974 27.1766L12.4012 27.3714L12.3355 27.2691L12.1176 27.2825L11.9922 27.1851L11.5271 27.1206L11.0487 27.3519L10.8113 27.2034L10.5898 27.2083L10.5837 27.117L10.4413 27.0208L10.2806 27.0135L9.9531 27.2071L9.65119 26.9843L9.2312 27.2521L9.09243 27.1438L9.04373 26.9125L8.82096 26.6642L8.61035 26.7628L8.30358 26.6447L8.05646 26.7238L7.85924 26.6386L7.72412 26.7457L7.6316 26.5911L7.47456 26.5814L7.27004 26.7056L7.11301 26.6557L6.91579 26.9381L7.1057 26.9673L7.04727 27.2691L6.83301 27.4274L6.69545 27.3933L6.62728 27.5503L6.52868 27.5576L6.46781 27.4627L6.25842 27.4846L6.20364 27.3604L5.95287 27.2302L5.90296 27.0318L5.67896 27.1912L5.4501 26.9028L5.25654 26.9222L4.97533 26.7348L4.65151 26.8942L4.42752 26.8772L4.25222 27.1742L3.49746 26.9052L3.49259 26.6642L3.35625 26.596L3.44511 26.4378L3.31608 26.2357L3.36842 26.0799L3.29416 25.8998L3.01661 25.6685L2.74027 25.2547L2.82913 25.1548L3.05313 25.2766L3.21503 25.1743L3.33677 24.926L3.37938 24.3734L3.03 24.2188L2.81087 24.3515L2.56132 24.3843L2.32515 23.9839L2.32393 23.7246L1.97577 23.2889L2.49071 22.9919L2.41523 22.7083L2.44567 22.4575L2.22167 22.4271L2.36167 22.2396L2.11089 22.0084L1.97942 21.5957L1.79073 21.4728L1.7603 21.2415L1.56187 20.9275L1.06884 20.4175L0.90206 20.4613L0.735283 20.2933L0.42364 20.3749L0.0292163 20.2118L0 20.1071L0.153386 20.0121L0.181386 19.7188L0.104693 19.098L0.387119 18.8947L0.499115 18.9081L0.72676 18.3385L1.05423 18.4626L1.43161 18.3932L1.65804 18.5843L1.96238 18.487L1.93559 18.4091L2.10602 18.1851L2.11576 17.7591L2.43228 17.557L2.52479 17.2758L2.91435 17.2089L2.89852 16.7269L2.95209 16.4189L3.06287 16.2923L3.06774 15.663L2.70131 15.0374L2.26915 14.6369L2.25941 14.2815L1.97333 14.1634L2.27645 13.8531L2.26185 12.9414L4.14631 12.928L4.40439 12.6553L4.7416 12.5275L5.10072 12.6784L5.28697 12.8902L6.37772 12.6176L7.00344 12.0674L7.27004 12.0723L7.5196 12.2062L7.8069 12.1197L8.19645 12.1514L8.47279 12.5628L8.60427 12.631L8.6554 12.7929L8.93539 12.7892L9.21416 12.4764L9.33468 12.48L9.41016 12.3376L9.7778 12.3255L9.73154 12.0857L9.79971 11.914L9.94336 11.7205L10.21 11.7254L10.7139 11.9506L11.0609 11.8495L11.0862 11.857L11.0645 11.8195L11.235 11.6357L11.2106 11.1792L11.7122 10.8798L11.7341 10.6997L12.0993 10.4233L12.0944 10.2517L12.2612 10.2748L12.4426 10.1215L12.333 9.83908L12.3988 9.49218L12.8565 9.24265L13.1121 8.97122L13.285 9.01869L13.694 8.90183L14.0324 8.645L14.0556 8.50381L14.2102 8.59388L14.3124 8.82393L14.5924 8.90549L14.775 9.05277L14.9954 8.98339L15.2632 8.56345L15.6162 8.50381L15.7465 8.37965L15.9766 8.4819L16.2967 8.46851L16.3868 8.60483L16.7192 8.72899L16.903 8.65352L16.9699 9.08928L17.0186 8.98704L17.2268 8.88723L17.3351 8.92496L17.4216 8.84463L17.5871 8.92861L17.7369 8.84341L17.7758 8.98217L17.9621 9.12337L18.3139 9.07955L18.4673 9.14771L18.9761 8.99921L19.502 8.95052L19.6712 9.12824L19.8246 9.13432L20.118 8.90427L20.3359 8.6097L20.4382 8.25428L20.6342 8.15203L21.1467 8.81541L21.4048 8.67787L21.5374 8.46851L21.6409 6.85205L21.7261 6.63052L21.658 6.3603L21.7407 6.15703L22.0049 6.0913L22.1047 5.90141L22.2106 5.95254L22.2508 5.86977L22.4237 6.00122L22.8169 5.91602H23.5972L24.3714 6.0913L24.6015 6.01583L25.2199 6.3104L25.8104 6.325L26.5505 6.15946L26.8147 5.80769L26.7672 5.53625L26.8354 5.41331L27.1068 5.31472L27.3856 5.05424L27.8093 5.06154L28.0247 5.55207L28.715 5.01163L28.8757 5.05545L29.0802 4.95442L29.5403 5.05545L30.0395 4.97633L30.2841 5.2283L30.6104 5.18326L30.81 5.36706L31.1485 5.38288L31.154 5.43599L31.1558 5.43484L31.3457 5.38858L31.3822 5.16705L31.6561 4.94674L31.8752 5.03194L32.2635 4.98082L32.5874 5.05872L32.6677 5.14393L32.9112 4.8664L33.0341 4.55601L33.5868 4.50733L33.655 4.371L33.8985 4.31014L34.0336 4.36004L34.1979 4.24563L34.271 3.92185L34.4645 4.03748L34.6009 4.36248L34.921 4.53654L35.4068 4.1093L35.4981 4.30283L35.7525 4.32474L36.0167 4.1166L35.8815 3.83299L35.8864 3.29377L36.024 3.18422L36.0727 3.02963L36.3368 2.90791L36.5024 3.05763L36.6533 3.04424L36.685 3.14283L36.9565 3.10997L36.982 3.22195L37.1208 3.31933L37.1038 3.39601L37.2304 3.42401L37.5152 2.90426L37.7331 2.93469L37.8524 2.72777L38.0862 2.57927L38.2225 2.6596L38.175 2.79958L38.5208 3.09171L38.4599 3.2609L38.5439 3.48122L38.9237 3.26212L39.2195 3.39601L39.4204 3.11484L39.6468 3.0698L39.7564 3.21343L40.0218 3.22682L40.1532 3.32907L40.2689 3.23899L40.2823 3.01259L40.4064 2.89574L40.9664 2.65595L41.0577 2.70464L41.0602 2.83001L41.1575 2.8081L41.2695 2.91278L41.1916 3.05763L41.3681 3.39966L41.3389 3.60294L41.4826 3.99245L41.7407 4.16042L41.7516 4.49394L41.922 4.73738L42.3749 4.58523L42.4626 4.63757L42.4163 4.84693L42.6865 4.73373L42.8058 4.82258L43.1869 4.8664L43.3719 5.36424L44.0062 5.8706L44.1389 5.74644L44.2095 5.28634L44.1669 5.08428L44.7682 5.21939L44.8571 5.206L44.991 5.01125L45.2247 4.98325L45.5157 5.29121L45.9174 5.44458L46.7416 5.60281L47.0021 5.94485L47.2139 6.04344L47.4428 5.97284L47.6059 6.20046L48.1062 6.39035L48.1293 6.5352L48.5652 6.8115L48.6918 7.2923L49.0411 7.33125L49.2493 7.46393L49.4185 7.31299L49.8117 7.37507L50.1684 7.10607L50.3401 7.15354L50.6834 7.01721L50.8197 7.03547L50.8635 6.89671L51.3444 6.70804L51.6414 6.72873L51.9494 6.86019L52.0967 6.41591L52.283 6.28323L52.8527 6.47433L53.3421 6.3307L53.6391 6.44512L53.8813 6.65692L54.0238 6.27715L54.305 6.30879L54.4754 6.17855L54.6617 6.22481L54.7834 6.05805L55.0792 5.99841L55.1559 5.85478L55.4834 6.13352L55.6794 6.125L55.6575 6.34044L55.7963 6.45608L56.0361 6.42565L56.3903 6.24063L56.7385 6.27106L57.0574 6.16638L57.156 5.9132L57.4628 5.80974L58.0313 5.86451L58.147 5.72088L58.5024 5.73305L58.5682 5.44701L58.6984 5.40684L58.8116 5.20844L58.8652 4.97108L58.8043 4.78607L58.9285 4.61931L59.2657 4.57671L58.9906 4.16164L58.8068 4.08008L58.7544 3.91941L58.7617 3.82082L58.9382 3.73683L58.9577 3.54816L59.1001 3.3668L59.0125 2.85922L58.6862 2.82271L58.7508 2.09847L58.5816 1.96214L58.5694 1.70044L58.4172 1.73087L58.3673 1.83555L58.1007 1.78078L58.0605 1.57629L57.9108 1.54464L57.8268 1.43752L57.7258 0.880042L57.8268 0.570871L57.9911 0.473494L58.2833 0.524617L58.3807 0.293347L58.864 0.0121721L58.9626 0L59.1586 0.191102L59.3911 0.233704Z" />
<path d="M28.4898 23.1505L28.6091 23.142L28.8586 23.3404L29.1094 23.6921L29.2323 24.0963L29.6682 24.6245L30.8088 25.2003L31.4966 25.4328L31.5648 25.3902L31.7158 25.5119L31.6792 25.6677L31.7766 25.7176L31.8472 26.0523L32.0566 26.1387L32.434 26.0547L32.4827 26.3177L32.1102 26.4345L31.7937 26.3067L31.4406 26.3481L30.7735 26.2544L30.6153 26.1034L30.3414 26.0487L29.348 25.552L29.1167 25.5435L28.8367 25.692L28.4021 25.6519L28.1611 25.765L28.3924 25.3609L28.4593 25.081L28.2524 24.7864L28.0016 24.1717L27.7228 24.0013L27.7058 23.7274L27.6145 23.7043L27.8129 23.3233L27.7593 23.086L27.8604 22.5553L27.8093 22.3374L27.9444 22.3277L28.1026 22.5455L28.2244 22.9825L28.4898 23.1505Z"/>
<path d="M34.3124 20.3351L34.3939 20.3765L34.383 20.5846L34.5339 20.6102L34.6459 20.7282L34.3343 20.6771L34.2418 20.5457L34.1906 20.5858L33.9435 20.4361L34.2819 20.262L34.3124 20.3351Z" fill="#CED9E5"/>
</svg>
