<svg width="64" height="64" viewBox="0 0 64 64" fill="none" xmlns="http://www.w3.org/2000/svg">
<path d="M12.0388 5L12.606 5.23455L13.0542 5.11728L13.294 5.35883L13.5338 5.29581L14.2428 6.03098L14.5282 6.48258L14.5719 6.81515L14.8433 6.99194L15.0324 7.58707L15.393 7.91964L15.1917 8.1892L15.5155 8.23296L15.47 8.59354L15.5803 9.00313L14.838 9.42847L15.3387 10.0569L15.3405 10.4297L15.6801 11.0056L16.0407 10.9583L16.354 10.7658L16.8565 10.9881L16.7952 11.7827L16.6201 12.1398L16.3873 12.2868L16.0652 12.1118L15.9357 12.2553L16.333 12.8522L16.7322 13.1848L16.839 13.4439L16.7637 13.6679L16.951 13.9585L16.8232 14.1878L17.0193 14.2858L17.0263 14.6324L18.1134 15.0192L18.3655 14.5921L18.6876 14.6166L19.155 14.3891L19.5594 14.6586L19.8377 14.6306L20.1668 15.0472L20.1878 15.0602L20.5012 14.8354L20.5712 15.1207L20.9318 15.308L21.0106 15.4866L21.3117 15.4533L21.3992 15.5898L21.541 15.5793L21.6391 15.3535L21.8369 15.4025L22.1467 15.1767L22.2308 14.7426L21.9577 14.7006L22.2413 14.2945L22.4671 14.3663L22.7612 14.1878L22.987 14.2018L23.1183 14.4241L23.3126 14.2718L23.5962 14.3943L23.9516 14.2805L24.3928 14.4503L24.6939 14.3103L25.0142 14.6674L25.0842 15L25.2838 15.1575L25.8878 14.7724L26.3237 15.0927L26.7946 14.8144L27.0257 14.8249L27.2305 14.9632L27.2392 15.0962L27.5578 15.0875L27.8992 15.301L28.5872 14.9684L29.2559 15.0595L29.4362 15.1995L29.7496 15.182L29.8441 15.329L29.9824 15.0472L29.7286 14.1773L29.8196 13.8377L29.1614 13.0623L29.4135 13.085L29.7041 12.8925L29.8319 12.5022L30.1487 12.5337L30.3991 12.3534L30.8227 11.5657L31.1746 11.2979L31.122 10.9531L31.5159 10.9163L31.614 10.6012L32.3562 9.90458L32.5155 9.52475L32.7939 9.26044L32.8989 9.0889L32.6713 8.70907L32.7886 8.56204L33.0757 8.74933L33.123 8.46927L33.0214 8.27673L33.088 8.23822L34.3309 8.14019L34.5077 8.26272L34.611 8.48152L34.2696 8.79134L34.2066 9.09765L34.5007 9.0679L34.4534 9.49674L34.6162 9.96935L34.9909 9.81006L35.3567 9.26569L35.4268 8.88236L35.7261 8.57779L36.2863 8.41851L36.7642 8.89286L36.6294 9.23418L36.6662 9.48449L36.8132 9.26919L37.0566 9.28495L36.948 10.1339L36.6557 10.7255L36.8762 10.7815L36.9253 11.0388L37.1126 11.1334L37.1598 11.3276L37.4715 11.1299L37.664 11.4257L37.9861 11.2944L38.212 11.5762L38.8649 11.9228L39.0452 12.777L39.1468 12.9818L39.3008 12.994L39.4951 13.2076L40.661 13.0115L41.0024 12.7315L41.4716 12.8645L41.6956 13.2531L42.0563 12.931L41.7902 12.7087L42.3766 13.1305L42.4922 13.4141L42.3941 13.9182L42.7933 14.8249L43.2887 15.077L43.9872 15.8734L44.6069 16.1955L44.8467 17.727L45.1968 18.667L45.2984 19.4092L45.9023 20.8217L46.5273 21.0913L46.6673 21.3101L46.9772 21.2558L47.231 21.7109L47.6809 21.7232L48.4039 22.2815L48.733 23.0797L49.5943 24.1667L49.7536 24.1807L49.8849 24.347L50.1755 25.0419L50.5834 25.5075L50.9615 25.6685L51.2031 26.0011L51.2696 26.4615L51.4114 26.5945L51.4149 26.9481L51.9051 27.4574L51.8946 27.636L52.1502 27.8723L52.1554 28.1383L52.4373 28.6109L52.2045 29.1658L51.7353 29.5631L51.2136 29.5789L50.8285 29.8782L50.5169 29.8747L50.4416 29.7539L50.2455 29.8695L50.1808 30.0515L50.4854 30.181L50.1212 30.3508L50.1388 30.4961L49.8937 30.3228L49.5541 30.3963L49.498 30.5679L48.9974 30.5259L48.8538 30.7254L48.3251 30.6309L48.0871 30.7079L48.0468 30.5574L47.7387 30.4751L47.9943 30.0533L48.0328 29.6034L48.2096 29.4599L48.4179 29.5474L48.6437 29.1973L48.6718 29.6559L48.8573 29.6909L48.4967 30.132L48.4039 30.4628L48.6402 30.4033L49.1602 29.9885L49.393 30.02L49.4578 29.8905L49.7204 29.8625L49.6766 29.4354L49.8026 29.2131L49.9007 29.3163L50.0985 29.5281L50.277 29.4721L50.3751 28.6442L49.9217 28.2311L49.8657 27.937L49.7204 27.8285L49.7904 27.3839L49.5541 27.1441L49.5138 26.9446L48.8958 26.4387L48.8503 26.2917L48.1028 26.0799L47.8157 26.1551L47.2695 26.0729L47.1137 25.595L46.9334 25.546L46.8196 25.3517L46.4485 25.3937L46.0109 25.1382L45.9723 25.2414L45.841 25.1627L45.7605 25.3797L45.9531 25.3902L46.0109 25.5023L45.7763 25.9994L45.9426 26.0781L46.1019 26.3722L45.9583 26.4737L45.4594 26.4755L45.3019 26.6278L45.0165 26.5122L44.8415 26.6523L44.7329 26.605L44.1342 26.8343L44.0274 27.5327L44.1115 28.0788L44.6681 29.4004L44.7609 29.4406L44.9167 29.0258L45.0568 29.003L44.9115 28.6775L45.2388 28.6214L45.1863 29.0275L45.3999 28.9838L45.5749 29.2726L45.5732 29.7592L45.7343 30.153L45.8568 30.2265L46.0319 30.1495L45.862 29.9062L45.9198 29.7714L46.0826 30.0217L46.375 30.02L46.431 30.2458L46.6708 30.4366L46.5728 30.6361L46.6708 30.8987L46.9492 31.0772L46.7601 31.3485L46.8844 31.4448L46.7759 31.5691L46.8844 31.7056L46.6148 31.6881L46.5413 31.8404L46.3452 31.7861L46.326 32.3165L46.9404 32.0802L47.0805 31.8877L47.2118 31.9437L47.4796 31.6811L47.9943 31.6496L47.8332 32.1222L47.4288 32.0925L47.2748 32.3165L47.2724 32.3204L47.1137 32.8941L46.8818 33.0688L46.8774 33.0927L46.8499 33.1022L46.7986 33.533L46.4643 33.3702L46.1281 33.6835L45.9461 33.5312L45.8743 33.6678L46.0038 33.8463L45.7378 33.9093L45.659 34.0458L44.6804 33.8988L44.3933 34.2349L44.4388 34.5587L44.2655 34.6672L43.8716 34.7057L43.5758 34.8983L43.399 34.8388L43.1486 35.0733L42.6199 34.9333L42.3731 34.6795L42.1368 34.8738L41.7429 34.795L41.4225 34.3714L41.0339 34.3172L40.9429 34.1981L40.7118 34.2524L40.2777 34.6532L39.8505 34.7933L39.833 34.942L39.9485 35.0016L39.5144 35.2694L39.7402 35.3061L40.1288 35.0786L40.3039 35.1328L39.8925 35.4637L39.9906 35.4707L39.9223 35.7665L40.2426 35.6352L40.2847 35.952L40.4755 35.9398L40.577 35.6895L40.5192 35.5827L40.6663 35.5792L40.6138 35.7962L40.7416 36.0308L41.0864 35.7175L41.3525 35.8312L41.981 35.6422L42.1735 35.4129L42.3346 35.8172L42.6234 35.9713L43.2817 36.843L43.4672 36.9112L43.6213 36.7869L43.9189 36.8237L44.192 36.6557L44.8344 37.3611L45.3701 36.92L45.729 37.032L45.9531 37.3733L46.4257 37.5256L47.259 37.4416L47.4901 37.3016L47.9698 37.9632L47.9487 38.7316L48.2901 39.3705L48.2989 39.5981L48.4827 39.6016L48.6507 39.9306L48.9046 39.6786L49.0114 39.7608L49.0919 39.5386L49.477 39.493L49.6521 39.4843L49.9479 39.409L49.9707 39.2917L49.5593 38.9329L50.0705 38.8244L50.8862 39.528L51.3537 39.4213L51.8666 39.5858L52.236 39.9902L52.2955 40.3105L52.0189 40.5888L51.765 40.6535L51.4762 41.0054L51.4132 41.3432L51.6145 41.0474L51.9174 41.0369L51.9646 41.3449L52.0837 41.4097L52.0907 41.5812L52.1082 41.6758L52.2167 41.7843L52.3778 41.6565L52.8924 41.9068L52.8084 42.0013L52.1782 42.0661L52.1292 42.4547L52.383 42.4529L52.5511 42.3322L52.7419 42.2201L53.2898 42.2324L53.4176 42.4652L54.2246 42.4494L54.4575 42.6945L55.0317 42.8328L55.4045 42.2341L55.6251 42.3147L56.2658 43.0008L56.194 43.1951L56.0015 43.1828L55.8212 43.3684L55.8982 43.5154L56.3551 43.5854L56.3779 43.7097L56.2728 43.6992L56.4374 43.9635L56.3061 44.1175L56.5844 44.0825L56.896 44.2348L56.8243 44.6287L57.0256 45.1258L57.5176 45.5785L57.8029 45.6387L58.167 45.7472L58.4034 45.6264L58.4314 45.7209L58.4856 45.791L58.9986 45.6527L59.2751 45.9905L59.6113 45.8575L60.0016 46.1918L60.5653 46.2723L60.9715 46.5436L61.171 46.4684L61.9063 46.7397L62.6538 47.5641L63.3523 48.0875L63.4153 48.266L63.7794 48.4288L63.7882 48.5793L63.6044 48.6178L63.5413 48.7736L63.8862 49.171L63.5974 49.2375L63.6674 49.4073L63.5343 49.4983L63.4451 49.57L63.2543 49.5595L62.8359 49.7486L62.3369 50.2632L62.3947 50.6623L62.6766 51.0386L62.5908 51.3624L62.6468 51.7265L62.7886 51.8683L62.7763 52.0433L62.9251 52.0468L63.1387 52.5387L62.8096 52.7522L62.7746 53.1793L62.9286 53.5119L62.6433 53.8602L63.1405 53.9145L63.3768 54.3188L63.1405 54.5481L62.8359 54.4939L62.7816 54.5691L62.8849 54.7337L63.0477 54.956L63.2105 55.0032L63.2052 54.8912L63.333 54.8439L63.2805 55.096L63.5431 55.2063L63.3996 55.6176L63.5799 55.7769L63.3698 55.9082L63.6411 56.0552L63.6201 56.2338L63.965 56.4175L63.9037 56.5418L64 56.7326L63.8862 57.172L63.8004 57.186L63.909 57.4555L63.6621 57.4293L63.6044 57.5623L63.4836 57.6673L63.4923 57.8389L63.6359 57.8739L63.6849 58.0349L63.5186 58.1137L63.6901 58.3587L63.7742 58.6703L63.6796 58.8016L63.4783 58.7526L63.4503 58.9153L63.1667 59.1271L63.1282 59.3284L63.0232 59.3337L62.9672 59.1797L62.8219 59.2392L62.4945 59.0939L62.3317 59.2112L62.1811 59.0029L61.6752 58.9083L61.6332 58.1907L61.7785 57.9316L61.6192 57.8581L61.4406 58.0787L61.2306 57.9666L61.0993 57.6778V56.9024L60.9452 56.7921L60.8437 56.8814L60.8997 56.7309L60.5776 56.5138L60.5443 56.3755L60.2695 56.281L60.0524 56.029L60.0016 56.1865L59.8756 56.1707L59.7373 55.9449L59.5465 55.9975L59.4625 56.3668L59.3032 56.4263L59.1754 56.1042L59.0301 56.407L58.9565 56.2828L59.0756 56.148L58.8077 56.0902L59.0108 55.9747L59.0248 55.6736L58.729 55.3726L58.5609 55.3936L58.736 55.1818L58.4559 54.907L58.3683 54.956L58.3158 54.8159L58.4209 54.8702L58.1845 54.5026L58.2265 54.2891L57.964 54.1753L58.0777 54.142L58.0007 54.0668L57.978 54.1596L57.9254 53.988L57.6436 53.7937L57.7626 53.5889L57.514 53.5032L57.1639 53.7132L57.1219 53.6099L57.0571 53.8322L56.8681 53.862L56.7228 53.7115L56.9679 53.6274L57.0221 53.4051L56.7035 53.6117L56.5985 53.5259L56.637 53.4069L56.4689 53.4349L56.5355 53.1653L56.3201 53.2598L56.2624 53.1723L55.6532 53.2126L55.6077 52.8503L55.9088 52.6105L55.6917 52.4162L56.0698 52.5107L56.3692 52.2639L56.2501 52.1571L56.3289 52.1799L56.2991 51.7598L55.977 51.5357L55.6532 51.5462L55.4449 51.7685L55.1315 51.5235L55.0159 51.6828L54.8199 51.6495L54.6011 51.9138L54.0286 51.9296L53.5122 52.4302L53.4544 52.6612L53.0255 52.8153L53.542 53.0271L53.1953 53.0848L53.1516 52.9535L52.5931 52.9658L52.4951 52.8643L52.0452 52.8783L51.7406 53.0201L51.2854 52.873L50.7813 52.8923L49.8062 53.3631L49.6066 52.9745L48.9817 52.789L48.6245 52.5492L48.7051 52.1816L48.9782 51.9383L48.7576 51.8193L48.8013 51.1892L49.6084 50.9371L49.8167 50.622L50.3191 50.4295L50.3401 50.0759L50.1563 49.8904L50.0898 49.9639L49.7659 49.9079L49.6959 49.5578L50.3191 49.5473L50.4749 49.4108L50.4329 49.2707L49.8289 49.0799L49.0027 49.1517L48.9284 49.068L48.9221 49.0694L48.9259 49.0652L48.9204 49.0589L49.0037 48.9808L49.1882 48.7806L48.7068 48.2887L47.9978 49.0151L47.8612 48.8488L47.3938 48.8506L47.7597 48.5478L47.3833 48.3185L47.3343 48.1609L46.5028 48.1469L46.3435 48.1417L46.1877 47.9666L45.9863 48.1312L45.7798 48.0909L45.673 48.3832L45.8761 48.4603L45.9688 48.287L46.0984 48.28L46.326 48.4095L46.4643 48.6651L46.0144 48.7648L45.5925 48.5128L45.3001 47.7111L45.1671 47.7163L45.1075 47.9824L44.8432 47.7759L44.4318 47.9229L43.8909 47.7601L43.6808 47.7198L43.4602 47.7426L43.2151 47.4765L43.4287 47.2455L43.5373 47.1265L43.7578 47.0407L43.7561 46.9112L43.0821 46.6941L43.0156 46.4893L42.121 46.0955L41.9162 45.5739L42.0598 45.4706L41.9967 45.1555L41.5678 44.7232L41.1057 44.9385L41.4068 45.1153L41.23 45.4531L41.0479 45.3953L40.9656 45.1643L40.8011 45.3271L40.7048 45.2658L40.5735 45.3848L40.43 45.9117L40.7696 46.0937L40.4755 46.3265L40.472 46.6679L40.3984 46.8499L39.9013 46.7781L39.9048 46.5593L39.6719 46.1357L39.3708 45.8889L39.4234 45.7612L39.6929 45.7349L39.6842 45.5791L39.2938 45.2378L39.1625 44.8212L38.8212 44.5481L38.3818 43.904L37.7953 43.8165L37.7866 43.5732L37.6378 43.5889L37.531 43.4612L37.4872 43.7902L37.6097 43.876L37.6553 44.1613L37.7708 44.1998L37.5502 44.2856L37.4277 44.2121L37.0881 44.6234L37.3051 44.956L37.4662 44.8667L37.5362 45.1538L37.2474 45.1625L37.1791 45.5144L37.2649 45.4041L37.4277 45.4811L37.1809 45.6491L37.1511 45.7909L36.8535 45.7174L36.85 45.4706L36.2985 45.5704L35.9117 45.3271L35.9169 45.5004L35.7209 45.6824L35.1589 45.1923L35.0276 45.4041L34.8403 45.2606L34.2924 45.6806L34.1331 46.0237L33.7024 45.4601L33.5991 45.5844L33.3786 45.4846L33.4521 45.4566L33.3908 45.2798L33.2368 45.2483L33.2035 45.1048L33.0004 45.1415L32.9287 45.0383L32.8604 45.1118L32.2687 44.802L32.0324 44.5499L31.2884 44.6444L31.122 44.4554L30.5619 44.3399L30.2012 44.3206L29.5973 45.0383L29.2647 45.082L28.911 44.9612L28.9019 44.9094L28.883 44.9227L28.5907 44.6882L28.3876 44.9192L27.8817 45.0698L27.5351 46.001L26.9976 45.8539L26.5372 45.5371L26.1766 45.6386L25.5534 45.4198L25.233 45.7227L24.7429 45.6894L24.5783 46.0097L24.1144 46.1182L23.4492 46.6521L23.0431 46.5803L22.5319 46.1428L22.0645 46.0132L22.1187 45.9065L22.3551 45.9957L22.4829 45.9275L22.6894 46.211L22.7945 46.1445L23.1253 46.4543L23.0571 45.9432L22.9485 45.9135L22.9118 45.7507L23.0115 45.7682L23.1253 45.4338L22.8435 45.4864L22.798 45.3446L22.9695 45.2921L22.8452 45.1713L22.4444 45.18L22.187 45.3848L21.9629 45.2501L22.2063 45.0243L21.9962 44.7039L21.8772 45.0418L21.3537 44.6532L21.2434 44.4501L21.3747 44.2646L21.1892 44.1928L21.2329 43.8953L21.0124 43.8217L21.1507 43.7762L21.1857 43.6169L20.9003 43.0253L20.5082 42.5755L20.2439 42.9536L21.0054 43.8165L20.9458 43.9635L20.818 43.9478L20.9161 44.2121L20.7865 44.5499L20.8128 44.8632L20.5975 44.8492L20.4154 45.0785L20.088 45.0943L20.0863 45.3656V45.4934L20.0565 45.5844L20.0408 45.7034L19.9392 45.7997L19.8587 45.6789L19.7152 45.7839L19.2233 45.9432L19.2478 46.0692L19.1095 46.2005L19.0167 46.1603L18.9151 46.0902L18.8206 46.2793L19.12 46.4543L19.5384 46.4666L19.1777 46.5751L18.6841 46.4631L18.2097 46.5838L17.9541 46.5663L17.6932 46.4438L17.5847 45.8417L17.077 45.8872L17.0438 45.6842L17.1506 45.6894L17.2048 45.3621L17.0473 45.1748L16.937 45.2693L17.0403 44.8947L17.1453 44.865L17.1365 45.1923L17.4727 44.6672L17.4149 44.6287L17.4412 44.2611L17.7195 44.3976L17.849 44.4501L17.9523 44.2943L17.2153 44.1683L17.4149 44.0213L17.3011 43.7517L17.2346 43.6677L17.0455 43.2161L17.1348 42.9903L17.0753 42.9308L16.9055 42.9973L16.8337 42.866L16.6604 42.8818L16.7847 42.7768L16.958 42.908L17.077 42.831L17.042 42.7295L16.8197 42.7102L17.0438 41.9611L16.7462 41.8946L16.207 42.5002L16.0284 42.5545L15.9269 42.5002L15.8831 42.0399L15.6468 41.8736L15.6836 41.653L15.7781 41.52L15.8779 40.4715L15.3457 39.6541L15.3387 39.164L14.9501 39.0747L14.6367 39.2217L14.4634 38.9942L14.3006 39.15L14.1763 39.0852L13.8507 38.3798L13.8524 37.9089L13.6091 37.2911L13.5251 36.6907L13.1277 36.6539L12.9071 36.7747L12.431 37.3803L12.3959 37.214L12.1859 37.2788L12.0563 37.4889L11.9145 37.4696L11.771 37.4258L11.736 37.0127L11.5854 36.7659L11.3508 36.5909L11.223 36.2566L11.2896 35.966L11.4471 35.8803L11.3368 35.5932L11.4384 35.4584L11.855 35.2571L12.1666 35.2641L12.2261 35.1468L12.1123 35.0926L11.6554 34.4239L11.5486 34.0826L11.7395 33.8621L11.8287 33.3807L12.1736 34.0301L12.5097 34.1736L12.9929 34.1211L13.0016 33.9846L13.0752 33.7903L13.308 33.7448L13.3623 33.3965L13.4585 33.54L13.3903 33.6608L13.3395 34.1579L14.0362 34.0896L14.0958 33.8778L14.2936 33.7465L14.2376 33.5435L14.5877 33.8726L15.1479 33.6205L15.3054 33.7238L15.4455 34.1159L15.9059 33.9198L15.9899 34.2874L15.8148 34.5447L16.5711 34.97L16.7549 35.2221L16.8267 35.2326L16.7672 35.0138L16.9597 34.9508L16.9002 34.4869L17.0648 34.2524L17.3169 34.2576L17.2713 34.4099L17.5007 34.4327L17.4832 34.5692L17.8665 34.634L18.1204 35.2274L18.2779 35.1346L18.1414 34.4257L17.723 34.0493L17.7475 33.2792L17.9453 32.9711L17.9313 32.6613L17.3781 31.6776L17.1716 31.5586L17.105 31.481L16.7794 31.5341L16.5379 31.5656L16.4328 31.6811L16.4801 31.7984L16.2455 31.9016L16.0687 32.0119L16.0845 32.222L16.2613 32.3883L15.5803 32.1555L15.323 32.3147L15.1882 31.9647L15.0796 31.9769L14.9938 31.7039L14.817 31.6969L14.6945 31.7406L14.4739 31.4308L14.5299 31.3275L14.3654 31.1822L14.2743 31.2225L14.2989 30.7779L14.087 30.7184L13.7947 30.9214L13.8507 31.2803L13.5986 31.1822L13.4516 31.303L13.378 31.5726L13.5969 31.6811L13.5233 31.7966L13.343 31.7564L13.336 31.5026L13.3728 31.1717L13.154 31.1945L13.0857 31.2628L12.9474 31.0475L13.0034 30.8969L12.7671 30.9494L12.7601 31.079L12.585 30.8934L12.8529 30.8637L13.0367 30.5591L12.5518 30.0707L12.55 29.9325L12.2472 30.0497L12.3312 30.111L12.2612 30.2003L12.5938 30.3088L12.4152 30.3788L12.3452 30.4838L12.0773 30.3158L11.9531 30.3806L12.2314 30.5836L11.9601 30.7569L12.2489 30.7499L12.2034 30.8287L12.2191 30.9232L12.2296 31.1455L12.0984 31.2698L12.1701 31.3538L11.834 31.6723L11.6765 32.1169L11.5959 32.0382L11.4331 32.1169L11.827 32.5248L12.0318 32.537L12.5448 32.9781L12.8214 33.0447L12.8721 33.2459L12.6936 33.3492L12.662 33.0902L12.4642 33.2564L12.2209 33.0166L11.722 33.0009L11.7377 33.4192L11.4401 33.5295L11.2546 33.4245L10.8204 32.495L10.8397 32.3883L10.9867 32.3935L11.062 32.1327L10.9272 31.5043L10.2707 30.7009L10.0151 30.5153L9.84009 30.5434L8.91403 29.6577L8.23479 28.6494L7.29648 28.0263L7.27547 27.6867L7.23871 27.5274L7.32099 27.3927L7.22295 27.1161L7.31223 26.8413L7.15293 26.7888L7.07765 26.9743L6.75204 26.7293L6.619 26.899L6.02204 26.6627L5.89425 26.8168L5.166 26.696L5.07497 26.4877L4.33447 25.8383L4.31696 25.3657L4.15416 25.0506L4.23644 24.7776L3.95634 24.4223L3.75678 24.3417L3.70251 24.4538L3.46092 24.3277L3.58347 24.1807L3.17733 23.4368L4.1279 23.4053L4.1209 23.2407L3.63773 22.8732L3.53795 22.9222L3.17733 22.5073L3.3944 22.3918L3.8408 22.6229L3.94409 22.1678L3.48718 21.9192L3.12656 21.9805L3.01802 21.9717L2.54886 22.0435L2.28278 21.8264L2.57687 21.942L2.69416 21.9105L2.96551 21.9017L2.44558 21.5779L2.40707 21.6549L2.30553 21.7547L1.96417 21.7214L2.2005 21.3451L2.36855 21.2628L2.42632 21.2348L2.54536 20.6782L2.45433 20.4069L2.76594 20.1321L2.75368 19.7785L2.37906 19.5019L2.04644 19.5194L1.6193 19.0731L1.49501 19.0626L1.42323 19.2551L1.1729 19.0031L0.891052 18.8543L0.784266 18.625L0.563691 18.5812L0.23808 18.73L0.0210069 18.506L0 18.4447L0.327361 18.2592L0.428895 18.4394L0.864793 18.4867L1.0416 18.6582L1.26743 18.6372L1.85913 19.1799L2.82021 19.3829L3.3944 19.3216L3.26836 18.9698L3.47493 18.5812L3.692 18.618L3.99135 18.8648L4.01586 18.3729L4.2732 18.0544L4.52353 17.9756L4.88766 17.6395L4.41675 16.9744L4.64783 16.6033L4.37473 16.1324L4.60581 15.9031L5.34456 16.1797L5.82073 16.5403L6.33015 15.9031L6.36166 15.4043L5.93977 14.8564L5.82598 14.4328L5.67193 14.3418L5.53363 14.0022L5.1485 13.7169L5.26053 13.2513L4.74411 12.3534L5.67368 12.3901L6.01854 12.2553L6.09032 11.8247L6.35291 11.3731L6.30389 11.1088L6.44919 10.9023L6.9376 10.6415L7.11441 10.624L7.52405 10.8463L7.88117 10.4489L8.46062 10.8253L8.83 10.813L9.27815 10.7185L9.67729 10.2879L10.4913 10.1934L10.4651 9.55275L10.7451 9.05739L10.4528 8.77558L10.5001 8.28197L10.9412 8.07542L11.2266 7.55381L11.1845 6.97443L11.0095 6.82915L10.999 6.50708L11.4226 5.78767L11.6922 5.74391L11.8515 5.58463L11.7675 5.28531L12.0388 5Z" fill="#CED9E5"/>
<path d="M48.1028 29.1063L48.4144 29.038L48.3461 29.2341L47.968 29.3689L48.1028 29.1063Z" fill="#CED9E5"/>
<path d="M17.3659 46.4701V46.2425L17.1558 46.2023L17.0928 46.3756L17.1716 46.5033L16.965 46.5593L17.0403 46.8972L17.1646 46.8692L17.126 46.6101L17.3659 46.4701Z" fill="#CED9E5"/>
<path d="M17.1961 44.2016L16.965 44.0773L16.7952 43.8322L16.8267 44.3031L17.091 44.6742L17.1961 44.2016Z" fill="#CED9E5"/>
<path d="M15.9531 43.1041L15.8866 42.8398L15.7816 42.726L15.7431 42.852L15.6118 42.8625L15.7326 43.0568L15.9531 43.1041Z" fill="#CED9E5"/>
<path d="M14.4459 40.6395L14.5754 40.5818L14.5614 40.4523L14.4476 40.475L14.0012 41.2609L13.905 41.2032L13.8804 41.7055L13.9365 41.6268L14.0643 41.7125L13.9452 41.4272L14.0432 41.4255L14.4459 40.6395Z" fill="#CED9E5"/>
<path d="M14.8048 39.8379L14.9045 39.5893L14.7557 39.4598L14.5072 39.5876L13.9855 39.6156L13.5793 40.2825L13.6406 40.3945L13.4621 40.531L13.4953 40.9809L13.7859 40.7183L13.8244 40.5923L13.7264 40.5048L13.9627 40.3192L14.3864 40.2282L14.5072 40.0059L14.8048 39.8379Z" fill="#CED9E5"/>
<path d="M62.0463 59.4387L61.9203 59.2059L61.7032 59.2077L61.642 59.3792L62.0463 59.4387Z" fill="#CED9E5"/>
</svg>
