<svg width="64" height="64" viewBox="0 0 64 64" fill="currentColor" xmlns="http://www.w3.org/2000/svg">
<path d="M52.226 54.2443L52.6713 54.5115L52.8576 55.0539L52.647 55.9243L52.1814 56.0579L51.6632 55.7827L51.5417 56.1592L51.0761 56.0296L50.8615 55.7179L51.3595 54.1836L51.6956 54.2321L51.8575 53.9326L52.226 54.2443Z" />
<path d="M52.9872 53.3172L53.2746 53.4427L53.1855 54.5155L52.6066 54.1714L52.6551 53.4144L52.9872 53.3172Z" />
<path d="M17.244 7L17.8392 7.09717L18.5275 8.1133L19.8838 8.50599L19.9729 8.96751L19.7017 9.56665L20.2037 10.5666L21.8475 10.9148L21.9973 11.5625L21.6694 12.441L21.7585 13.3114L22.1836 14.0927L22.5196 14.2061L22.131 14.4611L22.9043 15.9266L23.7586 16.7039L24.9854 17.1411L25.0987 17.7403L25.4024 17.6836L25.8235 18.1775L26.6292 18.3759L27.0908 19.1046L27.3297 18.7483L27.6657 18.8414L27.5888 19.7726L28.1921 19.4608L29.0018 20.226L29.512 20.3393L29.7306 19.975L30.4959 20.4122L31.087 20.3069L31.8239 19.5742L33.0993 21.4891L33.5608 21.6834L33.4556 22.0072L33.7228 22.4566L34.3503 22.7886L35.4557 22.8695L37.4598 24.0436L38.7312 23.7116L40.9135 24.5496L41.869 23.914L41.8852 23.5578L42.8853 23.9869L42.8691 23.659L43.4967 23.6266L43.6222 23.825L44.2012 23.323L44.2579 23.5497L45.3996 23.6792L48.1812 24.9342L48.1731 25.2459L47.6265 25.2581L47.003 26.0313L47.0232 27.5049L48.3431 28.9016L50.9668 30.857L49.3594 32.707L49.5051 34.1766L49.1974 34.3993L49.323 34.877L49.1367 35.0348L49.2703 35.3587L49.7602 35.4235L50.076 36.2898L49.493 36.1846L49.161 36.9173L50.242 37.5448L50.2137 38.0671L50.489 38.3828L50.3675 39.0913L49.9991 39.4921L50.5619 39.7917L50.4404 39.9819L50.7805 40.5082L51.2178 40.5001L51.0599 41.0709L51.8211 41.8037L51.6996 43.3016L51.9263 43.6093L51.5012 43.9169L51.5579 44.4999L52.4325 45.9006L53.303 46.0909L53.4001 46.4553L54.0074 46.7143L54.4366 46.4431L54.7039 46.9249L54.4488 47.3216L55.2262 47.8924L56.9145 47.3783L57.1494 47.9167L57.9753 48.3701L58.692 48.3013L59.275 48.5725L60.9229 48.2811L62.4614 48.5685L63.7814 47.7183L64 47.856L63.9757 48.7264L63.3927 50.1797L63.6518 50.8153L63.5101 51.4226L63.915 52.216L63.7328 53.9488L63.1295 54.6005L63.3076 54.9406L62.7327 55.5802L62.7651 55.9972L62.3602 56.3251L62.097 56.4911L61.7772 56.5195L61.6233 57.0012L61.1456 57.3089L60.4532 57.3615L59.6596 56.8919L59.8297 56.4547L59.1738 55.058L57.696 54.4629L56.7364 54.8151L56.8619 55.1835L56.5623 55.2483L56.5177 55.726L56.789 56.0984L57.1251 56.0741L56.5299 56.4142L56.542 56.8595L56.0926 56.7543L56.0562 56.4466L54.801 55.6329L54.5743 54.5196L54.1735 54.3172L54.0074 54.5358L53.5783 53.8475V53.5318L54.1977 53.0298L53.6917 51.8719L52.9548 51.9327L52.8292 51.2445L51.9182 50.7303L49.8048 51.0987L50.2744 49.4186L50.0234 49.2162L49.2177 49.3863L49.0355 49.111L49.4971 48.2244L50.0193 48.107L50.1935 47.4592L50.0517 46.7751L49.5214 46.3662L49.2865 45.1841L48.3512 44.5687L47.6265 44.674L47.9747 45.3177L47.3876 45.0383L47.1487 45.5525L46.76 44.9654L47.5658 44.0505L47.9099 43.0465L48.3026 42.7996L48.1083 42.2733L47.5617 42.1599L47.6346 42.4514L47.2904 42.5041L47.0394 43.2732L46.6143 43.5445L46.1891 43.1032L46.4645 42.9615L46.2539 42.7591L46.428 42.4433L46.007 42.2409L46.3956 41.8239L46.7155 41.8563L46.926 41.156L46.5171 41.2774L46.5535 40.5406L45.7276 40.1924L45.3227 40.4192L45.1648 40.0588L44.3996 40.2856L43.3752 39.99L43.5291 39.6135L43.7679 39.7836L44.6951 39.4314L44.3307 38.148L44.6789 37.5934L44.3469 36.9335L43.2335 37.1521L42.4359 36.4882L41.2455 37.3424L38.6866 37.4436L37.3627 36.7109L36.1683 36.4599L34.9374 37.2371L31.5566 36.0753L30.7104 36.1765L30.2813 36.7392L29.7792 36.7109L29.1395 35.387L28.8075 35.213L28.8034 34.4681L28.4026 34.1037L28.2123 34.3669L27.9248 34.1968L27.8034 34.5288L27.5726 34.4357L27.6333 34.0916L27.6252 33.8042L28.1475 33.1119L28.4998 33.4276L28.9047 33.1726L29.0383 32.2536L29.3095 31.7597L29.269 31.444L29.0383 31.4723L28.9168 30.0999L28.0746 29.2457L28.0099 28.8166L26.9612 28.7275L26.4916 28.2701L25.3579 28.4927L24.8153 28.0676L24.0663 25.8289L22.5318 25.0961L21.8192 23.5497L20.309 22.9181L18.9162 21.5822L17.9283 19.894L17.1185 19.5135L16.4869 19.6511L16.329 19.1855L14.7256 18.1168L13.4057 16.546L11.2153 15.7161L9.18682 16.3396L7.79806 15.6432L7.39317 14.3235L5.90321 14.4409L4.87479 14.0077L4.38894 14.3761L4.34844 14.7243L5.53476 14.8538L5.94775 15.3558L5.84653 15.8497L4.66831 16.5136L2.03657 16.4124L0 17.048L0.190291 15.9185L0.793568 14.9388L2.66009 14.619L2.81393 14.2951L3.92333 13.9794L4.00835 13.7041L5.94775 13.0159L6.49432 13.0482L6.69273 12.8539L7.49035 12.2993V11.7771L7.96812 11.4532L9.16252 11.5949L9.55526 9.70026L10.9319 8.58291L11.94 8.45336L12.7862 8.7408L13.6891 8.68412L14.5232 7.90684L15.4908 7.78538L16.3735 7.10526L17.244 7Z" />
</svg>
