<svg width="64" height="64" viewBox="0 0 64 64" fill="none" xmlns="http://www.w3.org/2000/svg">
<path d="M59.3911 18.2337L59.5652 18.1278L59.8111 18.3907L60.2177 18.5587L60.4478 18.583L60.6547 18.4918L60.9846 18.5453L61.1977 18.7498L61.7978 18.9689L61.9147 18.9263L62.0449 19.0918L62.2129 19.16L62.3992 19.1296L62.4893 19.2318L62.3955 19.3888L62.8435 19.8477L63.2659 20.0194L63.5301 20.0291L63.5995 20.3772L63.4717 20.5854L63.5691 20.959L63.5216 21.2426L63.6506 21.6175L63.636 21.9864L63.7517 22.203L63.7395 22.7069L63.9257 22.8068L64 23.29L63.9367 23.8292L63.5545 24.1542L63.356 24.198L62.9969 23.94L62.7254 23.9765L62.6585 24.1238L62.4868 24.1408L62.3736 24.4585L62.1301 24.5364L62.0827 24.7823L61.827 24.8285L61.4667 25.2095L60.9517 25.2619L60.7984 25.1146L60.5805 25.2156L60.5245 25.4542L60.6584 25.6988L60.5464 25.9338L60.5841 26.1906L60.4514 26.232L60.4039 26.3391L60.4867 26.5448L60.7375 26.7931L60.5719 26.9294L60.5805 27.0755L60.3686 27.2459L60.4246 27.3129L60.6998 27.2958L60.6535 27.4821L60.4478 27.6756L60.4563 27.8144L60.6474 28.1272L60.6182 28.2696L60.7472 28.2903L61.0552 28.5727L60.9554 28.8782L60.6036 29.0803L60.9737 29.645L60.5561 29.7254L60.3601 29.9165L60.1933 29.8581L60.1787 30.0005L60.3321 30.2658L60.2457 30.3851L60.0606 30.3985L59.9133 30.0954L59.8062 30.2622L59.7794 30.5713L59.6139 30.5153L59.5701 30.4508L59.5031 30.452V30.7856L59.3132 30.8087L59.4069 30.9694H59.3035V31.0728L59.4276 31.1069L59.3534 31.315L59.2645 31.3041L59.1732 31.3443L58.8822 31.5841L58.7605 31.5828L58.4574 32.1476L58.4172 32.5603L57.8718 32.7733L57.4592 32.738L57.4141 32.6004L57.4117 32.4994L57.4494 32.3339L57.4677 32.2316L57.4251 32.1221L57.4105 32.0502L57.2924 31.7934L57.3508 31.7508L57.503 31.7289L57.5079 31.5987L57.7477 31.4502L57.5918 31.315V31.4051L57.2473 31.3321L57.1974 31.5402L57.0501 31.6181L56.9466 31.4429L56.5681 31.1787L56.4938 31.1398L56.0848 31.0765L55.6197 31.158L54.742 31.0241L54.1175 31.1093L52.5824 30.7734L52.2988 30.9292L52.1539 30.9L51.6865 30.6991L51.6694 30.5896L51.0826 30.3547L50.2682 30.1757L50.0832 29.8215L49.9262 29.7497L49.4368 29.6791L49.0923 29.8641L49.018 29.9919L48.9291 29.9761L48.9389 29.8641L48.8598 29.8008L48.0344 29.7375L47.9224 29.6085L47.5462 29.5221L47.4927 29.4345L47.5328 29.3249L47.6631 29.0535H47.7751L47.9723 28.8977L47.8165 28.8453L47.6314 28.7273L47.4306 28.7869L47.4768 28.8551L47.041 28.776L46.7123 28.8599L46.7257 28.9281L46.1353 29.4442L46.0136 29.8897L45.6094 29.8678L44.8157 30.1745L43.9964 31.0753L43.9124 31.0692L43.546 30.9109L43.0201 30.9974L42.7791 30.9633L42.7206 30.9243L42.8728 30.9316L42.9118 30.8099L42.8229 30.8026L42.4309 30.7174L42.0754 30.8988L41.7504 30.2512L41.653 30.2269L41.6189 30.1307L41.6993 30.0248L41.4923 30.0029L41.4168 29.8203L41.3852 29.7838L41.4692 29.7047L41.3755 29.5732L41.2988 29.5525L41.1673 29.516L40.7863 29.4673L40.3748 29.5671L40.3431 29.6998L39.883 29.6901L39.7296 29.8885L39.6748 29.8069L39.5263 29.8191L39.351 30.166L39.2195 30.1903L39.1453 30.3218L38.9663 30.3035L38.8227 30.575L38.7265 30.5482L38.6632 30.6298L38.6681 30.7795L38.8921 30.9012L38.83 31.1142L38.6961 31.012L38.5816 31.0765L38.5548 31.3284L38.6425 31.4051L38.8421 31.3077L38.9261 31.3808L38.2895 31.6108L36.7361 32.6406L36.1798 32.8719L35.7257 32.9242L35.2388 32.7635L34.2746 32.385L33.7779 32.0454L33.3198 31.957L32.8515 32.131L32.6117 32.3257L32.3427 32.3561L31.9641 33.0037L31.8704 33.5466L32.3816 33.773L32.8235 34.3585L32.8649 34.6847L33.0013 34.6774L33.0634 34.849L33.2496 34.8563L33.3884 35.1776L33.6258 35.1436L33.9131 35.247L33.9581 35.1594L34.0872 35.2373L34.0628 35.3602L34.3392 35.5197L34.2503 35.6597L34.0786 35.7217L33.4006 35.7424L33.2898 35.925L33.2521 36.2074L33.3616 36.6845L33.4578 36.8586L33.532 36.8464L33.728 37.2226L34.019 37.4989L34.4548 37.69L34.7896 37.6741L34.9174 37.7533L35.3167 37.6048L35.4202 38.2949L35.2899 38.6637L35.0123 38.5177L34.8224 38.2024L34.5595 38.0381L34.1748 37.9151L34.0019 37.9943L33.6075 37.847L33.1121 38.0636L32.843 38.3205L32.333 38.0904L32.2246 38.3886L32.025 38.3765L31.8874 38.7891L31.8801 39.0581L32.0335 39.444L32.2015 39.5352L32.3536 39.8578L32.3926 39.73L32.4717 39.7543L32.6081 39.8529L32.5764 40.0806L32.7578 40.3995L32.9343 40.4591L33.1255 40.3642L33.3117 40.5638L34.2819 40.8803L34.4998 41.1578L34.9503 41.3367L34.999 41.4682L35.1755 41.5935L35.0014 41.6873L34.9844 41.9173L35.2461 42.1936L35.3082 42.3628L35.1122 42.4066L35.0513 42.5065L35.1 42.6184L35.4238 42.6002L35.4616 43.0189L35.3337 43.1577L35.1755 43.1735L35.2278 43.2599L35.1231 43.255L35.083 43.3305L35.2388 43.5399L34.8529 43.6324L34.9795 43.7285L35.1597 43.7371L35.117 43.8563L34.7859 43.8649L34.6325 44.0085L34.4463 44.0219L34.4889 43.8831L34.3416 43.8709L34.3051 43.72L34.4085 43.7005L34.3891 43.6153L34.3063 43.5399L34.3331 43.6567L34.1419 43.6835L34.1054 43.5435L34.1687 43.3804L34.0044 43.1893L33.8291 43.1917L33.7719 43.0286L33.4359 42.7949L33.3239 42.801L33.3507 43.0152L33.2801 43.0481L33.2289 42.9702L33.2849 42.857L33.1206 42.6087L33.162 42.5223L32.9331 42.3373L32.8832 42.1997L32.9416 41.8832L32.7456 41.7798L32.7335 41.4755L32.6044 41.2966L32.3062 41.1188L32.1077 40.6259L31.9324 40.4214L31.8083 40.4262L31.717 40.3386L31.6804 40.1694L31.4394 39.954L31.0267 39.8882L30.6798 39.9296L30.3438 39.7787L30.2026 39.8043L29.7254 39.4622L28.6724 39.1713L28.1392 39.6886L27.9468 40.0392L27.9456 40.3203L27.819 40.3228L27.7192 39.971L27.5025 39.7763L27.315 39.7702L27.2334 39.6764L26.6808 39.4866L26.4434 39.4768L26.2157 39.2845L25.8603 39.2334L25.4293 38.8865L24.52 38.5213L24.4567 38.2255L24.1182 37.9042L23.8602 37.864L23.7591 37.7374L23.5948 37.7107L23.0932 37.8239L23.249 37.4745L23.0287 37.0887L22.8327 36.9718L22.8351 36.7771L22.7061 36.4886L22.2886 36.3401L22.3105 36.0017L22.5028 35.9153L23.064 35.9968L23.5205 35.8751L23.9892 35.555L24.0951 35.314L23.596 34.8819L23.7506 34.6409L23.7262 34.1941L23.3537 34.0237L23.3367 33.9945L23.1261 33.9531L22.7925 34.2221L22.6392 34.1637L22.4894 34.3232L22.7463 34.3913V34.6506L22.4748 34.9281L21.9818 35.1399L21.8211 35.0267L21.6994 35.0717L21.5021 35.1667L21.5082 35.4418L21.5021 35.5331L21.4571 35.5878L21.5094 35.6597L21.5423 35.74L21.4851 35.8361L21.4279 35.9043L21.3074 35.992L21.2015 35.9786L21.0809 35.7363L20.9239 35.7388L21.0152 35.5976L20.8265 35.5878L20.4467 35.7753L20.5112 35.8313L20.6025 36.11L20.7742 36.233L20.5563 36.2281L20.4905 36.3182L20.3956 36.2512V36.3985L20.2702 36.4216L20.1704 36.3243L20.2397 36.2914L20.1472 36.2756L20.0924 36.4216L19.9598 36.3644L19.7857 36.519L20.0109 36.8282L20.0693 37.3345L20.2531 37.7386L20.5843 37.9066L20.6244 38.0028L19.9902 39.1482L19.793 39.8822L19.8405 40.1597L19.4533 40.7245L19.3791 41.0933L19.6006 41.7567L19.6359 42.3543L19.7711 42.5271L19.8928 42.969L20.359 43.3743L20.7364 43.5423L20.9215 43.6969L20.6707 43.9209L20.5149 43.6519L20.1886 43.5593L19.9512 43.7541L19.1405 43.8904L19.0053 43.7419L18.8982 43.7334L18.8276 43.591L18.7022 42.9982L18.2481 42.7572L18.0911 42.5612L17.8671 42.6525L17.7344 42.4468L17.5177 42.5844L17.4849 42.4492L17.3546 42.3835L17.3205 42.2046L17.1671 42.1669L17.3704 41.7554L17.4459 41.1651L17.2767 41.1541L17.1744 41.3039L17.1489 41.1298L17.2426 40.8924L16.9103 40.5626L16.5207 40.6733L16.3138 40.8851L16.2651 41.1517L16.0107 41.5303L15.7501 41.641L15.6162 41.2978L15.6491 41.0008L15.4446 41.0227L15.4884 40.8097L15.7258 40.5942L15.654 40.4421L15.531 40.3569L15.0661 40.3935L14.5888 40.466L14.6083 40.4648L14.6789 40.5987L14.6472 40.7935L14.4476 40.6632L14.366 40.7667L14.5243 41.0308L14.4512 41.1501L14.2577 41.3339L14.1469 41.598L13.6307 42.0837L13.5613 42.3028L13.2874 42.3284L13.3252 42.5681L13.0805 42.7544L12.7859 43.3021L12.6118 43.4275L12.3915 43.4056L12.3026 43.677L12.1005 43.8109L11.9252 43.7951L12.3829 44.3343L12.3196 44.5705L12.4974 45.1766L12.4012 45.3714L12.3355 45.2691L12.1176 45.2825L11.9922 45.1851L11.5271 45.1206L11.0487 45.3519L10.8113 45.2034L10.5898 45.2083L10.5837 45.117L10.4413 45.0208L10.2806 45.0135L9.9531 45.2071L9.65119 44.9843L9.2312 45.2521L9.09243 45.1438L9.04373 44.9125L8.82096 44.6642L8.61035 44.7628L8.30358 44.6447L8.05646 44.7238L7.85924 44.6386L7.72412 44.7457L7.6316 44.5911L7.47456 44.5814L7.27004 44.7056L7.11301 44.6557L6.91579 44.9381L7.1057 44.9673L7.04727 45.2691L6.83301 45.4274L6.69545 45.3933L6.62728 45.5503L6.52868 45.5576L6.46781 45.4627L6.25842 45.4846L6.20364 45.3604L5.95287 45.2302L5.90296 45.0318L5.67896 45.1912L5.4501 44.9028L5.25654 44.9222L4.97533 44.7348L4.65151 44.8942L4.42752 44.8772L4.25222 45.1742L3.49746 44.9052L3.49259 44.6642L3.35625 44.596L3.44511 44.4378L3.31608 44.2357L3.36842 44.0799L3.29416 43.8998L3.01661 43.6685L2.74027 43.2547L2.82913 43.1548L3.05313 43.2766L3.21503 43.1743L3.33677 42.926L3.37938 42.3734L3.03 42.2188L2.81087 42.3515L2.56132 42.3843L2.32515 41.9839L2.32393 41.7246L1.97577 41.2889L2.49071 40.9919L2.41523 40.7083L2.44567 40.4575L2.22167 40.4271L2.36167 40.2396L2.11089 40.0084L1.97942 39.5957L1.79073 39.4728L1.7603 39.2415L1.56187 38.9275L1.06884 38.4175L0.90206 38.4613L0.735283 38.2933L0.42364 38.3749L0.0292163 38.2118L0 38.1071L0.153386 38.0121L0.181386 37.7188L0.104693 37.098L0.387119 36.8947L0.499115 36.9081L0.72676 36.3385L1.05423 36.4626L1.43161 36.3932L1.65804 36.5843L1.96238 36.487L1.93559 36.4091L2.10602 36.1851L2.11576 35.7591L2.43228 35.557L2.52479 35.2758L2.91435 35.2089L2.89852 34.7269L2.95209 34.4189L3.06287 34.2923L3.06774 33.663L2.70131 33.0374L2.26915 32.6369L2.25941 32.2815L1.97333 32.1634L2.27645 31.8531L2.26185 30.9414L4.14631 30.928L4.40439 30.6553L4.7416 30.5275L5.10072 30.6784L5.28697 30.8902L6.37772 30.6176L7.00344 30.0674L7.27004 30.0723L7.5196 30.2062L7.8069 30.1197L8.19645 30.1514L8.47279 30.5628L8.60427 30.631L8.6554 30.7929L8.93539 30.7892L9.21416 30.4764L9.33468 30.48L9.41016 30.3376L9.7778 30.3255L9.73154 30.0857L9.79971 29.914L9.94336 29.7205L10.21 29.7254L10.7139 29.9506L11.0609 29.8495L11.0862 29.857L11.0645 29.8195L11.235 29.6357L11.2106 29.1792L11.7122 28.8798L11.7341 28.6997L12.0993 28.4233L12.0944 28.2517L12.2612 28.2748L12.4426 28.1215L12.333 27.8391L12.3988 27.4922L12.8565 27.2427L13.1121 26.9712L13.285 27.0187L13.694 26.9018L14.0324 26.645L14.0556 26.5038L14.2102 26.5939L14.3124 26.8239L14.5924 26.9055L14.775 27.0528L14.9954 26.9834L15.2632 26.5634L15.6162 26.5038L15.7465 26.3797L15.9766 26.4819L16.2967 26.4685L16.3868 26.6048L16.7192 26.729L16.903 26.6535L16.9699 27.0893L17.0186 26.987L17.2268 26.8872L17.3351 26.925L17.4216 26.8446L17.5871 26.9286L17.7369 26.8434L17.7758 26.9822L17.9621 27.1234L18.3139 27.0795L18.4673 27.1477L18.9761 26.9992L19.502 26.9505L19.6712 27.1282L19.8246 27.1343L20.118 26.9043L20.3359 26.6097L20.4382 26.2543L20.6342 26.152L21.1467 26.8154L21.4048 26.6779L21.5374 26.4685L21.6409 24.8521L21.7261 24.6305L21.658 24.3603L21.7407 24.157L22.0049 24.0913L22.1047 23.9014L22.2106 23.9525L22.2508 23.8698L22.4237 24.0012L22.8169 23.916H23.5972L24.3714 24.0913L24.6015 24.0158L25.2199 24.3104L25.8104 24.325L26.5505 24.1595L26.8147 23.8077L26.7672 23.5363L26.8354 23.4133L27.1068 23.3147L27.3856 23.0542L27.8093 23.0615L28.0247 23.5521L28.715 23.0116L28.8757 23.0555L29.0802 22.9544L29.5403 23.0555L30.0395 22.9763L30.2841 23.2283L30.6104 23.1833L30.81 23.3671L31.1485 23.3829L31.154 23.436L31.1558 23.4348L31.3457 23.3886L31.3822 23.1671L31.6561 22.9467L31.8752 23.0319L32.2635 22.9808L32.5874 23.0587L32.6677 23.1439L32.9112 22.8664L33.0341 22.556L33.5868 22.5073L33.655 22.371L33.8985 22.3101L34.0336 22.36L34.1979 22.2456L34.271 21.9218L34.4645 22.0375L34.6009 22.3625L34.921 22.5365L35.4068 22.1093L35.4981 22.3028L35.7525 22.3247L36.0167 22.1166L35.8815 21.833L35.8864 21.2938L36.024 21.1842L36.0727 21.0296L36.3368 20.9079L36.5024 21.0576L36.6533 21.0442L36.685 21.1428L36.9565 21.11L36.982 21.222L37.1208 21.3193L37.1038 21.396L37.2304 21.424L37.5152 20.9043L37.7331 20.9347L37.8524 20.7278L38.0862 20.5793L38.2225 20.6596L38.175 20.7996L38.5208 21.0917L38.4599 21.2609L38.5439 21.4812L38.9237 21.2621L39.2195 21.396L39.4204 21.1148L39.6468 21.0698L39.7564 21.2134L40.0218 21.2268L40.1532 21.3291L40.2689 21.239L40.2823 21.0126L40.4064 20.8957L40.9664 20.656L41.0577 20.7046L41.0602 20.83L41.1575 20.8081L41.2695 20.9128L41.1916 21.0576L41.3681 21.3997L41.3389 21.6029L41.4826 21.9924L41.7407 22.1604L41.7516 22.4939L41.922 22.7374L42.3749 22.5852L42.4626 22.6376L42.4163 22.8469L42.6865 22.7337L42.8058 22.8226L43.1869 22.8664L43.3719 23.3642L44.0062 23.8706L44.1389 23.7464L44.2095 23.2863L44.1669 23.0843L44.7682 23.2194L44.8571 23.206L44.991 23.0112L45.2247 22.9833L45.5157 23.2912L45.9174 23.4446L46.7416 23.6028L47.0021 23.9448L47.2139 24.0434L47.4428 23.9728L47.6059 24.2005L48.1062 24.3903L48.1293 24.5352L48.5652 24.8115L48.6918 25.2923L49.0411 25.3313L49.2493 25.4639L49.4185 25.313L49.8117 25.3751L50.1684 25.1061L50.3401 25.1535L50.6834 25.0172L50.8197 25.0355L50.8635 24.8967L51.3444 24.708L51.6414 24.7287L51.9494 24.8602L52.0967 24.4159L52.283 24.2832L52.8527 24.4743L53.3421 24.3307L53.6391 24.4451L53.8813 24.6569L54.0238 24.2771L54.305 24.3088L54.4754 24.1786L54.6617 24.2248L54.7834 24.058L55.0792 23.9984L55.1559 23.8548L55.4834 24.1335L55.6794 24.125L55.6575 24.3404L55.7963 24.4561L56.0361 24.4256L56.3903 24.2406L56.7385 24.2711L57.0574 24.1664L57.156 23.9132L57.4628 23.8097L58.0313 23.8645L58.147 23.7209L58.5024 23.7331L58.5682 23.447L58.6984 23.4068L58.8116 23.2084L58.8652 22.9711L58.8043 22.7861L58.9285 22.6193L59.2657 22.5767L58.9906 22.1616L58.8068 22.0801L58.7544 21.9194L58.7617 21.8208L58.9382 21.7368L58.9577 21.5482L59.1001 21.3668L59.0125 20.8592L58.6862 20.8227L58.7508 20.0985L58.5816 19.9621L58.5694 19.7004L58.4172 19.7309L58.3673 19.8356L58.1007 19.7808L58.0605 19.5763L57.9108 19.5446L57.8268 19.4375L57.7258 18.88L57.8268 18.5709L57.9911 18.4735L58.2833 18.5246L58.3807 18.2933L58.864 18.0122L58.9626 18L59.1586 18.1911L59.3911 18.2337Z" fill="#CED9E5"/>
<path d="M28.4898 41.1505L28.6091 41.142L28.8586 41.3404L29.1094 41.6921L29.2323 42.0963L29.6682 42.6245L30.8088 43.2003L31.4966 43.4328L31.5648 43.3902L31.7158 43.5119L31.6792 43.6677L31.7766 43.7176L31.8472 44.0523L32.0566 44.1387L32.434 44.0547L32.4827 44.3177L32.1102 44.4345L31.7937 44.3067L31.4406 44.3481L30.7735 44.2544L30.6153 44.1034L30.3414 44.0487L29.348 43.552L29.1167 43.5435L28.8367 43.692L28.4021 43.6519L28.1611 43.765L28.3924 43.3609L28.4593 43.081L28.2524 42.7864L28.0016 42.1717L27.7228 42.0013L27.7058 41.7274L27.6145 41.7043L27.8129 41.3233L27.7593 41.086L27.8604 40.5553L27.8093 40.3374L27.9444 40.3277L28.1026 40.5455L28.2244 40.9825L28.4898 41.1505Z" fill="#CED9E5"/>
<path d="M34.3124 38.3351L34.3939 38.3765L34.383 38.5846L34.5339 38.6102L34.6459 38.7282L34.3343 38.6771L34.2418 38.5457L34.1906 38.5858L33.9435 38.4361L34.2819 38.262L34.3124 38.3351Z" fill="#CED9E5"/>
</svg>
