<svg width="64" height="64" viewBox="0 0 64 64" fill="none" xmlns="http://www.w3.org/2000/svg">
<path d="M42.2393 62.2747L42.4013 62.2949L42.4586 62.6676L42.3287 62.9324L42.1044 62.9054L42.1803 62.6811L42.0454 62.639L41.5242 62.7166L41.7299 62.4771L41.9576 62.5142L42.1196 62.2055L42.2393 62.2747ZM43.2902 61.1987L43.614 61.4635L43.501 61.6659L43.5364 61.8716L43.673 61.7738L43.7995 61.8666L43.5735 62.3135L43.42 62.3995L43.4453 62.5007L43.0169 62.6963L43.14 62.865L43.1097 63.0286L43.3003 63.1837L43.2058 63.3119L43.28 63.5716L43.2294 63.6391L43.1299 63.6509L43.0119 63.5261L42.9494 63.4283L42.8668 63.263L42.7723 63.1112L42.8094 62.9274L42.6576 62.7823L42.7825 62.6643L42.6846 62.5428L42.7943 62.3658L42.6846 62.1971L42.8432 62.1482L43.0119 62.5867L43.1738 62.4568L43.1316 62.3337L43.3694 62.3034L43.2615 61.9981L43.3222 61.8075L43.0355 61.7367L43.0591 61.3943L43.2902 61.1987ZM41.0333 60.605L40.9692 60.8226L40.728 60.9272L40.3974 61.654L40.2726 61.6625L39.9488 62.0656L38.8777 62.8009L38.5117 62.9678L37.2939 63.0673L36.6428 63.7538L36.4066 63.8701L36.0136 63.8111L35.3794 64L35.204 63.9528L35.1534 63.6104L35.6527 62.7166L36.3611 61.8682L36.7828 61.5529L37.0122 61.6659L37.7763 61.5056L37.9298 61.6439L38.2266 61.6051L38.5201 61.7468L40.0247 60.7332L40.5476 60.7096L40.9928 60.5275L41.0333 60.605ZM47.0347 58.2102L48.3959 58.3215L48.8698 58.8342L49.0385 58.7887L49.5749 58.9759L50.1382 59.4397L50.3204 59.2929L49.8785 58.7364L49.9443 58.6773L50.3929 58.8426L50.3272 58.5829L50.538 58.5205L50.4806 58.7515L50.6611 58.8713L51.1503 58.9472L51.6749 58.8443L51.4387 59.0754L51.1284 59.1614L51.0508 59.3621L51.3088 59.6117L51.2194 59.7972L51.6259 59.8124L51.7356 60.0417L51.631 60.18L51.5365 60.1008L51.432 60.2458L51.3442 60.1817L51.2447 60.2829L50.3828 60.2272L49.951 60.5949L49.671 60.5595L49.3556 60.6792L48.8867 61.0536L48.8496 61.477L48.5392 61.5714L47.6267 61.477L46.92 60.4212L46.4258 60.1581L45.2704 60.2947L45.0865 60.4819L45.1152 60.5696L44.9617 60.5797L44.9684 60.7332L44.8588 60.6657L44.6901 60.7838L44.6244 60.6944L44.4793 60.8513L44.2836 60.5241L44.3815 60.2542L44.1032 59.7702L44.5569 59.1833L44.7542 59.0399L45.1894 59.0079L45.4913 58.6386L45.7308 58.5188L46.0193 58.5053L46.6164 58.2287L47.0347 58.2102ZM39.8155 44.7197L39.9909 44.9778L39.9488 45.1312L39.7244 45.0857L39.6789 44.6067L39.8155 44.7197ZM38.3632 44.1986L38.6955 44.2138L38.7444 44.3521L38.9013 44.2694L39.102 44.3622L39.1071 44.4937L39.6232 44.578L39.5777 44.8057L39.4512 44.7197L39.4006 44.9255L39.2791 44.9558L39.1324 44.8749L39.0025 44.7113L38.849 44.7686L38.6196 44.7332L38.5218 44.4229L38.2789 44.153L38.3632 44.1986ZM28.275 44.0569L28.3694 44.0704L28.2564 44.2509L28.3407 44.4397L27.8701 44.401L28.1046 44.0198L28.275 44.0569ZM35.6594 43.0062L36.1739 43.298L36.4809 43.217L36.8081 43.9254L37.1218 43.9355L37.2888 43.9473L37.4355 43.954L37.5772 43.7348L37.7779 43.9776L37.9281 43.9962L37.9787 44.3082L37.8016 44.5662L37.8319 45.0773L37.6987 45.2172L37.4474 45.2088L37.39 45.4449L37.67 45.455L37.6953 45.5933L37.7965 45.6709L37.8471 45.8025L37.5469 46.5412L37.5435 46.8144L37.6919 47.489L37.6953 47.6627L37.6683 48.0877L37.9567 48.2985L37.8505 48.4823L37.9466 48.6476L37.0797 49.4116L37.1016 49.9226L37.277 50.1554L37.0206 50.6175L36.1081 50.8114L35.8804 51.1791L35.8939 51.5434L35.71 51.8098L35.4941 51.6732L35.4334 51.4945L35.0421 51.4321L34.7587 51.0644L34.7806 50.8957L34.4096 50.9413L34.4045 50.6731L34.305 50.7237L34.1549 50.5888L34.0469 50.4724L33.8192 50.5062L33.7905 49.9462L33.4633 49.9597L33.6472 49.3846L33.8361 49.3593L34.2881 48.8905L34.3944 48.8702L34.477 48.8787L34.6558 48.9141L34.811 49.0119L34.9898 48.9731L35.1146 48.6948L35.0202 48.5481L35.1129 48.3407L35.2985 48.2968L35.3103 48.0388L35.4452 48.0928L35.425 47.747L35.4132 47.6492L35.4267 47.4923L35.3136 47.3726L35.2715 47.2343L35.118 46.9544L34.9038 46.9038L34.8633 46.1549L34.6946 46.0639L34.644 45.8126L34.1532 45.5478L33.8631 45.5242L33.4448 45.1936L32.9573 44.1699L33.3537 43.5088L33.8597 43.3418L34.5766 43.3638L35.6594 43.0062ZM29.1453 42.9522L29.3578 42.9421L29.5872 43.2491L29.793 43.3081L29.8369 43.615L29.6986 43.728L29.6142 44.3858L29.2651 44.3959L29.0121 44.1851L28.9108 44.4229L28.8029 44.0974L28.9446 43.8157L28.4116 43.2339L28.506 43.0635L28.7624 43.1732L28.9041 43.0146L29.1453 42.9522ZM40.8832 28.0383L41.0367 28.0181L41.0603 28.1041L40.8073 28.4768L40.9018 28.6371L41.0316 28.6219L41.1278 28.7804L41.5714 28.7079L41.9492 28.9052L41.7013 29.1633L41.8193 29.229L41.541 29.4129L41.256 30.0318L42.7015 31.0083L42.7116 31.1972L42.8735 31.2343L43.1046 31.8718L43.7017 32.1164L43.5567 32.2395L43.5482 32.6324L43.813 32.6847L43.9075 33.1586L43.9446 33.3121L43.9615 33.5027L44.513 34.0154L44.7829 34.4893L44.8419 34.8519L44.7036 35.1892L44.4725 35.201L44.0391 35.0037L43.9311 35.1066L43.7641 35.0138L43.6022 34.808L43.4049 34.6259L43.2632 34.4066L43.3762 34.1587L43.5803 34.1435L43.528 33.786L43.1232 33.2328L42.7959 33.0608L42.2748 33.275L42.2123 33.4234L42.3355 33.7776L42.5969 34.0643L42.9309 34.1891L43.5448 34.9598L43.6342 35.3696L43.6376 35.5299L43.7439 35.6091L43.3542 35.938L42.7285 35.9498L41.5444 36.0965L41.0046 35.8318L40.4565 35.825L39.8172 35.3444L39.0447 35.061L38.3059 35.0492L38.0748 35.2769L38.0546 35.12L37.7189 34.8654L37.3495 34.1941L37.0847 33.9766L36.8064 33.9547L36.803 33.8366L36.9869 33.7843L37.1134 33.5482L37.2753 33.4858L37.5772 33.6679L38.0563 33.4268L38.3666 32.9309L38.6905 32.7724L38.8844 32.8264L39.2859 32.5919L39.3517 32.4486L39.775 32.3609L39.9892 31.8162L39.9302 31.6475L39.4984 31.4299L38.5791 31.3507L38.0714 31.5446L37.8842 31.8162L37.869 32.2665L37.6801 32.3778L37.5705 32.6594L37.3866 32.6813L37.2163 33.334L37.1134 33.1181L36.9886 33.1856L36.8384 33.3492L36.7963 33.6292L36.6782 33.6899L35.6965 33.3357L34.8414 33.3559L34.6794 32.9495L33.6219 32.4604L33.5662 32.145L33.1462 31.9916L33.0028 31.8077L32.9894 31.6964L33.2913 31.8465L33.2339 31.2613L33.271 31.0353L33.1884 30.9257L33.4279 30.6845L33.3334 30.4163L33.6742 30.1431L33.8276 30.0031L34.0722 29.8682L34.0672 29.6439L34.3505 29.6355L34.2999 29.8665L34.4113 29.9509L34.5867 29.8665L34.8414 30.0352L34.9746 29.8665L35.1602 29.8277L35.4486 29.9677L35.6021 29.7519L35.8011 29.6776L35.8922 29.7873L36.2177 29.6878L36.4606 29.6523L36.9481 29.4466L37.2686 29.4129L37.8269 29.0823L38.0698 29.0671L38.2671 28.8378L38.1069 28.6792L38.1794 28.379L38.0613 28.18L38.3261 28.0164L38.5066 28.1193L39.0632 27.949L40.2962 28.1345L40.6892 27.814L40.8832 28.0383ZM20.6442 24.6029L21.2548 25.1038L20.7741 25.7481L20.5818 25.7902L20.344 26.0297L20.1804 26.3738L19.9628 25.7379L20.0168 25.092L20.285 24.7429L20.3625 24.414L20.6442 24.6029ZM26.9863 15.6205L26.9846 15.7116L27.1077 16.2108L26.6388 16.4638L26.536 16.7471L26.2846 16.9124L26.1817 17.3053L26.2661 17.5971L25.9945 17.5263L25.8343 17.6005L25.7989 17.9951L25.9979 18.0086L25.5442 18.2599L25.5846 18.4842L25.787 18.636L25.5745 18.7557L25.615 19.0661L26.0468 19.5467L25.7314 19.7457L25.7786 20.1218L24.9606 19.9043L24.7632 19.6226L24.8509 19.3359L24.4124 19.1757L24.3803 18.9952L24.1526 18.7625L23.9451 18.808L24.0716 18.5905L24.301 18.6056L24.4731 18.4724L24.3567 18.3088L24.6063 17.8906L24.3736 17.7674L24.4191 17.6561L24.2656 17.5634L23.9165 17.6022L23.2721 18.1301L23.6162 18.0929L23.8912 18.2498L23.4476 18.2768L23.1355 18.8148L23.2047 18.9177L23.3599 18.7979L23.4543 18.943L23.5623 18.9868L23.5488 19.4051L23.9654 19.8807L23.4138 19.7727L22.8926 19.8587L22.7172 19.626L22.4676 19.7339L22.842 18.8822H23.004L23.0326 18.7591L22.9365 18.7001L22.6987 18.776L22.616 19.002L22.4305 19.1285L22.331 19.0998L22.3934 18.9227L22.1893 18.7878L21.6681 19.0104L21.5433 18.9699L21.1755 19.1757L21.0828 19.1369L21.1047 18.9851L21.3763 18.7692L21.3037 18.6293L21.1486 18.7355L21.1098 18.6529L21.2886 18.3645L21.157 18.2717L21.3257 18.1166L21.1975 18.0457L21.3965 17.8568L21.4741 17.4622L21.3408 17.2463L21.098 17.167L21.1637 16.9427L21.044 16.6999L21.1317 16.3154L21.0777 16.1754L20.8888 16.172L20.9765 16.0792L21.1469 16.1686L21.5534 16L21.9295 16.0388L22.503 15.6964L22.6885 15.8128L22.675 16.0489L22.8926 15.9781L22.9719 16.0506L23.3295 15.9123L23.3447 15.7942L23.6331 15.892L23.903 15.7234L24.1374 16.0674L24.4107 16.145L24.5355 16.0472L24.5507 16.1686L24.3685 16.3305L24.4613 16.4722L24.4006 16.5751L24.7834 16.7404L24.5574 16.8938L24.8003 17.0338L25.0297 16.8635L25.0145 16.7201L25.1697 16.6493L25.195 16.5059L25.4143 16.4469V16.5683L25.2675 16.624L25.3401 16.7134L25.6454 16.5329L25.6707 16.4165L25.4868 16.3069L26.0029 15.8027L25.9962 15.5885L25.9068 15.5497L25.9827 15.4704L26.4719 15.7268L26.7198 15.3895L27.1415 15.1314L27.1196 15.3203L26.929 15.4687L26.9863 15.6205Z" fill="#CED9E5"/>
<path d="M29.2904 5.86403L30.3142 6.09677L30.9484 6.64826L30.8995 7.52356L29.4776 8.06999L28.8383 8.03458L28.5684 7.6821L28.0624 7.45779L27.322 6.80848L27.0808 6.44419L27.4535 6.51839L27.8398 6.07147L28.3171 5.8674L28.9294 5.7544L29.2904 5.86403ZM15.1995 0.124803L15.3547 0.330557L15.7409 0.470537L16.0783 0.301886L16.2942 0.485717L16.2334 0.622324L16.4106 0.880362L16.6231 1.06588L16.9469 1.05408L17.124 1.2767L17.0802 1.40824L16.8069 1.35427L16.7125 1.56846L16.7513 1.82987L17.0802 1.90071L16.9942 2.01539L17.0954 2.27343L16.7833 2.51966L16.8862 3.08802L17.0178 3.14536L16.9571 3.39496L17.1139 3.46917L16.9891 3.84695L16.7918 3.61927L16.4561 3.98524L16.1002 4.08306L15.7274 4.13872L15.3682 4.32761L15.4036 4.46253L15.1101 4.49457L15.0139 4.61769L14.9532 4.33435L14.6682 4.31074L14.3966 4.10667L14.459 3.82671L14.1824 3.55012L13.9513 3.46748L13.2513 3.56868L13.2024 3.28028L13.0152 3.23137L13 2.75071L13.3104 1.72868L13.6916 1.17213L13.7337 0.774111L14.0964 0.743754L14.2566 0.458733L14.486 0.41151L15.0747 0L15.1995 0.124803Z" fill="#CED9E5"/>
</svg>
