<svg width="64" height="64" viewBox="0 0 64 64" fill="currentColor" xmlns="http://www.w3.org/2000/svg">
<path d="M19.7018 0.0982729L19.3174 0.0549144L19.2364 0L18.6814 0.774573L18.3837 0.696534L17.7247 0.997113L17.4963 0.864168L16.9731 1.78902L16.606 1.9133L15.8112 4.237L14.8081 5.13006L14.6752 5.64163L12.9409 6.45377L11.3858 6.02602L10.9753 6.09827L8.97507 4.65897L7.86511 4.90463L7.32169 4.12717L6.84475 4.04624L6.95748 4.67342L6.67133 5.2659L6.74648 7.19943L6.49211 7.71677L6.13079 7.88729L5.90245 8.79192L5.08154 10.4307L3.8126 12.0723L2.35866 13.2457L1.56666 13.5405L0.89317 13.0145L0.56654 13.1908L0.0867159 15.052L0 16.052L0.141633 16.3237L3.06973 17.3757L4.29242 18.1532L5.04685 18.9567L5.20294 20.0983L5.55558 20.8815L5.49777 21.2254L5.0931 21.6387L5.12778 22.0896L5.31278 22.1387L5.13646 22.7804L5.3359 23.1705L5.71745 22.2312L6.74937 22.2283L7.3795 22.5058L8.92304 23.8757L11.1372 25.3093L13.2993 28L14.7538 31.0595L14.7022 31.2377L15.1704 32.8648L15.13 34.0903L14.5056 35.3446L13.9708 35.5325L12.1701 37.2781L11.803 38.3417L11.8145 38.8591L12.2163 40.6625L12.0169 41.7348L12.7597 42.3619L13.1904 43.229L13.7483 43.5296L14.3177 44.7926L14.0865 44.9602L14.1848 45.255L14.8322 45.0411L15.552 45.4804L15.471 46.1105L14.997 46.4631L14.7282 47.2897L15.0057 48.7781L15.3814 49.6972L15.9913 50.1018L16.6186 50.1134L16.8411 50.5498L17.2458 50.2463L18.0812 49.8793L18.4656 50.0093L18.6333 50.8793L19.0813 51.5209L19.4802 51.7174L19.8444 52.7348L20.6104 51.8591L20.9601 51.5989L21.307 51.4775L21.385 50.7463L22.1915 50.3186L21.4515 49.8186L21.0179 48.0556L21.3504 45.8417L21.3821 45.0094L21.148 44.8504L21.2405 44.2406L22.9055 43.2232L24.2235 42.7897L25.1803 42.7492L26.9088 43.096L27.0302 43.8041L26.666 44.781L26.8279 45.6423L26.7152 45.9284L26.4492 45.9602L26.3076 46.4111L27.4956 47.2088L27.7413 47.2001L27.9118 47.0411L28.2674 46.6885L28.5246 47.0382L28.9148 47.0845L29.2501 47.5065L29.1519 47.729L29.4149 48.1914L29.704 48.2781L29.7213 48.8504L30.2243 49.044L30.2618 49.3764L30.7128 49.6712L31.0538 50.8504L31.1695 51.0614L31.8285 53.0036L32.0453 53.3244L32.2447 53.5238L32.9616 53.4169L33.1177 53.5527L32.8171 53.9747L32.4962 54.0527L32.3893 54.4978L32.5135 54.8966L32.9529 55.1856L32.8951 55.3244L32.4268 55.307L32.5425 55.9053L32.7737 56.0267L32.4557 56.2377L32.4413 56.5122L33.0425 56.8042L32.7014 56.9776L32.6696 57.2984L33.0396 57.3562L32.9211 58.0209L33.1552 58.4689L32.5396 58.7088L32.2332 59.018L32.0453 58.9169L32.0511 59.4198L32.5685 60.5209L33.1581 60.7203L33.372 60.4111L33.8981 60.9573L34.9011 61.3331L34.8462 61.6885L35.3607 62.0122L35.1613 62.229L35.1815 62.8302L35.4648 63.0758L35.7423 63.0527L36.0226 62.9053L35.9012 62.6799L35.881 62.1654L35.5197 61.9226L36.0255 61.5932L35.829 61.0643L36.0689 61.0151L36.0805 60.2146L36.0226 59.8822L35.7943 59.8764L35.7394 59.466L35.2711 58.8504L35.5255 57.9978L35.274 56.8302L35.3781 56.1105L35.8752 55.9342L36.2308 56.492L36.7193 56.0382L35.959 54.6423L36.3695 54.3822L36.8378 54.5787L37.0141 55.0325L37.306 54.9371L37.3118 54.7319L37.1673 54.7377L37.2424 54.2319L36.9794 54.0036L36.6354 54.0585L36.5256 53.8302L36.7973 53.3966L36.5747 53.1018L36.9852 52.6221L37.9766 52.2492L37.8263 51.8851V51.6105L37.6356 51.1192L37.7367 50.8475L38.1732 50.4631L38.9825 50.2145L39.2282 49.9111L42.2864 49.9198L43.3877 50.151L43.6449 50.7434L43.7519 51.7435L44.0814 52.1018L44.3213 52.8533L44.3069 53.229L44.0352 53.3764L44.1045 53.6625L43.8762 53.8822L44.2635 54.5238L44.2288 54.7724L44.3734 54.7521L44.5237 53.7146L44.9746 53.7926L45.1278 54.1943L45.4544 54.3446L45.9082 55.0122L45.8417 55.6134L45.5556 55.6163L45.9834 56.2377L46.2869 56.2695L47.339 57.1076L47.5211 57.4602L47.3217 57.8388L47.7611 58.0758L48.1397 59.1192L48.6109 59.0614L49.4347 58.8157L49.9492 58.9371L50.7354 59.7261L50.5417 60.1134L50.7614 60.2752L50.5822 60.5672L51.2239 61.4949L51.1777 61.651L51.7095 61.5932L52.331 62.0065L52.7067 61.5961L54.0711 61.7839L54.178 61.5989L54.0306 60.9978L53.5826 60.7319L53.2993 60.7984L53.227 60.255L52.6807 60.1423L52.5969 59.8851L52.331 59.807L52.6749 59.307L52.5709 58.8475L52.9438 58.5585L52.4292 58.3909L52.2905 57.8359L51.828 57.8099L50.9811 57.229L50.5388 56.7377L50.3943 56.177L50.1428 55.9169L49.8075 55.6683L49.6601 54.518L49.981 54.0932L49.9636 53.7463L49.8364 53.5932L49.9232 53.2319L49.5763 52.8706L49.6948 52.3648L49.8682 52.2146L50.1486 52.3475L50.2007 51.9371L50.4724 51.8475L50.7296 52.1799L51.2181 52.3648L51.3337 52.0932L51.1487 51.4111L51.8165 50.9573L51.5274 50.8215L51.4696 50.5151L51.2846 50.5209L51.1227 49.7637L50.9637 49.4862L50.8395 49.1221L50.3047 48.8706L50.0937 48.4747L49.9781 48.1943L50.2729 48.1018L49.9087 47.3966L49.8018 46.651L49.2323 45.6047L49.4462 45.3851L49.082 45.0585L49.2092 44.6596L48.9924 44.7348L48.738 44.5007L48.8768 44.1336L49.1167 44.151L48.9288 43.5411L48.8479 43.0643L49.0502 42.8648L48.0472 41.3677L48.5386 41.3186V40.9197L47.9345 40.6828L47.7813 40.4458L47.9258 40.1423L47.7784 39.7984L47.5067 39.9226L47.1251 39.7926L46.8679 40.1452L46.3071 39.8157L46.1684 38.9775L46.3476 37.9544L46.6742 37.5065L46.2349 37.1596L46.1713 36.5469L45.7174 35.729L45.3995 35.6972L45.1914 35.4169L45.3821 34.9255L44.7434 34.5672L44.8792 34.203L44.6277 34.1047L44.5237 33.6221L44.2953 33.4284L44.2115 33.1827L43.9716 32.8388L43.8878 32.5816L43.7172 31.9573L43.0726 31.0787L42.5552 30.8966L43.035 29.8995L42.4223 29.3359L42.4367 28.6105L41.8702 27.8764L42.165 26.8822L41.7488 26.0931L41.6418 25.2897L42.2373 24.755L43.1767 24.4775L43.7721 25.0065L43.7288 25.3677L44.0381 25.8879L44.3242 25.9602L44.1797 26.3186L44.2838 26.5036L44.5526 26.4718L45.1278 27.0036L45.518 26.5238L46.2551 26.3417L47.0847 26.6365L48.2322 26.8388L48.4692 27.0498L48.7698 28.0267L49.0531 28.3099L49.0387 28.7232L50.1082 28.0527L50.3596 28.5498L50.0735 28.7926L50.4088 29.0209L51.3048 28.888L52.1084 29.0209L52.0593 29.307L52.3714 29.4342L52.3512 29.9775L52.6749 30.1799L52.3859 30.3475L51.828 29.9313L51.8367 30.6538L51.5708 30.966L51.1748 31.07L50.6024 30.9313L50.8799 31.4197L50.6747 32.1828L51.7153 32.2348L52.1431 32.5267L52.5015 33.0614L51.8193 32.8504L52.25 33.4631L52.5911 33.3273L52.6692 33.0093L52.9004 33.0816L52.9871 33.3619H52.7183L52.4784 33.6278L52.6894 33.9862L53.1634 34.0614L53.308 34.3764L53.6115 34.3475L53.6837 34.0845L54.1 34.1914L54.1173 33.7608L53.5768 33.1972L53.9381 32.6047L56.1204 32.4313L55.8747 32.125L55.3284 32.1076L55.6724 31.7434L55.1781 31.6423L54.9931 31.888L54.7677 31.4747L54.8573 31.2579L55.7244 31.203L55.736 31.0064L55.7302 30.6654L55.9499 30.4689L56.2158 30.5122L56.4789 30.8359L56.9905 30.8937L56.8806 30.6596L56.7592 30.5151L56.9731 30.4082L57.2217 30.57L57.9183 30.1336L59.5775 30.5469L59.933 30.3186L60.0198 29.94L60.6932 29.0671L60.6759 28.6596L59.9128 28.4197L59.3867 28.8301L58.5051 28.6307L57.9473 28.7203L57.8374 28.3244L57.0281 28.3937L56.9876 27.703L56.791 27.5382L56.0944 27.57L55.9123 27.3446L55.4065 27.2955L54.892 26.7723L53.5652 26.5729L53.2935 26.2434L53.3282 25.6394L53.5508 25.2406L53.7907 25.1741L53.9236 24.8706L53.8138 24.6221L54.1347 24.2463L53.1374 23.6423L52.9987 23.3793L53.0594 22.9833L53.0767 22.8244L53.3831 22.7723L52.8946 21.5989L53.4265 20.8446L53.4872 20.3908L53.0912 20.4689L52.0188 19.8533L52.0217 19.3301L52.2876 18.9891L52.8773 19.018L53.6115 18.3388L53.5594 17.4833L53.2501 17.4429L52.6142 16.5325L52.25 16.4544L51.9812 16.1047L51.7818 16.0296L50.6602 16.2059L50.1428 16.0729L49.3537 16.2059L49.1051 16.0642L48.8566 15.57L49.03 15.3908L48.7265 15.0036L49.3913 14.3677L49.3017 14.0758L47.842 12.622L47.3766 13.0556L47.209 12.8388L46.2724 13.281L45.1625 13.0816L43.5438 12.044L43.0408 11.0556L42.2459 10.4515L41.8557 9.89662L40.1474 9.03824L39.578 8.50066L37.0459 7.5469L35.7249 6.59893L34.7046 6.78679L34.1727 6.58736L33.7334 6.76367L32.848 6.44398L32.8479 6.4422L32.2178 6.04047L31.8738 5.33815L30.1857 5.50867L29.3937 5.16475L28.7289 5.1763L28.2924 4.5318L27.749 4.54047L27.0264 3.95954L27.0524 3.62717L26.0349 2.39018L25.24 2.7948L24.9279 2.21677L24.5376 1.98556L24.2919 2.06648L23.8959 1.76879L23.8381 1.21677L23.4826 0.838159L22.8265 0.913296L21.7627 0.338153L20.0169 0.476885L19.7018 0.0982729Z" />
<path d="M48.4143 59.388L48.2669 59.4255L47.8449 59.4573L47.5414 59.6683L47.446 60.0787L47.1858 60.1336L47.0066 60.7521L47.1829 60.9747L47.5703 60.57L48.0848 60.4747L48.449 60.7955L48.6253 61.1423L48.712 60.6481L48.4634 60.4718L48.5444 59.8966L48.4143 59.388Z" />
<path d="M17.5117 51.8619L17.1071 51.7781L16.7573 51.4602L16.4914 52.5238L16.5665 52.8822L16.9914 52.755L16.8411 53.07L17.2574 53.3186L17.1331 52.9284L17.5117 51.8619Z" />
<path d="M15.9306 50.5845L15.5635 50.4631L15.3178 50.2261L15.0837 50.6018L15.1646 51.4169L14.9681 51.6365L15.1242 52.1163L15.3063 52.0903L15.393 51.7926L15.2745 51.4082L15.7745 51.177L15.6734 50.7521L15.9306 50.5845Z" />
<path d="M11.6122 42.2319L11.5226 42.0007L11.5573 41.4949L11.0803 41.7752L11.1324 42.0007L11.4388 42.0469L11.3867 42.5614L11.6122 42.2319Z" />
<path d="M58.3057 32.5614L58.0224 32.3302L57.8519 32.2666L57.8634 32.5122L57.6033 32.7579L57.3402 32.3706L56.7881 32.6336L56.2968 32.6018L56.2679 32.8388L56.7419 33.2406L57.4616 33.2001L58.19 32.8504L58.3057 32.5614Z" />
<path d="M48.3999 8.69141L48.053 8.45441L47.4026 8.58737L47.3333 8.89661L46.8794 8.85905L46.4892 9.32147L45.9718 9.3128L45.9285 9.55846L45.0613 10.1452L45.5729 10.3041L45.7232 10.2521L45.6972 10.0151L46.1424 10.0325V10.229L45.7493 10.2955L46.6627 10.544L47.7928 11.5325L48.2178 11.6972L48.2264 12.1134L47.8507 12.6134L49.1976 13.7868L49.3682 13.5816L49.7642 13.7868L50.2556 13.6452L50.429 13.9602L50.799 13.9544L51.2239 13.755L51.4147 13.8648L52.4668 13.6827L53.2039 12.8012L53.6606 12.6654L53.3311 12.0238L52.2992 11.7145L51.7095 11.3186L51.8425 10.7116L52.2934 10.307L51.9292 10.1105L52.0014 9.07002L50.9059 9.13939L50.3452 9.36483L50.0301 9.26655L49.9203 9.00355L49.6572 9.03534L49.5532 9.30124L48.9375 9.05558L48.6716 8.62783L48.3999 8.69141Z" />
</svg>
