<svg width="64" height="64" viewBox="0 0 64 64" fill="none" xmlns="http://www.w3.org/2000/svg">
<path d="M21.3106 37.7009L21.7245 36.9093L21.1186 37.2271L21.2686 38.4926L19.745 39.1043L18.5694 38.9544L18.4854 39.5901L19.0073 39.4522L19.6611 40.2618L20.2609 40.3098L19.973 40.8256L20.5548 41.1975L20.4528 40.3098L22.5042 40.6277L23.8898 39.4582L23.236 38.9064L22.7742 39.2303L22.6122 38.4986L22.1143 38.2707L21.6825 38.6905L21.8624 37.6589L21.3106 37.7009Z" fill="#CED9E5"/>
<path d="M17.3637 31.7334L16.428 31.3136L13.201 31.8594L12.0793 33.2328L12.7571 33.2148L13.6269 33.9705L14.4246 34.9361L14.3646 35.3619L15.0125 35.6858L14.9765 36.7353L15.5043 37.2271L13.5909 38.5826L12.7511 38.5765L11.9653 37.617L10.2319 36.9632L9.87797 35.8957L8.82227 35.032L6.45297 34.2224L5.78717 35.002L6.01511 35.5178L5.73919 36.1476L5.24133 36.2795L4.77947 37.1012L4.70749 38.3486L5.27133 39.0324L8.02451 39.4462L9.0922 40.5318L10.1419 40.6337L10.5198 41.1015L11.9653 41.0355L12.3732 41.3774L12.4572 42.8108L14.1367 42.6668L14.3646 43.4885L15.5223 43.3026L17.3518 43.7164L18.4434 42.8648L20.027 43.3626L20.0629 44.2082L18.6654 46.0195L18.4794 46.7992L22.4322 46.0255L23.8658 45.0179L23.434 44.778L23.5839 43.7524L22.5222 42.6729L21.4066 42.451L21.3706 41.7552L19.2472 40.5258L17.3637 40.0639L16.8539 40.2499L16.386 39.5242L17.6397 39.5961L18.2215 39.0204L15.3304 36.7713L15.8042 37.0712L16.542 36.6454L16.56 35.5298L17.5557 34.6422L18.0236 33.1968L17.3637 31.7334Z" fill="#CED9E5"/>
<path d="M15.3963 26.5516L14.5986 26.5216L14.2507 26.3956L13.8068 26.8274L13.093 28.2369L13.165 28.8906L14.0467 29.0885L14.4366 28.4468L15.7682 27.7211L15.3963 26.5516Z" fill="#CED9E5"/>
<path d="M25.4314 22.4013L22.0544 22.3353L18.5814 22.7312L18.1435 23.103L19.0733 25.394L20.2909 25.8738L20.7108 26.6475L20.9147 27.3732L19.847 27.6851L20.1349 27.907L19.913 28.0689L21.5925 29.0405L24.0218 27.799L23.8358 26.5756L24.9155 25.3401L24.5796 24.4404L25.5933 24.2365L26.1871 22.9291L26.1272 22.5392L25.4314 22.4013Z" fill="#CED9E5"/>
<path d="M23.6799 7.19761L22.1623 6.77778L20.8907 7.30555L21.3646 7.85133L21.1186 8.31914L20.2729 8.51105L18.8333 7.96528L18.0955 8.31914L19.943 8.89489L19.5591 9.39269L18.1135 9.84248L18.5574 9.80651L18.4794 10.2323L18.9353 9.85449L20.6088 10.2084L21.2686 9.62059L22.6062 9.46466L20.8547 12.1575L17.5077 11.7617L17.8076 12.4214L17.4237 12.7693L17.6457 13.6749L17.2918 14.1187L18.7134 14.5265L19.5291 15.5401L21.0107 14.6525H21.7545L22.0244 13.7349L22.8341 13.5729L23.452 14.0048L23.35 12.8293L24.3997 12.9732L24.4117 12.3015L25.1254 12.0136L24.5736 11.5458L24.6996 10.994L26.8889 10.5562L24.9275 10.6102L24.6816 10.3463L25.2994 10.0944L24.0758 9.79452L24.2377 9.24273L24.9515 9.5606L24.1537 8.75694L24.9275 7.26356L24.3397 7.77336L23.6799 7.19761Z" fill="#CED9E5"/>
<path d="M45.4146 41.8514L44.1189 41.2397L43.7171 41.3116L44.7188 42.1093L45.0367 42.883L46.1164 43.3568L45.4146 41.8514Z" fill="#CED9E5"/>
<path d="M3.25929 55.6667C2.54818 55.1926 1.38274 55.8642 0.888916 56.2593C1.08645 56.4568 1.54077 56.9704 1.7778 57.4444C2.0741 58.037 2.96299 58.6296 4.14818 58.037C5.33336 57.4444 4.14818 56.2593 3.25929 55.6667Z" fill="#CED9E5"/>
<path d="M19.8519 53.5926L17.1852 54.1852L15.7037 54.4815V53.8889L18.3704 52.1111L20.4445 50.6296L21.926 50.3333H23.4074L25.1852 49.7407H26.963L26.0741 50.6296L23.4074 51.8148L22.2222 53.2963L19.8519 53.5926Z" fill="#CED9E5"/>
<path d="M56.2963 24.2593L56 23.3704L55.1111 24.2593L54.5185 26.6296L53.926 29.8889L54.2222 30.7778L54.5185 30.1852V29.5926L55.1111 28.4074L55.4074 27.2222L56 26.3333L56.5926 25.4444V24.8519L56.2963 24.2593Z" fill="#CED9E5"/>
<path d="M63.4074 6.18518L62.5185 5.2963H61.6297L60.7408 6.77778V7.96296H61.6297H62.5185L63.4074 7.37037V6.18518Z" fill="#CED9E5"/>
</svg>
